%TF.GenerationSoftware,KiCad,Pcbnew,6.0.6-1.fc35*%
%TF.CreationDate,2022-07-26T21:01:35+02:00*%
%TF.ProjectId,Nixiewatch,4e697869-6577-4617-9463-682e6b696361,rev?*%
%TF.SameCoordinates,Original*%
%TF.FileFunction,Paste,Top*%
%TF.FilePolarity,Positive*%
%FSLAX46Y46*%
G04 Gerber Fmt 4.6, Leading zero omitted, Abs format (unit mm)*
G04 Created by KiCad (PCBNEW 6.0.6-1.fc35) date 2022-07-26 21:01:35*
%MOMM*%
%LPD*%
G01*
G04 APERTURE LIST*
G04 Aperture macros list*
%AMRoundRect*
0 Rectangle with rounded corners*
0 $1 Rounding radius*
0 $2 $3 $4 $5 $6 $7 $8 $9 X,Y pos of 4 corners*
0 Add a 4 corners polygon primitive as box body*
4,1,4,$2,$3,$4,$5,$6,$7,$8,$9,$2,$3,0*
0 Add four circle primitives for the rounded corners*
1,1,$1+$1,$2,$3*
1,1,$1+$1,$4,$5*
1,1,$1+$1,$6,$7*
1,1,$1+$1,$8,$9*
0 Add four rect primitives between the rounded corners*
20,1,$1+$1,$2,$3,$4,$5,0*
20,1,$1+$1,$4,$5,$6,$7,0*
20,1,$1+$1,$6,$7,$8,$9,0*
20,1,$1+$1,$8,$9,$2,$3,0*%
G04 Aperture macros list end*
%ADD10RoundRect,0.225000X-0.250000X0.225000X-0.250000X-0.225000X0.250000X-0.225000X0.250000X0.225000X0*%
%ADD11RoundRect,0.225000X-0.225000X-0.250000X0.225000X-0.250000X0.225000X0.250000X-0.225000X0.250000X0*%
%ADD12RoundRect,0.200000X-0.275000X0.200000X-0.275000X-0.200000X0.275000X-0.200000X0.275000X0.200000X0*%
%ADD13R,0.800000X0.900000*%
%ADD14RoundRect,0.200000X0.275000X-0.200000X0.275000X0.200000X-0.275000X0.200000X-0.275000X-0.200000X0*%
%ADD15RoundRect,0.250000X-0.325000X-0.450000X0.325000X-0.450000X0.325000X0.450000X-0.325000X0.450000X0*%
%ADD16R,1.060000X0.650000*%
%ADD17RoundRect,0.200000X-0.200000X-0.275000X0.200000X-0.275000X0.200000X0.275000X-0.200000X0.275000X0*%
%ADD18RoundRect,0.250000X-0.450000X0.325000X-0.450000X-0.325000X0.450000X-0.325000X0.450000X0.325000X0*%
%ADD19RoundRect,0.172500X-0.172500X-0.422500X0.172500X-0.422500X0.172500X0.422500X-0.172500X0.422500X0*%
%ADD20RoundRect,0.075000X-0.650000X-0.075000X0.650000X-0.075000X0.650000X0.075000X-0.650000X0.075000X0*%
%ADD21R,0.980000X3.400000*%
%ADD22RoundRect,0.250000X-0.375000X-0.625000X0.375000X-0.625000X0.375000X0.625000X-0.375000X0.625000X0*%
%ADD23R,0.900000X1.200000*%
G04 APERTURE END LIST*
D10*
%TO.C,C11*%
X78232000Y-53722000D03*
X78232000Y-55272000D03*
%TD*%
D11*
%TO.C,C12*%
X74550000Y-52324000D03*
X76100000Y-52324000D03*
%TD*%
D12*
%TO.C,R20*%
X102500000Y-41075000D03*
X102500000Y-42725000D03*
%TD*%
D13*
%TO.C,Q11*%
X95692000Y-54626000D03*
X93792000Y-54626000D03*
X94742000Y-56626000D03*
%TD*%
%TO.C,Q7*%
X95316000Y-39608000D03*
X97216000Y-39608000D03*
X96266000Y-37608000D03*
%TD*%
%TO.C,Q9*%
X89850000Y-54372000D03*
X87950000Y-54372000D03*
X88900000Y-56372000D03*
%TD*%
D14*
%TO.C,R19*%
X104300000Y-55400000D03*
X104300000Y-53750000D03*
%TD*%
%TO.C,R18*%
X100800000Y-55425000D03*
X100800000Y-53775000D03*
%TD*%
%TO.C,R17*%
X80518000Y-55181000D03*
X80518000Y-53531000D03*
%TD*%
D13*
%TO.C,Q8*%
X91760000Y-39608000D03*
X93660000Y-39608000D03*
X92710000Y-37608000D03*
%TD*%
%TO.C,Q5*%
X100772000Y-56912000D03*
X98872000Y-56912000D03*
X99822000Y-58912000D03*
%TD*%
%TO.C,Q2*%
X98872000Y-39608000D03*
X100772000Y-39608000D03*
X99822000Y-37608000D03*
%TD*%
D14*
%TO.C,R25*%
X90932000Y-49085000D03*
X90932000Y-47435000D03*
%TD*%
D15*
%TO.C,R24*%
X86868000Y-58166000D03*
X88918000Y-58166000D03*
%TD*%
D11*
%TO.C,C17*%
X74550000Y-57912000D03*
X76100000Y-57912000D03*
%TD*%
D13*
%TO.C,Q1*%
X107884000Y-56912000D03*
X105984000Y-56912000D03*
X106934000Y-58912000D03*
%TD*%
%TO.C,Q6*%
X80452000Y-56912000D03*
X78552000Y-56912000D03*
X79502000Y-58912000D03*
%TD*%
%TO.C,Q10*%
X90866000Y-50816000D03*
X88966000Y-50816000D03*
X89916000Y-52816000D03*
%TD*%
%TO.C,Q4*%
X104328000Y-56912000D03*
X102428000Y-56912000D03*
X103378000Y-58912000D03*
%TD*%
%TO.C,Q12*%
X96708000Y-51070000D03*
X94808000Y-51070000D03*
X95758000Y-53070000D03*
%TD*%
D12*
%TO.C,R27*%
X93218000Y-51386000D03*
X93218000Y-53036000D03*
%TD*%
%TO.C,R26*%
X88900000Y-47435000D03*
X88900000Y-49085000D03*
%TD*%
%TO.C,R23*%
X87376000Y-51132000D03*
X87376000Y-52782000D03*
%TD*%
D14*
%TO.C,R22*%
X108000000Y-55456000D03*
X108000000Y-53806000D03*
%TD*%
D12*
%TO.C,R16*%
X95500000Y-41075000D03*
X95500000Y-42725000D03*
%TD*%
%TO.C,R15*%
X91800000Y-41075000D03*
X91800000Y-42725000D03*
%TD*%
D16*
%TO.C,U3*%
X76538000Y-56068000D03*
X76538000Y-55118000D03*
X76538000Y-54168000D03*
X74338000Y-54168000D03*
X74338000Y-56068000D03*
%TD*%
D12*
%TO.C,R30*%
X94742000Y-47830000D03*
X94742000Y-49480000D03*
%TD*%
D13*
%TO.C,Q3*%
X102428000Y-39608000D03*
X104328000Y-39608000D03*
X103378000Y-37608000D03*
%TD*%
D14*
%TO.C,R29*%
X96774000Y-49480000D03*
X96774000Y-47830000D03*
%TD*%
D15*
%TO.C,R28*%
X94987000Y-58420000D03*
X97037000Y-58420000D03*
%TD*%
D12*
%TO.C,R21*%
X99100000Y-41075000D03*
X99100000Y-42725000D03*
%TD*%
%TO.C,R1*%
X110500000Y-50875000D03*
X110500000Y-52525000D03*
%TD*%
D17*
%TO.C,R2*%
X103875000Y-50890000D03*
X105525000Y-50890000D03*
%TD*%
D18*
%TO.C,C1*%
X103349000Y-47065000D03*
X103349000Y-49115000D03*
%TD*%
D11*
%TO.C,C3*%
X106974000Y-50890000D03*
X108524000Y-50890000D03*
%TD*%
D10*
%TO.C,C4*%
X105149000Y-47677000D03*
X105149000Y-49227000D03*
%TD*%
D19*
%TO.C,IC1*%
X108670000Y-46980000D03*
X108670000Y-48400000D03*
X109500000Y-48400000D03*
X109500000Y-46980000D03*
D20*
X106935000Y-45940000D03*
X106935000Y-46940000D03*
X106935000Y-47940000D03*
X106935000Y-48440000D03*
X106935000Y-48940000D03*
X106935000Y-49440000D03*
X111235000Y-49440000D03*
X111235000Y-48940000D03*
X111235000Y-48440000D03*
X111235000Y-47940000D03*
X111235000Y-46940000D03*
X111235000Y-45940000D03*
%TD*%
D21*
%TO.C,L1*%
X106630000Y-42864000D03*
X109000000Y-42864000D03*
%TD*%
D10*
%TO.C,C2*%
X112100000Y-50950000D03*
X112100000Y-52500000D03*
%TD*%
D22*
%TO.C,C5*%
X106700000Y-36300000D03*
X109500000Y-36300000D03*
%TD*%
D14*
%TO.C,R36*%
X102400000Y-55425000D03*
X102400000Y-53775000D03*
%TD*%
%TO.C,R37*%
X99000000Y-55425000D03*
X99000000Y-53775000D03*
%TD*%
%TO.C,R33*%
X106000000Y-55400000D03*
X106000000Y-53750000D03*
%TD*%
D12*
%TO.C,R35*%
X104300000Y-41075000D03*
X104300000Y-42725000D03*
%TD*%
%TO.C,R39*%
X97200000Y-41075000D03*
X97200000Y-42725000D03*
%TD*%
D23*
%TO.C,D1*%
X109850000Y-38700000D03*
X106550000Y-38700000D03*
%TD*%
D12*
%TO.C,R34*%
X100700000Y-41075000D03*
X100700000Y-42725000D03*
%TD*%
%TO.C,R40*%
X93600000Y-41075000D03*
X93600000Y-42725000D03*
%TD*%
D14*
%TO.C,R38*%
X82400000Y-57025000D03*
X82400000Y-55375000D03*
%TD*%
M02*
