%TF.GenerationSoftware,KiCad,Pcbnew,6.0.6-1.fc35*%
%TF.CreationDate,2022-07-26T21:01:35+02:00*%
%TF.ProjectId,Nixiewatch,4e697869-6577-4617-9463-682e6b696361,rev?*%
%TF.SameCoordinates,Original*%
%TF.FileFunction,Copper,L3,Inr*%
%TF.FilePolarity,Positive*%
%FSLAX46Y46*%
G04 Gerber Fmt 4.6, Leading zero omitted, Abs format (unit mm)*
G04 Created by KiCad (PCBNEW 6.0.6-1.fc35) date 2022-07-26 21:01:35*
%MOMM*%
%LPD*%
G01*
G04 APERTURE LIST*
%TA.AperFunction,ComponentPad*%
%ADD10C,1.700000*%
%TD*%
%TA.AperFunction,ComponentPad*%
%ADD11R,1.700000X1.700000*%
%TD*%
%TA.AperFunction,ComponentPad*%
%ADD12O,1.700000X1.700000*%
%TD*%
%TA.AperFunction,ComponentPad*%
%ADD13C,0.550000*%
%TD*%
%TA.AperFunction,ViaPad*%
%ADD14C,0.600000*%
%TD*%
%TA.AperFunction,ViaPad*%
%ADD15C,0.450000*%
%TD*%
%TA.AperFunction,ViaPad*%
%ADD16C,0.800000*%
%TD*%
%TA.AperFunction,Conductor*%
%ADD17C,0.200000*%
%TD*%
G04 APERTURE END LIST*
D10*
%TO.N,Net-(IC2-Pad1)*%
%TO.C,IC2*%
X79492001Y-60794000D03*
%TO.N,Net-(IC2-Pad2)*%
X82032001Y-60794000D03*
%TO.N,Net-(IC2-Pad3)*%
X84572001Y-60794000D03*
%TO.N,Net-(IC2-Pad4)*%
X87112001Y-60794000D03*
%TO.N,Net-(IC2-Pad10)*%
X89652001Y-60794000D03*
%TO.N,Net-(IC2-Pad1)*%
X94732001Y-60794000D03*
%TO.N,Net-(IC2-Pad7)*%
X97272001Y-60794000D03*
%TO.N,Net-(IC2-Pad3)*%
X99812001Y-60794000D03*
%TO.N,Net-(IC2-Pad4)*%
X102352001Y-60794000D03*
%TO.N,Net-(IC2-Pad10)*%
X104892001Y-60794000D03*
%TO.N,Net-(IC2-Pad11)*%
X102352001Y-35394000D03*
%TO.N,Net-(IC2-Pad12)*%
X99812001Y-35394000D03*
%TO.N,Net-(IC2-Pad13)*%
X97272001Y-35394000D03*
%TO.N,Net-(IC2-Pad14)*%
X94732001Y-35394000D03*
%TO.N,N/C*%
X89652001Y-35394000D03*
%TO.N,Net-(IC2-Pad11)*%
X87112001Y-35394000D03*
%TO.N,Net-(IC2-Pad12)*%
X84572001Y-35394000D03*
%TO.N,Net-(IC2-Pad13)*%
X82032001Y-35394000D03*
%TO.N,Net-(IC2-Pad14)*%
X79492001Y-35394000D03*
%TD*%
D11*
%TO.N,+BATT*%
%TO.C,J1*%
X71600000Y-52775000D03*
D12*
%TO.N,GND*%
X71600000Y-50235000D03*
%TD*%
D13*
%TO.N,GND*%
%TO.C,IC1*%
X109635500Y-48837500D03*
X108534500Y-46542500D03*
X109635500Y-47690000D03*
X108534500Y-48837500D03*
X108534500Y-47690000D03*
X109635500Y-46542500D03*
%TD*%
D14*
%TO.N,GND*%
X82484500Y-48134500D03*
X100284500Y-45734500D03*
X69884500Y-61934500D03*
X77884500Y-61934500D03*
%TO.N,/MCU/STAT*%
X69684500Y-58734500D03*
%TO.N,GND*%
X73484500Y-47134500D03*
X73684500Y-42134500D03*
X69884500Y-39734500D03*
X70284500Y-36734500D03*
X73588500Y-57686500D03*
%TO.N,/MCU/STAT*%
X93966500Y-37874500D03*
%TO.N,+BATT*%
X81280000Y-58420000D03*
D15*
%TO.N,/MCU/USB_N*%
X73406000Y-44196000D03*
%TO.N,/MCU/USB_P*%
X73406000Y-45212000D03*
%TO.N,GND*%
X77600000Y-56642000D03*
%TO.N,+5V*%
X73639002Y-58800000D03*
X70800000Y-58300000D03*
D16*
%TO.N,+BATT*%
X71800000Y-55200000D03*
D15*
%TO.N,GND*%
X105646056Y-59246056D03*
X92900000Y-43189330D03*
X102400000Y-49600000D03*
D14*
X108900000Y-49700000D03*
D15*
X102400000Y-48700000D03*
D14*
X79431561Y-52944748D03*
X102000000Y-59000000D03*
X76000000Y-41200000D03*
X103000000Y-45000000D03*
X109000000Y-61000000D03*
X90000000Y-44000000D03*
D15*
X108899500Y-55300000D03*
D14*
X77301523Y-57666415D03*
X81444000Y-47079979D03*
X108500000Y-51800000D03*
X111000000Y-61000000D03*
X75000000Y-35000000D03*
X100330000Y-48006000D03*
X84069023Y-38569023D03*
X95504000Y-46736000D03*
X109300000Y-52600000D03*
X77440000Y-54864000D03*
X104000000Y-35000000D03*
X108100000Y-34500000D03*
D15*
X101610885Y-56383155D03*
D14*
X77380000Y-52398000D03*
D15*
X99800000Y-56400000D03*
D14*
X93000000Y-56000000D03*
X73000000Y-35000000D03*
D15*
X101800000Y-53200000D03*
D14*
X85344000Y-40386000D03*
X111684500Y-56334500D03*
X77000000Y-35000000D03*
X75900000Y-43100000D03*
X107000000Y-61000000D03*
X75602000Y-47079979D03*
X92000000Y-35000000D03*
D15*
X107240031Y-56114609D03*
D14*
X83000000Y-54400000D03*
X85344000Y-54102000D03*
X73784500Y-59834500D03*
X111684500Y-59534500D03*
X111700000Y-34600000D03*
D15*
X96900000Y-43309500D03*
D14*
X88000000Y-41000000D03*
X81500000Y-54800000D03*
D15*
X105400000Y-58600000D03*
X105275498Y-53000000D03*
D14*
X87122000Y-49022000D03*
X71000000Y-35000000D03*
D15*
X104000000Y-43600000D03*
D14*
X82000000Y-50000000D03*
X86000000Y-62000000D03*
D15*
X100449580Y-43250421D03*
D14*
X109100000Y-45400000D03*
X112284500Y-55134500D03*
D15*
X99600000Y-53100000D03*
X85200000Y-41400000D03*
D14*
X100884500Y-33400000D03*
X79500000Y-33300000D03*
X85000000Y-47000000D03*
X75379680Y-53562399D03*
D15*
%TO.N,+12V*%
X101800000Y-47200000D03*
D14*
%TO.N,Net-(C5-Pad2)*%
X111600000Y-36800000D03*
%TO.N,Net-(C6-Pad2)*%
X108500000Y-38100000D03*
X110200000Y-40500000D03*
%TO.N,VAA*%
X94400000Y-55300000D03*
X85852000Y-49784000D03*
X112500000Y-44900000D03*
X91948000Y-53594000D03*
%TO.N,Net-(IC1-Pad9)*%
X111496007Y-50092869D03*
D15*
%TO.N,+BATT*%
X96150047Y-57596959D03*
D14*
%TO.N,+3V3*%
X74676000Y-59718500D03*
X81444000Y-52144000D03*
X90424000Y-41910000D03*
X91186000Y-56134000D03*
D15*
X83820000Y-43957979D03*
D14*
X82440000Y-43122000D03*
X92964000Y-44704000D03*
X83274924Y-45671254D03*
X87376000Y-38862000D03*
D15*
X75602000Y-51382000D03*
%TO.N,/PSU/HV_EN*%
X101300000Y-46300000D03*
X102464804Y-45835196D03*
D14*
X105021000Y-45912000D03*
D15*
X99770878Y-50129122D03*
X99300000Y-58000000D03*
D14*
%TO.N,Net-(IC2-Pad13)*%
X91694000Y-36322000D03*
X94756333Y-36991990D03*
%TO.N,Net-(IC2-Pad3)*%
X92710000Y-59690000D03*
D15*
%TO.N,SDA*%
X80682000Y-43508000D03*
X84500000Y-42300000D03*
D14*
%TO.N,nixie_g*%
X91198944Y-43713830D03*
%TO.N,nixie_f*%
X96300000Y-42100000D03*
%TO.N,nixie_e*%
X82804000Y-53594000D03*
%TO.N,nixie_d*%
X95500000Y-52000000D03*
%TO.N,nixie_c*%
X97536000Y-46228000D03*
%TO.N,nixie_b*%
X101000000Y-43900000D03*
%TO.N,nixie_a*%
X98172868Y-43211525D03*
%TO.N,nixie_dp*%
X107400000Y-52200000D03*
%TO.N,nixie_1*%
X91186000Y-45466000D03*
%TO.N,nixie_2*%
X97723203Y-49093584D03*
D15*
%TO.N,/MCU/USB_P*%
X89154000Y-46070000D03*
%TO.N,/MCU/USB_N*%
X89175239Y-45348761D03*
D14*
%TO.N,Net-(Q7-Pad2)*%
X96520000Y-38862000D03*
D15*
%TO.N,/MCU/BAT*%
X82600000Y-39261500D03*
X82600000Y-37224500D03*
X90000000Y-37300000D03*
X79189388Y-41518571D03*
%TD*%
D17*
%TO.N,/PSU/HV_EN*%
X99075000Y-57775000D02*
X99075000Y-50825000D01*
X99300000Y-58000000D02*
X99075000Y-57775000D01*
X99075000Y-50825000D02*
X99770878Y-50129122D01*
%TD*%
%TA.AperFunction,Conductor*%
%TO.N,GND*%
G36*
X80187621Y-31809002D02*
G01*
X80234114Y-31862658D01*
X80245500Y-31915000D01*
X80245500Y-33462524D01*
X80243079Y-33487103D01*
X80240514Y-33500000D01*
X80245500Y-33525067D01*
X80260266Y-33599301D01*
X80316516Y-33683484D01*
X80400699Y-33739734D01*
X80500000Y-33759486D01*
X80512897Y-33756921D01*
X80537476Y-33754500D01*
X99847024Y-33754500D01*
X99871603Y-33756921D01*
X99884500Y-33759486D01*
X99983801Y-33739734D01*
X100067984Y-33683484D01*
X100124234Y-33599301D01*
X100139000Y-33525067D01*
X100143986Y-33500000D01*
X100141421Y-33487103D01*
X100139000Y-33462524D01*
X100139000Y-31915000D01*
X100159002Y-31846879D01*
X100212658Y-31800386D01*
X100265000Y-31789000D01*
X101504000Y-31789000D01*
X101572121Y-31809002D01*
X101618614Y-31862658D01*
X101630000Y-31915000D01*
X101630000Y-33462524D01*
X101627579Y-33487103D01*
X101625014Y-33500000D01*
X101630000Y-33525067D01*
X101644766Y-33599301D01*
X101701016Y-33683484D01*
X101785199Y-33739734D01*
X101884500Y-33759486D01*
X101897397Y-33756921D01*
X101921976Y-33754500D01*
X113019500Y-33754500D01*
X113087621Y-33774502D01*
X113134114Y-33828158D01*
X113145500Y-33880500D01*
X113145500Y-44459182D01*
X113125498Y-44527303D01*
X113071842Y-44573796D01*
X113001568Y-44583900D01*
X112936988Y-44554406D01*
X112919537Y-44535885D01*
X112900504Y-44511080D01*
X112900500Y-44511076D01*
X112895474Y-44504526D01*
X112888924Y-44499500D01*
X112888921Y-44499497D01*
X112786196Y-44420673D01*
X112786194Y-44420672D01*
X112779643Y-44415645D01*
X112644754Y-44359772D01*
X112500000Y-44340715D01*
X112491812Y-44341793D01*
X112363432Y-44358694D01*
X112363430Y-44358695D01*
X112355246Y-44359772D01*
X112308037Y-44379327D01*
X112227986Y-44412485D01*
X112227984Y-44412486D01*
X112220358Y-44415645D01*
X112104526Y-44504526D01*
X112015645Y-44620358D01*
X112012486Y-44627984D01*
X112012485Y-44627986D01*
X111988581Y-44685696D01*
X111959772Y-44755246D01*
X111958695Y-44763430D01*
X111958694Y-44763432D01*
X111948539Y-44840568D01*
X111940715Y-44900000D01*
X111941793Y-44908188D01*
X111952126Y-44986673D01*
X111959772Y-45044754D01*
X112015645Y-45179642D01*
X112025071Y-45191926D01*
X112079827Y-45263285D01*
X112104526Y-45295474D01*
X112111076Y-45300500D01*
X112111079Y-45300503D01*
X112213804Y-45379327D01*
X112220357Y-45384355D01*
X112355246Y-45440228D01*
X112500000Y-45459285D01*
X112508188Y-45458207D01*
X112511189Y-45457812D01*
X112644754Y-45440228D01*
X112779643Y-45384355D01*
X112786196Y-45379327D01*
X112888921Y-45300503D01*
X112888924Y-45300500D01*
X112895474Y-45295474D01*
X112900501Y-45288923D01*
X112900504Y-45288920D01*
X112919537Y-45264115D01*
X112976875Y-45222247D01*
X113047746Y-45218025D01*
X113109649Y-45252788D01*
X113142930Y-45315501D01*
X113145500Y-45340818D01*
X113145500Y-66954000D01*
X113125498Y-67022121D01*
X113071842Y-67068614D01*
X113019500Y-67080000D01*
X106480500Y-67080000D01*
X106412379Y-67059998D01*
X106365886Y-67006342D01*
X106354500Y-66954000D01*
X106354500Y-64270464D01*
X108326612Y-64270464D01*
X108326812Y-64275792D01*
X108326812Y-64275794D01*
X108328964Y-64333099D01*
X108328205Y-64333128D01*
X108328534Y-64334516D01*
X108328840Y-64334489D01*
X108328874Y-64334877D01*
X108328965Y-64336338D01*
X108329023Y-64336585D01*
X108329148Y-64338007D01*
X108335236Y-64500169D01*
X108336331Y-64505388D01*
X108349128Y-64566379D01*
X108348361Y-64566540D01*
X108349341Y-64568816D01*
X108349437Y-64569908D01*
X108350861Y-64575222D01*
X108350964Y-64575807D01*
X108352135Y-64580710D01*
X108382439Y-64725137D01*
X108407865Y-64789521D01*
X108408475Y-64791066D01*
X108409224Y-64793041D01*
X108410597Y-64798163D01*
X108412922Y-64803149D01*
X108412923Y-64803151D01*
X108413447Y-64804275D01*
X108416434Y-64811217D01*
X108466872Y-64938936D01*
X108503773Y-64999746D01*
X108505311Y-65002626D01*
X108505390Y-65002580D01*
X108508139Y-65007341D01*
X108510465Y-65012329D01*
X108513622Y-65016837D01*
X108513624Y-65016841D01*
X108515174Y-65019055D01*
X108519681Y-65025962D01*
X108534779Y-65050842D01*
X108586121Y-65135452D01*
X108589616Y-65139479D01*
X108589617Y-65139481D01*
X108636493Y-65193500D01*
X108640055Y-65198063D01*
X108642847Y-65201390D01*
X108646005Y-65205901D01*
X108652291Y-65212187D01*
X108658361Y-65218701D01*
X108736776Y-65309066D01*
X108740907Y-65312453D01*
X108800809Y-65361570D01*
X108808074Y-65368152D01*
X108809206Y-65369102D01*
X108813099Y-65372995D01*
X108817603Y-65376149D01*
X108817608Y-65376153D01*
X108820436Y-65378133D01*
X108828054Y-65383910D01*
X108910401Y-65451431D01*
X108910407Y-65451435D01*
X108914529Y-65454815D01*
X108919168Y-65457455D01*
X108919167Y-65457455D01*
X108991855Y-65498831D01*
X109001796Y-65505122D01*
X109002160Y-65505377D01*
X109002167Y-65505381D01*
X109006671Y-65508535D01*
X109011655Y-65510859D01*
X109011660Y-65510862D01*
X109014375Y-65512128D01*
X109023452Y-65516818D01*
X109067561Y-65541926D01*
X109114298Y-65568530D01*
X109203998Y-65601090D01*
X109214253Y-65605333D01*
X109215848Y-65606077D01*
X109215850Y-65606078D01*
X109220837Y-65608403D01*
X109226153Y-65609827D01*
X109226155Y-65609828D01*
X109227219Y-65610113D01*
X109228202Y-65610376D01*
X109238581Y-65613643D01*
X109330371Y-65646961D01*
X109430943Y-65665148D01*
X109441116Y-65667426D01*
X109449092Y-65669563D01*
X109455490Y-65670123D01*
X109466912Y-65671652D01*
X109556569Y-65687864D01*
X109560708Y-65688059D01*
X109560715Y-65688060D01*
X109579170Y-65688930D01*
X109579177Y-65688930D01*
X109580658Y-65689000D01*
X109742212Y-65689000D01*
X109821944Y-65682235D01*
X109908233Y-65674913D01*
X109908237Y-65674912D01*
X109913544Y-65674462D01*
X109918699Y-65673124D01*
X109918705Y-65673123D01*
X110130868Y-65618056D01*
X110130867Y-65618056D01*
X110136039Y-65616714D01*
X110282912Y-65550552D01*
X110340762Y-65524493D01*
X110340765Y-65524492D01*
X110345623Y-65522303D01*
X110536303Y-65393930D01*
X110563326Y-65368152D01*
X110698771Y-65238943D01*
X110702628Y-65235264D01*
X110839842Y-65050842D01*
X110856004Y-65019055D01*
X110941602Y-64850694D01*
X110941602Y-64850693D01*
X110944020Y-64845938D01*
X111012185Y-64626411D01*
X111042388Y-64398536D01*
X111040036Y-64335901D01*
X111040795Y-64335872D01*
X111040466Y-64334484D01*
X111040160Y-64334511D01*
X111040126Y-64334123D01*
X111040035Y-64332662D01*
X111039977Y-64332415D01*
X111039852Y-64330993D01*
X111033764Y-64168831D01*
X111019872Y-64102621D01*
X111020639Y-64102460D01*
X111019659Y-64100184D01*
X111019563Y-64099092D01*
X111018139Y-64093778D01*
X111018036Y-64093193D01*
X111016862Y-64088278D01*
X111008386Y-64047878D01*
X110986561Y-63943863D01*
X110960525Y-63877934D01*
X110959776Y-63875959D01*
X110958403Y-63870837D01*
X110955553Y-63864725D01*
X110952566Y-63857783D01*
X110902128Y-63730064D01*
X110865227Y-63669254D01*
X110863689Y-63666374D01*
X110863610Y-63666420D01*
X110860861Y-63661659D01*
X110858535Y-63656671D01*
X110855376Y-63652159D01*
X110853826Y-63649945D01*
X110849319Y-63643038D01*
X110785647Y-63538109D01*
X110785645Y-63538106D01*
X110782879Y-63533548D01*
X110732507Y-63475500D01*
X110728945Y-63470937D01*
X110726153Y-63467610D01*
X110722995Y-63463099D01*
X110716709Y-63456813D01*
X110710639Y-63450299D01*
X110635724Y-63363967D01*
X110635722Y-63363965D01*
X110632224Y-63359934D01*
X110568192Y-63307430D01*
X110560926Y-63300848D01*
X110559794Y-63299898D01*
X110555901Y-63296005D01*
X110551397Y-63292851D01*
X110551392Y-63292847D01*
X110548564Y-63290867D01*
X110540946Y-63285090D01*
X110458599Y-63217569D01*
X110458593Y-63217565D01*
X110454471Y-63214185D01*
X110377145Y-63170169D01*
X110367204Y-63163878D01*
X110366840Y-63163623D01*
X110366833Y-63163619D01*
X110362329Y-63160465D01*
X110357345Y-63158141D01*
X110357340Y-63158138D01*
X110354625Y-63156872D01*
X110345548Y-63152182D01*
X110301439Y-63127074D01*
X110254702Y-63100470D01*
X110165002Y-63067910D01*
X110154747Y-63063667D01*
X110153152Y-63062923D01*
X110153150Y-63062922D01*
X110148163Y-63060597D01*
X110142847Y-63059173D01*
X110142845Y-63059172D01*
X110141781Y-63058887D01*
X110140798Y-63058624D01*
X110130419Y-63055357D01*
X110038629Y-63022039D01*
X109938057Y-63003852D01*
X109927884Y-63001574D01*
X109919908Y-62999437D01*
X109913510Y-62998877D01*
X109902088Y-62997348D01*
X109812431Y-62981136D01*
X109808292Y-62980941D01*
X109808285Y-62980940D01*
X109789830Y-62980070D01*
X109789823Y-62980070D01*
X109788342Y-62980000D01*
X109626788Y-62980000D01*
X109547056Y-62986765D01*
X109460767Y-62994087D01*
X109460763Y-62994088D01*
X109455456Y-62994538D01*
X109450301Y-62995876D01*
X109450295Y-62995877D01*
X109277558Y-63040711D01*
X109232961Y-63052286D01*
X109125997Y-63100470D01*
X109028238Y-63144507D01*
X109028235Y-63144508D01*
X109023377Y-63146697D01*
X108832697Y-63275070D01*
X108828840Y-63278749D01*
X108828838Y-63278751D01*
X108802904Y-63303491D01*
X108666372Y-63433736D01*
X108529158Y-63618158D01*
X108526742Y-63622909D01*
X108526740Y-63622913D01*
X108427398Y-63818306D01*
X108424980Y-63823062D01*
X108356815Y-64042589D01*
X108326612Y-64270464D01*
X106354500Y-64270464D01*
X106354500Y-62537495D01*
X106356923Y-62512902D01*
X106357064Y-62512193D01*
X106359486Y-62500024D01*
X106354500Y-62474946D01*
X106354500Y-62474933D01*
X106353844Y-62471632D01*
X106349339Y-62448986D01*
X106349337Y-62448976D01*
X106342298Y-62413573D01*
X106339743Y-62400721D01*
X106339736Y-62400711D01*
X106339734Y-62400699D01*
X106311475Y-62358407D01*
X106283501Y-62316533D01*
X106283491Y-62316526D01*
X106283484Y-62316516D01*
X106274747Y-62310678D01*
X106274746Y-62310677D01*
X106241632Y-62288551D01*
X106241633Y-62288549D01*
X106241623Y-62288545D01*
X106199323Y-62260275D01*
X106199311Y-62260273D01*
X106199301Y-62260266D01*
X106169765Y-62254391D01*
X106152220Y-62250901D01*
X106152209Y-62250899D01*
X106125090Y-62245502D01*
X106125078Y-62245502D01*
X106125072Y-62245501D01*
X106112172Y-62242935D01*
X106112171Y-62242935D01*
X106100000Y-62240514D01*
X106087122Y-62243075D01*
X106062534Y-62245496D01*
X69480054Y-62242136D01*
X69411937Y-62222128D01*
X69365449Y-62168468D01*
X69354067Y-62116246D01*
X69352884Y-60764964D01*
X78383149Y-60764964D01*
X78396425Y-60967522D01*
X78397846Y-60973118D01*
X78397847Y-60973123D01*
X78418120Y-61052945D01*
X78446393Y-61164269D01*
X78448810Y-61169512D01*
X78486011Y-61250208D01*
X78531378Y-61348616D01*
X78648534Y-61514389D01*
X78793939Y-61656035D01*
X78962721Y-61768812D01*
X78968024Y-61771090D01*
X78968027Y-61771092D01*
X79056708Y-61809192D01*
X79149229Y-61848942D01*
X79222245Y-61865464D01*
X79341580Y-61892467D01*
X79341585Y-61892468D01*
X79347217Y-61893742D01*
X79352988Y-61893969D01*
X79352990Y-61893969D01*
X79412757Y-61896317D01*
X79550054Y-61901712D01*
X79650500Y-61887148D01*
X79745232Y-61873413D01*
X79745237Y-61873412D01*
X79750946Y-61872584D01*
X79756410Y-61870729D01*
X79756415Y-61870728D01*
X79937694Y-61809192D01*
X79937699Y-61809190D01*
X79943166Y-61807334D01*
X80120277Y-61708147D01*
X80182935Y-61656035D01*
X80271914Y-61582031D01*
X80276346Y-61578345D01*
X80406148Y-61422276D01*
X80505335Y-61245165D01*
X80507191Y-61239698D01*
X80507193Y-61239693D01*
X80568729Y-61058414D01*
X80568730Y-61058409D01*
X80570585Y-61052945D01*
X80571413Y-61047236D01*
X80571414Y-61047231D01*
X80599180Y-60855727D01*
X80599713Y-60852053D01*
X80601233Y-60794000D01*
X80598565Y-60764964D01*
X80923149Y-60764964D01*
X80936425Y-60967522D01*
X80937846Y-60973118D01*
X80937847Y-60973123D01*
X80958120Y-61052945D01*
X80986393Y-61164269D01*
X80988810Y-61169512D01*
X81026011Y-61250208D01*
X81071378Y-61348616D01*
X81188534Y-61514389D01*
X81333939Y-61656035D01*
X81502721Y-61768812D01*
X81508024Y-61771090D01*
X81508027Y-61771092D01*
X81596708Y-61809192D01*
X81689229Y-61848942D01*
X81762245Y-61865464D01*
X81881580Y-61892467D01*
X81881585Y-61892468D01*
X81887217Y-61893742D01*
X81892988Y-61893969D01*
X81892990Y-61893969D01*
X81952757Y-61896317D01*
X82090054Y-61901712D01*
X82190500Y-61887148D01*
X82285232Y-61873413D01*
X82285237Y-61873412D01*
X82290946Y-61872584D01*
X82296410Y-61870729D01*
X82296415Y-61870728D01*
X82477694Y-61809192D01*
X82477699Y-61809190D01*
X82483166Y-61807334D01*
X82660277Y-61708147D01*
X82722935Y-61656035D01*
X82811914Y-61582031D01*
X82816346Y-61578345D01*
X82946148Y-61422276D01*
X83045335Y-61245165D01*
X83047191Y-61239698D01*
X83047193Y-61239693D01*
X83108729Y-61058414D01*
X83108730Y-61058409D01*
X83110585Y-61052945D01*
X83111413Y-61047236D01*
X83111414Y-61047231D01*
X83139180Y-60855727D01*
X83139713Y-60852053D01*
X83141233Y-60794000D01*
X83138565Y-60764964D01*
X83463149Y-60764964D01*
X83476425Y-60967522D01*
X83477846Y-60973118D01*
X83477847Y-60973123D01*
X83498120Y-61052945D01*
X83526393Y-61164269D01*
X83528810Y-61169512D01*
X83566011Y-61250208D01*
X83611378Y-61348616D01*
X83728534Y-61514389D01*
X83873939Y-61656035D01*
X84042721Y-61768812D01*
X84048024Y-61771090D01*
X84048027Y-61771092D01*
X84136708Y-61809192D01*
X84229229Y-61848942D01*
X84302245Y-61865464D01*
X84421580Y-61892467D01*
X84421585Y-61892468D01*
X84427217Y-61893742D01*
X84432988Y-61893969D01*
X84432990Y-61893969D01*
X84492757Y-61896317D01*
X84630054Y-61901712D01*
X84730500Y-61887148D01*
X84825232Y-61873413D01*
X84825237Y-61873412D01*
X84830946Y-61872584D01*
X84836410Y-61870729D01*
X84836415Y-61870728D01*
X85017694Y-61809192D01*
X85017699Y-61809190D01*
X85023166Y-61807334D01*
X85200277Y-61708147D01*
X85262935Y-61656035D01*
X85351914Y-61582031D01*
X85356346Y-61578345D01*
X85486148Y-61422276D01*
X85585335Y-61245165D01*
X85587191Y-61239698D01*
X85587193Y-61239693D01*
X85648729Y-61058414D01*
X85648730Y-61058409D01*
X85650585Y-61052945D01*
X85651413Y-61047236D01*
X85651414Y-61047231D01*
X85679180Y-60855727D01*
X85679713Y-60852053D01*
X85681233Y-60794000D01*
X85678565Y-60764964D01*
X86003149Y-60764964D01*
X86016425Y-60967522D01*
X86017846Y-60973118D01*
X86017847Y-60973123D01*
X86038120Y-61052945D01*
X86066393Y-61164269D01*
X86068810Y-61169512D01*
X86106011Y-61250208D01*
X86151378Y-61348616D01*
X86268534Y-61514389D01*
X86413939Y-61656035D01*
X86582721Y-61768812D01*
X86588024Y-61771090D01*
X86588027Y-61771092D01*
X86676708Y-61809192D01*
X86769229Y-61848942D01*
X86842245Y-61865464D01*
X86961580Y-61892467D01*
X86961585Y-61892468D01*
X86967217Y-61893742D01*
X86972988Y-61893969D01*
X86972990Y-61893969D01*
X87032757Y-61896317D01*
X87170054Y-61901712D01*
X87270500Y-61887148D01*
X87365232Y-61873413D01*
X87365237Y-61873412D01*
X87370946Y-61872584D01*
X87376410Y-61870729D01*
X87376415Y-61870728D01*
X87557694Y-61809192D01*
X87557699Y-61809190D01*
X87563166Y-61807334D01*
X87740277Y-61708147D01*
X87802935Y-61656035D01*
X87891914Y-61582031D01*
X87896346Y-61578345D01*
X88026148Y-61422276D01*
X88125335Y-61245165D01*
X88127191Y-61239698D01*
X88127193Y-61239693D01*
X88188729Y-61058414D01*
X88188730Y-61058409D01*
X88190585Y-61052945D01*
X88191413Y-61047236D01*
X88191414Y-61047231D01*
X88219180Y-60855727D01*
X88219713Y-60852053D01*
X88221233Y-60794000D01*
X88218565Y-60764964D01*
X88543149Y-60764964D01*
X88556425Y-60967522D01*
X88557846Y-60973118D01*
X88557847Y-60973123D01*
X88578120Y-61052945D01*
X88606393Y-61164269D01*
X88608810Y-61169512D01*
X88646011Y-61250208D01*
X88691378Y-61348616D01*
X88808534Y-61514389D01*
X88953939Y-61656035D01*
X89122721Y-61768812D01*
X89128024Y-61771090D01*
X89128027Y-61771092D01*
X89216708Y-61809192D01*
X89309229Y-61848942D01*
X89382245Y-61865464D01*
X89501580Y-61892467D01*
X89501585Y-61892468D01*
X89507217Y-61893742D01*
X89512988Y-61893969D01*
X89512990Y-61893969D01*
X89572757Y-61896317D01*
X89710054Y-61901712D01*
X89810500Y-61887148D01*
X89905232Y-61873413D01*
X89905237Y-61873412D01*
X89910946Y-61872584D01*
X89916410Y-61870729D01*
X89916415Y-61870728D01*
X90097694Y-61809192D01*
X90097699Y-61809190D01*
X90103166Y-61807334D01*
X90280277Y-61708147D01*
X90342935Y-61656035D01*
X90431914Y-61582031D01*
X90436346Y-61578345D01*
X90566148Y-61422276D01*
X90665335Y-61245165D01*
X90667191Y-61239698D01*
X90667193Y-61239693D01*
X90728729Y-61058414D01*
X90728730Y-61058409D01*
X90730585Y-61052945D01*
X90731413Y-61047236D01*
X90731414Y-61047231D01*
X90759180Y-60855727D01*
X90759713Y-60852053D01*
X90761233Y-60794000D01*
X90758565Y-60764964D01*
X93623149Y-60764964D01*
X93636425Y-60967522D01*
X93637846Y-60973118D01*
X93637847Y-60973123D01*
X93658120Y-61052945D01*
X93686393Y-61164269D01*
X93688810Y-61169512D01*
X93726011Y-61250208D01*
X93771378Y-61348616D01*
X93888534Y-61514389D01*
X94033939Y-61656035D01*
X94202721Y-61768812D01*
X94208024Y-61771090D01*
X94208027Y-61771092D01*
X94296708Y-61809192D01*
X94389229Y-61848942D01*
X94462245Y-61865464D01*
X94581580Y-61892467D01*
X94581585Y-61892468D01*
X94587217Y-61893742D01*
X94592988Y-61893969D01*
X94592990Y-61893969D01*
X94652757Y-61896317D01*
X94790054Y-61901712D01*
X94890500Y-61887148D01*
X94985232Y-61873413D01*
X94985237Y-61873412D01*
X94990946Y-61872584D01*
X94996410Y-61870729D01*
X94996415Y-61870728D01*
X95177694Y-61809192D01*
X95177699Y-61809190D01*
X95183166Y-61807334D01*
X95360277Y-61708147D01*
X95422935Y-61656035D01*
X95511914Y-61582031D01*
X95516346Y-61578345D01*
X95646148Y-61422276D01*
X95745335Y-61245165D01*
X95747191Y-61239698D01*
X95747193Y-61239693D01*
X95808729Y-61058414D01*
X95808730Y-61058409D01*
X95810585Y-61052945D01*
X95811413Y-61047236D01*
X95811414Y-61047231D01*
X95839180Y-60855727D01*
X95839713Y-60852053D01*
X95841233Y-60794000D01*
X95838565Y-60764964D01*
X96163149Y-60764964D01*
X96176425Y-60967522D01*
X96177846Y-60973118D01*
X96177847Y-60973123D01*
X96198120Y-61052945D01*
X96226393Y-61164269D01*
X96228810Y-61169512D01*
X96266011Y-61250208D01*
X96311378Y-61348616D01*
X96428534Y-61514389D01*
X96573939Y-61656035D01*
X96742721Y-61768812D01*
X96748024Y-61771090D01*
X96748027Y-61771092D01*
X96836708Y-61809192D01*
X96929229Y-61848942D01*
X97002245Y-61865464D01*
X97121580Y-61892467D01*
X97121585Y-61892468D01*
X97127217Y-61893742D01*
X97132988Y-61893969D01*
X97132990Y-61893969D01*
X97192757Y-61896317D01*
X97330054Y-61901712D01*
X97430500Y-61887148D01*
X97525232Y-61873413D01*
X97525237Y-61873412D01*
X97530946Y-61872584D01*
X97536410Y-61870729D01*
X97536415Y-61870728D01*
X97717694Y-61809192D01*
X97717699Y-61809190D01*
X97723166Y-61807334D01*
X97900277Y-61708147D01*
X97962935Y-61656035D01*
X98051914Y-61582031D01*
X98056346Y-61578345D01*
X98186148Y-61422276D01*
X98285335Y-61245165D01*
X98287191Y-61239698D01*
X98287193Y-61239693D01*
X98348729Y-61058414D01*
X98348730Y-61058409D01*
X98350585Y-61052945D01*
X98351413Y-61047236D01*
X98351414Y-61047231D01*
X98379180Y-60855727D01*
X98379713Y-60852053D01*
X98381233Y-60794000D01*
X98378565Y-60764964D01*
X98703149Y-60764964D01*
X98716425Y-60967522D01*
X98717846Y-60973118D01*
X98717847Y-60973123D01*
X98738120Y-61052945D01*
X98766393Y-61164269D01*
X98768810Y-61169512D01*
X98806011Y-61250208D01*
X98851378Y-61348616D01*
X98968534Y-61514389D01*
X99113939Y-61656035D01*
X99282721Y-61768812D01*
X99288024Y-61771090D01*
X99288027Y-61771092D01*
X99376708Y-61809192D01*
X99469229Y-61848942D01*
X99542245Y-61865464D01*
X99661580Y-61892467D01*
X99661585Y-61892468D01*
X99667217Y-61893742D01*
X99672988Y-61893969D01*
X99672990Y-61893969D01*
X99732757Y-61896317D01*
X99870054Y-61901712D01*
X99970500Y-61887148D01*
X100065232Y-61873413D01*
X100065237Y-61873412D01*
X100070946Y-61872584D01*
X100076410Y-61870729D01*
X100076415Y-61870728D01*
X100257694Y-61809192D01*
X100257699Y-61809190D01*
X100263166Y-61807334D01*
X100440277Y-61708147D01*
X100502935Y-61656035D01*
X100591914Y-61582031D01*
X100596346Y-61578345D01*
X100726148Y-61422276D01*
X100825335Y-61245165D01*
X100827191Y-61239698D01*
X100827193Y-61239693D01*
X100888729Y-61058414D01*
X100888730Y-61058409D01*
X100890585Y-61052945D01*
X100891413Y-61047236D01*
X100891414Y-61047231D01*
X100919180Y-60855727D01*
X100919713Y-60852053D01*
X100921233Y-60794000D01*
X100918565Y-60764964D01*
X101243149Y-60764964D01*
X101256425Y-60967522D01*
X101257846Y-60973118D01*
X101257847Y-60973123D01*
X101278120Y-61052945D01*
X101306393Y-61164269D01*
X101308810Y-61169512D01*
X101346011Y-61250208D01*
X101391378Y-61348616D01*
X101508534Y-61514389D01*
X101653939Y-61656035D01*
X101822721Y-61768812D01*
X101828024Y-61771090D01*
X101828027Y-61771092D01*
X101916708Y-61809192D01*
X102009229Y-61848942D01*
X102082245Y-61865464D01*
X102201580Y-61892467D01*
X102201585Y-61892468D01*
X102207217Y-61893742D01*
X102212988Y-61893969D01*
X102212990Y-61893969D01*
X102272757Y-61896317D01*
X102410054Y-61901712D01*
X102510500Y-61887148D01*
X102605232Y-61873413D01*
X102605237Y-61873412D01*
X102610946Y-61872584D01*
X102616410Y-61870729D01*
X102616415Y-61870728D01*
X102797694Y-61809192D01*
X102797699Y-61809190D01*
X102803166Y-61807334D01*
X102980277Y-61708147D01*
X103042935Y-61656035D01*
X103131914Y-61582031D01*
X103136346Y-61578345D01*
X103266148Y-61422276D01*
X103365335Y-61245165D01*
X103367191Y-61239698D01*
X103367193Y-61239693D01*
X103428729Y-61058414D01*
X103428730Y-61058409D01*
X103430585Y-61052945D01*
X103431413Y-61047236D01*
X103431414Y-61047231D01*
X103459180Y-60855727D01*
X103459713Y-60852053D01*
X103461233Y-60794000D01*
X103458565Y-60764964D01*
X103783149Y-60764964D01*
X103796425Y-60967522D01*
X103797846Y-60973118D01*
X103797847Y-60973123D01*
X103818120Y-61052945D01*
X103846393Y-61164269D01*
X103848810Y-61169512D01*
X103886011Y-61250208D01*
X103931378Y-61348616D01*
X104048534Y-61514389D01*
X104193939Y-61656035D01*
X104362721Y-61768812D01*
X104368024Y-61771090D01*
X104368027Y-61771092D01*
X104456708Y-61809192D01*
X104549229Y-61848942D01*
X104622245Y-61865464D01*
X104741580Y-61892467D01*
X104741585Y-61892468D01*
X104747217Y-61893742D01*
X104752988Y-61893969D01*
X104752990Y-61893969D01*
X104812757Y-61896317D01*
X104950054Y-61901712D01*
X105050500Y-61887148D01*
X105145232Y-61873413D01*
X105145237Y-61873412D01*
X105150946Y-61872584D01*
X105156410Y-61870729D01*
X105156415Y-61870728D01*
X105337694Y-61809192D01*
X105337699Y-61809190D01*
X105343166Y-61807334D01*
X105520277Y-61708147D01*
X105582935Y-61656035D01*
X105671914Y-61582031D01*
X105676346Y-61578345D01*
X105806148Y-61422276D01*
X105905335Y-61245165D01*
X105907191Y-61239698D01*
X105907193Y-61239693D01*
X105968729Y-61058414D01*
X105968730Y-61058409D01*
X105970585Y-61052945D01*
X105971413Y-61047236D01*
X105971414Y-61047231D01*
X105999180Y-60855727D01*
X105999713Y-60852053D01*
X106001233Y-60794000D01*
X105982659Y-60591859D01*
X105981091Y-60586299D01*
X105929126Y-60402046D01*
X105929125Y-60402044D01*
X105927558Y-60396487D01*
X105916979Y-60375033D01*
X105840332Y-60219609D01*
X105837777Y-60214428D01*
X105825381Y-60197827D01*
X105802390Y-60167039D01*
X105716321Y-60051779D01*
X105567259Y-59913987D01*
X105562376Y-59910906D01*
X105562372Y-59910903D01*
X105400465Y-59808748D01*
X105395582Y-59805667D01*
X105207040Y-59730446D01*
X105201380Y-59729320D01*
X105201376Y-59729319D01*
X105013614Y-59691971D01*
X105013611Y-59691971D01*
X105007947Y-59690844D01*
X105002172Y-59690768D01*
X105002168Y-59690768D01*
X104900794Y-59689441D01*
X104804972Y-59688187D01*
X104799275Y-59689166D01*
X104799274Y-59689166D01*
X104628562Y-59718500D01*
X104604911Y-59722564D01*
X104414464Y-59792824D01*
X104240011Y-59896612D01*
X104235671Y-59900418D01*
X104235667Y-59900421D01*
X104132937Y-59990514D01*
X104087393Y-60030455D01*
X103961721Y-60189869D01*
X103959032Y-60194980D01*
X103959030Y-60194983D01*
X103927155Y-60255568D01*
X103867204Y-60369515D01*
X103807008Y-60563378D01*
X103783149Y-60764964D01*
X103458565Y-60764964D01*
X103442659Y-60591859D01*
X103441091Y-60586299D01*
X103389126Y-60402046D01*
X103389125Y-60402044D01*
X103387558Y-60396487D01*
X103376979Y-60375033D01*
X103300332Y-60219609D01*
X103297777Y-60214428D01*
X103285381Y-60197827D01*
X103262390Y-60167039D01*
X103176321Y-60051779D01*
X103027259Y-59913987D01*
X103022376Y-59910906D01*
X103022372Y-59910903D01*
X102860465Y-59808748D01*
X102855582Y-59805667D01*
X102667040Y-59730446D01*
X102661380Y-59729320D01*
X102661376Y-59729319D01*
X102473614Y-59691971D01*
X102473611Y-59691971D01*
X102467947Y-59690844D01*
X102462172Y-59690768D01*
X102462168Y-59690768D01*
X102360794Y-59689441D01*
X102264972Y-59688187D01*
X102259275Y-59689166D01*
X102259274Y-59689166D01*
X102088562Y-59718500D01*
X102064911Y-59722564D01*
X101874464Y-59792824D01*
X101700011Y-59896612D01*
X101695671Y-59900418D01*
X101695667Y-59900421D01*
X101592937Y-59990514D01*
X101547393Y-60030455D01*
X101421721Y-60189869D01*
X101419032Y-60194980D01*
X101419030Y-60194983D01*
X101387155Y-60255568D01*
X101327204Y-60369515D01*
X101267008Y-60563378D01*
X101243149Y-60764964D01*
X100918565Y-60764964D01*
X100902659Y-60591859D01*
X100901091Y-60586299D01*
X100849126Y-60402046D01*
X100849125Y-60402044D01*
X100847558Y-60396487D01*
X100836979Y-60375033D01*
X100760332Y-60219609D01*
X100757777Y-60214428D01*
X100745381Y-60197827D01*
X100722390Y-60167039D01*
X100636321Y-60051779D01*
X100487259Y-59913987D01*
X100482376Y-59910906D01*
X100482372Y-59910903D01*
X100320465Y-59808748D01*
X100315582Y-59805667D01*
X100127040Y-59730446D01*
X100121380Y-59729320D01*
X100121376Y-59729319D01*
X99933614Y-59691971D01*
X99933611Y-59691971D01*
X99927947Y-59690844D01*
X99922172Y-59690768D01*
X99922168Y-59690768D01*
X99820794Y-59689441D01*
X99724972Y-59688187D01*
X99719275Y-59689166D01*
X99719274Y-59689166D01*
X99548562Y-59718500D01*
X99524911Y-59722564D01*
X99334464Y-59792824D01*
X99160011Y-59896612D01*
X99155671Y-59900418D01*
X99155667Y-59900421D01*
X99052937Y-59990514D01*
X99007393Y-60030455D01*
X98881721Y-60189869D01*
X98879032Y-60194980D01*
X98879030Y-60194983D01*
X98847155Y-60255568D01*
X98787204Y-60369515D01*
X98727008Y-60563378D01*
X98703149Y-60764964D01*
X98378565Y-60764964D01*
X98362659Y-60591859D01*
X98361091Y-60586299D01*
X98309126Y-60402046D01*
X98309125Y-60402044D01*
X98307558Y-60396487D01*
X98296979Y-60375033D01*
X98220332Y-60219609D01*
X98217777Y-60214428D01*
X98205381Y-60197827D01*
X98182390Y-60167039D01*
X98096321Y-60051779D01*
X97947259Y-59913987D01*
X97942376Y-59910906D01*
X97942372Y-59910903D01*
X97780465Y-59808748D01*
X97775582Y-59805667D01*
X97587040Y-59730446D01*
X97581380Y-59729320D01*
X97581376Y-59729319D01*
X97393614Y-59691971D01*
X97393611Y-59691971D01*
X97387947Y-59690844D01*
X97382172Y-59690768D01*
X97382168Y-59690768D01*
X97280794Y-59689441D01*
X97184972Y-59688187D01*
X97179275Y-59689166D01*
X97179274Y-59689166D01*
X97008562Y-59718500D01*
X96984911Y-59722564D01*
X96794464Y-59792824D01*
X96620011Y-59896612D01*
X96615671Y-59900418D01*
X96615667Y-59900421D01*
X96512937Y-59990514D01*
X96467393Y-60030455D01*
X96341721Y-60189869D01*
X96339032Y-60194980D01*
X96339030Y-60194983D01*
X96307155Y-60255568D01*
X96247204Y-60369515D01*
X96187008Y-60563378D01*
X96163149Y-60764964D01*
X95838565Y-60764964D01*
X95822659Y-60591859D01*
X95821091Y-60586299D01*
X95769126Y-60402046D01*
X95769125Y-60402044D01*
X95767558Y-60396487D01*
X95756979Y-60375033D01*
X95680332Y-60219609D01*
X95677777Y-60214428D01*
X95665381Y-60197827D01*
X95642390Y-60167039D01*
X95556321Y-60051779D01*
X95407259Y-59913987D01*
X95402376Y-59910906D01*
X95402372Y-59910903D01*
X95240465Y-59808748D01*
X95235582Y-59805667D01*
X95047040Y-59730446D01*
X95041380Y-59729320D01*
X95041376Y-59729319D01*
X94853614Y-59691971D01*
X94853611Y-59691971D01*
X94847947Y-59690844D01*
X94842172Y-59690768D01*
X94842168Y-59690768D01*
X94740794Y-59689441D01*
X94644972Y-59688187D01*
X94639275Y-59689166D01*
X94639274Y-59689166D01*
X94468562Y-59718500D01*
X94444911Y-59722564D01*
X94254464Y-59792824D01*
X94080011Y-59896612D01*
X94075671Y-59900418D01*
X94075667Y-59900421D01*
X93972937Y-59990514D01*
X93927393Y-60030455D01*
X93801721Y-60189869D01*
X93799032Y-60194980D01*
X93799030Y-60194983D01*
X93767155Y-60255568D01*
X93707204Y-60369515D01*
X93647008Y-60563378D01*
X93623149Y-60764964D01*
X90758565Y-60764964D01*
X90742659Y-60591859D01*
X90741091Y-60586299D01*
X90689126Y-60402046D01*
X90689125Y-60402044D01*
X90687558Y-60396487D01*
X90676979Y-60375033D01*
X90600332Y-60219609D01*
X90597777Y-60214428D01*
X90585381Y-60197827D01*
X90562390Y-60167039D01*
X90476321Y-60051779D01*
X90327259Y-59913987D01*
X90322376Y-59910906D01*
X90322372Y-59910903D01*
X90160465Y-59808748D01*
X90155582Y-59805667D01*
X89967040Y-59730446D01*
X89961380Y-59729320D01*
X89961376Y-59729319D01*
X89773614Y-59691971D01*
X89773611Y-59691971D01*
X89767947Y-59690844D01*
X89762172Y-59690768D01*
X89762168Y-59690768D01*
X89703498Y-59690000D01*
X92150715Y-59690000D01*
X92151793Y-59698188D01*
X92165943Y-59805667D01*
X92169772Y-59834754D01*
X92225645Y-59969642D01*
X92314526Y-60085474D01*
X92321076Y-60090500D01*
X92321079Y-60090503D01*
X92358221Y-60119003D01*
X92430357Y-60174355D01*
X92565246Y-60230228D01*
X92710000Y-60249285D01*
X92718188Y-60248207D01*
X92846566Y-60231306D01*
X92854754Y-60230228D01*
X92989643Y-60174355D01*
X93061779Y-60119003D01*
X93098921Y-60090503D01*
X93098924Y-60090500D01*
X93105474Y-60085474D01*
X93194355Y-59969642D01*
X93250228Y-59834754D01*
X93254058Y-59805667D01*
X93268207Y-59698188D01*
X93269285Y-59690000D01*
X93250228Y-59545246D01*
X93194355Y-59410358D01*
X93105474Y-59294526D01*
X93098924Y-59289500D01*
X93098921Y-59289497D01*
X92996196Y-59210673D01*
X92996194Y-59210672D01*
X92989643Y-59205645D01*
X92854754Y-59149772D01*
X92710000Y-59130715D01*
X92701812Y-59131793D01*
X92573432Y-59148694D01*
X92573430Y-59148695D01*
X92565246Y-59149772D01*
X92537821Y-59161132D01*
X92437986Y-59202485D01*
X92437984Y-59202486D01*
X92430358Y-59205645D01*
X92385728Y-59239891D01*
X92332524Y-59280716D01*
X92314526Y-59294526D01*
X92225645Y-59410358D01*
X92169772Y-59545246D01*
X92150715Y-59690000D01*
X89703498Y-59690000D01*
X89660794Y-59689441D01*
X89564972Y-59688187D01*
X89559275Y-59689166D01*
X89559274Y-59689166D01*
X89388562Y-59718500D01*
X89364911Y-59722564D01*
X89174464Y-59792824D01*
X89000011Y-59896612D01*
X88995671Y-59900418D01*
X88995667Y-59900421D01*
X88892937Y-59990514D01*
X88847393Y-60030455D01*
X88721721Y-60189869D01*
X88719032Y-60194980D01*
X88719030Y-60194983D01*
X88687155Y-60255568D01*
X88627204Y-60369515D01*
X88567008Y-60563378D01*
X88543149Y-60764964D01*
X88218565Y-60764964D01*
X88202659Y-60591859D01*
X88201091Y-60586299D01*
X88149126Y-60402046D01*
X88149125Y-60402044D01*
X88147558Y-60396487D01*
X88136979Y-60375033D01*
X88060332Y-60219609D01*
X88057777Y-60214428D01*
X88045381Y-60197827D01*
X88022390Y-60167039D01*
X87936321Y-60051779D01*
X87787259Y-59913987D01*
X87782376Y-59910906D01*
X87782372Y-59910903D01*
X87620465Y-59808748D01*
X87615582Y-59805667D01*
X87427040Y-59730446D01*
X87421380Y-59729320D01*
X87421376Y-59729319D01*
X87233614Y-59691971D01*
X87233611Y-59691971D01*
X87227947Y-59690844D01*
X87222172Y-59690768D01*
X87222168Y-59690768D01*
X87120794Y-59689441D01*
X87024972Y-59688187D01*
X87019275Y-59689166D01*
X87019274Y-59689166D01*
X86848562Y-59718500D01*
X86824911Y-59722564D01*
X86634464Y-59792824D01*
X86460011Y-59896612D01*
X86455671Y-59900418D01*
X86455667Y-59900421D01*
X86352937Y-59990514D01*
X86307393Y-60030455D01*
X86181721Y-60189869D01*
X86179032Y-60194980D01*
X86179030Y-60194983D01*
X86147155Y-60255568D01*
X86087204Y-60369515D01*
X86027008Y-60563378D01*
X86003149Y-60764964D01*
X85678565Y-60764964D01*
X85662659Y-60591859D01*
X85661091Y-60586299D01*
X85609126Y-60402046D01*
X85609125Y-60402044D01*
X85607558Y-60396487D01*
X85596979Y-60375033D01*
X85520332Y-60219609D01*
X85517777Y-60214428D01*
X85505381Y-60197827D01*
X85482390Y-60167039D01*
X85396321Y-60051779D01*
X85247259Y-59913987D01*
X85242376Y-59910906D01*
X85242372Y-59910903D01*
X85080465Y-59808748D01*
X85075582Y-59805667D01*
X84887040Y-59730446D01*
X84881380Y-59729320D01*
X84881376Y-59729319D01*
X84693614Y-59691971D01*
X84693611Y-59691971D01*
X84687947Y-59690844D01*
X84682172Y-59690768D01*
X84682168Y-59690768D01*
X84580794Y-59689441D01*
X84484972Y-59688187D01*
X84479275Y-59689166D01*
X84479274Y-59689166D01*
X84308562Y-59718500D01*
X84284911Y-59722564D01*
X84094464Y-59792824D01*
X83920011Y-59896612D01*
X83915671Y-59900418D01*
X83915667Y-59900421D01*
X83812937Y-59990514D01*
X83767393Y-60030455D01*
X83641721Y-60189869D01*
X83639032Y-60194980D01*
X83639030Y-60194983D01*
X83607155Y-60255568D01*
X83547204Y-60369515D01*
X83487008Y-60563378D01*
X83463149Y-60764964D01*
X83138565Y-60764964D01*
X83122659Y-60591859D01*
X83121091Y-60586299D01*
X83069126Y-60402046D01*
X83069125Y-60402044D01*
X83067558Y-60396487D01*
X83056979Y-60375033D01*
X82980332Y-60219609D01*
X82977777Y-60214428D01*
X82965381Y-60197827D01*
X82942390Y-60167039D01*
X82856321Y-60051779D01*
X82707259Y-59913987D01*
X82702376Y-59910906D01*
X82702372Y-59910903D01*
X82540465Y-59808748D01*
X82535582Y-59805667D01*
X82347040Y-59730446D01*
X82341380Y-59729320D01*
X82341376Y-59729319D01*
X82153614Y-59691971D01*
X82153611Y-59691971D01*
X82147947Y-59690844D01*
X82142172Y-59690768D01*
X82142168Y-59690768D01*
X82040794Y-59689441D01*
X81944972Y-59688187D01*
X81939275Y-59689166D01*
X81939274Y-59689166D01*
X81768562Y-59718500D01*
X81744911Y-59722564D01*
X81554464Y-59792824D01*
X81380011Y-59896612D01*
X81375671Y-59900418D01*
X81375667Y-59900421D01*
X81272937Y-59990514D01*
X81227393Y-60030455D01*
X81101721Y-60189869D01*
X81099032Y-60194980D01*
X81099030Y-60194983D01*
X81067155Y-60255568D01*
X81007204Y-60369515D01*
X80947008Y-60563378D01*
X80923149Y-60764964D01*
X80598565Y-60764964D01*
X80582659Y-60591859D01*
X80581091Y-60586299D01*
X80529126Y-60402046D01*
X80529125Y-60402044D01*
X80527558Y-60396487D01*
X80516979Y-60375033D01*
X80440332Y-60219609D01*
X80437777Y-60214428D01*
X80425381Y-60197827D01*
X80402390Y-60167039D01*
X80316321Y-60051779D01*
X80167259Y-59913987D01*
X80162376Y-59910906D01*
X80162372Y-59910903D01*
X80000465Y-59808748D01*
X79995582Y-59805667D01*
X79807040Y-59730446D01*
X79801380Y-59729320D01*
X79801376Y-59729319D01*
X79613614Y-59691971D01*
X79613611Y-59691971D01*
X79607947Y-59690844D01*
X79602172Y-59690768D01*
X79602168Y-59690768D01*
X79500794Y-59689441D01*
X79404972Y-59688187D01*
X79399275Y-59689166D01*
X79399274Y-59689166D01*
X79228562Y-59718500D01*
X79204911Y-59722564D01*
X79014464Y-59792824D01*
X78840011Y-59896612D01*
X78835671Y-59900418D01*
X78835667Y-59900421D01*
X78732937Y-59990514D01*
X78687393Y-60030455D01*
X78561721Y-60189869D01*
X78559032Y-60194980D01*
X78559030Y-60194983D01*
X78527155Y-60255568D01*
X78467204Y-60369515D01*
X78407008Y-60563378D01*
X78383149Y-60764964D01*
X69352884Y-60764964D01*
X69351967Y-59718500D01*
X74116715Y-59718500D01*
X74117793Y-59726688D01*
X74128191Y-59805667D01*
X74135772Y-59863254D01*
X74151167Y-59900421D01*
X74156787Y-59913987D01*
X74191645Y-59998142D01*
X74280526Y-60113974D01*
X74287076Y-60119000D01*
X74287079Y-60119003D01*
X74379433Y-60189869D01*
X74396357Y-60202855D01*
X74531246Y-60258728D01*
X74676000Y-60277785D01*
X74684188Y-60276707D01*
X74812566Y-60259806D01*
X74820754Y-60258728D01*
X74955643Y-60202855D01*
X74972567Y-60189869D01*
X75064921Y-60119003D01*
X75064924Y-60119000D01*
X75071474Y-60113974D01*
X75160355Y-59998142D01*
X75195214Y-59913987D01*
X75200833Y-59900421D01*
X75216228Y-59863254D01*
X75223810Y-59805667D01*
X75234207Y-59726688D01*
X75235285Y-59718500D01*
X75216228Y-59573746D01*
X75160355Y-59438858D01*
X75071474Y-59323026D01*
X75064924Y-59318000D01*
X75064921Y-59317997D01*
X74962196Y-59239173D01*
X74962194Y-59239172D01*
X74955643Y-59234145D01*
X74820754Y-59178272D01*
X74778590Y-59172721D01*
X74684188Y-59160293D01*
X74676000Y-59159215D01*
X74667812Y-59160293D01*
X74539432Y-59177194D01*
X74539430Y-59177195D01*
X74531246Y-59178272D01*
X74483430Y-59198078D01*
X74403986Y-59230985D01*
X74403984Y-59230986D01*
X74396358Y-59234145D01*
X74318634Y-59293785D01*
X74309131Y-59301077D01*
X74280526Y-59323026D01*
X74191645Y-59438858D01*
X74135772Y-59573746D01*
X74116715Y-59718500D01*
X69351967Y-59718500D01*
X69351675Y-59385509D01*
X69371617Y-59317371D01*
X69425232Y-59270831D01*
X69495497Y-59260666D01*
X69525892Y-59268990D01*
X69532113Y-59271567D01*
X69532118Y-59271568D01*
X69539746Y-59274728D01*
X69547934Y-59275806D01*
X69585230Y-59280716D01*
X69684500Y-59293785D01*
X69692688Y-59292707D01*
X69821066Y-59275806D01*
X69829254Y-59274728D01*
X69964143Y-59218855D01*
X69974806Y-59210673D01*
X70073421Y-59135003D01*
X70073424Y-59135000D01*
X70079974Y-59129974D01*
X70168855Y-59014142D01*
X70183294Y-58979285D01*
X70221569Y-58886880D01*
X70224728Y-58879254D01*
X70235798Y-58795172D01*
X70235941Y-58794082D01*
X73154607Y-58794082D01*
X73155771Y-58802984D01*
X73155771Y-58802987D01*
X73157404Y-58815474D01*
X73172416Y-58930273D01*
X73227734Y-59055992D01*
X73316113Y-59161132D01*
X73430449Y-59237240D01*
X73561551Y-59278199D01*
X73698878Y-59280716D01*
X73708111Y-59278199D01*
X73822729Y-59246951D01*
X73831393Y-59244589D01*
X73934254Y-59181432D01*
X73940793Y-59177417D01*
X73948441Y-59172721D01*
X73966354Y-59152931D01*
X74034586Y-59077550D01*
X74034587Y-59077549D01*
X74040614Y-59070890D01*
X74064935Y-59020693D01*
X74096587Y-58955362D01*
X74096587Y-58955361D01*
X74100501Y-58947283D01*
X74123288Y-58811836D01*
X74123433Y-58800000D01*
X74122586Y-58794082D01*
X74105234Y-58672923D01*
X74105234Y-58672921D01*
X74103961Y-58664036D01*
X74047112Y-58539003D01*
X73957455Y-58434951D01*
X73934389Y-58420000D01*
X80720715Y-58420000D01*
X80723142Y-58438432D01*
X80736798Y-58542161D01*
X80739772Y-58564754D01*
X80742931Y-58572380D01*
X80784578Y-58672923D01*
X80795645Y-58699642D01*
X80884526Y-58815474D01*
X80891076Y-58820500D01*
X80891079Y-58820503D01*
X80977583Y-58886880D01*
X81000357Y-58904355D01*
X81135246Y-58960228D01*
X81280000Y-58979285D01*
X81288188Y-58978207D01*
X81416566Y-58961306D01*
X81424754Y-58960228D01*
X81559643Y-58904355D01*
X81582417Y-58886880D01*
X81668921Y-58820503D01*
X81668924Y-58820500D01*
X81675474Y-58815474D01*
X81764355Y-58699642D01*
X81775423Y-58672923D01*
X81817069Y-58572380D01*
X81820228Y-58564754D01*
X81823203Y-58542161D01*
X81836858Y-58438432D01*
X81839285Y-58420000D01*
X81826576Y-58323463D01*
X81821306Y-58283432D01*
X81821305Y-58283430D01*
X81820228Y-58275246D01*
X81792403Y-58208071D01*
X81767515Y-58147986D01*
X81767514Y-58147984D01*
X81764355Y-58140358D01*
X81689006Y-58042161D01*
X81680501Y-58031077D01*
X81680500Y-58031076D01*
X81675474Y-58024526D01*
X81668924Y-58019500D01*
X81668921Y-58019497D01*
X81566196Y-57940673D01*
X81566194Y-57940672D01*
X81559643Y-57935645D01*
X81424754Y-57879772D01*
X81280000Y-57860715D01*
X81271812Y-57861793D01*
X81143432Y-57878694D01*
X81143430Y-57878695D01*
X81135246Y-57879772D01*
X81114849Y-57888221D01*
X81007986Y-57932485D01*
X81007984Y-57932486D01*
X81000358Y-57935645D01*
X80992398Y-57941753D01*
X80907402Y-58006973D01*
X80884526Y-58024526D01*
X80879503Y-58031072D01*
X80873417Y-58039003D01*
X80795645Y-58140358D01*
X80792486Y-58147984D01*
X80792485Y-58147986D01*
X80767597Y-58208071D01*
X80739772Y-58275246D01*
X80738695Y-58283430D01*
X80738694Y-58283432D01*
X80733424Y-58323463D01*
X80720715Y-58420000D01*
X73934389Y-58420000D01*
X73842198Y-58360244D01*
X73710605Y-58320890D01*
X73701629Y-58320835D01*
X73701628Y-58320835D01*
X73644082Y-58320484D01*
X73573257Y-58320051D01*
X73441194Y-58357795D01*
X73433607Y-58362582D01*
X73433605Y-58362583D01*
X73410095Y-58377417D01*
X73325033Y-58431087D01*
X73319090Y-58437816D01*
X73315613Y-58441753D01*
X73234111Y-58534036D01*
X73230297Y-58542159D01*
X73230296Y-58542161D01*
X73223532Y-58556568D01*
X73175738Y-58658366D01*
X73172772Y-58677417D01*
X73155988Y-58785209D01*
X73155988Y-58785213D01*
X73154607Y-58794082D01*
X70235941Y-58794082D01*
X70242707Y-58742688D01*
X70243785Y-58734500D01*
X70242859Y-58727468D01*
X70262709Y-58659866D01*
X70316365Y-58613373D01*
X70386639Y-58603269D01*
X70451219Y-58632763D01*
X70465157Y-58646911D01*
X70477111Y-58661132D01*
X70501576Y-58677417D01*
X70544806Y-58706193D01*
X70591447Y-58737240D01*
X70722549Y-58778199D01*
X70859876Y-58780716D01*
X70869109Y-58778199D01*
X70983727Y-58746951D01*
X70992391Y-58744589D01*
X71109439Y-58672721D01*
X71122433Y-58658366D01*
X71195584Y-58577550D01*
X71195585Y-58577549D01*
X71201612Y-58570890D01*
X71222728Y-58527308D01*
X71257585Y-58455362D01*
X71257585Y-58455361D01*
X71261499Y-58447283D01*
X71284286Y-58311836D01*
X71284431Y-58300000D01*
X71283584Y-58294082D01*
X71266232Y-58172923D01*
X71266232Y-58172921D01*
X71264959Y-58164036D01*
X71208110Y-58039003D01*
X71118453Y-57934951D01*
X71003196Y-57860244D01*
X70871603Y-57820890D01*
X70862627Y-57820835D01*
X70862626Y-57820835D01*
X70805080Y-57820484D01*
X70734255Y-57820051D01*
X70602192Y-57857795D01*
X70594605Y-57862582D01*
X70594603Y-57862583D01*
X70548904Y-57891417D01*
X70486031Y-57931087D01*
X70395109Y-58034036D01*
X70336736Y-58158366D01*
X70315605Y-58294082D01*
X70312402Y-58293583D01*
X70296244Y-58346242D01*
X70242028Y-58392082D01*
X70171637Y-58401333D01*
X70107418Y-58371059D01*
X70091118Y-58353548D01*
X70085004Y-58345580D01*
X70085000Y-58345576D01*
X70079974Y-58339026D01*
X70073424Y-58334000D01*
X70073421Y-58333997D01*
X69970696Y-58255173D01*
X69970694Y-58255172D01*
X69964143Y-58250145D01*
X69829254Y-58194272D01*
X69684500Y-58175215D01*
X69676312Y-58176293D01*
X69547932Y-58193194D01*
X69547930Y-58193195D01*
X69539746Y-58194272D01*
X69524754Y-58200482D01*
X69454164Y-58208071D01*
X69390677Y-58176292D01*
X69354449Y-58115234D01*
X69350535Y-58084183D01*
X69350103Y-57591041D01*
X95665652Y-57591041D01*
X95666816Y-57599943D01*
X95666816Y-57599946D01*
X95668601Y-57613592D01*
X95683461Y-57727232D01*
X95697030Y-57758070D01*
X95724648Y-57820835D01*
X95738779Y-57852951D01*
X95744557Y-57859824D01*
X95744557Y-57859825D01*
X95821378Y-57951215D01*
X95827158Y-57958091D01*
X95834635Y-57963068D01*
X95922115Y-58021299D01*
X95941494Y-58034199D01*
X96072596Y-58075158D01*
X96209923Y-58077675D01*
X96219156Y-58075158D01*
X96333774Y-58043910D01*
X96342438Y-58041548D01*
X96459486Y-57969680D01*
X96476200Y-57951215D01*
X96545631Y-57874509D01*
X96545632Y-57874508D01*
X96551659Y-57867849D01*
X96556590Y-57857673D01*
X96604847Y-57758070D01*
X98715997Y-57758070D01*
X98717221Y-57768408D01*
X98719627Y-57788737D01*
X98719942Y-57794083D01*
X98720072Y-57794072D01*
X98720500Y-57799252D01*
X98720500Y-57804451D01*
X98721353Y-57809575D01*
X98721354Y-57809588D01*
X98723427Y-57822041D01*
X98724264Y-57827916D01*
X98728146Y-57860715D01*
X98729869Y-57875270D01*
X98733570Y-57882978D01*
X98734975Y-57891417D01*
X98757629Y-57933401D01*
X98760310Y-57938664D01*
X98780955Y-57981658D01*
X98784311Y-57985650D01*
X98786258Y-57987597D01*
X98787748Y-57989222D01*
X98787981Y-57989654D01*
X98787946Y-57989687D01*
X98788083Y-57989842D01*
X98791017Y-57995280D01*
X98798666Y-58002351D01*
X98799397Y-58003293D01*
X98824771Y-58064179D01*
X98833414Y-58130273D01*
X98888732Y-58255992D01*
X98894510Y-58262865D01*
X98894510Y-58262866D01*
X98939706Y-58316633D01*
X98977111Y-58361132D01*
X98984588Y-58366109D01*
X99080981Y-58430273D01*
X99091447Y-58437240D01*
X99222549Y-58478199D01*
X99359876Y-58480716D01*
X99369109Y-58478199D01*
X99483727Y-58446951D01*
X99492391Y-58444589D01*
X99609439Y-58372721D01*
X99616315Y-58365125D01*
X99695584Y-58277550D01*
X99695585Y-58277549D01*
X99701612Y-58270890D01*
X99735725Y-58200482D01*
X99757585Y-58155362D01*
X99757585Y-58155361D01*
X99761499Y-58147283D01*
X99784286Y-58011836D01*
X99784431Y-58000000D01*
X99782846Y-57988929D01*
X99766232Y-57872923D01*
X99766232Y-57872921D01*
X99764959Y-57864036D01*
X99708110Y-57739003D01*
X99618453Y-57634951D01*
X99503196Y-57560244D01*
X99500366Y-57559398D01*
X99449200Y-57514661D01*
X99429500Y-57447013D01*
X99429500Y-52200000D01*
X106840715Y-52200000D01*
X106841793Y-52208188D01*
X106853404Y-52296380D01*
X106859772Y-52344754D01*
X106915645Y-52479642D01*
X107004526Y-52595474D01*
X107011076Y-52600500D01*
X107011079Y-52600503D01*
X107113804Y-52679327D01*
X107120357Y-52684355D01*
X107255246Y-52740228D01*
X107400000Y-52759285D01*
X107408188Y-52758207D01*
X107536566Y-52741306D01*
X107544754Y-52740228D01*
X107679643Y-52684355D01*
X107686196Y-52679327D01*
X107788921Y-52600503D01*
X107788924Y-52600500D01*
X107795474Y-52595474D01*
X107884355Y-52479642D01*
X107940228Y-52344754D01*
X107946597Y-52296380D01*
X107958207Y-52208188D01*
X107959285Y-52200000D01*
X107940228Y-52055246D01*
X107884355Y-51920358D01*
X107808799Y-51821891D01*
X107800501Y-51811077D01*
X107800500Y-51811076D01*
X107795474Y-51804526D01*
X107788924Y-51799500D01*
X107788921Y-51799497D01*
X107686196Y-51720673D01*
X107686194Y-51720672D01*
X107679643Y-51715645D01*
X107544754Y-51659772D01*
X107519787Y-51656485D01*
X107431530Y-51644866D01*
X107400000Y-51640715D01*
X107391812Y-51641793D01*
X107263432Y-51658694D01*
X107263430Y-51658695D01*
X107255246Y-51659772D01*
X107243414Y-51664673D01*
X107127986Y-51712485D01*
X107127984Y-51712486D01*
X107120358Y-51715645D01*
X107004526Y-51804526D01*
X106915645Y-51920358D01*
X106859772Y-52055246D01*
X106840715Y-52200000D01*
X99429500Y-52200000D01*
X99429500Y-51024030D01*
X99449502Y-50955909D01*
X99466404Y-50934935D01*
X99756789Y-50644549D01*
X99819102Y-50610524D01*
X99823861Y-50609712D01*
X99830754Y-50609838D01*
X99963269Y-50573711D01*
X100080317Y-50501843D01*
X100092537Y-50488343D01*
X100166462Y-50406672D01*
X100166463Y-50406671D01*
X100172490Y-50400012D01*
X100181978Y-50380430D01*
X100228463Y-50284484D01*
X100228463Y-50284483D01*
X100232377Y-50276405D01*
X100255164Y-50140958D01*
X100255309Y-50129122D01*
X100252592Y-50110145D01*
X100250118Y-50092869D01*
X110936722Y-50092869D01*
X110937800Y-50101057D01*
X110948124Y-50179474D01*
X110955779Y-50237623D01*
X110958938Y-50245249D01*
X110999100Y-50342207D01*
X111011652Y-50372511D01*
X111100533Y-50488343D01*
X111107083Y-50493369D01*
X111107086Y-50493372D01*
X111205663Y-50569013D01*
X111216364Y-50577224D01*
X111351253Y-50633097D01*
X111496007Y-50652154D01*
X111504195Y-50651076D01*
X111632573Y-50634175D01*
X111640761Y-50633097D01*
X111775650Y-50577224D01*
X111786351Y-50569013D01*
X111884928Y-50493372D01*
X111884931Y-50493369D01*
X111891481Y-50488343D01*
X111980362Y-50372511D01*
X111992915Y-50342207D01*
X112033076Y-50245249D01*
X112036235Y-50237623D01*
X112043891Y-50179474D01*
X112054214Y-50101057D01*
X112055292Y-50092869D01*
X112050440Y-50056014D01*
X112037313Y-49956301D01*
X112037312Y-49956299D01*
X112036235Y-49948115D01*
X112000284Y-49861322D01*
X111983522Y-49820855D01*
X111983521Y-49820853D01*
X111980362Y-49813227D01*
X111891481Y-49697395D01*
X111884931Y-49692369D01*
X111884928Y-49692366D01*
X111782203Y-49613542D01*
X111782201Y-49613541D01*
X111775650Y-49608514D01*
X111640761Y-49552641D01*
X111496007Y-49533584D01*
X111487819Y-49534662D01*
X111359439Y-49551563D01*
X111359437Y-49551564D01*
X111351253Y-49552641D01*
X111303437Y-49572447D01*
X111223993Y-49605354D01*
X111223991Y-49605355D01*
X111216365Y-49608514D01*
X111100533Y-49697395D01*
X111011652Y-49813227D01*
X111008493Y-49820853D01*
X111008492Y-49820855D01*
X110991730Y-49861322D01*
X110955779Y-49948115D01*
X110954702Y-49956299D01*
X110954701Y-49956301D01*
X110941574Y-50056014D01*
X110936722Y-50092869D01*
X100250118Y-50092869D01*
X100237110Y-50002045D01*
X100237110Y-50002043D01*
X100235837Y-49993158D01*
X100178988Y-49868125D01*
X100089331Y-49764073D01*
X99974074Y-49689366D01*
X99842481Y-49650012D01*
X99833505Y-49649957D01*
X99833504Y-49649957D01*
X99775958Y-49649606D01*
X99705133Y-49649173D01*
X99573070Y-49686917D01*
X99565483Y-49691704D01*
X99565481Y-49691705D01*
X99503728Y-49730668D01*
X99456909Y-49760209D01*
X99365987Y-49863158D01*
X99307614Y-49987488D01*
X99306234Y-49996352D01*
X99306233Y-49996355D01*
X99294843Y-50069511D01*
X99264599Y-50133744D01*
X99259439Y-50139222D01*
X98860578Y-50538084D01*
X98845098Y-50550586D01*
X98841868Y-50553525D01*
X98833118Y-50559175D01*
X98813991Y-50583438D01*
X98810441Y-50587433D01*
X98810540Y-50587517D01*
X98807182Y-50591480D01*
X98803506Y-50595156D01*
X98800483Y-50599385D01*
X98800483Y-50599386D01*
X98793146Y-50609652D01*
X98789585Y-50614395D01*
X98766503Y-50643675D01*
X98766501Y-50643679D01*
X98760054Y-50651857D01*
X98757221Y-50659925D01*
X98752247Y-50666885D01*
X98749263Y-50676863D01*
X98738580Y-50712586D01*
X98736744Y-50718235D01*
X98720950Y-50763208D01*
X98720500Y-50768404D01*
X98720500Y-50771109D01*
X98720403Y-50773365D01*
X98720260Y-50773841D01*
X98720214Y-50773839D01*
X98720201Y-50774038D01*
X98718432Y-50779955D01*
X98718841Y-50790359D01*
X98720403Y-50830124D01*
X98720500Y-50835070D01*
X98720500Y-57723743D01*
X98718394Y-57743537D01*
X98718189Y-57747890D01*
X98715997Y-57758070D01*
X96604847Y-57758070D01*
X96607632Y-57752321D01*
X96607632Y-57752320D01*
X96611546Y-57744242D01*
X96634333Y-57608795D01*
X96634478Y-57596959D01*
X96633631Y-57591041D01*
X96616279Y-57469882D01*
X96616279Y-57469880D01*
X96615006Y-57460995D01*
X96558157Y-57335962D01*
X96468500Y-57231910D01*
X96353243Y-57157203D01*
X96221650Y-57117849D01*
X96212674Y-57117794D01*
X96212673Y-57117794D01*
X96155127Y-57117443D01*
X96084302Y-57117010D01*
X95952239Y-57154754D01*
X95944652Y-57159541D01*
X95944650Y-57159542D01*
X95882897Y-57198505D01*
X95836078Y-57228046D01*
X95745156Y-57330995D01*
X95686783Y-57455325D01*
X95677544Y-57514661D01*
X95667033Y-57582168D01*
X95667033Y-57582172D01*
X95665652Y-57591041D01*
X69350103Y-57591041D01*
X69348827Y-56134000D01*
X90626715Y-56134000D01*
X90645772Y-56278754D01*
X90701645Y-56413642D01*
X90790526Y-56529474D01*
X90797076Y-56534500D01*
X90797079Y-56534503D01*
X90899804Y-56613327D01*
X90906357Y-56618355D01*
X91041246Y-56674228D01*
X91186000Y-56693285D01*
X91194188Y-56692207D01*
X91322566Y-56675306D01*
X91330754Y-56674228D01*
X91465643Y-56618355D01*
X91472196Y-56613327D01*
X91574921Y-56534503D01*
X91574924Y-56534500D01*
X91581474Y-56529474D01*
X91670355Y-56413642D01*
X91726228Y-56278754D01*
X91745285Y-56134000D01*
X91726228Y-55989246D01*
X91670355Y-55854358D01*
X91581474Y-55738526D01*
X91574924Y-55733500D01*
X91574921Y-55733497D01*
X91472196Y-55654673D01*
X91472194Y-55654672D01*
X91465643Y-55649645D01*
X91330754Y-55593772D01*
X91186000Y-55574715D01*
X91177812Y-55575793D01*
X91049432Y-55592694D01*
X91049430Y-55592695D01*
X91041246Y-55593772D01*
X90993430Y-55613578D01*
X90913986Y-55646485D01*
X90913984Y-55646486D01*
X90906358Y-55649645D01*
X90790526Y-55738526D01*
X90701645Y-55854358D01*
X90645772Y-55989246D01*
X90626715Y-56134000D01*
X69348827Y-56134000D01*
X69348003Y-55193096D01*
X71140729Y-55193096D01*
X71149421Y-55271824D01*
X71153436Y-55308188D01*
X71158113Y-55350553D01*
X71160723Y-55357684D01*
X71160723Y-55357686D01*
X71189590Y-55436568D01*
X71212553Y-55499319D01*
X71216789Y-55505622D01*
X71216789Y-55505623D01*
X71278146Y-55596931D01*
X71300908Y-55630805D01*
X71306527Y-55635918D01*
X71306528Y-55635919D01*
X71412460Y-55732309D01*
X71418076Y-55737419D01*
X71557293Y-55813008D01*
X71710522Y-55853207D01*
X71794477Y-55854526D01*
X71861319Y-55855576D01*
X71861322Y-55855576D01*
X71868916Y-55855695D01*
X72023332Y-55820329D01*
X72104856Y-55779327D01*
X72158072Y-55752563D01*
X72158075Y-55752561D01*
X72164855Y-55749151D01*
X72170626Y-55744222D01*
X72170629Y-55744220D01*
X72279536Y-55651204D01*
X72279536Y-55651203D01*
X72285314Y-55646269D01*
X72377755Y-55517624D01*
X72436842Y-55370641D01*
X72446895Y-55300000D01*
X93840715Y-55300000D01*
X93841793Y-55308188D01*
X93850944Y-55377695D01*
X93859772Y-55444754D01*
X93862931Y-55452380D01*
X93887035Y-55510571D01*
X93915645Y-55579642D01*
X93928912Y-55596932D01*
X93973218Y-55654672D01*
X94004526Y-55695474D01*
X94011076Y-55700500D01*
X94011079Y-55700503D01*
X94078925Y-55752563D01*
X94120357Y-55784355D01*
X94255246Y-55840228D01*
X94400000Y-55859285D01*
X94408188Y-55858207D01*
X94440152Y-55853999D01*
X94544754Y-55840228D01*
X94679643Y-55784355D01*
X94721075Y-55752563D01*
X94788921Y-55700503D01*
X94788924Y-55700500D01*
X94795474Y-55695474D01*
X94826783Y-55654672D01*
X94871088Y-55596932D01*
X94884355Y-55579642D01*
X94912966Y-55510571D01*
X94937069Y-55452380D01*
X94940228Y-55444754D01*
X94949057Y-55377695D01*
X94958207Y-55308188D01*
X94959285Y-55300000D01*
X94940228Y-55155246D01*
X94920422Y-55107430D01*
X94887515Y-55027986D01*
X94887514Y-55027984D01*
X94884355Y-55020358D01*
X94795474Y-54904526D01*
X94788924Y-54899500D01*
X94788921Y-54899497D01*
X94686196Y-54820673D01*
X94686194Y-54820672D01*
X94679643Y-54815645D01*
X94544754Y-54759772D01*
X94400000Y-54740715D01*
X94391812Y-54741793D01*
X94263432Y-54758694D01*
X94263430Y-54758695D01*
X94255246Y-54759772D01*
X94242499Y-54765052D01*
X94127986Y-54812485D01*
X94127984Y-54812486D01*
X94120358Y-54815645D01*
X94004526Y-54904526D01*
X93915645Y-55020358D01*
X93912486Y-55027984D01*
X93912485Y-55027986D01*
X93879578Y-55107430D01*
X93859772Y-55155246D01*
X93840715Y-55300000D01*
X72446895Y-55300000D01*
X72459162Y-55213807D01*
X72459307Y-55200000D01*
X72440276Y-55042733D01*
X72384280Y-54894546D01*
X72294553Y-54763992D01*
X72176275Y-54658611D01*
X72168889Y-54654700D01*
X72042988Y-54588039D01*
X72042989Y-54588039D01*
X72036274Y-54584484D01*
X71882633Y-54545892D01*
X71875034Y-54545852D01*
X71875033Y-54545852D01*
X71809181Y-54545507D01*
X71724221Y-54545062D01*
X71716841Y-54546834D01*
X71716839Y-54546834D01*
X71577563Y-54580271D01*
X71577560Y-54580272D01*
X71570184Y-54582043D01*
X71429414Y-54654700D01*
X71310039Y-54758838D01*
X71218950Y-54888444D01*
X71161406Y-55036037D01*
X71140729Y-55193096D01*
X69348003Y-55193096D01*
X69345118Y-51899933D01*
X70495500Y-51899933D01*
X70495501Y-53650066D01*
X70510266Y-53724301D01*
X70566516Y-53808484D01*
X70650699Y-53864734D01*
X70724933Y-53879500D01*
X71599858Y-53879500D01*
X72475066Y-53879499D01*
X72510818Y-53872388D01*
X72537126Y-53867156D01*
X72537128Y-53867155D01*
X72549301Y-53864734D01*
X72559621Y-53857839D01*
X72559622Y-53857838D01*
X72623168Y-53815377D01*
X72633484Y-53808484D01*
X72689734Y-53724301D01*
X72704500Y-53650067D01*
X72704500Y-53594000D01*
X82244715Y-53594000D01*
X82245793Y-53602188D01*
X82260267Y-53712128D01*
X82263772Y-53738754D01*
X82266931Y-53746380D01*
X82313099Y-53857838D01*
X82319645Y-53873642D01*
X82408526Y-53989474D01*
X82415076Y-53994500D01*
X82415079Y-53994503D01*
X82517804Y-54073327D01*
X82524357Y-54078355D01*
X82659246Y-54134228D01*
X82804000Y-54153285D01*
X82812188Y-54152207D01*
X82940566Y-54135306D01*
X82948754Y-54134228D01*
X83083643Y-54078355D01*
X83090196Y-54073327D01*
X83192921Y-53994503D01*
X83192924Y-53994500D01*
X83199474Y-53989474D01*
X83288355Y-53873642D01*
X83294902Y-53857838D01*
X83341069Y-53746380D01*
X83344228Y-53738754D01*
X83347734Y-53712128D01*
X83362207Y-53602188D01*
X83363285Y-53594000D01*
X91388715Y-53594000D01*
X91389793Y-53602188D01*
X91404267Y-53712128D01*
X91407772Y-53738754D01*
X91410931Y-53746380D01*
X91457099Y-53857838D01*
X91463645Y-53873642D01*
X91552526Y-53989474D01*
X91559076Y-53994500D01*
X91559079Y-53994503D01*
X91661804Y-54073327D01*
X91668357Y-54078355D01*
X91803246Y-54134228D01*
X91948000Y-54153285D01*
X91956188Y-54152207D01*
X92084566Y-54135306D01*
X92092754Y-54134228D01*
X92227643Y-54078355D01*
X92234196Y-54073327D01*
X92336921Y-53994503D01*
X92336924Y-53994500D01*
X92343474Y-53989474D01*
X92432355Y-53873642D01*
X92438902Y-53857838D01*
X92485069Y-53746380D01*
X92488228Y-53738754D01*
X92491734Y-53712128D01*
X92506207Y-53602188D01*
X92507285Y-53594000D01*
X92488228Y-53449246D01*
X92432355Y-53314358D01*
X92343474Y-53198526D01*
X92336924Y-53193500D01*
X92336921Y-53193497D01*
X92234196Y-53114673D01*
X92234194Y-53114672D01*
X92227643Y-53109645D01*
X92092754Y-53053772D01*
X91948000Y-53034715D01*
X91939812Y-53035793D01*
X91811432Y-53052694D01*
X91811430Y-53052695D01*
X91803246Y-53053772D01*
X91755430Y-53073578D01*
X91675986Y-53106485D01*
X91675984Y-53106486D01*
X91668358Y-53109645D01*
X91552526Y-53198526D01*
X91463645Y-53314358D01*
X91407772Y-53449246D01*
X91388715Y-53594000D01*
X83363285Y-53594000D01*
X83344228Y-53449246D01*
X83288355Y-53314358D01*
X83199474Y-53198526D01*
X83192924Y-53193500D01*
X83192921Y-53193497D01*
X83090196Y-53114673D01*
X83090194Y-53114672D01*
X83083643Y-53109645D01*
X82948754Y-53053772D01*
X82804000Y-53034715D01*
X82795812Y-53035793D01*
X82667432Y-53052694D01*
X82667430Y-53052695D01*
X82659246Y-53053772D01*
X82611430Y-53073578D01*
X82531986Y-53106485D01*
X82531984Y-53106486D01*
X82524358Y-53109645D01*
X82408526Y-53198526D01*
X82319645Y-53314358D01*
X82263772Y-53449246D01*
X82244715Y-53594000D01*
X72704500Y-53594000D01*
X72704499Y-52144000D01*
X80884715Y-52144000D01*
X80903772Y-52288754D01*
X80959645Y-52423642D01*
X81048526Y-52539474D01*
X81055076Y-52544500D01*
X81055079Y-52544503D01*
X81157804Y-52623327D01*
X81164357Y-52628355D01*
X81299246Y-52684228D01*
X81307434Y-52685306D01*
X81371623Y-52693756D01*
X81444000Y-52703285D01*
X81452188Y-52702207D01*
X81580566Y-52685306D01*
X81588754Y-52684228D01*
X81723643Y-52628355D01*
X81730196Y-52623327D01*
X81832921Y-52544503D01*
X81832924Y-52544500D01*
X81839474Y-52539474D01*
X81928355Y-52423642D01*
X81984228Y-52288754D01*
X82003285Y-52144000D01*
X81992678Y-52063432D01*
X81985306Y-52007432D01*
X81985305Y-52007430D01*
X81984327Y-52000000D01*
X94940715Y-52000000D01*
X94941793Y-52008188D01*
X94958595Y-52135812D01*
X94959772Y-52144754D01*
X95015645Y-52279642D01*
X95104526Y-52395474D01*
X95111076Y-52400500D01*
X95111079Y-52400503D01*
X95149772Y-52430193D01*
X95220357Y-52484355D01*
X95355246Y-52540228D01*
X95500000Y-52559285D01*
X95508188Y-52558207D01*
X95636566Y-52541306D01*
X95644754Y-52540228D01*
X95779643Y-52484355D01*
X95850228Y-52430193D01*
X95888921Y-52400503D01*
X95888924Y-52400500D01*
X95895474Y-52395474D01*
X95984355Y-52279642D01*
X96040228Y-52144754D01*
X96041406Y-52135812D01*
X96058207Y-52008188D01*
X96059285Y-52000000D01*
X96040228Y-51855246D01*
X95993940Y-51743497D01*
X95987515Y-51727986D01*
X95987514Y-51727984D01*
X95984355Y-51720358D01*
X95895474Y-51604526D01*
X95888924Y-51599500D01*
X95888921Y-51599497D01*
X95786196Y-51520673D01*
X95786194Y-51520672D01*
X95779643Y-51515645D01*
X95644754Y-51459772D01*
X95500000Y-51440715D01*
X95491812Y-51441793D01*
X95363432Y-51458694D01*
X95363430Y-51458695D01*
X95355246Y-51459772D01*
X95307430Y-51479578D01*
X95227986Y-51512485D01*
X95227984Y-51512486D01*
X95220358Y-51515645D01*
X95104526Y-51604526D01*
X95015645Y-51720358D01*
X95012486Y-51727984D01*
X95012485Y-51727986D01*
X95006060Y-51743497D01*
X94959772Y-51855246D01*
X94940715Y-52000000D01*
X81984327Y-52000000D01*
X81984228Y-51999246D01*
X81943091Y-51899933D01*
X81931515Y-51871986D01*
X81931514Y-51871984D01*
X81928355Y-51864358D01*
X81839474Y-51748526D01*
X81832924Y-51743500D01*
X81832921Y-51743497D01*
X81730196Y-51664673D01*
X81730194Y-51664672D01*
X81723643Y-51659645D01*
X81588754Y-51603772D01*
X81556328Y-51599503D01*
X81452188Y-51585793D01*
X81444000Y-51584715D01*
X81435812Y-51585793D01*
X81307432Y-51602694D01*
X81307430Y-51602695D01*
X81299246Y-51603772D01*
X81251430Y-51623578D01*
X81171986Y-51656485D01*
X81171984Y-51656486D01*
X81164358Y-51659645D01*
X81134123Y-51682845D01*
X81055556Y-51743132D01*
X81048526Y-51748526D01*
X80959645Y-51864358D01*
X80956486Y-51871984D01*
X80956485Y-51871986D01*
X80944909Y-51899933D01*
X80903772Y-51999246D01*
X80902695Y-52007430D01*
X80902694Y-52007432D01*
X80895322Y-52063432D01*
X80884715Y-52144000D01*
X72704499Y-52144000D01*
X72704499Y-51899934D01*
X72696120Y-51857807D01*
X72692156Y-51837874D01*
X72692155Y-51837872D01*
X72689734Y-51825699D01*
X72679961Y-51811072D01*
X72640377Y-51751832D01*
X72633484Y-51741516D01*
X72549301Y-51685266D01*
X72475067Y-51670500D01*
X71600142Y-51670500D01*
X70724934Y-51670501D01*
X70689182Y-51677612D01*
X70662874Y-51682844D01*
X70662872Y-51682845D01*
X70650699Y-51685266D01*
X70640379Y-51692161D01*
X70640378Y-51692162D01*
X70609963Y-51712485D01*
X70566516Y-51741516D01*
X70510266Y-51825699D01*
X70495500Y-51899933D01*
X69345118Y-51899933D01*
X69344659Y-51376082D01*
X75117605Y-51376082D01*
X75118769Y-51384984D01*
X75118769Y-51384987D01*
X75120554Y-51398633D01*
X75135414Y-51512273D01*
X75163073Y-51575133D01*
X75176007Y-51604526D01*
X75190732Y-51637992D01*
X75196510Y-51644865D01*
X75196510Y-51644866D01*
X75271958Y-51734623D01*
X75279111Y-51743132D01*
X75393447Y-51819240D01*
X75524549Y-51860199D01*
X75661876Y-51862716D01*
X75671109Y-51860199D01*
X75785727Y-51828951D01*
X75794391Y-51826589D01*
X75911439Y-51754721D01*
X75921593Y-51743503D01*
X75997584Y-51659550D01*
X75997585Y-51659549D01*
X76003612Y-51652890D01*
X76008989Y-51641793D01*
X76059585Y-51537362D01*
X76059585Y-51537361D01*
X76063499Y-51529283D01*
X76086286Y-51393836D01*
X76086431Y-51382000D01*
X76085584Y-51376082D01*
X76068232Y-51254923D01*
X76068232Y-51254921D01*
X76066959Y-51246036D01*
X76010110Y-51121003D01*
X75920453Y-51016951D01*
X75805196Y-50942244D01*
X75673603Y-50902890D01*
X75664627Y-50902835D01*
X75664626Y-50902835D01*
X75607080Y-50902484D01*
X75536255Y-50902051D01*
X75404192Y-50939795D01*
X75396605Y-50944582D01*
X75396603Y-50944583D01*
X75372565Y-50959750D01*
X75288031Y-51013087D01*
X75197109Y-51116036D01*
X75193295Y-51124159D01*
X75193294Y-51124161D01*
X75165136Y-51184136D01*
X75138736Y-51240366D01*
X75131298Y-51288140D01*
X75118986Y-51367209D01*
X75118986Y-51367213D01*
X75117605Y-51376082D01*
X69344659Y-51376082D01*
X69343785Y-50378102D01*
X70501930Y-50378102D01*
X70503551Y-50402832D01*
X70505352Y-50414204D01*
X70552497Y-50599837D01*
X70556338Y-50610684D01*
X70636524Y-50784622D01*
X70642275Y-50794583D01*
X70752816Y-50950995D01*
X70760294Y-50959750D01*
X70897482Y-51093392D01*
X70906426Y-51100635D01*
X71065677Y-51207043D01*
X71075787Y-51212533D01*
X71251766Y-51288140D01*
X71262709Y-51291695D01*
X71449514Y-51333964D01*
X71455973Y-51334815D01*
X71469802Y-51331338D01*
X71470156Y-51330960D01*
X71472500Y-51321120D01*
X71472500Y-51315032D01*
X71727500Y-51315032D01*
X71731466Y-51328538D01*
X71745466Y-51330542D01*
X71853341Y-51314902D01*
X71864536Y-51312214D01*
X72045905Y-51250647D01*
X72056402Y-51245973D01*
X72223523Y-51152382D01*
X72232998Y-51145870D01*
X72380268Y-51023386D01*
X72388386Y-51015268D01*
X72510870Y-50867998D01*
X72517382Y-50858523D01*
X72610973Y-50691402D01*
X72615647Y-50680905D01*
X72636322Y-50620000D01*
X77380000Y-50620000D01*
X79920000Y-50620000D01*
X79920000Y-49784000D01*
X85292715Y-49784000D01*
X85293793Y-49792188D01*
X85302895Y-49861322D01*
X85311772Y-49928754D01*
X85331578Y-49976570D01*
X85357241Y-50038524D01*
X85367645Y-50063642D01*
X85390072Y-50092869D01*
X85430653Y-50145755D01*
X85456526Y-50179474D01*
X85463076Y-50184500D01*
X85463079Y-50184503D01*
X85565804Y-50263327D01*
X85572357Y-50268355D01*
X85707246Y-50324228D01*
X85852000Y-50343285D01*
X85860188Y-50342207D01*
X85988566Y-50325306D01*
X85996754Y-50324228D01*
X86131643Y-50268355D01*
X86138196Y-50263327D01*
X86240921Y-50184503D01*
X86240924Y-50184500D01*
X86247474Y-50179474D01*
X86273348Y-50145755D01*
X86313928Y-50092869D01*
X86336355Y-50063642D01*
X86346760Y-50038524D01*
X86372422Y-49976570D01*
X86392228Y-49928754D01*
X86401106Y-49861322D01*
X86410207Y-49792188D01*
X86411285Y-49784000D01*
X86400745Y-49703941D01*
X86393306Y-49647432D01*
X86393305Y-49647430D01*
X86392228Y-49639246D01*
X86372422Y-49591430D01*
X86339515Y-49511986D01*
X86339514Y-49511984D01*
X86336355Y-49504358D01*
X86247474Y-49388526D01*
X86240924Y-49383500D01*
X86240921Y-49383497D01*
X86138196Y-49304673D01*
X86138194Y-49304672D01*
X86131643Y-49299645D01*
X85996754Y-49243772D01*
X85852000Y-49224715D01*
X85843812Y-49225793D01*
X85715432Y-49242694D01*
X85715430Y-49242695D01*
X85707246Y-49243772D01*
X85693903Y-49249299D01*
X85579986Y-49296485D01*
X85579984Y-49296486D01*
X85572358Y-49299645D01*
X85456526Y-49388526D01*
X85367645Y-49504358D01*
X85364486Y-49511984D01*
X85364485Y-49511986D01*
X85331578Y-49591430D01*
X85311772Y-49639246D01*
X85310695Y-49647430D01*
X85310694Y-49647432D01*
X85303255Y-49703941D01*
X85292715Y-49784000D01*
X79920000Y-49784000D01*
X79920000Y-49093584D01*
X97163918Y-49093584D01*
X97164996Y-49101772D01*
X97181182Y-49224715D01*
X97182975Y-49238338D01*
X97186535Y-49246932D01*
X97229517Y-49350698D01*
X97238848Y-49373226D01*
X97243875Y-49379777D01*
X97317438Y-49475646D01*
X97327729Y-49489058D01*
X97334279Y-49494084D01*
X97334282Y-49494087D01*
X97409186Y-49551563D01*
X97443560Y-49577939D01*
X97578449Y-49633812D01*
X97723203Y-49652869D01*
X97731391Y-49651791D01*
X97764502Y-49647432D01*
X97867957Y-49633812D01*
X98002846Y-49577939D01*
X98037220Y-49551563D01*
X98112124Y-49494087D01*
X98112127Y-49494084D01*
X98118677Y-49489058D01*
X98128969Y-49475646D01*
X98202531Y-49379777D01*
X98207558Y-49373226D01*
X98216890Y-49350698D01*
X98240551Y-49293576D01*
X108264456Y-49293576D01*
X108269669Y-49300627D01*
X108274843Y-49303614D01*
X108388512Y-49350698D01*
X108404330Y-49354936D01*
X108526312Y-49370995D01*
X108542688Y-49370995D01*
X108664670Y-49354936D01*
X108680488Y-49350698D01*
X108794157Y-49303614D01*
X108799038Y-49300796D01*
X108804310Y-49293576D01*
X109365456Y-49293576D01*
X109370669Y-49300627D01*
X109375843Y-49303614D01*
X109489512Y-49350698D01*
X109505330Y-49354936D01*
X109627312Y-49370995D01*
X109643688Y-49370995D01*
X109765670Y-49354936D01*
X109781488Y-49350698D01*
X109895157Y-49303614D01*
X109900038Y-49300796D01*
X109905568Y-49293223D01*
X109898935Y-49281247D01*
X109648312Y-49030624D01*
X109634368Y-49023010D01*
X109632535Y-49023141D01*
X109625920Y-49027392D01*
X109372337Y-49280975D01*
X109365456Y-49293576D01*
X108804310Y-49293576D01*
X108804568Y-49293223D01*
X108797935Y-49281247D01*
X108547312Y-49030624D01*
X108533368Y-49023010D01*
X108531535Y-49023141D01*
X108524920Y-49027392D01*
X108271337Y-49280975D01*
X108264456Y-49293576D01*
X98240551Y-49293576D01*
X98259871Y-49246932D01*
X98263431Y-49238338D01*
X98265225Y-49224715D01*
X98281410Y-49101772D01*
X98282488Y-49093584D01*
X98267994Y-48983487D01*
X98264509Y-48957016D01*
X98264508Y-48957014D01*
X98263431Y-48948830D01*
X98222623Y-48850312D01*
X98220708Y-48845688D01*
X108001005Y-48845688D01*
X108017064Y-48967670D01*
X108021302Y-48983487D01*
X108068385Y-49097156D01*
X108071204Y-49102037D01*
X108078777Y-49107567D01*
X108090754Y-49100934D01*
X108341376Y-48850312D01*
X108347754Y-48838632D01*
X108720010Y-48838632D01*
X108720141Y-48840465D01*
X108724392Y-48847080D01*
X108977975Y-49100663D01*
X108990575Y-49107544D01*
X109010128Y-49093087D01*
X109076795Y-49068673D01*
X109146078Y-49084177D01*
X109159341Y-49092644D01*
X109179777Y-49107567D01*
X109191754Y-49100934D01*
X109442376Y-48850312D01*
X109448754Y-48838632D01*
X109821010Y-48838632D01*
X109821141Y-48840465D01*
X109825392Y-48847080D01*
X110078975Y-49100663D01*
X110091576Y-49107544D01*
X110098627Y-49102330D01*
X110101615Y-49097156D01*
X110148698Y-48983487D01*
X110152936Y-48967670D01*
X110168995Y-48845688D01*
X110168995Y-48829312D01*
X110152936Y-48707330D01*
X110148698Y-48691513D01*
X110101615Y-48577844D01*
X110098796Y-48572963D01*
X110091223Y-48567433D01*
X110079246Y-48574066D01*
X109828624Y-48824688D01*
X109821010Y-48838632D01*
X109448754Y-48838632D01*
X109449990Y-48836368D01*
X109449859Y-48834535D01*
X109445608Y-48827920D01*
X109192025Y-48574337D01*
X109179425Y-48567456D01*
X109159872Y-48581913D01*
X109093205Y-48606327D01*
X109023922Y-48590823D01*
X109010659Y-48582356D01*
X108990223Y-48567433D01*
X108978246Y-48574066D01*
X108727624Y-48824688D01*
X108720010Y-48838632D01*
X108347754Y-48838632D01*
X108348990Y-48836368D01*
X108348859Y-48834535D01*
X108344608Y-48827920D01*
X108091025Y-48574337D01*
X108078424Y-48567456D01*
X108071373Y-48572670D01*
X108068385Y-48577844D01*
X108021302Y-48691513D01*
X108017064Y-48707330D01*
X108001005Y-48829312D01*
X108001005Y-48845688D01*
X98220708Y-48845688D01*
X98210718Y-48821570D01*
X98210717Y-48821568D01*
X98207558Y-48813942D01*
X98118677Y-48698110D01*
X98112127Y-48693084D01*
X98112124Y-48693081D01*
X98009399Y-48614257D01*
X98009397Y-48614256D01*
X98002846Y-48609229D01*
X97867957Y-48553356D01*
X97723203Y-48534299D01*
X97715015Y-48535377D01*
X97586635Y-48552278D01*
X97586633Y-48552279D01*
X97578449Y-48553356D01*
X97544409Y-48567456D01*
X97451189Y-48606069D01*
X97451187Y-48606070D01*
X97443561Y-48609229D01*
X97327729Y-48698110D01*
X97238848Y-48813942D01*
X97235689Y-48821568D01*
X97235688Y-48821570D01*
X97223783Y-48850312D01*
X97182975Y-48948830D01*
X97181898Y-48957014D01*
X97181897Y-48957016D01*
X97178412Y-48983487D01*
X97163918Y-49093584D01*
X79920000Y-49093584D01*
X79920000Y-48381777D01*
X108264433Y-48381777D01*
X108271066Y-48393754D01*
X108521688Y-48644376D01*
X108535632Y-48651990D01*
X108537465Y-48651859D01*
X108544080Y-48647608D01*
X108797663Y-48394025D01*
X108804351Y-48381777D01*
X109365433Y-48381777D01*
X109372066Y-48393754D01*
X109622688Y-48644376D01*
X109636632Y-48651990D01*
X109638465Y-48651859D01*
X109645080Y-48647608D01*
X109898663Y-48394025D01*
X109905544Y-48381424D01*
X109900331Y-48374372D01*
X109897725Y-48372868D01*
X109848732Y-48321485D01*
X109835297Y-48251771D01*
X109861684Y-48185861D01*
X109897725Y-48154632D01*
X109900038Y-48153297D01*
X109905568Y-48145723D01*
X109898935Y-48133747D01*
X109648312Y-47883124D01*
X109634368Y-47875510D01*
X109632535Y-47875641D01*
X109625920Y-47879892D01*
X109372337Y-48133475D01*
X109365456Y-48146076D01*
X109370669Y-48153128D01*
X109373275Y-48154632D01*
X109422268Y-48206015D01*
X109435703Y-48275729D01*
X109409316Y-48341639D01*
X109373273Y-48372870D01*
X109370963Y-48374204D01*
X109365433Y-48381777D01*
X108804351Y-48381777D01*
X108804544Y-48381424D01*
X108799331Y-48374372D01*
X108796725Y-48372868D01*
X108747732Y-48321485D01*
X108734297Y-48251771D01*
X108760684Y-48185861D01*
X108796725Y-48154632D01*
X108799038Y-48153297D01*
X108804568Y-48145723D01*
X108797935Y-48133747D01*
X108547312Y-47883124D01*
X108533368Y-47875510D01*
X108531535Y-47875641D01*
X108524920Y-47879892D01*
X108271337Y-48133475D01*
X108264456Y-48146076D01*
X108269669Y-48153128D01*
X108272275Y-48154632D01*
X108321268Y-48206015D01*
X108334703Y-48275729D01*
X108308316Y-48341639D01*
X108272273Y-48372870D01*
X108269963Y-48374204D01*
X108264433Y-48381777D01*
X79920000Y-48381777D01*
X79920000Y-48080000D01*
X77380000Y-48080000D01*
X77380000Y-50620000D01*
X72636322Y-50620000D01*
X72677214Y-50499536D01*
X72679902Y-50488341D01*
X72695547Y-50380430D01*
X72693561Y-50366493D01*
X72679993Y-50362500D01*
X71745615Y-50362500D01*
X71730376Y-50366975D01*
X71729171Y-50368365D01*
X71727500Y-50376048D01*
X71727500Y-51315032D01*
X71472500Y-51315032D01*
X71472500Y-50380615D01*
X71468025Y-50365376D01*
X71466635Y-50364171D01*
X71458952Y-50362500D01*
X70519022Y-50362500D01*
X70503982Y-50366916D01*
X70501930Y-50378102D01*
X69343785Y-50378102D01*
X69343532Y-50089512D01*
X70504427Y-50089512D01*
X70506869Y-50103931D01*
X70519611Y-50107500D01*
X71454385Y-50107500D01*
X71469624Y-50103025D01*
X71470829Y-50101635D01*
X71472500Y-50093952D01*
X71472500Y-50089385D01*
X71727500Y-50089385D01*
X71731975Y-50104624D01*
X71733365Y-50105829D01*
X71741048Y-50107500D01*
X72679903Y-50107500D01*
X72694448Y-50103229D01*
X72696511Y-50091095D01*
X72691680Y-50038524D01*
X72689582Y-50027203D01*
X72637595Y-49842871D01*
X72633470Y-49832124D01*
X72548759Y-49660347D01*
X72542749Y-49650539D01*
X72428146Y-49497067D01*
X72420457Y-49488527D01*
X72279804Y-49358509D01*
X72270680Y-49351508D01*
X72108689Y-49249299D01*
X72098446Y-49244080D01*
X71920545Y-49173105D01*
X71909517Y-49169838D01*
X71745270Y-49137168D01*
X71732394Y-49138320D01*
X71727500Y-49153476D01*
X71727500Y-50089385D01*
X71472500Y-50089385D01*
X71472500Y-49153749D01*
X71468694Y-49140787D01*
X71453778Y-49138851D01*
X71318477Y-49162100D01*
X71307357Y-49165080D01*
X71127663Y-49231372D01*
X71117285Y-49236322D01*
X70952683Y-49334250D01*
X70943371Y-49341016D01*
X70799368Y-49467303D01*
X70791451Y-49475646D01*
X70672876Y-49626059D01*
X70666608Y-49635710D01*
X70577431Y-49805207D01*
X70573026Y-49815841D01*
X70516229Y-49998756D01*
X70513837Y-50010010D01*
X70504427Y-50089512D01*
X69343532Y-50089512D01*
X69341437Y-47698188D01*
X108001005Y-47698188D01*
X108017064Y-47820170D01*
X108021302Y-47835987D01*
X108068385Y-47949656D01*
X108071204Y-47954537D01*
X108078777Y-47960067D01*
X108090754Y-47953434D01*
X108341376Y-47702812D01*
X108347754Y-47691132D01*
X108720010Y-47691132D01*
X108720141Y-47692965D01*
X108724392Y-47699580D01*
X108977975Y-47953163D01*
X108990575Y-47960044D01*
X109010128Y-47945587D01*
X109076795Y-47921173D01*
X109146078Y-47936677D01*
X109159341Y-47945144D01*
X109179777Y-47960067D01*
X109191754Y-47953434D01*
X109442376Y-47702812D01*
X109448754Y-47691132D01*
X109821010Y-47691132D01*
X109821141Y-47692965D01*
X109825392Y-47699580D01*
X110078975Y-47953163D01*
X110091576Y-47960044D01*
X110098627Y-47954830D01*
X110101615Y-47949656D01*
X110148698Y-47835987D01*
X110152936Y-47820170D01*
X110168995Y-47698188D01*
X110168995Y-47681812D01*
X110152936Y-47559830D01*
X110148698Y-47544013D01*
X110101615Y-47430344D01*
X110098796Y-47425463D01*
X110091223Y-47419933D01*
X110079246Y-47426566D01*
X109828624Y-47677188D01*
X109821010Y-47691132D01*
X109448754Y-47691132D01*
X109449990Y-47688868D01*
X109449859Y-47687035D01*
X109445608Y-47680420D01*
X109192025Y-47426837D01*
X109179425Y-47419956D01*
X109159872Y-47434413D01*
X109093205Y-47458827D01*
X109023922Y-47443323D01*
X109010659Y-47434856D01*
X108990223Y-47419933D01*
X108978246Y-47426566D01*
X108727624Y-47677188D01*
X108720010Y-47691132D01*
X108347754Y-47691132D01*
X108348990Y-47688868D01*
X108348859Y-47687035D01*
X108344608Y-47680420D01*
X108091025Y-47426837D01*
X108078424Y-47419956D01*
X108071373Y-47425170D01*
X108068385Y-47430344D01*
X108021302Y-47544013D01*
X108017064Y-47559830D01*
X108001005Y-47681812D01*
X108001005Y-47698188D01*
X69341437Y-47698188D01*
X69339254Y-45206082D01*
X72921605Y-45206082D01*
X72922769Y-45214984D01*
X72922769Y-45214987D01*
X72928944Y-45262207D01*
X72939414Y-45342273D01*
X72994732Y-45467992D01*
X73000510Y-45474865D01*
X73000510Y-45474866D01*
X73043913Y-45526500D01*
X73083111Y-45573132D01*
X73197447Y-45649240D01*
X73328549Y-45690199D01*
X73465876Y-45692716D01*
X73475109Y-45690199D01*
X73544599Y-45671254D01*
X82715639Y-45671254D01*
X82734696Y-45816008D01*
X82740193Y-45829278D01*
X82786782Y-45941753D01*
X82790569Y-45950896D01*
X82821003Y-45990558D01*
X82871797Y-46056754D01*
X82879450Y-46066728D01*
X82886000Y-46071754D01*
X82886003Y-46071757D01*
X82939421Y-46112746D01*
X82995281Y-46155609D01*
X83130170Y-46211482D01*
X83274924Y-46230539D01*
X83283112Y-46229461D01*
X83411490Y-46212560D01*
X83419678Y-46211482D01*
X83554567Y-46155609D01*
X83610427Y-46112746D01*
X83663845Y-46071757D01*
X83663848Y-46071754D01*
X83670398Y-46066728D01*
X83672429Y-46064082D01*
X88669605Y-46064082D01*
X88670769Y-46072984D01*
X88670769Y-46072987D01*
X88678510Y-46132178D01*
X88687414Y-46200273D01*
X88742732Y-46325992D01*
X88748510Y-46332865D01*
X88748510Y-46332866D01*
X88825331Y-46424256D01*
X88831111Y-46431132D01*
X88945447Y-46507240D01*
X89017299Y-46529688D01*
X89049333Y-46539696D01*
X89076549Y-46548199D01*
X89213876Y-46550716D01*
X89223109Y-46548199D01*
X89337727Y-46516951D01*
X89346391Y-46514589D01*
X89446200Y-46453306D01*
X89455791Y-46447417D01*
X89463439Y-46442721D01*
X89473929Y-46431132D01*
X89549584Y-46347550D01*
X89549585Y-46347549D01*
X89555612Y-46340890D01*
X89567365Y-46316633D01*
X89610307Y-46228000D01*
X96976715Y-46228000D01*
X96977793Y-46236188D01*
X96993697Y-46356990D01*
X96995772Y-46372754D01*
X97006857Y-46399515D01*
X97028692Y-46452228D01*
X97051645Y-46507642D01*
X97140526Y-46623474D01*
X97147076Y-46628500D01*
X97147079Y-46628503D01*
X97249804Y-46707327D01*
X97256357Y-46712355D01*
X97391246Y-46768228D01*
X97536000Y-46787285D01*
X97544188Y-46786207D01*
X97672566Y-46769306D01*
X97680754Y-46768228D01*
X97815643Y-46712355D01*
X97822196Y-46707327D01*
X97924921Y-46628503D01*
X97924924Y-46628500D01*
X97931474Y-46623474D01*
X98020355Y-46507642D01*
X98043309Y-46452228D01*
X98065143Y-46399515D01*
X98076228Y-46372754D01*
X98078304Y-46356990D01*
X98086586Y-46294082D01*
X100815605Y-46294082D01*
X100816769Y-46302984D01*
X100816769Y-46302987D01*
X100823258Y-46352608D01*
X100833414Y-46430273D01*
X100851460Y-46471285D01*
X100881562Y-46539696D01*
X100888732Y-46555992D01*
X100894510Y-46562865D01*
X100894510Y-46562866D01*
X100964623Y-46646276D01*
X100977111Y-46661132D01*
X101091447Y-46737240D01*
X101222549Y-46778199D01*
X101271071Y-46779088D01*
X101271816Y-46779102D01*
X101339559Y-46800349D01*
X101385061Y-46854848D01*
X101393875Y-46925295D01*
X101383562Y-46958630D01*
X101336736Y-47058366D01*
X101329589Y-47104271D01*
X101316986Y-47185209D01*
X101316986Y-47185213D01*
X101315605Y-47194082D01*
X101316769Y-47202984D01*
X101316769Y-47202987D01*
X101318554Y-47216633D01*
X101333414Y-47330273D01*
X101361073Y-47393132D01*
X101377447Y-47430344D01*
X101388732Y-47455992D01*
X101394510Y-47462865D01*
X101394510Y-47462866D01*
X101462721Y-47544013D01*
X101477111Y-47561132D01*
X101591447Y-47637240D01*
X101722549Y-47678199D01*
X101859876Y-47680716D01*
X101869109Y-47678199D01*
X101983727Y-47646951D01*
X101992391Y-47644589D01*
X102109439Y-47572721D01*
X102119929Y-47561132D01*
X102195584Y-47477550D01*
X102195585Y-47477549D01*
X102201612Y-47470890D01*
X102207457Y-47458827D01*
X102257585Y-47355362D01*
X102257585Y-47355361D01*
X102261499Y-47347283D01*
X102280511Y-47234277D01*
X108264433Y-47234277D01*
X108271066Y-47246254D01*
X108521688Y-47496876D01*
X108535632Y-47504490D01*
X108537465Y-47504359D01*
X108544080Y-47500108D01*
X108797663Y-47246525D01*
X108804351Y-47234277D01*
X109365433Y-47234277D01*
X109372066Y-47246254D01*
X109622688Y-47496876D01*
X109636632Y-47504490D01*
X109638465Y-47504359D01*
X109645080Y-47500108D01*
X109898663Y-47246525D01*
X109905544Y-47233924D01*
X109900331Y-47226872D01*
X109897725Y-47225368D01*
X109848732Y-47173985D01*
X109835297Y-47104271D01*
X109861684Y-47038361D01*
X109897725Y-47007132D01*
X109900038Y-47005797D01*
X109905568Y-46998223D01*
X109898935Y-46986247D01*
X109648312Y-46735624D01*
X109634368Y-46728010D01*
X109632535Y-46728141D01*
X109625920Y-46732392D01*
X109372337Y-46985975D01*
X109365456Y-46998576D01*
X109370669Y-47005628D01*
X109373275Y-47007132D01*
X109422268Y-47058515D01*
X109435703Y-47128229D01*
X109409316Y-47194139D01*
X109373273Y-47225370D01*
X109370963Y-47226704D01*
X109365433Y-47234277D01*
X108804351Y-47234277D01*
X108804544Y-47233924D01*
X108799331Y-47226872D01*
X108796725Y-47225368D01*
X108747732Y-47173985D01*
X108734297Y-47104271D01*
X108760684Y-47038361D01*
X108796725Y-47007132D01*
X108799038Y-47005797D01*
X108804568Y-46998223D01*
X108797935Y-46986247D01*
X108547312Y-46735624D01*
X108533368Y-46728010D01*
X108531535Y-46728141D01*
X108524920Y-46732392D01*
X108271337Y-46985975D01*
X108264456Y-46998576D01*
X108269669Y-47005628D01*
X108272275Y-47007132D01*
X108321268Y-47058515D01*
X108334703Y-47128229D01*
X108308316Y-47194139D01*
X108272273Y-47225370D01*
X108269963Y-47226704D01*
X108264433Y-47234277D01*
X102280511Y-47234277D01*
X102284286Y-47211836D01*
X102284431Y-47200000D01*
X102283584Y-47194082D01*
X102266232Y-47072923D01*
X102266232Y-47072921D01*
X102264959Y-47064036D01*
X102208110Y-46939003D01*
X102118453Y-46834951D01*
X102003196Y-46760244D01*
X101871603Y-46720890D01*
X101862627Y-46720835D01*
X101862626Y-46720835D01*
X101843282Y-46720717D01*
X101829348Y-46720632D01*
X101761350Y-46700214D01*
X101715186Y-46646276D01*
X101705511Y-46575941D01*
X101713324Y-46550688D01*
X108001005Y-46550688D01*
X108017064Y-46672670D01*
X108021302Y-46688487D01*
X108068385Y-46802156D01*
X108071204Y-46807037D01*
X108078777Y-46812567D01*
X108090754Y-46805934D01*
X108341376Y-46555312D01*
X108347754Y-46543632D01*
X108720010Y-46543632D01*
X108720141Y-46545465D01*
X108724392Y-46552080D01*
X108977975Y-46805663D01*
X108990575Y-46812544D01*
X109010128Y-46798087D01*
X109076795Y-46773673D01*
X109146078Y-46789177D01*
X109159341Y-46797644D01*
X109179777Y-46812567D01*
X109191754Y-46805934D01*
X109442376Y-46555312D01*
X109448754Y-46543632D01*
X109821010Y-46543632D01*
X109821141Y-46545465D01*
X109825392Y-46552080D01*
X110078975Y-46805663D01*
X110091576Y-46812544D01*
X110098627Y-46807330D01*
X110101615Y-46802156D01*
X110148698Y-46688487D01*
X110152936Y-46672670D01*
X110168995Y-46550688D01*
X110168995Y-46534312D01*
X110152936Y-46412330D01*
X110148698Y-46396513D01*
X110101615Y-46282844D01*
X110098796Y-46277963D01*
X110091223Y-46272433D01*
X110079246Y-46279066D01*
X109828624Y-46529688D01*
X109821010Y-46543632D01*
X109448754Y-46543632D01*
X109449990Y-46541368D01*
X109449859Y-46539535D01*
X109445608Y-46532920D01*
X109192025Y-46279337D01*
X109179425Y-46272456D01*
X109159872Y-46286913D01*
X109093205Y-46311327D01*
X109023922Y-46295823D01*
X109010659Y-46287356D01*
X108990223Y-46272433D01*
X108978246Y-46279066D01*
X108727624Y-46529688D01*
X108720010Y-46543632D01*
X108347754Y-46543632D01*
X108348990Y-46541368D01*
X108348859Y-46539535D01*
X108344608Y-46532920D01*
X108091025Y-46279337D01*
X108078424Y-46272456D01*
X108071373Y-46277670D01*
X108068385Y-46282844D01*
X108021302Y-46396513D01*
X108017064Y-46412330D01*
X108001005Y-46534312D01*
X108001005Y-46550688D01*
X101713324Y-46550688D01*
X101716725Y-46539696D01*
X101728890Y-46514589D01*
X101749870Y-46471285D01*
X101757585Y-46455362D01*
X101757585Y-46455361D01*
X101761499Y-46447283D01*
X101784286Y-46311836D01*
X101784431Y-46300000D01*
X101783584Y-46294082D01*
X101766232Y-46172923D01*
X101766232Y-46172921D01*
X101764959Y-46164036D01*
X101761128Y-46155609D01*
X101728226Y-46083246D01*
X101708110Y-46039003D01*
X101618453Y-45934951D01*
X101503196Y-45860244D01*
X101399651Y-45829278D01*
X101980409Y-45829278D01*
X101981573Y-45838180D01*
X101981573Y-45838183D01*
X101989313Y-45897373D01*
X101998218Y-45965469D01*
X102053536Y-46091188D01*
X102059314Y-46098061D01*
X102059314Y-46098062D01*
X102114771Y-46164036D01*
X102141915Y-46196328D01*
X102256251Y-46272436D01*
X102387353Y-46313395D01*
X102524680Y-46315912D01*
X102533913Y-46313395D01*
X102648531Y-46282147D01*
X102657195Y-46279785D01*
X102774243Y-46207917D01*
X102784733Y-46196328D01*
X102860388Y-46112746D01*
X102860389Y-46112745D01*
X102866416Y-46106086D01*
X102879359Y-46079373D01*
X102922389Y-45990558D01*
X102922389Y-45990557D01*
X102926303Y-45982479D01*
X102938160Y-45912000D01*
X104461715Y-45912000D01*
X104480772Y-46056754D01*
X104493062Y-46086424D01*
X104521826Y-46155865D01*
X104536645Y-46191642D01*
X104565665Y-46229461D01*
X104602657Y-46277670D01*
X104625526Y-46307474D01*
X104632076Y-46312500D01*
X104632079Y-46312503D01*
X104720538Y-46380380D01*
X104741357Y-46396355D01*
X104876246Y-46452228D01*
X105021000Y-46471285D01*
X105029188Y-46470207D01*
X105157566Y-46453306D01*
X105165754Y-46452228D01*
X105300643Y-46396355D01*
X105321462Y-46380380D01*
X105409921Y-46312503D01*
X105409924Y-46312500D01*
X105416474Y-46307474D01*
X105439344Y-46277670D01*
X105476335Y-46229461D01*
X105505355Y-46191642D01*
X105520175Y-46155865D01*
X105548792Y-46086777D01*
X108264433Y-46086777D01*
X108271066Y-46098754D01*
X108521688Y-46349376D01*
X108535632Y-46356990D01*
X108537465Y-46356859D01*
X108544080Y-46352608D01*
X108797663Y-46099025D01*
X108804351Y-46086777D01*
X109365433Y-46086777D01*
X109372066Y-46098754D01*
X109622688Y-46349376D01*
X109636632Y-46356990D01*
X109638465Y-46356859D01*
X109645080Y-46352608D01*
X109898663Y-46099025D01*
X109905544Y-46086424D01*
X109900331Y-46079373D01*
X109895157Y-46076386D01*
X109781488Y-46029302D01*
X109765670Y-46025064D01*
X109643688Y-46009005D01*
X109627312Y-46009005D01*
X109505330Y-46025064D01*
X109489513Y-46029302D01*
X109375844Y-46076385D01*
X109370963Y-46079204D01*
X109365433Y-46086777D01*
X108804351Y-46086777D01*
X108804544Y-46086424D01*
X108799331Y-46079373D01*
X108794157Y-46076386D01*
X108680488Y-46029302D01*
X108664670Y-46025064D01*
X108542688Y-46009005D01*
X108526312Y-46009005D01*
X108404330Y-46025064D01*
X108388513Y-46029302D01*
X108274844Y-46076385D01*
X108269963Y-46079204D01*
X108264433Y-46086777D01*
X105548792Y-46086777D01*
X105548938Y-46086424D01*
X105561228Y-46056754D01*
X105580285Y-45912000D01*
X105572771Y-45854923D01*
X105562306Y-45775432D01*
X105562305Y-45775430D01*
X105561228Y-45767246D01*
X105529671Y-45691061D01*
X105508515Y-45639986D01*
X105508514Y-45639984D01*
X105505355Y-45632358D01*
X105430409Y-45534686D01*
X105421501Y-45523077D01*
X105421500Y-45523076D01*
X105416474Y-45516526D01*
X105409924Y-45511500D01*
X105409921Y-45511497D01*
X105307196Y-45432673D01*
X105307194Y-45432672D01*
X105300643Y-45427645D01*
X105165754Y-45371772D01*
X105132257Y-45367362D01*
X105080870Y-45360597D01*
X105021000Y-45352715D01*
X105012812Y-45353793D01*
X104884432Y-45370694D01*
X104884430Y-45370695D01*
X104876246Y-45371772D01*
X104830973Y-45390525D01*
X104748986Y-45424485D01*
X104748984Y-45424486D01*
X104741358Y-45427645D01*
X104625526Y-45516526D01*
X104536645Y-45632358D01*
X104533486Y-45639984D01*
X104533485Y-45639986D01*
X104512329Y-45691061D01*
X104480772Y-45767246D01*
X104479695Y-45775430D01*
X104479694Y-45775432D01*
X104469229Y-45854923D01*
X104461715Y-45912000D01*
X102938160Y-45912000D01*
X102949090Y-45847032D01*
X102949235Y-45835196D01*
X102948388Y-45829278D01*
X102931036Y-45708119D01*
X102931036Y-45708117D01*
X102929763Y-45699232D01*
X102925727Y-45690354D01*
X102904771Y-45644265D01*
X102872914Y-45574199D01*
X102783257Y-45470147D01*
X102668000Y-45395440D01*
X102536407Y-45356086D01*
X102527431Y-45356031D01*
X102527430Y-45356031D01*
X102469884Y-45355680D01*
X102399059Y-45355247D01*
X102266996Y-45392991D01*
X102259409Y-45397778D01*
X102259407Y-45397779D01*
X102217081Y-45424485D01*
X102150835Y-45466283D01*
X102144892Y-45473012D01*
X102143308Y-45474806D01*
X102059913Y-45569232D01*
X102056099Y-45577355D01*
X102056098Y-45577357D01*
X102038365Y-45615128D01*
X102001540Y-45693562D01*
X101994234Y-45740485D01*
X101981790Y-45820405D01*
X101981790Y-45820409D01*
X101980409Y-45829278D01*
X101399651Y-45829278D01*
X101371603Y-45820890D01*
X101362627Y-45820835D01*
X101362626Y-45820835D01*
X101305080Y-45820484D01*
X101234255Y-45820051D01*
X101102192Y-45857795D01*
X101094605Y-45862582D01*
X101094603Y-45862583D01*
X101032850Y-45901546D01*
X100986031Y-45931087D01*
X100980088Y-45937816D01*
X100955666Y-45965469D01*
X100895109Y-46034036D01*
X100891295Y-46042159D01*
X100891294Y-46042161D01*
X100865077Y-46098002D01*
X100836736Y-46158366D01*
X100829021Y-46207917D01*
X100816986Y-46285209D01*
X100816986Y-46285213D01*
X100815605Y-46294082D01*
X98086586Y-46294082D01*
X98094207Y-46236188D01*
X98095285Y-46228000D01*
X98079235Y-46106086D01*
X98077306Y-46091432D01*
X98077305Y-46091430D01*
X98076228Y-46083246D01*
X98053883Y-46029302D01*
X98023515Y-45955986D01*
X98023514Y-45955984D01*
X98020355Y-45948358D01*
X97975914Y-45890442D01*
X97936501Y-45839077D01*
X97936500Y-45839076D01*
X97931474Y-45832526D01*
X97924924Y-45827500D01*
X97924921Y-45827497D01*
X97822196Y-45748673D01*
X97822194Y-45748672D01*
X97815643Y-45743645D01*
X97692690Y-45692716D01*
X97688383Y-45690932D01*
X97680754Y-45687772D01*
X97536000Y-45668715D01*
X97527812Y-45669793D01*
X97399432Y-45686694D01*
X97399430Y-45686695D01*
X97391246Y-45687772D01*
X97359101Y-45701087D01*
X97263986Y-45740485D01*
X97263984Y-45740486D01*
X97256358Y-45743645D01*
X97140526Y-45832526D01*
X97051645Y-45948358D01*
X97048486Y-45955984D01*
X97048485Y-45955986D01*
X97018117Y-46029302D01*
X96995772Y-46083246D01*
X96994695Y-46091430D01*
X96994694Y-46091432D01*
X96992765Y-46106086D01*
X96976715Y-46228000D01*
X89610307Y-46228000D01*
X89611585Y-46225362D01*
X89611585Y-46225361D01*
X89615499Y-46217283D01*
X89638286Y-46081836D01*
X89638431Y-46070000D01*
X89637627Y-46064380D01*
X89620232Y-45942923D01*
X89620232Y-45942921D01*
X89618959Y-45934036D01*
X89562110Y-45809003D01*
X89556248Y-45802200D01*
X89551414Y-45794641D01*
X89553277Y-45793450D01*
X89529037Y-45739969D01*
X89539341Y-45669725D01*
X89560389Y-45637838D01*
X89570826Y-45626307D01*
X89576851Y-45619651D01*
X89636738Y-45496044D01*
X89641792Y-45466000D01*
X90626715Y-45466000D01*
X90627793Y-45474188D01*
X90642345Y-45584721D01*
X90645772Y-45610754D01*
X90648931Y-45618380D01*
X90683190Y-45701087D01*
X90701645Y-45745642D01*
X90706672Y-45752193D01*
X90766658Y-45830368D01*
X90790526Y-45861474D01*
X90797076Y-45866500D01*
X90797079Y-45866503D01*
X90897121Y-45943268D01*
X90906357Y-45950355D01*
X91041246Y-46006228D01*
X91049434Y-46007306D01*
X91113623Y-46015756D01*
X91186000Y-46025285D01*
X91194188Y-46024207D01*
X91322566Y-46007306D01*
X91330754Y-46006228D01*
X91465643Y-45950355D01*
X91474879Y-45943268D01*
X91574921Y-45866503D01*
X91574924Y-45866500D01*
X91581474Y-45861474D01*
X91605343Y-45830368D01*
X91665328Y-45752193D01*
X91670355Y-45745642D01*
X91688811Y-45701087D01*
X91723069Y-45618380D01*
X91726228Y-45610754D01*
X91729656Y-45584721D01*
X91744207Y-45474188D01*
X91745285Y-45466000D01*
X91735349Y-45390525D01*
X91727306Y-45329432D01*
X91727305Y-45329430D01*
X91726228Y-45321246D01*
X91701773Y-45262207D01*
X91673515Y-45193986D01*
X91673514Y-45193984D01*
X91670355Y-45186358D01*
X91613274Y-45111969D01*
X91586501Y-45077077D01*
X91586500Y-45077076D01*
X91581474Y-45070526D01*
X91574924Y-45065500D01*
X91574921Y-45065497D01*
X91472196Y-44986673D01*
X91472194Y-44986672D01*
X91465643Y-44981645D01*
X91330754Y-44925772D01*
X91186000Y-44906715D01*
X91168606Y-44909005D01*
X91049432Y-44924694D01*
X91049430Y-44924695D01*
X91041246Y-44925772D01*
X91008568Y-44939308D01*
X90913986Y-44978485D01*
X90913984Y-44978486D01*
X90906358Y-44981645D01*
X90790526Y-45070526D01*
X90701645Y-45186358D01*
X90698486Y-45193984D01*
X90698485Y-45193986D01*
X90670227Y-45262207D01*
X90645772Y-45321246D01*
X90644695Y-45329430D01*
X90644694Y-45329432D01*
X90636651Y-45390525D01*
X90626715Y-45466000D01*
X89641792Y-45466000D01*
X89659525Y-45360597D01*
X89659670Y-45348761D01*
X89658823Y-45342843D01*
X89641471Y-45221684D01*
X89641471Y-45221682D01*
X89640198Y-45212797D01*
X89583349Y-45087764D01*
X89493692Y-44983712D01*
X89378435Y-44909005D01*
X89246842Y-44869651D01*
X89237866Y-44869596D01*
X89237865Y-44869596D01*
X89180319Y-44869245D01*
X89109494Y-44868812D01*
X88977431Y-44906556D01*
X88969844Y-44911343D01*
X88969842Y-44911344D01*
X88941967Y-44928932D01*
X88861270Y-44979848D01*
X88855327Y-44986577D01*
X88851850Y-44990514D01*
X88770348Y-45082797D01*
X88766534Y-45090920D01*
X88766533Y-45090922D01*
X88747704Y-45131026D01*
X88711975Y-45207127D01*
X88706031Y-45245306D01*
X88692225Y-45333970D01*
X88692225Y-45333974D01*
X88690844Y-45342843D01*
X88692008Y-45351745D01*
X88692008Y-45351748D01*
X88697722Y-45395440D01*
X88708653Y-45479034D01*
X88729539Y-45526500D01*
X88754124Y-45582373D01*
X88763971Y-45604753D01*
X88769748Y-45611626D01*
X88769749Y-45611627D01*
X88772692Y-45615128D01*
X88801213Y-45680144D01*
X88790055Y-45750259D01*
X88770682Y-45779609D01*
X88749109Y-45804036D01*
X88745295Y-45812159D01*
X88745294Y-45812161D01*
X88725027Y-45855329D01*
X88690736Y-45928366D01*
X88686436Y-45955986D01*
X88670986Y-46055209D01*
X88670986Y-46055213D01*
X88669605Y-46064082D01*
X83672429Y-46064082D01*
X83678052Y-46056754D01*
X83728845Y-45990558D01*
X83759279Y-45950896D01*
X83763067Y-45941753D01*
X83809655Y-45829278D01*
X83815152Y-45816008D01*
X83834209Y-45671254D01*
X83825454Y-45604753D01*
X83816230Y-45534686D01*
X83816229Y-45534684D01*
X83815152Y-45526500D01*
X83772896Y-45424485D01*
X83762439Y-45399240D01*
X83762438Y-45399238D01*
X83759279Y-45391612D01*
X83670398Y-45275780D01*
X83663848Y-45270754D01*
X83663845Y-45270751D01*
X83561120Y-45191927D01*
X83561118Y-45191926D01*
X83554567Y-45186899D01*
X83419678Y-45131026D01*
X83274924Y-45111969D01*
X83266736Y-45113047D01*
X83138356Y-45129948D01*
X83138354Y-45129949D01*
X83130170Y-45131026D01*
X83082354Y-45150832D01*
X83002910Y-45183739D01*
X83002908Y-45183740D01*
X82995282Y-45186899D01*
X82879450Y-45275780D01*
X82790569Y-45391612D01*
X82787410Y-45399238D01*
X82787409Y-45399240D01*
X82776952Y-45424485D01*
X82734696Y-45526500D01*
X82733619Y-45534684D01*
X82733618Y-45534686D01*
X82724394Y-45604753D01*
X82715639Y-45671254D01*
X73544599Y-45671254D01*
X73589727Y-45658951D01*
X73598391Y-45656589D01*
X73715439Y-45584721D01*
X73768138Y-45526500D01*
X73801584Y-45489550D01*
X73801585Y-45489549D01*
X73807612Y-45482890D01*
X73816153Y-45465263D01*
X73863585Y-45367362D01*
X73863585Y-45367361D01*
X73867499Y-45359283D01*
X73890286Y-45223836D01*
X73890431Y-45212000D01*
X73889734Y-45207127D01*
X73872232Y-45084923D01*
X73872232Y-45084921D01*
X73870959Y-45076036D01*
X73814110Y-44951003D01*
X73724453Y-44846951D01*
X73667206Y-44809845D01*
X73620923Y-44756009D01*
X73613651Y-44704000D01*
X92404715Y-44704000D01*
X92405793Y-44712188D01*
X92418650Y-44809845D01*
X92423772Y-44848754D01*
X92479645Y-44983642D01*
X92484672Y-44990193D01*
X92559541Y-45087764D01*
X92568526Y-45099474D01*
X92575076Y-45104500D01*
X92575079Y-45104503D01*
X92663061Y-45172014D01*
X92684357Y-45188355D01*
X92819246Y-45244228D01*
X92964000Y-45263285D01*
X92972188Y-45262207D01*
X93100566Y-45245306D01*
X93108754Y-45244228D01*
X93243643Y-45188355D01*
X93264939Y-45172014D01*
X93352921Y-45104503D01*
X93352924Y-45104500D01*
X93359474Y-45099474D01*
X93368460Y-45087764D01*
X93443328Y-44990193D01*
X93448355Y-44983642D01*
X93504228Y-44848754D01*
X93509351Y-44809845D01*
X93522207Y-44712188D01*
X93523285Y-44704000D01*
X93514937Y-44640589D01*
X93505306Y-44567432D01*
X93505305Y-44567430D01*
X93504228Y-44559246D01*
X93465973Y-44466890D01*
X93451515Y-44431986D01*
X93451514Y-44431984D01*
X93448355Y-44424358D01*
X93385001Y-44341793D01*
X93364501Y-44315077D01*
X93364500Y-44315076D01*
X93359474Y-44308526D01*
X93352924Y-44303500D01*
X93352921Y-44303497D01*
X93250196Y-44224673D01*
X93250194Y-44224672D01*
X93243643Y-44219645D01*
X93108754Y-44163772D01*
X92964000Y-44144715D01*
X92955812Y-44145793D01*
X92827432Y-44162694D01*
X92827430Y-44162695D01*
X92819246Y-44163772D01*
X92780933Y-44179642D01*
X92691986Y-44216485D01*
X92691984Y-44216486D01*
X92684358Y-44219645D01*
X92568526Y-44308526D01*
X92479645Y-44424358D01*
X92476486Y-44431984D01*
X92476485Y-44431986D01*
X92462027Y-44466890D01*
X92423772Y-44559246D01*
X92422695Y-44567430D01*
X92422694Y-44567432D01*
X92413063Y-44640589D01*
X92404715Y-44704000D01*
X73613651Y-44704000D01*
X73611092Y-44685696D01*
X73640836Y-44621231D01*
X73669809Y-44596739D01*
X73707789Y-44573419D01*
X73707793Y-44573416D01*
X73715439Y-44568721D01*
X73721463Y-44562066D01*
X73801584Y-44473550D01*
X73801585Y-44473549D01*
X73807612Y-44466890D01*
X73820008Y-44441306D01*
X73863585Y-44351362D01*
X73863585Y-44351361D01*
X73867499Y-44343283D01*
X73890286Y-44207836D01*
X73890431Y-44196000D01*
X73889584Y-44190082D01*
X73872232Y-44068923D01*
X73872232Y-44068921D01*
X73870959Y-44060036D01*
X73814110Y-43935003D01*
X73724453Y-43830951D01*
X73609196Y-43756244D01*
X73477603Y-43716890D01*
X73468627Y-43716835D01*
X73468626Y-43716835D01*
X73411080Y-43716484D01*
X73340255Y-43716051D01*
X73208192Y-43753795D01*
X73200605Y-43758582D01*
X73200603Y-43758583D01*
X73181136Y-43770866D01*
X73092031Y-43827087D01*
X73086088Y-43833816D01*
X73054898Y-43869132D01*
X73001109Y-43930036D01*
X72997295Y-43938159D01*
X72997294Y-43938161D01*
X72975997Y-43983522D01*
X72942736Y-44054366D01*
X72934182Y-44109304D01*
X72922986Y-44181209D01*
X72922986Y-44181213D01*
X72921605Y-44190082D01*
X72922769Y-44198984D01*
X72922769Y-44198987D01*
X72926128Y-44224672D01*
X72939414Y-44326273D01*
X72953680Y-44358694D01*
X72988809Y-44438530D01*
X72994732Y-44451992D01*
X73083111Y-44557132D01*
X73090588Y-44562109D01*
X73146171Y-44599108D01*
X73191794Y-44653505D01*
X73200765Y-44723932D01*
X73170236Y-44788030D01*
X73143588Y-44810556D01*
X73099625Y-44838295D01*
X73099622Y-44838297D01*
X73092031Y-44843087D01*
X73086088Y-44849816D01*
X73035977Y-44906556D01*
X73001109Y-44946036D01*
X72997295Y-44954159D01*
X72997294Y-44954161D01*
X72969136Y-45014136D01*
X72942736Y-45070366D01*
X72936091Y-45113047D01*
X72922986Y-45197209D01*
X72922986Y-45197213D01*
X72921605Y-45206082D01*
X69339254Y-45206082D01*
X69337761Y-43502082D01*
X80197605Y-43502082D01*
X80198769Y-43510984D01*
X80198769Y-43510987D01*
X80200275Y-43522503D01*
X80215414Y-43638273D01*
X80233866Y-43680207D01*
X80266192Y-43753673D01*
X80270732Y-43763992D01*
X80276510Y-43770865D01*
X80276510Y-43770866D01*
X80353331Y-43862256D01*
X80359111Y-43869132D01*
X80473447Y-43945240D01*
X80604549Y-43986199D01*
X80741876Y-43988716D01*
X80751109Y-43986199D01*
X80865727Y-43954951D01*
X80874391Y-43952589D01*
X80875251Y-43952061D01*
X83335605Y-43952061D01*
X83336769Y-43960963D01*
X83336769Y-43960966D01*
X83340398Y-43988716D01*
X83353414Y-44088252D01*
X83364890Y-44114333D01*
X83400825Y-44196000D01*
X83408732Y-44213971D01*
X83414510Y-44220844D01*
X83414510Y-44220845D01*
X83457541Y-44272037D01*
X83497111Y-44319111D01*
X83611447Y-44395219D01*
X83742549Y-44436178D01*
X83879876Y-44438695D01*
X83889109Y-44436178D01*
X84003727Y-44404930D01*
X84012391Y-44402568D01*
X84129439Y-44330700D01*
X84167254Y-44288923D01*
X84215584Y-44235529D01*
X84215585Y-44235528D01*
X84221612Y-44228869D01*
X84229479Y-44212633D01*
X84277585Y-44113341D01*
X84277585Y-44113340D01*
X84281499Y-44105262D01*
X84304286Y-43969815D01*
X84304431Y-43957979D01*
X84303660Y-43952589D01*
X84286232Y-43830902D01*
X84286232Y-43830900D01*
X84284959Y-43822015D01*
X84235770Y-43713830D01*
X90639659Y-43713830D01*
X90640737Y-43722018D01*
X90655974Y-43837753D01*
X90658716Y-43858584D01*
X90661875Y-43866210D01*
X90710468Y-43983522D01*
X90714589Y-43993472D01*
X90719616Y-44000023D01*
X90793624Y-44096472D01*
X90803470Y-44109304D01*
X90810020Y-44114330D01*
X90810023Y-44114333D01*
X90912748Y-44193157D01*
X90919301Y-44198185D01*
X91054190Y-44254058D01*
X91198944Y-44273115D01*
X91207132Y-44272037D01*
X91335510Y-44255136D01*
X91343698Y-44254058D01*
X91478587Y-44198185D01*
X91485140Y-44193157D01*
X91587865Y-44114333D01*
X91587868Y-44114330D01*
X91594418Y-44109304D01*
X91604265Y-44096472D01*
X91678272Y-44000023D01*
X91683299Y-43993472D01*
X91687421Y-43983522D01*
X91722017Y-43900000D01*
X100440715Y-43900000D01*
X100441793Y-43908188D01*
X100453021Y-43993472D01*
X100459772Y-44044754D01*
X100466102Y-44060036D01*
X100501178Y-44144715D01*
X100515645Y-44179642D01*
X100553418Y-44228869D01*
X100573574Y-44255136D01*
X100604526Y-44295474D01*
X100611076Y-44300500D01*
X100611079Y-44300503D01*
X100692438Y-44362932D01*
X100720357Y-44384355D01*
X100855246Y-44440228D01*
X100863434Y-44441306D01*
X100927623Y-44449756D01*
X101000000Y-44459285D01*
X101008188Y-44458207D01*
X101136566Y-44441306D01*
X101144754Y-44440228D01*
X101279643Y-44384355D01*
X101307562Y-44362932D01*
X101388921Y-44300503D01*
X101388924Y-44300500D01*
X101395474Y-44295474D01*
X101426427Y-44255136D01*
X101446582Y-44228869D01*
X101484355Y-44179642D01*
X101498823Y-44144715D01*
X101533898Y-44060036D01*
X101540228Y-44044754D01*
X101546980Y-43993472D01*
X101558207Y-43908188D01*
X101559285Y-43900000D01*
X101548272Y-43816345D01*
X101541306Y-43763432D01*
X101541305Y-43763430D01*
X101540228Y-43755246D01*
X101517402Y-43700140D01*
X101487515Y-43627986D01*
X101487514Y-43627984D01*
X101484355Y-43620358D01*
X101410903Y-43524633D01*
X101400501Y-43511077D01*
X101400500Y-43511076D01*
X101395474Y-43504526D01*
X101388924Y-43499500D01*
X101388921Y-43499497D01*
X101286196Y-43420673D01*
X101286194Y-43420672D01*
X101279643Y-43415645D01*
X101144754Y-43359772D01*
X101000000Y-43340715D01*
X100991812Y-43341793D01*
X100863432Y-43358694D01*
X100863430Y-43358695D01*
X100855246Y-43359772D01*
X100817923Y-43375232D01*
X100727986Y-43412485D01*
X100727984Y-43412486D01*
X100720358Y-43415645D01*
X100604526Y-43504526D01*
X100515645Y-43620358D01*
X100512486Y-43627984D01*
X100512485Y-43627986D01*
X100482598Y-43700140D01*
X100459772Y-43755246D01*
X100458695Y-43763430D01*
X100458694Y-43763432D01*
X100451728Y-43816345D01*
X100440715Y-43900000D01*
X91722017Y-43900000D01*
X91736013Y-43866210D01*
X91739172Y-43858584D01*
X91741915Y-43837753D01*
X91757151Y-43722018D01*
X91758229Y-43713830D01*
X91751585Y-43663362D01*
X91740250Y-43577262D01*
X91740249Y-43577260D01*
X91739172Y-43569076D01*
X91703741Y-43483539D01*
X91686459Y-43441816D01*
X91686458Y-43441814D01*
X91683299Y-43434188D01*
X91626198Y-43359772D01*
X91599445Y-43324907D01*
X91599444Y-43324906D01*
X91594418Y-43318356D01*
X91587868Y-43313330D01*
X91587865Y-43313327D01*
X91485140Y-43234503D01*
X91485138Y-43234502D01*
X91478587Y-43229475D01*
X91435252Y-43211525D01*
X97613583Y-43211525D01*
X97632640Y-43356279D01*
X97635799Y-43363905D01*
X97684485Y-43481442D01*
X97688513Y-43491167D01*
X97711069Y-43520562D01*
X97763634Y-43589066D01*
X97777394Y-43606999D01*
X97783944Y-43612025D01*
X97783947Y-43612028D01*
X97879420Y-43685287D01*
X97893225Y-43695880D01*
X98028114Y-43751753D01*
X98036302Y-43752831D01*
X98062227Y-43756244D01*
X98172868Y-43770810D01*
X98181056Y-43769732D01*
X98309434Y-43752831D01*
X98317622Y-43751753D01*
X98452511Y-43695880D01*
X98466316Y-43685287D01*
X98561789Y-43612028D01*
X98561792Y-43612025D01*
X98568342Y-43606999D01*
X98582103Y-43589066D01*
X98634667Y-43520562D01*
X98657223Y-43491167D01*
X98661252Y-43481442D01*
X98709937Y-43363905D01*
X98713096Y-43356279D01*
X98732153Y-43211525D01*
X98727160Y-43173602D01*
X98714174Y-43074957D01*
X98714173Y-43074955D01*
X98713096Y-43066771D01*
X98676013Y-42977246D01*
X98660383Y-42939511D01*
X98660382Y-42939509D01*
X98657223Y-42931883D01*
X98568342Y-42816051D01*
X98561792Y-42811025D01*
X98561789Y-42811022D01*
X98459064Y-42732198D01*
X98459062Y-42732197D01*
X98452511Y-42727170D01*
X98317622Y-42671297D01*
X98172868Y-42652240D01*
X98164680Y-42653318D01*
X98036300Y-42670219D01*
X98036298Y-42670220D01*
X98028114Y-42671297D01*
X97980298Y-42691103D01*
X97900854Y-42724010D01*
X97900852Y-42724011D01*
X97893226Y-42727170D01*
X97777394Y-42816051D01*
X97688513Y-42931883D01*
X97685354Y-42939509D01*
X97685353Y-42939511D01*
X97669723Y-42977246D01*
X97632640Y-43066771D01*
X97631563Y-43074955D01*
X97631562Y-43074957D01*
X97618576Y-43173602D01*
X97613583Y-43211525D01*
X91435252Y-43211525D01*
X91343698Y-43173602D01*
X91198944Y-43154545D01*
X91190756Y-43155623D01*
X91062376Y-43172524D01*
X91062374Y-43172525D01*
X91054190Y-43173602D01*
X91006374Y-43193408D01*
X90926930Y-43226315D01*
X90926928Y-43226316D01*
X90919302Y-43229475D01*
X90803470Y-43318356D01*
X90714589Y-43434188D01*
X90711430Y-43441814D01*
X90711429Y-43441816D01*
X90694147Y-43483539D01*
X90658716Y-43569076D01*
X90657639Y-43577260D01*
X90657638Y-43577262D01*
X90646303Y-43663362D01*
X90639659Y-43713830D01*
X84235770Y-43713830D01*
X84228110Y-43696982D01*
X84138453Y-43592930D01*
X84023196Y-43518223D01*
X83891603Y-43478869D01*
X83882627Y-43478814D01*
X83882626Y-43478814D01*
X83825080Y-43478463D01*
X83754255Y-43478030D01*
X83622192Y-43515774D01*
X83614605Y-43520561D01*
X83614603Y-43520562D01*
X83608151Y-43524633D01*
X83506031Y-43589066D01*
X83500088Y-43595795D01*
X83484180Y-43613807D01*
X83415109Y-43692015D01*
X83411295Y-43700138D01*
X83411294Y-43700140D01*
X83389002Y-43747620D01*
X83356736Y-43816345D01*
X83349588Y-43862256D01*
X83336986Y-43943188D01*
X83336986Y-43943192D01*
X83335605Y-43952061D01*
X80875251Y-43952061D01*
X80991439Y-43880721D01*
X81008153Y-43862256D01*
X81077584Y-43785550D01*
X81077585Y-43785549D01*
X81083612Y-43778890D01*
X81091102Y-43763432D01*
X81139585Y-43663362D01*
X81139585Y-43663361D01*
X81143499Y-43655283D01*
X81166286Y-43519836D01*
X81166431Y-43508000D01*
X81165584Y-43502082D01*
X81148232Y-43380923D01*
X81148232Y-43380921D01*
X81146959Y-43372036D01*
X81090110Y-43247003D01*
X81000453Y-43142951D01*
X80968130Y-43122000D01*
X81880715Y-43122000D01*
X81881793Y-43130188D01*
X81897588Y-43250161D01*
X81899772Y-43266754D01*
X81902931Y-43274380D01*
X81944706Y-43375232D01*
X81955645Y-43401642D01*
X81986472Y-43441816D01*
X82034591Y-43504526D01*
X82044526Y-43517474D01*
X82051076Y-43522500D01*
X82051079Y-43522503D01*
X82153804Y-43601327D01*
X82160357Y-43606355D01*
X82295246Y-43662228D01*
X82303434Y-43663306D01*
X82367623Y-43671757D01*
X82440000Y-43681285D01*
X82448188Y-43680207D01*
X82576566Y-43663306D01*
X82584754Y-43662228D01*
X82719643Y-43606355D01*
X82726196Y-43601327D01*
X82828921Y-43522503D01*
X82828924Y-43522500D01*
X82835474Y-43517474D01*
X82845410Y-43504526D01*
X82893528Y-43441816D01*
X82924355Y-43401642D01*
X82935295Y-43375232D01*
X82977069Y-43274380D01*
X82980228Y-43266754D01*
X82982413Y-43250161D01*
X82998207Y-43130188D01*
X82999285Y-43122000D01*
X82991886Y-43065795D01*
X82981306Y-42985432D01*
X82981305Y-42985430D01*
X82980228Y-42977246D01*
X82924355Y-42842358D01*
X82845749Y-42739917D01*
X82840501Y-42733077D01*
X82840500Y-42733076D01*
X82835474Y-42726526D01*
X82828924Y-42721500D01*
X82828921Y-42721497D01*
X82726196Y-42642673D01*
X82726194Y-42642672D01*
X82719643Y-42637645D01*
X82584754Y-42581772D01*
X82552685Y-42577550D01*
X82448188Y-42563793D01*
X82440000Y-42562715D01*
X82431812Y-42563793D01*
X82303432Y-42580694D01*
X82303430Y-42580695D01*
X82295246Y-42581772D01*
X82247430Y-42601578D01*
X82167986Y-42634485D01*
X82167984Y-42634486D01*
X82160358Y-42637645D01*
X82044526Y-42726526D01*
X81955645Y-42842358D01*
X81899772Y-42977246D01*
X81898695Y-42985430D01*
X81898694Y-42985432D01*
X81888114Y-43065795D01*
X81880715Y-43122000D01*
X80968130Y-43122000D01*
X80885196Y-43068244D01*
X80753603Y-43028890D01*
X80744627Y-43028835D01*
X80744626Y-43028835D01*
X80687080Y-43028484D01*
X80616255Y-43028051D01*
X80484192Y-43065795D01*
X80476605Y-43070582D01*
X80476603Y-43070583D01*
X80469671Y-43074957D01*
X80368031Y-43139087D01*
X80277109Y-43242036D01*
X80218736Y-43366366D01*
X80214431Y-43394014D01*
X80198986Y-43493209D01*
X80198986Y-43493213D01*
X80197605Y-43502082D01*
X69337761Y-43502082D01*
X69336703Y-42294082D01*
X84015605Y-42294082D01*
X84016769Y-42302984D01*
X84016769Y-42302987D01*
X84018554Y-42316633D01*
X84033414Y-42430273D01*
X84088732Y-42555992D01*
X84094510Y-42562865D01*
X84094510Y-42562866D01*
X84170543Y-42653318D01*
X84177111Y-42661132D01*
X84197129Y-42674457D01*
X84275352Y-42726526D01*
X84291447Y-42737240D01*
X84422549Y-42778199D01*
X84559876Y-42780716D01*
X84569109Y-42778199D01*
X84683727Y-42746951D01*
X84692391Y-42744589D01*
X84809439Y-42672721D01*
X84821601Y-42659285D01*
X84895584Y-42577550D01*
X84895585Y-42577549D01*
X84901612Y-42570890D01*
X84951362Y-42468207D01*
X84957585Y-42455362D01*
X84957585Y-42455361D01*
X84961499Y-42447283D01*
X84984286Y-42311836D01*
X84984431Y-42300000D01*
X84983584Y-42294082D01*
X84966232Y-42172923D01*
X84966232Y-42172921D01*
X84964959Y-42164036D01*
X84908110Y-42039003D01*
X84818453Y-41934951D01*
X84779959Y-41910000D01*
X89864715Y-41910000D01*
X89865793Y-41918188D01*
X89880803Y-42032200D01*
X89883772Y-42054754D01*
X89886931Y-42062380D01*
X89932720Y-42172923D01*
X89939645Y-42189642D01*
X89944672Y-42196193D01*
X90019785Y-42294082D01*
X90028526Y-42305474D01*
X90035076Y-42310500D01*
X90035079Y-42310503D01*
X90133720Y-42386193D01*
X90144357Y-42394355D01*
X90279246Y-42450228D01*
X90424000Y-42469285D01*
X90432188Y-42468207D01*
X90560566Y-42451306D01*
X90568754Y-42450228D01*
X90703643Y-42394355D01*
X90714280Y-42386193D01*
X90812921Y-42310503D01*
X90812924Y-42310500D01*
X90819474Y-42305474D01*
X90828216Y-42294082D01*
X90903328Y-42196193D01*
X90908355Y-42189642D01*
X90915281Y-42172923D01*
X90945486Y-42100000D01*
X95740715Y-42100000D01*
X95741793Y-42108188D01*
X95747330Y-42150243D01*
X95759772Y-42244754D01*
X95762931Y-42252380D01*
X95789546Y-42316633D01*
X95815645Y-42379642D01*
X95854496Y-42430273D01*
X95869808Y-42450228D01*
X95904526Y-42495474D01*
X95911076Y-42500500D01*
X95911079Y-42500503D01*
X96013804Y-42579327D01*
X96020357Y-42584355D01*
X96155246Y-42640228D01*
X96300000Y-42659285D01*
X96308188Y-42658207D01*
X96436566Y-42641306D01*
X96444754Y-42640228D01*
X96579643Y-42584355D01*
X96586196Y-42579327D01*
X96688921Y-42500503D01*
X96688924Y-42500500D01*
X96695474Y-42495474D01*
X96730193Y-42450228D01*
X96745504Y-42430273D01*
X96784355Y-42379642D01*
X96810455Y-42316633D01*
X96837069Y-42252380D01*
X96840228Y-42244754D01*
X96852671Y-42150243D01*
X96858207Y-42108188D01*
X96859285Y-42100000D01*
X96852251Y-42046568D01*
X96841306Y-41963432D01*
X96841305Y-41963430D01*
X96840228Y-41955246D01*
X96802898Y-41865125D01*
X96787515Y-41827986D01*
X96787514Y-41827984D01*
X96784355Y-41820358D01*
X96695474Y-41704526D01*
X96688924Y-41699500D01*
X96688921Y-41699497D01*
X96586196Y-41620673D01*
X96586194Y-41620672D01*
X96579643Y-41615645D01*
X96444754Y-41559772D01*
X96300000Y-41540715D01*
X96291812Y-41541793D01*
X96163432Y-41558694D01*
X96163430Y-41558695D01*
X96155246Y-41559772D01*
X96107430Y-41579578D01*
X96027986Y-41612485D01*
X96027984Y-41612486D01*
X96020358Y-41615645D01*
X95904526Y-41704526D01*
X95815645Y-41820358D01*
X95812486Y-41827984D01*
X95812485Y-41827986D01*
X95797102Y-41865125D01*
X95759772Y-41955246D01*
X95758695Y-41963430D01*
X95758694Y-41963432D01*
X95747749Y-42046568D01*
X95740715Y-42100000D01*
X90945486Y-42100000D01*
X90961069Y-42062380D01*
X90964228Y-42054754D01*
X90967198Y-42032200D01*
X90982207Y-41918188D01*
X90983285Y-41910000D01*
X90971554Y-41820890D01*
X90965306Y-41773432D01*
X90965305Y-41773430D01*
X90964228Y-41765246D01*
X90919392Y-41657003D01*
X90911515Y-41637986D01*
X90911514Y-41637984D01*
X90908355Y-41630358D01*
X90856616Y-41562931D01*
X90824501Y-41521077D01*
X90824500Y-41521076D01*
X90819474Y-41514526D01*
X90812924Y-41509500D01*
X90812921Y-41509497D01*
X90710196Y-41430673D01*
X90710194Y-41430672D01*
X90703643Y-41425645D01*
X90568754Y-41369772D01*
X90424000Y-41350715D01*
X90415812Y-41351793D01*
X90287432Y-41368694D01*
X90287430Y-41368695D01*
X90279246Y-41369772D01*
X90248260Y-41382607D01*
X90151986Y-41422485D01*
X90151984Y-41422486D01*
X90144358Y-41425645D01*
X90028526Y-41514526D01*
X90023503Y-41521072D01*
X90020072Y-41525544D01*
X89939645Y-41630358D01*
X89936486Y-41637984D01*
X89936485Y-41637986D01*
X89928608Y-41657003D01*
X89883772Y-41765246D01*
X89882695Y-41773430D01*
X89882694Y-41773432D01*
X89876446Y-41820890D01*
X89864715Y-41910000D01*
X84779959Y-41910000D01*
X84703196Y-41860244D01*
X84571603Y-41820890D01*
X84562627Y-41820835D01*
X84562626Y-41820835D01*
X84505080Y-41820484D01*
X84434255Y-41820051D01*
X84302192Y-41857795D01*
X84294605Y-41862582D01*
X84294603Y-41862583D01*
X84267470Y-41879703D01*
X84186031Y-41931087D01*
X84180088Y-41937816D01*
X84127877Y-41996934D01*
X84095109Y-42034036D01*
X84036736Y-42158366D01*
X84027027Y-42220724D01*
X84016986Y-42285209D01*
X84016986Y-42285213D01*
X84015605Y-42294082D01*
X69336703Y-42294082D01*
X69336018Y-41512653D01*
X78704993Y-41512653D01*
X78706157Y-41521555D01*
X78706157Y-41521558D01*
X78711568Y-41562932D01*
X78722802Y-41648844D01*
X78778120Y-41774563D01*
X78783898Y-41781436D01*
X78783898Y-41781437D01*
X78847981Y-41857673D01*
X78866499Y-41879703D01*
X78873976Y-41884680D01*
X78936497Y-41926297D01*
X78980835Y-41955811D01*
X79111937Y-41996770D01*
X79249264Y-41999287D01*
X79258497Y-41996770D01*
X79373115Y-41965522D01*
X79381779Y-41963160D01*
X79498827Y-41891292D01*
X79524813Y-41862583D01*
X79584972Y-41796121D01*
X79584973Y-41796120D01*
X79591000Y-41789461D01*
X79650887Y-41665854D01*
X79673674Y-41530407D01*
X79673819Y-41518571D01*
X79672972Y-41512653D01*
X79655620Y-41391494D01*
X79655620Y-41391492D01*
X79654347Y-41382607D01*
X79597498Y-41257574D01*
X79507841Y-41153522D01*
X79392584Y-41078815D01*
X79260991Y-41039461D01*
X79252015Y-41039406D01*
X79252014Y-41039406D01*
X79194468Y-41039055D01*
X79123643Y-41038622D01*
X78991580Y-41076366D01*
X78983993Y-41081153D01*
X78983991Y-41081154D01*
X78922238Y-41120117D01*
X78875419Y-41149658D01*
X78784497Y-41252607D01*
X78726124Y-41376937D01*
X78717757Y-41430673D01*
X78706374Y-41503780D01*
X78706374Y-41503784D01*
X78704993Y-41512653D01*
X69336018Y-41512653D01*
X69335131Y-40500000D01*
X109640715Y-40500000D01*
X109659772Y-40644754D01*
X109715645Y-40779642D01*
X109804526Y-40895474D01*
X109811076Y-40900500D01*
X109811079Y-40900503D01*
X109913804Y-40979327D01*
X109920357Y-40984355D01*
X110055246Y-41040228D01*
X110200000Y-41059285D01*
X110208188Y-41058207D01*
X110336566Y-41041306D01*
X110344754Y-41040228D01*
X110479643Y-40984355D01*
X110486196Y-40979327D01*
X110588921Y-40900503D01*
X110588924Y-40900500D01*
X110595474Y-40895474D01*
X110684355Y-40779642D01*
X110740228Y-40644754D01*
X110759285Y-40500000D01*
X110740228Y-40355246D01*
X110684355Y-40220358D01*
X110595474Y-40104526D01*
X110588924Y-40099500D01*
X110588921Y-40099497D01*
X110486196Y-40020673D01*
X110486194Y-40020672D01*
X110479643Y-40015645D01*
X110344754Y-39959772D01*
X110200000Y-39940715D01*
X110191812Y-39941793D01*
X110063432Y-39958694D01*
X110063430Y-39958695D01*
X110055246Y-39959772D01*
X110007430Y-39979578D01*
X109927986Y-40012485D01*
X109927984Y-40012486D01*
X109920358Y-40015645D01*
X109804526Y-40104526D01*
X109715645Y-40220358D01*
X109659772Y-40355246D01*
X109640715Y-40500000D01*
X69335131Y-40500000D01*
X69334041Y-39255582D01*
X82115605Y-39255582D01*
X82116769Y-39264484D01*
X82116769Y-39264487D01*
X82118554Y-39278133D01*
X82133414Y-39391773D01*
X82188732Y-39517492D01*
X82277111Y-39622632D01*
X82391447Y-39698740D01*
X82522549Y-39739699D01*
X82659876Y-39742216D01*
X82669109Y-39739699D01*
X82783727Y-39708451D01*
X82792391Y-39706089D01*
X82909439Y-39634221D01*
X83001612Y-39532390D01*
X83061499Y-39408783D01*
X83084286Y-39273336D01*
X83084431Y-39261500D01*
X83083584Y-39255582D01*
X83066232Y-39134423D01*
X83066232Y-39134421D01*
X83064959Y-39125536D01*
X83008110Y-39000503D01*
X82918453Y-38896451D01*
X82865302Y-38862000D01*
X86816715Y-38862000D01*
X86817793Y-38870188D01*
X86821251Y-38896451D01*
X86835772Y-39006754D01*
X86838931Y-39014380D01*
X86884974Y-39125536D01*
X86891645Y-39141642D01*
X86980526Y-39257474D01*
X86987076Y-39262500D01*
X86987079Y-39262503D01*
X87089804Y-39341327D01*
X87096357Y-39346355D01*
X87231246Y-39402228D01*
X87376000Y-39421285D01*
X87384188Y-39420207D01*
X87512566Y-39403306D01*
X87520754Y-39402228D01*
X87655643Y-39346355D01*
X87662196Y-39341327D01*
X87764921Y-39262503D01*
X87764924Y-39262500D01*
X87771474Y-39257474D01*
X87860355Y-39141642D01*
X87867027Y-39125536D01*
X87913069Y-39014380D01*
X87916228Y-39006754D01*
X87930750Y-38896451D01*
X87934207Y-38870188D01*
X87935285Y-38862000D01*
X95960715Y-38862000D01*
X95961793Y-38870188D01*
X95965251Y-38896451D01*
X95979772Y-39006754D01*
X95982931Y-39014380D01*
X96028974Y-39125536D01*
X96035645Y-39141642D01*
X96124526Y-39257474D01*
X96131076Y-39262500D01*
X96131079Y-39262503D01*
X96233804Y-39341327D01*
X96240357Y-39346355D01*
X96375246Y-39402228D01*
X96520000Y-39421285D01*
X96528188Y-39420207D01*
X96656566Y-39403306D01*
X96664754Y-39402228D01*
X96799643Y-39346355D01*
X96806196Y-39341327D01*
X96908921Y-39262503D01*
X96908924Y-39262500D01*
X96915474Y-39257474D01*
X97004355Y-39141642D01*
X97011027Y-39125536D01*
X97057069Y-39014380D01*
X97060228Y-39006754D01*
X97074750Y-38896451D01*
X97078207Y-38870188D01*
X97079285Y-38862000D01*
X97060228Y-38717246D01*
X97004355Y-38582358D01*
X96959914Y-38524442D01*
X96920501Y-38473077D01*
X96920500Y-38473076D01*
X96915474Y-38466526D01*
X96908924Y-38461500D01*
X96908921Y-38461497D01*
X96806196Y-38382673D01*
X96806194Y-38382672D01*
X96799643Y-38377645D01*
X96664754Y-38321772D01*
X96520000Y-38302715D01*
X96511812Y-38303793D01*
X96383432Y-38320694D01*
X96383430Y-38320695D01*
X96375246Y-38321772D01*
X96327430Y-38341578D01*
X96247986Y-38374485D01*
X96247984Y-38374486D01*
X96240358Y-38377645D01*
X96124526Y-38466526D01*
X96035645Y-38582358D01*
X95979772Y-38717246D01*
X95960715Y-38862000D01*
X87935285Y-38862000D01*
X87916228Y-38717246D01*
X87860355Y-38582358D01*
X87815914Y-38524442D01*
X87776501Y-38473077D01*
X87776500Y-38473076D01*
X87771474Y-38466526D01*
X87764924Y-38461500D01*
X87764921Y-38461497D01*
X87662196Y-38382673D01*
X87662194Y-38382672D01*
X87655643Y-38377645D01*
X87520754Y-38321772D01*
X87376000Y-38302715D01*
X87367812Y-38303793D01*
X87239432Y-38320694D01*
X87239430Y-38320695D01*
X87231246Y-38321772D01*
X87183430Y-38341578D01*
X87103986Y-38374485D01*
X87103984Y-38374486D01*
X87096358Y-38377645D01*
X86980526Y-38466526D01*
X86891645Y-38582358D01*
X86835772Y-38717246D01*
X86816715Y-38862000D01*
X82865302Y-38862000D01*
X82803196Y-38821744D01*
X82671603Y-38782390D01*
X82662627Y-38782335D01*
X82662626Y-38782335D01*
X82605080Y-38781984D01*
X82534255Y-38781551D01*
X82402192Y-38819295D01*
X82394605Y-38824082D01*
X82394603Y-38824083D01*
X82347486Y-38853812D01*
X82286031Y-38892587D01*
X82195109Y-38995536D01*
X82191295Y-39003659D01*
X82191294Y-39003661D01*
X82163136Y-39063636D01*
X82136736Y-39119866D01*
X82127027Y-39182224D01*
X82116986Y-39246709D01*
X82116986Y-39246713D01*
X82115605Y-39255582D01*
X69334041Y-39255582D01*
X69332831Y-37874500D01*
X93407215Y-37874500D01*
X93426272Y-38019254D01*
X93482145Y-38154142D01*
X93487172Y-38160693D01*
X93557526Y-38252380D01*
X93571026Y-38269974D01*
X93577576Y-38275000D01*
X93577579Y-38275003D01*
X93680304Y-38353827D01*
X93686857Y-38358855D01*
X93821746Y-38414728D01*
X93966500Y-38433785D01*
X93974688Y-38432707D01*
X94103066Y-38415806D01*
X94111254Y-38414728D01*
X94246143Y-38358855D01*
X94252696Y-38353827D01*
X94355421Y-38275003D01*
X94355424Y-38275000D01*
X94361974Y-38269974D01*
X94375475Y-38252380D01*
X94445828Y-38160693D01*
X94450855Y-38154142D01*
X94473282Y-38100000D01*
X107940715Y-38100000D01*
X107959772Y-38244754D01*
X107962931Y-38252380D01*
X108008344Y-38362015D01*
X108015645Y-38379642D01*
X108043395Y-38415806D01*
X108078455Y-38461497D01*
X108104526Y-38495474D01*
X108111076Y-38500500D01*
X108111079Y-38500503D01*
X108209217Y-38575807D01*
X108220357Y-38584355D01*
X108355246Y-38640228D01*
X108500000Y-38659285D01*
X108508188Y-38658207D01*
X108636566Y-38641306D01*
X108644754Y-38640228D01*
X108779643Y-38584355D01*
X108790783Y-38575807D01*
X108888921Y-38500503D01*
X108888924Y-38500500D01*
X108895474Y-38495474D01*
X108921546Y-38461497D01*
X108956605Y-38415806D01*
X108984355Y-38379642D01*
X108991657Y-38362015D01*
X109037069Y-38252380D01*
X109040228Y-38244754D01*
X109059285Y-38100000D01*
X109040228Y-37955246D01*
X108984355Y-37820358D01*
X108926215Y-37744589D01*
X108900501Y-37711077D01*
X108900500Y-37711076D01*
X108895474Y-37704526D01*
X108888924Y-37699500D01*
X108888921Y-37699497D01*
X108786196Y-37620673D01*
X108786194Y-37620672D01*
X108779643Y-37615645D01*
X108644754Y-37559772D01*
X108500000Y-37540715D01*
X108491812Y-37541793D01*
X108363432Y-37558694D01*
X108363430Y-37558695D01*
X108355246Y-37559772D01*
X108328405Y-37570890D01*
X108227986Y-37612485D01*
X108227984Y-37612486D01*
X108220358Y-37615645D01*
X108104526Y-37704526D01*
X108015645Y-37820358D01*
X107959772Y-37955246D01*
X107940715Y-38100000D01*
X94473282Y-38100000D01*
X94506728Y-38019254D01*
X94525785Y-37874500D01*
X94513417Y-37780551D01*
X94507806Y-37737932D01*
X94507805Y-37737930D01*
X94506728Y-37729746D01*
X94503568Y-37722118D01*
X94503567Y-37722113D01*
X94497660Y-37707852D01*
X94490070Y-37637262D01*
X94521849Y-37573775D01*
X94582906Y-37537547D01*
X94630514Y-37534711D01*
X94748145Y-37550197D01*
X94756333Y-37551275D01*
X94764521Y-37550197D01*
X94892899Y-37533296D01*
X94901087Y-37532218D01*
X95035976Y-37476345D01*
X95042529Y-37471317D01*
X95145254Y-37392493D01*
X95145257Y-37392490D01*
X95151807Y-37387464D01*
X95163840Y-37371783D01*
X95196712Y-37328943D01*
X95240688Y-37271632D01*
X95258253Y-37229228D01*
X95293402Y-37144370D01*
X95296561Y-37136744D01*
X95303984Y-37080365D01*
X95314540Y-37000178D01*
X95315618Y-36991990D01*
X95307466Y-36930067D01*
X95297639Y-36855422D01*
X95297638Y-36855420D01*
X95296561Y-36847236D01*
X95276995Y-36800000D01*
X111040715Y-36800000D01*
X111041793Y-36808188D01*
X111057973Y-36931087D01*
X111059772Y-36944754D01*
X111062931Y-36952380D01*
X111100120Y-37042161D01*
X111115645Y-37079642D01*
X111120672Y-37086193D01*
X111165313Y-37144370D01*
X111204526Y-37195474D01*
X111211076Y-37200500D01*
X111211079Y-37200503D01*
X111313804Y-37279327D01*
X111320357Y-37284355D01*
X111455246Y-37340228D01*
X111463434Y-37341306D01*
X111527623Y-37349757D01*
X111600000Y-37359285D01*
X111608188Y-37358207D01*
X111736566Y-37341306D01*
X111744754Y-37340228D01*
X111879643Y-37284355D01*
X111886196Y-37279327D01*
X111988921Y-37200503D01*
X111988924Y-37200500D01*
X111995474Y-37195474D01*
X112034688Y-37144370D01*
X112079328Y-37086193D01*
X112084355Y-37079642D01*
X112099881Y-37042161D01*
X112137069Y-36952380D01*
X112140228Y-36944754D01*
X112142028Y-36931087D01*
X112158207Y-36808188D01*
X112159285Y-36800000D01*
X112151985Y-36744551D01*
X112141306Y-36663432D01*
X112141305Y-36663430D01*
X112140228Y-36655246D01*
X112084355Y-36520358D01*
X112003348Y-36414787D01*
X112000501Y-36411077D01*
X112000500Y-36411076D01*
X111995474Y-36404526D01*
X111988924Y-36399500D01*
X111988921Y-36399497D01*
X111886196Y-36320673D01*
X111886194Y-36320672D01*
X111879643Y-36315645D01*
X111744754Y-36259772D01*
X111716369Y-36256035D01*
X111608188Y-36241793D01*
X111600000Y-36240715D01*
X111591812Y-36241793D01*
X111463432Y-36258694D01*
X111463430Y-36258695D01*
X111455246Y-36259772D01*
X111407430Y-36279578D01*
X111327986Y-36312485D01*
X111327984Y-36312486D01*
X111320358Y-36315645D01*
X111204526Y-36404526D01*
X111199503Y-36411072D01*
X111196652Y-36414787D01*
X111115645Y-36520358D01*
X111059772Y-36655246D01*
X111058695Y-36663430D01*
X111058694Y-36663432D01*
X111048015Y-36744551D01*
X111040715Y-36800000D01*
X95276995Y-36800000D01*
X95268640Y-36779829D01*
X95243848Y-36719976D01*
X95243847Y-36719974D01*
X95240688Y-36712348D01*
X95151807Y-36596516D01*
X95153368Y-36595318D01*
X95124492Y-36542438D01*
X95129557Y-36471623D01*
X95172104Y-36414787D01*
X95186046Y-36405721D01*
X95188180Y-36404526D01*
X95360277Y-36308147D01*
X95418442Y-36259772D01*
X95511914Y-36182031D01*
X95516346Y-36178345D01*
X95629446Y-36042358D01*
X95642454Y-36026718D01*
X95642456Y-36026715D01*
X95646148Y-36022276D01*
X95745335Y-35845165D01*
X95747191Y-35839698D01*
X95747193Y-35839693D01*
X95808729Y-35658414D01*
X95808730Y-35658409D01*
X95810585Y-35652945D01*
X95811413Y-35647236D01*
X95811414Y-35647231D01*
X95839180Y-35455727D01*
X95839713Y-35452053D01*
X95841233Y-35394000D01*
X95838565Y-35364964D01*
X96163149Y-35364964D01*
X96176425Y-35567522D01*
X96177846Y-35573118D01*
X96177847Y-35573123D01*
X96198120Y-35652945D01*
X96226393Y-35764269D01*
X96228810Y-35769512D01*
X96266011Y-35850208D01*
X96311378Y-35948616D01*
X96428534Y-36114389D01*
X96573939Y-36256035D01*
X96578743Y-36259245D01*
X96584261Y-36262932D01*
X96742721Y-36368812D01*
X96748024Y-36371090D01*
X96748027Y-36371092D01*
X96923922Y-36446662D01*
X96929229Y-36448942D01*
X96967859Y-36457683D01*
X97121580Y-36492467D01*
X97121585Y-36492468D01*
X97127217Y-36493742D01*
X97132988Y-36493969D01*
X97132990Y-36493969D01*
X97192757Y-36496317D01*
X97330054Y-36501712D01*
X97430500Y-36487148D01*
X97525232Y-36473413D01*
X97525237Y-36473412D01*
X97530946Y-36472584D01*
X97536410Y-36470729D01*
X97536415Y-36470728D01*
X97717694Y-36409192D01*
X97717699Y-36409190D01*
X97723166Y-36407334D01*
X97737150Y-36399503D01*
X97860920Y-36330188D01*
X97900277Y-36308147D01*
X97958442Y-36259772D01*
X98051914Y-36182031D01*
X98056346Y-36178345D01*
X98169446Y-36042358D01*
X98182454Y-36026718D01*
X98182456Y-36026715D01*
X98186148Y-36022276D01*
X98285335Y-35845165D01*
X98287191Y-35839698D01*
X98287193Y-35839693D01*
X98348729Y-35658414D01*
X98348730Y-35658409D01*
X98350585Y-35652945D01*
X98351413Y-35647236D01*
X98351414Y-35647231D01*
X98379180Y-35455727D01*
X98379713Y-35452053D01*
X98381233Y-35394000D01*
X98378565Y-35364964D01*
X98703149Y-35364964D01*
X98716425Y-35567522D01*
X98717846Y-35573118D01*
X98717847Y-35573123D01*
X98738120Y-35652945D01*
X98766393Y-35764269D01*
X98768810Y-35769512D01*
X98806011Y-35850208D01*
X98851378Y-35948616D01*
X98968534Y-36114389D01*
X99113939Y-36256035D01*
X99118743Y-36259245D01*
X99124261Y-36262932D01*
X99282721Y-36368812D01*
X99288024Y-36371090D01*
X99288027Y-36371092D01*
X99463922Y-36446662D01*
X99469229Y-36448942D01*
X99507859Y-36457683D01*
X99661580Y-36492467D01*
X99661585Y-36492468D01*
X99667217Y-36493742D01*
X99672988Y-36493969D01*
X99672990Y-36493969D01*
X99732757Y-36496317D01*
X99870054Y-36501712D01*
X99970500Y-36487148D01*
X100065232Y-36473413D01*
X100065237Y-36473412D01*
X100070946Y-36472584D01*
X100076410Y-36470729D01*
X100076415Y-36470728D01*
X100257694Y-36409192D01*
X100257699Y-36409190D01*
X100263166Y-36407334D01*
X100277150Y-36399503D01*
X100400920Y-36330188D01*
X100440277Y-36308147D01*
X100498442Y-36259772D01*
X100591914Y-36182031D01*
X100596346Y-36178345D01*
X100709446Y-36042358D01*
X100722454Y-36026718D01*
X100722456Y-36026715D01*
X100726148Y-36022276D01*
X100825335Y-35845165D01*
X100827191Y-35839698D01*
X100827193Y-35839693D01*
X100888729Y-35658414D01*
X100888730Y-35658409D01*
X100890585Y-35652945D01*
X100891413Y-35647236D01*
X100891414Y-35647231D01*
X100919180Y-35455727D01*
X100919713Y-35452053D01*
X100921233Y-35394000D01*
X100918565Y-35364964D01*
X101243149Y-35364964D01*
X101256425Y-35567522D01*
X101257846Y-35573118D01*
X101257847Y-35573123D01*
X101278120Y-35652945D01*
X101306393Y-35764269D01*
X101308810Y-35769512D01*
X101346011Y-35850208D01*
X101391378Y-35948616D01*
X101508534Y-36114389D01*
X101653939Y-36256035D01*
X101658743Y-36259245D01*
X101664261Y-36262932D01*
X101822721Y-36368812D01*
X101828024Y-36371090D01*
X101828027Y-36371092D01*
X102003922Y-36446662D01*
X102009229Y-36448942D01*
X102047859Y-36457683D01*
X102201580Y-36492467D01*
X102201585Y-36492468D01*
X102207217Y-36493742D01*
X102212988Y-36493969D01*
X102212990Y-36493969D01*
X102272757Y-36496317D01*
X102410054Y-36501712D01*
X102510500Y-36487148D01*
X102605232Y-36473413D01*
X102605237Y-36473412D01*
X102610946Y-36472584D01*
X102616410Y-36470729D01*
X102616415Y-36470728D01*
X102797694Y-36409192D01*
X102797699Y-36409190D01*
X102803166Y-36407334D01*
X102817150Y-36399503D01*
X102940920Y-36330188D01*
X102980277Y-36308147D01*
X103038442Y-36259772D01*
X103131914Y-36182031D01*
X103136346Y-36178345D01*
X103249446Y-36042358D01*
X103262454Y-36026718D01*
X103262456Y-36026715D01*
X103266148Y-36022276D01*
X103365335Y-35845165D01*
X103367191Y-35839698D01*
X103367193Y-35839693D01*
X103428729Y-35658414D01*
X103428730Y-35658409D01*
X103430585Y-35652945D01*
X103431413Y-35647236D01*
X103431414Y-35647231D01*
X103459180Y-35455727D01*
X103459713Y-35452053D01*
X103461233Y-35394000D01*
X103442659Y-35191859D01*
X103441091Y-35186299D01*
X103389126Y-35002046D01*
X103389125Y-35002044D01*
X103387558Y-34996487D01*
X103376979Y-34975033D01*
X103300332Y-34819609D01*
X103297777Y-34814428D01*
X103176321Y-34651779D01*
X103027259Y-34513987D01*
X103022376Y-34510906D01*
X103022372Y-34510903D01*
X102860465Y-34408748D01*
X102855582Y-34405667D01*
X102667040Y-34330446D01*
X102661380Y-34329320D01*
X102661376Y-34329319D01*
X102473614Y-34291971D01*
X102473611Y-34291971D01*
X102467947Y-34290844D01*
X102462172Y-34290768D01*
X102462168Y-34290768D01*
X102360794Y-34289441D01*
X102264972Y-34288187D01*
X102259275Y-34289166D01*
X102259274Y-34289166D01*
X102070608Y-34321585D01*
X102064911Y-34322564D01*
X101874464Y-34392824D01*
X101700011Y-34496612D01*
X101695671Y-34500418D01*
X101695667Y-34500421D01*
X101675724Y-34517911D01*
X101547393Y-34630455D01*
X101421721Y-34789869D01*
X101419032Y-34794980D01*
X101419030Y-34794983D01*
X101406074Y-34819609D01*
X101327204Y-34969515D01*
X101267008Y-35163378D01*
X101243149Y-35364964D01*
X100918565Y-35364964D01*
X100902659Y-35191859D01*
X100901091Y-35186299D01*
X100849126Y-35002046D01*
X100849125Y-35002044D01*
X100847558Y-34996487D01*
X100836979Y-34975033D01*
X100760332Y-34819609D01*
X100757777Y-34814428D01*
X100636321Y-34651779D01*
X100487259Y-34513987D01*
X100482376Y-34510906D01*
X100482372Y-34510903D01*
X100320465Y-34408748D01*
X100315582Y-34405667D01*
X100127040Y-34330446D01*
X100121380Y-34329320D01*
X100121376Y-34329319D01*
X99933614Y-34291971D01*
X99933611Y-34291971D01*
X99927947Y-34290844D01*
X99922172Y-34290768D01*
X99922168Y-34290768D01*
X99820794Y-34289441D01*
X99724972Y-34288187D01*
X99719275Y-34289166D01*
X99719274Y-34289166D01*
X99530608Y-34321585D01*
X99524911Y-34322564D01*
X99334464Y-34392824D01*
X99160011Y-34496612D01*
X99155671Y-34500418D01*
X99155667Y-34500421D01*
X99135724Y-34517911D01*
X99007393Y-34630455D01*
X98881721Y-34789869D01*
X98879032Y-34794980D01*
X98879030Y-34794983D01*
X98866074Y-34819609D01*
X98787204Y-34969515D01*
X98727008Y-35163378D01*
X98703149Y-35364964D01*
X98378565Y-35364964D01*
X98362659Y-35191859D01*
X98361091Y-35186299D01*
X98309126Y-35002046D01*
X98309125Y-35002044D01*
X98307558Y-34996487D01*
X98296979Y-34975033D01*
X98220332Y-34819609D01*
X98217777Y-34814428D01*
X98096321Y-34651779D01*
X97947259Y-34513987D01*
X97942376Y-34510906D01*
X97942372Y-34510903D01*
X97780465Y-34408748D01*
X97775582Y-34405667D01*
X97587040Y-34330446D01*
X97581380Y-34329320D01*
X97581376Y-34329319D01*
X97393614Y-34291971D01*
X97393611Y-34291971D01*
X97387947Y-34290844D01*
X97382172Y-34290768D01*
X97382168Y-34290768D01*
X97280794Y-34289441D01*
X97184972Y-34288187D01*
X97179275Y-34289166D01*
X97179274Y-34289166D01*
X96990608Y-34321585D01*
X96984911Y-34322564D01*
X96794464Y-34392824D01*
X96620011Y-34496612D01*
X96615671Y-34500418D01*
X96615667Y-34500421D01*
X96595724Y-34517911D01*
X96467393Y-34630455D01*
X96341721Y-34789869D01*
X96339032Y-34794980D01*
X96339030Y-34794983D01*
X96326074Y-34819609D01*
X96247204Y-34969515D01*
X96187008Y-35163378D01*
X96163149Y-35364964D01*
X95838565Y-35364964D01*
X95822659Y-35191859D01*
X95821091Y-35186299D01*
X95769126Y-35002046D01*
X95769125Y-35002044D01*
X95767558Y-34996487D01*
X95756979Y-34975033D01*
X95680332Y-34819609D01*
X95677777Y-34814428D01*
X95556321Y-34651779D01*
X95407259Y-34513987D01*
X95402376Y-34510906D01*
X95402372Y-34510903D01*
X95240465Y-34408748D01*
X95235582Y-34405667D01*
X95047040Y-34330446D01*
X95041380Y-34329320D01*
X95041376Y-34329319D01*
X94853614Y-34291971D01*
X94853611Y-34291971D01*
X94847947Y-34290844D01*
X94842172Y-34290768D01*
X94842168Y-34290768D01*
X94740794Y-34289441D01*
X94644972Y-34288187D01*
X94639275Y-34289166D01*
X94639274Y-34289166D01*
X94450608Y-34321585D01*
X94444911Y-34322564D01*
X94254464Y-34392824D01*
X94080011Y-34496612D01*
X94075671Y-34500418D01*
X94075667Y-34500421D01*
X94055724Y-34517911D01*
X93927393Y-34630455D01*
X93801721Y-34789869D01*
X93799032Y-34794980D01*
X93799030Y-34794983D01*
X93786074Y-34819609D01*
X93707204Y-34969515D01*
X93647008Y-35163378D01*
X93623149Y-35364964D01*
X93636425Y-35567522D01*
X93637846Y-35573118D01*
X93637847Y-35573123D01*
X93658120Y-35652945D01*
X93686393Y-35764269D01*
X93688810Y-35769512D01*
X93726011Y-35850208D01*
X93771378Y-35948616D01*
X93888534Y-36114389D01*
X94033939Y-36256035D01*
X94038743Y-36259245D01*
X94044261Y-36262932D01*
X94202721Y-36368812D01*
X94208020Y-36371089D01*
X94208030Y-36371094D01*
X94304210Y-36412415D01*
X94358903Y-36457683D01*
X94380441Y-36525334D01*
X94361984Y-36593889D01*
X94354435Y-36604887D01*
X94277008Y-36705792D01*
X94277006Y-36705795D01*
X94271978Y-36712348D01*
X94268819Y-36719974D01*
X94268818Y-36719976D01*
X94244026Y-36779829D01*
X94216105Y-36847236D01*
X94215028Y-36855420D01*
X94215027Y-36855422D01*
X94205200Y-36930067D01*
X94197048Y-36991990D01*
X94198126Y-37000178D01*
X94208683Y-37080365D01*
X94216105Y-37136744D01*
X94219264Y-37144370D01*
X94219266Y-37144377D01*
X94225173Y-37158638D01*
X94232763Y-37229228D01*
X94200984Y-37292715D01*
X94139927Y-37328943D01*
X94092319Y-37331779D01*
X93974688Y-37316293D01*
X93966500Y-37315215D01*
X93958312Y-37316293D01*
X93829932Y-37333194D01*
X93829930Y-37333195D01*
X93821746Y-37334272D01*
X93814119Y-37337431D01*
X93814120Y-37337431D01*
X93694486Y-37386985D01*
X93694484Y-37386986D01*
X93686858Y-37390145D01*
X93634562Y-37430273D01*
X93581073Y-37471317D01*
X93571026Y-37479026D01*
X93566003Y-37485572D01*
X93564626Y-37487366D01*
X93482145Y-37594858D01*
X93478986Y-37602484D01*
X93478985Y-37602486D01*
X93457541Y-37654256D01*
X93426272Y-37729746D01*
X93425195Y-37737930D01*
X93425194Y-37737932D01*
X93419583Y-37780551D01*
X93407215Y-37874500D01*
X69332831Y-37874500D01*
X69332257Y-37218582D01*
X82115605Y-37218582D01*
X82116769Y-37227484D01*
X82116769Y-37227487D01*
X82122542Y-37271632D01*
X82133414Y-37354773D01*
X82188732Y-37480492D01*
X82194510Y-37487365D01*
X82194510Y-37487366D01*
X82245286Y-37547772D01*
X82277111Y-37585632D01*
X82391447Y-37661740D01*
X82522549Y-37702699D01*
X82659876Y-37705216D01*
X82669109Y-37702699D01*
X82783727Y-37671451D01*
X82792391Y-37669089D01*
X82909439Y-37597221D01*
X82926153Y-37578756D01*
X82995584Y-37502050D01*
X82995585Y-37502049D01*
X83001612Y-37495390D01*
X83009309Y-37479505D01*
X83057585Y-37379862D01*
X83057585Y-37379861D01*
X83061499Y-37371783D01*
X83074571Y-37294082D01*
X89515605Y-37294082D01*
X89516769Y-37302984D01*
X89516769Y-37302987D01*
X89521639Y-37340228D01*
X89533414Y-37430273D01*
X89588732Y-37555992D01*
X89594510Y-37562865D01*
X89594510Y-37562866D01*
X89601255Y-37570890D01*
X89677111Y-37661132D01*
X89791447Y-37737240D01*
X89922549Y-37778199D01*
X90059876Y-37780716D01*
X90069109Y-37778199D01*
X90183727Y-37746951D01*
X90192391Y-37744589D01*
X90309439Y-37672721D01*
X90315463Y-37666066D01*
X90395584Y-37577550D01*
X90395585Y-37577549D01*
X90401612Y-37570890D01*
X90411116Y-37551275D01*
X90457585Y-37455362D01*
X90457585Y-37455361D01*
X90461499Y-37447283D01*
X90484286Y-37311836D01*
X90484431Y-37300000D01*
X90483584Y-37294082D01*
X90466232Y-37172923D01*
X90466232Y-37172921D01*
X90464959Y-37164036D01*
X90408110Y-37039003D01*
X90318453Y-36934951D01*
X90203196Y-36860244D01*
X90071603Y-36820890D01*
X90062627Y-36820835D01*
X90062626Y-36820835D01*
X90005080Y-36820484D01*
X89934255Y-36820051D01*
X89802192Y-36857795D01*
X89794605Y-36862582D01*
X89794603Y-36862583D01*
X89732850Y-36901546D01*
X89686031Y-36931087D01*
X89680088Y-36937816D01*
X89663410Y-36956700D01*
X89595109Y-37034036D01*
X89591295Y-37042159D01*
X89591294Y-37042161D01*
X89572183Y-37082866D01*
X89536736Y-37158366D01*
X89530958Y-37195474D01*
X89516986Y-37285209D01*
X89516986Y-37285213D01*
X89515605Y-37294082D01*
X83074571Y-37294082D01*
X83084286Y-37236336D01*
X83084431Y-37224500D01*
X83083584Y-37218582D01*
X83066232Y-37097423D01*
X83066232Y-37097421D01*
X83064959Y-37088536D01*
X83008110Y-36963503D01*
X82918453Y-36859451D01*
X82803196Y-36784744D01*
X82671603Y-36745390D01*
X82662627Y-36745335D01*
X82662626Y-36745335D01*
X82605080Y-36744984D01*
X82534255Y-36744551D01*
X82402192Y-36782295D01*
X82394605Y-36787082D01*
X82394603Y-36787083D01*
X82338442Y-36822518D01*
X82286031Y-36855587D01*
X82195109Y-36958536D01*
X82191295Y-36966659D01*
X82191294Y-36966661D01*
X82179402Y-36991990D01*
X82136736Y-37082866D01*
X82129622Y-37128558D01*
X82116986Y-37209709D01*
X82116986Y-37209713D01*
X82115605Y-37218582D01*
X69332257Y-37218582D01*
X69330633Y-35364964D01*
X78383149Y-35364964D01*
X78396425Y-35567522D01*
X78397846Y-35573118D01*
X78397847Y-35573123D01*
X78418120Y-35652945D01*
X78446393Y-35764269D01*
X78448810Y-35769512D01*
X78486011Y-35850208D01*
X78531378Y-35948616D01*
X78648534Y-36114389D01*
X78793939Y-36256035D01*
X78798743Y-36259245D01*
X78804261Y-36262932D01*
X78962721Y-36368812D01*
X78968024Y-36371090D01*
X78968027Y-36371092D01*
X79143922Y-36446662D01*
X79149229Y-36448942D01*
X79187859Y-36457683D01*
X79341580Y-36492467D01*
X79341585Y-36492468D01*
X79347217Y-36493742D01*
X79352988Y-36493969D01*
X79352990Y-36493969D01*
X79412757Y-36496317D01*
X79550054Y-36501712D01*
X79650500Y-36487148D01*
X79745232Y-36473413D01*
X79745237Y-36473412D01*
X79750946Y-36472584D01*
X79756410Y-36470729D01*
X79756415Y-36470728D01*
X79937694Y-36409192D01*
X79937699Y-36409190D01*
X79943166Y-36407334D01*
X79957150Y-36399503D01*
X80080920Y-36330188D01*
X80120277Y-36308147D01*
X80178442Y-36259772D01*
X80271914Y-36182031D01*
X80276346Y-36178345D01*
X80389446Y-36042358D01*
X80402454Y-36026718D01*
X80402456Y-36026715D01*
X80406148Y-36022276D01*
X80505335Y-35845165D01*
X80507191Y-35839698D01*
X80507193Y-35839693D01*
X80568729Y-35658414D01*
X80568730Y-35658409D01*
X80570585Y-35652945D01*
X80571413Y-35647236D01*
X80571414Y-35647231D01*
X80599180Y-35455727D01*
X80599713Y-35452053D01*
X80601233Y-35394000D01*
X80598565Y-35364964D01*
X80923149Y-35364964D01*
X80936425Y-35567522D01*
X80937846Y-35573118D01*
X80937847Y-35573123D01*
X80958120Y-35652945D01*
X80986393Y-35764269D01*
X80988810Y-35769512D01*
X81026011Y-35850208D01*
X81071378Y-35948616D01*
X81188534Y-36114389D01*
X81333939Y-36256035D01*
X81338743Y-36259245D01*
X81344261Y-36262932D01*
X81502721Y-36368812D01*
X81508024Y-36371090D01*
X81508027Y-36371092D01*
X81683922Y-36446662D01*
X81689229Y-36448942D01*
X81727859Y-36457683D01*
X81881580Y-36492467D01*
X81881585Y-36492468D01*
X81887217Y-36493742D01*
X81892988Y-36493969D01*
X81892990Y-36493969D01*
X81952757Y-36496317D01*
X82090054Y-36501712D01*
X82190500Y-36487148D01*
X82285232Y-36473413D01*
X82285237Y-36473412D01*
X82290946Y-36472584D01*
X82296410Y-36470729D01*
X82296415Y-36470728D01*
X82477694Y-36409192D01*
X82477699Y-36409190D01*
X82483166Y-36407334D01*
X82497150Y-36399503D01*
X82620920Y-36330188D01*
X82660277Y-36308147D01*
X82718442Y-36259772D01*
X82811914Y-36182031D01*
X82816346Y-36178345D01*
X82929446Y-36042358D01*
X82942454Y-36026718D01*
X82942456Y-36026715D01*
X82946148Y-36022276D01*
X83045335Y-35845165D01*
X83047191Y-35839698D01*
X83047193Y-35839693D01*
X83108729Y-35658414D01*
X83108730Y-35658409D01*
X83110585Y-35652945D01*
X83111413Y-35647236D01*
X83111414Y-35647231D01*
X83139180Y-35455727D01*
X83139713Y-35452053D01*
X83141233Y-35394000D01*
X83138565Y-35364964D01*
X83463149Y-35364964D01*
X83476425Y-35567522D01*
X83477846Y-35573118D01*
X83477847Y-35573123D01*
X83498120Y-35652945D01*
X83526393Y-35764269D01*
X83528810Y-35769512D01*
X83566011Y-35850208D01*
X83611378Y-35948616D01*
X83728534Y-36114389D01*
X83873939Y-36256035D01*
X83878743Y-36259245D01*
X83884261Y-36262932D01*
X84042721Y-36368812D01*
X84048024Y-36371090D01*
X84048027Y-36371092D01*
X84223922Y-36446662D01*
X84229229Y-36448942D01*
X84267859Y-36457683D01*
X84421580Y-36492467D01*
X84421585Y-36492468D01*
X84427217Y-36493742D01*
X84432988Y-36493969D01*
X84432990Y-36493969D01*
X84492757Y-36496317D01*
X84630054Y-36501712D01*
X84730500Y-36487148D01*
X84825232Y-36473413D01*
X84825237Y-36473412D01*
X84830946Y-36472584D01*
X84836410Y-36470729D01*
X84836415Y-36470728D01*
X85017694Y-36409192D01*
X85017699Y-36409190D01*
X85023166Y-36407334D01*
X85037150Y-36399503D01*
X85160920Y-36330188D01*
X85200277Y-36308147D01*
X85258442Y-36259772D01*
X85351914Y-36182031D01*
X85356346Y-36178345D01*
X85469446Y-36042358D01*
X85482454Y-36026718D01*
X85482456Y-36026715D01*
X85486148Y-36022276D01*
X85585335Y-35845165D01*
X85587191Y-35839698D01*
X85587193Y-35839693D01*
X85648729Y-35658414D01*
X85648730Y-35658409D01*
X85650585Y-35652945D01*
X85651413Y-35647236D01*
X85651414Y-35647231D01*
X85679180Y-35455727D01*
X85679713Y-35452053D01*
X85681233Y-35394000D01*
X85678565Y-35364964D01*
X86003149Y-35364964D01*
X86016425Y-35567522D01*
X86017846Y-35573118D01*
X86017847Y-35573123D01*
X86038120Y-35652945D01*
X86066393Y-35764269D01*
X86068810Y-35769512D01*
X86106011Y-35850208D01*
X86151378Y-35948616D01*
X86268534Y-36114389D01*
X86413939Y-36256035D01*
X86418743Y-36259245D01*
X86424261Y-36262932D01*
X86582721Y-36368812D01*
X86588024Y-36371090D01*
X86588027Y-36371092D01*
X86763922Y-36446662D01*
X86769229Y-36448942D01*
X86807859Y-36457683D01*
X86961580Y-36492467D01*
X86961585Y-36492468D01*
X86967217Y-36493742D01*
X86972988Y-36493969D01*
X86972990Y-36493969D01*
X87032757Y-36496317D01*
X87170054Y-36501712D01*
X87270500Y-36487148D01*
X87365232Y-36473413D01*
X87365237Y-36473412D01*
X87370946Y-36472584D01*
X87376410Y-36470729D01*
X87376415Y-36470728D01*
X87557694Y-36409192D01*
X87557699Y-36409190D01*
X87563166Y-36407334D01*
X87577150Y-36399503D01*
X87700920Y-36330188D01*
X87740277Y-36308147D01*
X87798442Y-36259772D01*
X87891914Y-36182031D01*
X87896346Y-36178345D01*
X88009446Y-36042358D01*
X88022454Y-36026718D01*
X88022456Y-36026715D01*
X88026148Y-36022276D01*
X88125335Y-35845165D01*
X88127191Y-35839698D01*
X88127193Y-35839693D01*
X88188729Y-35658414D01*
X88188730Y-35658409D01*
X88190585Y-35652945D01*
X88191413Y-35647236D01*
X88191414Y-35647231D01*
X88219180Y-35455727D01*
X88219713Y-35452053D01*
X88221233Y-35394000D01*
X88218565Y-35364964D01*
X88543149Y-35364964D01*
X88556425Y-35567522D01*
X88557846Y-35573118D01*
X88557847Y-35573123D01*
X88578120Y-35652945D01*
X88606393Y-35764269D01*
X88608810Y-35769512D01*
X88646011Y-35850208D01*
X88691378Y-35948616D01*
X88808534Y-36114389D01*
X88953939Y-36256035D01*
X88958743Y-36259245D01*
X88964261Y-36262932D01*
X89122721Y-36368812D01*
X89128024Y-36371090D01*
X89128027Y-36371092D01*
X89303922Y-36446662D01*
X89309229Y-36448942D01*
X89347859Y-36457683D01*
X89501580Y-36492467D01*
X89501585Y-36492468D01*
X89507217Y-36493742D01*
X89512988Y-36493969D01*
X89512990Y-36493969D01*
X89572757Y-36496317D01*
X89710054Y-36501712D01*
X89810500Y-36487148D01*
X89905232Y-36473413D01*
X89905237Y-36473412D01*
X89910946Y-36472584D01*
X89916410Y-36470729D01*
X89916415Y-36470728D01*
X90097694Y-36409192D01*
X90097699Y-36409190D01*
X90103166Y-36407334D01*
X90117150Y-36399503D01*
X90240920Y-36330188D01*
X90255541Y-36322000D01*
X91134715Y-36322000D01*
X91135793Y-36330188D01*
X91152578Y-36457683D01*
X91153772Y-36466754D01*
X91156931Y-36474380D01*
X91206434Y-36593889D01*
X91209645Y-36601642D01*
X91298526Y-36717474D01*
X91305076Y-36722500D01*
X91305079Y-36722503D01*
X91386193Y-36784744D01*
X91414357Y-36806355D01*
X91549246Y-36862228D01*
X91694000Y-36881285D01*
X91702188Y-36880207D01*
X91830566Y-36863306D01*
X91838754Y-36862228D01*
X91973643Y-36806355D01*
X92001807Y-36784744D01*
X92082921Y-36722503D01*
X92082924Y-36722500D01*
X92089474Y-36717474D01*
X92178355Y-36601642D01*
X92181567Y-36593889D01*
X92231069Y-36474380D01*
X92234228Y-36466754D01*
X92235423Y-36457683D01*
X92252207Y-36330188D01*
X92253285Y-36322000D01*
X92234228Y-36177246D01*
X92178355Y-36042358D01*
X92089474Y-35926526D01*
X92082924Y-35921500D01*
X92082921Y-35921497D01*
X91980196Y-35842673D01*
X91980194Y-35842672D01*
X91973643Y-35837645D01*
X91838754Y-35781772D01*
X91694000Y-35762715D01*
X91685812Y-35763793D01*
X91557432Y-35780694D01*
X91557430Y-35780695D01*
X91549246Y-35781772D01*
X91501430Y-35801578D01*
X91421986Y-35834485D01*
X91421984Y-35834486D01*
X91414358Y-35837645D01*
X91298526Y-35926526D01*
X91209645Y-36042358D01*
X91153772Y-36177246D01*
X91134715Y-36322000D01*
X90255541Y-36322000D01*
X90280277Y-36308147D01*
X90338442Y-36259772D01*
X90431914Y-36182031D01*
X90436346Y-36178345D01*
X90549446Y-36042358D01*
X90562454Y-36026718D01*
X90562456Y-36026715D01*
X90566148Y-36022276D01*
X90665335Y-35845165D01*
X90667191Y-35839698D01*
X90667193Y-35839693D01*
X90728729Y-35658414D01*
X90728730Y-35658409D01*
X90730585Y-35652945D01*
X90731413Y-35647236D01*
X90731414Y-35647231D01*
X90759180Y-35455727D01*
X90759713Y-35452053D01*
X90761233Y-35394000D01*
X90742659Y-35191859D01*
X90741091Y-35186299D01*
X90689126Y-35002046D01*
X90689125Y-35002044D01*
X90687558Y-34996487D01*
X90676979Y-34975033D01*
X90600332Y-34819609D01*
X90597777Y-34814428D01*
X90476321Y-34651779D01*
X90327259Y-34513987D01*
X90322376Y-34510906D01*
X90322372Y-34510903D01*
X90160465Y-34408748D01*
X90155582Y-34405667D01*
X89967040Y-34330446D01*
X89961380Y-34329320D01*
X89961376Y-34329319D01*
X89773614Y-34291971D01*
X89773611Y-34291971D01*
X89767947Y-34290844D01*
X89762172Y-34290768D01*
X89762168Y-34290768D01*
X89660794Y-34289441D01*
X89564972Y-34288187D01*
X89559275Y-34289166D01*
X89559274Y-34289166D01*
X89370608Y-34321585D01*
X89364911Y-34322564D01*
X89174464Y-34392824D01*
X89000011Y-34496612D01*
X88995671Y-34500418D01*
X88995667Y-34500421D01*
X88975724Y-34517911D01*
X88847393Y-34630455D01*
X88721721Y-34789869D01*
X88719032Y-34794980D01*
X88719030Y-34794983D01*
X88706074Y-34819609D01*
X88627204Y-34969515D01*
X88567008Y-35163378D01*
X88543149Y-35364964D01*
X88218565Y-35364964D01*
X88202659Y-35191859D01*
X88201091Y-35186299D01*
X88149126Y-35002046D01*
X88149125Y-35002044D01*
X88147558Y-34996487D01*
X88136979Y-34975033D01*
X88060332Y-34819609D01*
X88057777Y-34814428D01*
X87936321Y-34651779D01*
X87787259Y-34513987D01*
X87782376Y-34510906D01*
X87782372Y-34510903D01*
X87620465Y-34408748D01*
X87615582Y-34405667D01*
X87427040Y-34330446D01*
X87421380Y-34329320D01*
X87421376Y-34329319D01*
X87233614Y-34291971D01*
X87233611Y-34291971D01*
X87227947Y-34290844D01*
X87222172Y-34290768D01*
X87222168Y-34290768D01*
X87120794Y-34289441D01*
X87024972Y-34288187D01*
X87019275Y-34289166D01*
X87019274Y-34289166D01*
X86830608Y-34321585D01*
X86824911Y-34322564D01*
X86634464Y-34392824D01*
X86460011Y-34496612D01*
X86455671Y-34500418D01*
X86455667Y-34500421D01*
X86435724Y-34517911D01*
X86307393Y-34630455D01*
X86181721Y-34789869D01*
X86179032Y-34794980D01*
X86179030Y-34794983D01*
X86166074Y-34819609D01*
X86087204Y-34969515D01*
X86027008Y-35163378D01*
X86003149Y-35364964D01*
X85678565Y-35364964D01*
X85662659Y-35191859D01*
X85661091Y-35186299D01*
X85609126Y-35002046D01*
X85609125Y-35002044D01*
X85607558Y-34996487D01*
X85596979Y-34975033D01*
X85520332Y-34819609D01*
X85517777Y-34814428D01*
X85396321Y-34651779D01*
X85247259Y-34513987D01*
X85242376Y-34510906D01*
X85242372Y-34510903D01*
X85080465Y-34408748D01*
X85075582Y-34405667D01*
X84887040Y-34330446D01*
X84881380Y-34329320D01*
X84881376Y-34329319D01*
X84693614Y-34291971D01*
X84693611Y-34291971D01*
X84687947Y-34290844D01*
X84682172Y-34290768D01*
X84682168Y-34290768D01*
X84580794Y-34289441D01*
X84484972Y-34288187D01*
X84479275Y-34289166D01*
X84479274Y-34289166D01*
X84290608Y-34321585D01*
X84284911Y-34322564D01*
X84094464Y-34392824D01*
X83920011Y-34496612D01*
X83915671Y-34500418D01*
X83915667Y-34500421D01*
X83895724Y-34517911D01*
X83767393Y-34630455D01*
X83641721Y-34789869D01*
X83639032Y-34794980D01*
X83639030Y-34794983D01*
X83626074Y-34819609D01*
X83547204Y-34969515D01*
X83487008Y-35163378D01*
X83463149Y-35364964D01*
X83138565Y-35364964D01*
X83122659Y-35191859D01*
X83121091Y-35186299D01*
X83069126Y-35002046D01*
X83069125Y-35002044D01*
X83067558Y-34996487D01*
X83056979Y-34975033D01*
X82980332Y-34819609D01*
X82977777Y-34814428D01*
X82856321Y-34651779D01*
X82707259Y-34513987D01*
X82702376Y-34510906D01*
X82702372Y-34510903D01*
X82540465Y-34408748D01*
X82535582Y-34405667D01*
X82347040Y-34330446D01*
X82341380Y-34329320D01*
X82341376Y-34329319D01*
X82153614Y-34291971D01*
X82153611Y-34291971D01*
X82147947Y-34290844D01*
X82142172Y-34290768D01*
X82142168Y-34290768D01*
X82040794Y-34289441D01*
X81944972Y-34288187D01*
X81939275Y-34289166D01*
X81939274Y-34289166D01*
X81750608Y-34321585D01*
X81744911Y-34322564D01*
X81554464Y-34392824D01*
X81380011Y-34496612D01*
X81375671Y-34500418D01*
X81375667Y-34500421D01*
X81355724Y-34517911D01*
X81227393Y-34630455D01*
X81101721Y-34789869D01*
X81099032Y-34794980D01*
X81099030Y-34794983D01*
X81086074Y-34819609D01*
X81007204Y-34969515D01*
X80947008Y-35163378D01*
X80923149Y-35364964D01*
X80598565Y-35364964D01*
X80582659Y-35191859D01*
X80581091Y-35186299D01*
X80529126Y-35002046D01*
X80529125Y-35002044D01*
X80527558Y-34996487D01*
X80516979Y-34975033D01*
X80440332Y-34819609D01*
X80437777Y-34814428D01*
X80316321Y-34651779D01*
X80167259Y-34513987D01*
X80162376Y-34510906D01*
X80162372Y-34510903D01*
X80000465Y-34408748D01*
X79995582Y-34405667D01*
X79807040Y-34330446D01*
X79801380Y-34329320D01*
X79801376Y-34329319D01*
X79613614Y-34291971D01*
X79613611Y-34291971D01*
X79607947Y-34290844D01*
X79602172Y-34290768D01*
X79602168Y-34290768D01*
X79500794Y-34289441D01*
X79404972Y-34288187D01*
X79399275Y-34289166D01*
X79399274Y-34289166D01*
X79210608Y-34321585D01*
X79204911Y-34322564D01*
X79014464Y-34392824D01*
X78840011Y-34496612D01*
X78835671Y-34500418D01*
X78835667Y-34500421D01*
X78815724Y-34517911D01*
X78687393Y-34630455D01*
X78561721Y-34789869D01*
X78559032Y-34794980D01*
X78559030Y-34794983D01*
X78546074Y-34819609D01*
X78467204Y-34969515D01*
X78407008Y-35163378D01*
X78383149Y-35364964D01*
X69330633Y-35364964D01*
X69329333Y-33880608D01*
X69349275Y-33812472D01*
X69402890Y-33765932D01*
X69455333Y-33754500D01*
X78462524Y-33754500D01*
X78487103Y-33756921D01*
X78500000Y-33759486D01*
X78599301Y-33739734D01*
X78683484Y-33683484D01*
X78739734Y-33599301D01*
X78754500Y-33525067D01*
X78759486Y-33500000D01*
X78756921Y-33487103D01*
X78754500Y-33462524D01*
X78754500Y-31915000D01*
X78774502Y-31846879D01*
X78828158Y-31800386D01*
X78880500Y-31789000D01*
X80119500Y-31789000D01*
X80187621Y-31809002D01*
G37*
%TD.AperFunction*%
%TD*%
M02*
