%TF.GenerationSoftware,KiCad,Pcbnew,6.0.6-1.fc35*%
%TF.CreationDate,2022-07-26T21:01:35+02:00*%
%TF.ProjectId,Nixiewatch,4e697869-6577-4617-9463-682e6b696361,rev?*%
%TF.SameCoordinates,Original*%
%TF.FileFunction,Paste,Bot*%
%TF.FilePolarity,Positive*%
%FSLAX46Y46*%
G04 Gerber Fmt 4.6, Leading zero omitted, Abs format (unit mm)*
G04 Created by KiCad (PCBNEW 6.0.6-1.fc35) date 2022-07-26 21:01:35*
%MOMM*%
%LPD*%
G01*
G04 APERTURE LIST*
G04 Aperture macros list*
%AMRoundRect*
0 Rectangle with rounded corners*
0 $1 Rounding radius*
0 $2 $3 $4 $5 $6 $7 $8 $9 X,Y pos of 4 corners*
0 Add a 4 corners polygon primitive as box body*
4,1,4,$2,$3,$4,$5,$6,$7,$8,$9,$2,$3,0*
0 Add four circle primitives for the rounded corners*
1,1,$1+$1,$2,$3*
1,1,$1+$1,$4,$5*
1,1,$1+$1,$6,$7*
1,1,$1+$1,$8,$9*
0 Add four rect primitives between the rounded corners*
20,1,$1+$1,$2,$3,$4,$5,0*
20,1,$1+$1,$4,$5,$6,$7,0*
20,1,$1+$1,$6,$7,$8,$9,0*
20,1,$1+$1,$8,$9,$2,$3,0*%
G04 Aperture macros list end*
%ADD10RoundRect,0.200000X-0.275000X0.200000X-0.275000X-0.200000X0.275000X-0.200000X0.275000X0.200000X0*%
%ADD11RoundRect,0.225000X-0.225000X-0.250000X0.225000X-0.250000X0.225000X0.250000X-0.225000X0.250000X0*%
%ADD12RoundRect,0.200000X0.275000X-0.200000X0.275000X0.200000X-0.275000X0.200000X-0.275000X-0.200000X0*%
%ADD13R,1.060000X0.650000*%
%ADD14RoundRect,0.225000X-0.250000X0.225000X-0.250000X-0.225000X0.250000X-0.225000X0.250000X0.225000X0*%
%ADD15RoundRect,0.225000X0.225000X0.250000X-0.225000X0.250000X-0.225000X-0.250000X0.225000X-0.250000X0*%
%ADD16R,0.900000X1.200000*%
%ADD17R,0.980000X3.400000*%
%ADD18RoundRect,0.200000X0.200000X0.275000X-0.200000X0.275000X-0.200000X-0.275000X0.200000X-0.275000X0*%
%ADD19RoundRect,0.200000X-0.200000X-0.275000X0.200000X-0.275000X0.200000X0.275000X-0.200000X0.275000X0*%
%ADD20R,0.740000X2.400000*%
%ADD21RoundRect,0.225000X0.250000X-0.225000X0.250000X0.225000X-0.250000X0.225000X-0.250000X-0.225000X0*%
%ADD22RoundRect,0.237500X0.287500X0.237500X-0.287500X0.237500X-0.287500X-0.237500X0.287500X-0.237500X0*%
%ADD23R,2.100000X1.800000*%
%ADD24RoundRect,0.075000X0.350000X0.075000X-0.350000X0.075000X-0.350000X-0.075000X0.350000X-0.075000X0*%
%ADD25RoundRect,0.075000X0.075000X-0.350000X0.075000X0.350000X-0.075000X0.350000X-0.075000X-0.350000X0*%
%ADD26RoundRect,0.125000X-0.125000X0.625000X-0.125000X-0.625000X0.125000X-0.625000X0.125000X0.625000X0*%
%ADD27RoundRect,0.125000X-0.625000X0.125000X-0.625000X-0.125000X0.625000X-0.125000X0.625000X0.125000X0*%
%ADD28R,1.200000X0.900000*%
%ADD29RoundRect,0.250000X0.375000X0.625000X-0.375000X0.625000X-0.375000X-0.625000X0.375000X-0.625000X0*%
%ADD30RoundRect,0.250000X-0.625000X0.375000X-0.625000X-0.375000X0.625000X-0.375000X0.625000X0.375000X0*%
G04 APERTURE END LIST*
D10*
%TO.C,R6*%
X70900000Y-59250000D03*
X70900000Y-60900000D03*
%TD*%
D11*
%TO.C,C8*%
X75295500Y-57040500D03*
X76845500Y-57040500D03*
%TD*%
%TO.C,C9*%
X71739500Y-57040500D03*
X73289500Y-57040500D03*
%TD*%
D12*
%TO.C,R8*%
X76832500Y-60546500D03*
X76832500Y-58896500D03*
%TD*%
D13*
%TO.C,U1*%
X72684500Y-60784500D03*
X72684500Y-59834500D03*
X72684500Y-58884500D03*
X74884500Y-58884500D03*
X74884500Y-60784500D03*
%TD*%
D14*
%TO.C,C10*%
X98800000Y-55325000D03*
X98800000Y-56875000D03*
%TD*%
D15*
%TO.C,C13*%
X106100000Y-57000000D03*
X104550000Y-57000000D03*
%TD*%
D14*
%TO.C,C14*%
X107800000Y-53625000D03*
X107800000Y-55175000D03*
%TD*%
D16*
%TO.C,D5*%
X106150000Y-53300000D03*
X102850000Y-53300000D03*
%TD*%
D17*
%TO.C,L2*%
X98415000Y-52200000D03*
X100785000Y-52200000D03*
%TD*%
D18*
%TO.C,R10*%
X106225000Y-55400000D03*
X104575000Y-55400000D03*
%TD*%
D19*
%TO.C,R11*%
X104500000Y-58600000D03*
X106150000Y-58600000D03*
%TD*%
D13*
%TO.C,U2*%
X102700000Y-55450000D03*
X102700000Y-56400000D03*
X102700000Y-57350000D03*
X100500000Y-57350000D03*
X100500000Y-55450000D03*
%TD*%
D20*
%TO.C,J5*%
X90170000Y-56052000D03*
X90170000Y-52152000D03*
X88900000Y-56052000D03*
X88900000Y-52152000D03*
X87630000Y-56052000D03*
X87630000Y-52152000D03*
X86360000Y-56052000D03*
X86360000Y-52152000D03*
X85090000Y-56052000D03*
X85090000Y-52152000D03*
%TD*%
D14*
%TO.C,C23*%
X76240000Y-52947000D03*
X76240000Y-54497000D03*
%TD*%
D15*
%TO.C,C24*%
X77139000Y-45794000D03*
X75589000Y-45794000D03*
%TD*%
D11*
%TO.C,C20*%
X80125000Y-42300000D03*
X81675000Y-42300000D03*
%TD*%
D21*
%TO.C,C19*%
X75100000Y-37875000D03*
X75100000Y-36325000D03*
%TD*%
D14*
%TO.C,C21*%
X80428000Y-53401000D03*
X80428000Y-54951000D03*
%TD*%
%TO.C,C22*%
X78396000Y-53147000D03*
X78396000Y-54697000D03*
%TD*%
D22*
%TO.C,D6*%
X98919000Y-44704000D03*
X97169000Y-44704000D03*
%TD*%
D12*
%TO.C,R14*%
X99060000Y-48182000D03*
X99060000Y-46532000D03*
%TD*%
D18*
%TO.C,R12*%
X82382000Y-45794000D03*
X80732000Y-45794000D03*
%TD*%
D23*
%TO.C,Y1*%
X77550000Y-37950000D03*
X80450000Y-37950000D03*
X80450000Y-40250000D03*
X77550000Y-40250000D03*
%TD*%
D24*
%TO.C,U5*%
X80600000Y-48100000D03*
X80600000Y-48600000D03*
X80600000Y-49100000D03*
X80600000Y-49600000D03*
X80600000Y-50100000D03*
X80600000Y-50600000D03*
D25*
X79900000Y-51300000D03*
X79400000Y-51300000D03*
X78900000Y-51300000D03*
X78400000Y-51300000D03*
X77900000Y-51300000D03*
X77400000Y-51300000D03*
D24*
X76700000Y-50600000D03*
X76700000Y-50100000D03*
X76700000Y-49600000D03*
X76700000Y-49100000D03*
X76700000Y-48600000D03*
X76700000Y-48100000D03*
D25*
X77400000Y-47400000D03*
X77900000Y-47400000D03*
X78400000Y-47400000D03*
X78900000Y-47400000D03*
X79400000Y-47400000D03*
X79900000Y-47400000D03*
%TD*%
D11*
%TO.C,C15*%
X95491000Y-48260000D03*
X97041000Y-48260000D03*
%TD*%
D15*
%TO.C,C16*%
X86486000Y-38862000D03*
X84936000Y-38862000D03*
%TD*%
D26*
%TO.C,U6*%
X88132000Y-39259000D03*
X88932000Y-39259000D03*
X89732000Y-39259000D03*
X90532000Y-39259000D03*
X91332000Y-39259000D03*
X92132000Y-39259000D03*
X92932000Y-39259000D03*
X93732000Y-39259000D03*
D27*
X95107000Y-40634000D03*
X95107000Y-41434000D03*
X95107000Y-42234000D03*
X95107000Y-43034000D03*
X95107000Y-43834000D03*
X95107000Y-44634000D03*
X95107000Y-45434000D03*
X95107000Y-46234000D03*
D26*
X93732000Y-47609000D03*
X92932000Y-47609000D03*
X92132000Y-47609000D03*
X91332000Y-47609000D03*
X90532000Y-47609000D03*
X89732000Y-47609000D03*
X88932000Y-47609000D03*
X88132000Y-47609000D03*
D27*
X86757000Y-46234000D03*
X86757000Y-45434000D03*
X86757000Y-44634000D03*
X86757000Y-43834000D03*
X86757000Y-43034000D03*
X86757000Y-42234000D03*
X86757000Y-41434000D03*
X86757000Y-40634000D03*
%TD*%
D28*
%TO.C,D2*%
X109200000Y-36050000D03*
X109200000Y-39350000D03*
%TD*%
%TO.C,D3*%
X111600000Y-39350000D03*
X111600000Y-36050000D03*
%TD*%
D29*
%TO.C,C6*%
X111800000Y-41400000D03*
X109000000Y-41400000D03*
%TD*%
D30*
%TO.C,C7*%
X106800000Y-41200000D03*
X106800000Y-44000000D03*
%TD*%
D18*
%TO.C,R4*%
X111674000Y-50890000D03*
X110024000Y-50890000D03*
%TD*%
D12*
%TO.C,R5*%
X107100000Y-39425000D03*
X107100000Y-37775000D03*
%TD*%
D30*
%TO.C,R3*%
X111500000Y-43600000D03*
X111500000Y-46400000D03*
%TD*%
D18*
%TO.C,R13*%
X82465000Y-44122000D03*
X80815000Y-44122000D03*
%TD*%
D19*
%TO.C,R31*%
X77040000Y-43922000D03*
X78690000Y-43922000D03*
%TD*%
D18*
%TO.C,R32*%
X78640000Y-42322000D03*
X76990000Y-42322000D03*
%TD*%
M02*
