%TF.GenerationSoftware,KiCad,Pcbnew,6.0.6-1.fc35*%
%TF.CreationDate,2022-07-26T21:01:35+02:00*%
%TF.ProjectId,Nixiewatch,4e697869-6577-4617-9463-682e6b696361,rev?*%
%TF.SameCoordinates,Original*%
%TF.FileFunction,Legend,Top*%
%TF.FilePolarity,Positive*%
%FSLAX46Y46*%
G04 Gerber Fmt 4.6, Leading zero omitted, Abs format (unit mm)*
G04 Created by KiCad (PCBNEW 6.0.6-1.fc35) date 2022-07-26 21:01:35*
%MOMM*%
%LPD*%
G01*
G04 APERTURE LIST*
%ADD10C,0.150000*%
%ADD11C,0.120000*%
G04 APERTURE END LIST*
D10*
%TO.C,IC2*%
X74705810Y-61246380D02*
X74705810Y-60246380D01*
X75753429Y-61151142D02*
X75705810Y-61198761D01*
X75562953Y-61246380D01*
X75467715Y-61246380D01*
X75324858Y-61198761D01*
X75229620Y-61103523D01*
X75182001Y-61008285D01*
X75134381Y-60817809D01*
X75134381Y-60674952D01*
X75182001Y-60484476D01*
X75229620Y-60389238D01*
X75324858Y-60294000D01*
X75467715Y-60246380D01*
X75562953Y-60246380D01*
X75705810Y-60294000D01*
X75753429Y-60341619D01*
X76134381Y-60341619D02*
X76182001Y-60294000D01*
X76277239Y-60246380D01*
X76515334Y-60246380D01*
X76610572Y-60294000D01*
X76658191Y-60341619D01*
X76705810Y-60436857D01*
X76705810Y-60532095D01*
X76658191Y-60674952D01*
X76086762Y-61246380D01*
X76705810Y-61246380D01*
%TO.C,J1*%
X71266666Y-54557380D02*
X71266666Y-55271666D01*
X71219047Y-55414523D01*
X71123809Y-55509761D01*
X70980952Y-55557380D01*
X70885714Y-55557380D01*
X72266666Y-55557380D02*
X71695238Y-55557380D01*
X71980952Y-55557380D02*
X71980952Y-54557380D01*
X71885714Y-54700238D01*
X71790476Y-54795476D01*
X71695238Y-54843095D01*
%TO.C,H1*%
X108922595Y-61586880D02*
X108922595Y-60586880D01*
X108922595Y-61063071D02*
X109494023Y-61063071D01*
X109494023Y-61586880D02*
X109494023Y-60586880D01*
X110494023Y-61586880D02*
X109922595Y-61586880D01*
X110208309Y-61586880D02*
X110208309Y-60586880D01*
X110113071Y-60729738D01*
X110017833Y-60824976D01*
X109922595Y-60872595D01*
%TO.C,C11*%
X80019142Y-55139857D02*
X80066761Y-55187476D01*
X80114380Y-55330333D01*
X80114380Y-55425571D01*
X80066761Y-55568428D01*
X79971523Y-55663666D01*
X79876285Y-55711285D01*
X79685809Y-55758904D01*
X79542952Y-55758904D01*
X79352476Y-55711285D01*
X79257238Y-55663666D01*
X79162000Y-55568428D01*
X79114380Y-55425571D01*
X79114380Y-55330333D01*
X79162000Y-55187476D01*
X79209619Y-55139857D01*
X80114380Y-54187476D02*
X80114380Y-54758904D01*
X80114380Y-54473190D02*
X79114380Y-54473190D01*
X79257238Y-54568428D01*
X79352476Y-54663666D01*
X79400095Y-54758904D01*
X80114380Y-53235095D02*
X80114380Y-53806523D01*
X80114380Y-53520809D02*
X79114380Y-53520809D01*
X79257238Y-53616047D01*
X79352476Y-53711285D01*
X79400095Y-53806523D01*
%TO.C,C12*%
X74682142Y-51251142D02*
X74634523Y-51298761D01*
X74491666Y-51346380D01*
X74396428Y-51346380D01*
X74253571Y-51298761D01*
X74158333Y-51203523D01*
X74110714Y-51108285D01*
X74063095Y-50917809D01*
X74063095Y-50774952D01*
X74110714Y-50584476D01*
X74158333Y-50489238D01*
X74253571Y-50394000D01*
X74396428Y-50346380D01*
X74491666Y-50346380D01*
X74634523Y-50394000D01*
X74682142Y-50441619D01*
X75634523Y-51346380D02*
X75063095Y-51346380D01*
X75348809Y-51346380D02*
X75348809Y-50346380D01*
X75253571Y-50489238D01*
X75158333Y-50584476D01*
X75063095Y-50632095D01*
X76015476Y-50441619D02*
X76063095Y-50394000D01*
X76158333Y-50346380D01*
X76396428Y-50346380D01*
X76491666Y-50394000D01*
X76539285Y-50441619D01*
X76586904Y-50536857D01*
X76586904Y-50632095D01*
X76539285Y-50774952D01*
X75967857Y-51346380D01*
X76586904Y-51346380D01*
%TO.C,R20*%
X104382380Y-42542857D02*
X103906190Y-42876190D01*
X104382380Y-43114285D02*
X103382380Y-43114285D01*
X103382380Y-42733333D01*
X103430000Y-42638095D01*
X103477619Y-42590476D01*
X103572857Y-42542857D01*
X103715714Y-42542857D01*
X103810952Y-42590476D01*
X103858571Y-42638095D01*
X103906190Y-42733333D01*
X103906190Y-43114285D01*
X103477619Y-42161904D02*
X103430000Y-42114285D01*
X103382380Y-42019047D01*
X103382380Y-41780952D01*
X103430000Y-41685714D01*
X103477619Y-41638095D01*
X103572857Y-41590476D01*
X103668095Y-41590476D01*
X103810952Y-41638095D01*
X104382380Y-42209523D01*
X104382380Y-41590476D01*
X103382380Y-40971428D02*
X103382380Y-40876190D01*
X103430000Y-40780952D01*
X103477619Y-40733333D01*
X103572857Y-40685714D01*
X103763333Y-40638095D01*
X104001428Y-40638095D01*
X104191904Y-40685714D01*
X104287142Y-40733333D01*
X104334761Y-40780952D01*
X104382380Y-40876190D01*
X104382380Y-40971428D01*
X104334761Y-41066666D01*
X104287142Y-41114285D01*
X104191904Y-41161904D01*
X104001428Y-41209523D01*
X103763333Y-41209523D01*
X103572857Y-41161904D01*
X103477619Y-41114285D01*
X103430000Y-41066666D01*
X103382380Y-40971428D01*
%TO.C,Q11*%
X97789619Y-56197428D02*
X97742000Y-56292666D01*
X97646761Y-56387904D01*
X97503904Y-56530761D01*
X97456285Y-56626000D01*
X97456285Y-56721238D01*
X97694380Y-56673619D02*
X97646761Y-56768857D01*
X97551523Y-56864095D01*
X97361047Y-56911714D01*
X97027714Y-56911714D01*
X96837238Y-56864095D01*
X96742000Y-56768857D01*
X96694380Y-56673619D01*
X96694380Y-56483142D01*
X96742000Y-56387904D01*
X96837238Y-56292666D01*
X97027714Y-56245047D01*
X97361047Y-56245047D01*
X97551523Y-56292666D01*
X97646761Y-56387904D01*
X97694380Y-56483142D01*
X97694380Y-56673619D01*
X97694380Y-55292666D02*
X97694380Y-55864095D01*
X97694380Y-55578380D02*
X96694380Y-55578380D01*
X96837238Y-55673619D01*
X96932476Y-55768857D01*
X96980095Y-55864095D01*
X97694380Y-54340285D02*
X97694380Y-54911714D01*
X97694380Y-54626000D02*
X96694380Y-54626000D01*
X96837238Y-54721238D01*
X96932476Y-54816476D01*
X96980095Y-54911714D01*
%TO.C,Q7*%
X94313619Y-38703238D02*
X94266000Y-38798476D01*
X94170761Y-38893714D01*
X94027904Y-39036571D01*
X93980285Y-39131809D01*
X93980285Y-39227047D01*
X94218380Y-39179428D02*
X94170761Y-39274666D01*
X94075523Y-39369904D01*
X93885047Y-39417523D01*
X93551714Y-39417523D01*
X93361238Y-39369904D01*
X93266000Y-39274666D01*
X93218380Y-39179428D01*
X93218380Y-38988952D01*
X93266000Y-38893714D01*
X93361238Y-38798476D01*
X93551714Y-38750857D01*
X93885047Y-38750857D01*
X94075523Y-38798476D01*
X94170761Y-38893714D01*
X94218380Y-38988952D01*
X94218380Y-39179428D01*
X93218380Y-38417523D02*
X93218380Y-37750857D01*
X94218380Y-38179428D01*
%TO.C,Q9*%
X91947619Y-55467238D02*
X91900000Y-55562476D01*
X91804761Y-55657714D01*
X91661904Y-55800571D01*
X91614285Y-55895809D01*
X91614285Y-55991047D01*
X91852380Y-55943428D02*
X91804761Y-56038666D01*
X91709523Y-56133904D01*
X91519047Y-56181523D01*
X91185714Y-56181523D01*
X90995238Y-56133904D01*
X90900000Y-56038666D01*
X90852380Y-55943428D01*
X90852380Y-55752952D01*
X90900000Y-55657714D01*
X90995238Y-55562476D01*
X91185714Y-55514857D01*
X91519047Y-55514857D01*
X91709523Y-55562476D01*
X91804761Y-55657714D01*
X91852380Y-55752952D01*
X91852380Y-55943428D01*
X91852380Y-55038666D02*
X91852380Y-54848190D01*
X91804761Y-54752952D01*
X91757142Y-54705333D01*
X91614285Y-54610095D01*
X91423809Y-54562476D01*
X91042857Y-54562476D01*
X90947619Y-54610095D01*
X90900000Y-54657714D01*
X90852380Y-54752952D01*
X90852380Y-54943428D01*
X90900000Y-55038666D01*
X90947619Y-55086285D01*
X91042857Y-55133904D01*
X91280952Y-55133904D01*
X91376190Y-55086285D01*
X91423809Y-55038666D01*
X91471428Y-54943428D01*
X91471428Y-54752952D01*
X91423809Y-54657714D01*
X91376190Y-54610095D01*
X91280952Y-54562476D01*
%TO.C,R19*%
X103322380Y-55217857D02*
X102846190Y-55551190D01*
X103322380Y-55789285D02*
X102322380Y-55789285D01*
X102322380Y-55408333D01*
X102370000Y-55313095D01*
X102417619Y-55265476D01*
X102512857Y-55217857D01*
X102655714Y-55217857D01*
X102750952Y-55265476D01*
X102798571Y-55313095D01*
X102846190Y-55408333D01*
X102846190Y-55789285D01*
X103322380Y-54265476D02*
X103322380Y-54836904D01*
X103322380Y-54551190D02*
X102322380Y-54551190D01*
X102465238Y-54646428D01*
X102560476Y-54741666D01*
X102608095Y-54836904D01*
X103322380Y-53789285D02*
X103322380Y-53598809D01*
X103274761Y-53503571D01*
X103227142Y-53455952D01*
X103084285Y-53360714D01*
X102893809Y-53313095D01*
X102512857Y-53313095D01*
X102417619Y-53360714D01*
X102370000Y-53408333D01*
X102322380Y-53503571D01*
X102322380Y-53694047D01*
X102370000Y-53789285D01*
X102417619Y-53836904D01*
X102512857Y-53884523D01*
X102750952Y-53884523D01*
X102846190Y-53836904D01*
X102893809Y-53789285D01*
X102941428Y-53694047D01*
X102941428Y-53503571D01*
X102893809Y-53408333D01*
X102846190Y-53360714D01*
X102750952Y-53313095D01*
%TO.C,R18*%
X99822380Y-55242857D02*
X99346190Y-55576190D01*
X99822380Y-55814285D02*
X98822380Y-55814285D01*
X98822380Y-55433333D01*
X98870000Y-55338095D01*
X98917619Y-55290476D01*
X99012857Y-55242857D01*
X99155714Y-55242857D01*
X99250952Y-55290476D01*
X99298571Y-55338095D01*
X99346190Y-55433333D01*
X99346190Y-55814285D01*
X99822380Y-54290476D02*
X99822380Y-54861904D01*
X99822380Y-54576190D02*
X98822380Y-54576190D01*
X98965238Y-54671428D01*
X99060476Y-54766666D01*
X99108095Y-54861904D01*
X99250952Y-53719047D02*
X99203333Y-53814285D01*
X99155714Y-53861904D01*
X99060476Y-53909523D01*
X99012857Y-53909523D01*
X98917619Y-53861904D01*
X98870000Y-53814285D01*
X98822380Y-53719047D01*
X98822380Y-53528571D01*
X98870000Y-53433333D01*
X98917619Y-53385714D01*
X99012857Y-53338095D01*
X99060476Y-53338095D01*
X99155714Y-53385714D01*
X99203333Y-53433333D01*
X99250952Y-53528571D01*
X99250952Y-53719047D01*
X99298571Y-53814285D01*
X99346190Y-53861904D01*
X99441428Y-53909523D01*
X99631904Y-53909523D01*
X99727142Y-53861904D01*
X99774761Y-53814285D01*
X99822380Y-53719047D01*
X99822380Y-53528571D01*
X99774761Y-53433333D01*
X99727142Y-53385714D01*
X99631904Y-53338095D01*
X99441428Y-53338095D01*
X99346190Y-53385714D01*
X99298571Y-53433333D01*
X99250952Y-53528571D01*
%TO.C,R17*%
X79540380Y-54998857D02*
X79064190Y-55332190D01*
X79540380Y-55570285D02*
X78540380Y-55570285D01*
X78540380Y-55189333D01*
X78588000Y-55094095D01*
X78635619Y-55046476D01*
X78730857Y-54998857D01*
X78873714Y-54998857D01*
X78968952Y-55046476D01*
X79016571Y-55094095D01*
X79064190Y-55189333D01*
X79064190Y-55570285D01*
X79540380Y-54046476D02*
X79540380Y-54617904D01*
X79540380Y-54332190D02*
X78540380Y-54332190D01*
X78683238Y-54427428D01*
X78778476Y-54522666D01*
X78826095Y-54617904D01*
X78540380Y-53713142D02*
X78540380Y-53046476D01*
X79540380Y-53475047D01*
%TO.C,Q8*%
X90757619Y-38703238D02*
X90710000Y-38798476D01*
X90614761Y-38893714D01*
X90471904Y-39036571D01*
X90424285Y-39131809D01*
X90424285Y-39227047D01*
X90662380Y-39179428D02*
X90614761Y-39274666D01*
X90519523Y-39369904D01*
X90329047Y-39417523D01*
X89995714Y-39417523D01*
X89805238Y-39369904D01*
X89710000Y-39274666D01*
X89662380Y-39179428D01*
X89662380Y-38988952D01*
X89710000Y-38893714D01*
X89805238Y-38798476D01*
X89995714Y-38750857D01*
X90329047Y-38750857D01*
X90519523Y-38798476D01*
X90614761Y-38893714D01*
X90662380Y-38988952D01*
X90662380Y-39179428D01*
X90090952Y-38179428D02*
X90043333Y-38274666D01*
X89995714Y-38322285D01*
X89900476Y-38369904D01*
X89852857Y-38369904D01*
X89757619Y-38322285D01*
X89710000Y-38274666D01*
X89662380Y-38179428D01*
X89662380Y-37988952D01*
X89710000Y-37893714D01*
X89757619Y-37846095D01*
X89852857Y-37798476D01*
X89900476Y-37798476D01*
X89995714Y-37846095D01*
X90043333Y-37893714D01*
X90090952Y-37988952D01*
X90090952Y-38179428D01*
X90138571Y-38274666D01*
X90186190Y-38322285D01*
X90281428Y-38369904D01*
X90471904Y-38369904D01*
X90567142Y-38322285D01*
X90614761Y-38274666D01*
X90662380Y-38179428D01*
X90662380Y-37988952D01*
X90614761Y-37893714D01*
X90567142Y-37846095D01*
X90471904Y-37798476D01*
X90281428Y-37798476D01*
X90186190Y-37846095D01*
X90138571Y-37893714D01*
X90090952Y-37988952D01*
%TO.C,Q5*%
X102869619Y-58007238D02*
X102822000Y-58102476D01*
X102726761Y-58197714D01*
X102583904Y-58340571D01*
X102536285Y-58435809D01*
X102536285Y-58531047D01*
X102774380Y-58483428D02*
X102726761Y-58578666D01*
X102631523Y-58673904D01*
X102441047Y-58721523D01*
X102107714Y-58721523D01*
X101917238Y-58673904D01*
X101822000Y-58578666D01*
X101774380Y-58483428D01*
X101774380Y-58292952D01*
X101822000Y-58197714D01*
X101917238Y-58102476D01*
X102107714Y-58054857D01*
X102441047Y-58054857D01*
X102631523Y-58102476D01*
X102726761Y-58197714D01*
X102774380Y-58292952D01*
X102774380Y-58483428D01*
X101774380Y-57150095D02*
X101774380Y-57626285D01*
X102250571Y-57673904D01*
X102202952Y-57626285D01*
X102155333Y-57531047D01*
X102155333Y-57292952D01*
X102202952Y-57197714D01*
X102250571Y-57150095D01*
X102345809Y-57102476D01*
X102583904Y-57102476D01*
X102679142Y-57150095D01*
X102726761Y-57197714D01*
X102774380Y-57292952D01*
X102774380Y-57531047D01*
X102726761Y-57626285D01*
X102679142Y-57673904D01*
%TO.C,Q2*%
X97869619Y-38703238D02*
X97822000Y-38798476D01*
X97726761Y-38893714D01*
X97583904Y-39036571D01*
X97536285Y-39131809D01*
X97536285Y-39227047D01*
X97774380Y-39179428D02*
X97726761Y-39274666D01*
X97631523Y-39369904D01*
X97441047Y-39417523D01*
X97107714Y-39417523D01*
X96917238Y-39369904D01*
X96822000Y-39274666D01*
X96774380Y-39179428D01*
X96774380Y-38988952D01*
X96822000Y-38893714D01*
X96917238Y-38798476D01*
X97107714Y-38750857D01*
X97441047Y-38750857D01*
X97631523Y-38798476D01*
X97726761Y-38893714D01*
X97774380Y-38988952D01*
X97774380Y-39179428D01*
X96869619Y-38369904D02*
X96822000Y-38322285D01*
X96774380Y-38227047D01*
X96774380Y-37988952D01*
X96822000Y-37893714D01*
X96869619Y-37846095D01*
X96964857Y-37798476D01*
X97060095Y-37798476D01*
X97202952Y-37846095D01*
X97774380Y-38417523D01*
X97774380Y-37798476D01*
%TO.C,R25*%
X89954380Y-48902857D02*
X89478190Y-49236190D01*
X89954380Y-49474285D02*
X88954380Y-49474285D01*
X88954380Y-49093333D01*
X89002000Y-48998095D01*
X89049619Y-48950476D01*
X89144857Y-48902857D01*
X89287714Y-48902857D01*
X89382952Y-48950476D01*
X89430571Y-48998095D01*
X89478190Y-49093333D01*
X89478190Y-49474285D01*
X89049619Y-48521904D02*
X89002000Y-48474285D01*
X88954380Y-48379047D01*
X88954380Y-48140952D01*
X89002000Y-48045714D01*
X89049619Y-47998095D01*
X89144857Y-47950476D01*
X89240095Y-47950476D01*
X89382952Y-47998095D01*
X89954380Y-48569523D01*
X89954380Y-47950476D01*
X88954380Y-47045714D02*
X88954380Y-47521904D01*
X89430571Y-47569523D01*
X89382952Y-47521904D01*
X89335333Y-47426666D01*
X89335333Y-47188571D01*
X89382952Y-47093333D01*
X89430571Y-47045714D01*
X89525809Y-46998095D01*
X89763904Y-46998095D01*
X89859142Y-47045714D01*
X89906761Y-47093333D01*
X89954380Y-47188571D01*
X89954380Y-47426666D01*
X89906761Y-47521904D01*
X89859142Y-47569523D01*
%TO.C,R24*%
X87250142Y-56968380D02*
X86916809Y-56492190D01*
X86678714Y-56968380D02*
X86678714Y-55968380D01*
X87059666Y-55968380D01*
X87154904Y-56016000D01*
X87202523Y-56063619D01*
X87250142Y-56158857D01*
X87250142Y-56301714D01*
X87202523Y-56396952D01*
X87154904Y-56444571D01*
X87059666Y-56492190D01*
X86678714Y-56492190D01*
X87631095Y-56063619D02*
X87678714Y-56016000D01*
X87773952Y-55968380D01*
X88012047Y-55968380D01*
X88107285Y-56016000D01*
X88154904Y-56063619D01*
X88202523Y-56158857D01*
X88202523Y-56254095D01*
X88154904Y-56396952D01*
X87583476Y-56968380D01*
X88202523Y-56968380D01*
X89059666Y-56301714D02*
X89059666Y-56968380D01*
X88821571Y-55920761D02*
X88583476Y-56635047D01*
X89202523Y-56635047D01*
%TO.C,C17*%
X74682142Y-56839142D02*
X74634523Y-56886761D01*
X74491666Y-56934380D01*
X74396428Y-56934380D01*
X74253571Y-56886761D01*
X74158333Y-56791523D01*
X74110714Y-56696285D01*
X74063095Y-56505809D01*
X74063095Y-56362952D01*
X74110714Y-56172476D01*
X74158333Y-56077238D01*
X74253571Y-55982000D01*
X74396428Y-55934380D01*
X74491666Y-55934380D01*
X74634523Y-55982000D01*
X74682142Y-56029619D01*
X75634523Y-56934380D02*
X75063095Y-56934380D01*
X75348809Y-56934380D02*
X75348809Y-55934380D01*
X75253571Y-56077238D01*
X75158333Y-56172476D01*
X75063095Y-56220095D01*
X75967857Y-55934380D02*
X76634523Y-55934380D01*
X76205952Y-56934380D01*
%TO.C,Q1*%
X141567619Y-58841238D02*
X141520000Y-58936476D01*
X141424761Y-59031714D01*
X141281904Y-59174571D01*
X141234285Y-59269809D01*
X141234285Y-59365047D01*
X141472380Y-59317428D02*
X141424761Y-59412666D01*
X141329523Y-59507904D01*
X141139047Y-59555523D01*
X140805714Y-59555523D01*
X140615238Y-59507904D01*
X140520000Y-59412666D01*
X140472380Y-59317428D01*
X140472380Y-59126952D01*
X140520000Y-59031714D01*
X140615238Y-58936476D01*
X140805714Y-58888857D01*
X141139047Y-58888857D01*
X141329523Y-58936476D01*
X141424761Y-59031714D01*
X141472380Y-59126952D01*
X141472380Y-59317428D01*
X141472380Y-57936476D02*
X141472380Y-58507904D01*
X141472380Y-58222190D02*
X140472380Y-58222190D01*
X140615238Y-58317428D01*
X140710476Y-58412666D01*
X140758095Y-58507904D01*
%TO.C,Q6*%
X82549619Y-58007238D02*
X82502000Y-58102476D01*
X82406761Y-58197714D01*
X82263904Y-58340571D01*
X82216285Y-58435809D01*
X82216285Y-58531047D01*
X82454380Y-58483428D02*
X82406761Y-58578666D01*
X82311523Y-58673904D01*
X82121047Y-58721523D01*
X81787714Y-58721523D01*
X81597238Y-58673904D01*
X81502000Y-58578666D01*
X81454380Y-58483428D01*
X81454380Y-58292952D01*
X81502000Y-58197714D01*
X81597238Y-58102476D01*
X81787714Y-58054857D01*
X82121047Y-58054857D01*
X82311523Y-58102476D01*
X82406761Y-58197714D01*
X82454380Y-58292952D01*
X82454380Y-58483428D01*
X81454380Y-57197714D02*
X81454380Y-57388190D01*
X81502000Y-57483428D01*
X81549619Y-57531047D01*
X81692476Y-57626285D01*
X81882952Y-57673904D01*
X82263904Y-57673904D01*
X82359142Y-57626285D01*
X82406761Y-57578666D01*
X82454380Y-57483428D01*
X82454380Y-57292952D01*
X82406761Y-57197714D01*
X82359142Y-57150095D01*
X82263904Y-57102476D01*
X82025809Y-57102476D01*
X81930571Y-57150095D01*
X81882952Y-57197714D01*
X81835333Y-57292952D01*
X81835333Y-57483428D01*
X81882952Y-57578666D01*
X81930571Y-57626285D01*
X82025809Y-57673904D01*
%TO.C,Q10*%
X92963619Y-52387428D02*
X92916000Y-52482666D01*
X92820761Y-52577904D01*
X92677904Y-52720761D01*
X92630285Y-52816000D01*
X92630285Y-52911238D01*
X92868380Y-52863619D02*
X92820761Y-52958857D01*
X92725523Y-53054095D01*
X92535047Y-53101714D01*
X92201714Y-53101714D01*
X92011238Y-53054095D01*
X91916000Y-52958857D01*
X91868380Y-52863619D01*
X91868380Y-52673142D01*
X91916000Y-52577904D01*
X92011238Y-52482666D01*
X92201714Y-52435047D01*
X92535047Y-52435047D01*
X92725523Y-52482666D01*
X92820761Y-52577904D01*
X92868380Y-52673142D01*
X92868380Y-52863619D01*
X92868380Y-51482666D02*
X92868380Y-52054095D01*
X92868380Y-51768380D02*
X91868380Y-51768380D01*
X92011238Y-51863619D01*
X92106476Y-51958857D01*
X92154095Y-52054095D01*
X91868380Y-50863619D02*
X91868380Y-50768380D01*
X91916000Y-50673142D01*
X91963619Y-50625523D01*
X92058857Y-50577904D01*
X92249333Y-50530285D01*
X92487428Y-50530285D01*
X92677904Y-50577904D01*
X92773142Y-50625523D01*
X92820761Y-50673142D01*
X92868380Y-50768380D01*
X92868380Y-50863619D01*
X92820761Y-50958857D01*
X92773142Y-51006476D01*
X92677904Y-51054095D01*
X92487428Y-51101714D01*
X92249333Y-51101714D01*
X92058857Y-51054095D01*
X91963619Y-51006476D01*
X91916000Y-50958857D01*
X91868380Y-50863619D01*
%TO.C,Q4*%
X106425619Y-58007238D02*
X106378000Y-58102476D01*
X106282761Y-58197714D01*
X106139904Y-58340571D01*
X106092285Y-58435809D01*
X106092285Y-58531047D01*
X106330380Y-58483428D02*
X106282761Y-58578666D01*
X106187523Y-58673904D01*
X105997047Y-58721523D01*
X105663714Y-58721523D01*
X105473238Y-58673904D01*
X105378000Y-58578666D01*
X105330380Y-58483428D01*
X105330380Y-58292952D01*
X105378000Y-58197714D01*
X105473238Y-58102476D01*
X105663714Y-58054857D01*
X105997047Y-58054857D01*
X106187523Y-58102476D01*
X106282761Y-58197714D01*
X106330380Y-58292952D01*
X106330380Y-58483428D01*
X105663714Y-57197714D02*
X106330380Y-57197714D01*
X105282761Y-57435809D02*
X105997047Y-57673904D01*
X105997047Y-57054857D01*
%TO.C,Q12*%
X98805619Y-52641428D02*
X98758000Y-52736666D01*
X98662761Y-52831904D01*
X98519904Y-52974761D01*
X98472285Y-53070000D01*
X98472285Y-53165238D01*
X98710380Y-53117619D02*
X98662761Y-53212857D01*
X98567523Y-53308095D01*
X98377047Y-53355714D01*
X98043714Y-53355714D01*
X97853238Y-53308095D01*
X97758000Y-53212857D01*
X97710380Y-53117619D01*
X97710380Y-52927142D01*
X97758000Y-52831904D01*
X97853238Y-52736666D01*
X98043714Y-52689047D01*
X98377047Y-52689047D01*
X98567523Y-52736666D01*
X98662761Y-52831904D01*
X98710380Y-52927142D01*
X98710380Y-53117619D01*
X98710380Y-51736666D02*
X98710380Y-52308095D01*
X98710380Y-52022380D02*
X97710380Y-52022380D01*
X97853238Y-52117619D01*
X97948476Y-52212857D01*
X97996095Y-52308095D01*
X97805619Y-51355714D02*
X97758000Y-51308095D01*
X97710380Y-51212857D01*
X97710380Y-50974761D01*
X97758000Y-50879523D01*
X97805619Y-50831904D01*
X97900857Y-50784285D01*
X97996095Y-50784285D01*
X98138952Y-50831904D01*
X98710380Y-51403333D01*
X98710380Y-50784285D01*
%TO.C,R27*%
X95100380Y-52853857D02*
X94624190Y-53187190D01*
X95100380Y-53425285D02*
X94100380Y-53425285D01*
X94100380Y-53044333D01*
X94148000Y-52949095D01*
X94195619Y-52901476D01*
X94290857Y-52853857D01*
X94433714Y-52853857D01*
X94528952Y-52901476D01*
X94576571Y-52949095D01*
X94624190Y-53044333D01*
X94624190Y-53425285D01*
X94195619Y-52472904D02*
X94148000Y-52425285D01*
X94100380Y-52330047D01*
X94100380Y-52091952D01*
X94148000Y-51996714D01*
X94195619Y-51949095D01*
X94290857Y-51901476D01*
X94386095Y-51901476D01*
X94528952Y-51949095D01*
X95100380Y-52520523D01*
X95100380Y-51901476D01*
X94100380Y-51568142D02*
X94100380Y-50901476D01*
X95100380Y-51330047D01*
%TO.C,R26*%
X90782380Y-48902857D02*
X90306190Y-49236190D01*
X90782380Y-49474285D02*
X89782380Y-49474285D01*
X89782380Y-49093333D01*
X89830000Y-48998095D01*
X89877619Y-48950476D01*
X89972857Y-48902857D01*
X90115714Y-48902857D01*
X90210952Y-48950476D01*
X90258571Y-48998095D01*
X90306190Y-49093333D01*
X90306190Y-49474285D01*
X89877619Y-48521904D02*
X89830000Y-48474285D01*
X89782380Y-48379047D01*
X89782380Y-48140952D01*
X89830000Y-48045714D01*
X89877619Y-47998095D01*
X89972857Y-47950476D01*
X90068095Y-47950476D01*
X90210952Y-47998095D01*
X90782380Y-48569523D01*
X90782380Y-47950476D01*
X89782380Y-47093333D02*
X89782380Y-47283809D01*
X89830000Y-47379047D01*
X89877619Y-47426666D01*
X90020476Y-47521904D01*
X90210952Y-47569523D01*
X90591904Y-47569523D01*
X90687142Y-47521904D01*
X90734761Y-47474285D01*
X90782380Y-47379047D01*
X90782380Y-47188571D01*
X90734761Y-47093333D01*
X90687142Y-47045714D01*
X90591904Y-46998095D01*
X90353809Y-46998095D01*
X90258571Y-47045714D01*
X90210952Y-47093333D01*
X90163333Y-47188571D01*
X90163333Y-47379047D01*
X90210952Y-47474285D01*
X90258571Y-47521904D01*
X90353809Y-47569523D01*
%TO.C,R23*%
X89258380Y-52599857D02*
X88782190Y-52933190D01*
X89258380Y-53171285D02*
X88258380Y-53171285D01*
X88258380Y-52790333D01*
X88306000Y-52695095D01*
X88353619Y-52647476D01*
X88448857Y-52599857D01*
X88591714Y-52599857D01*
X88686952Y-52647476D01*
X88734571Y-52695095D01*
X88782190Y-52790333D01*
X88782190Y-53171285D01*
X88353619Y-52218904D02*
X88306000Y-52171285D01*
X88258380Y-52076047D01*
X88258380Y-51837952D01*
X88306000Y-51742714D01*
X88353619Y-51695095D01*
X88448857Y-51647476D01*
X88544095Y-51647476D01*
X88686952Y-51695095D01*
X89258380Y-52266523D01*
X89258380Y-51647476D01*
X88258380Y-51314142D02*
X88258380Y-50695095D01*
X88639333Y-51028428D01*
X88639333Y-50885571D01*
X88686952Y-50790333D01*
X88734571Y-50742714D01*
X88829809Y-50695095D01*
X89067904Y-50695095D01*
X89163142Y-50742714D01*
X89210761Y-50790333D01*
X89258380Y-50885571D01*
X89258380Y-51171285D01*
X89210761Y-51266523D01*
X89163142Y-51314142D01*
%TO.C,R22*%
X107022380Y-55273857D02*
X106546190Y-55607190D01*
X107022380Y-55845285D02*
X106022380Y-55845285D01*
X106022380Y-55464333D01*
X106070000Y-55369095D01*
X106117619Y-55321476D01*
X106212857Y-55273857D01*
X106355714Y-55273857D01*
X106450952Y-55321476D01*
X106498571Y-55369095D01*
X106546190Y-55464333D01*
X106546190Y-55845285D01*
X106117619Y-54892904D02*
X106070000Y-54845285D01*
X106022380Y-54750047D01*
X106022380Y-54511952D01*
X106070000Y-54416714D01*
X106117619Y-54369095D01*
X106212857Y-54321476D01*
X106308095Y-54321476D01*
X106450952Y-54369095D01*
X107022380Y-54940523D01*
X107022380Y-54321476D01*
X106117619Y-53940523D02*
X106070000Y-53892904D01*
X106022380Y-53797666D01*
X106022380Y-53559571D01*
X106070000Y-53464333D01*
X106117619Y-53416714D01*
X106212857Y-53369095D01*
X106308095Y-53369095D01*
X106450952Y-53416714D01*
X107022380Y-53988142D01*
X107022380Y-53369095D01*
%TO.C,R16*%
X97382380Y-42542857D02*
X96906190Y-42876190D01*
X97382380Y-43114285D02*
X96382380Y-43114285D01*
X96382380Y-42733333D01*
X96430000Y-42638095D01*
X96477619Y-42590476D01*
X96572857Y-42542857D01*
X96715714Y-42542857D01*
X96810952Y-42590476D01*
X96858571Y-42638095D01*
X96906190Y-42733333D01*
X96906190Y-43114285D01*
X97382380Y-41590476D02*
X97382380Y-42161904D01*
X97382380Y-41876190D02*
X96382380Y-41876190D01*
X96525238Y-41971428D01*
X96620476Y-42066666D01*
X96668095Y-42161904D01*
X96382380Y-40733333D02*
X96382380Y-40923809D01*
X96430000Y-41019047D01*
X96477619Y-41066666D01*
X96620476Y-41161904D01*
X96810952Y-41209523D01*
X97191904Y-41209523D01*
X97287142Y-41161904D01*
X97334761Y-41114285D01*
X97382380Y-41019047D01*
X97382380Y-40828571D01*
X97334761Y-40733333D01*
X97287142Y-40685714D01*
X97191904Y-40638095D01*
X96953809Y-40638095D01*
X96858571Y-40685714D01*
X96810952Y-40733333D01*
X96763333Y-40828571D01*
X96763333Y-41019047D01*
X96810952Y-41114285D01*
X96858571Y-41161904D01*
X96953809Y-41209523D01*
%TO.C,R15*%
X93682380Y-42542857D02*
X93206190Y-42876190D01*
X93682380Y-43114285D02*
X92682380Y-43114285D01*
X92682380Y-42733333D01*
X92730000Y-42638095D01*
X92777619Y-42590476D01*
X92872857Y-42542857D01*
X93015714Y-42542857D01*
X93110952Y-42590476D01*
X93158571Y-42638095D01*
X93206190Y-42733333D01*
X93206190Y-43114285D01*
X93682380Y-41590476D02*
X93682380Y-42161904D01*
X93682380Y-41876190D02*
X92682380Y-41876190D01*
X92825238Y-41971428D01*
X92920476Y-42066666D01*
X92968095Y-42161904D01*
X92682380Y-40685714D02*
X92682380Y-41161904D01*
X93158571Y-41209523D01*
X93110952Y-41161904D01*
X93063333Y-41066666D01*
X93063333Y-40828571D01*
X93110952Y-40733333D01*
X93158571Y-40685714D01*
X93253809Y-40638095D01*
X93491904Y-40638095D01*
X93587142Y-40685714D01*
X93634761Y-40733333D01*
X93682380Y-40828571D01*
X93682380Y-41066666D01*
X93634761Y-41161904D01*
X93587142Y-41209523D01*
%TO.C,U3*%
X74676095Y-57470380D02*
X74676095Y-58279904D01*
X74723714Y-58375142D01*
X74771333Y-58422761D01*
X74866571Y-58470380D01*
X75057047Y-58470380D01*
X75152285Y-58422761D01*
X75199904Y-58375142D01*
X75247523Y-58279904D01*
X75247523Y-57470380D01*
X75628476Y-57470380D02*
X76247523Y-57470380D01*
X75914190Y-57851333D01*
X76057047Y-57851333D01*
X76152285Y-57898952D01*
X76199904Y-57946571D01*
X76247523Y-58041809D01*
X76247523Y-58279904D01*
X76199904Y-58375142D01*
X76152285Y-58422761D01*
X76057047Y-58470380D01*
X75771333Y-58470380D01*
X75676095Y-58422761D01*
X75628476Y-58375142D01*
%TO.C,R30*%
X96624380Y-49297857D02*
X96148190Y-49631190D01*
X96624380Y-49869285D02*
X95624380Y-49869285D01*
X95624380Y-49488333D01*
X95672000Y-49393095D01*
X95719619Y-49345476D01*
X95814857Y-49297857D01*
X95957714Y-49297857D01*
X96052952Y-49345476D01*
X96100571Y-49393095D01*
X96148190Y-49488333D01*
X96148190Y-49869285D01*
X95624380Y-48964523D02*
X95624380Y-48345476D01*
X96005333Y-48678809D01*
X96005333Y-48535952D01*
X96052952Y-48440714D01*
X96100571Y-48393095D01*
X96195809Y-48345476D01*
X96433904Y-48345476D01*
X96529142Y-48393095D01*
X96576761Y-48440714D01*
X96624380Y-48535952D01*
X96624380Y-48821666D01*
X96576761Y-48916904D01*
X96529142Y-48964523D01*
X95624380Y-47726428D02*
X95624380Y-47631190D01*
X95672000Y-47535952D01*
X95719619Y-47488333D01*
X95814857Y-47440714D01*
X96005333Y-47393095D01*
X96243428Y-47393095D01*
X96433904Y-47440714D01*
X96529142Y-47488333D01*
X96576761Y-47535952D01*
X96624380Y-47631190D01*
X96624380Y-47726428D01*
X96576761Y-47821666D01*
X96529142Y-47869285D01*
X96433904Y-47916904D01*
X96243428Y-47964523D01*
X96005333Y-47964523D01*
X95814857Y-47916904D01*
X95719619Y-47869285D01*
X95672000Y-47821666D01*
X95624380Y-47726428D01*
%TO.C,Q3*%
X101425619Y-38703238D02*
X101378000Y-38798476D01*
X101282761Y-38893714D01*
X101139904Y-39036571D01*
X101092285Y-39131809D01*
X101092285Y-39227047D01*
X101330380Y-39179428D02*
X101282761Y-39274666D01*
X101187523Y-39369904D01*
X100997047Y-39417523D01*
X100663714Y-39417523D01*
X100473238Y-39369904D01*
X100378000Y-39274666D01*
X100330380Y-39179428D01*
X100330380Y-38988952D01*
X100378000Y-38893714D01*
X100473238Y-38798476D01*
X100663714Y-38750857D01*
X100997047Y-38750857D01*
X101187523Y-38798476D01*
X101282761Y-38893714D01*
X101330380Y-38988952D01*
X101330380Y-39179428D01*
X100330380Y-38417523D02*
X100330380Y-37798476D01*
X100711333Y-38131809D01*
X100711333Y-37988952D01*
X100758952Y-37893714D01*
X100806571Y-37846095D01*
X100901809Y-37798476D01*
X101139904Y-37798476D01*
X101235142Y-37846095D01*
X101282761Y-37893714D01*
X101330380Y-37988952D01*
X101330380Y-38274666D01*
X101282761Y-38369904D01*
X101235142Y-38417523D01*
%TO.C,R29*%
X95796380Y-49297857D02*
X95320190Y-49631190D01*
X95796380Y-49869285D02*
X94796380Y-49869285D01*
X94796380Y-49488333D01*
X94844000Y-49393095D01*
X94891619Y-49345476D01*
X94986857Y-49297857D01*
X95129714Y-49297857D01*
X95224952Y-49345476D01*
X95272571Y-49393095D01*
X95320190Y-49488333D01*
X95320190Y-49869285D01*
X94891619Y-48916904D02*
X94844000Y-48869285D01*
X94796380Y-48774047D01*
X94796380Y-48535952D01*
X94844000Y-48440714D01*
X94891619Y-48393095D01*
X94986857Y-48345476D01*
X95082095Y-48345476D01*
X95224952Y-48393095D01*
X95796380Y-48964523D01*
X95796380Y-48345476D01*
X95796380Y-47869285D02*
X95796380Y-47678809D01*
X95748761Y-47583571D01*
X95701142Y-47535952D01*
X95558285Y-47440714D01*
X95367809Y-47393095D01*
X94986857Y-47393095D01*
X94891619Y-47440714D01*
X94844000Y-47488333D01*
X94796380Y-47583571D01*
X94796380Y-47774047D01*
X94844000Y-47869285D01*
X94891619Y-47916904D01*
X94986857Y-47964523D01*
X95224952Y-47964523D01*
X95320190Y-47916904D01*
X95367809Y-47869285D01*
X95415428Y-47774047D01*
X95415428Y-47583571D01*
X95367809Y-47488333D01*
X95320190Y-47440714D01*
X95224952Y-47393095D01*
%TO.C,R28*%
X95369142Y-57222380D02*
X95035809Y-56746190D01*
X94797714Y-57222380D02*
X94797714Y-56222380D01*
X95178666Y-56222380D01*
X95273904Y-56270000D01*
X95321523Y-56317619D01*
X95369142Y-56412857D01*
X95369142Y-56555714D01*
X95321523Y-56650952D01*
X95273904Y-56698571D01*
X95178666Y-56746190D01*
X94797714Y-56746190D01*
X95750095Y-56317619D02*
X95797714Y-56270000D01*
X95892952Y-56222380D01*
X96131047Y-56222380D01*
X96226285Y-56270000D01*
X96273904Y-56317619D01*
X96321523Y-56412857D01*
X96321523Y-56508095D01*
X96273904Y-56650952D01*
X95702476Y-57222380D01*
X96321523Y-57222380D01*
X96892952Y-56650952D02*
X96797714Y-56603333D01*
X96750095Y-56555714D01*
X96702476Y-56460476D01*
X96702476Y-56412857D01*
X96750095Y-56317619D01*
X96797714Y-56270000D01*
X96892952Y-56222380D01*
X97083428Y-56222380D01*
X97178666Y-56270000D01*
X97226285Y-56317619D01*
X97273904Y-56412857D01*
X97273904Y-56460476D01*
X97226285Y-56555714D01*
X97178666Y-56603333D01*
X97083428Y-56650952D01*
X96892952Y-56650952D01*
X96797714Y-56698571D01*
X96750095Y-56746190D01*
X96702476Y-56841428D01*
X96702476Y-57031904D01*
X96750095Y-57127142D01*
X96797714Y-57174761D01*
X96892952Y-57222380D01*
X97083428Y-57222380D01*
X97178666Y-57174761D01*
X97226285Y-57127142D01*
X97273904Y-57031904D01*
X97273904Y-56841428D01*
X97226285Y-56746190D01*
X97178666Y-56698571D01*
X97083428Y-56650952D01*
%TO.C,R21*%
X100982380Y-42542857D02*
X100506190Y-42876190D01*
X100982380Y-43114285D02*
X99982380Y-43114285D01*
X99982380Y-42733333D01*
X100030000Y-42638095D01*
X100077619Y-42590476D01*
X100172857Y-42542857D01*
X100315714Y-42542857D01*
X100410952Y-42590476D01*
X100458571Y-42638095D01*
X100506190Y-42733333D01*
X100506190Y-43114285D01*
X100077619Y-42161904D02*
X100030000Y-42114285D01*
X99982380Y-42019047D01*
X99982380Y-41780952D01*
X100030000Y-41685714D01*
X100077619Y-41638095D01*
X100172857Y-41590476D01*
X100268095Y-41590476D01*
X100410952Y-41638095D01*
X100982380Y-42209523D01*
X100982380Y-41590476D01*
X100982380Y-40638095D02*
X100982380Y-41209523D01*
X100982380Y-40923809D02*
X99982380Y-40923809D01*
X100125238Y-41019047D01*
X100220476Y-41114285D01*
X100268095Y-41209523D01*
%TO.C,R1*%
X112382380Y-51866666D02*
X111906190Y-52200000D01*
X112382380Y-52438095D02*
X111382380Y-52438095D01*
X111382380Y-52057142D01*
X111430000Y-51961904D01*
X111477619Y-51914285D01*
X111572857Y-51866666D01*
X111715714Y-51866666D01*
X111810952Y-51914285D01*
X111858571Y-51961904D01*
X111906190Y-52057142D01*
X111906190Y-52438095D01*
X112382380Y-50914285D02*
X112382380Y-51485714D01*
X112382380Y-51200000D02*
X111382380Y-51200000D01*
X111525238Y-51295238D01*
X111620476Y-51390476D01*
X111668095Y-51485714D01*
%TO.C,R2*%
X87765333Y-49586380D02*
X87432000Y-49110190D01*
X87193904Y-49586380D02*
X87193904Y-48586380D01*
X87574857Y-48586380D01*
X87670095Y-48634000D01*
X87717714Y-48681619D01*
X87765333Y-48776857D01*
X87765333Y-48919714D01*
X87717714Y-49014952D01*
X87670095Y-49062571D01*
X87574857Y-49110190D01*
X87193904Y-49110190D01*
X88146285Y-48681619D02*
X88193904Y-48634000D01*
X88289142Y-48586380D01*
X88527238Y-48586380D01*
X88622476Y-48634000D01*
X88670095Y-48681619D01*
X88717714Y-48776857D01*
X88717714Y-48872095D01*
X88670095Y-49014952D01*
X88098666Y-49586380D01*
X88717714Y-49586380D01*
%TO.C,C1*%
X105356142Y-48256666D02*
X105403761Y-48304285D01*
X105451380Y-48447142D01*
X105451380Y-48542380D01*
X105403761Y-48685238D01*
X105308523Y-48780476D01*
X105213285Y-48828095D01*
X105022809Y-48875714D01*
X104879952Y-48875714D01*
X104689476Y-48828095D01*
X104594238Y-48780476D01*
X104499000Y-48685238D01*
X104451380Y-48542380D01*
X104451380Y-48447142D01*
X104499000Y-48304285D01*
X104546619Y-48256666D01*
X105451380Y-47304285D02*
X105451380Y-47875714D01*
X105451380Y-47590000D02*
X104451380Y-47590000D01*
X104594238Y-47685238D01*
X104689476Y-47780476D01*
X104737095Y-47875714D01*
%TO.C,C3*%
X124350333Y-50143142D02*
X124302714Y-50190761D01*
X124159857Y-50238380D01*
X124064619Y-50238380D01*
X123921761Y-50190761D01*
X123826523Y-50095523D01*
X123778904Y-50000285D01*
X123731285Y-49809809D01*
X123731285Y-49666952D01*
X123778904Y-49476476D01*
X123826523Y-49381238D01*
X123921761Y-49286000D01*
X124064619Y-49238380D01*
X124159857Y-49238380D01*
X124302714Y-49286000D01*
X124350333Y-49333619D01*
X124683666Y-49238380D02*
X125302714Y-49238380D01*
X124969380Y-49619333D01*
X125112238Y-49619333D01*
X125207476Y-49666952D01*
X125255095Y-49714571D01*
X125302714Y-49809809D01*
X125302714Y-50047904D01*
X125255095Y-50143142D01*
X125207476Y-50190761D01*
X125112238Y-50238380D01*
X124826523Y-50238380D01*
X124731285Y-50190761D01*
X124683666Y-50143142D01*
%TO.C,C4*%
X106936142Y-48618666D02*
X106983761Y-48666285D01*
X107031380Y-48809142D01*
X107031380Y-48904380D01*
X106983761Y-49047238D01*
X106888523Y-49142476D01*
X106793285Y-49190095D01*
X106602809Y-49237714D01*
X106459952Y-49237714D01*
X106269476Y-49190095D01*
X106174238Y-49142476D01*
X106079000Y-49047238D01*
X106031380Y-48904380D01*
X106031380Y-48809142D01*
X106079000Y-48666285D01*
X106126619Y-48618666D01*
X106364714Y-47761523D02*
X107031380Y-47761523D01*
X105983761Y-47999619D02*
X106698047Y-48237714D01*
X106698047Y-47618666D01*
%TO.C,IC1*%
X108108809Y-44642380D02*
X108108809Y-43642380D01*
X109156428Y-44547142D02*
X109108809Y-44594761D01*
X108965952Y-44642380D01*
X108870714Y-44642380D01*
X108727857Y-44594761D01*
X108632619Y-44499523D01*
X108585000Y-44404285D01*
X108537380Y-44213809D01*
X108537380Y-44070952D01*
X108585000Y-43880476D01*
X108632619Y-43785238D01*
X108727857Y-43690000D01*
X108870714Y-43642380D01*
X108965952Y-43642380D01*
X109108809Y-43690000D01*
X109156428Y-43737619D01*
X110108809Y-44642380D02*
X109537380Y-44642380D01*
X109823095Y-44642380D02*
X109823095Y-43642380D01*
X109727857Y-43785238D01*
X109632619Y-43880476D01*
X109537380Y-43928095D01*
%TO.C,L1*%
X107648333Y-40316380D02*
X107172142Y-40316380D01*
X107172142Y-39316380D01*
X108505476Y-40316380D02*
X107934047Y-40316380D01*
X108219761Y-40316380D02*
X108219761Y-39316380D01*
X108124523Y-39459238D01*
X108029285Y-39554476D01*
X107934047Y-39602095D01*
%TO.C,C2*%
X113887142Y-51891666D02*
X113934761Y-51939285D01*
X113982380Y-52082142D01*
X113982380Y-52177380D01*
X113934761Y-52320238D01*
X113839523Y-52415476D01*
X113744285Y-52463095D01*
X113553809Y-52510714D01*
X113410952Y-52510714D01*
X113220476Y-52463095D01*
X113125238Y-52415476D01*
X113030000Y-52320238D01*
X112982380Y-52177380D01*
X112982380Y-52082142D01*
X113030000Y-51939285D01*
X113077619Y-51891666D01*
X113077619Y-51510714D02*
X113030000Y-51463095D01*
X112982380Y-51367857D01*
X112982380Y-51129761D01*
X113030000Y-51034523D01*
X113077619Y-50986904D01*
X113172857Y-50939285D01*
X113268095Y-50939285D01*
X113410952Y-50986904D01*
X113982380Y-51558333D01*
X113982380Y-50939285D01*
%TO.C,C5*%
X107933333Y-34837142D02*
X107885714Y-34884761D01*
X107742857Y-34932380D01*
X107647619Y-34932380D01*
X107504761Y-34884761D01*
X107409523Y-34789523D01*
X107361904Y-34694285D01*
X107314285Y-34503809D01*
X107314285Y-34360952D01*
X107361904Y-34170476D01*
X107409523Y-34075238D01*
X107504761Y-33980000D01*
X107647619Y-33932380D01*
X107742857Y-33932380D01*
X107885714Y-33980000D01*
X107933333Y-34027619D01*
X108838095Y-33932380D02*
X108361904Y-33932380D01*
X108314285Y-34408571D01*
X108361904Y-34360952D01*
X108457142Y-34313333D01*
X108695238Y-34313333D01*
X108790476Y-34360952D01*
X108838095Y-34408571D01*
X108885714Y-34503809D01*
X108885714Y-34741904D01*
X108838095Y-34837142D01*
X108790476Y-34884761D01*
X108695238Y-34932380D01*
X108457142Y-34932380D01*
X108361904Y-34884761D01*
X108314285Y-34837142D01*
%TO.C,R36*%
X101422380Y-55242857D02*
X100946190Y-55576190D01*
X101422380Y-55814285D02*
X100422380Y-55814285D01*
X100422380Y-55433333D01*
X100470000Y-55338095D01*
X100517619Y-55290476D01*
X100612857Y-55242857D01*
X100755714Y-55242857D01*
X100850952Y-55290476D01*
X100898571Y-55338095D01*
X100946190Y-55433333D01*
X100946190Y-55814285D01*
X100422380Y-54909523D02*
X100422380Y-54290476D01*
X100803333Y-54623809D01*
X100803333Y-54480952D01*
X100850952Y-54385714D01*
X100898571Y-54338095D01*
X100993809Y-54290476D01*
X101231904Y-54290476D01*
X101327142Y-54338095D01*
X101374761Y-54385714D01*
X101422380Y-54480952D01*
X101422380Y-54766666D01*
X101374761Y-54861904D01*
X101327142Y-54909523D01*
X100422380Y-53433333D02*
X100422380Y-53623809D01*
X100470000Y-53719047D01*
X100517619Y-53766666D01*
X100660476Y-53861904D01*
X100850952Y-53909523D01*
X101231904Y-53909523D01*
X101327142Y-53861904D01*
X101374761Y-53814285D01*
X101422380Y-53719047D01*
X101422380Y-53528571D01*
X101374761Y-53433333D01*
X101327142Y-53385714D01*
X101231904Y-53338095D01*
X100993809Y-53338095D01*
X100898571Y-53385714D01*
X100850952Y-53433333D01*
X100803333Y-53528571D01*
X100803333Y-53719047D01*
X100850952Y-53814285D01*
X100898571Y-53861904D01*
X100993809Y-53909523D01*
%TO.C,R37*%
X98022380Y-55242857D02*
X97546190Y-55576190D01*
X98022380Y-55814285D02*
X97022380Y-55814285D01*
X97022380Y-55433333D01*
X97070000Y-55338095D01*
X97117619Y-55290476D01*
X97212857Y-55242857D01*
X97355714Y-55242857D01*
X97450952Y-55290476D01*
X97498571Y-55338095D01*
X97546190Y-55433333D01*
X97546190Y-55814285D01*
X97022380Y-54909523D02*
X97022380Y-54290476D01*
X97403333Y-54623809D01*
X97403333Y-54480952D01*
X97450952Y-54385714D01*
X97498571Y-54338095D01*
X97593809Y-54290476D01*
X97831904Y-54290476D01*
X97927142Y-54338095D01*
X97974761Y-54385714D01*
X98022380Y-54480952D01*
X98022380Y-54766666D01*
X97974761Y-54861904D01*
X97927142Y-54909523D01*
X97022380Y-53957142D02*
X97022380Y-53290476D01*
X98022380Y-53719047D01*
%TO.C,R33*%
X105022380Y-55217857D02*
X104546190Y-55551190D01*
X105022380Y-55789285D02*
X104022380Y-55789285D01*
X104022380Y-55408333D01*
X104070000Y-55313095D01*
X104117619Y-55265476D01*
X104212857Y-55217857D01*
X104355714Y-55217857D01*
X104450952Y-55265476D01*
X104498571Y-55313095D01*
X104546190Y-55408333D01*
X104546190Y-55789285D01*
X104022380Y-54884523D02*
X104022380Y-54265476D01*
X104403333Y-54598809D01*
X104403333Y-54455952D01*
X104450952Y-54360714D01*
X104498571Y-54313095D01*
X104593809Y-54265476D01*
X104831904Y-54265476D01*
X104927142Y-54313095D01*
X104974761Y-54360714D01*
X105022380Y-54455952D01*
X105022380Y-54741666D01*
X104974761Y-54836904D01*
X104927142Y-54884523D01*
X104022380Y-53932142D02*
X104022380Y-53313095D01*
X104403333Y-53646428D01*
X104403333Y-53503571D01*
X104450952Y-53408333D01*
X104498571Y-53360714D01*
X104593809Y-53313095D01*
X104831904Y-53313095D01*
X104927142Y-53360714D01*
X104974761Y-53408333D01*
X105022380Y-53503571D01*
X105022380Y-53789285D01*
X104974761Y-53884523D01*
X104927142Y-53932142D01*
%TO.C,R35*%
X106182380Y-42542857D02*
X105706190Y-42876190D01*
X106182380Y-43114285D02*
X105182380Y-43114285D01*
X105182380Y-42733333D01*
X105230000Y-42638095D01*
X105277619Y-42590476D01*
X105372857Y-42542857D01*
X105515714Y-42542857D01*
X105610952Y-42590476D01*
X105658571Y-42638095D01*
X105706190Y-42733333D01*
X105706190Y-43114285D01*
X105182380Y-42209523D02*
X105182380Y-41590476D01*
X105563333Y-41923809D01*
X105563333Y-41780952D01*
X105610952Y-41685714D01*
X105658571Y-41638095D01*
X105753809Y-41590476D01*
X105991904Y-41590476D01*
X106087142Y-41638095D01*
X106134761Y-41685714D01*
X106182380Y-41780952D01*
X106182380Y-42066666D01*
X106134761Y-42161904D01*
X106087142Y-42209523D01*
X105182380Y-40685714D02*
X105182380Y-41161904D01*
X105658571Y-41209523D01*
X105610952Y-41161904D01*
X105563333Y-41066666D01*
X105563333Y-40828571D01*
X105610952Y-40733333D01*
X105658571Y-40685714D01*
X105753809Y-40638095D01*
X105991904Y-40638095D01*
X106087142Y-40685714D01*
X106134761Y-40733333D01*
X106182380Y-40828571D01*
X106182380Y-41066666D01*
X106134761Y-41161904D01*
X106087142Y-41209523D01*
%TO.C,R39*%
X99082380Y-42542857D02*
X98606190Y-42876190D01*
X99082380Y-43114285D02*
X98082380Y-43114285D01*
X98082380Y-42733333D01*
X98130000Y-42638095D01*
X98177619Y-42590476D01*
X98272857Y-42542857D01*
X98415714Y-42542857D01*
X98510952Y-42590476D01*
X98558571Y-42638095D01*
X98606190Y-42733333D01*
X98606190Y-43114285D01*
X98082380Y-42209523D02*
X98082380Y-41590476D01*
X98463333Y-41923809D01*
X98463333Y-41780952D01*
X98510952Y-41685714D01*
X98558571Y-41638095D01*
X98653809Y-41590476D01*
X98891904Y-41590476D01*
X98987142Y-41638095D01*
X99034761Y-41685714D01*
X99082380Y-41780952D01*
X99082380Y-42066666D01*
X99034761Y-42161904D01*
X98987142Y-42209523D01*
X99082380Y-41114285D02*
X99082380Y-40923809D01*
X99034761Y-40828571D01*
X98987142Y-40780952D01*
X98844285Y-40685714D01*
X98653809Y-40638095D01*
X98272857Y-40638095D01*
X98177619Y-40685714D01*
X98130000Y-40733333D01*
X98082380Y-40828571D01*
X98082380Y-41019047D01*
X98130000Y-41114285D01*
X98177619Y-41161904D01*
X98272857Y-41209523D01*
X98510952Y-41209523D01*
X98606190Y-41161904D01*
X98653809Y-41114285D01*
X98701428Y-41019047D01*
X98701428Y-40828571D01*
X98653809Y-40733333D01*
X98606190Y-40685714D01*
X98510952Y-40638095D01*
%TO.C,D1*%
X107461904Y-41152380D02*
X107461904Y-40152380D01*
X107700000Y-40152380D01*
X107842857Y-40200000D01*
X107938095Y-40295238D01*
X107985714Y-40390476D01*
X108033333Y-40580952D01*
X108033333Y-40723809D01*
X107985714Y-40914285D01*
X107938095Y-41009523D01*
X107842857Y-41104761D01*
X107700000Y-41152380D01*
X107461904Y-41152380D01*
X108985714Y-41152380D02*
X108414285Y-41152380D01*
X108700000Y-41152380D02*
X108700000Y-40152380D01*
X108604761Y-40295238D01*
X108509523Y-40390476D01*
X108414285Y-40438095D01*
%TO.C,R34*%
X102582380Y-42542857D02*
X102106190Y-42876190D01*
X102582380Y-43114285D02*
X101582380Y-43114285D01*
X101582380Y-42733333D01*
X101630000Y-42638095D01*
X101677619Y-42590476D01*
X101772857Y-42542857D01*
X101915714Y-42542857D01*
X102010952Y-42590476D01*
X102058571Y-42638095D01*
X102106190Y-42733333D01*
X102106190Y-43114285D01*
X101582380Y-42209523D02*
X101582380Y-41590476D01*
X101963333Y-41923809D01*
X101963333Y-41780952D01*
X102010952Y-41685714D01*
X102058571Y-41638095D01*
X102153809Y-41590476D01*
X102391904Y-41590476D01*
X102487142Y-41638095D01*
X102534761Y-41685714D01*
X102582380Y-41780952D01*
X102582380Y-42066666D01*
X102534761Y-42161904D01*
X102487142Y-42209523D01*
X101915714Y-40733333D02*
X102582380Y-40733333D01*
X101534761Y-40971428D02*
X102249047Y-41209523D01*
X102249047Y-40590476D01*
%TO.C,R40*%
X95482380Y-42542857D02*
X95006190Y-42876190D01*
X95482380Y-43114285D02*
X94482380Y-43114285D01*
X94482380Y-42733333D01*
X94530000Y-42638095D01*
X94577619Y-42590476D01*
X94672857Y-42542857D01*
X94815714Y-42542857D01*
X94910952Y-42590476D01*
X94958571Y-42638095D01*
X95006190Y-42733333D01*
X95006190Y-43114285D01*
X94815714Y-41685714D02*
X95482380Y-41685714D01*
X94434761Y-41923809D02*
X95149047Y-42161904D01*
X95149047Y-41542857D01*
X94482380Y-40971428D02*
X94482380Y-40876190D01*
X94530000Y-40780952D01*
X94577619Y-40733333D01*
X94672857Y-40685714D01*
X94863333Y-40638095D01*
X95101428Y-40638095D01*
X95291904Y-40685714D01*
X95387142Y-40733333D01*
X95434761Y-40780952D01*
X95482380Y-40876190D01*
X95482380Y-40971428D01*
X95434761Y-41066666D01*
X95387142Y-41114285D01*
X95291904Y-41161904D01*
X95101428Y-41209523D01*
X94863333Y-41209523D01*
X94672857Y-41161904D01*
X94577619Y-41114285D01*
X94530000Y-41066666D01*
X94482380Y-40971428D01*
%TO.C,R38*%
X81422380Y-56842857D02*
X80946190Y-57176190D01*
X81422380Y-57414285D02*
X80422380Y-57414285D01*
X80422380Y-57033333D01*
X80470000Y-56938095D01*
X80517619Y-56890476D01*
X80612857Y-56842857D01*
X80755714Y-56842857D01*
X80850952Y-56890476D01*
X80898571Y-56938095D01*
X80946190Y-57033333D01*
X80946190Y-57414285D01*
X80422380Y-56509523D02*
X80422380Y-55890476D01*
X80803333Y-56223809D01*
X80803333Y-56080952D01*
X80850952Y-55985714D01*
X80898571Y-55938095D01*
X80993809Y-55890476D01*
X81231904Y-55890476D01*
X81327142Y-55938095D01*
X81374761Y-55985714D01*
X81422380Y-56080952D01*
X81422380Y-56366666D01*
X81374761Y-56461904D01*
X81327142Y-56509523D01*
X80850952Y-55319047D02*
X80803333Y-55414285D01*
X80755714Y-55461904D01*
X80660476Y-55509523D01*
X80612857Y-55509523D01*
X80517619Y-55461904D01*
X80470000Y-55414285D01*
X80422380Y-55319047D01*
X80422380Y-55128571D01*
X80470000Y-55033333D01*
X80517619Y-54985714D01*
X80612857Y-54938095D01*
X80660476Y-54938095D01*
X80755714Y-54985714D01*
X80803333Y-55033333D01*
X80850952Y-55128571D01*
X80850952Y-55319047D01*
X80898571Y-55414285D01*
X80946190Y-55461904D01*
X81041428Y-55509523D01*
X81231904Y-55509523D01*
X81327142Y-55461904D01*
X81374761Y-55414285D01*
X81422380Y-55319047D01*
X81422380Y-55128571D01*
X81374761Y-55033333D01*
X81327142Y-54985714D01*
X81231904Y-54938095D01*
X81041428Y-54938095D01*
X80946190Y-54985714D01*
X80898571Y-55033333D01*
X80850952Y-55128571D01*
D11*
%TO.C,IC2*%
X74482001Y-59684000D02*
X109482001Y-59684000D01*
X74482001Y-36684000D02*
X74482001Y-59684000D01*
X109482001Y-59684000D02*
X109482001Y-36684000D01*
X109482001Y-36684000D02*
X74482001Y-36684000D01*
%TO.C,J1*%
X72930000Y-52775000D02*
X72930000Y-54105000D01*
X72930000Y-48905000D02*
X70270000Y-48905000D01*
X72930000Y-51505000D02*
X72930000Y-48905000D01*
X72930000Y-51505000D02*
X70270000Y-51505000D01*
X72930000Y-54105000D02*
X71600000Y-54105000D01*
X70270000Y-51505000D02*
X70270000Y-48905000D01*
%TO.C,C11*%
X77722000Y-54356420D02*
X77722000Y-54637580D01*
X78742000Y-54356420D02*
X78742000Y-54637580D01*
%TO.C,C12*%
X75184420Y-52834000D02*
X75465580Y-52834000D01*
X75184420Y-51814000D02*
X75465580Y-51814000D01*
%TO.C,R20*%
X103022500Y-41662742D02*
X103022500Y-42137258D01*
X101977500Y-41662742D02*
X101977500Y-42137258D01*
%TO.C,Q11*%
X96322000Y-56386000D02*
X95392000Y-56386000D01*
X93162000Y-56386000D02*
X94092000Y-56386000D01*
X96322000Y-56386000D02*
X96322000Y-54226000D01*
X93162000Y-56386000D02*
X93162000Y-54926000D01*
%TO.C,Q7*%
X94686000Y-37848000D02*
X94686000Y-40008000D01*
X94686000Y-37848000D02*
X95616000Y-37848000D01*
X97846000Y-37848000D02*
X96916000Y-37848000D01*
X97846000Y-37848000D02*
X97846000Y-39308000D01*
%TO.C,Q9*%
X90480000Y-56132000D02*
X89550000Y-56132000D01*
X90480000Y-56132000D02*
X90480000Y-53972000D01*
X87320000Y-56132000D02*
X87320000Y-54672000D01*
X87320000Y-56132000D02*
X88250000Y-56132000D01*
%TO.C,R19*%
X104822500Y-54812258D02*
X104822500Y-54337742D01*
X103777500Y-54812258D02*
X103777500Y-54337742D01*
%TO.C,R18*%
X101322500Y-54837258D02*
X101322500Y-54362742D01*
X100277500Y-54837258D02*
X100277500Y-54362742D01*
%TO.C,R17*%
X79995500Y-54593258D02*
X79995500Y-54118742D01*
X81040500Y-54593258D02*
X81040500Y-54118742D01*
%TO.C,Q8*%
X94290000Y-37848000D02*
X93360000Y-37848000D01*
X94290000Y-37848000D02*
X94290000Y-39308000D01*
X91130000Y-37848000D02*
X92060000Y-37848000D01*
X91130000Y-37848000D02*
X91130000Y-40008000D01*
%TO.C,Q5*%
X98242000Y-58672000D02*
X98242000Y-57212000D01*
X101402000Y-58672000D02*
X101402000Y-56512000D01*
X98242000Y-58672000D02*
X99172000Y-58672000D01*
X101402000Y-58672000D02*
X100472000Y-58672000D01*
%TO.C,Q2*%
X98242000Y-37848000D02*
X99172000Y-37848000D01*
X101402000Y-37848000D02*
X100472000Y-37848000D01*
X101402000Y-37848000D02*
X101402000Y-39308000D01*
X98242000Y-37848000D02*
X98242000Y-40008000D01*
%TO.C,R25*%
X90409500Y-48497258D02*
X90409500Y-48022742D01*
X91454500Y-48497258D02*
X91454500Y-48022742D01*
%TO.C,R24*%
X87631748Y-57456000D02*
X88154252Y-57456000D01*
X87631748Y-58876000D02*
X88154252Y-58876000D01*
%TO.C,C17*%
X75184420Y-57402000D02*
X75465580Y-57402000D01*
X75184420Y-58422000D02*
X75465580Y-58422000D01*
%TO.C,Q1*%
X105354000Y-58672000D02*
X106284000Y-58672000D01*
X108514000Y-58672000D02*
X108514000Y-56512000D01*
X105354000Y-58672000D02*
X105354000Y-57212000D01*
X108514000Y-58672000D02*
X107584000Y-58672000D01*
%TO.C,Q6*%
X81082000Y-58672000D02*
X80152000Y-58672000D01*
X77922000Y-58672000D02*
X77922000Y-57212000D01*
X77922000Y-58672000D02*
X78852000Y-58672000D01*
X81082000Y-58672000D02*
X81082000Y-56512000D01*
%TO.C,Q10*%
X88336000Y-52576000D02*
X89266000Y-52576000D01*
X88336000Y-52576000D02*
X88336000Y-51116000D01*
X91496000Y-52576000D02*
X90566000Y-52576000D01*
X91496000Y-52576000D02*
X91496000Y-50416000D01*
%TO.C,Q4*%
X104958000Y-58672000D02*
X104958000Y-56512000D01*
X101798000Y-58672000D02*
X102728000Y-58672000D01*
X104958000Y-58672000D02*
X104028000Y-58672000D01*
X101798000Y-58672000D02*
X101798000Y-57212000D01*
%TO.C,Q12*%
X94178000Y-52830000D02*
X95108000Y-52830000D01*
X97338000Y-52830000D02*
X96408000Y-52830000D01*
X94178000Y-52830000D02*
X94178000Y-51370000D01*
X97338000Y-52830000D02*
X97338000Y-50670000D01*
%TO.C,R27*%
X93740500Y-51973742D02*
X93740500Y-52448258D01*
X92695500Y-51973742D02*
X92695500Y-52448258D01*
%TO.C,R26*%
X88377500Y-48022742D02*
X88377500Y-48497258D01*
X89422500Y-48022742D02*
X89422500Y-48497258D01*
%TO.C,R23*%
X87898500Y-51719742D02*
X87898500Y-52194258D01*
X86853500Y-51719742D02*
X86853500Y-52194258D01*
%TO.C,R22*%
X107477500Y-54868258D02*
X107477500Y-54393742D01*
X108522500Y-54868258D02*
X108522500Y-54393742D01*
%TO.C,R16*%
X94977500Y-41662742D02*
X94977500Y-42137258D01*
X96022500Y-41662742D02*
X96022500Y-42137258D01*
%TO.C,R15*%
X92322500Y-41662742D02*
X92322500Y-42137258D01*
X91277500Y-41662742D02*
X91277500Y-42137258D01*
%TO.C,U3*%
X74538000Y-56728000D02*
X76988000Y-56728000D01*
X76338000Y-53508000D02*
X74538000Y-53508000D01*
%TO.C,R30*%
X94219500Y-48417742D02*
X94219500Y-48892258D01*
X95264500Y-48417742D02*
X95264500Y-48892258D01*
%TO.C,Q3*%
X101798000Y-37848000D02*
X102728000Y-37848000D01*
X104958000Y-37848000D02*
X104958000Y-39308000D01*
X101798000Y-37848000D02*
X101798000Y-40008000D01*
X104958000Y-37848000D02*
X104028000Y-37848000D01*
%TO.C,R29*%
X96251500Y-48892258D02*
X96251500Y-48417742D01*
X97296500Y-48892258D02*
X97296500Y-48417742D01*
%TO.C,R28*%
X95750748Y-59130000D02*
X96273252Y-59130000D01*
X95750748Y-57710000D02*
X96273252Y-57710000D01*
%TO.C,R21*%
X98577500Y-41662742D02*
X98577500Y-42137258D01*
X99622500Y-41662742D02*
X99622500Y-42137258D01*
%TO.C,R1*%
X111022500Y-51462742D02*
X111022500Y-51937258D01*
X109977500Y-51462742D02*
X109977500Y-51937258D01*
%TO.C,R2*%
X104462742Y-50367500D02*
X104937258Y-50367500D01*
X104462742Y-51412500D02*
X104937258Y-51412500D01*
%TO.C,C1*%
X102639000Y-47828748D02*
X102639000Y-48351252D01*
X104059000Y-47828748D02*
X104059000Y-48351252D01*
%TO.C,C3*%
X107608420Y-51400000D02*
X107889580Y-51400000D01*
X107608420Y-50380000D02*
X107889580Y-50380000D01*
%TO.C,C4*%
X104639000Y-48311420D02*
X104639000Y-48592580D01*
X105659000Y-48311420D02*
X105659000Y-48592580D01*
%TO.C,IC1*%
X109085000Y-45530000D02*
X106210000Y-45530000D01*
X109085000Y-49850000D02*
X107585000Y-49850000D01*
X109085000Y-49850000D02*
X110585000Y-49850000D01*
X109085000Y-45530000D02*
X110585000Y-45530000D01*
%TO.C,L1*%
X109969000Y-45018000D02*
X105661000Y-45018000D01*
X105661000Y-40710000D02*
X109969000Y-40710000D01*
%TO.C,C2*%
X112610000Y-51584420D02*
X112610000Y-51865580D01*
X111590000Y-51584420D02*
X111590000Y-51865580D01*
%TO.C,C5*%
X107497936Y-35390000D02*
X108702064Y-35390000D01*
X107497936Y-37210000D02*
X108702064Y-37210000D01*
%TO.C,R36*%
X101877500Y-54837258D02*
X101877500Y-54362742D01*
X102922500Y-54837258D02*
X102922500Y-54362742D01*
%TO.C,R37*%
X98477500Y-54837258D02*
X98477500Y-54362742D01*
X99522500Y-54837258D02*
X99522500Y-54362742D01*
%TO.C,R33*%
X106522500Y-54812258D02*
X106522500Y-54337742D01*
X105477500Y-54812258D02*
X105477500Y-54337742D01*
%TO.C,R35*%
X103777500Y-41662742D02*
X103777500Y-42137258D01*
X104822500Y-41662742D02*
X104822500Y-42137258D01*
%TO.C,R39*%
X96677500Y-41662742D02*
X96677500Y-42137258D01*
X97722500Y-41662742D02*
X97722500Y-42137258D01*
%TO.C,D1*%
X110450000Y-39700000D02*
X110450000Y-37700000D01*
X110450000Y-39700000D02*
X106550000Y-39700000D01*
X110450000Y-37700000D02*
X106550000Y-37700000D01*
%TO.C,R34*%
X101222500Y-41662742D02*
X101222500Y-42137258D01*
X100177500Y-41662742D02*
X100177500Y-42137258D01*
%TO.C,R40*%
X93077500Y-41662742D02*
X93077500Y-42137258D01*
X94122500Y-41662742D02*
X94122500Y-42137258D01*
%TO.C,R38*%
X81877500Y-56437258D02*
X81877500Y-55962742D01*
X82922500Y-56437258D02*
X82922500Y-55962742D01*
%TD*%
M02*
