%TF.GenerationSoftware,KiCad,Pcbnew,6.0.6-1.fc35*%
%TF.CreationDate,2022-07-26T21:01:35+02:00*%
%TF.ProjectId,Nixiewatch,4e697869-6577-4617-9463-682e6b696361,rev?*%
%TF.SameCoordinates,Original*%
%TF.FileFunction,Copper,L4,Bot*%
%TF.FilePolarity,Positive*%
%FSLAX46Y46*%
G04 Gerber Fmt 4.6, Leading zero omitted, Abs format (unit mm)*
G04 Created by KiCad (PCBNEW 6.0.6-1.fc35) date 2022-07-26 21:01:35*
%MOMM*%
%LPD*%
G01*
G04 APERTURE LIST*
G04 Aperture macros list*
%AMRoundRect*
0 Rectangle with rounded corners*
0 $1 Rounding radius*
0 $2 $3 $4 $5 $6 $7 $8 $9 X,Y pos of 4 corners*
0 Add a 4 corners polygon primitive as box body*
4,1,4,$2,$3,$4,$5,$6,$7,$8,$9,$2,$3,0*
0 Add four circle primitives for the rounded corners*
1,1,$1+$1,$2,$3*
1,1,$1+$1,$4,$5*
1,1,$1+$1,$6,$7*
1,1,$1+$1,$8,$9*
0 Add four rect primitives between the rounded corners*
20,1,$1+$1,$2,$3,$4,$5,0*
20,1,$1+$1,$4,$5,$6,$7,0*
20,1,$1+$1,$6,$7,$8,$9,0*
20,1,$1+$1,$8,$9,$2,$3,0*%
G04 Aperture macros list end*
%TA.AperFunction,ComponentPad*%
%ADD10C,1.700000*%
%TD*%
%TA.AperFunction,SMDPad,CuDef*%
%ADD11C,1.500000*%
%TD*%
%TA.AperFunction,SMDPad,CuDef*%
%ADD12RoundRect,0.200000X-0.275000X0.200000X-0.275000X-0.200000X0.275000X-0.200000X0.275000X0.200000X0*%
%TD*%
%TA.AperFunction,ComponentPad*%
%ADD13R,1.700000X1.700000*%
%TD*%
%TA.AperFunction,ComponentPad*%
%ADD14O,1.700000X1.700000*%
%TD*%
%TA.AperFunction,SMDPad,CuDef*%
%ADD15RoundRect,0.225000X-0.225000X-0.250000X0.225000X-0.250000X0.225000X0.250000X-0.225000X0.250000X0*%
%TD*%
%TA.AperFunction,SMDPad,CuDef*%
%ADD16RoundRect,0.200000X0.275000X-0.200000X0.275000X0.200000X-0.275000X0.200000X-0.275000X-0.200000X0*%
%TD*%
%TA.AperFunction,SMDPad,CuDef*%
%ADD17R,1.060000X0.650000*%
%TD*%
%TA.AperFunction,ComponentPad*%
%ADD18C,0.550000*%
%TD*%
%TA.AperFunction,SMDPad,CuDef*%
%ADD19RoundRect,0.249999X-0.575501X-1.172501X0.575501X-1.172501X0.575501X1.172501X-0.575501X1.172501X0*%
%TD*%
%TA.AperFunction,SMDPad,CuDef*%
%ADD20RoundRect,0.225000X-0.250000X0.225000X-0.250000X-0.225000X0.250000X-0.225000X0.250000X0.225000X0*%
%TD*%
%TA.AperFunction,SMDPad,CuDef*%
%ADD21RoundRect,0.225000X0.225000X0.250000X-0.225000X0.250000X-0.225000X-0.250000X0.225000X-0.250000X0*%
%TD*%
%TA.AperFunction,SMDPad,CuDef*%
%ADD22R,0.900000X1.200000*%
%TD*%
%TA.AperFunction,SMDPad,CuDef*%
%ADD23R,0.980000X3.400000*%
%TD*%
%TA.AperFunction,SMDPad,CuDef*%
%ADD24RoundRect,0.200000X0.200000X0.275000X-0.200000X0.275000X-0.200000X-0.275000X0.200000X-0.275000X0*%
%TD*%
%TA.AperFunction,SMDPad,CuDef*%
%ADD25RoundRect,0.200000X-0.200000X-0.275000X0.200000X-0.275000X0.200000X0.275000X-0.200000X0.275000X0*%
%TD*%
%TA.AperFunction,SMDPad,CuDef*%
%ADD26R,0.740000X2.400000*%
%TD*%
%TA.AperFunction,SMDPad,CuDef*%
%ADD27RoundRect,0.225000X0.250000X-0.225000X0.250000X0.225000X-0.250000X0.225000X-0.250000X-0.225000X0*%
%TD*%
%TA.AperFunction,SMDPad,CuDef*%
%ADD28RoundRect,0.237500X0.287500X0.237500X-0.287500X0.237500X-0.287500X-0.237500X0.287500X-0.237500X0*%
%TD*%
%TA.AperFunction,SMDPad,CuDef*%
%ADD29R,2.100000X1.800000*%
%TD*%
%TA.AperFunction,SMDPad,CuDef*%
%ADD30RoundRect,0.075000X0.350000X0.075000X-0.350000X0.075000X-0.350000X-0.075000X0.350000X-0.075000X0*%
%TD*%
%TA.AperFunction,SMDPad,CuDef*%
%ADD31RoundRect,0.075000X0.075000X-0.350000X0.075000X0.350000X-0.075000X0.350000X-0.075000X-0.350000X0*%
%TD*%
%TA.AperFunction,SMDPad,CuDef*%
%ADD32RoundRect,0.125000X-0.125000X0.625000X-0.125000X-0.625000X0.125000X-0.625000X0.125000X0.625000X0*%
%TD*%
%TA.AperFunction,SMDPad,CuDef*%
%ADD33RoundRect,0.125000X-0.625000X0.125000X-0.625000X-0.125000X0.625000X-0.125000X0.625000X0.125000X0*%
%TD*%
%TA.AperFunction,SMDPad,CuDef*%
%ADD34R,1.200000X0.900000*%
%TD*%
%TA.AperFunction,SMDPad,CuDef*%
%ADD35RoundRect,0.250000X0.375000X0.625000X-0.375000X0.625000X-0.375000X-0.625000X0.375000X-0.625000X0*%
%TD*%
%TA.AperFunction,SMDPad,CuDef*%
%ADD36RoundRect,0.250000X-0.625000X0.375000X-0.625000X-0.375000X0.625000X-0.375000X0.625000X0.375000X0*%
%TD*%
%TA.AperFunction,ViaPad*%
%ADD37C,0.600000*%
%TD*%
%TA.AperFunction,ViaPad*%
%ADD38C,0.450000*%
%TD*%
%TA.AperFunction,ViaPad*%
%ADD39C,0.800000*%
%TD*%
%TA.AperFunction,Conductor*%
%ADD40C,0.250000*%
%TD*%
%TA.AperFunction,Conductor*%
%ADD41C,0.200000*%
%TD*%
%TA.AperFunction,Conductor*%
%ADD42C,0.400000*%
%TD*%
%TA.AperFunction,Conductor*%
%ADD43C,0.500000*%
%TD*%
%TA.AperFunction,Conductor*%
%ADD44C,0.700000*%
%TD*%
%TA.AperFunction,Conductor*%
%ADD45C,0.300000*%
%TD*%
G04 APERTURE END LIST*
D10*
%TO.P,IC2,1,DIG1_E*%
%TO.N,Net-(IC2-Pad1)*%
X79492001Y-60794000D03*
%TO.P,IC2,2,DIG1_CA*%
%TO.N,Net-(IC2-Pad2)*%
X82032001Y-60794000D03*
%TO.P,IC2,3,DIG1_D*%
%TO.N,Net-(IC2-Pad3)*%
X84572001Y-60794000D03*
%TO.P,IC2,4,DIG1_C*%
%TO.N,Net-(IC2-Pad4)*%
X87112001Y-60794000D03*
%TO.P,IC2,5,DIG1_DP*%
%TO.N,Net-(IC2-Pad10)*%
X89652001Y-60794000D03*
%TO.P,IC2,6,DIG2_E*%
%TO.N,Net-(IC2-Pad1)*%
X94732001Y-60794000D03*
%TO.P,IC2,7,DIG2_CA*%
%TO.N,Net-(IC2-Pad7)*%
X97272001Y-60794000D03*
%TO.P,IC2,8,DIG2_D*%
%TO.N,Net-(IC2-Pad3)*%
X99812001Y-60794000D03*
%TO.P,IC2,9,DIG2_C*%
%TO.N,Net-(IC2-Pad4)*%
X102352001Y-60794000D03*
%TO.P,IC2,10,DIG2_DP*%
%TO.N,Net-(IC2-Pad10)*%
X104892001Y-60794000D03*
%TO.P,IC2,11,DIG2_B*%
%TO.N,Net-(IC2-Pad11)*%
X102352001Y-35394000D03*
%TO.P,IC2,12,DIG2_A*%
%TO.N,Net-(IC2-Pad12)*%
X99812001Y-35394000D03*
%TO.P,IC2,13,DIG2_F*%
%TO.N,Net-(IC2-Pad13)*%
X97272001Y-35394000D03*
%TO.P,IC2,14,DIG2_G*%
%TO.N,Net-(IC2-Pad14)*%
X94732001Y-35394000D03*
%TO.P,IC2,15*%
%TO.N,N/C*%
X89652001Y-35394000D03*
%TO.P,IC2,16,DIG1_B*%
%TO.N,Net-(IC2-Pad11)*%
X87112001Y-35394000D03*
%TO.P,IC2,17,DIG1_A*%
%TO.N,Net-(IC2-Pad12)*%
X84572001Y-35394000D03*
%TO.P,IC2,18,DIG1_F*%
%TO.N,Net-(IC2-Pad13)*%
X82032001Y-35394000D03*
%TO.P,IC2,19,DIG1_G*%
%TO.N,Net-(IC2-Pad14)*%
X79492001Y-35394000D03*
%TD*%
D11*
%TO.P,TP4,1,1*%
%TO.N,GND*%
X71628000Y-38354000D03*
%TD*%
%TO.P,TP3,1,1*%
%TO.N,/MCU/USB_P*%
X71628000Y-45974000D03*
%TD*%
%TO.P,TP2,1,1*%
%TO.N,/MCU/USB_N*%
X71628000Y-43434000D03*
%TD*%
%TO.P,TP1,1,1*%
%TO.N,+5V*%
X71628000Y-40894000D03*
%TD*%
D12*
%TO.P,R6,1*%
%TO.N,+5V*%
X70900000Y-59250000D03*
%TO.P,R6,2*%
%TO.N,/MCU/STAT*%
X70900000Y-60900000D03*
%TD*%
D13*
%TO.P,J1,1,Pin_1*%
%TO.N,+BATT*%
X71600000Y-52775000D03*
D14*
%TO.P,J1,2,Pin_2*%
%TO.N,GND*%
X71600000Y-50235000D03*
%TD*%
D15*
%TO.P,C8,1*%
%TO.N,+5V*%
X75295500Y-57040500D03*
%TO.P,C8,2*%
%TO.N,GND*%
X76845500Y-57040500D03*
%TD*%
%TO.P,C9,1*%
%TO.N,+BATT*%
X71739500Y-57040500D03*
%TO.P,C9,2*%
%TO.N,GND*%
X73289500Y-57040500D03*
%TD*%
D16*
%TO.P,R8,1*%
%TO.N,Net-(R8-Pad1)*%
X76832500Y-60546500D03*
%TO.P,R8,2*%
%TO.N,GND*%
X76832500Y-58896500D03*
%TD*%
D17*
%TO.P,U1,1,STAT*%
%TO.N,/MCU/STAT*%
X72684500Y-60784500D03*
%TO.P,U1,2,VSS*%
%TO.N,GND*%
X72684500Y-59834500D03*
%TO.P,U1,3,VBAT*%
%TO.N,+BATT*%
X72684500Y-58884500D03*
%TO.P,U1,4,VDD*%
%TO.N,+5V*%
X74884500Y-58884500D03*
%TO.P,U1,5,PROG*%
%TO.N,Net-(R8-Pad1)*%
X74884500Y-60784500D03*
%TD*%
D18*
%TO.P,IC1,17,GND*%
%TO.N,GND*%
X109635500Y-48837500D03*
X108534500Y-46542500D03*
D19*
X109085000Y-47690000D03*
D18*
X109635500Y-47690000D03*
X108534500Y-48837500D03*
X108534500Y-47690000D03*
X109635500Y-46542500D03*
%TD*%
D20*
%TO.P,C10,1*%
%TO.N,+BATT*%
X98800000Y-55325000D03*
%TO.P,C10,2*%
%TO.N,GND*%
X98800000Y-56875000D03*
%TD*%
D21*
%TO.P,C13,1*%
%TO.N,+12V*%
X106100000Y-57000000D03*
%TO.P,C13,2*%
%TO.N,Net-(C13-Pad2)*%
X104550000Y-57000000D03*
%TD*%
D20*
%TO.P,C14,1*%
%TO.N,+12V*%
X107800000Y-53625000D03*
%TO.P,C14,2*%
%TO.N,GND*%
X107800000Y-55175000D03*
%TD*%
D22*
%TO.P,D5,1,K*%
%TO.N,+12V*%
X106150000Y-53300000D03*
%TO.P,D5,2,A*%
%TO.N,Net-(D5-Pad2)*%
X102850000Y-53300000D03*
%TD*%
D23*
%TO.P,L2,1,1*%
%TO.N,+BATT*%
X98415000Y-52200000D03*
%TO.P,L2,2,2*%
%TO.N,Net-(D5-Pad2)*%
X100785000Y-52200000D03*
%TD*%
D24*
%TO.P,R10,1*%
%TO.N,+12V*%
X106225000Y-55400000D03*
%TO.P,R10,2*%
%TO.N,Net-(C13-Pad2)*%
X104575000Y-55400000D03*
%TD*%
D25*
%TO.P,R11,1*%
%TO.N,Net-(C13-Pad2)*%
X104500000Y-58600000D03*
%TO.P,R11,2*%
%TO.N,GND*%
X106150000Y-58600000D03*
%TD*%
D17*
%TO.P,U2,1,SW*%
%TO.N,Net-(D5-Pad2)*%
X102700000Y-55450000D03*
%TO.P,U2,2,GND*%
%TO.N,GND*%
X102700000Y-56400000D03*
%TO.P,U2,3,FB*%
%TO.N,Net-(C13-Pad2)*%
X102700000Y-57350000D03*
%TO.P,U2,4,EN*%
%TO.N,/PSU/HV_EN*%
X100500000Y-57350000D03*
%TO.P,U2,5,VIN*%
%TO.N,+BATT*%
X100500000Y-55450000D03*
%TD*%
D26*
%TO.P,J5,1,VTref*%
%TO.N,+3V3*%
X90170000Y-56052000D03*
%TO.P,J5,2,SWDIO/TMS*%
%TO.N,SWDIO*%
X90170000Y-52152000D03*
%TO.P,J5,3,GND*%
%TO.N,GND*%
X88900000Y-56052000D03*
%TO.P,J5,4,SWDCLK/TCK*%
%TO.N,SWCLK*%
X88900000Y-52152000D03*
%TO.P,J5,5,GND*%
%TO.N,GND*%
X87630000Y-56052000D03*
%TO.P,J5,6,SWO/TDO*%
%TO.N,unconnected-(J5-Pad6)*%
X87630000Y-52152000D03*
%TO.P,J5,7,KEY*%
%TO.N,unconnected-(J5-Pad7)*%
X86360000Y-56052000D03*
%TO.P,J5,8,NC/TDI*%
%TO.N,unconnected-(J5-Pad8)*%
X86360000Y-52152000D03*
%TO.P,J5,9,GNDDetect*%
%TO.N,GND*%
X85090000Y-56052000D03*
%TO.P,J5,10,~{RESET}*%
%TO.N,NRST*%
X85090000Y-52152000D03*
%TD*%
D20*
%TO.P,C23,1*%
%TO.N,+3V3*%
X76240000Y-52947000D03*
%TO.P,C23,2*%
%TO.N,GND*%
X76240000Y-54497000D03*
%TD*%
D21*
%TO.P,C24,1*%
%TO.N,Net-(C24-Pad1)*%
X77139000Y-45794000D03*
%TO.P,C24,2*%
%TO.N,GND*%
X75589000Y-45794000D03*
%TD*%
D15*
%TO.P,C20,1*%
%TO.N,Net-(C20-Pad1)*%
X80125000Y-42300000D03*
%TO.P,C20,2*%
%TO.N,GND*%
X81675000Y-42300000D03*
%TD*%
D27*
%TO.P,C19,1*%
%TO.N,Net-(C19-Pad1)*%
X75100000Y-37875000D03*
%TO.P,C19,2*%
%TO.N,GND*%
X75100000Y-36325000D03*
%TD*%
D20*
%TO.P,C21,1*%
%TO.N,+3V3*%
X80428000Y-53401000D03*
%TO.P,C21,2*%
%TO.N,GND*%
X80428000Y-54951000D03*
%TD*%
%TO.P,C22,1*%
%TO.N,Net-(C22-Pad1)*%
X78396000Y-53147000D03*
%TO.P,C22,2*%
%TO.N,GND*%
X78396000Y-54697000D03*
%TD*%
D28*
%TO.P,D6,1,K*%
%TO.N,Net-(D6-Pad1)*%
X98919000Y-44704000D03*
%TO.P,D6,2,A*%
%TO.N,Net-(D6-Pad2)*%
X97169000Y-44704000D03*
%TD*%
D16*
%TO.P,R14,1*%
%TO.N,GND*%
X99060000Y-48182000D03*
%TO.P,R14,2*%
%TO.N,Net-(D6-Pad1)*%
X99060000Y-46532000D03*
%TD*%
D24*
%TO.P,R12,1*%
%TO.N,+3V3*%
X82382000Y-45794000D03*
%TO.P,R12,2*%
%TO.N,SCL*%
X80732000Y-45794000D03*
%TD*%
D29*
%TO.P,Y1,1,1*%
%TO.N,Net-(C19-Pad1)*%
X77550000Y-37950000D03*
%TO.P,Y1,2,2*%
%TO.N,unconnected-(Y1-Pad2)*%
X80450000Y-37950000D03*
%TO.P,Y1,3,3*%
%TO.N,Net-(C20-Pad1)*%
X80450000Y-40250000D03*
%TO.P,Y1,4,4*%
%TO.N,unconnected-(Y1-Pad4)*%
X77550000Y-40250000D03*
%TD*%
D30*
%TO.P,U5,1,CLKIN*%
%TO.N,GND*%
X80600000Y-48100000D03*
%TO.P,U5,2*%
%TO.N,N/C*%
X80600000Y-48600000D03*
%TO.P,U5,3*%
X80600000Y-49100000D03*
%TO.P,U5,4*%
X80600000Y-49600000D03*
%TO.P,U5,5*%
X80600000Y-50100000D03*
%TO.P,U5,6,AUX_SDA*%
%TO.N,unconnected-(U5-Pad6)*%
X80600000Y-50600000D03*
D31*
%TO.P,U5,7,AUX_SCL*%
%TO.N,unconnected-(U5-Pad7)*%
X79900000Y-51300000D03*
%TO.P,U5,8,VDDIO*%
%TO.N,+3V3*%
X79400000Y-51300000D03*
%TO.P,U5,9,AD0*%
%TO.N,GND*%
X78900000Y-51300000D03*
%TO.P,U5,10,REGOUT*%
%TO.N,Net-(C22-Pad1)*%
X78400000Y-51300000D03*
%TO.P,U5,11,FSYNC*%
%TO.N,GND*%
X77900000Y-51300000D03*
%TO.P,U5,12,INT*%
%TO.N,unconnected-(U5-Pad12)*%
X77400000Y-51300000D03*
D30*
%TO.P,U5,13,VDD*%
%TO.N,+3V3*%
X76700000Y-50600000D03*
%TO.P,U5,14*%
%TO.N,N/C*%
X76700000Y-50100000D03*
%TO.P,U5,15*%
X76700000Y-49600000D03*
%TO.P,U5,16*%
X76700000Y-49100000D03*
%TO.P,U5,17*%
X76700000Y-48600000D03*
%TO.P,U5,18,GND*%
%TO.N,GND*%
X76700000Y-48100000D03*
D31*
%TO.P,U5,19*%
%TO.N,N/C*%
X77400000Y-47400000D03*
%TO.P,U5,20,CPOUT*%
%TO.N,Net-(C24-Pad1)*%
X77900000Y-47400000D03*
%TO.P,U5,21*%
%TO.N,N/C*%
X78400000Y-47400000D03*
%TO.P,U5,22*%
X78900000Y-47400000D03*
%TO.P,U5,23,SCL*%
%TO.N,SDA*%
X79400000Y-47400000D03*
%TO.P,U5,24,SDA*%
%TO.N,SCL*%
X79900000Y-47400000D03*
%TD*%
D15*
%TO.P,C15,1*%
%TO.N,+3V3*%
X95491000Y-48260000D03*
%TO.P,C15,2*%
%TO.N,GND*%
X97041000Y-48260000D03*
%TD*%
D21*
%TO.P,C16,1*%
%TO.N,+3V3*%
X86486000Y-38862000D03*
%TO.P,C16,2*%
%TO.N,GND*%
X84936000Y-38862000D03*
%TD*%
D32*
%TO.P,U6,1,VDD*%
%TO.N,+3V3*%
X88132000Y-39259000D03*
%TO.P,U6,2,PF0*%
%TO.N,Net-(C19-Pad1)*%
X88932000Y-39259000D03*
%TO.P,U6,3,PF1*%
%TO.N,Net-(C20-Pad1)*%
X89732000Y-39259000D03*
%TO.P,U6,4,NRST*%
%TO.N,NRST*%
X90532000Y-39259000D03*
%TO.P,U6,5,VDDA*%
%TO.N,+3V3*%
X91332000Y-39259000D03*
%TO.P,U6,6,PA0*%
%TO.N,/MCU/BAT*%
X92132000Y-39259000D03*
%TO.P,U6,7,PA1*%
%TO.N,/MCU/STAT*%
X92932000Y-39259000D03*
%TO.P,U6,8,PA2*%
%TO.N,/PSU/HV_EN*%
X93732000Y-39259000D03*
D33*
%TO.P,U6,9,PA3*%
%TO.N,nixie_b*%
X95107000Y-40634000D03*
%TO.P,U6,10,PA4*%
%TO.N,nixie_a*%
X95107000Y-41434000D03*
%TO.P,U6,11,PA5*%
%TO.N,nixie_f*%
X95107000Y-42234000D03*
%TO.P,U6,12,PA6*%
%TO.N,nixie_g*%
X95107000Y-43034000D03*
%TO.P,U6,13,PA7*%
%TO.N,nixie_dp*%
X95107000Y-43834000D03*
%TO.P,U6,14,PB0*%
%TO.N,Net-(D6-Pad2)*%
X95107000Y-44634000D03*
%TO.P,U6,15,PB1*%
%TO.N,nixie_c*%
X95107000Y-45434000D03*
%TO.P,U6,16,VSS*%
%TO.N,GND*%
X95107000Y-46234000D03*
D32*
%TO.P,U6,17,VDDIO2*%
%TO.N,+3V3*%
X93732000Y-47609000D03*
%TO.P,U6,18,PA8*%
%TO.N,nixie_1*%
X92932000Y-47609000D03*
%TO.P,U6,19,PA9*%
%TO.N,nixie_2*%
X92132000Y-47609000D03*
%TO.P,U6,20,PA10*%
%TO.N,nixie_d*%
X91332000Y-47609000D03*
%TO.P,U6,21,PA11*%
%TO.N,/MCU/USB_N*%
X90532000Y-47609000D03*
%TO.P,U6,22,PA12*%
%TO.N,/MCU/USB_P*%
X89732000Y-47609000D03*
%TO.P,U6,23,PA13*%
%TO.N,SWDIO*%
X88932000Y-47609000D03*
%TO.P,U6,24,PA14*%
%TO.N,SWCLK*%
X88132000Y-47609000D03*
D33*
%TO.P,U6,25,PA15*%
%TO.N,unconnected-(U6-Pad25)*%
X86757000Y-46234000D03*
%TO.P,U6,26,PB3*%
%TO.N,nixie_e*%
X86757000Y-45434000D03*
%TO.P,U6,27,PB4*%
%TO.N,unconnected-(U6-Pad27)*%
X86757000Y-44634000D03*
%TO.P,U6,28,PB5*%
%TO.N,unconnected-(U6-Pad28)*%
X86757000Y-43834000D03*
%TO.P,U6,29,PB6*%
%TO.N,SCL*%
X86757000Y-43034000D03*
%TO.P,U6,30,PB7*%
%TO.N,SDA*%
X86757000Y-42234000D03*
%TO.P,U6,31,PB8*%
%TO.N,GND*%
X86757000Y-41434000D03*
%TO.P,U6,32,VSSA*%
X86757000Y-40634000D03*
%TD*%
D34*
%TO.P,D2,1,K*%
%TO.N,Net-(C5-Pad2)*%
X109200000Y-36050000D03*
%TO.P,D2,2,A*%
%TO.N,Net-(D2-Pad2)*%
X109200000Y-39350000D03*
%TD*%
%TO.P,D3,1,K*%
%TO.N,VAA*%
X111600000Y-39350000D03*
%TO.P,D3,2,A*%
%TO.N,Net-(C5-Pad2)*%
X111600000Y-36050000D03*
%TD*%
D35*
%TO.P,C6,1*%
%TO.N,VAA*%
X111800000Y-41400000D03*
%TO.P,C6,2*%
%TO.N,Net-(C6-Pad2)*%
X109000000Y-41400000D03*
%TD*%
D36*
%TO.P,C7,1*%
%TO.N,Net-(C6-Pad2)*%
X106800000Y-41200000D03*
%TO.P,C7,2*%
%TO.N,GND*%
X106800000Y-44000000D03*
%TD*%
D24*
%TO.P,R4,1*%
%TO.N,Net-(IC1-Pad9)*%
X111674000Y-50890000D03*
%TO.P,R4,2*%
%TO.N,GND*%
X110024000Y-50890000D03*
%TD*%
D16*
%TO.P,R5,1*%
%TO.N,Net-(D2-Pad2)*%
X107100000Y-39425000D03*
%TO.P,R5,2*%
%TO.N,Net-(C6-Pad2)*%
X107100000Y-37775000D03*
%TD*%
D36*
%TO.P,R3,1*%
%TO.N,VAA*%
X111500000Y-43600000D03*
%TO.P,R3,2*%
%TO.N,Net-(IC1-Pad9)*%
X111500000Y-46400000D03*
%TD*%
D24*
%TO.P,R13,1*%
%TO.N,+3V3*%
X82465000Y-44122000D03*
%TO.P,R13,2*%
%TO.N,SDA*%
X80815000Y-44122000D03*
%TD*%
D25*
%TO.P,R31,1*%
%TO.N,+BATT*%
X77040000Y-43922000D03*
%TO.P,R31,2*%
%TO.N,/MCU/BAT*%
X78690000Y-43922000D03*
%TD*%
D24*
%TO.P,R32,1*%
%TO.N,/MCU/BAT*%
X78640000Y-42322000D03*
%TO.P,R32,2*%
%TO.N,GND*%
X76990000Y-42322000D03*
%TD*%
D37*
%TO.N,GND*%
X82484500Y-48134500D03*
X100284500Y-45734500D03*
X69884500Y-61934500D03*
X77884500Y-61934500D03*
%TO.N,/MCU/STAT*%
X69684500Y-58734500D03*
%TO.N,GND*%
X73484500Y-47134500D03*
X73684500Y-42134500D03*
X69884500Y-39734500D03*
X70284500Y-36734500D03*
X73588500Y-57686500D03*
%TO.N,/MCU/STAT*%
X93966500Y-37874500D03*
%TO.N,+BATT*%
X81280000Y-58420000D03*
D38*
%TO.N,/MCU/USB_N*%
X73406000Y-44196000D03*
%TO.N,/MCU/USB_P*%
X73406000Y-45212000D03*
%TO.N,GND*%
X77600000Y-56642000D03*
%TO.N,+5V*%
X73639002Y-58800000D03*
X70800000Y-58300000D03*
D39*
%TO.N,+BATT*%
X71800000Y-55200000D03*
D38*
%TO.N,GND*%
X105646056Y-59246056D03*
X92900000Y-43189330D03*
X102400000Y-49600000D03*
D37*
X108900000Y-49700000D03*
D38*
X102400000Y-48700000D03*
D37*
X79431561Y-52944748D03*
X102000000Y-59000000D03*
X76000000Y-41200000D03*
X103000000Y-45000000D03*
X109000000Y-61000000D03*
X90000000Y-44000000D03*
D38*
X108899500Y-55300000D03*
D37*
X77301523Y-57666415D03*
X81444000Y-47079979D03*
X108500000Y-51800000D03*
X111000000Y-61000000D03*
X75000000Y-35000000D03*
X100330000Y-48006000D03*
X84069023Y-38569023D03*
X95504000Y-46736000D03*
X109300000Y-52600000D03*
X77440000Y-54864000D03*
X104000000Y-35000000D03*
X108100000Y-34500000D03*
D38*
X101610885Y-56383155D03*
D37*
X77380000Y-52398000D03*
D38*
X99800000Y-56400000D03*
D37*
X93000000Y-56000000D03*
X73000000Y-35000000D03*
D38*
X101800000Y-53200000D03*
D37*
X85344000Y-40386000D03*
X111684500Y-56334500D03*
X77000000Y-35000000D03*
X75900000Y-43100000D03*
X107000000Y-61000000D03*
X75602000Y-47079979D03*
X92000000Y-35000000D03*
D38*
X107240031Y-56114609D03*
D37*
X83000000Y-54400000D03*
X85344000Y-54102000D03*
X73784500Y-59834500D03*
X111684500Y-59534500D03*
X111700000Y-34600000D03*
D38*
X96900000Y-43309500D03*
D37*
X88000000Y-41000000D03*
X81500000Y-54800000D03*
D38*
X105400000Y-58600000D03*
X105275498Y-53000000D03*
D37*
X87122000Y-49022000D03*
X71000000Y-35000000D03*
D38*
X104000000Y-43600000D03*
D37*
X82000000Y-50000000D03*
X86000000Y-62000000D03*
D38*
X100449580Y-43250421D03*
D37*
X109100000Y-45400000D03*
X112284500Y-55134500D03*
D38*
X99600000Y-53100000D03*
X85200000Y-41400000D03*
D37*
X100884500Y-33400000D03*
X79500000Y-33300000D03*
X85000000Y-47000000D03*
X75379680Y-53562399D03*
D38*
%TO.N,+12V*%
X101800000Y-47200000D03*
D37*
%TO.N,Net-(C5-Pad2)*%
X111600000Y-36800000D03*
%TO.N,Net-(C6-Pad2)*%
X108500000Y-38100000D03*
X110200000Y-40500000D03*
%TO.N,VAA*%
X94400000Y-55300000D03*
X85852000Y-49784000D03*
X112500000Y-44900000D03*
X91948000Y-53594000D03*
%TO.N,Net-(IC1-Pad9)*%
X111496007Y-50092869D03*
D38*
%TO.N,+BATT*%
X96150047Y-57596959D03*
D37*
%TO.N,+3V3*%
X74676000Y-59718500D03*
X81444000Y-52144000D03*
X90424000Y-41910000D03*
X91186000Y-56134000D03*
D38*
X83820000Y-43957979D03*
D37*
X82440000Y-43122000D03*
X92964000Y-44704000D03*
X83274924Y-45671254D03*
X87376000Y-38862000D03*
D38*
X75602000Y-51382000D03*
%TO.N,/PSU/HV_EN*%
X101300000Y-46300000D03*
X102464804Y-45835196D03*
D37*
X105021000Y-45912000D03*
D38*
X99770878Y-50129122D03*
X99300000Y-58000000D03*
D37*
%TO.N,Net-(IC2-Pad13)*%
X91694000Y-36322000D03*
X94756333Y-36991990D03*
%TO.N,Net-(IC2-Pad3)*%
X92710000Y-59690000D03*
D38*
%TO.N,SDA*%
X80682000Y-43508000D03*
X84500000Y-42300000D03*
D37*
%TO.N,nixie_g*%
X91198944Y-43713830D03*
%TO.N,nixie_f*%
X96300000Y-42100000D03*
%TO.N,nixie_e*%
X82804000Y-53594000D03*
%TO.N,nixie_d*%
X95500000Y-52000000D03*
%TO.N,nixie_c*%
X97536000Y-46228000D03*
%TO.N,nixie_b*%
X101000000Y-43900000D03*
%TO.N,nixie_a*%
X98172868Y-43211525D03*
%TO.N,nixie_dp*%
X107400000Y-52200000D03*
%TO.N,nixie_1*%
X91186000Y-45466000D03*
%TO.N,nixie_2*%
X97723203Y-49093584D03*
D38*
%TO.N,/MCU/USB_P*%
X89154000Y-46070000D03*
%TO.N,/MCU/USB_N*%
X89175239Y-45348761D03*
D37*
%TO.N,Net-(Q7-Pad2)*%
X96520000Y-38862000D03*
D38*
%TO.N,/MCU/BAT*%
X82600000Y-39261500D03*
X82600000Y-37224500D03*
X90000000Y-37300000D03*
X79189388Y-41518571D03*
%TD*%
D40*
%TO.N,/MCU/STAT*%
X69836500Y-59836500D02*
X69836500Y-58886500D01*
X69836500Y-58886500D02*
X69684500Y-58734500D01*
D41*
%TO.N,/MCU/USB_N*%
X73406000Y-44196000D02*
X72390000Y-44196000D01*
X72390000Y-44196000D02*
X71628000Y-43434000D01*
%TO.N,/MCU/USB_P*%
X73406000Y-45212000D02*
X72390000Y-45212000D01*
X72390000Y-45212000D02*
X71628000Y-45974000D01*
D42*
%TO.N,+5V*%
X71628000Y-40894000D02*
X69684500Y-42837500D01*
X69684500Y-57184500D02*
X70800000Y-58300000D01*
X69684500Y-42837500D02*
X69684500Y-57184500D01*
D43*
%TO.N,+BATT*%
X77040000Y-43922000D02*
X76962000Y-44000000D01*
X74408500Y-50320500D02*
X71954000Y-52775000D01*
X76962000Y-44000000D02*
X75141000Y-44000000D01*
X71954000Y-52775000D02*
X71600000Y-52775000D01*
X75141000Y-44000000D02*
X74408500Y-44732500D01*
X74408500Y-44732500D02*
X74408500Y-50320500D01*
D42*
%TO.N,GND*%
X73289500Y-57387500D02*
X73588500Y-57686500D01*
X73289500Y-57040500D02*
X73289500Y-57387500D01*
D40*
%TO.N,/MCU/STAT*%
X70900000Y-60900000D02*
X69836500Y-59836500D01*
X93966500Y-37874500D02*
X93730104Y-37874500D01*
X93730104Y-37874500D02*
X92932000Y-38672604D01*
X92932000Y-38672604D02*
X92932000Y-39259000D01*
D44*
%TO.N,+BATT*%
X79248000Y-56134000D02*
X78981000Y-55867000D01*
X78981000Y-55867000D02*
X72467000Y-55867000D01*
X72467000Y-55867000D02*
X71800000Y-55200000D01*
D45*
%TO.N,GND*%
X77440000Y-54864000D02*
X77507000Y-54797000D01*
X77507000Y-54797000D02*
X78396000Y-54797000D01*
X81249000Y-55051000D02*
X81500000Y-54800000D01*
X78396000Y-54797000D02*
X78650000Y-55051000D01*
X78650000Y-55051000D02*
X81249000Y-55051000D01*
D40*
X77600000Y-56642000D02*
X77201500Y-57040500D01*
X77201500Y-57040500D02*
X76845500Y-57040500D01*
D44*
%TO.N,+BATT*%
X79248000Y-56388000D02*
X79248000Y-56134000D01*
X81280000Y-58420000D02*
X79248000Y-56388000D01*
D42*
%TO.N,+5V*%
X70900000Y-59250000D02*
X70900000Y-58400000D01*
D40*
X70900000Y-58400000D02*
X70800000Y-58300000D01*
D42*
X73639002Y-58800000D02*
X74800000Y-58800000D01*
D40*
X74800000Y-58800000D02*
X74884500Y-58884500D01*
%TO.N,/MCU/STAT*%
X72684500Y-60784500D02*
X71015500Y-60784500D01*
X71015500Y-60784500D02*
X70900000Y-60900000D01*
D43*
%TO.N,+BATT*%
X71800000Y-55200000D02*
X71800000Y-56980000D01*
X71800000Y-56980000D02*
X71739500Y-57040500D01*
D45*
%TO.N,GND*%
X76945500Y-58733500D02*
X76832500Y-58846500D01*
X76945500Y-57040500D02*
X76945500Y-58733500D01*
X72684500Y-59834500D02*
X73784500Y-59834500D01*
X77900000Y-51878000D02*
X77380000Y-52398000D01*
D41*
X78900000Y-52265844D02*
X79431561Y-52797405D01*
D42*
X106150000Y-58742112D02*
X105646056Y-59246056D01*
D45*
X87180000Y-54102000D02*
X85344000Y-54102000D01*
D42*
X99060000Y-48232000D02*
X100104000Y-48232000D01*
D45*
X86757000Y-41434000D02*
X85234000Y-41434000D01*
X80600000Y-48100000D02*
X81444000Y-47256000D01*
D42*
X99275000Y-56400000D02*
X98800000Y-56875000D01*
D45*
X77900000Y-51300000D02*
X77900000Y-51878000D01*
X85090000Y-54356000D02*
X85090000Y-56052000D01*
D42*
X106150000Y-58600000D02*
X106150000Y-58742112D01*
D45*
X76700000Y-48100000D02*
X75679979Y-47079979D01*
X87630000Y-56052000D02*
X87630000Y-54552000D01*
D42*
X99032000Y-48260000D02*
X99060000Y-48232000D01*
X102700000Y-56400000D02*
X99275000Y-56400000D01*
X84074000Y-38862000D02*
X84836000Y-38862000D01*
D45*
X81444000Y-47256000D02*
X81444000Y-47079979D01*
D42*
X84069023Y-38569023D02*
X84069023Y-38857023D01*
X84069023Y-38857023D02*
X84074000Y-38862000D01*
D45*
X85344000Y-54102000D02*
X85090000Y-54356000D01*
X87630000Y-54552000D02*
X87180000Y-54102000D01*
D42*
X107800000Y-55175000D02*
X108774500Y-55175000D01*
D45*
X75679979Y-47079979D02*
X75602000Y-47079979D01*
X85234000Y-41434000D02*
X85200000Y-41400000D01*
D42*
X97141000Y-48260000D02*
X99032000Y-48260000D01*
D40*
X75379680Y-53636680D02*
X76240000Y-54497000D01*
D42*
X107800000Y-55554640D02*
X107240031Y-56114609D01*
X102700000Y-56400000D02*
X101627730Y-56400000D01*
X95107000Y-46339000D02*
X95504000Y-46736000D01*
X101627730Y-56400000D02*
X101610885Y-56383155D01*
D45*
X88900000Y-56052000D02*
X87630000Y-56052000D01*
D42*
X95107000Y-46234000D02*
X95107000Y-46339000D01*
X108774500Y-55175000D02*
X108899500Y-55300000D01*
D41*
X78900000Y-51300000D02*
X78900000Y-52265844D01*
D42*
X107800000Y-55175000D02*
X107800000Y-55554640D01*
X106150000Y-58600000D02*
X105400000Y-58600000D01*
D41*
X79431561Y-52797405D02*
X79431561Y-52944748D01*
D42*
X86757000Y-40634000D02*
X85592000Y-40634000D01*
X100104000Y-48232000D02*
X100330000Y-48006000D01*
D40*
X75379680Y-53562399D02*
X75379680Y-53636680D01*
D42*
X85592000Y-40634000D02*
X85344000Y-40386000D01*
D45*
X86007000Y-41434000D02*
X86757000Y-41434000D01*
D42*
%TO.N,+12V*%
X106150000Y-53300000D02*
X107475000Y-53300000D01*
X105059382Y-51900000D02*
X103100000Y-51900000D01*
X101700000Y-47300000D02*
X101800000Y-47200000D01*
X101700000Y-49600000D02*
X101700000Y-47300000D01*
X106150000Y-52990618D02*
X105059382Y-51900000D01*
X106150000Y-53300000D02*
X106150000Y-52990618D01*
X101700000Y-50500000D02*
X101700000Y-49600000D01*
X106150000Y-55325000D02*
X106225000Y-55400000D01*
X106225000Y-56875000D02*
X106100000Y-57000000D01*
X106225000Y-55400000D02*
X106225000Y-56875000D01*
X107475000Y-53300000D02*
X107800000Y-53625000D01*
X106150000Y-53300000D02*
X106150000Y-55325000D01*
X103100000Y-51900000D02*
X101700000Y-50500000D01*
D44*
%TO.N,Net-(C5-Pad2)*%
X111600000Y-36800000D02*
X111600000Y-36050000D01*
X109200000Y-36050000D02*
X110850000Y-36050000D01*
X110850000Y-36050000D02*
X111600000Y-36800000D01*
%TO.N,Net-(C6-Pad2)*%
X108175000Y-37775000D02*
X108500000Y-38100000D01*
X109000000Y-41400000D02*
X109300000Y-41400000D01*
X109300000Y-41400000D02*
X110200000Y-40500000D01*
X107100000Y-37775000D02*
X108175000Y-37775000D01*
X109000000Y-41400000D02*
X107000000Y-41400000D01*
X107000000Y-41400000D02*
X106800000Y-41200000D01*
%TO.N,VAA*%
X111600000Y-39350000D02*
X111600000Y-41200000D01*
X111500000Y-43900000D02*
X112500000Y-44900000D01*
X111500000Y-43600000D02*
X111500000Y-43900000D01*
X111800000Y-41400000D02*
X111800000Y-43300000D01*
X111800000Y-43300000D02*
X111500000Y-43600000D01*
X111600000Y-41200000D02*
X111800000Y-41400000D01*
%TO.N,Net-(D2-Pad2)*%
X109200000Y-39350000D02*
X107175000Y-39350000D01*
X107175000Y-39350000D02*
X107100000Y-39425000D01*
%TO.N,Net-(IC1-Pad9)*%
X111500000Y-50716000D02*
X111674000Y-50890000D01*
X111500000Y-46400000D02*
X111500000Y-50716000D01*
D43*
%TO.N,+5V*%
X75195500Y-58573500D02*
X74884500Y-58884500D01*
X75054500Y-56899500D02*
X75195500Y-57040500D01*
X75195500Y-57040500D02*
X75195500Y-58573500D01*
%TO.N,+BATT*%
X71639500Y-57040500D02*
X71639500Y-57839500D01*
X71516280Y-56917280D02*
X71639500Y-57040500D01*
X72160500Y-58360500D02*
X72684500Y-58884500D01*
X71639500Y-57839500D02*
X72160500Y-58360500D01*
D42*
X98415000Y-54940000D02*
X98800000Y-55325000D01*
X98800000Y-55325000D02*
X97975000Y-55325000D01*
X98415000Y-52200000D02*
X98415000Y-54940000D01*
X97975000Y-55325000D02*
X96150047Y-57149953D01*
X96150047Y-57149953D02*
X96150047Y-57596959D01*
X100500000Y-55450000D02*
X98925000Y-55450000D01*
X98925000Y-55450000D02*
X98800000Y-55325000D01*
D45*
%TO.N,+3V3*%
X87487000Y-39259000D02*
X86983000Y-39259000D01*
D43*
X87487000Y-38973000D02*
X87376000Y-38862000D01*
X80428000Y-53160000D02*
X81444000Y-52144000D01*
D41*
X82465000Y-44122000D02*
X83655979Y-44122000D01*
D40*
X76240000Y-51222000D02*
X76240000Y-51060000D01*
X76240000Y-52947000D02*
X76240000Y-51222000D01*
D45*
X86983000Y-39259000D02*
X86586000Y-38862000D01*
D43*
X87487000Y-39259000D02*
X87487000Y-38973000D01*
X91104000Y-56052000D02*
X91186000Y-56134000D01*
X82432000Y-43130000D02*
X82432000Y-43622000D01*
D45*
X88132000Y-39259000D02*
X87487000Y-39259000D01*
D40*
X75762000Y-51222000D02*
X75602000Y-51382000D01*
D41*
X79400000Y-51300000D02*
X79400000Y-52025183D01*
D43*
X90170000Y-56052000D02*
X91104000Y-56052000D01*
D40*
X76240000Y-51222000D02*
X75762000Y-51222000D01*
X76240000Y-51060000D02*
X76700000Y-50600000D01*
D41*
X80308746Y-52656746D02*
X80428000Y-52776000D01*
D42*
X94383000Y-48260000D02*
X93732000Y-47609000D01*
D41*
X80031563Y-52656746D02*
X80308746Y-52656746D01*
X83655979Y-44122000D02*
X83820000Y-43957979D01*
X83152178Y-45794000D02*
X83274924Y-45671254D01*
D43*
X93732000Y-47609000D02*
X93732000Y-45472000D01*
X80428000Y-53301000D02*
X80428000Y-53160000D01*
D42*
X95391000Y-48260000D02*
X94383000Y-48260000D01*
D43*
X91332000Y-39259000D02*
X91332000Y-41002000D01*
D41*
X80428000Y-52776000D02*
X80428000Y-53301000D01*
X82382000Y-45794000D02*
X83152178Y-45794000D01*
X79400000Y-52025183D02*
X80031563Y-52656746D01*
D43*
X91332000Y-41002000D02*
X90424000Y-41910000D01*
X93732000Y-45472000D02*
X92964000Y-44704000D01*
D42*
%TO.N,Net-(C13-Pad2)*%
X104200000Y-57350000D02*
X102700000Y-57350000D01*
X104550000Y-57000000D02*
X104200000Y-57350000D01*
X104550000Y-57000000D02*
X104550000Y-55425000D01*
X104500000Y-57050000D02*
X104550000Y-57000000D01*
X104500000Y-58600000D02*
X104500000Y-57050000D01*
X104550000Y-55425000D02*
X104575000Y-55400000D01*
%TO.N,Net-(D5-Pad2)*%
X101750000Y-52200000D02*
X102850000Y-53300000D01*
X102350000Y-55450000D02*
X100785000Y-53885000D01*
X102700000Y-55450000D02*
X102350000Y-55450000D01*
X100785000Y-52200000D02*
X101750000Y-52200000D01*
X100785000Y-53885000D02*
X100785000Y-52200000D01*
D41*
%TO.N,/PSU/HV_EN*%
X101000000Y-48900000D02*
X101000000Y-48700000D01*
X102464804Y-45835196D02*
X102541608Y-45912000D01*
D40*
X93732000Y-39259000D02*
X95391000Y-37600000D01*
D41*
X102541608Y-45912000D02*
X105021000Y-45912000D01*
X101000000Y-46600000D02*
X101300000Y-46300000D01*
X99950000Y-57350000D02*
X99300000Y-58000000D01*
X100500000Y-57350000D02*
X99950000Y-57350000D01*
D40*
X95391000Y-37600000D02*
X104900000Y-37600000D01*
X105100000Y-37800000D02*
X105100000Y-45833000D01*
D41*
X99770878Y-50129122D02*
X101000000Y-48900000D01*
D40*
X104900000Y-37600000D02*
X105100000Y-37800000D01*
X105100000Y-45833000D02*
X105021000Y-45912000D01*
D41*
X101000000Y-48700000D02*
X101000000Y-46600000D01*
D43*
%TO.N,Net-(R8-Pad1)*%
X74884500Y-60784500D02*
X76644500Y-60784500D01*
X76644500Y-60784500D02*
X76832500Y-60596500D01*
D45*
%TO.N,Net-(IC2-Pad13)*%
X91694000Y-36322000D02*
X92363990Y-36991990D01*
X92363990Y-36991990D02*
X94756333Y-36991990D01*
%TO.N,Net-(IC2-Pad11)*%
X87112001Y-35394000D02*
X88312002Y-34193999D01*
X101502002Y-34544001D02*
X102352001Y-35394000D01*
X88312002Y-34193999D02*
X101152000Y-34193999D01*
X101152000Y-34193999D02*
X101502002Y-34544001D01*
%TO.N,Net-(IC2-Pad10)*%
X103692000Y-61994001D02*
X104042002Y-61643999D01*
X90852002Y-61994001D02*
X103692000Y-61994001D01*
X104042002Y-61643999D02*
X104892001Y-60794000D01*
X89652001Y-60794000D02*
X90852002Y-61994001D01*
%TO.N,Net-(IC2-Pad3)*%
X98408002Y-59390001D02*
X98962002Y-59944001D01*
X92710000Y-59690000D02*
X93009999Y-59390001D01*
X98962002Y-59944001D02*
X99812001Y-60794000D01*
X93009999Y-59390001D02*
X98408002Y-59390001D01*
%TO.N,Net-(IC2-Pad1)*%
X94732001Y-60794000D02*
X92290000Y-60794000D01*
X80850001Y-59436000D02*
X79492001Y-60794000D01*
X90932000Y-59436000D02*
X80850001Y-59436000D01*
X92290000Y-60794000D02*
X90932000Y-59436000D01*
D42*
%TO.N,Net-(C19-Pad1)*%
X75175000Y-37950000D02*
X75100000Y-37875000D01*
D41*
X88200000Y-36700000D02*
X89000000Y-37500000D01*
D42*
X77550000Y-37950000D02*
X75175000Y-37950000D01*
D41*
X77550000Y-37950000D02*
X77700000Y-37950000D01*
X77700000Y-37950000D02*
X78950000Y-36700000D01*
X89000000Y-39191000D02*
X88932000Y-39259000D01*
X89000000Y-37500000D02*
X89000000Y-39191000D01*
X78950000Y-36700000D02*
X88200000Y-36700000D01*
%TO.N,Net-(C20-Pad1)*%
X87260041Y-39786000D02*
X80914000Y-39786000D01*
X89732000Y-39259000D02*
X89732000Y-39810041D01*
D42*
X80125000Y-40575000D02*
X80450000Y-40250000D01*
D41*
X87783041Y-40309000D02*
X87260041Y-39786000D01*
X89732000Y-39810041D02*
X89233041Y-40309000D01*
X89233041Y-40309000D02*
X87783041Y-40309000D01*
D42*
X80125000Y-42300000D02*
X80125000Y-40575000D01*
D41*
X80914000Y-39786000D02*
X80450000Y-40250000D01*
D45*
%TO.N,Net-(C22-Pad1)*%
X78400000Y-51300000D02*
X78400000Y-53043000D01*
X78400000Y-53043000D02*
X78396000Y-53047000D01*
%TO.N,Net-(C24-Pad1)*%
X77900000Y-46455000D02*
X77239000Y-45794000D01*
X77900000Y-47400000D02*
X77900000Y-46455000D01*
%TO.N,Net-(D6-Pad2)*%
X95107000Y-44634000D02*
X97099000Y-44634000D01*
X97099000Y-44634000D02*
X97169000Y-44704000D01*
%TO.N,Net-(D6-Pad1)*%
X99060000Y-44845000D02*
X98919000Y-44704000D01*
X99060000Y-46482000D02*
X99060000Y-44845000D01*
%TO.N,SDA*%
X79400000Y-47400000D02*
X79400000Y-44848827D01*
X84500000Y-42300000D02*
X86691000Y-42300000D01*
X80682000Y-43622000D02*
X80682000Y-43508000D01*
X80682000Y-44016000D02*
X80682000Y-43622000D01*
X86691000Y-42300000D02*
X86757000Y-42234000D01*
X80126827Y-44122000D02*
X80815000Y-44122000D01*
X79400000Y-44848827D02*
X80126827Y-44122000D01*
D41*
%TO.N,SCL*%
X80732000Y-45768000D02*
X80732000Y-45794000D01*
D40*
X80140000Y-45202000D02*
X80732000Y-45794000D01*
D41*
X81500000Y-45000000D02*
X80732000Y-45768000D01*
X86757000Y-43034000D02*
X86205959Y-43034000D01*
D40*
X80140000Y-44922000D02*
X80140000Y-45202000D01*
D41*
X86205959Y-43034000D02*
X84239959Y-45000000D01*
D45*
X79900000Y-46576000D02*
X80682000Y-45794000D01*
D41*
X84239959Y-45000000D02*
X81500000Y-45000000D01*
D45*
X79900000Y-47400000D02*
X79900000Y-46576000D01*
D41*
%TO.N,NRST*%
X88392000Y-42164000D02*
X88392000Y-45950056D01*
X88392000Y-45950056D02*
X85090000Y-49252056D01*
X90532000Y-39259000D02*
X90532000Y-40024000D01*
X85090000Y-49252056D02*
X85090000Y-52152000D01*
X90532000Y-40024000D02*
X88392000Y-42164000D01*
D45*
%TO.N,SWCLK*%
X88900000Y-50471500D02*
X88900000Y-50652000D01*
X88900000Y-50652000D02*
X88900000Y-52152000D01*
X88132000Y-47609000D02*
X88132000Y-49703500D01*
X88132000Y-49703500D02*
X88900000Y-50471500D01*
%TO.N,SWDIO*%
X88932000Y-47609000D02*
X88932000Y-49562000D01*
X88932000Y-49562000D02*
X90022000Y-50652000D01*
X90170000Y-50652000D02*
X90170000Y-52152000D01*
X90022000Y-50652000D02*
X90170000Y-50652000D01*
D41*
%TO.N,nixie_g*%
X94555959Y-43034000D02*
X95107000Y-43034000D01*
X93876129Y-43713830D02*
X94555959Y-43034000D01*
X91198944Y-43713830D02*
X93876129Y-43713830D01*
%TO.N,nixie_f*%
X95241000Y-42100000D02*
X95107000Y-42234000D01*
X96300000Y-42100000D02*
X95241000Y-42100000D01*
%TO.N,nixie_e*%
X83566000Y-52832000D02*
X82804000Y-53594000D01*
X83566000Y-46228000D02*
X83566000Y-52832000D01*
X84360000Y-45434000D02*
X83566000Y-46228000D01*
X86757000Y-45434000D02*
X84360000Y-45434000D01*
%TO.N,nixie_d*%
X93726000Y-51816000D02*
X91332000Y-49422000D01*
X95500000Y-52000000D02*
X95316000Y-51816000D01*
X91332000Y-49422000D02*
X91332000Y-47609000D01*
X95316000Y-51816000D02*
X93726000Y-51816000D01*
%TO.N,nixie_c*%
X95857000Y-45434000D02*
X96651000Y-46228000D01*
X96651000Y-46228000D02*
X97536000Y-46228000D01*
X95107000Y-45434000D02*
X95857000Y-45434000D01*
%TO.N,nixie_b*%
X101000000Y-43900000D02*
X100357403Y-43900000D01*
X100357403Y-43900000D02*
X97091403Y-40634000D01*
X97091403Y-40634000D02*
X95107000Y-40634000D01*
%TO.N,nixie_a*%
X98172868Y-43211525D02*
X98172868Y-42800868D01*
X96806000Y-41434000D02*
X95107000Y-41434000D01*
X98172868Y-42800868D02*
X96806000Y-41434000D01*
%TO.N,nixie_dp*%
X99721852Y-43834000D02*
X106941852Y-51054000D01*
X106991852Y-51791852D02*
X106991852Y-51110000D01*
X107400000Y-52200000D02*
X106991852Y-51791852D01*
X95107000Y-43834000D02*
X99721852Y-43834000D01*
%TO.N,nixie_1*%
X92202000Y-45466000D02*
X91186000Y-45466000D01*
X92932000Y-46196000D02*
X92202000Y-45466000D01*
X92932000Y-47609000D02*
X92932000Y-46196000D01*
%TO.N,nixie_2*%
X92202000Y-47679000D02*
X92132000Y-47609000D01*
X97723203Y-49093584D02*
X97032787Y-49784000D01*
X92202000Y-48768000D02*
X92202000Y-47679000D01*
X97032787Y-49784000D02*
X93218000Y-49784000D01*
X93218000Y-49784000D02*
X92202000Y-48768000D01*
%TO.N,/MCU/USB_P*%
X89907000Y-46283200D02*
X89568800Y-45945000D01*
X89568800Y-45945000D02*
X89279000Y-45945000D01*
X89732000Y-47609000D02*
X89907000Y-47434000D01*
X89907000Y-47434000D02*
X89907000Y-46283200D01*
X89279000Y-45945000D02*
X89154000Y-46070000D01*
%TO.N,/MCU/USB_N*%
X89608961Y-45348761D02*
X89493437Y-45348761D01*
X89493437Y-45348761D02*
X89175239Y-45348761D01*
X90532000Y-47609000D02*
X90532000Y-46271800D01*
X90532000Y-46271800D02*
X89608961Y-45348761D01*
D42*
%TO.N,/MCU/BAT*%
X78690000Y-42372000D02*
X78640000Y-42322000D01*
D41*
X92132000Y-39259000D02*
X92132000Y-38232000D01*
X92132000Y-38232000D02*
X91200000Y-37300000D01*
X82600000Y-37224500D02*
X82600000Y-38800000D01*
X91200000Y-37300000D02*
X90000000Y-37300000D01*
D42*
X78690000Y-43922000D02*
X78690000Y-42372000D01*
D41*
X82600000Y-38800000D02*
X82600000Y-39261500D01*
X79189388Y-41772612D02*
X78640000Y-42322000D01*
X79189388Y-41518571D02*
X79189388Y-41772612D01*
%TD*%
%TA.AperFunction,Conductor*%
%TO.N,GND*%
G36*
X110584532Y-41433736D02*
G01*
X110641368Y-41476283D01*
X110666179Y-41542803D01*
X110666500Y-41551792D01*
X110666500Y-42075400D01*
X110666837Y-42078646D01*
X110666837Y-42078650D01*
X110673375Y-42141658D01*
X110677474Y-42181166D01*
X110679655Y-42187702D01*
X110679655Y-42187704D01*
X110730695Y-42340689D01*
X110733279Y-42411638D01*
X110697096Y-42472722D01*
X110651048Y-42500088D01*
X110558007Y-42531130D01*
X110558005Y-42531131D01*
X110551054Y-42533450D01*
X110400652Y-42626522D01*
X110275695Y-42751697D01*
X110271855Y-42757927D01*
X110271854Y-42757928D01*
X110186950Y-42895668D01*
X110182885Y-42902262D01*
X110170865Y-42938501D01*
X110138082Y-43037341D01*
X110127203Y-43070139D01*
X110116500Y-43174600D01*
X110116500Y-44025400D01*
X110116837Y-44028646D01*
X110116837Y-44028650D01*
X110125166Y-44108920D01*
X110127474Y-44131166D01*
X110129655Y-44137702D01*
X110129655Y-44137704D01*
X110171786Y-44263985D01*
X110183450Y-44298946D01*
X110276522Y-44449348D01*
X110281704Y-44454521D01*
X110296532Y-44469323D01*
X110401697Y-44574305D01*
X110407927Y-44578145D01*
X110407928Y-44578146D01*
X110545773Y-44663115D01*
X110552262Y-44667115D01*
X110607161Y-44685324D01*
X110713611Y-44720632D01*
X110713613Y-44720632D01*
X110720139Y-44722797D01*
X110726975Y-44723497D01*
X110726978Y-44723498D01*
X110766499Y-44727547D01*
X110824600Y-44733500D01*
X111067207Y-44733500D01*
X111135328Y-44753502D01*
X111156303Y-44770405D01*
X111437302Y-45051405D01*
X111471327Y-45113717D01*
X111466262Y-45184533D01*
X111423715Y-45241368D01*
X111357195Y-45266179D01*
X111348206Y-45266500D01*
X110824600Y-45266500D01*
X110821354Y-45266837D01*
X110821350Y-45266837D01*
X110725692Y-45276762D01*
X110725688Y-45276763D01*
X110718834Y-45277474D01*
X110712298Y-45279655D01*
X110712296Y-45279655D01*
X110580194Y-45323728D01*
X110551054Y-45333450D01*
X110400652Y-45426522D01*
X110275695Y-45551697D01*
X110271855Y-45557927D01*
X110271854Y-45557928D01*
X110203357Y-45669051D01*
X110182885Y-45702262D01*
X110175313Y-45725091D01*
X110164907Y-45756464D01*
X110124476Y-45814824D01*
X110058912Y-45842061D01*
X109992064Y-45830992D01*
X109976077Y-45823537D01*
X109821791Y-45772362D01*
X109808415Y-45769495D01*
X109714063Y-45759828D01*
X109707646Y-45759500D01*
X109689875Y-45759500D01*
X109674956Y-45758614D01*
X109647993Y-45755399D01*
X109633997Y-45755301D01*
X109600613Y-45758810D01*
X109587442Y-45759500D01*
X109357115Y-45759500D01*
X109341876Y-45763975D01*
X109340671Y-45765365D01*
X109339000Y-45773048D01*
X109339000Y-45868675D01*
X109346530Y-45894320D01*
X110079595Y-46627385D01*
X110113621Y-46689697D01*
X110116500Y-46716480D01*
X110116500Y-46825400D01*
X110116837Y-46828646D01*
X110116837Y-46828650D01*
X110125412Y-46911290D01*
X110127474Y-46931166D01*
X110129655Y-46937702D01*
X110129655Y-46937704D01*
X110152997Y-47007669D01*
X110183450Y-47098946D01*
X110276522Y-47249348D01*
X110278356Y-47251179D01*
X110304263Y-47315188D01*
X110291091Y-47384952D01*
X110267975Y-47416735D01*
X110007522Y-47677188D01*
X109999908Y-47691132D01*
X110000039Y-47692965D01*
X110004290Y-47699580D01*
X110307959Y-48003249D01*
X110341985Y-48065561D01*
X110336920Y-48136376D01*
X110307959Y-48181439D01*
X110238460Y-48250938D01*
X110230846Y-48264882D01*
X110230977Y-48266715D01*
X110235228Y-48273330D01*
X110307959Y-48346061D01*
X110341985Y-48408373D01*
X110336920Y-48479188D01*
X110307959Y-48524251D01*
X110007522Y-48824688D01*
X109999908Y-48838632D01*
X110000039Y-48840465D01*
X110004290Y-48847080D01*
X110335562Y-49178352D01*
X110347942Y-49185112D01*
X110352919Y-49181386D01*
X110354464Y-49178073D01*
X110395907Y-49053128D01*
X110436338Y-48994769D01*
X110501902Y-48967532D01*
X110571784Y-48980066D01*
X110623796Y-49028390D01*
X110641500Y-49092796D01*
X110641500Y-49832321D01*
X110621498Y-49900442D01*
X110567842Y-49946935D01*
X110497568Y-49957039D01*
X110477821Y-49952555D01*
X110360356Y-49915744D01*
X110347306Y-49913131D01*
X110292414Y-49908087D01*
X110280876Y-49911475D01*
X110279671Y-49912865D01*
X110278000Y-49920548D01*
X110278000Y-51854884D01*
X110282475Y-51870123D01*
X110283865Y-51871328D01*
X110288294Y-51872291D01*
X110347315Y-51866868D01*
X110360351Y-51864257D01*
X110510243Y-51817285D01*
X110523988Y-51811079D01*
X110657574Y-51730176D01*
X110669443Y-51720869D01*
X110759551Y-51630761D01*
X110821863Y-51596735D01*
X110892678Y-51601800D01*
X110937741Y-51630761D01*
X111033619Y-51726639D01*
X111180301Y-51815472D01*
X111187548Y-51817743D01*
X111187550Y-51817744D01*
X111232186Y-51831732D01*
X111343938Y-51866753D01*
X111417365Y-51873500D01*
X111420263Y-51873500D01*
X111674665Y-51873499D01*
X111930634Y-51873499D01*
X111933492Y-51873236D01*
X111933501Y-51873236D01*
X111969004Y-51869974D01*
X112004062Y-51866753D01*
X112012030Y-51864256D01*
X112160450Y-51817744D01*
X112160452Y-51817743D01*
X112167699Y-51815472D01*
X112314381Y-51726639D01*
X112435639Y-51605381D01*
X112524472Y-51458699D01*
X112537697Y-51416500D01*
X112564677Y-51330404D01*
X112575753Y-51295062D01*
X112582500Y-51221635D01*
X112582499Y-50558366D01*
X112581674Y-50549379D01*
X112576847Y-50496845D01*
X112575753Y-50484938D01*
X112562767Y-50443500D01*
X112526744Y-50328550D01*
X112526743Y-50328548D01*
X112524472Y-50321301D01*
X112435639Y-50174619D01*
X112395405Y-50134385D01*
X112361379Y-50072073D01*
X112358500Y-50045290D01*
X112358500Y-47587516D01*
X112378502Y-47519395D01*
X112432158Y-47472902D01*
X112439874Y-47469863D01*
X112441997Y-47468868D01*
X112448946Y-47466550D01*
X112599348Y-47373478D01*
X112627681Y-47345096D01*
X112676327Y-47296365D01*
X112738610Y-47262286D01*
X112809430Y-47267289D01*
X112866302Y-47309786D01*
X112891171Y-47376285D01*
X112891500Y-47385383D01*
X112891500Y-66700000D01*
X112871498Y-66768121D01*
X112817842Y-66814614D01*
X112765500Y-66826000D01*
X106734500Y-66826000D01*
X106666379Y-66805998D01*
X106619886Y-66752342D01*
X106608500Y-66700000D01*
X106608500Y-64334500D01*
X108071026Y-64334500D01*
X108090891Y-64586903D01*
X108149995Y-64833091D01*
X108246884Y-65067002D01*
X108379172Y-65282876D01*
X108543602Y-65475398D01*
X108736124Y-65639828D01*
X108951998Y-65772116D01*
X108956568Y-65774009D01*
X108956572Y-65774011D01*
X109181336Y-65867111D01*
X109185909Y-65869005D01*
X109270532Y-65889321D01*
X109427284Y-65926954D01*
X109427290Y-65926955D01*
X109432097Y-65928109D01*
X109531916Y-65935965D01*
X109618845Y-65942807D01*
X109618852Y-65942807D01*
X109621301Y-65943000D01*
X109747699Y-65943000D01*
X109750148Y-65942807D01*
X109750155Y-65942807D01*
X109837084Y-65935965D01*
X109936903Y-65928109D01*
X109941710Y-65926955D01*
X109941716Y-65926954D01*
X110098468Y-65889321D01*
X110183091Y-65869005D01*
X110187664Y-65867111D01*
X110412428Y-65774011D01*
X110412432Y-65774009D01*
X110417002Y-65772116D01*
X110632876Y-65639828D01*
X110825398Y-65475398D01*
X110989828Y-65282876D01*
X111122116Y-65067002D01*
X111219005Y-64833091D01*
X111278109Y-64586903D01*
X111297974Y-64334500D01*
X111278109Y-64082097D01*
X111219005Y-63835909D01*
X111122116Y-63601998D01*
X110989828Y-63386124D01*
X110825398Y-63193602D01*
X110632876Y-63029172D01*
X110417002Y-62896884D01*
X110412432Y-62894991D01*
X110412428Y-62894989D01*
X110187664Y-62801889D01*
X110187662Y-62801888D01*
X110183091Y-62799995D01*
X110073818Y-62773761D01*
X109941716Y-62742046D01*
X109941710Y-62742045D01*
X109936903Y-62740891D01*
X109837084Y-62733035D01*
X109750155Y-62726193D01*
X109750148Y-62726193D01*
X109747699Y-62726000D01*
X109621301Y-62726000D01*
X109618852Y-62726193D01*
X109618845Y-62726193D01*
X109531916Y-62733035D01*
X109432097Y-62740891D01*
X109427290Y-62742045D01*
X109427284Y-62742046D01*
X109295182Y-62773761D01*
X109185909Y-62799995D01*
X109181338Y-62801888D01*
X109181336Y-62801889D01*
X108956572Y-62894989D01*
X108956568Y-62894991D01*
X108951998Y-62896884D01*
X108736124Y-63029172D01*
X108543602Y-63193602D01*
X108379172Y-63386124D01*
X108246884Y-63601998D01*
X108149995Y-63835909D01*
X108090891Y-64082097D01*
X108071026Y-64334500D01*
X106608500Y-64334500D01*
X106608500Y-62508531D01*
X106608502Y-62507750D01*
X106608926Y-62439300D01*
X106608982Y-62430326D01*
X106606518Y-62421701D01*
X106606517Y-62421695D01*
X106600851Y-62401866D01*
X106597278Y-62385128D01*
X106593080Y-62355813D01*
X106589362Y-62347635D01*
X106582464Y-62332464D01*
X106576011Y-62314925D01*
X106568968Y-62290272D01*
X106564181Y-62282684D01*
X106564180Y-62282681D01*
X106553176Y-62265238D01*
X106545048Y-62250172D01*
X106532792Y-62223218D01*
X106526932Y-62216417D01*
X106526930Y-62216414D01*
X106516051Y-62203788D01*
X106504936Y-62188767D01*
X106496043Y-62174670D01*
X106491254Y-62167078D01*
X106469070Y-62147482D01*
X106457041Y-62135304D01*
X106437713Y-62112873D01*
X106416186Y-62098920D01*
X106401306Y-62087624D01*
X106388816Y-62076591D01*
X106388815Y-62076591D01*
X106382088Y-62070648D01*
X106355302Y-62058069D01*
X106340330Y-62049752D01*
X106323015Y-62038529D01*
X106315485Y-62033648D01*
X106290903Y-62026297D01*
X106273461Y-62019635D01*
X106250245Y-62008733D01*
X106241378Y-62007352D01*
X106241376Y-62007351D01*
X106221007Y-62004178D01*
X106204301Y-62000397D01*
X106184538Y-61994487D01*
X106184536Y-61994487D01*
X106175934Y-61991914D01*
X106166960Y-61991859D01*
X106166959Y-61991859D01*
X106160244Y-61991818D01*
X106141494Y-61991704D01*
X106140739Y-61991672D01*
X106139661Y-61991504D01*
X106112414Y-61991501D01*
X106108801Y-61991501D01*
X106108043Y-61991499D01*
X106097100Y-61991432D01*
X106030279Y-61991024D01*
X106028952Y-61991404D01*
X106027624Y-61991494D01*
X105968136Y-61991488D01*
X105919935Y-61991484D01*
X105851816Y-61971476D01*
X105805329Y-61917816D01*
X105795231Y-61847541D01*
X105824730Y-61782963D01*
X105831008Y-61776233D01*
X105926430Y-61681144D01*
X105926436Y-61681137D01*
X105930097Y-61677489D01*
X105989595Y-61594689D01*
X106057436Y-61500277D01*
X106060454Y-61496077D01*
X106071978Y-61472761D01*
X106157137Y-61300453D01*
X106157138Y-61300451D01*
X106159431Y-61295811D01*
X106224371Y-61082069D01*
X106253530Y-60860590D01*
X106254087Y-60837814D01*
X106255075Y-60797360D01*
X106255075Y-60797358D01*
X106255157Y-60794000D01*
X106236853Y-60571361D01*
X106182432Y-60354702D01*
X106093355Y-60149840D01*
X105972015Y-59962277D01*
X105821671Y-59797051D01*
X105821107Y-59796606D01*
X105785586Y-59736632D01*
X105788175Y-59665682D01*
X105828711Y-59607396D01*
X105872197Y-59584670D01*
X105893124Y-59578525D01*
X105894329Y-59577135D01*
X105896000Y-59569452D01*
X105896000Y-59564884D01*
X106404000Y-59564884D01*
X106408475Y-59580123D01*
X106409865Y-59581328D01*
X106414294Y-59582291D01*
X106473315Y-59576868D01*
X106486351Y-59574257D01*
X106636243Y-59527285D01*
X106649988Y-59521079D01*
X106783574Y-59440176D01*
X106795443Y-59430869D01*
X106905869Y-59320443D01*
X106915176Y-59308574D01*
X106996079Y-59174988D01*
X107002285Y-59161243D01*
X107049256Y-59011356D01*
X107051869Y-58998306D01*
X107057734Y-58934479D01*
X107058000Y-58928691D01*
X107058000Y-58872115D01*
X107053525Y-58856876D01*
X107052135Y-58855671D01*
X107044452Y-58854000D01*
X106422115Y-58854000D01*
X106406876Y-58858475D01*
X106405671Y-58859865D01*
X106404000Y-58867548D01*
X106404000Y-59564884D01*
X105896000Y-59564884D01*
X105896000Y-58472000D01*
X105916002Y-58403879D01*
X105969658Y-58357386D01*
X106022000Y-58346000D01*
X107039884Y-58346000D01*
X107055123Y-58341525D01*
X107056328Y-58340135D01*
X107057999Y-58332452D01*
X107057999Y-58271295D01*
X107057736Y-58265546D01*
X107051868Y-58201685D01*
X107049257Y-58188649D01*
X107002285Y-58038757D01*
X106996079Y-58025012D01*
X106915176Y-57891426D01*
X106901186Y-57873585D01*
X106902839Y-57872289D01*
X106873912Y-57819314D01*
X106878977Y-57748499D01*
X106898152Y-57714438D01*
X106899380Y-57712883D01*
X106904552Y-57707702D01*
X106965627Y-57608620D01*
X106990462Y-57568331D01*
X106990463Y-57568329D01*
X106994302Y-57562101D01*
X107048149Y-57399757D01*
X107051239Y-57369604D01*
X107055080Y-57332110D01*
X107058500Y-57298732D01*
X107058500Y-56701268D01*
X107047887Y-56598981D01*
X107010649Y-56487365D01*
X106996073Y-56443676D01*
X106996072Y-56443674D01*
X106993756Y-56436732D01*
X106952354Y-56369827D01*
X106933500Y-56303527D01*
X106933500Y-56220710D01*
X106953502Y-56152589D01*
X106970405Y-56131615D01*
X106986639Y-56115381D01*
X106997772Y-56096998D01*
X107009734Y-56077248D01*
X107062131Y-56029342D01*
X107132111Y-56017369D01*
X107183625Y-56035260D01*
X107231880Y-56065004D01*
X107245061Y-56071151D01*
X107393814Y-56120491D01*
X107407190Y-56123358D01*
X107498097Y-56132672D01*
X107504513Y-56133000D01*
X107527885Y-56133000D01*
X107543124Y-56128525D01*
X107544329Y-56127135D01*
X107546000Y-56119452D01*
X107546000Y-56114885D01*
X108054000Y-56114885D01*
X108058475Y-56130124D01*
X108059865Y-56131329D01*
X108067548Y-56133000D01*
X108095438Y-56133000D01*
X108101953Y-56132663D01*
X108194057Y-56123106D01*
X108207456Y-56120212D01*
X108356107Y-56070619D01*
X108369286Y-56064445D01*
X108502173Y-55982212D01*
X108513574Y-55973176D01*
X108623986Y-55862571D01*
X108632998Y-55851160D01*
X108715004Y-55718120D01*
X108721151Y-55704939D01*
X108770491Y-55556186D01*
X108773358Y-55542810D01*
X108782672Y-55451903D01*
X108782929Y-55446874D01*
X108778525Y-55431876D01*
X108777135Y-55430671D01*
X108769452Y-55429000D01*
X108072115Y-55429000D01*
X108056876Y-55433475D01*
X108055671Y-55434865D01*
X108054000Y-55442548D01*
X108054000Y-56114885D01*
X107546000Y-56114885D01*
X107546000Y-55047000D01*
X107566002Y-54978879D01*
X107619658Y-54932386D01*
X107672000Y-54921000D01*
X108764885Y-54921000D01*
X108780124Y-54916525D01*
X108781329Y-54915135D01*
X108783000Y-54907452D01*
X108783000Y-54904562D01*
X108782663Y-54898047D01*
X108773106Y-54805943D01*
X108770212Y-54792544D01*
X108720619Y-54643893D01*
X108714445Y-54630714D01*
X108632212Y-54497827D01*
X108618629Y-54480689D01*
X108620559Y-54479159D01*
X108592097Y-54427120D01*
X108597113Y-54356301D01*
X108620799Y-54319383D01*
X108619843Y-54318628D01*
X108624381Y-54312882D01*
X108629552Y-54307702D01*
X108633393Y-54301471D01*
X108715462Y-54168331D01*
X108715463Y-54168329D01*
X108719302Y-54162101D01*
X108773149Y-53999757D01*
X108783500Y-53898732D01*
X108783500Y-53351268D01*
X108772887Y-53248981D01*
X108724651Y-53104401D01*
X108721073Y-53093676D01*
X108721072Y-53093674D01*
X108718756Y-53086732D01*
X108714449Y-53079771D01*
X108632606Y-52947515D01*
X108628752Y-52941287D01*
X108507702Y-52820448D01*
X108495295Y-52812800D01*
X108368331Y-52734538D01*
X108368329Y-52734537D01*
X108362101Y-52730698D01*
X108221574Y-52684087D01*
X108163215Y-52643658D01*
X108135978Y-52578093D01*
X108143454Y-52519752D01*
X108185554Y-52408924D01*
X108185556Y-52408917D01*
X108188055Y-52402338D01*
X108189035Y-52395366D01*
X108212748Y-52226639D01*
X108212748Y-52226636D01*
X108213299Y-52222717D01*
X108213616Y-52200000D01*
X108193397Y-52019745D01*
X108170713Y-51954605D01*
X108136064Y-51855106D01*
X108136062Y-51855103D01*
X108133745Y-51848448D01*
X108110681Y-51811537D01*
X108041359Y-51700598D01*
X108037626Y-51694624D01*
X108032664Y-51689627D01*
X107914778Y-51570915D01*
X107914774Y-51570912D01*
X107909815Y-51565918D01*
X107895837Y-51557047D01*
X107821573Y-51509918D01*
X107756666Y-51468727D01*
X107684085Y-51442882D01*
X107626621Y-51401188D01*
X107600821Y-51335045D01*
X107600352Y-51324183D01*
X107600352Y-51218705D01*
X109116001Y-51218705D01*
X109116264Y-51224454D01*
X109122132Y-51288315D01*
X109124743Y-51301351D01*
X109171715Y-51451243D01*
X109177921Y-51464988D01*
X109258824Y-51598574D01*
X109268131Y-51610443D01*
X109378557Y-51720869D01*
X109390426Y-51730176D01*
X109524012Y-51811079D01*
X109537757Y-51817285D01*
X109687644Y-51864256D01*
X109700694Y-51866869D01*
X109755586Y-51871913D01*
X109767124Y-51868525D01*
X109768329Y-51867135D01*
X109770000Y-51859452D01*
X109770000Y-51162115D01*
X109765525Y-51146876D01*
X109764135Y-51145671D01*
X109756452Y-51144000D01*
X109134116Y-51144000D01*
X109118877Y-51148475D01*
X109117672Y-51149865D01*
X109116001Y-51157548D01*
X109116001Y-51218705D01*
X107600352Y-51218705D01*
X107600352Y-51070115D01*
X107588693Y-50981552D01*
X107585768Y-50959338D01*
X107584690Y-50951150D01*
X107523376Y-50803125D01*
X107442794Y-50698109D01*
X107430868Y-50682566D01*
X107430865Y-50682563D01*
X107425839Y-50676013D01*
X107419288Y-50670986D01*
X107414284Y-50665982D01*
X107403145Y-50655549D01*
X107402840Y-50655202D01*
X107400329Y-50651929D01*
X107366285Y-50617885D01*
X109116000Y-50617885D01*
X109120475Y-50633124D01*
X109121865Y-50634329D01*
X109129548Y-50636000D01*
X109751885Y-50636000D01*
X109767124Y-50631525D01*
X109768329Y-50630135D01*
X109770000Y-50622452D01*
X109770000Y-49925116D01*
X109765525Y-49909877D01*
X109764135Y-49908672D01*
X109759706Y-49907709D01*
X109700685Y-49913132D01*
X109687649Y-49915743D01*
X109537757Y-49962715D01*
X109524012Y-49968921D01*
X109390426Y-50049824D01*
X109378557Y-50059131D01*
X109268131Y-50169557D01*
X109258824Y-50181426D01*
X109177921Y-50315012D01*
X109171715Y-50328757D01*
X109124744Y-50478644D01*
X109122131Y-50491694D01*
X109116266Y-50555521D01*
X109116000Y-50561309D01*
X109116000Y-50617885D01*
X107366285Y-50617885D01*
X106298342Y-49549942D01*
X108186888Y-49549942D01*
X108190614Y-49554919D01*
X108193927Y-49556464D01*
X108348209Y-49607638D01*
X108361585Y-49610505D01*
X108455937Y-49620172D01*
X108462353Y-49620500D01*
X108473798Y-49620500D01*
X108490463Y-49621607D01*
X108511017Y-49624350D01*
X108525013Y-49624643D01*
X108564829Y-49621019D01*
X108576249Y-49620500D01*
X108812885Y-49620500D01*
X108828124Y-49616025D01*
X108829329Y-49614635D01*
X108831000Y-49606952D01*
X108831000Y-49602385D01*
X109339000Y-49602385D01*
X109343475Y-49617624D01*
X109344865Y-49618829D01*
X109352548Y-49620500D01*
X109574798Y-49620500D01*
X109591463Y-49621607D01*
X109612017Y-49624350D01*
X109626013Y-49624643D01*
X109665829Y-49621019D01*
X109677249Y-49620500D01*
X109707598Y-49620500D01*
X109714113Y-49620163D01*
X109809705Y-49610244D01*
X109823104Y-49607350D01*
X109977292Y-49555910D01*
X109977723Y-49555708D01*
X109983278Y-49549513D01*
X109979390Y-49540600D01*
X109648312Y-49209522D01*
X109634368Y-49201908D01*
X109632535Y-49202039D01*
X109625920Y-49206290D01*
X109351812Y-49480398D01*
X109339000Y-49503860D01*
X109339000Y-49602385D01*
X108831000Y-49602385D01*
X108831000Y-49511325D01*
X108823470Y-49485680D01*
X108547312Y-49209522D01*
X108533368Y-49201908D01*
X108531535Y-49202039D01*
X108524920Y-49206290D01*
X108193648Y-49537562D01*
X108186888Y-49549942D01*
X106298342Y-49549942D01*
X105581911Y-48833511D01*
X107747311Y-48833511D01*
X107750899Y-48870109D01*
X107751500Y-48882404D01*
X107751500Y-48909598D01*
X107751837Y-48916113D01*
X107761756Y-49011705D01*
X107764650Y-49025104D01*
X107816090Y-49179292D01*
X107816292Y-49179723D01*
X107822487Y-49185278D01*
X107831400Y-49181390D01*
X108162478Y-48850312D01*
X108170092Y-48836368D01*
X108169961Y-48834535D01*
X108165710Y-48827920D01*
X107862041Y-48524251D01*
X107828015Y-48461939D01*
X107833080Y-48391124D01*
X107862041Y-48346061D01*
X107931540Y-48276562D01*
X107937918Y-48264882D01*
X108325158Y-48264882D01*
X108325289Y-48266715D01*
X108329540Y-48273330D01*
X108521688Y-48465478D01*
X108535632Y-48473092D01*
X108537465Y-48472961D01*
X108544080Y-48468710D01*
X108736228Y-48276562D01*
X108742606Y-48264882D01*
X109426158Y-48264882D01*
X109426289Y-48266715D01*
X109430540Y-48273330D01*
X109622688Y-48465478D01*
X109636632Y-48473092D01*
X109638465Y-48472961D01*
X109645080Y-48468710D01*
X109837228Y-48276562D01*
X109844842Y-48262618D01*
X109844711Y-48260785D01*
X109840460Y-48254170D01*
X109648312Y-48062022D01*
X109634368Y-48054408D01*
X109632535Y-48054539D01*
X109625920Y-48058790D01*
X109433772Y-48250938D01*
X109426158Y-48264882D01*
X108742606Y-48264882D01*
X108743842Y-48262618D01*
X108743711Y-48260785D01*
X108739460Y-48254170D01*
X108547312Y-48062022D01*
X108533368Y-48054408D01*
X108531535Y-48054539D01*
X108524920Y-48058790D01*
X108332772Y-48250938D01*
X108325158Y-48264882D01*
X107937918Y-48264882D01*
X107939154Y-48262618D01*
X107939023Y-48260785D01*
X107934772Y-48254170D01*
X107862041Y-48181439D01*
X107828015Y-48119127D01*
X107833080Y-48048312D01*
X107862041Y-48003249D01*
X107908478Y-47956812D01*
X107913987Y-47946723D01*
X107906686Y-47944000D01*
X107769615Y-47944000D01*
X107754376Y-47948475D01*
X107753171Y-47949865D01*
X107751500Y-47957548D01*
X107751500Y-48779968D01*
X107750507Y-48795760D01*
X107747506Y-48819512D01*
X107747311Y-48833511D01*
X105581911Y-48833511D01*
X105457522Y-48709122D01*
X103483996Y-46735595D01*
X103449970Y-46673283D01*
X103455035Y-46602467D01*
X103497582Y-46545632D01*
X103564102Y-46520821D01*
X103573091Y-46520500D01*
X104436699Y-46520500D01*
X104505692Y-46541068D01*
X104637611Y-46627393D01*
X104654159Y-46638222D01*
X104660763Y-46640678D01*
X104660765Y-46640679D01*
X104817558Y-46698990D01*
X104817560Y-46698990D01*
X104824168Y-46701448D01*
X104907995Y-46712633D01*
X104996980Y-46724507D01*
X104996984Y-46724507D01*
X105003961Y-46725438D01*
X105010972Y-46724800D01*
X105010976Y-46724800D01*
X105153459Y-46711832D01*
X105184600Y-46708998D01*
X105191302Y-46706820D01*
X105191304Y-46706820D01*
X105350409Y-46655124D01*
X105350412Y-46655123D01*
X105357108Y-46652947D01*
X105469250Y-46586097D01*
X105506860Y-46563677D01*
X105506862Y-46563676D01*
X105512912Y-46560069D01*
X105535550Y-46538511D01*
X107747311Y-46538511D01*
X107750899Y-46575109D01*
X107751500Y-46587404D01*
X107751500Y-47417885D01*
X107755975Y-47433124D01*
X107757365Y-47434329D01*
X107765048Y-47436000D01*
X107903175Y-47436000D01*
X107914200Y-47432763D01*
X107910962Y-47425672D01*
X107862041Y-47376751D01*
X107828015Y-47314439D01*
X107833080Y-47243624D01*
X107862041Y-47198561D01*
X107931540Y-47129062D01*
X107937918Y-47117382D01*
X108325158Y-47117382D01*
X108325289Y-47119215D01*
X108329540Y-47125830D01*
X108521688Y-47317978D01*
X108535632Y-47325592D01*
X108537465Y-47325461D01*
X108544080Y-47321210D01*
X108736228Y-47129062D01*
X108742606Y-47117382D01*
X109426158Y-47117382D01*
X109426289Y-47119215D01*
X109430540Y-47125830D01*
X109622688Y-47317978D01*
X109636632Y-47325592D01*
X109638465Y-47325461D01*
X109645080Y-47321210D01*
X109837228Y-47129062D01*
X109844842Y-47115118D01*
X109844711Y-47113285D01*
X109840460Y-47106670D01*
X109648312Y-46914522D01*
X109634368Y-46906908D01*
X109632535Y-46907039D01*
X109625920Y-46911290D01*
X109433772Y-47103438D01*
X109426158Y-47117382D01*
X108742606Y-47117382D01*
X108743842Y-47115118D01*
X108743711Y-47113285D01*
X108739460Y-47106670D01*
X108547312Y-46914522D01*
X108533368Y-46906908D01*
X108531535Y-46907039D01*
X108524920Y-46911290D01*
X108332772Y-47103438D01*
X108325158Y-47117382D01*
X107937918Y-47117382D01*
X107939154Y-47115118D01*
X107939023Y-47113285D01*
X107934772Y-47106670D01*
X107862041Y-47033939D01*
X107828015Y-46971627D01*
X107833080Y-46900812D01*
X107862041Y-46855749D01*
X108162478Y-46555312D01*
X108170092Y-46541368D01*
X108169961Y-46539535D01*
X108165710Y-46532920D01*
X107834438Y-46201648D01*
X107822058Y-46194888D01*
X107817081Y-46198614D01*
X107815536Y-46201927D01*
X107764362Y-46356209D01*
X107761495Y-46369585D01*
X107751828Y-46463937D01*
X107751500Y-46470354D01*
X107751500Y-46484968D01*
X107750507Y-46500760D01*
X107747506Y-46524512D01*
X107747311Y-46538511D01*
X105535550Y-46538511D01*
X105644266Y-46434982D01*
X105744643Y-46283902D01*
X105795437Y-46150188D01*
X105806555Y-46120920D01*
X105806556Y-46120918D01*
X105809055Y-46114338D01*
X105812765Y-46087943D01*
X105833748Y-45938639D01*
X105833748Y-45938636D01*
X105834299Y-45934717D01*
X105834616Y-45912000D01*
X105825473Y-45830487D01*
X108186722Y-45830487D01*
X108190610Y-45839400D01*
X108521688Y-46170478D01*
X108535632Y-46178092D01*
X108537465Y-46177961D01*
X108544080Y-46173710D01*
X108818188Y-45899602D01*
X108831000Y-45876140D01*
X108831000Y-45777615D01*
X108826525Y-45762376D01*
X108825135Y-45761171D01*
X108817452Y-45759500D01*
X108588875Y-45759500D01*
X108573956Y-45758614D01*
X108546993Y-45755399D01*
X108532997Y-45755301D01*
X108499613Y-45758810D01*
X108486442Y-45759500D01*
X108462402Y-45759500D01*
X108455887Y-45759837D01*
X108360295Y-45769756D01*
X108346896Y-45772650D01*
X108192708Y-45824090D01*
X108192277Y-45824292D01*
X108186722Y-45830487D01*
X105825473Y-45830487D01*
X105814397Y-45731745D01*
X105806550Y-45709210D01*
X105767780Y-45597879D01*
X105754745Y-45560448D01*
X105751010Y-45554471D01*
X105747967Y-45548119D01*
X105749820Y-45547231D01*
X105733500Y-45490319D01*
X105733500Y-45201739D01*
X105753502Y-45133618D01*
X105807158Y-45087125D01*
X105877432Y-45077021D01*
X105899167Y-45082146D01*
X106013707Y-45120137D01*
X106027086Y-45123005D01*
X106121438Y-45132672D01*
X106127854Y-45133000D01*
X106527885Y-45133000D01*
X106543124Y-45128525D01*
X106544329Y-45127135D01*
X106546000Y-45119452D01*
X106546000Y-45114884D01*
X107054000Y-45114884D01*
X107058475Y-45130123D01*
X107059865Y-45131328D01*
X107067548Y-45132999D01*
X107472095Y-45132999D01*
X107478614Y-45132662D01*
X107574206Y-45122743D01*
X107587600Y-45119851D01*
X107741784Y-45068412D01*
X107754962Y-45062239D01*
X107892807Y-44976937D01*
X107904208Y-44967901D01*
X108018739Y-44853171D01*
X108027751Y-44841760D01*
X108112816Y-44703757D01*
X108118963Y-44690576D01*
X108170138Y-44536290D01*
X108173005Y-44522914D01*
X108182672Y-44428562D01*
X108183000Y-44422145D01*
X108183000Y-44272115D01*
X108178525Y-44256876D01*
X108177135Y-44255671D01*
X108169452Y-44254000D01*
X107072115Y-44254000D01*
X107056876Y-44258475D01*
X107055671Y-44259865D01*
X107054000Y-44267548D01*
X107054000Y-45114884D01*
X106546000Y-45114884D01*
X106546000Y-43727885D01*
X107054000Y-43727885D01*
X107058475Y-43743124D01*
X107059865Y-43744329D01*
X107067548Y-43746000D01*
X108164884Y-43746000D01*
X108180123Y-43741525D01*
X108181328Y-43740135D01*
X108182999Y-43732452D01*
X108182999Y-43577905D01*
X108182662Y-43571386D01*
X108172743Y-43475794D01*
X108169851Y-43462400D01*
X108118412Y-43308216D01*
X108112239Y-43295038D01*
X108026937Y-43157193D01*
X108017901Y-43145792D01*
X107903171Y-43031261D01*
X107891760Y-43022249D01*
X107753757Y-42937184D01*
X107740576Y-42931037D01*
X107586290Y-42879862D01*
X107572914Y-42876995D01*
X107478562Y-42867328D01*
X107472145Y-42867000D01*
X107072115Y-42867000D01*
X107056876Y-42871475D01*
X107055671Y-42872865D01*
X107054000Y-42880548D01*
X107054000Y-43727885D01*
X106546000Y-43727885D01*
X106546000Y-42885116D01*
X106541525Y-42869877D01*
X106540135Y-42868672D01*
X106532452Y-42867001D01*
X106127905Y-42867001D01*
X106121386Y-42867338D01*
X106025794Y-42877257D01*
X106012400Y-42880149D01*
X105899376Y-42917856D01*
X105828426Y-42920440D01*
X105767342Y-42884256D01*
X105735518Y-42820792D01*
X105733500Y-42798332D01*
X105733500Y-42402266D01*
X105753502Y-42334145D01*
X105807158Y-42287652D01*
X105877432Y-42277548D01*
X105899167Y-42282673D01*
X106013611Y-42320632D01*
X106013613Y-42320632D01*
X106020139Y-42322797D01*
X106026975Y-42323497D01*
X106026978Y-42323498D01*
X106070031Y-42327909D01*
X106124600Y-42333500D01*
X107475400Y-42333500D01*
X107478646Y-42333163D01*
X107478650Y-42333163D01*
X107574308Y-42323238D01*
X107574312Y-42323237D01*
X107581166Y-42322526D01*
X107587702Y-42320345D01*
X107587704Y-42320345D01*
X107748946Y-42266550D01*
X107749435Y-42268016D01*
X107792182Y-42258500D01*
X107812484Y-42258500D01*
X107880605Y-42278502D01*
X107927098Y-42332158D01*
X107930137Y-42339874D01*
X107931132Y-42341997D01*
X107933450Y-42348946D01*
X108026522Y-42499348D01*
X108151697Y-42624305D01*
X108157927Y-42628145D01*
X108157928Y-42628146D01*
X108295090Y-42712694D01*
X108302262Y-42717115D01*
X108380939Y-42743211D01*
X108463611Y-42770632D01*
X108463613Y-42770632D01*
X108470139Y-42772797D01*
X108476975Y-42773497D01*
X108476978Y-42773498D01*
X108520031Y-42777909D01*
X108574600Y-42783500D01*
X109425400Y-42783500D01*
X109428646Y-42783163D01*
X109428650Y-42783163D01*
X109524308Y-42773238D01*
X109524312Y-42773237D01*
X109531166Y-42772526D01*
X109537702Y-42770345D01*
X109537704Y-42770345D01*
X109678300Y-42723438D01*
X109698946Y-42716550D01*
X109849348Y-42623478D01*
X109974305Y-42498303D01*
X109978146Y-42492072D01*
X110063275Y-42353968D01*
X110063276Y-42353966D01*
X110067115Y-42347738D01*
X110101181Y-42245032D01*
X110120632Y-42186389D01*
X110120632Y-42186387D01*
X110122797Y-42179861D01*
X110123603Y-42172000D01*
X110130582Y-42103879D01*
X110133500Y-42075400D01*
X110133500Y-41832792D01*
X110153502Y-41764671D01*
X110170405Y-41743697D01*
X110451405Y-41462697D01*
X110513717Y-41428671D01*
X110584532Y-41433736D01*
G37*
%TD.AperFunction*%
%TA.AperFunction,Conductor*%
G36*
X85924027Y-61469144D02*
G01*
X85951876Y-61500994D01*
X85952968Y-61502776D01*
X86011988Y-61599088D01*
X86015368Y-61602990D01*
X86028370Y-61618000D01*
X86158251Y-61767938D01*
X86162234Y-61771245D01*
X86164673Y-61773633D01*
X86199351Y-61835584D01*
X86195031Y-61906449D01*
X86153084Y-61963729D01*
X86086828Y-61989238D01*
X86076508Y-61989660D01*
X85630117Y-61989620D01*
X85601810Y-61989617D01*
X85533691Y-61969609D01*
X85487203Y-61915949D01*
X85477105Y-61845674D01*
X85506604Y-61781096D01*
X85512881Y-61774366D01*
X85606436Y-61681137D01*
X85610097Y-61677489D01*
X85669595Y-61594689D01*
X85740454Y-61496077D01*
X85741777Y-61497028D01*
X85788646Y-61453857D01*
X85858581Y-61441625D01*
X85924027Y-61469144D01*
G37*
%TD.AperFunction*%
%TA.AperFunction,Conductor*%
G36*
X78444238Y-56745502D02*
G01*
X78482501Y-56783984D01*
X78484098Y-56786500D01*
X78516716Y-56837898D01*
X78518256Y-56840390D01*
X78560147Y-56910109D01*
X78564834Y-56915066D01*
X78566851Y-56917723D01*
X78567369Y-56918469D01*
X78570344Y-56922402D01*
X78573109Y-56926759D01*
X78576930Y-56931032D01*
X78630908Y-56985010D01*
X78633362Y-56987532D01*
X78688308Y-57045636D01*
X78693956Y-57049474D01*
X78699148Y-57053893D01*
X78698808Y-57054293D01*
X78706800Y-57060902D01*
X80408794Y-58762897D01*
X80442820Y-58825209D01*
X80437755Y-58896025D01*
X80405952Y-58943842D01*
X80402057Y-58947500D01*
X80395644Y-58952159D01*
X80390591Y-58958267D01*
X80366199Y-58987752D01*
X80358209Y-58996532D01*
X79919336Y-59435405D01*
X79857024Y-59469431D01*
X79808146Y-59470357D01*
X79728697Y-59456205D01*
X79625374Y-59437800D01*
X79625368Y-59437799D01*
X79620285Y-59436894D01*
X79546453Y-59435992D01*
X79402082Y-59434228D01*
X79402080Y-59434228D01*
X79396912Y-59434165D01*
X79176092Y-59467955D01*
X78963757Y-59537357D01*
X78933444Y-59553137D01*
X78793382Y-59626049D01*
X78765608Y-59640507D01*
X78761475Y-59643610D01*
X78761472Y-59643612D01*
X78591101Y-59771530D01*
X78586966Y-59774635D01*
X78583394Y-59778373D01*
X78441274Y-59927093D01*
X78432630Y-59936138D01*
X78429721Y-59940403D01*
X78429715Y-59940411D01*
X78371330Y-60026000D01*
X78306744Y-60120680D01*
X78292670Y-60151000D01*
X78226873Y-60292749D01*
X78212689Y-60323305D01*
X78152990Y-60538570D01*
X78129252Y-60760695D01*
X78129549Y-60765848D01*
X78129549Y-60765851D01*
X78135933Y-60876562D01*
X78142111Y-60983715D01*
X78143248Y-60988761D01*
X78143249Y-60988767D01*
X78163120Y-61076939D01*
X78191223Y-61201639D01*
X78275267Y-61408616D01*
X78314048Y-61471901D01*
X78389292Y-61594688D01*
X78391988Y-61599088D01*
X78395368Y-61602990D01*
X78408370Y-61618000D01*
X78538251Y-61767938D01*
X78542233Y-61771244D01*
X78543958Y-61772933D01*
X78578636Y-61834885D01*
X78574316Y-61905750D01*
X78532369Y-61963029D01*
X78466113Y-61988538D01*
X78455792Y-61988960D01*
X71524932Y-61988323D01*
X71456814Y-61968315D01*
X71410326Y-61914655D01*
X71400228Y-61844380D01*
X71429727Y-61779802D01*
X71468820Y-61750671D01*
X71468699Y-61750472D01*
X71470772Y-61749217D01*
X71470775Y-61749215D01*
X71475200Y-61746535D01*
X71475202Y-61746534D01*
X71608880Y-61665576D01*
X71608879Y-61665576D01*
X71615381Y-61661639D01*
X71721436Y-61555584D01*
X71783748Y-61521558D01*
X71854563Y-61526623D01*
X71886095Y-61543852D01*
X71888637Y-61545757D01*
X71907795Y-61560115D01*
X72044184Y-61611245D01*
X72106366Y-61618000D01*
X73262634Y-61618000D01*
X73324816Y-61611245D01*
X73461205Y-61560115D01*
X73577761Y-61472761D01*
X73665115Y-61356205D01*
X73668267Y-61347797D01*
X73672577Y-61339925D01*
X73674957Y-61341228D01*
X73709164Y-61295696D01*
X73775727Y-61270999D01*
X73845075Y-61286209D01*
X73895191Y-61336497D01*
X73898433Y-61343597D01*
X73900734Y-61347799D01*
X73903885Y-61356205D01*
X73991239Y-61472761D01*
X74107795Y-61560115D01*
X74244184Y-61611245D01*
X74306366Y-61618000D01*
X75462634Y-61618000D01*
X75524816Y-61611245D01*
X75661205Y-61560115D01*
X75664342Y-61557764D01*
X75722050Y-61543000D01*
X76577430Y-61543000D01*
X76596380Y-61544433D01*
X76610615Y-61546599D01*
X76610619Y-61546599D01*
X76617849Y-61547699D01*
X76625141Y-61547106D01*
X76625144Y-61547106D01*
X76670518Y-61543415D01*
X76680733Y-61543000D01*
X76688793Y-61543000D01*
X76702083Y-61541451D01*
X76717007Y-61539711D01*
X76721382Y-61539278D01*
X76786839Y-61533954D01*
X76786842Y-61533953D01*
X76794137Y-61533360D01*
X76801101Y-61531104D01*
X76807060Y-61529913D01*
X76812915Y-61528529D01*
X76820181Y-61527682D01*
X76888827Y-61502765D01*
X76892955Y-61501348D01*
X76955436Y-61481107D01*
X76955438Y-61481106D01*
X76962399Y-61478851D01*
X76968657Y-61475054D01*
X76974127Y-61472549D01*
X76979554Y-61469831D01*
X76986437Y-61467333D01*
X76986439Y-61467332D01*
X76986444Y-61467330D01*
X76986472Y-61467407D01*
X77038958Y-61454999D01*
X77164134Y-61454999D01*
X77166992Y-61454736D01*
X77167001Y-61454736D01*
X77202504Y-61451474D01*
X77237562Y-61448253D01*
X77258712Y-61441625D01*
X77393950Y-61399244D01*
X77393952Y-61399243D01*
X77401199Y-61396972D01*
X77547881Y-61308139D01*
X77669139Y-61186881D01*
X77757972Y-61040199D01*
X77809253Y-60876562D01*
X77816000Y-60803135D01*
X77815999Y-60289866D01*
X77809253Y-60216438D01*
X77784785Y-60138361D01*
X77760244Y-60060050D01*
X77760243Y-60060048D01*
X77757972Y-60052801D01*
X77669139Y-59906119D01*
X77573261Y-59810241D01*
X77539235Y-59747929D01*
X77544300Y-59677114D01*
X77573261Y-59632051D01*
X77663369Y-59541943D01*
X77672676Y-59530074D01*
X77753579Y-59396488D01*
X77759785Y-59382743D01*
X77806756Y-59232856D01*
X77809369Y-59219806D01*
X77814413Y-59164914D01*
X77811025Y-59153376D01*
X77809635Y-59152171D01*
X77801952Y-59150500D01*
X76704500Y-59150500D01*
X76636379Y-59130498D01*
X76589886Y-59076842D01*
X76578500Y-59024500D01*
X76578500Y-58624385D01*
X77086500Y-58624385D01*
X77090975Y-58639624D01*
X77092365Y-58640829D01*
X77100048Y-58642500D01*
X77797384Y-58642500D01*
X77812623Y-58638025D01*
X77813828Y-58636635D01*
X77814791Y-58632206D01*
X77809368Y-58573185D01*
X77806757Y-58560149D01*
X77759785Y-58410257D01*
X77753579Y-58396512D01*
X77672676Y-58262926D01*
X77663369Y-58251057D01*
X77552943Y-58140631D01*
X77541071Y-58131322D01*
X77496613Y-58104397D01*
X77448706Y-58052000D01*
X77436733Y-57982020D01*
X77464494Y-57916676D01*
X77495581Y-57889477D01*
X77522673Y-57872712D01*
X77534074Y-57863676D01*
X77644486Y-57753071D01*
X77653498Y-57741660D01*
X77735504Y-57608620D01*
X77741651Y-57595439D01*
X77790991Y-57446686D01*
X77793858Y-57433310D01*
X77803172Y-57342403D01*
X77803500Y-57335987D01*
X77803500Y-57312615D01*
X77799025Y-57297376D01*
X77797635Y-57296171D01*
X77789952Y-57294500D01*
X77117615Y-57294500D01*
X77102376Y-57298975D01*
X77101171Y-57300365D01*
X77099500Y-57308048D01*
X77099500Y-58009295D01*
X77091324Y-58037140D01*
X77095007Y-58037941D01*
X77086500Y-58077048D01*
X77086500Y-58624385D01*
X76578500Y-58624385D01*
X76578500Y-58002705D01*
X76586676Y-57974860D01*
X76582993Y-57974059D01*
X76591500Y-57934952D01*
X76591500Y-56912500D01*
X76611502Y-56844379D01*
X76665158Y-56797886D01*
X76717500Y-56786500D01*
X77785385Y-56786500D01*
X77800625Y-56782025D01*
X77811922Y-56768988D01*
X77871648Y-56730604D01*
X77907146Y-56725500D01*
X78376117Y-56725500D01*
X78444238Y-56745502D01*
G37*
%TD.AperFunction*%
%TA.AperFunction,Conductor*%
G36*
X69815350Y-60711719D02*
G01*
X69822007Y-60717912D01*
X69879596Y-60775501D01*
X69913621Y-60837814D01*
X69916500Y-60864596D01*
X69916501Y-61032950D01*
X69916501Y-61156634D01*
X69916764Y-61159492D01*
X69916764Y-61159501D01*
X69918897Y-61182718D01*
X69923247Y-61230062D01*
X69925246Y-61236440D01*
X69925246Y-61236441D01*
X69943852Y-61295811D01*
X69974528Y-61393699D01*
X70063361Y-61540381D01*
X70184619Y-61661639D01*
X70329229Y-61749217D01*
X70331301Y-61750472D01*
X70330945Y-61751060D01*
X70380504Y-61793631D01*
X70400800Y-61861665D01*
X70381091Y-61929871D01*
X70327637Y-61976595D01*
X70274790Y-61988208D01*
X70054171Y-61988188D01*
X69733833Y-61988159D01*
X69665715Y-61968151D01*
X69619227Y-61914491D01*
X69607845Y-61862269D01*
X69606921Y-60807126D01*
X69626863Y-60738988D01*
X69680478Y-60692448D01*
X69750743Y-60682283D01*
X69815350Y-60711719D01*
G37*
%TD.AperFunction*%
%TA.AperFunction,Conductor*%
G36*
X81601032Y-46506154D02*
G01*
X81646095Y-46535115D01*
X81741619Y-46630639D01*
X81888301Y-46719472D01*
X81895548Y-46721743D01*
X81895550Y-46721744D01*
X81948623Y-46738376D01*
X82051938Y-46770753D01*
X82125365Y-46777500D01*
X82128263Y-46777500D01*
X82382665Y-46777499D01*
X82638634Y-46777499D01*
X82641492Y-46777236D01*
X82641501Y-46777236D01*
X82677004Y-46773974D01*
X82712062Y-46770753D01*
X82793822Y-46745131D01*
X82864805Y-46743847D01*
X82925216Y-46781143D01*
X82955873Y-46845180D01*
X82957500Y-46865365D01*
X82957500Y-52527761D01*
X82937498Y-52595882D01*
X82920595Y-52616856D01*
X82782416Y-52755035D01*
X82720104Y-52789061D01*
X82706495Y-52791249D01*
X82684802Y-52793529D01*
X82636296Y-52798627D01*
X82636292Y-52798628D01*
X82629288Y-52799364D01*
X82457579Y-52857818D01*
X82443457Y-52866506D01*
X82309095Y-52949166D01*
X82309092Y-52949168D01*
X82303088Y-52952862D01*
X82298053Y-52957793D01*
X82298050Y-52957795D01*
X82178525Y-53074843D01*
X82173493Y-53079771D01*
X82075235Y-53232238D01*
X82072826Y-53238858D01*
X82072824Y-53238861D01*
X82019533Y-53385278D01*
X82013197Y-53402685D01*
X81990463Y-53582640D01*
X82008163Y-53763160D01*
X82065418Y-53935273D01*
X82069065Y-53941295D01*
X82069066Y-53941297D01*
X82152150Y-54078485D01*
X82159380Y-54090424D01*
X82164269Y-54095487D01*
X82164270Y-54095488D01*
X82183899Y-54115814D01*
X82285382Y-54220902D01*
X82437159Y-54320222D01*
X82443763Y-54322678D01*
X82443765Y-54322679D01*
X82600558Y-54380990D01*
X82600560Y-54380990D01*
X82607168Y-54383448D01*
X82690995Y-54394633D01*
X82779980Y-54406507D01*
X82779984Y-54406507D01*
X82786961Y-54407438D01*
X82793972Y-54406800D01*
X82793976Y-54406800D01*
X82936459Y-54393832D01*
X82967600Y-54390998D01*
X82974302Y-54388820D01*
X82974304Y-54388820D01*
X83133409Y-54337124D01*
X83133412Y-54337123D01*
X83140108Y-54334947D01*
X83251334Y-54268643D01*
X83289860Y-54245677D01*
X83289862Y-54245676D01*
X83295912Y-54242069D01*
X83427266Y-54116982D01*
X83527643Y-53965902D01*
X83579381Y-53829702D01*
X83589555Y-53802920D01*
X83589556Y-53802918D01*
X83592055Y-53796338D01*
X83594948Y-53775757D01*
X83607420Y-53687009D01*
X83636708Y-53622335D01*
X83643099Y-53615450D01*
X83962234Y-53296315D01*
X83974625Y-53285448D01*
X83993437Y-53271013D01*
X83999987Y-53265987D01*
X84000042Y-53266059D01*
X84058717Y-53234019D01*
X84129532Y-53239084D01*
X84186368Y-53281631D01*
X84211179Y-53348151D01*
X84211500Y-53357140D01*
X84211500Y-53400134D01*
X84218255Y-53462316D01*
X84269385Y-53598705D01*
X84356739Y-53715261D01*
X84473295Y-53802615D01*
X84609684Y-53853745D01*
X84671866Y-53860500D01*
X85508134Y-53860500D01*
X85570316Y-53853745D01*
X85577712Y-53850973D01*
X85577718Y-53850971D01*
X85680771Y-53812338D01*
X85751578Y-53807155D01*
X85769229Y-53812338D01*
X85872282Y-53850971D01*
X85872288Y-53850973D01*
X85879684Y-53853745D01*
X85941866Y-53860500D01*
X86778134Y-53860500D01*
X86840316Y-53853745D01*
X86847712Y-53850973D01*
X86847718Y-53850971D01*
X86950771Y-53812338D01*
X87021578Y-53807155D01*
X87039229Y-53812338D01*
X87142282Y-53850971D01*
X87142288Y-53850973D01*
X87149684Y-53853745D01*
X87211866Y-53860500D01*
X88048134Y-53860500D01*
X88110316Y-53853745D01*
X88117712Y-53850973D01*
X88117718Y-53850971D01*
X88220771Y-53812338D01*
X88291578Y-53807155D01*
X88309229Y-53812338D01*
X88412282Y-53850971D01*
X88412288Y-53850973D01*
X88419684Y-53853745D01*
X88481866Y-53860500D01*
X89318134Y-53860500D01*
X89380316Y-53853745D01*
X89387712Y-53850973D01*
X89387718Y-53850971D01*
X89490771Y-53812338D01*
X89561578Y-53807155D01*
X89579229Y-53812338D01*
X89682282Y-53850971D01*
X89682288Y-53850973D01*
X89689684Y-53853745D01*
X89751866Y-53860500D01*
X90588134Y-53860500D01*
X90650316Y-53853745D01*
X90786705Y-53802615D01*
X90903261Y-53715261D01*
X90924648Y-53686725D01*
X90981505Y-53644210D01*
X91052323Y-53639184D01*
X91114617Y-53673243D01*
X91148608Y-53735574D01*
X91150872Y-53749993D01*
X91152163Y-53763160D01*
X91209418Y-53935273D01*
X91213065Y-53941295D01*
X91213066Y-53941297D01*
X91296150Y-54078485D01*
X91303380Y-54090424D01*
X91308269Y-54095487D01*
X91308270Y-54095488D01*
X91327899Y-54115814D01*
X91429382Y-54220902D01*
X91581159Y-54320222D01*
X91587763Y-54322678D01*
X91587765Y-54322679D01*
X91744558Y-54380990D01*
X91744560Y-54380990D01*
X91751168Y-54383448D01*
X91834995Y-54394633D01*
X91923980Y-54406507D01*
X91923984Y-54406507D01*
X91930961Y-54407438D01*
X91937972Y-54406800D01*
X91937976Y-54406800D01*
X92080459Y-54393832D01*
X92111600Y-54390998D01*
X92118302Y-54388820D01*
X92118304Y-54388820D01*
X92277409Y-54337124D01*
X92277412Y-54337123D01*
X92284108Y-54334947D01*
X92395334Y-54268643D01*
X92433860Y-54245677D01*
X92433862Y-54245676D01*
X92439912Y-54242069D01*
X92571266Y-54116982D01*
X92671643Y-53965902D01*
X92723381Y-53829702D01*
X92733555Y-53802920D01*
X92733556Y-53802918D01*
X92736055Y-53796338D01*
X92738770Y-53777019D01*
X92760748Y-53620639D01*
X92760748Y-53620636D01*
X92761299Y-53616717D01*
X92761452Y-53605738D01*
X92761561Y-53597962D01*
X92761561Y-53597957D01*
X92761616Y-53594000D01*
X92741397Y-53413745D01*
X92737840Y-53403531D01*
X92684064Y-53249106D01*
X92684062Y-53249103D01*
X92681745Y-53242448D01*
X92670206Y-53223982D01*
X92589359Y-53094598D01*
X92585626Y-53088624D01*
X92580664Y-53083627D01*
X92462778Y-52964915D01*
X92462774Y-52964912D01*
X92457815Y-52959918D01*
X92446697Y-52952862D01*
X92398538Y-52922300D01*
X92304666Y-52862727D01*
X92275463Y-52852328D01*
X92140425Y-52804243D01*
X92140420Y-52804242D01*
X92133790Y-52801881D01*
X92126802Y-52801048D01*
X92126799Y-52801047D01*
X92003698Y-52786368D01*
X91953680Y-52780404D01*
X91946677Y-52781140D01*
X91946676Y-52781140D01*
X91780288Y-52798628D01*
X91780286Y-52798629D01*
X91773288Y-52799364D01*
X91601579Y-52857818D01*
X91587457Y-52866506D01*
X91453095Y-52949166D01*
X91453092Y-52949168D01*
X91447088Y-52952862D01*
X91442053Y-52957793D01*
X91442050Y-52957795D01*
X91322525Y-53074843D01*
X91317493Y-53079771D01*
X91313677Y-53085693D01*
X91280411Y-53137311D01*
X91226697Y-53183736D01*
X91156410Y-53193751D01*
X91091867Y-53164176D01*
X91053559Y-53104401D01*
X91048500Y-53069056D01*
X91048500Y-50903866D01*
X91041745Y-50841684D01*
X90990615Y-50705295D01*
X90937429Y-50634329D01*
X90908645Y-50595922D01*
X90908642Y-50595919D01*
X90903261Y-50588739D01*
X90896080Y-50583357D01*
X90896077Y-50583354D01*
X90857900Y-50554742D01*
X90815385Y-50497883D01*
X90813509Y-50491901D01*
X90812882Y-50486936D01*
X90809965Y-50479570D01*
X90809964Y-50479564D01*
X90791327Y-50432494D01*
X90788645Y-50425044D01*
X90773015Y-50376939D01*
X90773015Y-50376938D01*
X90770564Y-50369396D01*
X90766316Y-50362702D01*
X90766313Y-50362696D01*
X90765724Y-50361768D01*
X90754960Y-50340643D01*
X90754554Y-50339618D01*
X90751635Y-50332244D01*
X90717226Y-50284884D01*
X90712777Y-50278337D01*
X90690627Y-50243435D01*
X90681416Y-50228920D01*
X90674827Y-50222732D01*
X90659149Y-50204949D01*
X90658500Y-50204056D01*
X90653841Y-50197643D01*
X90645915Y-50191086D01*
X90608745Y-50160335D01*
X90602811Y-50155104D01*
X90565910Y-50120453D01*
X90565911Y-50120453D01*
X90560133Y-50115028D01*
X90553191Y-50111212D01*
X90553186Y-50111208D01*
X90552216Y-50110675D01*
X90532605Y-50097348D01*
X90531754Y-50096644D01*
X90525646Y-50091591D01*
X90472685Y-50066669D01*
X90465633Y-50063076D01*
X90421286Y-50038696D01*
X90421285Y-50038695D01*
X90414337Y-50034876D01*
X90406659Y-50032905D01*
X90406657Y-50032904D01*
X90406124Y-50032767D01*
X90405590Y-50032630D01*
X90383278Y-50024597D01*
X90382280Y-50024127D01*
X90382277Y-50024126D01*
X90375105Y-50020751D01*
X90367318Y-50019266D01*
X90367316Y-50019265D01*
X90347572Y-50015499D01*
X90282086Y-49980826D01*
X89627405Y-49326145D01*
X89593379Y-49263833D01*
X89590500Y-49237050D01*
X89590500Y-48993500D01*
X89610502Y-48925379D01*
X89664158Y-48878886D01*
X89716499Y-48867500D01*
X89914614Y-48867499D01*
X89920978Y-48867499D01*
X89929953Y-48866793D01*
X89950474Y-48865179D01*
X89950477Y-48865178D01*
X89956889Y-48864674D01*
X89963063Y-48862880D01*
X89963070Y-48862879D01*
X90096847Y-48824012D01*
X90167153Y-48824012D01*
X90300925Y-48862877D01*
X90300927Y-48862877D01*
X90307111Y-48864674D01*
X90319762Y-48865670D01*
X90340562Y-48867307D01*
X90340575Y-48867308D01*
X90343021Y-48867500D01*
X90350436Y-48867500D01*
X90597501Y-48867499D01*
X90665620Y-48887501D01*
X90712113Y-48941156D01*
X90723500Y-48993499D01*
X90723500Y-49373864D01*
X90722422Y-49390307D01*
X90718250Y-49422000D01*
X90723500Y-49461880D01*
X90723500Y-49461885D01*
X90734766Y-49547459D01*
X90739162Y-49580851D01*
X90800476Y-49728876D01*
X90805503Y-49735427D01*
X90805504Y-49735429D01*
X90873520Y-49824069D01*
X90873526Y-49824075D01*
X90898013Y-49855987D01*
X90904568Y-49861017D01*
X90923379Y-49875452D01*
X90935770Y-49886319D01*
X93261685Y-52212234D01*
X93272552Y-52224625D01*
X93292013Y-52249987D01*
X93298563Y-52255013D01*
X93323925Y-52274474D01*
X93323928Y-52274477D01*
X93393318Y-52327722D01*
X93412570Y-52342495D01*
X93412574Y-52342497D01*
X93419125Y-52347524D01*
X93567150Y-52408838D01*
X93686115Y-52424500D01*
X93686120Y-52424500D01*
X93686129Y-52424501D01*
X93717812Y-52428672D01*
X93726000Y-52429750D01*
X93757693Y-52425578D01*
X93774136Y-52424500D01*
X94740824Y-52424500D01*
X94808945Y-52444502D01*
X94848599Y-52485227D01*
X94855380Y-52496424D01*
X94981382Y-52626902D01*
X95133159Y-52726222D01*
X95139763Y-52728678D01*
X95139765Y-52728679D01*
X95296558Y-52786990D01*
X95296560Y-52786990D01*
X95303168Y-52789448D01*
X95386995Y-52800633D01*
X95475980Y-52812507D01*
X95475984Y-52812507D01*
X95482961Y-52813438D01*
X95489972Y-52812800D01*
X95489976Y-52812800D01*
X95637603Y-52799364D01*
X95663600Y-52796998D01*
X95670302Y-52794820D01*
X95670304Y-52794820D01*
X95829409Y-52743124D01*
X95829412Y-52743123D01*
X95836108Y-52740947D01*
X95944244Y-52676485D01*
X95985860Y-52651677D01*
X95985862Y-52651676D01*
X95991912Y-52648069D01*
X96123266Y-52522982D01*
X96223643Y-52371902D01*
X96276218Y-52233500D01*
X96285555Y-52208920D01*
X96285556Y-52208918D01*
X96288055Y-52202338D01*
X96300379Y-52114651D01*
X96312748Y-52026639D01*
X96312748Y-52026636D01*
X96313299Y-52022717D01*
X96313616Y-52000000D01*
X96293397Y-51819745D01*
X96290107Y-51810297D01*
X96236064Y-51655106D01*
X96236062Y-51655103D01*
X96233745Y-51648448D01*
X96202581Y-51598574D01*
X96141359Y-51500598D01*
X96137626Y-51494624D01*
X96101951Y-51458699D01*
X96014778Y-51370915D01*
X96014774Y-51370912D01*
X96009815Y-51365918D01*
X95994263Y-51356048D01*
X95896819Y-51294209D01*
X95856666Y-51268727D01*
X95827463Y-51258328D01*
X95692425Y-51210243D01*
X95692420Y-51210242D01*
X95685790Y-51207881D01*
X95678802Y-51207048D01*
X95678799Y-51207047D01*
X95546663Y-51191291D01*
X95505680Y-51186404D01*
X95498677Y-51187140D01*
X95498676Y-51187140D01*
X95348107Y-51202965D01*
X95332446Y-51202761D01*
X95332446Y-51203327D01*
X95324185Y-51203327D01*
X95316000Y-51202250D01*
X95284307Y-51206422D01*
X95267864Y-51207500D01*
X94030239Y-51207500D01*
X93962118Y-51187498D01*
X93941144Y-51170595D01*
X93378144Y-50607595D01*
X93344118Y-50545283D01*
X93349183Y-50474468D01*
X93391730Y-50417632D01*
X93458250Y-50392821D01*
X93467239Y-50392500D01*
X96984651Y-50392500D01*
X97001094Y-50393578D01*
X97032787Y-50397750D01*
X97040976Y-50396672D01*
X97072661Y-50392501D01*
X97072671Y-50392500D01*
X97072672Y-50392500D01*
X97094062Y-50389684D01*
X97172244Y-50379391D01*
X97183451Y-50377916D01*
X97183453Y-50377915D01*
X97191638Y-50376838D01*
X97209605Y-50369396D01*
X97242283Y-50355861D01*
X97312873Y-50348272D01*
X97376359Y-50380052D01*
X97412586Y-50441110D01*
X97416500Y-50472270D01*
X97416500Y-53948134D01*
X97423255Y-54010316D01*
X97474385Y-54146705D01*
X97561739Y-54263261D01*
X97568919Y-54268642D01*
X97568920Y-54268643D01*
X97656065Y-54333955D01*
X97698580Y-54390815D01*
X97706500Y-54434781D01*
X97706500Y-54584740D01*
X97686498Y-54652861D01*
X97643874Y-54691834D01*
X97644342Y-54692515D01*
X97638086Y-54696814D01*
X97635735Y-54698043D01*
X97620937Y-54706280D01*
X97618652Y-54707631D01*
X97611695Y-54710685D01*
X97605675Y-54715305D01*
X97605669Y-54715308D01*
X97580797Y-54734394D01*
X97560998Y-54749587D01*
X97555668Y-54753459D01*
X97509280Y-54785339D01*
X97509275Y-54785344D01*
X97503019Y-54789643D01*
X97497968Y-54795313D01*
X97497966Y-54795314D01*
X97461565Y-54836170D01*
X97456584Y-54841446D01*
X95669527Y-56628503D01*
X95663262Y-56634357D01*
X95619662Y-56672392D01*
X95615295Y-56678606D01*
X95582919Y-56724672D01*
X95578986Y-56729967D01*
X95539571Y-56780235D01*
X95536448Y-56787151D01*
X95535064Y-56789437D01*
X95526690Y-56804118D01*
X95525425Y-56806478D01*
X95521057Y-56812692D01*
X95518297Y-56819771D01*
X95518296Y-56819773D01*
X95497845Y-56872228D01*
X95495294Y-56878297D01*
X95469002Y-56936526D01*
X95467618Y-56943993D01*
X95466817Y-56946548D01*
X95462188Y-56962801D01*
X95461525Y-56965381D01*
X95458765Y-56972462D01*
X95457774Y-56979993D01*
X95457773Y-56979995D01*
X95450426Y-57035805D01*
X95449395Y-57042312D01*
X95437751Y-57105139D01*
X95438188Y-57112719D01*
X95438188Y-57112720D01*
X95441338Y-57167345D01*
X95441547Y-57174599D01*
X95441547Y-57376599D01*
X95435712Y-57409689D01*
X95436669Y-57409920D01*
X95435010Y-57416777D01*
X95432603Y-57423391D01*
X95411978Y-57586653D01*
X95428036Y-57750427D01*
X95479979Y-57906574D01*
X95489143Y-57921705D01*
X95560552Y-58039614D01*
X95565226Y-58047332D01*
X95570117Y-58052397D01*
X95570118Y-58052398D01*
X95607878Y-58091500D01*
X95679538Y-58165706D01*
X95817236Y-58255813D01*
X95971475Y-58313174D01*
X95978456Y-58314105D01*
X95978458Y-58314106D01*
X96127608Y-58334007D01*
X96127612Y-58334007D01*
X96134589Y-58334938D01*
X96141600Y-58334300D01*
X96141604Y-58334300D01*
X96291450Y-58320663D01*
X96291451Y-58320663D01*
X96298471Y-58320024D01*
X96351084Y-58302929D01*
X96448277Y-58271349D01*
X96448280Y-58271348D01*
X96454976Y-58269172D01*
X96596326Y-58184910D01*
X96715496Y-58071427D01*
X96724580Y-58057755D01*
X96802661Y-57940234D01*
X96802662Y-57940232D01*
X96806562Y-57934362D01*
X96864998Y-57780527D01*
X96887900Y-57617569D01*
X96888188Y-57596959D01*
X96876473Y-57492517D01*
X96888757Y-57422592D01*
X96912593Y-57389377D01*
X97664789Y-56637182D01*
X97727101Y-56603157D01*
X97797917Y-56608222D01*
X97813030Y-56617189D01*
X97830548Y-56621000D01*
X98928000Y-56621000D01*
X98996121Y-56641002D01*
X99042614Y-56694658D01*
X99054000Y-56747000D01*
X99054000Y-57003000D01*
X99033998Y-57071121D01*
X98980342Y-57117614D01*
X98928000Y-57129000D01*
X97835115Y-57129000D01*
X97819876Y-57133475D01*
X97818671Y-57134865D01*
X97817000Y-57142548D01*
X97817000Y-57145438D01*
X97817337Y-57151953D01*
X97826894Y-57244057D01*
X97829788Y-57257456D01*
X97879381Y-57406107D01*
X97885555Y-57419286D01*
X97967788Y-57552173D01*
X97976824Y-57563574D01*
X98087429Y-57673986D01*
X98098840Y-57682998D01*
X98231880Y-57765004D01*
X98245061Y-57771151D01*
X98393814Y-57820491D01*
X98407189Y-57823358D01*
X98452367Y-57827987D01*
X98518094Y-57854828D01*
X98558876Y-57912943D01*
X98564530Y-57969123D01*
X98561931Y-57989694D01*
X98577989Y-58153468D01*
X98629932Y-58309615D01*
X98644882Y-58334300D01*
X98690884Y-58410257D01*
X98715179Y-58450373D01*
X98829491Y-58568747D01*
X98967189Y-58658854D01*
X99121428Y-58716215D01*
X99128409Y-58717146D01*
X99128411Y-58717147D01*
X99277561Y-58737048D01*
X99277565Y-58737048D01*
X99284542Y-58737979D01*
X99291553Y-58737341D01*
X99291557Y-58737341D01*
X99441403Y-58723704D01*
X99441404Y-58723704D01*
X99448424Y-58723065D01*
X99507586Y-58703842D01*
X99598230Y-58674390D01*
X99598233Y-58674389D01*
X99604929Y-58672213D01*
X99746279Y-58587951D01*
X99865449Y-58474468D01*
X99881458Y-58450373D01*
X99952614Y-58343275D01*
X99952615Y-58343273D01*
X99956515Y-58337403D01*
X99984111Y-58264756D01*
X100026998Y-58208179D01*
X100093666Y-58183769D01*
X100101898Y-58183500D01*
X101078134Y-58183500D01*
X101140316Y-58176745D01*
X101276705Y-58125615D01*
X101393261Y-58038261D01*
X101480615Y-57921705D01*
X101483767Y-57913297D01*
X101488077Y-57905425D01*
X101490457Y-57906728D01*
X101524664Y-57861196D01*
X101591227Y-57836499D01*
X101660575Y-57851709D01*
X101710691Y-57901997D01*
X101713933Y-57909097D01*
X101716234Y-57913299D01*
X101719385Y-57921705D01*
X101806739Y-58038261D01*
X101923295Y-58125615D01*
X102059684Y-58176745D01*
X102121866Y-58183500D01*
X103278134Y-58183500D01*
X103340316Y-58176745D01*
X103347712Y-58173973D01*
X103347718Y-58173971D01*
X103421457Y-58146327D01*
X103492264Y-58141144D01*
X103554633Y-58175065D01*
X103588762Y-58237320D01*
X103591408Y-58268365D01*
X103591500Y-58268365D01*
X103591501Y-58931634D01*
X103591764Y-58934492D01*
X103591764Y-58934501D01*
X103593539Y-58953818D01*
X103598247Y-59005062D01*
X103600246Y-59011440D01*
X103600246Y-59011441D01*
X103643825Y-59150500D01*
X103649528Y-59168699D01*
X103738361Y-59315381D01*
X103859619Y-59436639D01*
X103866121Y-59440576D01*
X103866120Y-59440576D01*
X103999801Y-59521536D01*
X103999804Y-59521537D01*
X104006301Y-59525472D01*
X104009491Y-59526472D01*
X104061968Y-59571552D01*
X104082262Y-59639586D01*
X104062552Y-59707792D01*
X104031917Y-59740885D01*
X103986966Y-59774635D01*
X103983394Y-59778373D01*
X103841274Y-59927093D01*
X103832630Y-59936138D01*
X103725202Y-60093621D01*
X103670294Y-60138621D01*
X103599769Y-60146792D01*
X103536022Y-60115538D01*
X103515325Y-60091054D01*
X103434823Y-59966617D01*
X103434821Y-59966614D01*
X103432015Y-59962277D01*
X103281671Y-59797051D01*
X103277620Y-59793852D01*
X103277616Y-59793848D01*
X103110415Y-59661800D01*
X103110411Y-59661798D01*
X103106360Y-59658598D01*
X103099352Y-59654729D01*
X102972439Y-59584670D01*
X102910790Y-59550638D01*
X102905921Y-59548914D01*
X102905917Y-59548912D01*
X102705088Y-59477795D01*
X102705084Y-59477794D01*
X102700213Y-59476069D01*
X102695120Y-59475162D01*
X102695117Y-59475161D01*
X102485374Y-59437800D01*
X102485368Y-59437799D01*
X102480285Y-59436894D01*
X102406453Y-59435992D01*
X102262082Y-59434228D01*
X102262080Y-59434228D01*
X102256912Y-59434165D01*
X102036092Y-59467955D01*
X101823757Y-59537357D01*
X101793444Y-59553137D01*
X101653382Y-59626049D01*
X101625608Y-59640507D01*
X101621475Y-59643610D01*
X101621472Y-59643612D01*
X101451101Y-59771530D01*
X101446966Y-59774635D01*
X101443394Y-59778373D01*
X101301274Y-59927093D01*
X101292630Y-59936138D01*
X101185202Y-60093621D01*
X101130294Y-60138621D01*
X101059769Y-60146792D01*
X100996022Y-60115538D01*
X100975325Y-60091054D01*
X100894823Y-59966617D01*
X100894821Y-59966614D01*
X100892015Y-59962277D01*
X100741671Y-59797051D01*
X100737620Y-59793852D01*
X100737616Y-59793848D01*
X100570415Y-59661800D01*
X100570411Y-59661798D01*
X100566360Y-59658598D01*
X100559352Y-59654729D01*
X100432439Y-59584670D01*
X100370790Y-59550638D01*
X100365921Y-59548914D01*
X100365917Y-59548912D01*
X100165088Y-59477795D01*
X100165084Y-59477794D01*
X100160213Y-59476069D01*
X100155120Y-59475162D01*
X100155117Y-59475161D01*
X99945374Y-59437800D01*
X99945368Y-59437799D01*
X99940285Y-59436894D01*
X99866453Y-59435992D01*
X99722082Y-59434228D01*
X99722080Y-59434228D01*
X99716912Y-59434165D01*
X99496092Y-59467955D01*
X99495929Y-59466891D01*
X99430330Y-59463488D01*
X99382948Y-59433688D01*
X98931653Y-58982392D01*
X98923665Y-58973613D01*
X98919418Y-58966921D01*
X98867743Y-58918395D01*
X98864902Y-58915641D01*
X98844335Y-58895074D01*
X98840828Y-58892354D01*
X98831806Y-58884648D01*
X98815764Y-58869584D01*
X98798135Y-58853029D01*
X98791183Y-58849207D01*
X98779344Y-58842698D01*
X98762820Y-58831844D01*
X98752134Y-58823556D01*
X98745870Y-58818697D01*
X98738598Y-58815550D01*
X98738596Y-58815549D01*
X98703467Y-58800347D01*
X98692807Y-58795125D01*
X98659286Y-58776696D01*
X98659284Y-58776695D01*
X98652339Y-58772877D01*
X98631561Y-58767542D01*
X98612871Y-58761143D01*
X98593178Y-58752621D01*
X98547554Y-58745395D01*
X98535931Y-58742988D01*
X98501663Y-58734190D01*
X98491190Y-58731501D01*
X98469743Y-58731501D01*
X98450033Y-58729950D01*
X98428850Y-58726595D01*
X98382861Y-58730942D01*
X98371006Y-58731501D01*
X93092058Y-58731501D01*
X93080202Y-58730942D01*
X93072462Y-58729212D01*
X93064536Y-58729461D01*
X93064535Y-58729461D01*
X93001610Y-58731439D01*
X92997652Y-58731501D01*
X92968567Y-58731501D01*
X92964636Y-58731998D01*
X92964629Y-58731998D01*
X92964178Y-58732055D01*
X92952342Y-58732987D01*
X92906168Y-58734439D01*
X92885578Y-58740421D01*
X92866217Y-58744431D01*
X92859229Y-58745313D01*
X92852795Y-58746126D01*
X92852794Y-58746126D01*
X92844935Y-58747119D01*
X92837570Y-58750035D01*
X92837566Y-58750036D01*
X92801978Y-58764127D01*
X92790768Y-58767966D01*
X92746399Y-58780856D01*
X92727934Y-58791776D01*
X92710194Y-58800467D01*
X92690243Y-58808366D01*
X92652873Y-58835517D01*
X92642951Y-58842034D01*
X92612801Y-58859865D01*
X92603192Y-58865548D01*
X92598850Y-58869890D01*
X92548523Y-58890149D01*
X92549175Y-58893115D01*
X92542296Y-58894627D01*
X92535288Y-58895364D01*
X92528617Y-58897635D01*
X92401018Y-58941073D01*
X92363579Y-58953818D01*
X92331403Y-58973613D01*
X92215095Y-59045166D01*
X92215092Y-59045168D01*
X92209088Y-59048862D01*
X92204053Y-59053793D01*
X92204050Y-59053795D01*
X92084525Y-59170843D01*
X92079493Y-59175771D01*
X92042704Y-59232856D01*
X91986259Y-59320443D01*
X91981235Y-59328238D01*
X91980275Y-59327619D01*
X91936701Y-59374738D01*
X91867969Y-59392527D01*
X91800531Y-59370333D01*
X91782948Y-59355688D01*
X91455655Y-59028395D01*
X91447665Y-59019615D01*
X91447663Y-59019613D01*
X91443416Y-59012920D01*
X91425965Y-58996532D01*
X91391743Y-58964396D01*
X91388901Y-58961641D01*
X91368333Y-58941073D01*
X91364826Y-58938353D01*
X91355804Y-58930647D01*
X91327913Y-58904456D01*
X91322133Y-58899028D01*
X91314941Y-58895074D01*
X91303342Y-58888697D01*
X91286818Y-58877843D01*
X91276132Y-58869555D01*
X91269868Y-58864696D01*
X91262596Y-58861549D01*
X91262594Y-58861548D01*
X91227465Y-58846346D01*
X91216805Y-58841124D01*
X91183284Y-58822695D01*
X91183282Y-58822694D01*
X91176337Y-58818876D01*
X91155559Y-58813541D01*
X91136869Y-58807142D01*
X91117176Y-58798620D01*
X91071552Y-58791394D01*
X91059929Y-58788987D01*
X91028259Y-58780856D01*
X91015188Y-58777500D01*
X90993741Y-58777500D01*
X90974031Y-58775949D01*
X90960677Y-58773834D01*
X90952848Y-58772594D01*
X90906859Y-58776941D01*
X90895004Y-58777500D01*
X82238940Y-58777500D01*
X82170819Y-58757498D01*
X82124326Y-58703842D01*
X82114222Y-58633568D01*
X82118575Y-58614242D01*
X82125677Y-58591298D01*
X82125677Y-58591296D01*
X82127696Y-58584775D01*
X82143304Y-58398901D01*
X82136246Y-58346000D01*
X82126277Y-58271295D01*
X82118634Y-58214011D01*
X82109354Y-58188514D01*
X82057174Y-58045149D01*
X82057172Y-58045146D01*
X82054838Y-58038732D01*
X81954891Y-57881241D01*
X81951071Y-57876968D01*
X81370772Y-57296669D01*
X84212001Y-57296669D01*
X84212371Y-57303490D01*
X84217895Y-57354352D01*
X84221521Y-57369604D01*
X84266676Y-57490054D01*
X84275214Y-57505649D01*
X84351715Y-57607724D01*
X84364276Y-57620285D01*
X84466351Y-57696786D01*
X84481946Y-57705324D01*
X84602394Y-57750478D01*
X84617649Y-57754105D01*
X84668514Y-57759631D01*
X84675328Y-57760000D01*
X84817885Y-57760000D01*
X84833124Y-57755525D01*
X84834329Y-57754135D01*
X84836000Y-57746452D01*
X84836000Y-57741884D01*
X85344000Y-57741884D01*
X85348475Y-57757123D01*
X85349865Y-57758328D01*
X85357548Y-57759999D01*
X85504669Y-57759999D01*
X85511490Y-57759629D01*
X85562352Y-57754105D01*
X85577607Y-57750478D01*
X85680059Y-57712071D01*
X85750866Y-57706888D01*
X85768517Y-57712071D01*
X85872282Y-57750971D01*
X85872288Y-57750973D01*
X85879684Y-57753745D01*
X85941866Y-57760500D01*
X86778134Y-57760500D01*
X86840316Y-57753745D01*
X86847712Y-57750973D01*
X86847718Y-57750971D01*
X86951483Y-57712071D01*
X87022290Y-57706888D01*
X87039941Y-57712071D01*
X87142391Y-57750478D01*
X87157649Y-57754105D01*
X87208514Y-57759631D01*
X87215328Y-57760000D01*
X87357885Y-57760000D01*
X87373124Y-57755525D01*
X87374329Y-57754135D01*
X87376000Y-57746452D01*
X87376000Y-57741884D01*
X87884000Y-57741884D01*
X87888475Y-57757123D01*
X87889865Y-57758328D01*
X87897548Y-57759999D01*
X88044669Y-57759999D01*
X88051490Y-57759629D01*
X88102352Y-57754105D01*
X88117606Y-57750478D01*
X88220771Y-57711804D01*
X88291578Y-57706621D01*
X88309229Y-57711804D01*
X88412391Y-57750478D01*
X88427649Y-57754105D01*
X88478514Y-57759631D01*
X88485328Y-57760000D01*
X88627885Y-57760000D01*
X88643124Y-57755525D01*
X88644329Y-57754135D01*
X88646000Y-57746452D01*
X88646000Y-57741884D01*
X89154000Y-57741884D01*
X89158475Y-57757123D01*
X89159865Y-57758328D01*
X89167548Y-57759999D01*
X89314669Y-57759999D01*
X89321490Y-57759629D01*
X89372352Y-57754105D01*
X89387607Y-57750478D01*
X89490059Y-57712071D01*
X89560866Y-57706888D01*
X89578517Y-57712071D01*
X89682282Y-57750971D01*
X89682288Y-57750973D01*
X89689684Y-57753745D01*
X89751866Y-57760500D01*
X90588134Y-57760500D01*
X90650316Y-57753745D01*
X90786705Y-57702615D01*
X90903261Y-57615261D01*
X90990615Y-57498705D01*
X91041745Y-57362316D01*
X91048500Y-57300134D01*
X91048500Y-57072796D01*
X91068502Y-57004675D01*
X91122158Y-56958182D01*
X91169057Y-56948493D01*
X91168961Y-56947438D01*
X91349600Y-56930998D01*
X91356302Y-56928820D01*
X91356304Y-56928820D01*
X91515409Y-56877124D01*
X91515412Y-56877123D01*
X91522108Y-56874947D01*
X91651379Y-56797886D01*
X91671860Y-56785677D01*
X91671862Y-56785676D01*
X91677912Y-56782069D01*
X91809266Y-56656982D01*
X91909643Y-56505902D01*
X91951423Y-56395917D01*
X91971555Y-56342920D01*
X91971556Y-56342918D01*
X91974055Y-56336338D01*
X91977386Y-56312635D01*
X91998748Y-56160639D01*
X91998748Y-56160636D01*
X91999299Y-56156717D01*
X91999472Y-56144329D01*
X91999561Y-56137962D01*
X91999561Y-56137957D01*
X91999616Y-56134000D01*
X91979397Y-55953745D01*
X91975729Y-55943211D01*
X91922064Y-55789106D01*
X91922062Y-55789103D01*
X91919745Y-55782448D01*
X91879549Y-55718120D01*
X91827359Y-55634598D01*
X91823626Y-55628624D01*
X91818664Y-55623627D01*
X91700778Y-55504915D01*
X91700774Y-55504912D01*
X91695815Y-55499918D01*
X91688643Y-55495366D01*
X91605414Y-55442548D01*
X91542666Y-55402727D01*
X91410798Y-55355771D01*
X91395765Y-55349289D01*
X91376714Y-55339561D01*
X91376712Y-55339560D01*
X91370192Y-55336231D01*
X91363085Y-55334492D01*
X91357441Y-55332393D01*
X91351678Y-55330476D01*
X91345050Y-55327378D01*
X91322642Y-55322717D01*
X91273588Y-55312514D01*
X91269299Y-55311543D01*
X91198390Y-55294192D01*
X91192788Y-55293844D01*
X91192785Y-55293844D01*
X91187236Y-55293500D01*
X91187238Y-55293464D01*
X91183241Y-55293225D01*
X91179055Y-55292851D01*
X91171885Y-55291360D01*
X91164570Y-55291558D01*
X91163294Y-55291444D01*
X91156163Y-55288640D01*
X93586463Y-55288640D01*
X93604163Y-55469160D01*
X93661418Y-55641273D01*
X93665065Y-55647295D01*
X93665066Y-55647297D01*
X93748130Y-55784452D01*
X93755380Y-55796424D01*
X93760269Y-55801487D01*
X93760270Y-55801488D01*
X93775357Y-55817111D01*
X93881382Y-55926902D01*
X94033159Y-56026222D01*
X94039763Y-56028678D01*
X94039765Y-56028679D01*
X94196558Y-56086990D01*
X94196560Y-56086990D01*
X94203168Y-56089448D01*
X94286995Y-56100633D01*
X94375980Y-56112507D01*
X94375984Y-56112507D01*
X94382961Y-56113438D01*
X94389972Y-56112800D01*
X94389976Y-56112800D01*
X94532459Y-56099832D01*
X94563600Y-56096998D01*
X94570302Y-56094820D01*
X94570304Y-56094820D01*
X94729409Y-56043124D01*
X94729412Y-56043123D01*
X94736108Y-56040947D01*
X94870650Y-55960744D01*
X94885860Y-55951677D01*
X94885862Y-55951676D01*
X94891912Y-55948069D01*
X95023266Y-55822982D01*
X95123643Y-55671902D01*
X95188055Y-55502338D01*
X95189210Y-55494120D01*
X95212748Y-55326639D01*
X95212748Y-55326636D01*
X95213299Y-55322717D01*
X95213616Y-55300000D01*
X95193397Y-55119745D01*
X95191080Y-55113091D01*
X95136064Y-54955106D01*
X95136062Y-54955103D01*
X95133745Y-54948448D01*
X95127365Y-54938238D01*
X95041359Y-54800598D01*
X95037626Y-54794624D01*
X95032664Y-54789627D01*
X94914778Y-54670915D01*
X94914774Y-54670912D01*
X94909815Y-54665918D01*
X94898697Y-54658862D01*
X94842589Y-54623255D01*
X94756666Y-54568727D01*
X94707079Y-54551070D01*
X94592425Y-54510243D01*
X94592420Y-54510242D01*
X94585790Y-54507881D01*
X94578802Y-54507048D01*
X94578799Y-54507047D01*
X94455698Y-54492368D01*
X94405680Y-54486404D01*
X94398677Y-54487140D01*
X94398676Y-54487140D01*
X94232288Y-54504628D01*
X94232286Y-54504629D01*
X94225288Y-54505364D01*
X94053579Y-54563818D01*
X94021587Y-54583500D01*
X93905095Y-54655166D01*
X93905092Y-54655168D01*
X93899088Y-54658862D01*
X93894053Y-54663793D01*
X93894050Y-54663795D01*
X93788214Y-54767438D01*
X93769493Y-54785771D01*
X93671235Y-54938238D01*
X93668826Y-54944858D01*
X93668824Y-54944861D01*
X93623872Y-55068366D01*
X93609197Y-55108685D01*
X93586463Y-55288640D01*
X91156163Y-55288640D01*
X91097222Y-55265463D01*
X91055686Y-55207885D01*
X91048500Y-55165943D01*
X91048500Y-54803866D01*
X91041745Y-54741684D01*
X90990615Y-54605295D01*
X90903261Y-54488739D01*
X90786705Y-54401385D01*
X90650316Y-54350255D01*
X90588134Y-54343500D01*
X89751866Y-54343500D01*
X89689684Y-54350255D01*
X89682288Y-54353027D01*
X89682282Y-54353029D01*
X89578517Y-54391929D01*
X89507710Y-54397112D01*
X89490059Y-54391929D01*
X89387609Y-54353522D01*
X89372351Y-54349895D01*
X89321486Y-54344369D01*
X89314672Y-54344000D01*
X89172115Y-54344000D01*
X89156876Y-54348475D01*
X89155671Y-54349865D01*
X89154000Y-54357548D01*
X89154000Y-57741884D01*
X88646000Y-57741884D01*
X88646000Y-56324115D01*
X88641525Y-56308876D01*
X88640135Y-56307671D01*
X88632452Y-56306000D01*
X87902115Y-56306000D01*
X87886876Y-56310475D01*
X87885671Y-56311865D01*
X87884000Y-56319548D01*
X87884000Y-57741884D01*
X87376000Y-57741884D01*
X87376000Y-55779885D01*
X87884000Y-55779885D01*
X87888475Y-55795124D01*
X87889865Y-55796329D01*
X87897548Y-55798000D01*
X88627885Y-55798000D01*
X88643124Y-55793525D01*
X88644329Y-55792135D01*
X88646000Y-55784452D01*
X88646000Y-54362116D01*
X88641525Y-54346877D01*
X88640135Y-54345672D01*
X88632452Y-54344001D01*
X88485331Y-54344001D01*
X88478510Y-54344371D01*
X88427648Y-54349895D01*
X88412394Y-54353522D01*
X88309229Y-54392196D01*
X88238422Y-54397379D01*
X88220771Y-54392196D01*
X88117609Y-54353522D01*
X88102351Y-54349895D01*
X88051486Y-54344369D01*
X88044672Y-54344000D01*
X87902115Y-54344000D01*
X87886876Y-54348475D01*
X87885671Y-54349865D01*
X87884000Y-54357548D01*
X87884000Y-55779885D01*
X87376000Y-55779885D01*
X87376000Y-54362116D01*
X87371525Y-54346877D01*
X87370135Y-54345672D01*
X87362452Y-54344001D01*
X87215331Y-54344001D01*
X87208510Y-54344371D01*
X87157648Y-54349895D01*
X87142393Y-54353522D01*
X87039941Y-54391929D01*
X86969134Y-54397112D01*
X86951483Y-54391929D01*
X86847718Y-54353029D01*
X86847712Y-54353027D01*
X86840316Y-54350255D01*
X86778134Y-54343500D01*
X85941866Y-54343500D01*
X85879684Y-54350255D01*
X85872288Y-54353027D01*
X85872282Y-54353029D01*
X85768517Y-54391929D01*
X85697710Y-54397112D01*
X85680059Y-54391929D01*
X85577609Y-54353522D01*
X85562351Y-54349895D01*
X85511486Y-54344369D01*
X85504672Y-54344000D01*
X85362115Y-54344000D01*
X85346876Y-54348475D01*
X85345671Y-54349865D01*
X85344000Y-54357548D01*
X85344000Y-57741884D01*
X84836000Y-57741884D01*
X84836000Y-56324115D01*
X84831525Y-56308876D01*
X84830135Y-56307671D01*
X84822452Y-56306000D01*
X84230116Y-56306000D01*
X84214877Y-56310475D01*
X84213672Y-56311865D01*
X84212001Y-56319548D01*
X84212001Y-57296669D01*
X81370772Y-57296669D01*
X80164711Y-56090608D01*
X80130685Y-56028296D01*
X80135750Y-55957481D01*
X80158581Y-55919001D01*
X80172329Y-55903135D01*
X80174000Y-55895452D01*
X80174000Y-55890885D01*
X80682000Y-55890885D01*
X80686475Y-55906124D01*
X80687865Y-55907329D01*
X80695548Y-55909000D01*
X80723438Y-55909000D01*
X80729953Y-55908663D01*
X80822057Y-55899106D01*
X80835456Y-55896212D01*
X80984107Y-55846619D01*
X80997286Y-55840445D01*
X81095150Y-55779885D01*
X84212000Y-55779885D01*
X84216475Y-55795124D01*
X84217865Y-55796329D01*
X84225548Y-55798000D01*
X84817885Y-55798000D01*
X84833124Y-55793525D01*
X84834329Y-55792135D01*
X84836000Y-55784452D01*
X84836000Y-54362116D01*
X84831525Y-54346877D01*
X84830135Y-54345672D01*
X84822452Y-54344001D01*
X84675331Y-54344001D01*
X84668510Y-54344371D01*
X84617648Y-54349895D01*
X84602396Y-54353521D01*
X84481946Y-54398676D01*
X84466351Y-54407214D01*
X84364276Y-54483715D01*
X84351715Y-54496276D01*
X84275214Y-54598351D01*
X84266676Y-54613946D01*
X84221522Y-54734394D01*
X84217895Y-54749649D01*
X84212369Y-54800514D01*
X84212000Y-54807328D01*
X84212000Y-55779885D01*
X81095150Y-55779885D01*
X81130173Y-55758212D01*
X81141574Y-55749176D01*
X81251986Y-55638571D01*
X81260998Y-55627160D01*
X81343004Y-55494120D01*
X81349151Y-55480939D01*
X81398491Y-55332186D01*
X81401358Y-55318810D01*
X81410672Y-55227903D01*
X81410929Y-55222874D01*
X81406525Y-55207876D01*
X81405135Y-55206671D01*
X81397452Y-55205000D01*
X80700115Y-55205000D01*
X80684876Y-55209475D01*
X80683671Y-55210865D01*
X80682000Y-55218548D01*
X80682000Y-55890885D01*
X80174000Y-55890885D01*
X80174000Y-54823000D01*
X80194002Y-54754879D01*
X80247658Y-54708386D01*
X80300000Y-54697000D01*
X81392885Y-54697000D01*
X81408124Y-54692525D01*
X81409329Y-54691135D01*
X81411000Y-54683452D01*
X81411000Y-54680562D01*
X81410663Y-54674047D01*
X81401106Y-54581943D01*
X81398212Y-54568544D01*
X81348619Y-54419893D01*
X81342445Y-54406714D01*
X81260212Y-54273827D01*
X81246629Y-54256689D01*
X81248559Y-54255159D01*
X81220097Y-54203120D01*
X81225113Y-54132301D01*
X81248799Y-54095383D01*
X81247843Y-54094628D01*
X81252381Y-54088882D01*
X81257552Y-54083702D01*
X81283688Y-54041302D01*
X81343462Y-53944331D01*
X81343463Y-53944329D01*
X81347302Y-53938101D01*
X81401149Y-53775757D01*
X81404535Y-53742715D01*
X81406083Y-53727599D01*
X81411500Y-53674732D01*
X81411500Y-53301371D01*
X81431502Y-53233250D01*
X81448405Y-53212276D01*
X81758179Y-52902502D01*
X81782753Y-52883370D01*
X81935912Y-52792069D01*
X82067266Y-52666982D01*
X82167643Y-52515902D01*
X82220114Y-52377773D01*
X82229555Y-52352920D01*
X82229556Y-52352918D01*
X82232055Y-52346338D01*
X82237204Y-52309700D01*
X82256748Y-52170639D01*
X82256748Y-52170636D01*
X82257299Y-52166717D01*
X82257616Y-52144000D01*
X82237397Y-51963745D01*
X82218450Y-51909336D01*
X82180064Y-51799106D01*
X82180062Y-51799103D01*
X82177745Y-51792448D01*
X82147294Y-51743716D01*
X82085359Y-51644598D01*
X82081626Y-51638624D01*
X82076664Y-51633627D01*
X81958778Y-51514915D01*
X81958774Y-51514912D01*
X81953815Y-51509918D01*
X81942697Y-51502862D01*
X81886206Y-51467012D01*
X81800666Y-51412727D01*
X81768261Y-51401188D01*
X81636425Y-51354243D01*
X81636420Y-51354242D01*
X81629790Y-51351881D01*
X81622802Y-51351048D01*
X81622799Y-51351047D01*
X81488600Y-51335045D01*
X81449680Y-51330404D01*
X81442677Y-51331140D01*
X81442670Y-51331140D01*
X81435933Y-51331848D01*
X81366095Y-51319074D01*
X81314249Y-51270570D01*
X81296857Y-51201737D01*
X81319441Y-51134428D01*
X81346057Y-51106580D01*
X81366157Y-51091157D01*
X81459686Y-50969267D01*
X81518481Y-50827324D01*
X81533500Y-50713244D01*
X81533500Y-50486756D01*
X81531746Y-50473429D01*
X81518481Y-50372676D01*
X81520026Y-50372473D01*
X81520026Y-50327527D01*
X81518481Y-50327324D01*
X81532962Y-50217331D01*
X81532962Y-50217330D01*
X81533500Y-50213244D01*
X81533500Y-49986756D01*
X81522137Y-49900442D01*
X81518481Y-49872676D01*
X81520026Y-49872473D01*
X81520026Y-49827527D01*
X81518481Y-49827324D01*
X81532962Y-49717331D01*
X81532962Y-49717330D01*
X81533500Y-49713244D01*
X81533500Y-49486756D01*
X81518481Y-49372676D01*
X81520026Y-49372473D01*
X81520026Y-49327527D01*
X81518481Y-49327324D01*
X81532962Y-49217331D01*
X81532962Y-49217330D01*
X81533500Y-49213244D01*
X81533500Y-48986756D01*
X81530992Y-48967702D01*
X81518481Y-48872676D01*
X81520026Y-48872473D01*
X81520026Y-48827527D01*
X81518481Y-48827324D01*
X81532962Y-48717331D01*
X81532962Y-48717330D01*
X81533500Y-48713244D01*
X81533500Y-48486756D01*
X81528716Y-48450414D01*
X81518481Y-48372676D01*
X81519766Y-48372507D01*
X81519765Y-48327427D01*
X81517994Y-48327194D01*
X81525792Y-48267960D01*
X81523581Y-48253778D01*
X81504216Y-48248217D01*
X81444263Y-48210189D01*
X81439033Y-48203816D01*
X81399813Y-48152704D01*
X81374212Y-48086484D01*
X81388476Y-48016935D01*
X81438077Y-47966139D01*
X81499775Y-47950000D01*
X81510042Y-47950000D01*
X81523813Y-47945956D01*
X81525842Y-47932417D01*
X81519072Y-47880995D01*
X81514833Y-47865175D01*
X81462410Y-47738614D01*
X81454221Y-47724431D01*
X81370829Y-47615752D01*
X81359250Y-47604172D01*
X81250566Y-47520777D01*
X81236385Y-47512590D01*
X81109825Y-47460167D01*
X81094005Y-47455928D01*
X80992300Y-47442538D01*
X80984092Y-47442000D01*
X80768114Y-47442000D01*
X80719997Y-47456128D01*
X80649001Y-47456128D01*
X80589275Y-47417744D01*
X80559782Y-47353163D01*
X80558500Y-47335232D01*
X80558500Y-46903500D01*
X80578502Y-46835379D01*
X80632158Y-46788886D01*
X80684500Y-46777500D01*
X80970679Y-46777499D01*
X80988634Y-46777499D01*
X80991492Y-46777236D01*
X80991501Y-46777236D01*
X81027004Y-46773974D01*
X81062062Y-46770753D01*
X81068447Y-46768752D01*
X81218450Y-46721744D01*
X81218452Y-46721743D01*
X81225699Y-46719472D01*
X81372381Y-46630639D01*
X81467905Y-46535115D01*
X81530217Y-46501089D01*
X81601032Y-46506154D01*
G37*
%TD.AperFunction*%
%TA.AperFunction,Conductor*%
G36*
X101627656Y-56065505D02*
G01*
X101659407Y-56119053D01*
X101666475Y-56143124D01*
X101667865Y-56144329D01*
X101675548Y-56146000D01*
X101775090Y-56146000D01*
X101843211Y-56166002D01*
X101850650Y-56171171D01*
X101923295Y-56225615D01*
X102059684Y-56276745D01*
X102066990Y-56277539D01*
X102128424Y-56312635D01*
X102161244Y-56375590D01*
X102154818Y-56446295D01*
X102111186Y-56502302D01*
X102067060Y-56522454D01*
X102059684Y-56523255D01*
X101923295Y-56574385D01*
X101866182Y-56617189D01*
X101850655Y-56628826D01*
X101784149Y-56653674D01*
X101775090Y-56654000D01*
X101680116Y-56654000D01*
X101664877Y-56658475D01*
X101663671Y-56659867D01*
X101661127Y-56671560D01*
X101627102Y-56733873D01*
X101564790Y-56767898D01*
X101493974Y-56762833D01*
X101437182Y-56720342D01*
X101393261Y-56661739D01*
X101276705Y-56574385D01*
X101140316Y-56523255D01*
X101133010Y-56522461D01*
X101071576Y-56487365D01*
X101038756Y-56424410D01*
X101045182Y-56353705D01*
X101088814Y-56297698D01*
X101132940Y-56277546D01*
X101140316Y-56276745D01*
X101276705Y-56225615D01*
X101393261Y-56138261D01*
X101437685Y-56078986D01*
X101494544Y-56036471D01*
X101565362Y-56031445D01*
X101627656Y-56065505D01*
G37*
%TD.AperFunction*%
%TA.AperFunction,Conductor*%
G36*
X74799579Y-51106268D02*
G01*
X74856415Y-51148815D01*
X74881226Y-51215335D01*
X74880553Y-51240116D01*
X74876999Y-51268249D01*
X74863931Y-51371694D01*
X74879989Y-51535468D01*
X74931932Y-51691615D01*
X74935581Y-51697640D01*
X75004283Y-51811079D01*
X75017179Y-51832373D01*
X75022070Y-51837438D01*
X75022071Y-51837439D01*
X75039132Y-51855106D01*
X75131491Y-51950747D01*
X75269189Y-52040854D01*
X75275793Y-52043310D01*
X75275795Y-52043311D01*
X75308837Y-52055599D01*
X75324315Y-52061355D01*
X75353366Y-52072159D01*
X75410243Y-52114651D01*
X75435117Y-52181148D01*
X75420092Y-52250536D01*
X75412092Y-52262652D01*
X75410448Y-52264298D01*
X75404174Y-52274477D01*
X75325359Y-52402338D01*
X75320698Y-52409899D01*
X75266851Y-52572243D01*
X75256500Y-52673268D01*
X75256500Y-53220732D01*
X75256837Y-53223978D01*
X75256837Y-53223982D01*
X75257884Y-53234071D01*
X75267113Y-53323019D01*
X75269295Y-53329559D01*
X75318537Y-53477153D01*
X75321244Y-53485268D01*
X75325096Y-53491492D01*
X75325096Y-53491493D01*
X75401803Y-53615450D01*
X75411248Y-53630713D01*
X75416430Y-53635886D01*
X75420977Y-53641623D01*
X75419170Y-53643055D01*
X75447902Y-53695575D01*
X75442892Y-53766395D01*
X75419501Y-53802853D01*
X75420552Y-53803683D01*
X75407002Y-53820840D01*
X75324996Y-53953880D01*
X75318849Y-53967061D01*
X75269509Y-54115814D01*
X75266642Y-54129190D01*
X75257328Y-54220097D01*
X75257071Y-54225126D01*
X75261475Y-54240124D01*
X75262865Y-54241329D01*
X75270548Y-54243000D01*
X76368000Y-54243000D01*
X76436121Y-54263002D01*
X76482614Y-54316658D01*
X76494000Y-54369000D01*
X76494000Y-54625000D01*
X76473998Y-54693121D01*
X76420342Y-54739614D01*
X76368000Y-54751000D01*
X75275115Y-54751000D01*
X75259876Y-54755475D01*
X75258671Y-54756865D01*
X75257000Y-54764548D01*
X75257000Y-54767438D01*
X75257337Y-54773953D01*
X75267251Y-54869495D01*
X75254387Y-54939317D01*
X75205816Y-54991099D01*
X75141924Y-55008500D01*
X72874793Y-55008500D01*
X72806672Y-54988498D01*
X72785698Y-54971595D01*
X72635301Y-54821198D01*
X72615280Y-54795107D01*
X72539040Y-54663056D01*
X72529861Y-54652861D01*
X72415675Y-54526045D01*
X72415674Y-54526044D01*
X72411253Y-54521134D01*
X72282424Y-54427534D01*
X72262094Y-54412763D01*
X72262093Y-54412762D01*
X72256752Y-54408882D01*
X72250724Y-54406198D01*
X72250722Y-54406197D01*
X72179769Y-54374607D01*
X72125673Y-54328627D01*
X72105024Y-54260700D01*
X72124376Y-54192391D01*
X72177587Y-54145390D01*
X72231018Y-54133500D01*
X72498134Y-54133500D01*
X72560316Y-54126745D01*
X72696705Y-54075615D01*
X72813261Y-53988261D01*
X72900615Y-53871705D01*
X72951745Y-53735316D01*
X72958500Y-53673134D01*
X72958500Y-52895371D01*
X72978502Y-52827250D01*
X72995405Y-52806276D01*
X74666452Y-51135229D01*
X74728764Y-51101203D01*
X74799579Y-51106268D01*
G37*
%TD.AperFunction*%
%TA.AperFunction,Conductor*%
G36*
X79397557Y-54463002D02*
G01*
X79444050Y-54516658D01*
X79454780Y-54581842D01*
X79445328Y-54674097D01*
X79445000Y-54680514D01*
X79445000Y-54825000D01*
X79424998Y-54893121D01*
X79371342Y-54939614D01*
X79319000Y-54951000D01*
X78268000Y-54951000D01*
X78199879Y-54930998D01*
X78153386Y-54877342D01*
X78142000Y-54825000D01*
X78142000Y-54569000D01*
X78162002Y-54500879D01*
X78215658Y-54454386D01*
X78268000Y-54443000D01*
X79329436Y-54443000D01*
X79397557Y-54463002D01*
G37*
%TD.AperFunction*%
%TA.AperFunction,Conductor*%
G36*
X104781843Y-52628502D02*
G01*
X104802817Y-52645405D01*
X105154595Y-52997183D01*
X105188621Y-53059495D01*
X105191500Y-53086278D01*
X105191500Y-53948134D01*
X105198255Y-54010316D01*
X105249385Y-54146705D01*
X105336739Y-54263261D01*
X105391065Y-54303976D01*
X105433580Y-54360835D01*
X105441500Y-54404802D01*
X105441500Y-54485290D01*
X105421498Y-54553411D01*
X105367842Y-54599904D01*
X105297568Y-54610008D01*
X105232988Y-54580514D01*
X105226405Y-54574385D01*
X105215381Y-54563361D01*
X105068699Y-54474528D01*
X105061452Y-54472257D01*
X105061450Y-54472256D01*
X104995164Y-54451483D01*
X104905062Y-54423247D01*
X104831635Y-54416500D01*
X104828737Y-54416500D01*
X104574335Y-54416501D01*
X104318366Y-54416501D01*
X104315508Y-54416764D01*
X104315499Y-54416764D01*
X104281445Y-54419893D01*
X104244938Y-54423247D01*
X104238560Y-54425246D01*
X104238559Y-54425246D01*
X104088550Y-54472256D01*
X104088548Y-54472257D01*
X104081301Y-54474528D01*
X103934619Y-54563361D01*
X103813361Y-54684619D01*
X103797575Y-54710685D01*
X103783818Y-54733401D01*
X103731420Y-54781307D01*
X103661440Y-54793280D01*
X103596097Y-54765519D01*
X103596088Y-54765510D01*
X103593261Y-54761739D01*
X103476705Y-54674385D01*
X103468296Y-54671233D01*
X103468295Y-54671232D01*
X103391076Y-54642284D01*
X103334311Y-54599643D01*
X103309611Y-54533081D01*
X103324818Y-54463732D01*
X103375104Y-54413614D01*
X103404421Y-54402385D01*
X103410316Y-54401745D01*
X103546705Y-54350615D01*
X103663261Y-54263261D01*
X103750615Y-54146705D01*
X103801745Y-54010316D01*
X103808500Y-53948134D01*
X103808500Y-52734500D01*
X103828502Y-52666379D01*
X103882158Y-52619886D01*
X103934500Y-52608500D01*
X104713722Y-52608500D01*
X104781843Y-52628502D01*
G37*
%TD.AperFunction*%
%TA.AperFunction,Conductor*%
G36*
X99583424Y-50842034D02*
G01*
X99585704Y-50842882D01*
X99585706Y-50842883D01*
X99592306Y-50845337D01*
X99599285Y-50846268D01*
X99599288Y-50846269D01*
X99636317Y-50851209D01*
X99677165Y-50856660D01*
X99742041Y-50885494D01*
X99781029Y-50944827D01*
X99786500Y-50981552D01*
X99786500Y-53948134D01*
X99793255Y-54010316D01*
X99844385Y-54146705D01*
X99931739Y-54263261D01*
X100048295Y-54350615D01*
X100056703Y-54353767D01*
X100106721Y-54372518D01*
X100163485Y-54415160D01*
X100188185Y-54481721D01*
X100172978Y-54551070D01*
X100122692Y-54601188D01*
X100062491Y-54616500D01*
X99921866Y-54616500D01*
X99859684Y-54623255D01*
X99754555Y-54662666D01*
X99683750Y-54667849D01*
X99621309Y-54633857D01*
X99612437Y-54625000D01*
X99507702Y-54520448D01*
X99501471Y-54516607D01*
X99368331Y-54434538D01*
X99368329Y-54434537D01*
X99362101Y-54430698D01*
X99352560Y-54427533D01*
X99351019Y-54426466D01*
X99348519Y-54425300D01*
X99348719Y-54424872D01*
X99294203Y-54387101D01*
X99266968Y-54321536D01*
X99279504Y-54251655D01*
X99291407Y-54232377D01*
X99295089Y-54227464D01*
X99355615Y-54146705D01*
X99406745Y-54010316D01*
X99413500Y-53948134D01*
X99413500Y-50960130D01*
X99433502Y-50892009D01*
X99487158Y-50845516D01*
X99557432Y-50835412D01*
X99583424Y-50842034D01*
G37*
%TD.AperFunction*%
%TA.AperFunction,Conductor*%
G36*
X77282660Y-52232961D02*
G01*
X77286756Y-52233500D01*
X77493027Y-52233500D01*
X77561148Y-52253502D01*
X77607641Y-52307158D01*
X77617745Y-52377432D01*
X77588251Y-52442012D01*
X77582202Y-52448516D01*
X77566448Y-52464298D01*
X77562608Y-52470528D01*
X77562607Y-52470529D01*
X77496304Y-52578093D01*
X77476698Y-52609899D01*
X77470528Y-52628502D01*
X77463277Y-52650362D01*
X77422846Y-52708722D01*
X77357282Y-52735959D01*
X77287401Y-52723426D01*
X77235389Y-52675101D01*
X77218357Y-52623699D01*
X77216780Y-52608500D01*
X77212887Y-52570981D01*
X77158756Y-52408732D01*
X77158867Y-52408695D01*
X77148603Y-52341909D01*
X77177469Y-52277045D01*
X77236820Y-52238084D01*
X77281734Y-52232900D01*
X77282660Y-52232961D01*
G37*
%TD.AperFunction*%
%TA.AperFunction,Conductor*%
G36*
X102617012Y-47590163D02*
G01*
X102623595Y-47596292D01*
X106346447Y-51319143D01*
X106380473Y-51381455D01*
X106383352Y-51408238D01*
X106383352Y-51743716D01*
X106382274Y-51760159D01*
X106378102Y-51791852D01*
X106383352Y-51831732D01*
X106383352Y-51831737D01*
X106393568Y-51909336D01*
X106394071Y-51913154D01*
X106383137Y-51983302D01*
X106336013Y-52036404D01*
X106267660Y-52055599D01*
X106199781Y-52034793D01*
X106180055Y-52018703D01*
X105580832Y-51419480D01*
X105574978Y-51413215D01*
X105549928Y-51384500D01*
X105536943Y-51369615D01*
X105484662Y-51332871D01*
X105479368Y-51328939D01*
X105435075Y-51294209D01*
X105429100Y-51289524D01*
X105422184Y-51286401D01*
X105419898Y-51285017D01*
X105405217Y-51276643D01*
X105402857Y-51275378D01*
X105396643Y-51271010D01*
X105389564Y-51268250D01*
X105389562Y-51268249D01*
X105337107Y-51247798D01*
X105331038Y-51245247D01*
X105272809Y-51218955D01*
X105265342Y-51217571D01*
X105262787Y-51216770D01*
X105246534Y-51212141D01*
X105243954Y-51211478D01*
X105236873Y-51208718D01*
X105229342Y-51207727D01*
X105229340Y-51207726D01*
X105199721Y-51203827D01*
X105173521Y-51200378D01*
X105167023Y-51199348D01*
X105104196Y-51187704D01*
X105096616Y-51188141D01*
X105096615Y-51188141D01*
X105041990Y-51191291D01*
X105034736Y-51191500D01*
X103445660Y-51191500D01*
X103377539Y-51171498D01*
X103356565Y-51154595D01*
X102445405Y-50243435D01*
X102411379Y-50181123D01*
X102408500Y-50154340D01*
X102408500Y-47685387D01*
X102428502Y-47617266D01*
X102482158Y-47570773D01*
X102552432Y-47560669D01*
X102617012Y-47590163D01*
G37*
%TD.AperFunction*%
%TA.AperFunction,Conductor*%
G36*
X75785121Y-45560002D02*
G01*
X75831614Y-45613658D01*
X75843000Y-45666000D01*
X75843000Y-46758885D01*
X75847475Y-46774124D01*
X75848865Y-46775329D01*
X75856548Y-46777000D01*
X75859438Y-46777000D01*
X75865953Y-46776663D01*
X75958057Y-46767106D01*
X75971456Y-46764212D01*
X76120107Y-46714619D01*
X76133286Y-46708445D01*
X76266173Y-46626212D01*
X76283311Y-46612629D01*
X76284841Y-46614559D01*
X76336880Y-46586097D01*
X76407699Y-46591113D01*
X76444617Y-46614799D01*
X76445372Y-46613843D01*
X76451118Y-46618381D01*
X76456298Y-46623552D01*
X76462528Y-46627392D01*
X76462529Y-46627393D01*
X76594917Y-46708998D01*
X76601899Y-46713302D01*
X76677497Y-46738377D01*
X76735856Y-46778806D01*
X76763093Y-46844370D01*
X76759555Y-46890348D01*
X76756519Y-46897676D01*
X76755441Y-46905865D01*
X76744061Y-46992307D01*
X76741500Y-47011756D01*
X76741500Y-47338787D01*
X76721498Y-47406908D01*
X76667842Y-47453401D01*
X76597568Y-47463505D01*
X76563237Y-47447826D01*
X76536452Y-47442000D01*
X76315908Y-47442000D01*
X76307700Y-47442538D01*
X76205995Y-47455928D01*
X76190175Y-47460167D01*
X76063614Y-47512590D01*
X76049431Y-47520779D01*
X75940752Y-47604171D01*
X75929172Y-47615750D01*
X75845777Y-47724434D01*
X75837590Y-47738615D01*
X75785167Y-47865175D01*
X75780928Y-47880995D01*
X75774208Y-47932040D01*
X75776419Y-47946222D01*
X75789576Y-47950000D01*
X75800224Y-47950000D01*
X75868345Y-47970002D01*
X75914838Y-48023658D01*
X75924942Y-48093932D01*
X75900187Y-48152703D01*
X75860898Y-48203906D01*
X75803560Y-48245774D01*
X75796433Y-48248099D01*
X75776187Y-48254044D01*
X75774158Y-48267583D01*
X75782006Y-48327194D01*
X75780235Y-48327427D01*
X75780234Y-48372507D01*
X75781519Y-48372676D01*
X75771285Y-48450414D01*
X75766500Y-48486756D01*
X75766500Y-48713244D01*
X75767038Y-48717330D01*
X75767038Y-48717331D01*
X75781519Y-48827324D01*
X75779974Y-48827527D01*
X75779974Y-48872473D01*
X75781519Y-48872676D01*
X75769009Y-48967702D01*
X75766500Y-48986756D01*
X75766500Y-49213244D01*
X75767038Y-49217330D01*
X75767038Y-49217331D01*
X75781519Y-49327324D01*
X75779974Y-49327527D01*
X75779974Y-49372473D01*
X75781519Y-49372676D01*
X75766500Y-49486756D01*
X75766500Y-49713244D01*
X75767038Y-49717330D01*
X75767038Y-49717331D01*
X75781519Y-49827324D01*
X75779974Y-49827527D01*
X75779974Y-49872473D01*
X75781519Y-49872676D01*
X75777864Y-49900442D01*
X75766500Y-49986756D01*
X75766500Y-50213244D01*
X75767038Y-50217330D01*
X75767038Y-50217331D01*
X75781519Y-50327324D01*
X75779974Y-50327527D01*
X75779974Y-50372473D01*
X75781519Y-50372676D01*
X75771094Y-50451866D01*
X75766809Y-50484411D01*
X75738087Y-50549338D01*
X75678822Y-50588430D01*
X75666957Y-50591175D01*
X75662110Y-50591327D01*
X75643315Y-50596787D01*
X75642658Y-50596978D01*
X75623306Y-50600986D01*
X75616235Y-50601880D01*
X75603203Y-50603526D01*
X75595834Y-50606443D01*
X75595832Y-50606444D01*
X75562097Y-50619800D01*
X75550869Y-50623645D01*
X75508407Y-50635982D01*
X75494476Y-50644221D01*
X75456809Y-50656229D01*
X75457381Y-50658829D01*
X75450502Y-50660342D01*
X75443495Y-50661078D01*
X75436824Y-50663349D01*
X75295424Y-50711485D01*
X75224492Y-50714503D01*
X75163188Y-50678693D01*
X75130976Y-50615424D01*
X75134621Y-50561862D01*
X75133122Y-50561550D01*
X75147986Y-50490088D01*
X75148957Y-50485799D01*
X75151984Y-50473429D01*
X75166308Y-50414890D01*
X75167000Y-50403736D01*
X75167036Y-50403738D01*
X75167275Y-50399745D01*
X75167649Y-50395553D01*
X75169140Y-50388385D01*
X75167046Y-50310979D01*
X75167000Y-50307572D01*
X75167000Y-46901375D01*
X75187002Y-46833254D01*
X75240658Y-46786761D01*
X75305847Y-46776032D01*
X75312090Y-46776672D01*
X75317126Y-46776929D01*
X75332124Y-46772525D01*
X75333329Y-46771135D01*
X75335000Y-46763452D01*
X75335000Y-45666000D01*
X75355002Y-45597879D01*
X75408658Y-45551386D01*
X75461000Y-45540000D01*
X75717000Y-45540000D01*
X75785121Y-45560002D01*
G37*
%TD.AperFunction*%
%TA.AperFunction,Conductor*%
G36*
X85440621Y-46062502D02*
G01*
X85487114Y-46116158D01*
X85498500Y-46168500D01*
X85498501Y-46300754D01*
X85498501Y-46422978D01*
X85498695Y-46425443D01*
X85499828Y-46439841D01*
X85501326Y-46458889D01*
X85545982Y-46612593D01*
X85550016Y-46619414D01*
X85623424Y-46743543D01*
X85623427Y-46743547D01*
X85627458Y-46750363D01*
X85740637Y-46863542D01*
X85747453Y-46867573D01*
X85747457Y-46867576D01*
X85821375Y-46911290D01*
X85878407Y-46945018D01*
X85886017Y-46947229D01*
X86025928Y-46987878D01*
X86025931Y-46987879D01*
X86032111Y-46989674D01*
X86044762Y-46990670D01*
X86065562Y-46992307D01*
X86065575Y-46992308D01*
X86068021Y-46992500D01*
X86184817Y-46992500D01*
X86252938Y-47012502D01*
X86299431Y-47066158D01*
X86309535Y-47136432D01*
X86280041Y-47201012D01*
X86273912Y-47207595D01*
X84693766Y-48787741D01*
X84681375Y-48798608D01*
X84656013Y-48818069D01*
X84631526Y-48849981D01*
X84631523Y-48849984D01*
X84618083Y-48867499D01*
X84570832Y-48929078D01*
X84558476Y-48945180D01*
X84497162Y-49093205D01*
X84497162Y-49093206D01*
X84495414Y-49106482D01*
X84481500Y-49212171D01*
X84481500Y-49212176D01*
X84480718Y-49218120D01*
X84476250Y-49252056D01*
X84477328Y-49260244D01*
X84480422Y-49283746D01*
X84481500Y-49300192D01*
X84481500Y-50432209D01*
X84461498Y-50500330D01*
X84431066Y-50533034D01*
X84376065Y-50574255D01*
X84309558Y-50599103D01*
X84240176Y-50584050D01*
X84189946Y-50533876D01*
X84174500Y-50473429D01*
X84174500Y-46532239D01*
X84194502Y-46464118D01*
X84211405Y-46443144D01*
X84575144Y-46079405D01*
X84637456Y-46045379D01*
X84664239Y-46042500D01*
X85372500Y-46042500D01*
X85440621Y-46062502D01*
G37*
%TD.AperFunction*%
%TA.AperFunction,Conductor*%
G36*
X73070848Y-45869322D02*
G01*
X73073189Y-45870854D01*
X73227428Y-45928215D01*
X73234409Y-45929146D01*
X73234411Y-45929147D01*
X73383561Y-45949048D01*
X73383565Y-45949048D01*
X73390542Y-45949979D01*
X73397553Y-45949341D01*
X73397557Y-45949341D01*
X73512581Y-45938873D01*
X73582234Y-45952619D01*
X73633398Y-46001840D01*
X73650000Y-46064354D01*
X73650000Y-49954129D01*
X73629998Y-50022250D01*
X73613095Y-50043224D01*
X73135901Y-50520418D01*
X73073589Y-50554444D01*
X73002774Y-50549379D01*
X72952570Y-50514962D01*
X72933259Y-50493205D01*
X72918617Y-50489000D01*
X71472000Y-50489000D01*
X71403879Y-50468998D01*
X71357386Y-50415342D01*
X71346000Y-50363000D01*
X71346000Y-49962885D01*
X71854000Y-49962885D01*
X71858475Y-49978124D01*
X71859865Y-49979329D01*
X71867548Y-49981000D01*
X72918344Y-49981000D01*
X72931875Y-49977027D01*
X72933180Y-49967947D01*
X72891214Y-49800875D01*
X72887894Y-49791124D01*
X72802972Y-49595814D01*
X72798105Y-49586739D01*
X72682426Y-49407926D01*
X72676136Y-49399757D01*
X72532806Y-49242240D01*
X72525273Y-49235215D01*
X72358139Y-49103222D01*
X72349552Y-49097517D01*
X72163117Y-48994599D01*
X72153705Y-48990369D01*
X71952959Y-48919280D01*
X71942988Y-48916646D01*
X71871837Y-48903972D01*
X71858540Y-48905432D01*
X71854000Y-48919989D01*
X71854000Y-49962885D01*
X71346000Y-49962885D01*
X71346000Y-48918102D01*
X71342082Y-48904758D01*
X71327806Y-48902771D01*
X71289324Y-48908660D01*
X71279288Y-48911051D01*
X71076868Y-48977212D01*
X71067359Y-48981209D01*
X70878463Y-49079542D01*
X70869738Y-49085036D01*
X70699433Y-49212905D01*
X70691726Y-49219748D01*
X70610094Y-49305171D01*
X70548570Y-49340601D01*
X70477657Y-49337144D01*
X70419871Y-49295898D01*
X70393557Y-49229958D01*
X70393000Y-49218120D01*
X70393000Y-46803985D01*
X70413002Y-46735864D01*
X70466658Y-46689371D01*
X70536932Y-46679267D01*
X70601512Y-46708761D01*
X70622213Y-46731714D01*
X70654273Y-46777500D01*
X70660251Y-46786038D01*
X70815962Y-46941749D01*
X70820471Y-46944906D01*
X70820473Y-46944908D01*
X70895241Y-46997261D01*
X70996346Y-47068056D01*
X71195924Y-47161120D01*
X71408629Y-47218115D01*
X71628000Y-47237307D01*
X71847371Y-47218115D01*
X72060076Y-47161120D01*
X72259654Y-47068056D01*
X72360759Y-46997261D01*
X72435527Y-46944908D01*
X72435529Y-46944906D01*
X72440038Y-46941749D01*
X72595749Y-46786038D01*
X72601728Y-46777500D01*
X72718899Y-46610162D01*
X72718900Y-46610160D01*
X72722056Y-46605653D01*
X72724379Y-46600671D01*
X72724382Y-46600666D01*
X72780626Y-46480049D01*
X72815120Y-46406076D01*
X72872115Y-46193371D01*
X72891307Y-45974000D01*
X72893321Y-45974176D01*
X72910830Y-45914546D01*
X72964486Y-45868053D01*
X73034760Y-45857949D01*
X73070848Y-45869322D01*
G37*
%TD.AperFunction*%
%TA.AperFunction,Conductor*%
G36*
X87291533Y-48015238D02*
G01*
X87348369Y-48057785D01*
X87373180Y-48124305D01*
X87373501Y-48133294D01*
X87373501Y-48297978D01*
X87373695Y-48300443D01*
X87375818Y-48327427D01*
X87376326Y-48333889D01*
X87420982Y-48487593D01*
X87425016Y-48494414D01*
X87455954Y-48546728D01*
X87473500Y-48610867D01*
X87473500Y-49621444D01*
X87472941Y-49633300D01*
X87471212Y-49641037D01*
X87472076Y-49668518D01*
X87473438Y-49711869D01*
X87473500Y-49715827D01*
X87473500Y-49744932D01*
X87474056Y-49749332D01*
X87474988Y-49761164D01*
X87476438Y-49807331D01*
X87478650Y-49814944D01*
X87478650Y-49814945D01*
X87482419Y-49827916D01*
X87486430Y-49847282D01*
X87489118Y-49868564D01*
X87492034Y-49875929D01*
X87492035Y-49875933D01*
X87506126Y-49911521D01*
X87509965Y-49922731D01*
X87522855Y-49967100D01*
X87533775Y-49985565D01*
X87542466Y-50003305D01*
X87550365Y-50023256D01*
X87561583Y-50038696D01*
X87577516Y-50060626D01*
X87584033Y-50070548D01*
X87603507Y-50103477D01*
X87603510Y-50103481D01*
X87607547Y-50110307D01*
X87622711Y-50125471D01*
X87635551Y-50140504D01*
X87648159Y-50157857D01*
X87668421Y-50174619D01*
X87683752Y-50187302D01*
X87692532Y-50195292D01*
X87725645Y-50228405D01*
X87759671Y-50290717D01*
X87754606Y-50361532D01*
X87712059Y-50418368D01*
X87645539Y-50443179D01*
X87636550Y-50443500D01*
X87211866Y-50443500D01*
X87149684Y-50450255D01*
X87142288Y-50453027D01*
X87142282Y-50453029D01*
X87039229Y-50491662D01*
X86968422Y-50496845D01*
X86950771Y-50491662D01*
X86847718Y-50453029D01*
X86847712Y-50453027D01*
X86840316Y-50450255D01*
X86778134Y-50443500D01*
X86619552Y-50443500D01*
X86551431Y-50423498D01*
X86504938Y-50369842D01*
X86494834Y-50299568D01*
X86514604Y-50247773D01*
X86534830Y-50217331D01*
X86575643Y-50155902D01*
X86640055Y-49986338D01*
X86641040Y-49979329D01*
X86664748Y-49810639D01*
X86664748Y-49810636D01*
X86665299Y-49806717D01*
X86665616Y-49784000D01*
X86645397Y-49603745D01*
X86639475Y-49586739D01*
X86588064Y-49439106D01*
X86588062Y-49439103D01*
X86585745Y-49432448D01*
X86554297Y-49382120D01*
X86493359Y-49284598D01*
X86489626Y-49278624D01*
X86453495Y-49242240D01*
X86366778Y-49154915D01*
X86366774Y-49154912D01*
X86361815Y-49149918D01*
X86305491Y-49114174D01*
X86258693Y-49060785D01*
X86248188Y-48990569D01*
X86277312Y-48925821D01*
X86283911Y-48918694D01*
X87158406Y-48044199D01*
X87220718Y-48010173D01*
X87291533Y-48015238D01*
G37*
%TD.AperFunction*%
%TA.AperFunction,Conductor*%
G36*
X100098180Y-45080053D02*
G01*
X100130991Y-45103688D01*
X100708133Y-45680830D01*
X100742159Y-45743142D01*
X100737094Y-45813957D01*
X100724953Y-45838173D01*
X100638838Y-45971797D01*
X100636427Y-45978420D01*
X100636426Y-45978423D01*
X100594702Y-46093061D01*
X100582556Y-46126432D01*
X100582362Y-46127967D01*
X100561136Y-46172369D01*
X100541526Y-46197925D01*
X100541523Y-46197928D01*
X100533340Y-46208592D01*
X100478978Y-46279438D01*
X100468476Y-46293124D01*
X100407162Y-46441149D01*
X100406849Y-46443524D01*
X100391500Y-46560115D01*
X100391500Y-46560120D01*
X100386250Y-46600000D01*
X100390284Y-46630639D01*
X100390422Y-46631690D01*
X100391500Y-46648136D01*
X100391500Y-48595761D01*
X100371498Y-48663882D01*
X100354595Y-48684856D01*
X100139334Y-48900117D01*
X100077022Y-48934143D01*
X100006207Y-48929078D01*
X99949371Y-48886531D01*
X99924560Y-48820011D01*
X99942463Y-48745750D01*
X99981079Y-48681988D01*
X99987285Y-48668243D01*
X100034256Y-48518356D01*
X100036869Y-48505306D01*
X100041913Y-48450414D01*
X100038525Y-48438876D01*
X100037135Y-48437671D01*
X100029452Y-48436000D01*
X99332115Y-48436000D01*
X99316876Y-48440475D01*
X99315671Y-48441865D01*
X99314000Y-48449548D01*
X99314000Y-49071884D01*
X99318475Y-49087123D01*
X99319865Y-49088328D01*
X99327548Y-49089999D01*
X99388705Y-49089999D01*
X99394454Y-49089736D01*
X99458315Y-49083868D01*
X99471351Y-49081257D01*
X99621243Y-49034285D01*
X99634988Y-49028079D01*
X99698750Y-48989463D01*
X99767380Y-48971284D01*
X99834943Y-48993094D01*
X99879990Y-49047970D01*
X99888217Y-49118488D01*
X99853117Y-49186334D01*
X99661595Y-49377856D01*
X99611397Y-49405332D01*
X99612373Y-49408200D01*
X99463260Y-49458962D01*
X99463257Y-49458963D01*
X99456593Y-49461232D01*
X99316433Y-49547459D01*
X99260344Y-49602385D01*
X99212785Y-49648959D01*
X99198860Y-49662595D01*
X99109716Y-49800919D01*
X99107305Y-49807542D01*
X99107304Y-49807545D01*
X99097482Y-49834531D01*
X99070711Y-49908087D01*
X99070526Y-49908594D01*
X99028432Y-49965766D01*
X98962111Y-49991104D01*
X98952125Y-49991500D01*
X98253433Y-49991500D01*
X98185312Y-49971498D01*
X98138819Y-49917842D01*
X98128715Y-49847568D01*
X98158209Y-49782988D01*
X98188915Y-49757272D01*
X98209060Y-49745263D01*
X98209063Y-49745261D01*
X98215115Y-49741653D01*
X98346469Y-49616566D01*
X98446846Y-49465486D01*
X98488626Y-49355501D01*
X98508758Y-49302504D01*
X98508759Y-49302502D01*
X98511258Y-49295922D01*
X98525884Y-49191850D01*
X98555172Y-49127176D01*
X98614776Y-49088603D01*
X98662187Y-49083915D01*
X98725519Y-49089734D01*
X98731309Y-49090000D01*
X98787885Y-49090000D01*
X98803124Y-49085525D01*
X98804329Y-49084135D01*
X98806000Y-49076452D01*
X98806000Y-48454115D01*
X98801525Y-48438876D01*
X98800135Y-48437671D01*
X98792452Y-48436000D01*
X98232592Y-48436000D01*
X98165078Y-48416385D01*
X98085818Y-48366086D01*
X98085816Y-48366085D01*
X98079869Y-48362311D01*
X98066083Y-48357402D01*
X97915628Y-48303827D01*
X97915623Y-48303826D01*
X97908993Y-48301465D01*
X97902005Y-48300632D01*
X97902002Y-48300631D01*
X97778901Y-48285952D01*
X97728883Y-48279988D01*
X97721880Y-48280724D01*
X97721879Y-48280724D01*
X97555491Y-48298212D01*
X97555489Y-48298213D01*
X97548491Y-48298948D01*
X97376782Y-48357402D01*
X97351955Y-48372676D01*
X97228293Y-48448753D01*
X97228290Y-48448755D01*
X97222291Y-48452446D01*
X97208984Y-48465478D01*
X97196173Y-48478023D01*
X97133508Y-48511394D01*
X97108015Y-48514000D01*
X96913000Y-48514000D01*
X96844879Y-48493998D01*
X96798386Y-48440342D01*
X96787000Y-48388000D01*
X96787000Y-47295115D01*
X96782525Y-47279876D01*
X96781135Y-47278671D01*
X96773452Y-47277000D01*
X96770562Y-47277000D01*
X96764047Y-47277337D01*
X96671943Y-47286894D01*
X96658544Y-47289788D01*
X96509893Y-47339381D01*
X96496714Y-47345555D01*
X96363827Y-47427788D01*
X96346689Y-47441371D01*
X96345159Y-47439441D01*
X96293120Y-47467903D01*
X96222301Y-47462887D01*
X96185383Y-47439201D01*
X96184628Y-47440157D01*
X96178882Y-47435619D01*
X96173702Y-47430448D01*
X96153321Y-47417885D01*
X96034331Y-47344538D01*
X96034329Y-47344537D01*
X96028101Y-47340698D01*
X95865757Y-47286851D01*
X95858920Y-47286151D01*
X95858918Y-47286150D01*
X95817599Y-47281917D01*
X95764732Y-47276500D01*
X95217268Y-47276500D01*
X95214022Y-47276837D01*
X95214018Y-47276837D01*
X95184730Y-47279876D01*
X95114981Y-47287113D01*
X95106963Y-47289788D01*
X94959676Y-47338927D01*
X94959674Y-47338928D01*
X94952732Y-47341244D01*
X94946508Y-47345096D01*
X94946507Y-47345096D01*
X94853848Y-47402435D01*
X94807287Y-47431248D01*
X94775087Y-47463505D01*
X94770958Y-47467641D01*
X94708676Y-47501721D01*
X94637855Y-47496718D01*
X94592689Y-47467719D01*
X94527405Y-47402435D01*
X94493379Y-47340123D01*
X94490500Y-47313340D01*
X94490500Y-47118000D01*
X94510502Y-47049879D01*
X94564158Y-47003386D01*
X94616500Y-46992000D01*
X94838885Y-46992000D01*
X94854124Y-46987525D01*
X94855329Y-46986135D01*
X94857000Y-46978452D01*
X94857000Y-46318500D01*
X94877002Y-46250379D01*
X94930658Y-46203886D01*
X94982999Y-46192500D01*
X95103162Y-46192500D01*
X95231000Y-46192499D01*
X95299120Y-46212501D01*
X95345613Y-46266156D01*
X95357000Y-46318499D01*
X95357000Y-46973884D01*
X95361475Y-46989123D01*
X95362865Y-46990328D01*
X95370548Y-46991999D01*
X95793454Y-46991999D01*
X95798389Y-46991805D01*
X95825392Y-46989681D01*
X95837993Y-46987380D01*
X95977780Y-46946768D01*
X95992217Y-46940520D01*
X96116227Y-46867181D01*
X96128665Y-46857532D01*
X96202087Y-46784110D01*
X96264399Y-46750084D01*
X96335214Y-46755149D01*
X96343528Y-46759067D01*
X96344124Y-46759524D01*
X96492149Y-46820838D01*
X96651000Y-46841751D01*
X96682699Y-46837578D01*
X96699144Y-46836500D01*
X96951699Y-46836500D01*
X97020692Y-46857068D01*
X97158473Y-46947229D01*
X97169159Y-46954222D01*
X97175763Y-46956678D01*
X97175765Y-46956679D01*
X97332558Y-47014990D01*
X97332560Y-47014990D01*
X97339168Y-47017448D01*
X97422995Y-47028633D01*
X97511980Y-47040507D01*
X97511984Y-47040507D01*
X97518961Y-47041438D01*
X97525972Y-47040800D01*
X97525976Y-47040800D01*
X97668459Y-47027832D01*
X97699600Y-47024998D01*
X97706302Y-47022820D01*
X97706304Y-47022820D01*
X97865409Y-46971124D01*
X97865412Y-46971123D01*
X97872108Y-46968947D01*
X97892688Y-46956679D01*
X97941195Y-46927763D01*
X98009950Y-46910063D01*
X98077359Y-46932345D01*
X98122021Y-46987534D01*
X98125940Y-46998295D01*
X98134528Y-47025699D01*
X98223361Y-47172381D01*
X98319239Y-47268259D01*
X98353265Y-47330571D01*
X98348200Y-47401386D01*
X98319239Y-47446449D01*
X98229131Y-47536557D01*
X98219821Y-47548429D01*
X98139761Y-47680625D01*
X98087364Y-47728532D01*
X98017384Y-47740505D01*
X97952040Y-47712744D01*
X97924841Y-47681657D01*
X97848212Y-47557827D01*
X97839176Y-47546426D01*
X97728571Y-47436014D01*
X97717160Y-47427002D01*
X97584120Y-47344996D01*
X97570939Y-47338849D01*
X97422186Y-47289509D01*
X97408810Y-47286642D01*
X97317903Y-47277328D01*
X97312874Y-47277071D01*
X97297876Y-47281475D01*
X97296671Y-47282865D01*
X97295000Y-47290548D01*
X97295000Y-47987885D01*
X97299475Y-48003124D01*
X97300865Y-48004329D01*
X97308548Y-48006000D01*
X97980885Y-48006000D01*
X97996124Y-48001525D01*
X98018389Y-47975830D01*
X98019143Y-47976484D01*
X98025472Y-47964896D01*
X98087788Y-47930877D01*
X98114559Y-47928000D01*
X100024884Y-47928000D01*
X100040123Y-47923525D01*
X100041328Y-47922135D01*
X100042291Y-47917706D01*
X100036868Y-47858685D01*
X100034257Y-47845649D01*
X99987285Y-47695757D01*
X99981079Y-47682012D01*
X99900176Y-47548426D01*
X99890869Y-47536557D01*
X99800761Y-47446449D01*
X99766735Y-47384137D01*
X99771800Y-47313322D01*
X99800761Y-47268259D01*
X99896639Y-47172381D01*
X99985472Y-47025699D01*
X99989842Y-47011756D01*
X100013048Y-46937704D01*
X100036753Y-46862062D01*
X100043500Y-46788635D01*
X100043499Y-46275366D01*
X100041204Y-46250379D01*
X100039091Y-46227388D01*
X100036753Y-46201938D01*
X100027907Y-46173710D01*
X99987744Y-46045550D01*
X99987743Y-46045548D01*
X99985472Y-46038301D01*
X99896639Y-45891619D01*
X99775381Y-45770361D01*
X99768882Y-45766425D01*
X99766751Y-45764754D01*
X99725488Y-45706980D01*
X99718500Y-45665602D01*
X99718500Y-45536694D01*
X99738502Y-45468573D01*
X99755327Y-45447676D01*
X99790758Y-45412183D01*
X99795929Y-45407003D01*
X99800346Y-45399837D01*
X99883369Y-45265150D01*
X99883370Y-45265148D01*
X99887209Y-45258920D01*
X99922303Y-45153115D01*
X99962734Y-45094756D01*
X100028298Y-45067519D01*
X100098180Y-45080053D01*
G37*
%TD.AperFunction*%
%TA.AperFunction,Conductor*%
G36*
X95800157Y-38253502D02*
G01*
X95846650Y-38307158D01*
X95856754Y-38377432D01*
X95837947Y-38427755D01*
X95791235Y-38500238D01*
X95788826Y-38506858D01*
X95788824Y-38506861D01*
X95738898Y-38644032D01*
X95729197Y-38670685D01*
X95706463Y-38850640D01*
X95724163Y-39031160D01*
X95781418Y-39203273D01*
X95785065Y-39209295D01*
X95785066Y-39209297D01*
X95841128Y-39301866D01*
X95875380Y-39358424D01*
X95880269Y-39363487D01*
X95880270Y-39363488D01*
X95908182Y-39392391D01*
X96001382Y-39488902D01*
X96153159Y-39588222D01*
X96159763Y-39590678D01*
X96159765Y-39590679D01*
X96316558Y-39648990D01*
X96316560Y-39648990D01*
X96323168Y-39651448D01*
X96406995Y-39662633D01*
X96495980Y-39674507D01*
X96495984Y-39674507D01*
X96502961Y-39675438D01*
X96509972Y-39674800D01*
X96509976Y-39674800D01*
X96652459Y-39661832D01*
X96683600Y-39658998D01*
X96690302Y-39656820D01*
X96690304Y-39656820D01*
X96849409Y-39605124D01*
X96849412Y-39605123D01*
X96856108Y-39602947D01*
X97011912Y-39510069D01*
X97143266Y-39384982D01*
X97243643Y-39233902D01*
X97288430Y-39116000D01*
X97305555Y-39070920D01*
X97305556Y-39070918D01*
X97308055Y-39064338D01*
X97311543Y-39039523D01*
X97332748Y-38888639D01*
X97332748Y-38888636D01*
X97333299Y-38884717D01*
X97333616Y-38862000D01*
X97313397Y-38681745D01*
X97310833Y-38674381D01*
X97256064Y-38517106D01*
X97256062Y-38517103D01*
X97253745Y-38510448D01*
X97201143Y-38426267D01*
X97182009Y-38357900D01*
X97202875Y-38290039D01*
X97257117Y-38244231D01*
X97307999Y-38233500D01*
X104340500Y-38233500D01*
X104408621Y-38253502D01*
X104455114Y-38307158D01*
X104466500Y-38359500D01*
X104466500Y-45177500D01*
X104446498Y-45245621D01*
X104392842Y-45292114D01*
X104340500Y-45303500D01*
X103023037Y-45303500D01*
X102954916Y-45283498D01*
X102933632Y-45266285D01*
X102932290Y-45264934D01*
X102927326Y-45259935D01*
X102788384Y-45171759D01*
X102681272Y-45133618D01*
X102639993Y-45118919D01*
X102639991Y-45118918D01*
X102633359Y-45116557D01*
X102626373Y-45115724D01*
X102626369Y-45115723D01*
X102511875Y-45102071D01*
X102469957Y-45097073D01*
X102462954Y-45097809D01*
X102462953Y-45097809D01*
X102419739Y-45102351D01*
X102306299Y-45114274D01*
X102299631Y-45116544D01*
X102157186Y-45165036D01*
X102157183Y-45165037D01*
X102150519Y-45167306D01*
X102133949Y-45177500D01*
X102089896Y-45204601D01*
X102021394Y-45223259D01*
X101953680Y-45201920D01*
X101934778Y-45186378D01*
X101482376Y-44733975D01*
X101448351Y-44671663D01*
X101453416Y-44600847D01*
X101492328Y-44548506D01*
X101491912Y-44548069D01*
X101494449Y-44545653D01*
X101497012Y-44543212D01*
X101497015Y-44543210D01*
X101574603Y-44469323D01*
X101623266Y-44422982D01*
X101723643Y-44271902D01*
X101777104Y-44131166D01*
X101785555Y-44108920D01*
X101785556Y-44108918D01*
X101788055Y-44102338D01*
X101793847Y-44061127D01*
X101812748Y-43926639D01*
X101812748Y-43926636D01*
X101813299Y-43922717D01*
X101813616Y-43900000D01*
X101793397Y-43719745D01*
X101791080Y-43713091D01*
X101736064Y-43555106D01*
X101736062Y-43555103D01*
X101733745Y-43548448D01*
X101714056Y-43516938D01*
X101641359Y-43400598D01*
X101637626Y-43394624D01*
X101625803Y-43382718D01*
X101514778Y-43270915D01*
X101514774Y-43270912D01*
X101509815Y-43265918D01*
X101499408Y-43259313D01*
X101438392Y-43220592D01*
X101356666Y-43168727D01*
X101278117Y-43140757D01*
X101192425Y-43110243D01*
X101192420Y-43110242D01*
X101185790Y-43107881D01*
X101178802Y-43107048D01*
X101178799Y-43107047D01*
X101055698Y-43092368D01*
X101005680Y-43086404D01*
X100998677Y-43087140D01*
X100998676Y-43087140D01*
X100832288Y-43104628D01*
X100832286Y-43104629D01*
X100825288Y-43105364D01*
X100754236Y-43129552D01*
X100660249Y-43161547D01*
X100660246Y-43161548D01*
X100653579Y-43163818D01*
X100647580Y-43167508D01*
X100647579Y-43167509D01*
X100643753Y-43169863D01*
X100631964Y-43177116D01*
X100563465Y-43195775D01*
X100495751Y-43174438D01*
X100476846Y-43158894D01*
X97555718Y-40237766D01*
X97544851Y-40225375D01*
X97530416Y-40206563D01*
X97525390Y-40200013D01*
X97493478Y-40175526D01*
X97493475Y-40175523D01*
X97421002Y-40119912D01*
X97404832Y-40107504D01*
X97404830Y-40107503D01*
X97398279Y-40102476D01*
X97250254Y-40041162D01*
X97242067Y-40040084D01*
X97242066Y-40040084D01*
X97230861Y-40038609D01*
X97199665Y-40034502D01*
X97131288Y-40025500D01*
X97131285Y-40025500D01*
X97131277Y-40025499D01*
X97099592Y-40021328D01*
X97091403Y-40020250D01*
X97059710Y-40024422D01*
X97043267Y-40025500D01*
X96192009Y-40025500D01*
X96124617Y-40005712D01*
X96123363Y-40004458D01*
X95985593Y-39922982D01*
X95970851Y-39918699D01*
X95838072Y-39880122D01*
X95838069Y-39880121D01*
X95831889Y-39878326D01*
X95819238Y-39877330D01*
X95798438Y-39875693D01*
X95798425Y-39875692D01*
X95795979Y-39875500D01*
X95770870Y-39875500D01*
X94616500Y-39875501D01*
X94548379Y-39855499D01*
X94501886Y-39801843D01*
X94490500Y-39749501D01*
X94490500Y-39448594D01*
X94510502Y-39380473D01*
X94527405Y-39359499D01*
X95616499Y-38270405D01*
X95678811Y-38236379D01*
X95705594Y-38233500D01*
X95732036Y-38233500D01*
X95800157Y-38253502D01*
G37*
%TD.AperFunction*%
%TA.AperFunction,Conductor*%
G36*
X92700925Y-40512877D02*
G01*
X92700927Y-40512877D01*
X92707111Y-40514674D01*
X92719762Y-40515670D01*
X92740562Y-40517307D01*
X92740575Y-40517308D01*
X92743021Y-40517500D01*
X92931885Y-40517500D01*
X93120978Y-40517499D01*
X93128766Y-40516886D01*
X93150474Y-40515179D01*
X93150477Y-40515178D01*
X93156889Y-40514674D01*
X93163063Y-40512880D01*
X93163070Y-40512879D01*
X93296847Y-40474012D01*
X93367153Y-40474012D01*
X93500925Y-40512877D01*
X93500927Y-40512877D01*
X93507111Y-40514674D01*
X93519762Y-40515670D01*
X93540562Y-40517307D01*
X93540575Y-40517308D01*
X93543021Y-40517500D01*
X93548894Y-40517500D01*
X93722500Y-40517499D01*
X93790620Y-40537501D01*
X93837113Y-40591156D01*
X93848500Y-40643498D01*
X93848501Y-40742987D01*
X93848501Y-40822978D01*
X93851326Y-40858889D01*
X93853120Y-40865063D01*
X93853121Y-40865070D01*
X93891988Y-40998847D01*
X93891988Y-41069153D01*
X93855508Y-41194717D01*
X93851326Y-41209111D01*
X93850821Y-41215530D01*
X93848693Y-41242562D01*
X93848692Y-41242575D01*
X93848500Y-41245021D01*
X93848501Y-41622978D01*
X93849041Y-41629840D01*
X93850561Y-41649161D01*
X93851326Y-41658889D01*
X93853120Y-41665063D01*
X93853121Y-41665070D01*
X93891988Y-41798847D01*
X93891988Y-41869153D01*
X93853163Y-42002789D01*
X93851326Y-42009111D01*
X93850821Y-42015530D01*
X93848693Y-42042562D01*
X93848692Y-42042575D01*
X93848500Y-42045021D01*
X93848501Y-42422978D01*
X93848695Y-42425443D01*
X93850627Y-42450000D01*
X93851326Y-42458889D01*
X93853120Y-42465063D01*
X93853121Y-42465070D01*
X93891988Y-42598847D01*
X93891988Y-42669153D01*
X93853291Y-42802347D01*
X93851326Y-42809111D01*
X93850821Y-42815529D01*
X93849081Y-42837637D01*
X93823795Y-42903978D01*
X93812564Y-42916846D01*
X93660985Y-43068425D01*
X93598673Y-43102451D01*
X93571890Y-43105330D01*
X91783695Y-43105330D01*
X91715574Y-43085328D01*
X91711101Y-43082106D01*
X91708759Y-43079748D01*
X91697641Y-43072692D01*
X91642941Y-43037979D01*
X91555610Y-42982557D01*
X91519655Y-42969754D01*
X91391369Y-42924073D01*
X91391364Y-42924072D01*
X91384734Y-42921711D01*
X91377746Y-42920878D01*
X91377743Y-42920877D01*
X91240257Y-42904483D01*
X91204624Y-42900234D01*
X91197621Y-42900970D01*
X91197620Y-42900970D01*
X91031232Y-42918458D01*
X91031230Y-42918459D01*
X91024232Y-42919194D01*
X90852523Y-42977648D01*
X90846519Y-42981342D01*
X90704039Y-43068996D01*
X90704036Y-43068998D01*
X90698032Y-43072692D01*
X90692997Y-43077623D01*
X90692994Y-43077625D01*
X90593967Y-43174600D01*
X90568437Y-43199601D01*
X90470179Y-43352068D01*
X90467770Y-43358688D01*
X90467768Y-43358691D01*
X90414349Y-43505458D01*
X90408141Y-43522515D01*
X90385407Y-43702470D01*
X90403107Y-43882990D01*
X90460362Y-44055103D01*
X90464009Y-44061125D01*
X90464010Y-44061127D01*
X90510387Y-44137704D01*
X90554324Y-44210254D01*
X90559213Y-44215317D01*
X90559214Y-44215318D01*
X90613857Y-44271902D01*
X90680326Y-44340732D01*
X90686222Y-44344590D01*
X90813443Y-44427841D01*
X90832103Y-44440052D01*
X90838707Y-44442508D01*
X90838709Y-44442509D01*
X90910810Y-44469323D01*
X90967686Y-44511815D01*
X90992560Y-44578312D01*
X90977535Y-44647700D01*
X90927380Y-44697950D01*
X90907498Y-44706697D01*
X90839579Y-44729818D01*
X90792010Y-44759083D01*
X90691095Y-44821166D01*
X90691092Y-44821168D01*
X90685088Y-44824862D01*
X90680053Y-44829793D01*
X90680050Y-44829795D01*
X90560525Y-44946843D01*
X90555493Y-44951771D01*
X90457235Y-45104238D01*
X90457019Y-45104831D01*
X90410538Y-45155091D01*
X90341806Y-45172878D01*
X90274368Y-45150682D01*
X90256788Y-45136039D01*
X90073276Y-44952527D01*
X90062409Y-44940136D01*
X90047974Y-44921324D01*
X90042948Y-44914774D01*
X90011036Y-44890287D01*
X90011033Y-44890284D01*
X89997558Y-44879944D01*
X89922390Y-44822265D01*
X89922388Y-44822264D01*
X89915837Y-44817237D01*
X89767812Y-44755923D01*
X89759625Y-44754845D01*
X89759624Y-44754845D01*
X89748419Y-44753370D01*
X89717223Y-44749263D01*
X89648846Y-44740261D01*
X89648843Y-44740261D01*
X89648835Y-44740260D01*
X89617150Y-44736089D01*
X89608961Y-44735011D01*
X89609062Y-44734243D01*
X89547905Y-44716475D01*
X89498819Y-44685324D01*
X89436449Y-44663115D01*
X89350428Y-44632484D01*
X89350426Y-44632483D01*
X89343794Y-44630122D01*
X89336808Y-44629289D01*
X89336804Y-44629288D01*
X89216286Y-44614918D01*
X89180392Y-44610638D01*
X89173389Y-44611374D01*
X89173388Y-44611374D01*
X89139670Y-44614918D01*
X89069832Y-44602146D01*
X89017985Y-44553644D01*
X89000500Y-44489608D01*
X89000500Y-42468239D01*
X89020502Y-42400118D01*
X89037405Y-42379144D01*
X89413760Y-42002789D01*
X89476072Y-41968763D01*
X89546887Y-41973828D01*
X89603723Y-42016375D01*
X89626101Y-42065684D01*
X89627476Y-42072151D01*
X89628163Y-42079160D01*
X89630387Y-42085845D01*
X89630387Y-42085846D01*
X89654159Y-42157307D01*
X89685418Y-42251273D01*
X89689065Y-42257295D01*
X89689066Y-42257297D01*
X89769874Y-42390727D01*
X89779380Y-42406424D01*
X89784269Y-42411487D01*
X89784270Y-42411488D01*
X89840918Y-42470148D01*
X89905382Y-42536902D01*
X89959757Y-42572484D01*
X90050255Y-42631704D01*
X90057159Y-42636222D01*
X90063763Y-42638678D01*
X90063765Y-42638679D01*
X90220558Y-42696990D01*
X90220560Y-42696990D01*
X90227168Y-42699448D01*
X90310995Y-42710633D01*
X90399980Y-42722507D01*
X90399984Y-42722507D01*
X90406961Y-42723438D01*
X90413972Y-42722800D01*
X90413976Y-42722800D01*
X90556459Y-42709832D01*
X90587600Y-42706998D01*
X90594302Y-42704820D01*
X90594304Y-42704820D01*
X90753409Y-42653124D01*
X90753412Y-42653123D01*
X90760108Y-42650947D01*
X90885833Y-42576000D01*
X90909860Y-42561677D01*
X90909862Y-42561676D01*
X90915912Y-42558069D01*
X91047266Y-42432982D01*
X91147643Y-42281902D01*
X91150143Y-42275320D01*
X91150149Y-42275309D01*
X91152059Y-42270280D01*
X91180751Y-42225930D01*
X91820911Y-41585770D01*
X91835323Y-41573384D01*
X91846918Y-41564851D01*
X91846923Y-41564846D01*
X91852818Y-41560508D01*
X91857557Y-41554930D01*
X91857560Y-41554927D01*
X91887035Y-41520232D01*
X91893965Y-41512716D01*
X91899660Y-41507021D01*
X91917281Y-41484749D01*
X91920072Y-41481345D01*
X91962591Y-41431297D01*
X91962592Y-41431295D01*
X91967333Y-41425715D01*
X91970661Y-41419199D01*
X91974028Y-41414150D01*
X91977195Y-41409021D01*
X91981734Y-41403284D01*
X92012655Y-41337125D01*
X92014561Y-41333225D01*
X92015666Y-41331061D01*
X92047769Y-41268192D01*
X92049508Y-41261084D01*
X92051607Y-41255441D01*
X92053524Y-41249678D01*
X92056622Y-41243050D01*
X92071487Y-41171583D01*
X92072457Y-41167299D01*
X92082560Y-41126012D01*
X92089808Y-41096390D01*
X92090500Y-41085236D01*
X92090536Y-41085238D01*
X92090775Y-41081245D01*
X92091149Y-41077053D01*
X92092640Y-41069885D01*
X92090546Y-40992479D01*
X92090500Y-40989072D01*
X92090500Y-40643499D01*
X92110502Y-40575378D01*
X92164158Y-40528885D01*
X92216498Y-40517499D01*
X92320978Y-40517499D01*
X92328766Y-40516886D01*
X92350474Y-40515179D01*
X92350477Y-40515178D01*
X92356889Y-40514674D01*
X92363063Y-40512880D01*
X92363070Y-40512879D01*
X92496847Y-40474012D01*
X92567153Y-40474012D01*
X92700925Y-40512877D01*
G37*
%TD.AperFunction*%
%TA.AperFunction,Conductor*%
G36*
X79933621Y-32063002D02*
G01*
X79980114Y-32116658D01*
X79991500Y-32169000D01*
X79991500Y-33491377D01*
X79991498Y-33492147D01*
X79991024Y-33569721D01*
X79993491Y-33578352D01*
X79999150Y-33598153D01*
X80002728Y-33614915D01*
X80006920Y-33644187D01*
X80010634Y-33652355D01*
X80010634Y-33652356D01*
X80017548Y-33667562D01*
X80023996Y-33685086D01*
X80031051Y-33709771D01*
X80035843Y-33717365D01*
X80035844Y-33717368D01*
X80046830Y-33734780D01*
X80054969Y-33749863D01*
X80067208Y-33776782D01*
X80073069Y-33783584D01*
X80083970Y-33796235D01*
X80095073Y-33811239D01*
X80108776Y-33832958D01*
X80115501Y-33838897D01*
X80115504Y-33838901D01*
X80130938Y-33852532D01*
X80142982Y-33864724D01*
X80156427Y-33880327D01*
X80156430Y-33880329D01*
X80162287Y-33887127D01*
X80169816Y-33892007D01*
X80169817Y-33892008D01*
X80183835Y-33901094D01*
X80198709Y-33912385D01*
X80211217Y-33923431D01*
X80217951Y-33929378D01*
X80244711Y-33941942D01*
X80259691Y-33950263D01*
X80276983Y-33961471D01*
X80276988Y-33961473D01*
X80284515Y-33966352D01*
X80293108Y-33968922D01*
X80293113Y-33968924D01*
X80309120Y-33973711D01*
X80326564Y-33980372D01*
X80341676Y-33987467D01*
X80341678Y-33987468D01*
X80349800Y-33991281D01*
X80358667Y-33992662D01*
X80358668Y-33992662D01*
X80361353Y-33993080D01*
X80379017Y-33995830D01*
X80395732Y-33999613D01*
X80415466Y-34005515D01*
X80415472Y-34005516D01*
X80424066Y-34008086D01*
X80433037Y-34008141D01*
X80433038Y-34008141D01*
X80443097Y-34008202D01*
X80458506Y-34008296D01*
X80459289Y-34008329D01*
X80460386Y-34008500D01*
X80491377Y-34008500D01*
X80492147Y-34008502D01*
X80565785Y-34008952D01*
X80565786Y-34008952D01*
X80569721Y-34008976D01*
X80571065Y-34008592D01*
X80572410Y-34008500D01*
X81238287Y-34008500D01*
X81306408Y-34028502D01*
X81352901Y-34082158D01*
X81363005Y-34152432D01*
X81333511Y-34217012D01*
X81306970Y-34239798D01*
X81305608Y-34240507D01*
X81301472Y-34243612D01*
X81301471Y-34243613D01*
X81284839Y-34256101D01*
X81126966Y-34374635D01*
X80972630Y-34536138D01*
X80865202Y-34693621D01*
X80810294Y-34738621D01*
X80739769Y-34746792D01*
X80676022Y-34715538D01*
X80655325Y-34691054D01*
X80574823Y-34566617D01*
X80574821Y-34566614D01*
X80572015Y-34562277D01*
X80421671Y-34397051D01*
X80417620Y-34393852D01*
X80417616Y-34393848D01*
X80250415Y-34261800D01*
X80250411Y-34261798D01*
X80246360Y-34258598D01*
X80050790Y-34150638D01*
X80045921Y-34148914D01*
X80045917Y-34148912D01*
X79845088Y-34077795D01*
X79845084Y-34077794D01*
X79840213Y-34076069D01*
X79835120Y-34075162D01*
X79835117Y-34075161D01*
X79625374Y-34037800D01*
X79625368Y-34037799D01*
X79620285Y-34036894D01*
X79546453Y-34035992D01*
X79402082Y-34034228D01*
X79402080Y-34034228D01*
X79396912Y-34034165D01*
X79176092Y-34067955D01*
X78963757Y-34137357D01*
X78765608Y-34240507D01*
X78761475Y-34243610D01*
X78761472Y-34243612D01*
X78737248Y-34261800D01*
X78586966Y-34374635D01*
X78432630Y-34536138D01*
X78306744Y-34720680D01*
X78291004Y-34754590D01*
X78232749Y-34880090D01*
X78212689Y-34923305D01*
X78152990Y-35138570D01*
X78129252Y-35360695D01*
X78129549Y-35365848D01*
X78129549Y-35365851D01*
X78135012Y-35460590D01*
X78142111Y-35583715D01*
X78143248Y-35588761D01*
X78143249Y-35588767D01*
X78153990Y-35636426D01*
X78191223Y-35801639D01*
X78275267Y-36008616D01*
X78391988Y-36199088D01*
X78395367Y-36202989D01*
X78395373Y-36202997D01*
X78407272Y-36216734D01*
X78436754Y-36281320D01*
X78426637Y-36351592D01*
X78401128Y-36388324D01*
X78284857Y-36504595D01*
X78222545Y-36538621D01*
X78195762Y-36541500D01*
X76451866Y-36541500D01*
X76389684Y-36548255D01*
X76253295Y-36599385D01*
X76246108Y-36604771D01*
X76238240Y-36609079D01*
X76236660Y-36606192D01*
X76185225Y-36625418D01*
X76115840Y-36610375D01*
X76093635Y-36594969D01*
X76077135Y-36580671D01*
X76069452Y-36579000D01*
X74135115Y-36579000D01*
X74119876Y-36583475D01*
X74118671Y-36584865D01*
X74117000Y-36592548D01*
X74117000Y-36595438D01*
X74117337Y-36601953D01*
X74126894Y-36694057D01*
X74129788Y-36707456D01*
X74179381Y-36856107D01*
X74185555Y-36869286D01*
X74267788Y-37002173D01*
X74281371Y-37019311D01*
X74279441Y-37020841D01*
X74307903Y-37072880D01*
X74302887Y-37143699D01*
X74279201Y-37180617D01*
X74280157Y-37181372D01*
X74275619Y-37187118D01*
X74270448Y-37192298D01*
X74266608Y-37198528D01*
X74266607Y-37198529D01*
X74197606Y-37310470D01*
X74180698Y-37337899D01*
X74126851Y-37500243D01*
X74126151Y-37507080D01*
X74126150Y-37507082D01*
X74124057Y-37527510D01*
X74116500Y-37601268D01*
X74116500Y-38148732D01*
X74116837Y-38151978D01*
X74116837Y-38151982D01*
X74117756Y-38160840D01*
X74127113Y-38251019D01*
X74129295Y-38257559D01*
X74177161Y-38401029D01*
X74181244Y-38413268D01*
X74185096Y-38419492D01*
X74185096Y-38419493D01*
X74245501Y-38517106D01*
X74271248Y-38558713D01*
X74392298Y-38679552D01*
X74398528Y-38683392D01*
X74398529Y-38683393D01*
X74492642Y-38741405D01*
X74537899Y-38769302D01*
X74700243Y-38823149D01*
X74707080Y-38823849D01*
X74707082Y-38823850D01*
X74748401Y-38828083D01*
X74801268Y-38833500D01*
X75398732Y-38833500D01*
X75401978Y-38833163D01*
X75401982Y-38833163D01*
X75436083Y-38829625D01*
X75501019Y-38822887D01*
X75588125Y-38793826D01*
X75656324Y-38771073D01*
X75656326Y-38771072D01*
X75663268Y-38768756D01*
X75799199Y-38684639D01*
X75867649Y-38665803D01*
X75935419Y-38686964D01*
X75980990Y-38741405D01*
X75991500Y-38791785D01*
X75991500Y-38898134D01*
X75998255Y-38960316D01*
X76001027Y-38967712D01*
X76001029Y-38967718D01*
X76034039Y-39055771D01*
X76039222Y-39126578D01*
X76034039Y-39144229D01*
X76001029Y-39232282D01*
X76001027Y-39232288D01*
X75998255Y-39239684D01*
X75991500Y-39301866D01*
X75991500Y-41198134D01*
X75998255Y-41260316D01*
X76049385Y-41396705D01*
X76136739Y-41513261D01*
X76143919Y-41518642D01*
X76143920Y-41518643D01*
X76147708Y-41521482D01*
X76190221Y-41578342D01*
X76195245Y-41649161D01*
X76179916Y-41687578D01*
X76143921Y-41747013D01*
X76137715Y-41760757D01*
X76090744Y-41910644D01*
X76088131Y-41923694D01*
X76082266Y-41987521D01*
X76082000Y-41993309D01*
X76082000Y-42049885D01*
X76086475Y-42065124D01*
X76087865Y-42066329D01*
X76095548Y-42068000D01*
X77118000Y-42068000D01*
X77186121Y-42088002D01*
X77232614Y-42141658D01*
X77244000Y-42194000D01*
X77244000Y-42450000D01*
X77223998Y-42518121D01*
X77170342Y-42564614D01*
X77118000Y-42576000D01*
X76100116Y-42576000D01*
X76084877Y-42580475D01*
X76083672Y-42581865D01*
X76082001Y-42589548D01*
X76082001Y-42650705D01*
X76082264Y-42656454D01*
X76088132Y-42720315D01*
X76090743Y-42733351D01*
X76137715Y-42883243D01*
X76143921Y-42896988D01*
X76224824Y-43030574D01*
X76230451Y-43037750D01*
X76256746Y-43103697D01*
X76243213Y-43173392D01*
X76194148Y-43224707D01*
X76131300Y-43241500D01*
X75208063Y-43241500D01*
X75189114Y-43240067D01*
X75188907Y-43240036D01*
X75167651Y-43236802D01*
X75160359Y-43237395D01*
X75160356Y-43237395D01*
X75114991Y-43241085D01*
X75104777Y-43241500D01*
X75096707Y-43241500D01*
X75093087Y-43241922D01*
X75093069Y-43241923D01*
X75068461Y-43244792D01*
X75064100Y-43245224D01*
X75038981Y-43247267D01*
X74998661Y-43250546D01*
X74998658Y-43250547D01*
X74991363Y-43251140D01*
X74984399Y-43253396D01*
X74978440Y-43254587D01*
X74972585Y-43255971D01*
X74965319Y-43256818D01*
X74896673Y-43281735D01*
X74892545Y-43283152D01*
X74830064Y-43303393D01*
X74830062Y-43303394D01*
X74823101Y-43305649D01*
X74816846Y-43309445D01*
X74811372Y-43311951D01*
X74805942Y-43314670D01*
X74799063Y-43317167D01*
X74738016Y-43357191D01*
X74734327Y-43359518D01*
X74714135Y-43371771D01*
X74676693Y-43394491D01*
X74676688Y-43394495D01*
X74671892Y-43397405D01*
X74663516Y-43404803D01*
X74663493Y-43404777D01*
X74660503Y-43407426D01*
X74657264Y-43410134D01*
X74651148Y-43414144D01*
X74646121Y-43419451D01*
X74646117Y-43419454D01*
X74597872Y-43470383D01*
X74595494Y-43472825D01*
X74229674Y-43838645D01*
X74167362Y-43872671D01*
X74096547Y-43867606D01*
X74039711Y-43825059D01*
X74033725Y-43816320D01*
X73988209Y-43743479D01*
X73984476Y-43737505D01*
X73919823Y-43672399D01*
X73873486Y-43625737D01*
X73873482Y-43625734D01*
X73868522Y-43620739D01*
X73729580Y-43532563D01*
X73669701Y-43511241D01*
X73581189Y-43479723D01*
X73581187Y-43479722D01*
X73574555Y-43477361D01*
X73567569Y-43476528D01*
X73567565Y-43476527D01*
X73449085Y-43462400D01*
X73411153Y-43457877D01*
X73404150Y-43458613D01*
X73404149Y-43458613D01*
X73368119Y-43462400D01*
X73247495Y-43475078D01*
X73240827Y-43477348D01*
X73098382Y-43525840D01*
X73098379Y-43525841D01*
X73091715Y-43528110D01*
X73085713Y-43531803D01*
X73085712Y-43531803D01*
X73082852Y-43533562D01*
X73080764Y-43534131D01*
X73079342Y-43534800D01*
X73079224Y-43534550D01*
X73014351Y-43552222D01*
X72946637Y-43530885D01*
X72901208Y-43476325D01*
X72892415Y-43433903D01*
X72891307Y-43434000D01*
X72887020Y-43384994D01*
X72872115Y-43214629D01*
X72815120Y-43001924D01*
X72759778Y-42883243D01*
X72724382Y-42807334D01*
X72724379Y-42807329D01*
X72722056Y-42802347D01*
X72692571Y-42760238D01*
X72598908Y-42626473D01*
X72598906Y-42626470D01*
X72595749Y-42621962D01*
X72440038Y-42466251D01*
X72431330Y-42460153D01*
X72354597Y-42406424D01*
X72259654Y-42339944D01*
X72254672Y-42337621D01*
X72254667Y-42337618D01*
X72127232Y-42278195D01*
X72073947Y-42231278D01*
X72054486Y-42163001D01*
X72075028Y-42095041D01*
X72127232Y-42049805D01*
X72254667Y-41990382D01*
X72254672Y-41990379D01*
X72259654Y-41988056D01*
X72387353Y-41898640D01*
X72435527Y-41864908D01*
X72435529Y-41864906D01*
X72440038Y-41861749D01*
X72595749Y-41706038D01*
X72611181Y-41684000D01*
X72718899Y-41530162D01*
X72718900Y-41530160D01*
X72722056Y-41525653D01*
X72724379Y-41520671D01*
X72724382Y-41520666D01*
X72787645Y-41384996D01*
X72815120Y-41326076D01*
X72872115Y-41113371D01*
X72891307Y-40894000D01*
X72872115Y-40674629D01*
X72815120Y-40461924D01*
X72755176Y-40333373D01*
X72724382Y-40267334D01*
X72724379Y-40267329D01*
X72722056Y-40262347D01*
X72704844Y-40237766D01*
X72598908Y-40086473D01*
X72598906Y-40086470D01*
X72595749Y-40081962D01*
X72440038Y-39926251D01*
X72435370Y-39922982D01*
X72328476Y-39848134D01*
X72259654Y-39799944D01*
X72254672Y-39797621D01*
X72254667Y-39797618D01*
X72126641Y-39737919D01*
X72073356Y-39691002D01*
X72053895Y-39622724D01*
X72074437Y-39554764D01*
X72126641Y-39509529D01*
X72254416Y-39449947D01*
X72263912Y-39444464D01*
X72305148Y-39415590D01*
X72313523Y-39405112D01*
X72306457Y-39391668D01*
X71640811Y-38726021D01*
X71626868Y-38718408D01*
X71625034Y-38718539D01*
X71618420Y-38722790D01*
X70948820Y-39392391D01*
X70942393Y-39404161D01*
X70951687Y-39416175D01*
X70992088Y-39444464D01*
X71001584Y-39449947D01*
X71129359Y-39509529D01*
X71182644Y-39556446D01*
X71202105Y-39624724D01*
X71181563Y-39692684D01*
X71129359Y-39737919D01*
X71001334Y-39797618D01*
X71001329Y-39797621D01*
X70996347Y-39799944D01*
X70991840Y-39803100D01*
X70991838Y-39803101D01*
X70820473Y-39923092D01*
X70820470Y-39923094D01*
X70815962Y-39926251D01*
X70660251Y-40081962D01*
X70657094Y-40086470D01*
X70657092Y-40086473D01*
X70551156Y-40237766D01*
X70533944Y-40262347D01*
X70531621Y-40267329D01*
X70531618Y-40267334D01*
X70500824Y-40333373D01*
X70440880Y-40461924D01*
X70383885Y-40674629D01*
X70364693Y-40894000D01*
X70380597Y-41075784D01*
X70366608Y-41145387D01*
X70344171Y-41175859D01*
X69805214Y-41714816D01*
X69742902Y-41748842D01*
X69672087Y-41743777D01*
X69615251Y-41701230D01*
X69590440Y-41634710D01*
X69590119Y-41625831D01*
X69588334Y-39588222D01*
X69587257Y-38359475D01*
X70365674Y-38359475D01*
X70383901Y-38567804D01*
X70385804Y-38578599D01*
X70439928Y-38780595D01*
X70443674Y-38790887D01*
X70532054Y-38980417D01*
X70537534Y-38989907D01*
X70566411Y-39031149D01*
X70576887Y-39039523D01*
X70590334Y-39032455D01*
X71255979Y-38366811D01*
X71262356Y-38355132D01*
X71992408Y-38355132D01*
X71992539Y-38356966D01*
X71996790Y-38363580D01*
X72666391Y-39033180D01*
X72678161Y-39039607D01*
X72690176Y-39030311D01*
X72718466Y-38989907D01*
X72723946Y-38980417D01*
X72812326Y-38790887D01*
X72816072Y-38780595D01*
X72870196Y-38578599D01*
X72872099Y-38567804D01*
X72890326Y-38359475D01*
X72890326Y-38348525D01*
X72872099Y-38140196D01*
X72870196Y-38129401D01*
X72816072Y-37927405D01*
X72812326Y-37917113D01*
X72723946Y-37727583D01*
X72718466Y-37718093D01*
X72689589Y-37676851D01*
X72679113Y-37668477D01*
X72665666Y-37675545D01*
X72000021Y-38341189D01*
X71992408Y-38355132D01*
X71262356Y-38355132D01*
X71263592Y-38352868D01*
X71263461Y-38351034D01*
X71259210Y-38344420D01*
X70589609Y-37674820D01*
X70577839Y-37668393D01*
X70565824Y-37677689D01*
X70537534Y-37718093D01*
X70532054Y-37727583D01*
X70443674Y-37917113D01*
X70439928Y-37927405D01*
X70385804Y-38129401D01*
X70383901Y-38140196D01*
X70365674Y-38348525D01*
X70365674Y-38359475D01*
X69587257Y-38359475D01*
X69586331Y-37302887D01*
X70942477Y-37302887D01*
X70949545Y-37316334D01*
X71615189Y-37981979D01*
X71629132Y-37989592D01*
X71630966Y-37989461D01*
X71637580Y-37985210D01*
X72307180Y-37315609D01*
X72313607Y-37303839D01*
X72304313Y-37291825D01*
X72263912Y-37263536D01*
X72254416Y-37258053D01*
X72064887Y-37169674D01*
X72054595Y-37165928D01*
X71852599Y-37111804D01*
X71841804Y-37109901D01*
X71633475Y-37091674D01*
X71622525Y-37091674D01*
X71414196Y-37109901D01*
X71403401Y-37111804D01*
X71201405Y-37165928D01*
X71191113Y-37169674D01*
X71001583Y-37258054D01*
X70992093Y-37263534D01*
X70950851Y-37292411D01*
X70942477Y-37302887D01*
X69586331Y-37302887D01*
X69585236Y-36053126D01*
X74117071Y-36053126D01*
X74121475Y-36068124D01*
X74122865Y-36069329D01*
X74130548Y-36071000D01*
X74827885Y-36071000D01*
X74843124Y-36066525D01*
X74844329Y-36065135D01*
X74846000Y-36057452D01*
X74846000Y-36052885D01*
X75354000Y-36052885D01*
X75358475Y-36068124D01*
X75359865Y-36069329D01*
X75367548Y-36071000D01*
X76064885Y-36071000D01*
X76080124Y-36066525D01*
X76081329Y-36065135D01*
X76083000Y-36057452D01*
X76083000Y-36054562D01*
X76082663Y-36048047D01*
X76073106Y-35955943D01*
X76070212Y-35942544D01*
X76020619Y-35793893D01*
X76014445Y-35780714D01*
X75932212Y-35647827D01*
X75923176Y-35636426D01*
X75812571Y-35526014D01*
X75801160Y-35517002D01*
X75668120Y-35434996D01*
X75654939Y-35428849D01*
X75506186Y-35379509D01*
X75492810Y-35376642D01*
X75401903Y-35367328D01*
X75395486Y-35367000D01*
X75372115Y-35367000D01*
X75356876Y-35371475D01*
X75355671Y-35372865D01*
X75354000Y-35380548D01*
X75354000Y-36052885D01*
X74846000Y-36052885D01*
X74846000Y-35385115D01*
X74841525Y-35369876D01*
X74840135Y-35368671D01*
X74832452Y-35367000D01*
X74804562Y-35367000D01*
X74798047Y-35367337D01*
X74705943Y-35376894D01*
X74692544Y-35379788D01*
X74543893Y-35429381D01*
X74530714Y-35435555D01*
X74397827Y-35517788D01*
X74386426Y-35526824D01*
X74276014Y-35637429D01*
X74267002Y-35648840D01*
X74184996Y-35781880D01*
X74178849Y-35795061D01*
X74129509Y-35943814D01*
X74126642Y-35957190D01*
X74117328Y-36048097D01*
X74117071Y-36053126D01*
X69585236Y-36053126D01*
X69583556Y-34134608D01*
X69603498Y-34066472D01*
X69657113Y-34019932D01*
X69709556Y-34008500D01*
X78491377Y-34008500D01*
X78492148Y-34008502D01*
X78569721Y-34008976D01*
X78598152Y-34000850D01*
X78614915Y-33997272D01*
X78615753Y-33997152D01*
X78644187Y-33993080D01*
X78667564Y-33982451D01*
X78685087Y-33976004D01*
X78709771Y-33968949D01*
X78717365Y-33964157D01*
X78717368Y-33964156D01*
X78734780Y-33953170D01*
X78749865Y-33945030D01*
X78776782Y-33932792D01*
X78796235Y-33916030D01*
X78811239Y-33904927D01*
X78832958Y-33891224D01*
X78838897Y-33884499D01*
X78838901Y-33884496D01*
X78852532Y-33869062D01*
X78864724Y-33857018D01*
X78880327Y-33843573D01*
X78880329Y-33843570D01*
X78887127Y-33837713D01*
X78901094Y-33816165D01*
X78912385Y-33801291D01*
X78923431Y-33788783D01*
X78923432Y-33788782D01*
X78929378Y-33782049D01*
X78941943Y-33755287D01*
X78950263Y-33740309D01*
X78961471Y-33723017D01*
X78961473Y-33723012D01*
X78966352Y-33715485D01*
X78968922Y-33706892D01*
X78968924Y-33706887D01*
X78973711Y-33690880D01*
X78980372Y-33673436D01*
X78987467Y-33658324D01*
X78987468Y-33658322D01*
X78991281Y-33650200D01*
X78995830Y-33620983D01*
X78999613Y-33604268D01*
X79005515Y-33584534D01*
X79005516Y-33584528D01*
X79008086Y-33575934D01*
X79008296Y-33541494D01*
X79008329Y-33540711D01*
X79008500Y-33539614D01*
X79008500Y-33508623D01*
X79008502Y-33507853D01*
X79008952Y-33434215D01*
X79008952Y-33434214D01*
X79008976Y-33430279D01*
X79008592Y-33428935D01*
X79008500Y-33427590D01*
X79008500Y-32169000D01*
X79028502Y-32100879D01*
X79082158Y-32054386D01*
X79134500Y-32043000D01*
X79865500Y-32043000D01*
X79933621Y-32063002D01*
G37*
%TD.AperFunction*%
%TA.AperFunction,Conductor*%
G36*
X86949121Y-40414502D02*
G01*
X86995614Y-40468158D01*
X87007000Y-40520500D01*
X87007000Y-41165885D01*
X87011475Y-41181124D01*
X87012865Y-41182329D01*
X87020548Y-41184000D01*
X87986743Y-41184000D01*
X88000274Y-41180027D01*
X88001409Y-41172129D01*
X87974252Y-41078653D01*
X87974455Y-41007656D01*
X88013009Y-40948040D01*
X88077674Y-40918732D01*
X88095249Y-40917500D01*
X88473761Y-40917500D01*
X88541882Y-40937502D01*
X88588375Y-40991158D01*
X88598479Y-41061432D01*
X88568985Y-41126012D01*
X88562856Y-41132595D01*
X88048356Y-41647095D01*
X87986044Y-41681121D01*
X87959261Y-41684000D01*
X87905095Y-41684000D01*
X87836974Y-41663998D01*
X87816000Y-41647095D01*
X87773363Y-41604458D01*
X87766547Y-41600427D01*
X87766543Y-41600424D01*
X87642414Y-41527016D01*
X87642415Y-41527016D01*
X87635593Y-41522982D01*
X87627983Y-41520771D01*
X87488072Y-41480122D01*
X87488069Y-41480121D01*
X87481889Y-41478326D01*
X87469238Y-41477330D01*
X87448438Y-41475693D01*
X87448425Y-41475692D01*
X87445979Y-41475500D01*
X86757418Y-41475500D01*
X86068022Y-41475501D01*
X86061501Y-41476014D01*
X86038526Y-41477821D01*
X86038523Y-41477822D01*
X86032111Y-41478326D01*
X85943264Y-41504139D01*
X85886379Y-41520666D01*
X85878407Y-41522982D01*
X85871585Y-41527016D01*
X85871586Y-41527016D01*
X85747457Y-41600424D01*
X85747453Y-41600427D01*
X85740637Y-41604458D01*
X85735032Y-41610063D01*
X85728771Y-41614920D01*
X85726635Y-41612166D01*
X85678188Y-41638621D01*
X85651405Y-41641500D01*
X84859208Y-41641500D01*
X84816941Y-41634199D01*
X84811075Y-41632110D01*
X84778481Y-41620504D01*
X84675189Y-41583723D01*
X84675187Y-41583722D01*
X84668555Y-41581361D01*
X84661569Y-41580528D01*
X84661565Y-41580527D01*
X84530094Y-41564851D01*
X84505153Y-41561877D01*
X84498150Y-41562613D01*
X84498149Y-41562613D01*
X84454935Y-41567155D01*
X84341495Y-41579078D01*
X84334827Y-41581348D01*
X84192382Y-41629840D01*
X84192379Y-41629841D01*
X84185715Y-41632110D01*
X84045555Y-41718337D01*
X83927982Y-41833473D01*
X83838838Y-41971797D01*
X83836427Y-41978420D01*
X83836426Y-41978423D01*
X83784966Y-42119809D01*
X83784965Y-42119814D01*
X83782556Y-42126432D01*
X83761931Y-42289694D01*
X83777989Y-42453468D01*
X83829932Y-42609615D01*
X83835697Y-42619134D01*
X83898303Y-42722507D01*
X83915179Y-42750373D01*
X83920070Y-42755438D01*
X83920071Y-42755439D01*
X83965928Y-42802925D01*
X84029491Y-42868747D01*
X84167189Y-42958854D01*
X84321428Y-43016215D01*
X84328409Y-43017146D01*
X84328411Y-43017147D01*
X84477561Y-43037048D01*
X84477565Y-43037048D01*
X84484542Y-43037979D01*
X84491553Y-43037341D01*
X84491557Y-43037341D01*
X84641403Y-43023704D01*
X84641404Y-43023704D01*
X84648424Y-43023065D01*
X84804929Y-42972213D01*
X84809398Y-42969549D01*
X84860500Y-42958500D01*
X85116720Y-42958500D01*
X85184841Y-42978502D01*
X85231334Y-43032158D01*
X85241438Y-43102432D01*
X85211944Y-43167012D01*
X85205815Y-43173595D01*
X84693425Y-43685985D01*
X84631113Y-43720011D01*
X84560298Y-43714946D01*
X84503462Y-43672399D01*
X84490698Y-43651331D01*
X84487998Y-43645695D01*
X84485680Y-43639039D01*
X84431431Y-43552222D01*
X84402209Y-43505458D01*
X84398476Y-43499484D01*
X84319003Y-43419454D01*
X84287486Y-43387716D01*
X84287482Y-43387713D01*
X84282522Y-43382718D01*
X84143580Y-43294542D01*
X84037639Y-43256818D01*
X83995189Y-43241702D01*
X83995187Y-43241701D01*
X83988555Y-43239340D01*
X83981569Y-43238507D01*
X83981565Y-43238506D01*
X83865836Y-43224707D01*
X83825153Y-43219856D01*
X83818150Y-43220592D01*
X83818149Y-43220592D01*
X83795439Y-43222979D01*
X83661495Y-43237057D01*
X83654827Y-43239327D01*
X83512382Y-43287819D01*
X83512379Y-43287820D01*
X83505715Y-43290089D01*
X83439463Y-43330848D01*
X83435108Y-43333527D01*
X83366607Y-43352186D01*
X83298893Y-43330848D01*
X83253464Y-43276288D01*
X83244311Y-43208675D01*
X83252748Y-43148642D01*
X83252749Y-43148632D01*
X83253299Y-43144717D01*
X83253616Y-43122000D01*
X83233397Y-42941745D01*
X83229668Y-42931037D01*
X83176064Y-42777106D01*
X83176062Y-42777103D01*
X83173745Y-42770448D01*
X83134097Y-42706998D01*
X83081359Y-42622598D01*
X83077626Y-42616624D01*
X83065918Y-42604834D01*
X82954778Y-42492915D01*
X82954774Y-42492912D01*
X82949815Y-42487918D01*
X82938697Y-42480862D01*
X82853998Y-42427111D01*
X82796666Y-42390727D01*
X82764137Y-42379144D01*
X82632425Y-42332243D01*
X82632420Y-42332242D01*
X82625790Y-42329881D01*
X82618802Y-42329048D01*
X82618799Y-42329047D01*
X82495698Y-42314368D01*
X82445680Y-42308404D01*
X82438677Y-42309140D01*
X82438676Y-42309140D01*
X82272288Y-42326628D01*
X82272286Y-42326629D01*
X82265288Y-42327364D01*
X82093579Y-42385818D01*
X82037198Y-42420504D01*
X81962838Y-42466251D01*
X81939088Y-42480862D01*
X81934058Y-42485788D01*
X81934050Y-42485794D01*
X81901138Y-42518024D01*
X81838473Y-42551394D01*
X81812981Y-42554000D01*
X81547000Y-42554000D01*
X81478879Y-42533998D01*
X81432386Y-42480342D01*
X81421000Y-42428000D01*
X81421000Y-42172000D01*
X81441002Y-42103879D01*
X81494658Y-42057386D01*
X81547000Y-42046000D01*
X82614885Y-42046000D01*
X82630124Y-42041525D01*
X82631329Y-42040135D01*
X82633000Y-42032452D01*
X82633000Y-42004562D01*
X82632663Y-41998047D01*
X82623106Y-41905943D01*
X82620212Y-41892544D01*
X82570619Y-41743893D01*
X82564445Y-41730714D01*
X82482212Y-41597827D01*
X82473176Y-41586426D01*
X82362571Y-41476014D01*
X82351160Y-41467002D01*
X82218120Y-41384996D01*
X82204939Y-41378849D01*
X82092968Y-41341709D01*
X82034608Y-41301278D01*
X82007372Y-41235713D01*
X82007373Y-41208508D01*
X82008131Y-41201531D01*
X82008500Y-41198134D01*
X82008500Y-40895871D01*
X85512591Y-40895871D01*
X85542508Y-40998847D01*
X85542508Y-41069153D01*
X85514196Y-41166605D01*
X85514236Y-41180705D01*
X85521506Y-41184000D01*
X86488885Y-41184000D01*
X86504124Y-41179525D01*
X86505329Y-41178135D01*
X86507000Y-41170452D01*
X86507000Y-40902115D01*
X86502525Y-40886876D01*
X86501135Y-40885671D01*
X86493452Y-40884000D01*
X85527257Y-40884000D01*
X85513726Y-40887973D01*
X85512591Y-40895871D01*
X82008500Y-40895871D01*
X82008500Y-40520500D01*
X82028502Y-40452379D01*
X82082158Y-40405886D01*
X82134500Y-40394500D01*
X86881000Y-40394500D01*
X86949121Y-40414502D01*
G37*
%TD.AperFunction*%
%TA.AperFunction,Conductor*%
G36*
X112833621Y-34028502D02*
G01*
X112880114Y-34082158D01*
X112891500Y-34134500D01*
X112891500Y-35303408D01*
X112871498Y-35371529D01*
X112817842Y-35418022D01*
X112747568Y-35428126D01*
X112682988Y-35398632D01*
X112654981Y-35363918D01*
X112653764Y-35361696D01*
X112650615Y-35353295D01*
X112563261Y-35236739D01*
X112446705Y-35149385D01*
X112310316Y-35098255D01*
X112248134Y-35091500D01*
X110951866Y-35091500D01*
X110889684Y-35098255D01*
X110753295Y-35149385D01*
X110730689Y-35166327D01*
X110664185Y-35191174D01*
X110655126Y-35191500D01*
X110144874Y-35191500D01*
X110076753Y-35171498D01*
X110069327Y-35166339D01*
X110046705Y-35149385D01*
X109910316Y-35098255D01*
X109848134Y-35091500D01*
X108551866Y-35091500D01*
X108489684Y-35098255D01*
X108353295Y-35149385D01*
X108236739Y-35236739D01*
X108149385Y-35353295D01*
X108098255Y-35489684D01*
X108091500Y-35551866D01*
X108091500Y-36548134D01*
X108098255Y-36610316D01*
X108109547Y-36640438D01*
X108149222Y-36746270D01*
X108154405Y-36817078D01*
X108120484Y-36879447D01*
X108058229Y-36913576D01*
X108031240Y-36916500D01*
X107662362Y-36916500D01*
X107624683Y-36910734D01*
X107567589Y-36892842D01*
X107505062Y-36873247D01*
X107431635Y-36866500D01*
X107428737Y-36866500D01*
X107099140Y-36866501D01*
X106768366Y-36866501D01*
X106765508Y-36866764D01*
X106765499Y-36866764D01*
X106729996Y-36870026D01*
X106694938Y-36873247D01*
X106688560Y-36875246D01*
X106688559Y-36875246D01*
X106538550Y-36922256D01*
X106538548Y-36922257D01*
X106531301Y-36924528D01*
X106384619Y-37013361D01*
X106263361Y-37134619D01*
X106174528Y-37281301D01*
X106172257Y-37288548D01*
X106172256Y-37288550D01*
X106157791Y-37334708D01*
X106123247Y-37444938D01*
X106116500Y-37518365D01*
X106116501Y-38031634D01*
X106116764Y-38034492D01*
X106116764Y-38034501D01*
X106118109Y-38049140D01*
X106123247Y-38105062D01*
X106125246Y-38111440D01*
X106125246Y-38111441D01*
X106169766Y-38253502D01*
X106174528Y-38268699D01*
X106263361Y-38415381D01*
X106358885Y-38510905D01*
X106392911Y-38573217D01*
X106387846Y-38644032D01*
X106358885Y-38689095D01*
X106263361Y-38784619D01*
X106174528Y-38931301D01*
X106172257Y-38938548D01*
X106172256Y-38938550D01*
X106159136Y-38980417D01*
X106123247Y-39094938D01*
X106116500Y-39168365D01*
X106116501Y-39681634D01*
X106116764Y-39684492D01*
X106116764Y-39684501D01*
X106117410Y-39691532D01*
X106123247Y-39755062D01*
X106171718Y-39909732D01*
X106173003Y-39980715D01*
X106135706Y-40041126D01*
X106071669Y-40071783D01*
X106064488Y-40072737D01*
X106025692Y-40076762D01*
X106025688Y-40076763D01*
X106018834Y-40077474D01*
X106012298Y-40079655D01*
X106012296Y-40079655D01*
X105899376Y-40117328D01*
X105828426Y-40119912D01*
X105767342Y-40083728D01*
X105735518Y-40020264D01*
X105733500Y-39997804D01*
X105733500Y-37878768D01*
X105734027Y-37867585D01*
X105735702Y-37860092D01*
X105733562Y-37792001D01*
X105733500Y-37788043D01*
X105733500Y-37760144D01*
X105732996Y-37756153D01*
X105732063Y-37744311D01*
X105731538Y-37727583D01*
X105730674Y-37700111D01*
X105728462Y-37692497D01*
X105728461Y-37692492D01*
X105725023Y-37680659D01*
X105721012Y-37661295D01*
X105720988Y-37661101D01*
X105718474Y-37641203D01*
X105715557Y-37633836D01*
X105715556Y-37633831D01*
X105702198Y-37600092D01*
X105698354Y-37588865D01*
X105694472Y-37575503D01*
X105686018Y-37546407D01*
X105680529Y-37537125D01*
X105675707Y-37528972D01*
X105667012Y-37511224D01*
X105659552Y-37492383D01*
X105637094Y-37461471D01*
X105633564Y-37456613D01*
X105627048Y-37446693D01*
X105608580Y-37415465D01*
X105608578Y-37415462D01*
X105604542Y-37408638D01*
X105590218Y-37394314D01*
X105577383Y-37379287D01*
X105565472Y-37362893D01*
X105531403Y-37334708D01*
X105522625Y-37326720D01*
X105403648Y-37207744D01*
X105396112Y-37199462D01*
X105392000Y-37192982D01*
X105342347Y-37146355D01*
X105339506Y-37143601D01*
X105319770Y-37123865D01*
X105316573Y-37121385D01*
X105307551Y-37113680D01*
X105303393Y-37109775D01*
X105275321Y-37083414D01*
X105268375Y-37079595D01*
X105268372Y-37079593D01*
X105257566Y-37073652D01*
X105241047Y-37062801D01*
X105240583Y-37062441D01*
X105225041Y-37050386D01*
X105217772Y-37047241D01*
X105217768Y-37047238D01*
X105184463Y-37032826D01*
X105173813Y-37027609D01*
X105135060Y-37006305D01*
X105115437Y-37001267D01*
X105096734Y-36994863D01*
X105085420Y-36989967D01*
X105085419Y-36989967D01*
X105078145Y-36986819D01*
X105070322Y-36985580D01*
X105070312Y-36985577D01*
X105034476Y-36979901D01*
X105022856Y-36977495D01*
X104987711Y-36968472D01*
X104987710Y-36968472D01*
X104980030Y-36966500D01*
X104959776Y-36966500D01*
X104940065Y-36964949D01*
X104938967Y-36964775D01*
X104920057Y-36961780D01*
X104888374Y-36964775D01*
X104876039Y-36965941D01*
X104864181Y-36966500D01*
X102696804Y-36966500D01*
X102628683Y-36946498D01*
X102582190Y-36892842D01*
X102572086Y-36822568D01*
X102601580Y-36757988D01*
X102660596Y-36719814D01*
X102844430Y-36664661D01*
X102844435Y-36664659D01*
X102849385Y-36663174D01*
X103049995Y-36564896D01*
X103231861Y-36435173D01*
X103390097Y-36277489D01*
X103401632Y-36261437D01*
X103517436Y-36100277D01*
X103520454Y-36096077D01*
X103535060Y-36066525D01*
X103617137Y-35900453D01*
X103617138Y-35900451D01*
X103619431Y-35895811D01*
X103684371Y-35682069D01*
X103713530Y-35460590D01*
X103714142Y-35435555D01*
X103715075Y-35397365D01*
X103715075Y-35397361D01*
X103715157Y-35394000D01*
X103696853Y-35171361D01*
X103642432Y-34954702D01*
X103553355Y-34749840D01*
X103432015Y-34562277D01*
X103281671Y-34397051D01*
X103277620Y-34393852D01*
X103277616Y-34393848D01*
X103110415Y-34261800D01*
X103110411Y-34261798D01*
X103106360Y-34258598D01*
X103081381Y-34244809D01*
X103031410Y-34194376D01*
X103016638Y-34124934D01*
X103041754Y-34058528D01*
X103098785Y-34016243D01*
X103142274Y-34008500D01*
X112765500Y-34008500D01*
X112833621Y-34028502D01*
G37*
%TD.AperFunction*%
%TA.AperFunction,Conductor*%
G36*
X87963882Y-37328502D02*
G01*
X87984856Y-37345405D01*
X88354595Y-37715144D01*
X88388621Y-37777456D01*
X88391500Y-37804239D01*
X88391500Y-37874500D01*
X88371498Y-37942621D01*
X88317842Y-37989114D01*
X88265500Y-38000500D01*
X87959157Y-38000501D01*
X87943022Y-38000501D01*
X87935234Y-38001114D01*
X87913526Y-38002821D01*
X87913523Y-38002822D01*
X87907111Y-38003326D01*
X87753407Y-38047982D01*
X87746589Y-38052014D01*
X87746587Y-38052015D01*
X87709082Y-38074195D01*
X87640265Y-38091654D01*
X87602681Y-38084441D01*
X87561790Y-38069881D01*
X87554798Y-38069047D01*
X87554797Y-38069047D01*
X87411962Y-38052015D01*
X87381680Y-38048404D01*
X87374677Y-38049140D01*
X87374675Y-38049140D01*
X87261350Y-38061051D01*
X87191512Y-38048279D01*
X87172282Y-38036022D01*
X87168702Y-38032448D01*
X87049311Y-37958854D01*
X87029331Y-37946538D01*
X87029329Y-37946537D01*
X87023101Y-37942698D01*
X86860757Y-37888851D01*
X86853920Y-37888151D01*
X86853918Y-37888150D01*
X86812599Y-37883917D01*
X86759732Y-37878500D01*
X86212268Y-37878500D01*
X86209022Y-37878837D01*
X86209018Y-37878837D01*
X86179730Y-37881876D01*
X86109981Y-37889113D01*
X86101963Y-37891788D01*
X85954676Y-37940927D01*
X85954674Y-37940928D01*
X85947732Y-37943244D01*
X85941508Y-37947096D01*
X85941507Y-37947096D01*
X85850640Y-38003326D01*
X85802287Y-38033248D01*
X85797114Y-38038430D01*
X85791377Y-38042977D01*
X85789945Y-38041170D01*
X85737425Y-38069902D01*
X85666605Y-38064892D01*
X85630147Y-38041501D01*
X85629317Y-38042552D01*
X85612160Y-38029002D01*
X85479120Y-37946996D01*
X85465939Y-37940849D01*
X85317186Y-37891509D01*
X85303810Y-37888642D01*
X85212903Y-37879328D01*
X85207874Y-37879071D01*
X85192876Y-37883475D01*
X85191671Y-37884865D01*
X85190000Y-37892548D01*
X85190000Y-38990000D01*
X85169998Y-39058121D01*
X85116342Y-39104614D01*
X85064000Y-39116000D01*
X83996115Y-39116000D01*
X83980876Y-39120475D01*
X83969146Y-39134012D01*
X83909420Y-39172396D01*
X83873921Y-39177500D01*
X83437038Y-39177500D01*
X83368917Y-39157498D01*
X83322424Y-39103842D01*
X83318047Y-39092937D01*
X83271863Y-38960316D01*
X83265680Y-38942560D01*
X83227646Y-38881693D01*
X83208500Y-38814923D01*
X83208500Y-38589885D01*
X83978000Y-38589885D01*
X83982475Y-38605124D01*
X83983865Y-38606329D01*
X83991548Y-38608000D01*
X84663885Y-38608000D01*
X84679124Y-38603525D01*
X84680329Y-38602135D01*
X84682000Y-38594452D01*
X84682000Y-37897115D01*
X84677525Y-37881876D01*
X84676135Y-37880671D01*
X84668452Y-37879000D01*
X84665562Y-37879000D01*
X84659047Y-37879337D01*
X84566943Y-37888894D01*
X84553544Y-37891788D01*
X84404893Y-37941381D01*
X84391714Y-37947555D01*
X84258827Y-38029788D01*
X84247426Y-38038824D01*
X84137014Y-38149429D01*
X84128002Y-38160840D01*
X84045996Y-38293880D01*
X84039849Y-38307061D01*
X83990509Y-38455814D01*
X83987642Y-38469190D01*
X83978328Y-38560097D01*
X83978000Y-38566514D01*
X83978000Y-38589885D01*
X83208500Y-38589885D01*
X83208500Y-37672213D01*
X83229552Y-37602485D01*
X83231142Y-37600092D01*
X83256515Y-37561903D01*
X83267827Y-37532125D01*
X83312449Y-37414656D01*
X83312450Y-37414652D01*
X83314951Y-37408068D01*
X83315715Y-37402633D01*
X83351717Y-37342156D01*
X83415250Y-37310470D01*
X83437441Y-37308500D01*
X87895761Y-37308500D01*
X87963882Y-37328502D01*
G37*
%TD.AperFunction*%
%TA.AperFunction,Conductor*%
G36*
X93374748Y-34872501D02*
G01*
X93421241Y-34926157D01*
X93431345Y-34996431D01*
X93428044Y-35012171D01*
X93392990Y-35138570D01*
X93369252Y-35360695D01*
X93369549Y-35365848D01*
X93369549Y-35365851D01*
X93375012Y-35460590D01*
X93382111Y-35583715D01*
X93383248Y-35588761D01*
X93383249Y-35588767D01*
X93393990Y-35636426D01*
X93431223Y-35801639D01*
X93515267Y-36008616D01*
X93552472Y-36069329D01*
X93596793Y-36141655D01*
X93615331Y-36210189D01*
X93593874Y-36277866D01*
X93539235Y-36323199D01*
X93489360Y-36333490D01*
X92688940Y-36333490D01*
X92620819Y-36313488D01*
X92599845Y-36296585D01*
X92523955Y-36220695D01*
X92489929Y-36158383D01*
X92488769Y-36151326D01*
X92488182Y-36148743D01*
X92487397Y-36141745D01*
X92454768Y-36048047D01*
X92430064Y-35977106D01*
X92430062Y-35977103D01*
X92427745Y-35970448D01*
X92381107Y-35895811D01*
X92335359Y-35822598D01*
X92331626Y-35816624D01*
X92316745Y-35801639D01*
X92208778Y-35692915D01*
X92208774Y-35692912D01*
X92203815Y-35687918D01*
X92194599Y-35682069D01*
X92122676Y-35636426D01*
X92050666Y-35590727D01*
X92021463Y-35580328D01*
X91886425Y-35532243D01*
X91886420Y-35532242D01*
X91879790Y-35529881D01*
X91872802Y-35529048D01*
X91872799Y-35529047D01*
X91749698Y-35514368D01*
X91699680Y-35508404D01*
X91692677Y-35509140D01*
X91692676Y-35509140D01*
X91526288Y-35526628D01*
X91526286Y-35526629D01*
X91519288Y-35527364D01*
X91347579Y-35585818D01*
X91193088Y-35680862D01*
X91191665Y-35678549D01*
X91137160Y-35700162D01*
X91067491Y-35686497D01*
X91016269Y-35637335D01*
X90999758Y-35568285D01*
X91000673Y-35558247D01*
X91013093Y-35463908D01*
X91013530Y-35460590D01*
X91014142Y-35435555D01*
X91015075Y-35397365D01*
X91015075Y-35397361D01*
X91015157Y-35394000D01*
X90996853Y-35171361D01*
X90995592Y-35166339D01*
X90956120Y-35009194D01*
X90958924Y-34938253D01*
X90999637Y-34880090D01*
X91065333Y-34853171D01*
X91078324Y-34852499D01*
X93306627Y-34852499D01*
X93374748Y-34872501D01*
G37*
%TD.AperFunction*%
%TA.AperFunction,Conductor*%
G36*
X101318121Y-32063002D02*
G01*
X101364614Y-32116658D01*
X101376000Y-32169000D01*
X101376000Y-33411370D01*
X101355998Y-33479491D01*
X101302342Y-33525984D01*
X101236969Y-33535956D01*
X101235188Y-33535499D01*
X101213741Y-33535499D01*
X101194031Y-33533948D01*
X101180677Y-33531833D01*
X101172848Y-33530593D01*
X101126859Y-33534940D01*
X101115004Y-33535499D01*
X100519000Y-33535499D01*
X100450879Y-33515497D01*
X100404386Y-33461841D01*
X100393000Y-33409499D01*
X100393000Y-32169000D01*
X100413002Y-32100879D01*
X100466658Y-32054386D01*
X100519000Y-32043000D01*
X101250000Y-32043000D01*
X101318121Y-32063002D01*
G37*
%TD.AperFunction*%
%TD*%
M02*
