%TF.GenerationSoftware,KiCad,Pcbnew,6.0.6-1.fc35*%
%TF.CreationDate,2022-07-26T21:01:35+02:00*%
%TF.ProjectId,Nixiewatch,4e697869-6577-4617-9463-682e6b696361,rev?*%
%TF.SameCoordinates,Original*%
%TF.FileFunction,Legend,Bot*%
%TF.FilePolarity,Positive*%
%FSLAX46Y46*%
G04 Gerber Fmt 4.6, Leading zero omitted, Abs format (unit mm)*
G04 Created by KiCad (PCBNEW 6.0.6-1.fc35) date 2022-07-26 21:01:35*
%MOMM*%
%LPD*%
G01*
G04 APERTURE LIST*
%ADD10C,0.150000*%
%ADD11C,0.120000*%
G04 APERTURE END LIST*
D10*
X150271428Y-65052380D02*
X150271428Y-65766666D01*
X150319047Y-65909523D01*
X150414285Y-66004761D01*
X150557142Y-66052380D01*
X150652380Y-66052380D01*
X149366666Y-65385714D02*
X149366666Y-66052380D01*
X149795238Y-65385714D02*
X149795238Y-65909523D01*
X149747619Y-66004761D01*
X149652380Y-66052380D01*
X149509523Y-66052380D01*
X149414285Y-66004761D01*
X149366666Y-65957142D01*
X148938095Y-66004761D02*
X148842857Y-66052380D01*
X148652380Y-66052380D01*
X148557142Y-66004761D01*
X148509523Y-65909523D01*
X148509523Y-65861904D01*
X148557142Y-65766666D01*
X148652380Y-65719047D01*
X148795238Y-65719047D01*
X148890476Y-65671428D01*
X148938095Y-65576190D01*
X148938095Y-65528571D01*
X148890476Y-65433333D01*
X148795238Y-65385714D01*
X148652380Y-65385714D01*
X148557142Y-65433333D01*
X148223809Y-65385714D02*
X147842857Y-65385714D01*
X148080952Y-65052380D02*
X148080952Y-65909523D01*
X148033333Y-66004761D01*
X147938095Y-66052380D01*
X147842857Y-66052380D01*
X147080952Y-66052380D02*
X147080952Y-65528571D01*
X147128571Y-65433333D01*
X147223809Y-65385714D01*
X147414285Y-65385714D01*
X147509523Y-65433333D01*
X147080952Y-66004761D02*
X147176190Y-66052380D01*
X147414285Y-66052380D01*
X147509523Y-66004761D01*
X147557142Y-65909523D01*
X147557142Y-65814285D01*
X147509523Y-65719047D01*
X147414285Y-65671428D01*
X147176190Y-65671428D01*
X147080952Y-65623809D01*
X146604761Y-65385714D02*
X146604761Y-66052380D01*
X146604761Y-65480952D02*
X146557142Y-65433333D01*
X146461904Y-65385714D01*
X146319047Y-65385714D01*
X146223809Y-65433333D01*
X146176190Y-65528571D01*
X146176190Y-66052380D01*
X145557142Y-66052380D02*
X145652380Y-66004761D01*
X145700000Y-65957142D01*
X145747619Y-65861904D01*
X145747619Y-65576190D01*
X145700000Y-65480952D01*
X145652380Y-65433333D01*
X145557142Y-65385714D01*
X145414285Y-65385714D01*
X145319047Y-65433333D01*
X145271428Y-65480952D01*
X145223809Y-65576190D01*
X145223809Y-65861904D01*
X145271428Y-65957142D01*
X145319047Y-66004761D01*
X145414285Y-66052380D01*
X145557142Y-66052380D01*
X144938095Y-65385714D02*
X144557142Y-65385714D01*
X144795238Y-65052380D02*
X144795238Y-65909523D01*
X144747619Y-66004761D01*
X144652380Y-66052380D01*
X144557142Y-66052380D01*
X144223809Y-66052380D02*
X144223809Y-65052380D01*
X143795238Y-66052380D02*
X143795238Y-65528571D01*
X143842857Y-65433333D01*
X143938095Y-65385714D01*
X144080952Y-65385714D01*
X144176190Y-65433333D01*
X144223809Y-65480952D01*
X142938095Y-66004761D02*
X143033333Y-66052380D01*
X143223809Y-66052380D01*
X143319047Y-66004761D01*
X143366666Y-65909523D01*
X143366666Y-65528571D01*
X143319047Y-65433333D01*
X143223809Y-65385714D01*
X143033333Y-65385714D01*
X142938095Y-65433333D01*
X142890476Y-65528571D01*
X142890476Y-65623809D01*
X143366666Y-65719047D01*
X142461904Y-66052380D02*
X142461904Y-65385714D01*
X142461904Y-65576190D02*
X142414285Y-65480952D01*
X142366666Y-65433333D01*
X142271428Y-65385714D01*
X142176190Y-65385714D01*
X141461904Y-66004761D02*
X141557142Y-66052380D01*
X141747619Y-66052380D01*
X141842857Y-66004761D01*
X141890476Y-65909523D01*
X141890476Y-65528571D01*
X141842857Y-65433333D01*
X141747619Y-65385714D01*
X141557142Y-65385714D01*
X141461904Y-65433333D01*
X141414285Y-65528571D01*
X141414285Y-65623809D01*
X141890476Y-65719047D01*
X140842857Y-66052380D02*
X140938095Y-66004761D01*
X140985714Y-65909523D01*
X140985714Y-65052380D01*
X140080952Y-66004761D02*
X140176190Y-66052380D01*
X140366666Y-66052380D01*
X140461904Y-66004761D01*
X140509523Y-65909523D01*
X140509523Y-65528571D01*
X140461904Y-65433333D01*
X140366666Y-65385714D01*
X140176190Y-65385714D01*
X140080952Y-65433333D01*
X140033333Y-65528571D01*
X140033333Y-65623809D01*
X140509523Y-65719047D01*
X139176190Y-66004761D02*
X139271428Y-66052380D01*
X139461904Y-66052380D01*
X139557142Y-66004761D01*
X139604761Y-65957142D01*
X139652380Y-65861904D01*
X139652380Y-65576190D01*
X139604761Y-65480952D01*
X139557142Y-65433333D01*
X139461904Y-65385714D01*
X139271428Y-65385714D01*
X139176190Y-65433333D01*
X138890476Y-65385714D02*
X138509523Y-65385714D01*
X138747619Y-65052380D02*
X138747619Y-65909523D01*
X138700000Y-66004761D01*
X138604761Y-66052380D01*
X138509523Y-66052380D01*
X138176190Y-66052380D02*
X138176190Y-65385714D01*
X138176190Y-65576190D02*
X138128571Y-65480952D01*
X138080952Y-65433333D01*
X137985714Y-65385714D01*
X137890476Y-65385714D01*
X137414285Y-66052380D02*
X137509523Y-66004761D01*
X137557142Y-65957142D01*
X137604761Y-65861904D01*
X137604761Y-65576190D01*
X137557142Y-65480952D01*
X137509523Y-65433333D01*
X137414285Y-65385714D01*
X137271428Y-65385714D01*
X137176190Y-65433333D01*
X137128571Y-65480952D01*
X137080952Y-65576190D01*
X137080952Y-65861904D01*
X137128571Y-65957142D01*
X137176190Y-66004761D01*
X137271428Y-66052380D01*
X137414285Y-66052380D01*
X136652380Y-65385714D02*
X136652380Y-66052380D01*
X136652380Y-65480952D02*
X136604761Y-65433333D01*
X136509523Y-65385714D01*
X136366666Y-65385714D01*
X136271428Y-65433333D01*
X136223809Y-65528571D01*
X136223809Y-66052380D01*
X135747619Y-66052380D02*
X135747619Y-65385714D01*
X135747619Y-65052380D02*
X135795238Y-65100000D01*
X135747619Y-65147619D01*
X135700000Y-65100000D01*
X135747619Y-65052380D01*
X135747619Y-65147619D01*
X134842857Y-66004761D02*
X134938095Y-66052380D01*
X135128571Y-66052380D01*
X135223809Y-66004761D01*
X135271428Y-65957142D01*
X135319047Y-65861904D01*
X135319047Y-65576190D01*
X135271428Y-65480952D01*
X135223809Y-65433333D01*
X135128571Y-65385714D01*
X134938095Y-65385714D01*
X134842857Y-65433333D01*
X134461904Y-66004761D02*
X134366666Y-66052380D01*
X134176190Y-66052380D01*
X134080952Y-66004761D01*
X134033333Y-65909523D01*
X134033333Y-65861904D01*
X134080952Y-65766666D01*
X134176190Y-65719047D01*
X134319047Y-65719047D01*
X134414285Y-65671428D01*
X134461904Y-65576190D01*
X134461904Y-65528571D01*
X134414285Y-65433333D01*
X134319047Y-65385714D01*
X134176190Y-65385714D01*
X134080952Y-65433333D01*
X133604761Y-66052380D02*
X133604761Y-65052380D01*
X133604761Y-65433333D02*
X133509523Y-65385714D01*
X133319047Y-65385714D01*
X133223809Y-65433333D01*
X133176190Y-65480952D01*
X133128571Y-65576190D01*
X133128571Y-65861904D01*
X133176190Y-65957142D01*
X133223809Y-66004761D01*
X133319047Y-66052380D01*
X133509523Y-66052380D01*
X133604761Y-66004761D01*
X132557142Y-66052380D02*
X132652380Y-66004761D01*
X132700000Y-65909523D01*
X132700000Y-65052380D01*
X132033333Y-66052380D02*
X132128571Y-66004761D01*
X132176190Y-65957142D01*
X132223809Y-65861904D01*
X132223809Y-65576190D01*
X132176190Y-65480952D01*
X132128571Y-65433333D01*
X132033333Y-65385714D01*
X131890476Y-65385714D01*
X131795238Y-65433333D01*
X131747619Y-65480952D01*
X131700000Y-65576190D01*
X131700000Y-65861904D01*
X131747619Y-65957142D01*
X131795238Y-66004761D01*
X131890476Y-66052380D01*
X132033333Y-66052380D01*
X130842857Y-65385714D02*
X130842857Y-66195238D01*
X130890476Y-66290476D01*
X130938095Y-66338095D01*
X131033333Y-66385714D01*
X131176190Y-66385714D01*
X131271428Y-66338095D01*
X130842857Y-66004761D02*
X130938095Y-66052380D01*
X131128571Y-66052380D01*
X131223809Y-66004761D01*
X131271428Y-65957142D01*
X131319047Y-65861904D01*
X131319047Y-65576190D01*
X131271428Y-65480952D01*
X131223809Y-65433333D01*
X131128571Y-65385714D01*
X130938095Y-65385714D01*
X130842857Y-65433333D01*
X150390476Y-64552380D02*
X150390476Y-63552380D01*
X150009523Y-63552380D01*
X149914285Y-63600000D01*
X149866666Y-63647619D01*
X149819047Y-63742857D01*
X149819047Y-63885714D01*
X149866666Y-63980952D01*
X149914285Y-64028571D01*
X150009523Y-64076190D01*
X150390476Y-64076190D01*
X148961904Y-64552380D02*
X148961904Y-64028571D01*
X149009523Y-63933333D01*
X149104761Y-63885714D01*
X149295238Y-63885714D01*
X149390476Y-63933333D01*
X148961904Y-64504761D02*
X149057142Y-64552380D01*
X149295238Y-64552380D01*
X149390476Y-64504761D01*
X149438095Y-64409523D01*
X149438095Y-64314285D01*
X149390476Y-64219047D01*
X149295238Y-64171428D01*
X149057142Y-64171428D01*
X148961904Y-64123809D01*
X148485714Y-63885714D02*
X148485714Y-64552380D01*
X148485714Y-63980952D02*
X148438095Y-63933333D01*
X148342857Y-63885714D01*
X148200000Y-63885714D01*
X148104761Y-63933333D01*
X148057142Y-64028571D01*
X148057142Y-64552380D01*
X147152380Y-64552380D02*
X147152380Y-64028571D01*
X147200000Y-63933333D01*
X147295238Y-63885714D01*
X147485714Y-63885714D01*
X147580952Y-63933333D01*
X147152380Y-64504761D02*
X147247619Y-64552380D01*
X147485714Y-64552380D01*
X147580952Y-64504761D01*
X147628571Y-64409523D01*
X147628571Y-64314285D01*
X147580952Y-64219047D01*
X147485714Y-64171428D01*
X147247619Y-64171428D01*
X147152380Y-64123809D01*
X146676190Y-63885714D02*
X146676190Y-64885714D01*
X146676190Y-63933333D02*
X146580952Y-63885714D01*
X146390476Y-63885714D01*
X146295238Y-63933333D01*
X146247619Y-63980952D01*
X146200000Y-64076190D01*
X146200000Y-64361904D01*
X146247619Y-64457142D01*
X146295238Y-64504761D01*
X146390476Y-64552380D01*
X146580952Y-64552380D01*
X146676190Y-64504761D01*
X145628571Y-64552380D02*
X145723809Y-64504761D01*
X145771428Y-64409523D01*
X145771428Y-63552380D01*
X144866666Y-64504761D02*
X144961904Y-64552380D01*
X145152380Y-64552380D01*
X145247619Y-64504761D01*
X145295238Y-64409523D01*
X145295238Y-64028571D01*
X145247619Y-63933333D01*
X145152380Y-63885714D01*
X144961904Y-63885714D01*
X144866666Y-63933333D01*
X144819047Y-64028571D01*
X144819047Y-64123809D01*
X145295238Y-64219047D01*
X144485714Y-64552380D02*
X143961904Y-63885714D01*
X144485714Y-63885714D02*
X143961904Y-64552380D01*
X142914285Y-63885714D02*
X142723809Y-64552380D01*
X142533333Y-64076190D01*
X142342857Y-64552380D01*
X142152380Y-63885714D01*
X141342857Y-64552380D02*
X141342857Y-64028571D01*
X141390476Y-63933333D01*
X141485714Y-63885714D01*
X141676190Y-63885714D01*
X141771428Y-63933333D01*
X141342857Y-64504761D02*
X141438095Y-64552380D01*
X141676190Y-64552380D01*
X141771428Y-64504761D01*
X141819047Y-64409523D01*
X141819047Y-64314285D01*
X141771428Y-64219047D01*
X141676190Y-64171428D01*
X141438095Y-64171428D01*
X141342857Y-64123809D01*
X141009523Y-63885714D02*
X140628571Y-63885714D01*
X140866666Y-63552380D02*
X140866666Y-64409523D01*
X140819047Y-64504761D01*
X140723809Y-64552380D01*
X140628571Y-64552380D01*
X139866666Y-64504761D02*
X139961904Y-64552380D01*
X140152380Y-64552380D01*
X140247619Y-64504761D01*
X140295238Y-64457142D01*
X140342857Y-64361904D01*
X140342857Y-64076190D01*
X140295238Y-63980952D01*
X140247619Y-63933333D01*
X140152380Y-63885714D01*
X139961904Y-63885714D01*
X139866666Y-63933333D01*
X139438095Y-64552380D02*
X139438095Y-63552380D01*
X139009523Y-64552380D02*
X139009523Y-64028571D01*
X139057142Y-63933333D01*
X139152380Y-63885714D01*
X139295238Y-63885714D01*
X139390476Y-63933333D01*
X139438095Y-63980952D01*
%TO.C,TP4*%
X72889904Y-36158380D02*
X72318476Y-36158380D01*
X72604190Y-37158380D02*
X72604190Y-36158380D01*
X71985142Y-37158380D02*
X71985142Y-36158380D01*
X71604190Y-36158380D01*
X71508952Y-36206000D01*
X71461333Y-36253619D01*
X71413714Y-36348857D01*
X71413714Y-36491714D01*
X71461333Y-36586952D01*
X71508952Y-36634571D01*
X71604190Y-36682190D01*
X71985142Y-36682190D01*
X70556571Y-36491714D02*
X70556571Y-37158380D01*
X70794666Y-36110761D02*
X71032761Y-36825047D01*
X70413714Y-36825047D01*
%TO.C,TP3*%
X72889904Y-43778380D02*
X72318476Y-43778380D01*
X72604190Y-44778380D02*
X72604190Y-43778380D01*
X71985142Y-44778380D02*
X71985142Y-43778380D01*
X71604190Y-43778380D01*
X71508952Y-43826000D01*
X71461333Y-43873619D01*
X71413714Y-43968857D01*
X71413714Y-44111714D01*
X71461333Y-44206952D01*
X71508952Y-44254571D01*
X71604190Y-44302190D01*
X71985142Y-44302190D01*
X71080380Y-43778380D02*
X70461333Y-43778380D01*
X70794666Y-44159333D01*
X70651809Y-44159333D01*
X70556571Y-44206952D01*
X70508952Y-44254571D01*
X70461333Y-44349809D01*
X70461333Y-44587904D01*
X70508952Y-44683142D01*
X70556571Y-44730761D01*
X70651809Y-44778380D01*
X70937523Y-44778380D01*
X71032761Y-44730761D01*
X71080380Y-44683142D01*
%TO.C,TP2*%
X72889904Y-41238380D02*
X72318476Y-41238380D01*
X72604190Y-42238380D02*
X72604190Y-41238380D01*
X71985142Y-42238380D02*
X71985142Y-41238380D01*
X71604190Y-41238380D01*
X71508952Y-41286000D01*
X71461333Y-41333619D01*
X71413714Y-41428857D01*
X71413714Y-41571714D01*
X71461333Y-41666952D01*
X71508952Y-41714571D01*
X71604190Y-41762190D01*
X71985142Y-41762190D01*
X71032761Y-41333619D02*
X70985142Y-41286000D01*
X70889904Y-41238380D01*
X70651809Y-41238380D01*
X70556571Y-41286000D01*
X70508952Y-41333619D01*
X70461333Y-41428857D01*
X70461333Y-41524095D01*
X70508952Y-41666952D01*
X71080380Y-42238380D01*
X70461333Y-42238380D01*
%TO.C,TP1*%
X72889904Y-38698380D02*
X72318476Y-38698380D01*
X72604190Y-39698380D02*
X72604190Y-38698380D01*
X71985142Y-39698380D02*
X71985142Y-38698380D01*
X71604190Y-38698380D01*
X71508952Y-38746000D01*
X71461333Y-38793619D01*
X71413714Y-38888857D01*
X71413714Y-39031714D01*
X71461333Y-39126952D01*
X71508952Y-39174571D01*
X71604190Y-39222190D01*
X71985142Y-39222190D01*
X70461333Y-39698380D02*
X71032761Y-39698380D01*
X70747047Y-39698380D02*
X70747047Y-38698380D01*
X70842285Y-38841238D01*
X70937523Y-38936476D01*
X71032761Y-38984095D01*
%TO.C,R6*%
X69922380Y-59908333D02*
X69446190Y-59575000D01*
X69922380Y-59336904D02*
X68922380Y-59336904D01*
X68922380Y-59717857D01*
X68970000Y-59813095D01*
X69017619Y-59860714D01*
X69112857Y-59908333D01*
X69255714Y-59908333D01*
X69350952Y-59860714D01*
X69398571Y-59813095D01*
X69446190Y-59717857D01*
X69446190Y-59336904D01*
X68922380Y-60765476D02*
X68922380Y-60575000D01*
X68970000Y-60479761D01*
X69017619Y-60432142D01*
X69160476Y-60336904D01*
X69350952Y-60289285D01*
X69731904Y-60289285D01*
X69827142Y-60336904D01*
X69874761Y-60384523D01*
X69922380Y-60479761D01*
X69922380Y-60670238D01*
X69874761Y-60765476D01*
X69827142Y-60813095D01*
X69731904Y-60860714D01*
X69493809Y-60860714D01*
X69398571Y-60813095D01*
X69350952Y-60765476D01*
X69303333Y-60670238D01*
X69303333Y-60479761D01*
X69350952Y-60384523D01*
X69398571Y-60336904D01*
X69493809Y-60289285D01*
%TO.C,C8*%
X76237166Y-58827642D02*
X76284785Y-58875261D01*
X76427642Y-58922880D01*
X76522880Y-58922880D01*
X76665738Y-58875261D01*
X76760976Y-58780023D01*
X76808595Y-58684785D01*
X76856214Y-58494309D01*
X76856214Y-58351452D01*
X76808595Y-58160976D01*
X76760976Y-58065738D01*
X76665738Y-57970500D01*
X76522880Y-57922880D01*
X76427642Y-57922880D01*
X76284785Y-57970500D01*
X76237166Y-58018119D01*
X75665738Y-58351452D02*
X75760976Y-58303833D01*
X75808595Y-58256214D01*
X75856214Y-58160976D01*
X75856214Y-58113357D01*
X75808595Y-58018119D01*
X75760976Y-57970500D01*
X75665738Y-57922880D01*
X75475261Y-57922880D01*
X75380023Y-57970500D01*
X75332404Y-58018119D01*
X75284785Y-58113357D01*
X75284785Y-58160976D01*
X75332404Y-58256214D01*
X75380023Y-58303833D01*
X75475261Y-58351452D01*
X75665738Y-58351452D01*
X75760976Y-58399071D01*
X75808595Y-58446690D01*
X75856214Y-58541928D01*
X75856214Y-58732404D01*
X75808595Y-58827642D01*
X75760976Y-58875261D01*
X75665738Y-58922880D01*
X75475261Y-58922880D01*
X75380023Y-58875261D01*
X75332404Y-58827642D01*
X75284785Y-58732404D01*
X75284785Y-58541928D01*
X75332404Y-58446690D01*
X75380023Y-58399071D01*
X75475261Y-58351452D01*
%TO.C,C9*%
X72681166Y-58827642D02*
X72728785Y-58875261D01*
X72871642Y-58922880D01*
X72966880Y-58922880D01*
X73109738Y-58875261D01*
X73204976Y-58780023D01*
X73252595Y-58684785D01*
X73300214Y-58494309D01*
X73300214Y-58351452D01*
X73252595Y-58160976D01*
X73204976Y-58065738D01*
X73109738Y-57970500D01*
X72966880Y-57922880D01*
X72871642Y-57922880D01*
X72728785Y-57970500D01*
X72681166Y-58018119D01*
X72204976Y-58922880D02*
X72014500Y-58922880D01*
X71919261Y-58875261D01*
X71871642Y-58827642D01*
X71776404Y-58684785D01*
X71728785Y-58494309D01*
X71728785Y-58113357D01*
X71776404Y-58018119D01*
X71824023Y-57970500D01*
X71919261Y-57922880D01*
X72109738Y-57922880D01*
X72204976Y-57970500D01*
X72252595Y-58018119D01*
X72300214Y-58113357D01*
X72300214Y-58351452D01*
X72252595Y-58446690D01*
X72204976Y-58494309D01*
X72109738Y-58541928D01*
X71919261Y-58541928D01*
X71824023Y-58494309D01*
X71776404Y-58446690D01*
X71728785Y-58351452D01*
%TO.C,R8*%
X78714880Y-59554833D02*
X78238690Y-59221500D01*
X78714880Y-58983404D02*
X77714880Y-58983404D01*
X77714880Y-59364357D01*
X77762500Y-59459595D01*
X77810119Y-59507214D01*
X77905357Y-59554833D01*
X78048214Y-59554833D01*
X78143452Y-59507214D01*
X78191071Y-59459595D01*
X78238690Y-59364357D01*
X78238690Y-58983404D01*
X78143452Y-60126261D02*
X78095833Y-60031023D01*
X78048214Y-59983404D01*
X77952976Y-59935785D01*
X77905357Y-59935785D01*
X77810119Y-59983404D01*
X77762500Y-60031023D01*
X77714880Y-60126261D01*
X77714880Y-60316738D01*
X77762500Y-60411976D01*
X77810119Y-60459595D01*
X77905357Y-60507214D01*
X77952976Y-60507214D01*
X78048214Y-60459595D01*
X78095833Y-60411976D01*
X78143452Y-60316738D01*
X78143452Y-60126261D01*
X78191071Y-60031023D01*
X78238690Y-59983404D01*
X78333928Y-59935785D01*
X78524404Y-59935785D01*
X78619642Y-59983404D01*
X78667261Y-60031023D01*
X78714880Y-60126261D01*
X78714880Y-60316738D01*
X78667261Y-60411976D01*
X78619642Y-60459595D01*
X78524404Y-60507214D01*
X78333928Y-60507214D01*
X78238690Y-60459595D01*
X78191071Y-60411976D01*
X78143452Y-60316738D01*
%TO.C,U1*%
X74546404Y-62186880D02*
X74546404Y-62996404D01*
X74498785Y-63091642D01*
X74451166Y-63139261D01*
X74355928Y-63186880D01*
X74165452Y-63186880D01*
X74070214Y-63139261D01*
X74022595Y-63091642D01*
X73974976Y-62996404D01*
X73974976Y-62186880D01*
X72974976Y-63186880D02*
X73546404Y-63186880D01*
X73260690Y-63186880D02*
X73260690Y-62186880D01*
X73355928Y-62329738D01*
X73451166Y-62424976D01*
X73546404Y-62472595D01*
%TO.C,C10*%
X97727142Y-55457142D02*
X97774761Y-55409523D01*
X97822380Y-55266666D01*
X97822380Y-55171428D01*
X97774761Y-55028571D01*
X97679523Y-54933333D01*
X97584285Y-54885714D01*
X97393809Y-54838095D01*
X97250952Y-54838095D01*
X97060476Y-54885714D01*
X96965238Y-54933333D01*
X96870000Y-55028571D01*
X96822380Y-55171428D01*
X96822380Y-55266666D01*
X96870000Y-55409523D01*
X96917619Y-55457142D01*
X97822380Y-56409523D02*
X97822380Y-55838095D01*
X97822380Y-56123809D02*
X96822380Y-56123809D01*
X96965238Y-56028571D01*
X97060476Y-55933333D01*
X97108095Y-55838095D01*
X96822380Y-57028571D02*
X96822380Y-57123809D01*
X96870000Y-57219047D01*
X96917619Y-57266666D01*
X97012857Y-57314285D01*
X97203333Y-57361904D01*
X97441428Y-57361904D01*
X97631904Y-57314285D01*
X97727142Y-57266666D01*
X97774761Y-57219047D01*
X97822380Y-57123809D01*
X97822380Y-57028571D01*
X97774761Y-56933333D01*
X97727142Y-56885714D01*
X97631904Y-56838095D01*
X97441428Y-56790476D01*
X97203333Y-56790476D01*
X97012857Y-56838095D01*
X96917619Y-56885714D01*
X96870000Y-56933333D01*
X96822380Y-57028571D01*
%TO.C,C13*%
X105967857Y-55927142D02*
X106015476Y-55974761D01*
X106158333Y-56022380D01*
X106253571Y-56022380D01*
X106396428Y-55974761D01*
X106491666Y-55879523D01*
X106539285Y-55784285D01*
X106586904Y-55593809D01*
X106586904Y-55450952D01*
X106539285Y-55260476D01*
X106491666Y-55165238D01*
X106396428Y-55070000D01*
X106253571Y-55022380D01*
X106158333Y-55022380D01*
X106015476Y-55070000D01*
X105967857Y-55117619D01*
X105015476Y-56022380D02*
X105586904Y-56022380D01*
X105301190Y-56022380D02*
X105301190Y-55022380D01*
X105396428Y-55165238D01*
X105491666Y-55260476D01*
X105586904Y-55308095D01*
X104682142Y-55022380D02*
X104063095Y-55022380D01*
X104396428Y-55403333D01*
X104253571Y-55403333D01*
X104158333Y-55450952D01*
X104110714Y-55498571D01*
X104063095Y-55593809D01*
X104063095Y-55831904D01*
X104110714Y-55927142D01*
X104158333Y-55974761D01*
X104253571Y-56022380D01*
X104539285Y-56022380D01*
X104634523Y-55974761D01*
X104682142Y-55927142D01*
%TO.C,C14*%
X106727142Y-53757142D02*
X106774761Y-53709523D01*
X106822380Y-53566666D01*
X106822380Y-53471428D01*
X106774761Y-53328571D01*
X106679523Y-53233333D01*
X106584285Y-53185714D01*
X106393809Y-53138095D01*
X106250952Y-53138095D01*
X106060476Y-53185714D01*
X105965238Y-53233333D01*
X105870000Y-53328571D01*
X105822380Y-53471428D01*
X105822380Y-53566666D01*
X105870000Y-53709523D01*
X105917619Y-53757142D01*
X106822380Y-54709523D02*
X106822380Y-54138095D01*
X106822380Y-54423809D02*
X105822380Y-54423809D01*
X105965238Y-54328571D01*
X106060476Y-54233333D01*
X106108095Y-54138095D01*
X106155714Y-55566666D02*
X106822380Y-55566666D01*
X105774761Y-55328571D02*
X106489047Y-55090476D01*
X106489047Y-55709523D01*
%TO.C,D5*%
X105238095Y-51752380D02*
X105238095Y-50752380D01*
X105000000Y-50752380D01*
X104857142Y-50800000D01*
X104761904Y-50895238D01*
X104714285Y-50990476D01*
X104666666Y-51180952D01*
X104666666Y-51323809D01*
X104714285Y-51514285D01*
X104761904Y-51609523D01*
X104857142Y-51704761D01*
X105000000Y-51752380D01*
X105238095Y-51752380D01*
X103761904Y-50752380D02*
X104238095Y-50752380D01*
X104285714Y-51228571D01*
X104238095Y-51180952D01*
X104142857Y-51133333D01*
X103904761Y-51133333D01*
X103809523Y-51180952D01*
X103761904Y-51228571D01*
X103714285Y-51323809D01*
X103714285Y-51561904D01*
X103761904Y-51657142D01*
X103809523Y-51704761D01*
X103904761Y-51752380D01*
X104142857Y-51752380D01*
X104238095Y-51704761D01*
X104285714Y-51657142D01*
%TO.C,L2*%
X99766666Y-55652380D02*
X100242857Y-55652380D01*
X100242857Y-54652380D01*
X99480952Y-54747619D02*
X99433333Y-54700000D01*
X99338095Y-54652380D01*
X99100000Y-54652380D01*
X99004761Y-54700000D01*
X98957142Y-54747619D01*
X98909523Y-54842857D01*
X98909523Y-54938095D01*
X98957142Y-55080952D01*
X99528571Y-55652380D01*
X98909523Y-55652380D01*
%TO.C,R10*%
X106042857Y-54422380D02*
X106376190Y-53946190D01*
X106614285Y-54422380D02*
X106614285Y-53422380D01*
X106233333Y-53422380D01*
X106138095Y-53470000D01*
X106090476Y-53517619D01*
X106042857Y-53612857D01*
X106042857Y-53755714D01*
X106090476Y-53850952D01*
X106138095Y-53898571D01*
X106233333Y-53946190D01*
X106614285Y-53946190D01*
X105090476Y-54422380D02*
X105661904Y-54422380D01*
X105376190Y-54422380D02*
X105376190Y-53422380D01*
X105471428Y-53565238D01*
X105566666Y-53660476D01*
X105661904Y-53708095D01*
X104471428Y-53422380D02*
X104376190Y-53422380D01*
X104280952Y-53470000D01*
X104233333Y-53517619D01*
X104185714Y-53612857D01*
X104138095Y-53803333D01*
X104138095Y-54041428D01*
X104185714Y-54231904D01*
X104233333Y-54327142D01*
X104280952Y-54374761D01*
X104376190Y-54422380D01*
X104471428Y-54422380D01*
X104566666Y-54374761D01*
X104614285Y-54327142D01*
X104661904Y-54231904D01*
X104709523Y-54041428D01*
X104709523Y-53803333D01*
X104661904Y-53612857D01*
X104614285Y-53517619D01*
X104566666Y-53470000D01*
X104471428Y-53422380D01*
%TO.C,R11*%
X105967857Y-60482380D02*
X106301190Y-60006190D01*
X106539285Y-60482380D02*
X106539285Y-59482380D01*
X106158333Y-59482380D01*
X106063095Y-59530000D01*
X106015476Y-59577619D01*
X105967857Y-59672857D01*
X105967857Y-59815714D01*
X106015476Y-59910952D01*
X106063095Y-59958571D01*
X106158333Y-60006190D01*
X106539285Y-60006190D01*
X105015476Y-60482380D02*
X105586904Y-60482380D01*
X105301190Y-60482380D02*
X105301190Y-59482380D01*
X105396428Y-59625238D01*
X105491666Y-59720476D01*
X105586904Y-59768095D01*
X104063095Y-60482380D02*
X104634523Y-60482380D01*
X104348809Y-60482380D02*
X104348809Y-59482380D01*
X104444047Y-59625238D01*
X104539285Y-59720476D01*
X104634523Y-59768095D01*
%TO.C,U2*%
X102361904Y-52952380D02*
X102361904Y-53761904D01*
X102314285Y-53857142D01*
X102266666Y-53904761D01*
X102171428Y-53952380D01*
X101980952Y-53952380D01*
X101885714Y-53904761D01*
X101838095Y-53857142D01*
X101790476Y-53761904D01*
X101790476Y-52952380D01*
X101361904Y-53047619D02*
X101314285Y-53000000D01*
X101219047Y-52952380D01*
X100980952Y-52952380D01*
X100885714Y-53000000D01*
X100838095Y-53047619D01*
X100790476Y-53142857D01*
X100790476Y-53238095D01*
X100838095Y-53380952D01*
X101409523Y-53952380D01*
X100790476Y-53952380D01*
%TO.C,J5*%
X91317380Y-53768666D02*
X92031666Y-53768666D01*
X92174523Y-53721047D01*
X92269761Y-53625809D01*
X92317380Y-53482952D01*
X92317380Y-53387714D01*
X91317380Y-54721047D02*
X91317380Y-54244857D01*
X91793571Y-54197238D01*
X91745952Y-54244857D01*
X91698333Y-54340095D01*
X91698333Y-54578190D01*
X91745952Y-54673428D01*
X91793571Y-54721047D01*
X91888809Y-54768666D01*
X92126904Y-54768666D01*
X92222142Y-54721047D01*
X92269761Y-54673428D01*
X92317380Y-54578190D01*
X92317380Y-54340095D01*
X92269761Y-54244857D01*
X92222142Y-54197238D01*
%TO.C,C23*%
X75167142Y-53079142D02*
X75214761Y-53031523D01*
X75262380Y-52888666D01*
X75262380Y-52793428D01*
X75214761Y-52650571D01*
X75119523Y-52555333D01*
X75024285Y-52507714D01*
X74833809Y-52460095D01*
X74690952Y-52460095D01*
X74500476Y-52507714D01*
X74405238Y-52555333D01*
X74310000Y-52650571D01*
X74262380Y-52793428D01*
X74262380Y-52888666D01*
X74310000Y-53031523D01*
X74357619Y-53079142D01*
X74357619Y-53460095D02*
X74310000Y-53507714D01*
X74262380Y-53602952D01*
X74262380Y-53841047D01*
X74310000Y-53936285D01*
X74357619Y-53983904D01*
X74452857Y-54031523D01*
X74548095Y-54031523D01*
X74690952Y-53983904D01*
X75262380Y-53412476D01*
X75262380Y-54031523D01*
X74262380Y-54364857D02*
X74262380Y-54983904D01*
X74643333Y-54650571D01*
X74643333Y-54793428D01*
X74690952Y-54888666D01*
X74738571Y-54936285D01*
X74833809Y-54983904D01*
X75071904Y-54983904D01*
X75167142Y-54936285D01*
X75214761Y-54888666D01*
X75262380Y-54793428D01*
X75262380Y-54507714D01*
X75214761Y-54412476D01*
X75167142Y-54364857D01*
%TO.C,C24*%
X77006857Y-44721142D02*
X77054476Y-44768761D01*
X77197333Y-44816380D01*
X77292571Y-44816380D01*
X77435428Y-44768761D01*
X77530666Y-44673523D01*
X77578285Y-44578285D01*
X77625904Y-44387809D01*
X77625904Y-44244952D01*
X77578285Y-44054476D01*
X77530666Y-43959238D01*
X77435428Y-43864000D01*
X77292571Y-43816380D01*
X77197333Y-43816380D01*
X77054476Y-43864000D01*
X77006857Y-43911619D01*
X76625904Y-43911619D02*
X76578285Y-43864000D01*
X76483047Y-43816380D01*
X76244952Y-43816380D01*
X76149714Y-43864000D01*
X76102095Y-43911619D01*
X76054476Y-44006857D01*
X76054476Y-44102095D01*
X76102095Y-44244952D01*
X76673523Y-44816380D01*
X76054476Y-44816380D01*
X75197333Y-44149714D02*
X75197333Y-44816380D01*
X75435428Y-43768761D02*
X75673523Y-44483047D01*
X75054476Y-44483047D01*
%TO.C,C20*%
X81542857Y-44087142D02*
X81590476Y-44134761D01*
X81733333Y-44182380D01*
X81828571Y-44182380D01*
X81971428Y-44134761D01*
X82066666Y-44039523D01*
X82114285Y-43944285D01*
X82161904Y-43753809D01*
X82161904Y-43610952D01*
X82114285Y-43420476D01*
X82066666Y-43325238D01*
X81971428Y-43230000D01*
X81828571Y-43182380D01*
X81733333Y-43182380D01*
X81590476Y-43230000D01*
X81542857Y-43277619D01*
X81161904Y-43277619D02*
X81114285Y-43230000D01*
X81019047Y-43182380D01*
X80780952Y-43182380D01*
X80685714Y-43230000D01*
X80638095Y-43277619D01*
X80590476Y-43372857D01*
X80590476Y-43468095D01*
X80638095Y-43610952D01*
X81209523Y-44182380D01*
X80590476Y-44182380D01*
X79971428Y-43182380D02*
X79876190Y-43182380D01*
X79780952Y-43230000D01*
X79733333Y-43277619D01*
X79685714Y-43372857D01*
X79638095Y-43563333D01*
X79638095Y-43801428D01*
X79685714Y-43991904D01*
X79733333Y-44087142D01*
X79780952Y-44134761D01*
X79876190Y-44182380D01*
X79971428Y-44182380D01*
X80066666Y-44134761D01*
X80114285Y-44087142D01*
X80161904Y-43991904D01*
X80209523Y-43801428D01*
X80209523Y-43563333D01*
X80161904Y-43372857D01*
X80114285Y-43277619D01*
X80066666Y-43230000D01*
X79971428Y-43182380D01*
%TO.C,C19*%
X76887142Y-36457142D02*
X76934761Y-36409523D01*
X76982380Y-36266666D01*
X76982380Y-36171428D01*
X76934761Y-36028571D01*
X76839523Y-35933333D01*
X76744285Y-35885714D01*
X76553809Y-35838095D01*
X76410952Y-35838095D01*
X76220476Y-35885714D01*
X76125238Y-35933333D01*
X76030000Y-36028571D01*
X75982380Y-36171428D01*
X75982380Y-36266666D01*
X76030000Y-36409523D01*
X76077619Y-36457142D01*
X76982380Y-37409523D02*
X76982380Y-36838095D01*
X76982380Y-37123809D02*
X75982380Y-37123809D01*
X76125238Y-37028571D01*
X76220476Y-36933333D01*
X76268095Y-36838095D01*
X76982380Y-37885714D02*
X76982380Y-38076190D01*
X76934761Y-38171428D01*
X76887142Y-38219047D01*
X76744285Y-38314285D01*
X76553809Y-38361904D01*
X76172857Y-38361904D01*
X76077619Y-38314285D01*
X76030000Y-38266666D01*
X75982380Y-38171428D01*
X75982380Y-37980952D01*
X76030000Y-37885714D01*
X76077619Y-37838095D01*
X76172857Y-37790476D01*
X76410952Y-37790476D01*
X76506190Y-37838095D01*
X76553809Y-37885714D01*
X76601428Y-37980952D01*
X76601428Y-38171428D01*
X76553809Y-38266666D01*
X76506190Y-38314285D01*
X76410952Y-38361904D01*
%TO.C,C21*%
X79355142Y-53533142D02*
X79402761Y-53485523D01*
X79450380Y-53342666D01*
X79450380Y-53247428D01*
X79402761Y-53104571D01*
X79307523Y-53009333D01*
X79212285Y-52961714D01*
X79021809Y-52914095D01*
X78878952Y-52914095D01*
X78688476Y-52961714D01*
X78593238Y-53009333D01*
X78498000Y-53104571D01*
X78450380Y-53247428D01*
X78450380Y-53342666D01*
X78498000Y-53485523D01*
X78545619Y-53533142D01*
X78545619Y-53914095D02*
X78498000Y-53961714D01*
X78450380Y-54056952D01*
X78450380Y-54295047D01*
X78498000Y-54390285D01*
X78545619Y-54437904D01*
X78640857Y-54485523D01*
X78736095Y-54485523D01*
X78878952Y-54437904D01*
X79450380Y-53866476D01*
X79450380Y-54485523D01*
X79450380Y-55437904D02*
X79450380Y-54866476D01*
X79450380Y-55152190D02*
X78450380Y-55152190D01*
X78593238Y-55056952D01*
X78688476Y-54961714D01*
X78736095Y-54866476D01*
%TO.C,C22*%
X77323142Y-53279142D02*
X77370761Y-53231523D01*
X77418380Y-53088666D01*
X77418380Y-52993428D01*
X77370761Y-52850571D01*
X77275523Y-52755333D01*
X77180285Y-52707714D01*
X76989809Y-52660095D01*
X76846952Y-52660095D01*
X76656476Y-52707714D01*
X76561238Y-52755333D01*
X76466000Y-52850571D01*
X76418380Y-52993428D01*
X76418380Y-53088666D01*
X76466000Y-53231523D01*
X76513619Y-53279142D01*
X76513619Y-53660095D02*
X76466000Y-53707714D01*
X76418380Y-53802952D01*
X76418380Y-54041047D01*
X76466000Y-54136285D01*
X76513619Y-54183904D01*
X76608857Y-54231523D01*
X76704095Y-54231523D01*
X76846952Y-54183904D01*
X77418380Y-53612476D01*
X77418380Y-54231523D01*
X76513619Y-54612476D02*
X76466000Y-54660095D01*
X76418380Y-54755333D01*
X76418380Y-54993428D01*
X76466000Y-55088666D01*
X76513619Y-55136285D01*
X76608857Y-55183904D01*
X76704095Y-55183904D01*
X76846952Y-55136285D01*
X77418380Y-54564857D01*
X77418380Y-55183904D01*
%TO.C,D6*%
X98782095Y-43726380D02*
X98782095Y-42726380D01*
X98544000Y-42726380D01*
X98401142Y-42774000D01*
X98305904Y-42869238D01*
X98258285Y-42964476D01*
X98210666Y-43154952D01*
X98210666Y-43297809D01*
X98258285Y-43488285D01*
X98305904Y-43583523D01*
X98401142Y-43678761D01*
X98544000Y-43726380D01*
X98782095Y-43726380D01*
X97353523Y-42726380D02*
X97544000Y-42726380D01*
X97639238Y-42774000D01*
X97686857Y-42821619D01*
X97782095Y-42964476D01*
X97829714Y-43154952D01*
X97829714Y-43535904D01*
X97782095Y-43631142D01*
X97734476Y-43678761D01*
X97639238Y-43726380D01*
X97448761Y-43726380D01*
X97353523Y-43678761D01*
X97305904Y-43631142D01*
X97258285Y-43535904D01*
X97258285Y-43297809D01*
X97305904Y-43202571D01*
X97353523Y-43154952D01*
X97448761Y-43107333D01*
X97639238Y-43107333D01*
X97734476Y-43154952D01*
X97782095Y-43202571D01*
X97829714Y-43297809D01*
%TO.C,R14*%
X100942380Y-46714142D02*
X100466190Y-46380809D01*
X100942380Y-46142714D02*
X99942380Y-46142714D01*
X99942380Y-46523666D01*
X99990000Y-46618904D01*
X100037619Y-46666523D01*
X100132857Y-46714142D01*
X100275714Y-46714142D01*
X100370952Y-46666523D01*
X100418571Y-46618904D01*
X100466190Y-46523666D01*
X100466190Y-46142714D01*
X100942380Y-47666523D02*
X100942380Y-47095095D01*
X100942380Y-47380809D02*
X99942380Y-47380809D01*
X100085238Y-47285571D01*
X100180476Y-47190333D01*
X100228095Y-47095095D01*
X100275714Y-48523666D02*
X100942380Y-48523666D01*
X99894761Y-48285571D02*
X100609047Y-48047476D01*
X100609047Y-48666523D01*
%TO.C,R12*%
X82199857Y-44816380D02*
X82533190Y-44340190D01*
X82771285Y-44816380D02*
X82771285Y-43816380D01*
X82390333Y-43816380D01*
X82295095Y-43864000D01*
X82247476Y-43911619D01*
X82199857Y-44006857D01*
X82199857Y-44149714D01*
X82247476Y-44244952D01*
X82295095Y-44292571D01*
X82390333Y-44340190D01*
X82771285Y-44340190D01*
X81247476Y-44816380D02*
X81818904Y-44816380D01*
X81533190Y-44816380D02*
X81533190Y-43816380D01*
X81628428Y-43959238D01*
X81723666Y-44054476D01*
X81818904Y-44102095D01*
X80866523Y-43911619D02*
X80818904Y-43864000D01*
X80723666Y-43816380D01*
X80485571Y-43816380D01*
X80390333Y-43864000D01*
X80342714Y-43911619D01*
X80295095Y-44006857D01*
X80295095Y-44102095D01*
X80342714Y-44244952D01*
X80914142Y-44816380D01*
X80295095Y-44816380D01*
%TO.C,Y1*%
X79476190Y-42126190D02*
X79476190Y-42602380D01*
X79809523Y-41602380D02*
X79476190Y-42126190D01*
X79142857Y-41602380D01*
X78285714Y-42602380D02*
X78857142Y-42602380D01*
X78571428Y-42602380D02*
X78571428Y-41602380D01*
X78666666Y-41745238D01*
X78761904Y-41840476D01*
X78857142Y-41888095D01*
%TO.C,U5*%
X79411904Y-45427380D02*
X79411904Y-46236904D01*
X79364285Y-46332142D01*
X79316666Y-46379761D01*
X79221428Y-46427380D01*
X79030952Y-46427380D01*
X78935714Y-46379761D01*
X78888095Y-46332142D01*
X78840476Y-46236904D01*
X78840476Y-45427380D01*
X77888095Y-45427380D02*
X78364285Y-45427380D01*
X78411904Y-45903571D01*
X78364285Y-45855952D01*
X78269047Y-45808333D01*
X78030952Y-45808333D01*
X77935714Y-45855952D01*
X77888095Y-45903571D01*
X77840476Y-45998809D01*
X77840476Y-46236904D01*
X77888095Y-46332142D01*
X77935714Y-46379761D01*
X78030952Y-46427380D01*
X78269047Y-46427380D01*
X78364285Y-46379761D01*
X78411904Y-46332142D01*
%TO.C,C15*%
X96908857Y-50047142D02*
X96956476Y-50094761D01*
X97099333Y-50142380D01*
X97194571Y-50142380D01*
X97337428Y-50094761D01*
X97432666Y-49999523D01*
X97480285Y-49904285D01*
X97527904Y-49713809D01*
X97527904Y-49570952D01*
X97480285Y-49380476D01*
X97432666Y-49285238D01*
X97337428Y-49190000D01*
X97194571Y-49142380D01*
X97099333Y-49142380D01*
X96956476Y-49190000D01*
X96908857Y-49237619D01*
X95956476Y-50142380D02*
X96527904Y-50142380D01*
X96242190Y-50142380D02*
X96242190Y-49142380D01*
X96337428Y-49285238D01*
X96432666Y-49380476D01*
X96527904Y-49428095D01*
X95051714Y-49142380D02*
X95527904Y-49142380D01*
X95575523Y-49618571D01*
X95527904Y-49570952D01*
X95432666Y-49523333D01*
X95194571Y-49523333D01*
X95099333Y-49570952D01*
X95051714Y-49618571D01*
X95004095Y-49713809D01*
X95004095Y-49951904D01*
X95051714Y-50047142D01*
X95099333Y-50094761D01*
X95194571Y-50142380D01*
X95432666Y-50142380D01*
X95527904Y-50094761D01*
X95575523Y-50047142D01*
%TO.C,C16*%
X86353857Y-37789142D02*
X86401476Y-37836761D01*
X86544333Y-37884380D01*
X86639571Y-37884380D01*
X86782428Y-37836761D01*
X86877666Y-37741523D01*
X86925285Y-37646285D01*
X86972904Y-37455809D01*
X86972904Y-37312952D01*
X86925285Y-37122476D01*
X86877666Y-37027238D01*
X86782428Y-36932000D01*
X86639571Y-36884380D01*
X86544333Y-36884380D01*
X86401476Y-36932000D01*
X86353857Y-36979619D01*
X85401476Y-37884380D02*
X85972904Y-37884380D01*
X85687190Y-37884380D02*
X85687190Y-36884380D01*
X85782428Y-37027238D01*
X85877666Y-37122476D01*
X85972904Y-37170095D01*
X84544333Y-36884380D02*
X84734809Y-36884380D01*
X84830047Y-36932000D01*
X84877666Y-36979619D01*
X84972904Y-37122476D01*
X85020523Y-37312952D01*
X85020523Y-37693904D01*
X84972904Y-37789142D01*
X84925285Y-37836761D01*
X84830047Y-37884380D01*
X84639571Y-37884380D01*
X84544333Y-37836761D01*
X84496714Y-37789142D01*
X84449095Y-37693904D01*
X84449095Y-37455809D01*
X84496714Y-37360571D01*
X84544333Y-37312952D01*
X84639571Y-37265333D01*
X84830047Y-37265333D01*
X84925285Y-37312952D01*
X84972904Y-37360571D01*
X85020523Y-37455809D01*
%TO.C,U6*%
X84504380Y-42672095D02*
X85313904Y-42672095D01*
X85409142Y-42719714D01*
X85456761Y-42767333D01*
X85504380Y-42862571D01*
X85504380Y-43053047D01*
X85456761Y-43148285D01*
X85409142Y-43195904D01*
X85313904Y-43243523D01*
X84504380Y-43243523D01*
X84504380Y-44148285D02*
X84504380Y-43957809D01*
X84552000Y-43862571D01*
X84599619Y-43814952D01*
X84742476Y-43719714D01*
X84932952Y-43672095D01*
X85313904Y-43672095D01*
X85409142Y-43719714D01*
X85456761Y-43767333D01*
X85504380Y-43862571D01*
X85504380Y-44053047D01*
X85456761Y-44148285D01*
X85409142Y-44195904D01*
X85313904Y-44243523D01*
X85075809Y-44243523D01*
X84980571Y-44195904D01*
X84932952Y-44148285D01*
X84885333Y-44053047D01*
X84885333Y-43862571D01*
X84932952Y-43767333D01*
X84980571Y-43719714D01*
X85075809Y-43672095D01*
%TO.C,D2*%
X107652380Y-36961904D02*
X106652380Y-36961904D01*
X106652380Y-37200000D01*
X106700000Y-37342857D01*
X106795238Y-37438095D01*
X106890476Y-37485714D01*
X107080952Y-37533333D01*
X107223809Y-37533333D01*
X107414285Y-37485714D01*
X107509523Y-37438095D01*
X107604761Y-37342857D01*
X107652380Y-37200000D01*
X107652380Y-36961904D01*
X106747619Y-37914285D02*
X106700000Y-37961904D01*
X106652380Y-38057142D01*
X106652380Y-38295238D01*
X106700000Y-38390476D01*
X106747619Y-38438095D01*
X106842857Y-38485714D01*
X106938095Y-38485714D01*
X107080952Y-38438095D01*
X107652380Y-37866666D01*
X107652380Y-38485714D01*
%TO.C,D3*%
X114052380Y-36961904D02*
X113052380Y-36961904D01*
X113052380Y-37200000D01*
X113100000Y-37342857D01*
X113195238Y-37438095D01*
X113290476Y-37485714D01*
X113480952Y-37533333D01*
X113623809Y-37533333D01*
X113814285Y-37485714D01*
X113909523Y-37438095D01*
X114004761Y-37342857D01*
X114052380Y-37200000D01*
X114052380Y-36961904D01*
X113052380Y-37866666D02*
X113052380Y-38485714D01*
X113433333Y-38152380D01*
X113433333Y-38295238D01*
X113480952Y-38390476D01*
X113528571Y-38438095D01*
X113623809Y-38485714D01*
X113861904Y-38485714D01*
X113957142Y-38438095D01*
X114004761Y-38390476D01*
X114052380Y-38295238D01*
X114052380Y-38009523D01*
X114004761Y-37914285D01*
X113957142Y-37866666D01*
%TO.C,C6*%
X110566666Y-39937142D02*
X110614285Y-39984761D01*
X110757142Y-40032380D01*
X110852380Y-40032380D01*
X110995238Y-39984761D01*
X111090476Y-39889523D01*
X111138095Y-39794285D01*
X111185714Y-39603809D01*
X111185714Y-39460952D01*
X111138095Y-39270476D01*
X111090476Y-39175238D01*
X110995238Y-39080000D01*
X110852380Y-39032380D01*
X110757142Y-39032380D01*
X110614285Y-39080000D01*
X110566666Y-39127619D01*
X109709523Y-39032380D02*
X109900000Y-39032380D01*
X109995238Y-39080000D01*
X110042857Y-39127619D01*
X110138095Y-39270476D01*
X110185714Y-39460952D01*
X110185714Y-39841904D01*
X110138095Y-39937142D01*
X110090476Y-39984761D01*
X109995238Y-40032380D01*
X109804761Y-40032380D01*
X109709523Y-39984761D01*
X109661904Y-39937142D01*
X109614285Y-39841904D01*
X109614285Y-39603809D01*
X109661904Y-39508571D01*
X109709523Y-39460952D01*
X109804761Y-39413333D01*
X109995238Y-39413333D01*
X110090476Y-39460952D01*
X110138095Y-39508571D01*
X110185714Y-39603809D01*
%TO.C,C7*%
X105337142Y-42433333D02*
X105384761Y-42385714D01*
X105432380Y-42242857D01*
X105432380Y-42147619D01*
X105384761Y-42004761D01*
X105289523Y-41909523D01*
X105194285Y-41861904D01*
X105003809Y-41814285D01*
X104860952Y-41814285D01*
X104670476Y-41861904D01*
X104575238Y-41909523D01*
X104480000Y-42004761D01*
X104432380Y-42147619D01*
X104432380Y-42242857D01*
X104480000Y-42385714D01*
X104527619Y-42433333D01*
X104432380Y-42766666D02*
X104432380Y-43433333D01*
X105432380Y-43004761D01*
%TO.C,R4*%
X111015666Y-49912380D02*
X111349000Y-49436190D01*
X111587095Y-49912380D02*
X111587095Y-48912380D01*
X111206142Y-48912380D01*
X111110904Y-48960000D01*
X111063285Y-49007619D01*
X111015666Y-49102857D01*
X111015666Y-49245714D01*
X111063285Y-49340952D01*
X111110904Y-49388571D01*
X111206142Y-49436190D01*
X111587095Y-49436190D01*
X110158523Y-49245714D02*
X110158523Y-49912380D01*
X110396619Y-48864761D02*
X110634714Y-49579047D01*
X110015666Y-49579047D01*
%TO.C,R5*%
X108982380Y-38433333D02*
X108506190Y-38100000D01*
X108982380Y-37861904D02*
X107982380Y-37861904D01*
X107982380Y-38242857D01*
X108030000Y-38338095D01*
X108077619Y-38385714D01*
X108172857Y-38433333D01*
X108315714Y-38433333D01*
X108410952Y-38385714D01*
X108458571Y-38338095D01*
X108506190Y-38242857D01*
X108506190Y-37861904D01*
X107982380Y-39338095D02*
X107982380Y-38861904D01*
X108458571Y-38814285D01*
X108410952Y-38861904D01*
X108363333Y-38957142D01*
X108363333Y-39195238D01*
X108410952Y-39290476D01*
X108458571Y-39338095D01*
X108553809Y-39385714D01*
X108791904Y-39385714D01*
X108887142Y-39338095D01*
X108934761Y-39290476D01*
X108982380Y-39195238D01*
X108982380Y-38957142D01*
X108934761Y-38861904D01*
X108887142Y-38814285D01*
%TO.C,R3*%
X110132380Y-44833333D02*
X109656190Y-44500000D01*
X110132380Y-44261904D02*
X109132380Y-44261904D01*
X109132380Y-44642857D01*
X109180000Y-44738095D01*
X109227619Y-44785714D01*
X109322857Y-44833333D01*
X109465714Y-44833333D01*
X109560952Y-44785714D01*
X109608571Y-44738095D01*
X109656190Y-44642857D01*
X109656190Y-44261904D01*
X109132380Y-45166666D02*
X109132380Y-45785714D01*
X109513333Y-45452380D01*
X109513333Y-45595238D01*
X109560952Y-45690476D01*
X109608571Y-45738095D01*
X109703809Y-45785714D01*
X109941904Y-45785714D01*
X110037142Y-45738095D01*
X110084761Y-45690476D01*
X110132380Y-45595238D01*
X110132380Y-45309523D01*
X110084761Y-45214285D01*
X110037142Y-45166666D01*
%TO.C,R13*%
X82282857Y-43144380D02*
X82616190Y-42668190D01*
X82854285Y-43144380D02*
X82854285Y-42144380D01*
X82473333Y-42144380D01*
X82378095Y-42192000D01*
X82330476Y-42239619D01*
X82282857Y-42334857D01*
X82282857Y-42477714D01*
X82330476Y-42572952D01*
X82378095Y-42620571D01*
X82473333Y-42668190D01*
X82854285Y-42668190D01*
X81330476Y-43144380D02*
X81901904Y-43144380D01*
X81616190Y-43144380D02*
X81616190Y-42144380D01*
X81711428Y-42287238D01*
X81806666Y-42382476D01*
X81901904Y-42430095D01*
X80997142Y-42144380D02*
X80378095Y-42144380D01*
X80711428Y-42525333D01*
X80568571Y-42525333D01*
X80473333Y-42572952D01*
X80425714Y-42620571D01*
X80378095Y-42715809D01*
X80378095Y-42953904D01*
X80425714Y-43049142D01*
X80473333Y-43096761D01*
X80568571Y-43144380D01*
X80854285Y-43144380D01*
X80949523Y-43096761D01*
X80997142Y-43049142D01*
%TO.C,R31*%
X78507857Y-45804380D02*
X78841190Y-45328190D01*
X79079285Y-45804380D02*
X79079285Y-44804380D01*
X78698333Y-44804380D01*
X78603095Y-44852000D01*
X78555476Y-44899619D01*
X78507857Y-44994857D01*
X78507857Y-45137714D01*
X78555476Y-45232952D01*
X78603095Y-45280571D01*
X78698333Y-45328190D01*
X79079285Y-45328190D01*
X78174523Y-44804380D02*
X77555476Y-44804380D01*
X77888809Y-45185333D01*
X77745952Y-45185333D01*
X77650714Y-45232952D01*
X77603095Y-45280571D01*
X77555476Y-45375809D01*
X77555476Y-45613904D01*
X77603095Y-45709142D01*
X77650714Y-45756761D01*
X77745952Y-45804380D01*
X78031666Y-45804380D01*
X78126904Y-45756761D01*
X78174523Y-45709142D01*
X76603095Y-45804380D02*
X77174523Y-45804380D01*
X76888809Y-45804380D02*
X76888809Y-44804380D01*
X76984047Y-44947238D01*
X77079285Y-45042476D01*
X77174523Y-45090095D01*
%TO.C,R32*%
X78457857Y-41344380D02*
X78791190Y-40868190D01*
X79029285Y-41344380D02*
X79029285Y-40344380D01*
X78648333Y-40344380D01*
X78553095Y-40392000D01*
X78505476Y-40439619D01*
X78457857Y-40534857D01*
X78457857Y-40677714D01*
X78505476Y-40772952D01*
X78553095Y-40820571D01*
X78648333Y-40868190D01*
X79029285Y-40868190D01*
X78124523Y-40344380D02*
X77505476Y-40344380D01*
X77838809Y-40725333D01*
X77695952Y-40725333D01*
X77600714Y-40772952D01*
X77553095Y-40820571D01*
X77505476Y-40915809D01*
X77505476Y-41153904D01*
X77553095Y-41249142D01*
X77600714Y-41296761D01*
X77695952Y-41344380D01*
X77981666Y-41344380D01*
X78076904Y-41296761D01*
X78124523Y-41249142D01*
X77124523Y-40439619D02*
X77076904Y-40392000D01*
X76981666Y-40344380D01*
X76743571Y-40344380D01*
X76648333Y-40392000D01*
X76600714Y-40439619D01*
X76553095Y-40534857D01*
X76553095Y-40630095D01*
X76600714Y-40772952D01*
X77172142Y-41344380D01*
X76553095Y-41344380D01*
D11*
%TO.C,TP4*%
X72578000Y-38354000D02*
G75*
G03*
X72578000Y-38354000I-950000J0D01*
G01*
%TO.C,TP3*%
X72578000Y-45974000D02*
G75*
G03*
X72578000Y-45974000I-950000J0D01*
G01*
%TO.C,TP2*%
X72578000Y-43434000D02*
G75*
G03*
X72578000Y-43434000I-950000J0D01*
G01*
%TO.C,TP1*%
X72578000Y-40894000D02*
G75*
G03*
X72578000Y-40894000I-950000J0D01*
G01*
%TO.C,R6*%
X71422500Y-59837742D02*
X71422500Y-60312258D01*
X70377500Y-59837742D02*
X70377500Y-60312258D01*
%TO.C,C8*%
X75929920Y-57550500D02*
X76211080Y-57550500D01*
X75929920Y-56530500D02*
X76211080Y-56530500D01*
%TO.C,C9*%
X72373920Y-56530500D02*
X72655080Y-56530500D01*
X72373920Y-57550500D02*
X72655080Y-57550500D01*
%TO.C,R8*%
X76310000Y-59958758D02*
X76310000Y-59484242D01*
X77355000Y-59958758D02*
X77355000Y-59484242D01*
%TO.C,U1*%
X74684500Y-61444500D02*
X72234500Y-61444500D01*
X72884500Y-58224500D02*
X74684500Y-58224500D01*
%TO.C,C10*%
X98290000Y-55959420D02*
X98290000Y-56240580D01*
X99310000Y-55959420D02*
X99310000Y-56240580D01*
%TO.C,C13*%
X105465580Y-57510000D02*
X105184420Y-57510000D01*
X105465580Y-56490000D02*
X105184420Y-56490000D01*
%TO.C,C14*%
X108310000Y-54259420D02*
X108310000Y-54540580D01*
X107290000Y-54259420D02*
X107290000Y-54540580D01*
%TO.C,D5*%
X106750000Y-52300000D02*
X106750000Y-54300000D01*
X106750000Y-52300000D02*
X102850000Y-52300000D01*
X106750000Y-54300000D02*
X102850000Y-54300000D01*
%TO.C,L2*%
X97446000Y-54354000D02*
X101754000Y-54354000D01*
X101754000Y-50046000D02*
X97446000Y-50046000D01*
%TO.C,R10*%
X105637258Y-54877500D02*
X105162742Y-54877500D01*
X105637258Y-55922500D02*
X105162742Y-55922500D01*
%TO.C,R11*%
X105087742Y-59122500D02*
X105562258Y-59122500D01*
X105087742Y-58077500D02*
X105562258Y-58077500D01*
%TO.C,U2*%
X100700000Y-54790000D02*
X103150000Y-54790000D01*
X102500000Y-58010000D02*
X100700000Y-58010000D01*
%TO.C,J5*%
X90865000Y-55867000D02*
X90800000Y-55867000D01*
X84460000Y-52337000D02*
X84395000Y-52337000D01*
X84460000Y-55867000D02*
X84395000Y-55867000D01*
X90865000Y-52337000D02*
X90800000Y-52337000D01*
X90865000Y-55867000D02*
X90865000Y-52337000D01*
X90800000Y-57192000D02*
X90800000Y-55867000D01*
X84395000Y-55867000D02*
X84395000Y-52337000D01*
%TO.C,C23*%
X76750000Y-53581420D02*
X76750000Y-53862580D01*
X75730000Y-53581420D02*
X75730000Y-53862580D01*
%TO.C,C24*%
X76504580Y-46304000D02*
X76223420Y-46304000D01*
X76504580Y-45284000D02*
X76223420Y-45284000D01*
%TO.C,C20*%
X80759420Y-42810000D02*
X81040580Y-42810000D01*
X80759420Y-41790000D02*
X81040580Y-41790000D01*
%TO.C,C19*%
X74590000Y-37240580D02*
X74590000Y-36959420D01*
X75610000Y-37240580D02*
X75610000Y-36959420D01*
%TO.C,C21*%
X79918000Y-54035420D02*
X79918000Y-54316580D01*
X80938000Y-54035420D02*
X80938000Y-54316580D01*
%TO.C,C22*%
X77886000Y-53781420D02*
X77886000Y-54062580D01*
X78906000Y-53781420D02*
X78906000Y-54062580D01*
%TO.C,D6*%
X99704000Y-43969000D02*
X99704000Y-45439000D01*
X99704000Y-45439000D02*
X97244000Y-45439000D01*
X97244000Y-43969000D02*
X99704000Y-43969000D01*
%TO.C,R14*%
X98537500Y-47594258D02*
X98537500Y-47119742D01*
X99582500Y-47594258D02*
X99582500Y-47119742D01*
%TO.C,R12*%
X81794258Y-45271500D02*
X81319742Y-45271500D01*
X81794258Y-46316500D02*
X81319742Y-46316500D01*
%TO.C,Y1*%
X76300000Y-41350000D02*
X76300000Y-36850000D01*
X76300000Y-36850000D02*
X81700000Y-36850000D01*
D10*
%TO.C,U5*%
X80800000Y-51500000D02*
X80275000Y-51500000D01*
X76500000Y-51500000D02*
X76500000Y-50975000D01*
X76500000Y-47200000D02*
X76500000Y-47725000D01*
X76500000Y-51500000D02*
X77025000Y-51500000D01*
X76500000Y-47200000D02*
X77025000Y-47200000D01*
X80800000Y-47200000D02*
X80275000Y-47200000D01*
X80800000Y-51500000D02*
X80800000Y-50975000D01*
D11*
%TO.C,C15*%
X96125420Y-47750000D02*
X96406580Y-47750000D01*
X96125420Y-48770000D02*
X96406580Y-48770000D01*
%TO.C,C16*%
X85851580Y-39372000D02*
X85570420Y-39372000D01*
X85851580Y-38352000D02*
X85570420Y-38352000D01*
%TO.C,U6*%
X94542000Y-39824000D02*
X94242000Y-39824000D01*
X87622000Y-39824000D02*
X87622000Y-38509000D01*
X87322000Y-46744000D02*
X87322000Y-47044000D01*
X87322000Y-39824000D02*
X87622000Y-39824000D01*
X94542000Y-47044000D02*
X94242000Y-47044000D01*
X94542000Y-46744000D02*
X94542000Y-47044000D01*
X87322000Y-40124000D02*
X87322000Y-39824000D01*
X94542000Y-40124000D02*
X94542000Y-39824000D01*
X87322000Y-47044000D02*
X87622000Y-47044000D01*
%TO.C,D2*%
X108200000Y-35450000D02*
X110200000Y-35450000D01*
X110200000Y-35450000D02*
X110200000Y-39350000D01*
X108200000Y-35450000D02*
X108200000Y-39350000D01*
%TO.C,D3*%
X112600000Y-39950000D02*
X112600000Y-36050000D01*
X112600000Y-39950000D02*
X110600000Y-39950000D01*
X110600000Y-39950000D02*
X110600000Y-36050000D01*
%TO.C,C6*%
X111002064Y-42310000D02*
X109797936Y-42310000D01*
X111002064Y-40490000D02*
X109797936Y-40490000D01*
%TO.C,C7*%
X105890000Y-41997936D02*
X105890000Y-43202064D01*
X107710000Y-41997936D02*
X107710000Y-43202064D01*
%TO.C,R4*%
X111086258Y-50367500D02*
X110611742Y-50367500D01*
X111086258Y-51412500D02*
X110611742Y-51412500D01*
%TO.C,R5*%
X106577500Y-38837258D02*
X106577500Y-38362742D01*
X107622500Y-38837258D02*
X107622500Y-38362742D01*
%TO.C,R3*%
X112410000Y-44397936D02*
X112410000Y-45602064D01*
X110590000Y-44397936D02*
X110590000Y-45602064D01*
%TO.C,R13*%
X81877258Y-44644500D02*
X81402742Y-44644500D01*
X81877258Y-43599500D02*
X81402742Y-43599500D01*
%TO.C,R31*%
X77627742Y-44444500D02*
X78102258Y-44444500D01*
X77627742Y-43399500D02*
X78102258Y-43399500D01*
%TO.C,R32*%
X78052258Y-41799500D02*
X77577742Y-41799500D01*
X78052258Y-42844500D02*
X77577742Y-42844500D01*
%TD*%
M02*
