%TF.GenerationSoftware,KiCad,Pcbnew,6.0.6-1.fc35*%
%TF.CreationDate,2022-07-26T21:01:35+02:00*%
%TF.ProjectId,Nixiewatch,4e697869-6577-4617-9463-682e6b696361,rev?*%
%TF.SameCoordinates,Original*%
%TF.FileFunction,Soldermask,Top*%
%TF.FilePolarity,Negative*%
%FSLAX46Y46*%
G04 Gerber Fmt 4.6, Leading zero omitted, Abs format (unit mm)*
G04 Created by KiCad (PCBNEW 6.0.6-1.fc35) date 2022-07-26 21:01:35*
%MOMM*%
%LPD*%
G01*
G04 APERTURE LIST*
G04 Aperture macros list*
%AMRoundRect*
0 Rectangle with rounded corners*
0 $1 Rounding radius*
0 $2 $3 $4 $5 $6 $7 $8 $9 X,Y pos of 4 corners*
0 Add a 4 corners polygon primitive as box body*
4,1,4,$2,$3,$4,$5,$6,$7,$8,$9,$2,$3,0*
0 Add four circle primitives for the rounded corners*
1,1,$1+$1,$2,$3*
1,1,$1+$1,$4,$5*
1,1,$1+$1,$6,$7*
1,1,$1+$1,$8,$9*
0 Add four rect primitives between the rounded corners*
20,1,$1+$1,$2,$3,$4,$5,0*
20,1,$1+$1,$4,$5,$6,$7,0*
20,1,$1+$1,$6,$7,$8,$9,0*
20,1,$1+$1,$8,$9,$2,$3,0*%
G04 Aperture macros list end*
%ADD10C,1.802000*%
%ADD11RoundRect,0.051000X0.850000X0.850000X-0.850000X0.850000X-0.850000X-0.850000X0.850000X-0.850000X0*%
%ADD12O,1.802000X1.802000*%
%ADD13C,2.302000*%
%ADD14RoundRect,0.276000X-0.250000X0.225000X-0.250000X-0.225000X0.250000X-0.225000X0.250000X0.225000X0*%
%ADD15RoundRect,0.276000X-0.225000X-0.250000X0.225000X-0.250000X0.225000X0.250000X-0.225000X0.250000X0*%
%ADD16RoundRect,0.251000X-0.275000X0.200000X-0.275000X-0.200000X0.275000X-0.200000X0.275000X0.200000X0*%
%ADD17RoundRect,0.051000X-0.400000X0.450000X-0.400000X-0.450000X0.400000X-0.450000X0.400000X0.450000X0*%
%ADD18RoundRect,0.051000X0.400000X-0.450000X0.400000X0.450000X-0.400000X0.450000X-0.400000X-0.450000X0*%
%ADD19RoundRect,0.251000X0.275000X-0.200000X0.275000X0.200000X-0.275000X0.200000X-0.275000X-0.200000X0*%
%ADD20RoundRect,0.301000X-0.325000X-0.450000X0.325000X-0.450000X0.325000X0.450000X-0.325000X0.450000X0*%
%ADD21RoundRect,0.051000X0.530000X0.325000X-0.530000X0.325000X-0.530000X-0.325000X0.530000X-0.325000X0*%
%ADD22RoundRect,0.251000X-0.200000X-0.275000X0.200000X-0.275000X0.200000X0.275000X-0.200000X0.275000X0*%
%ADD23RoundRect,0.301000X-0.450000X0.325000X-0.450000X-0.325000X0.450000X-0.325000X0.450000X0.325000X0*%
%ADD24RoundRect,0.126000X-0.650000X-0.075000X0.650000X-0.075000X0.650000X0.075000X-0.650000X0.075000X0*%
%ADD25RoundRect,0.300999X-0.575501X-1.172501X0.575501X-1.172501X0.575501X1.172501X-0.575501X1.172501X0*%
%ADD26RoundRect,0.051000X-0.490000X-1.700000X0.490000X-1.700000X0.490000X1.700000X-0.490000X1.700000X0*%
%ADD27RoundRect,0.301000X-0.375000X-0.625000X0.375000X-0.625000X0.375000X0.625000X-0.375000X0.625000X0*%
%ADD28RoundRect,0.051000X0.450000X0.600000X-0.450000X0.600000X-0.450000X-0.600000X0.450000X-0.600000X0*%
G04 APERTURE END LIST*
D10*
%TO.C,IC2*%
X79492001Y-60794000D03*
X82032001Y-60794000D03*
X84572001Y-60794000D03*
X87112001Y-60794000D03*
X89652001Y-60794000D03*
X94732001Y-60794000D03*
X97272001Y-60794000D03*
X99812001Y-60794000D03*
X102352001Y-60794000D03*
X104892001Y-60794000D03*
X102352001Y-35394000D03*
X99812001Y-35394000D03*
X97272001Y-35394000D03*
X94732001Y-35394000D03*
X89652001Y-35394000D03*
X87112001Y-35394000D03*
X84572001Y-35394000D03*
X82032001Y-35394000D03*
X79492001Y-35394000D03*
%TD*%
D11*
%TO.C,J1*%
X71600000Y-52775000D03*
D12*
X71600000Y-50235000D03*
%TD*%
D13*
%TO.C,H1*%
X109684500Y-64334500D03*
%TD*%
D14*
%TO.C,C11*%
X78232000Y-53722000D03*
X78232000Y-55272000D03*
%TD*%
D15*
%TO.C,C12*%
X74550000Y-52324000D03*
X76100000Y-52324000D03*
%TD*%
D16*
%TO.C,R20*%
X102500000Y-41075000D03*
X102500000Y-42725000D03*
%TD*%
D17*
%TO.C,Q11*%
X95692000Y-54626000D03*
X93792000Y-54626000D03*
X94742000Y-56626000D03*
%TD*%
D18*
%TO.C,Q7*%
X95316000Y-39608000D03*
X97216000Y-39608000D03*
X96266000Y-37608000D03*
%TD*%
D17*
%TO.C,Q9*%
X89850000Y-54372000D03*
X87950000Y-54372000D03*
X88900000Y-56372000D03*
%TD*%
D19*
%TO.C,R19*%
X104300000Y-55400000D03*
X104300000Y-53750000D03*
%TD*%
%TO.C,R18*%
X100800000Y-55425000D03*
X100800000Y-53775000D03*
%TD*%
%TO.C,R17*%
X80518000Y-55181000D03*
X80518000Y-53531000D03*
%TD*%
D18*
%TO.C,Q8*%
X91760000Y-39608000D03*
X93660000Y-39608000D03*
X92710000Y-37608000D03*
%TD*%
D17*
%TO.C,Q5*%
X100772000Y-56912000D03*
X98872000Y-56912000D03*
X99822000Y-58912000D03*
%TD*%
D18*
%TO.C,Q2*%
X98872000Y-39608000D03*
X100772000Y-39608000D03*
X99822000Y-37608000D03*
%TD*%
D19*
%TO.C,R25*%
X90932000Y-49085000D03*
X90932000Y-47435000D03*
%TD*%
D20*
%TO.C,R24*%
X86868000Y-58166000D03*
X88918000Y-58166000D03*
%TD*%
D15*
%TO.C,C17*%
X74550000Y-57912000D03*
X76100000Y-57912000D03*
%TD*%
D17*
%TO.C,Q1*%
X107884000Y-56912000D03*
X105984000Y-56912000D03*
X106934000Y-58912000D03*
%TD*%
%TO.C,Q6*%
X80452000Y-56912000D03*
X78552000Y-56912000D03*
X79502000Y-58912000D03*
%TD*%
%TO.C,Q10*%
X90866000Y-50816000D03*
X88966000Y-50816000D03*
X89916000Y-52816000D03*
%TD*%
%TO.C,Q4*%
X104328000Y-56912000D03*
X102428000Y-56912000D03*
X103378000Y-58912000D03*
%TD*%
%TO.C,Q12*%
X96708000Y-51070000D03*
X94808000Y-51070000D03*
X95758000Y-53070000D03*
%TD*%
D16*
%TO.C,R27*%
X93218000Y-51386000D03*
X93218000Y-53036000D03*
%TD*%
%TO.C,R26*%
X88900000Y-47435000D03*
X88900000Y-49085000D03*
%TD*%
%TO.C,R23*%
X87376000Y-51132000D03*
X87376000Y-52782000D03*
%TD*%
D19*
%TO.C,R22*%
X108000000Y-55456000D03*
X108000000Y-53806000D03*
%TD*%
D16*
%TO.C,R16*%
X95500000Y-41075000D03*
X95500000Y-42725000D03*
%TD*%
%TO.C,R15*%
X91800000Y-41075000D03*
X91800000Y-42725000D03*
%TD*%
D21*
%TO.C,U3*%
X76538000Y-56068000D03*
X76538000Y-55118000D03*
X76538000Y-54168000D03*
X74338000Y-54168000D03*
X74338000Y-56068000D03*
%TD*%
D16*
%TO.C,R30*%
X94742000Y-47830000D03*
X94742000Y-49480000D03*
%TD*%
D18*
%TO.C,Q3*%
X102428000Y-39608000D03*
X104328000Y-39608000D03*
X103378000Y-37608000D03*
%TD*%
D19*
%TO.C,R29*%
X96774000Y-49480000D03*
X96774000Y-47830000D03*
%TD*%
D20*
%TO.C,R28*%
X94987000Y-58420000D03*
X97037000Y-58420000D03*
%TD*%
D16*
%TO.C,R21*%
X99100000Y-41075000D03*
X99100000Y-42725000D03*
%TD*%
%TO.C,R1*%
X110500000Y-50875000D03*
X110500000Y-52525000D03*
%TD*%
D22*
%TO.C,R2*%
X103875000Y-50890000D03*
X105525000Y-50890000D03*
%TD*%
D23*
%TO.C,C1*%
X103349000Y-47065000D03*
X103349000Y-49115000D03*
%TD*%
D15*
%TO.C,C3*%
X106974000Y-50890000D03*
X108524000Y-50890000D03*
%TD*%
D14*
%TO.C,C4*%
X105149000Y-47677000D03*
X105149000Y-49227000D03*
%TD*%
D24*
%TO.C,IC1*%
X106935000Y-45940000D03*
X106935000Y-46940000D03*
X106935000Y-47940000D03*
X106935000Y-48440000D03*
X106935000Y-48940000D03*
X106935000Y-49440000D03*
X111235000Y-49440000D03*
X111235000Y-48940000D03*
X111235000Y-48440000D03*
X111235000Y-47940000D03*
X111235000Y-46940000D03*
X111235000Y-45940000D03*
D25*
X109085000Y-47690000D03*
%TD*%
D26*
%TO.C,L1*%
X106630000Y-42864000D03*
X109000000Y-42864000D03*
%TD*%
D14*
%TO.C,C2*%
X112100000Y-50950000D03*
X112100000Y-52500000D03*
%TD*%
D27*
%TO.C,C5*%
X106700000Y-36300000D03*
X109500000Y-36300000D03*
%TD*%
D19*
%TO.C,R36*%
X102400000Y-55425000D03*
X102400000Y-53775000D03*
%TD*%
%TO.C,R37*%
X99000000Y-55425000D03*
X99000000Y-53775000D03*
%TD*%
%TO.C,R33*%
X106000000Y-55400000D03*
X106000000Y-53750000D03*
%TD*%
D16*
%TO.C,R35*%
X104300000Y-41075000D03*
X104300000Y-42725000D03*
%TD*%
%TO.C,R39*%
X97200000Y-41075000D03*
X97200000Y-42725000D03*
%TD*%
D28*
%TO.C,D1*%
X109850000Y-38700000D03*
X106550000Y-38700000D03*
%TD*%
D16*
%TO.C,R34*%
X100700000Y-41075000D03*
X100700000Y-42725000D03*
%TD*%
%TO.C,R40*%
X93600000Y-41075000D03*
X93600000Y-42725000D03*
%TD*%
D19*
%TO.C,R38*%
X82400000Y-57025000D03*
X82400000Y-55375000D03*
%TD*%
G36*
X77084668Y-55489665D02*
G01*
X77085058Y-55491627D01*
X77084699Y-55492267D01*
X77041511Y-55543946D01*
X77032880Y-55612661D01*
X77062844Y-55675291D01*
X77083682Y-55693348D01*
X77084336Y-55695238D01*
X77083026Y-55696749D01*
X77081982Y-55696821D01*
X77067801Y-55694000D01*
X76008199Y-55694000D01*
X75993226Y-55696978D01*
X75991332Y-55696335D01*
X75990942Y-55694373D01*
X75991301Y-55693733D01*
X76034489Y-55642054D01*
X76043120Y-55573339D01*
X76013156Y-55510709D01*
X75992318Y-55492652D01*
X75991664Y-55490762D01*
X75992974Y-55489251D01*
X75994018Y-55489179D01*
X76008199Y-55492000D01*
X77067801Y-55492000D01*
X77082774Y-55489022D01*
X77084668Y-55489665D01*
G37*
G36*
X77084668Y-54539665D02*
G01*
X77085058Y-54541627D01*
X77084699Y-54542267D01*
X77041511Y-54593946D01*
X77032880Y-54662661D01*
X77062844Y-54725291D01*
X77083682Y-54743348D01*
X77084336Y-54745238D01*
X77083026Y-54746749D01*
X77081982Y-54746821D01*
X77067801Y-54744000D01*
X76008199Y-54744000D01*
X75993226Y-54746978D01*
X75991332Y-54746335D01*
X75990942Y-54744373D01*
X75991301Y-54743733D01*
X76034489Y-54692054D01*
X76043120Y-54623339D01*
X76013156Y-54560709D01*
X75992318Y-54542652D01*
X75991664Y-54540762D01*
X75992974Y-54539251D01*
X75994018Y-54539179D01*
X76008199Y-54542000D01*
X77067801Y-54542000D01*
X77082774Y-54539022D01*
X77084668Y-54539665D01*
G37*
G36*
X106202234Y-49105919D02*
G01*
X106237561Y-49129524D01*
X106285199Y-49139000D01*
X107584801Y-49139000D01*
X107632439Y-49129524D01*
X107667766Y-49105919D01*
X107669762Y-49105788D01*
X107670873Y-49107451D01*
X107670540Y-49108693D01*
X107662033Y-49121425D01*
X107641253Y-49187789D01*
X107662042Y-49258589D01*
X107670540Y-49271307D01*
X107670671Y-49273303D01*
X107669008Y-49274414D01*
X107667766Y-49274081D01*
X107632439Y-49250476D01*
X107584801Y-49241000D01*
X106285199Y-49241000D01*
X106237561Y-49250476D01*
X106202234Y-49274081D01*
X106200238Y-49274212D01*
X106199127Y-49272549D01*
X106199460Y-49271307D01*
X106207967Y-49258575D01*
X106228747Y-49192211D01*
X106207958Y-49121411D01*
X106199460Y-49108693D01*
X106199329Y-49106697D01*
X106200992Y-49105586D01*
X106202234Y-49105919D01*
G37*
G36*
X110502234Y-49105919D02*
G01*
X110537561Y-49129524D01*
X110585199Y-49139000D01*
X111884801Y-49139000D01*
X111932439Y-49129524D01*
X111967766Y-49105919D01*
X111969762Y-49105788D01*
X111970873Y-49107451D01*
X111970540Y-49108693D01*
X111962033Y-49121425D01*
X111941253Y-49187789D01*
X111962042Y-49258589D01*
X111970540Y-49271307D01*
X111970671Y-49273303D01*
X111969008Y-49274414D01*
X111967766Y-49274081D01*
X111932439Y-49250476D01*
X111884801Y-49241000D01*
X110585199Y-49241000D01*
X110537561Y-49250476D01*
X110502234Y-49274081D01*
X110500238Y-49274212D01*
X110499127Y-49272549D01*
X110499460Y-49271307D01*
X110507967Y-49258575D01*
X110528747Y-49192211D01*
X110507958Y-49121411D01*
X110499460Y-49108693D01*
X110499329Y-49106697D01*
X110500992Y-49105586D01*
X110502234Y-49105919D01*
G37*
G36*
X110502234Y-48605919D02*
G01*
X110537561Y-48629524D01*
X110585199Y-48639000D01*
X111884801Y-48639000D01*
X111932439Y-48629524D01*
X111967766Y-48605919D01*
X111969762Y-48605788D01*
X111970873Y-48607451D01*
X111970540Y-48608693D01*
X111962033Y-48621425D01*
X111941253Y-48687789D01*
X111962042Y-48758589D01*
X111970540Y-48771307D01*
X111970671Y-48773303D01*
X111969008Y-48774414D01*
X111967766Y-48774081D01*
X111932439Y-48750476D01*
X111884801Y-48741000D01*
X110585199Y-48741000D01*
X110537561Y-48750476D01*
X110502234Y-48774081D01*
X110500238Y-48774212D01*
X110499127Y-48772549D01*
X110499460Y-48771307D01*
X110507967Y-48758575D01*
X110528747Y-48692211D01*
X110507958Y-48621411D01*
X110499460Y-48608693D01*
X110499329Y-48606697D01*
X110500992Y-48605586D01*
X110502234Y-48605919D01*
G37*
G36*
X106202234Y-48605919D02*
G01*
X106237561Y-48629524D01*
X106285199Y-48639000D01*
X107584801Y-48639000D01*
X107632439Y-48629524D01*
X107667766Y-48605919D01*
X107669762Y-48605788D01*
X107670873Y-48607451D01*
X107670540Y-48608693D01*
X107662033Y-48621425D01*
X107641253Y-48687789D01*
X107662042Y-48758589D01*
X107670540Y-48771307D01*
X107670671Y-48773303D01*
X107669008Y-48774414D01*
X107667766Y-48774081D01*
X107632439Y-48750476D01*
X107584801Y-48741000D01*
X106285199Y-48741000D01*
X106237561Y-48750476D01*
X106202234Y-48774081D01*
X106200238Y-48774212D01*
X106199127Y-48772549D01*
X106199460Y-48771307D01*
X106207967Y-48758575D01*
X106228747Y-48692211D01*
X106207958Y-48621411D01*
X106199460Y-48608693D01*
X106199329Y-48606697D01*
X106200992Y-48605586D01*
X106202234Y-48605919D01*
G37*
G36*
X106202234Y-48105919D02*
G01*
X106237561Y-48129524D01*
X106285199Y-48139000D01*
X107584801Y-48139000D01*
X107632439Y-48129524D01*
X107667766Y-48105919D01*
X107669762Y-48105788D01*
X107670873Y-48107451D01*
X107670540Y-48108693D01*
X107662033Y-48121425D01*
X107641253Y-48187789D01*
X107662042Y-48258589D01*
X107670540Y-48271307D01*
X107670671Y-48273303D01*
X107669008Y-48274414D01*
X107667766Y-48274081D01*
X107632439Y-48250476D01*
X107584801Y-48241000D01*
X106285199Y-48241000D01*
X106237561Y-48250476D01*
X106202234Y-48274081D01*
X106200238Y-48274212D01*
X106199127Y-48272549D01*
X106199460Y-48271307D01*
X106207967Y-48258575D01*
X106228747Y-48192211D01*
X106207958Y-48121411D01*
X106199460Y-48108693D01*
X106199329Y-48106697D01*
X106200992Y-48105586D01*
X106202234Y-48105919D01*
G37*
G36*
X110502234Y-48105919D02*
G01*
X110537561Y-48129524D01*
X110585199Y-48139000D01*
X111884801Y-48139000D01*
X111932439Y-48129524D01*
X111967766Y-48105919D01*
X111969762Y-48105788D01*
X111970873Y-48107451D01*
X111970540Y-48108693D01*
X111962033Y-48121425D01*
X111941253Y-48187789D01*
X111962042Y-48258589D01*
X111970540Y-48271307D01*
X111970671Y-48273303D01*
X111969008Y-48274414D01*
X111967766Y-48274081D01*
X111932439Y-48250476D01*
X111884801Y-48241000D01*
X110585199Y-48241000D01*
X110537561Y-48250476D01*
X110502234Y-48274081D01*
X110500238Y-48274212D01*
X110499127Y-48272549D01*
X110499460Y-48271307D01*
X110507967Y-48258575D01*
X110528747Y-48192211D01*
X110507958Y-48121411D01*
X110499460Y-48108693D01*
X110499329Y-48106697D01*
X110500992Y-48105586D01*
X110502234Y-48105919D01*
G37*
M02*
