%TF.GenerationSoftware,KiCad,Pcbnew,6.0.6-1.fc35*%
%TF.CreationDate,2022-07-26T21:01:35+02:00*%
%TF.ProjectId,Nixiewatch,4e697869-6577-4617-9463-682e6b696361,rev?*%
%TF.SameCoordinates,Original*%
%TF.FileFunction,Soldermask,Bot*%
%TF.FilePolarity,Negative*%
%FSLAX46Y46*%
G04 Gerber Fmt 4.6, Leading zero omitted, Abs format (unit mm)*
G04 Created by KiCad (PCBNEW 6.0.6-1.fc35) date 2022-07-26 21:01:35*
%MOMM*%
%LPD*%
G01*
G04 APERTURE LIST*
G04 Aperture macros list*
%AMRoundRect*
0 Rectangle with rounded corners*
0 $1 Rounding radius*
0 $2 $3 $4 $5 $6 $7 $8 $9 X,Y pos of 4 corners*
0 Add a 4 corners polygon primitive as box body*
4,1,4,$2,$3,$4,$5,$6,$7,$8,$9,$2,$3,0*
0 Add four circle primitives for the rounded corners*
1,1,$1+$1,$2,$3*
1,1,$1+$1,$4,$5*
1,1,$1+$1,$6,$7*
1,1,$1+$1,$8,$9*
0 Add four rect primitives between the rounded corners*
20,1,$1+$1,$2,$3,$4,$5,0*
20,1,$1+$1,$4,$5,$6,$7,0*
20,1,$1+$1,$6,$7,$8,$9,0*
20,1,$1+$1,$8,$9,$2,$3,0*%
G04 Aperture macros list end*
%ADD10C,1.802000*%
%ADD11C,1.602000*%
%ADD12RoundRect,0.251000X-0.275000X0.200000X-0.275000X-0.200000X0.275000X-0.200000X0.275000X0.200000X0*%
%ADD13RoundRect,0.051000X0.850000X0.850000X-0.850000X0.850000X-0.850000X-0.850000X0.850000X-0.850000X0*%
%ADD14O,1.802000X1.802000*%
%ADD15C,2.302000*%
%ADD16RoundRect,0.276000X-0.225000X-0.250000X0.225000X-0.250000X0.225000X0.250000X-0.225000X0.250000X0*%
%ADD17RoundRect,0.251000X0.275000X-0.200000X0.275000X0.200000X-0.275000X0.200000X-0.275000X-0.200000X0*%
%ADD18RoundRect,0.051000X-0.530000X-0.325000X0.530000X-0.325000X0.530000X0.325000X-0.530000X0.325000X0*%
%ADD19RoundRect,0.276000X-0.250000X0.225000X-0.250000X-0.225000X0.250000X-0.225000X0.250000X0.225000X0*%
%ADD20RoundRect,0.276000X0.225000X0.250000X-0.225000X0.250000X-0.225000X-0.250000X0.225000X-0.250000X0*%
%ADD21RoundRect,0.051000X0.450000X0.600000X-0.450000X0.600000X-0.450000X-0.600000X0.450000X-0.600000X0*%
%ADD22RoundRect,0.051000X-0.490000X-1.700000X0.490000X-1.700000X0.490000X1.700000X-0.490000X1.700000X0*%
%ADD23RoundRect,0.251000X0.200000X0.275000X-0.200000X0.275000X-0.200000X-0.275000X0.200000X-0.275000X0*%
%ADD24RoundRect,0.251000X-0.200000X-0.275000X0.200000X-0.275000X0.200000X0.275000X-0.200000X0.275000X0*%
%ADD25RoundRect,0.051000X0.530000X0.325000X-0.530000X0.325000X-0.530000X-0.325000X0.530000X-0.325000X0*%
%ADD26RoundRect,0.051000X0.370000X-1.200000X0.370000X1.200000X-0.370000X1.200000X-0.370000X-1.200000X0*%
%ADD27RoundRect,0.276000X0.250000X-0.225000X0.250000X0.225000X-0.250000X0.225000X-0.250000X-0.225000X0*%
%ADD28RoundRect,0.288500X0.287500X0.237500X-0.287500X0.237500X-0.287500X-0.237500X0.287500X-0.237500X0*%
%ADD29RoundRect,0.051000X-1.050000X-0.900000X1.050000X-0.900000X1.050000X0.900000X-1.050000X0.900000X0*%
%ADD30RoundRect,0.126000X0.350000X0.075000X-0.350000X0.075000X-0.350000X-0.075000X0.350000X-0.075000X0*%
%ADD31RoundRect,0.126000X0.075000X-0.350000X0.075000X0.350000X-0.075000X0.350000X-0.075000X-0.350000X0*%
%ADD32RoundRect,0.176000X-0.125000X0.625000X-0.125000X-0.625000X0.125000X-0.625000X0.125000X0.625000X0*%
%ADD33RoundRect,0.176000X-0.625000X0.125000X-0.625000X-0.125000X0.625000X-0.125000X0.625000X0.125000X0*%
%ADD34RoundRect,0.051000X-0.600000X0.450000X-0.600000X-0.450000X0.600000X-0.450000X0.600000X0.450000X0*%
%ADD35RoundRect,0.051000X0.600000X-0.450000X0.600000X0.450000X-0.600000X0.450000X-0.600000X-0.450000X0*%
%ADD36RoundRect,0.301000X0.375000X0.625000X-0.375000X0.625000X-0.375000X-0.625000X0.375000X-0.625000X0*%
%ADD37RoundRect,0.301000X-0.625000X0.375000X-0.625000X-0.375000X0.625000X-0.375000X0.625000X0.375000X0*%
G04 APERTURE END LIST*
D10*
%TO.C,IC2*%
X79492001Y-60794000D03*
X82032001Y-60794000D03*
X84572001Y-60794000D03*
X87112001Y-60794000D03*
X89652001Y-60794000D03*
X94732001Y-60794000D03*
X97272001Y-60794000D03*
X99812001Y-60794000D03*
X102352001Y-60794000D03*
X104892001Y-60794000D03*
X102352001Y-35394000D03*
X99812001Y-35394000D03*
X97272001Y-35394000D03*
X94732001Y-35394000D03*
X89652001Y-35394000D03*
X87112001Y-35394000D03*
X84572001Y-35394000D03*
X82032001Y-35394000D03*
X79492001Y-35394000D03*
%TD*%
D11*
%TO.C,TP4*%
X71628000Y-38354000D03*
%TD*%
%TO.C,TP3*%
X71628000Y-45974000D03*
%TD*%
%TO.C,TP2*%
X71628000Y-43434000D03*
%TD*%
%TO.C,TP1*%
X71628000Y-40894000D03*
%TD*%
D12*
%TO.C,R6*%
X70900000Y-59250000D03*
X70900000Y-60900000D03*
%TD*%
D13*
%TO.C,J1*%
X71600000Y-52775000D03*
D14*
X71600000Y-50235000D03*
%TD*%
D15*
%TO.C,H1*%
X109684500Y-64334500D03*
%TD*%
D16*
%TO.C,C8*%
X75295500Y-57040500D03*
X76845500Y-57040500D03*
%TD*%
%TO.C,C9*%
X71739500Y-57040500D03*
X73289500Y-57040500D03*
%TD*%
D17*
%TO.C,R8*%
X76832500Y-60546500D03*
X76832500Y-58896500D03*
%TD*%
D18*
%TO.C,U1*%
X72684500Y-60784500D03*
X72684500Y-59834500D03*
X72684500Y-58884500D03*
X74884500Y-58884500D03*
X74884500Y-60784500D03*
%TD*%
D19*
%TO.C,C10*%
X98800000Y-55325000D03*
X98800000Y-56875000D03*
%TD*%
D20*
%TO.C,C13*%
X106100000Y-57000000D03*
X104550000Y-57000000D03*
%TD*%
D19*
%TO.C,C14*%
X107800000Y-53625000D03*
X107800000Y-55175000D03*
%TD*%
D21*
%TO.C,D5*%
X106150000Y-53300000D03*
X102850000Y-53300000D03*
%TD*%
D22*
%TO.C,L2*%
X98415000Y-52200000D03*
X100785000Y-52200000D03*
%TD*%
D23*
%TO.C,R10*%
X106225000Y-55400000D03*
X104575000Y-55400000D03*
%TD*%
D24*
%TO.C,R11*%
X104500000Y-58600000D03*
X106150000Y-58600000D03*
%TD*%
D25*
%TO.C,U2*%
X102700000Y-55450000D03*
X102700000Y-56400000D03*
X102700000Y-57350000D03*
X100500000Y-57350000D03*
X100500000Y-55450000D03*
%TD*%
D26*
%TO.C,J5*%
X90170000Y-56052000D03*
X90170000Y-52152000D03*
X88900000Y-56052000D03*
X88900000Y-52152000D03*
X87630000Y-56052000D03*
X87630000Y-52152000D03*
X86360000Y-56052000D03*
X86360000Y-52152000D03*
X85090000Y-56052000D03*
X85090000Y-52152000D03*
%TD*%
D19*
%TO.C,C23*%
X76240000Y-52947000D03*
X76240000Y-54497000D03*
%TD*%
D20*
%TO.C,C24*%
X77139000Y-45794000D03*
X75589000Y-45794000D03*
%TD*%
D16*
%TO.C,C20*%
X80125000Y-42300000D03*
X81675000Y-42300000D03*
%TD*%
D27*
%TO.C,C19*%
X75100000Y-37875000D03*
X75100000Y-36325000D03*
%TD*%
D19*
%TO.C,C21*%
X80428000Y-53401000D03*
X80428000Y-54951000D03*
%TD*%
%TO.C,C22*%
X78396000Y-53147000D03*
X78396000Y-54697000D03*
%TD*%
D28*
%TO.C,D6*%
X98919000Y-44704000D03*
X97169000Y-44704000D03*
%TD*%
D17*
%TO.C,R14*%
X99060000Y-48182000D03*
X99060000Y-46532000D03*
%TD*%
D23*
%TO.C,R12*%
X82382000Y-45794000D03*
X80732000Y-45794000D03*
%TD*%
D29*
%TO.C,Y1*%
X77550000Y-37950000D03*
X80450000Y-37950000D03*
X80450000Y-40250000D03*
X77550000Y-40250000D03*
%TD*%
D30*
%TO.C,U5*%
X80600000Y-48100000D03*
X80600000Y-48600000D03*
X80600000Y-49100000D03*
X80600000Y-49600000D03*
X80600000Y-50100000D03*
X80600000Y-50600000D03*
D31*
X79900000Y-51300000D03*
X79400000Y-51300000D03*
X78900000Y-51300000D03*
X78400000Y-51300000D03*
X77900000Y-51300000D03*
X77400000Y-51300000D03*
D30*
X76700000Y-50600000D03*
X76700000Y-50100000D03*
X76700000Y-49600000D03*
X76700000Y-49100000D03*
X76700000Y-48600000D03*
X76700000Y-48100000D03*
D31*
X77400000Y-47400000D03*
X77900000Y-47400000D03*
X78400000Y-47400000D03*
X78900000Y-47400000D03*
X79400000Y-47400000D03*
X79900000Y-47400000D03*
%TD*%
D16*
%TO.C,C15*%
X95491000Y-48260000D03*
X97041000Y-48260000D03*
%TD*%
D20*
%TO.C,C16*%
X86486000Y-38862000D03*
X84936000Y-38862000D03*
%TD*%
D32*
%TO.C,U6*%
X88132000Y-39259000D03*
X88932000Y-39259000D03*
X89732000Y-39259000D03*
X90532000Y-39259000D03*
X91332000Y-39259000D03*
X92132000Y-39259000D03*
X92932000Y-39259000D03*
X93732000Y-39259000D03*
D33*
X95107000Y-40634000D03*
X95107000Y-41434000D03*
X95107000Y-42234000D03*
X95107000Y-43034000D03*
X95107000Y-43834000D03*
X95107000Y-44634000D03*
X95107000Y-45434000D03*
X95107000Y-46234000D03*
D32*
X93732000Y-47609000D03*
X92932000Y-47609000D03*
X92132000Y-47609000D03*
X91332000Y-47609000D03*
X90532000Y-47609000D03*
X89732000Y-47609000D03*
X88932000Y-47609000D03*
X88132000Y-47609000D03*
D33*
X86757000Y-46234000D03*
X86757000Y-45434000D03*
X86757000Y-44634000D03*
X86757000Y-43834000D03*
X86757000Y-43034000D03*
X86757000Y-42234000D03*
X86757000Y-41434000D03*
X86757000Y-40634000D03*
%TD*%
D34*
%TO.C,D2*%
X109200000Y-36050000D03*
X109200000Y-39350000D03*
%TD*%
D35*
%TO.C,D3*%
X111600000Y-39350000D03*
X111600000Y-36050000D03*
%TD*%
D36*
%TO.C,C6*%
X111800000Y-41400000D03*
X109000000Y-41400000D03*
%TD*%
D37*
%TO.C,C7*%
X106800000Y-41200000D03*
X106800000Y-44000000D03*
%TD*%
D23*
%TO.C,R4*%
X111674000Y-50890000D03*
X110024000Y-50890000D03*
%TD*%
D17*
%TO.C,R5*%
X107100000Y-39425000D03*
X107100000Y-37775000D03*
%TD*%
D37*
%TO.C,R3*%
X111500000Y-43600000D03*
X111500000Y-46400000D03*
%TD*%
D23*
%TO.C,R13*%
X82465000Y-44122000D03*
X80815000Y-44122000D03*
%TD*%
D24*
%TO.C,R31*%
X77040000Y-43922000D03*
X78690000Y-43922000D03*
%TD*%
D23*
%TO.C,R32*%
X78640000Y-42322000D03*
X76990000Y-42322000D03*
%TD*%
G36*
X73231168Y-60206165D02*
G01*
X73231558Y-60208127D01*
X73231199Y-60208767D01*
X73188011Y-60260446D01*
X73179380Y-60329161D01*
X73209344Y-60391791D01*
X73230182Y-60409848D01*
X73230836Y-60411738D01*
X73229526Y-60413249D01*
X73228482Y-60413321D01*
X73214301Y-60410500D01*
X72154699Y-60410500D01*
X72139726Y-60413478D01*
X72137832Y-60412835D01*
X72137442Y-60410873D01*
X72137801Y-60410233D01*
X72180989Y-60358554D01*
X72189620Y-60289839D01*
X72159656Y-60227209D01*
X72138818Y-60209152D01*
X72138164Y-60207262D01*
X72139474Y-60205751D01*
X72140518Y-60205679D01*
X72154699Y-60208500D01*
X73214301Y-60208500D01*
X73229274Y-60205522D01*
X73231168Y-60206165D01*
G37*
G36*
X73231168Y-59256165D02*
G01*
X73231558Y-59258127D01*
X73231199Y-59258767D01*
X73188011Y-59310446D01*
X73179380Y-59379161D01*
X73209344Y-59441791D01*
X73230182Y-59459848D01*
X73230836Y-59461738D01*
X73229526Y-59463249D01*
X73228482Y-59463321D01*
X73214301Y-59460500D01*
X72154699Y-59460500D01*
X72139726Y-59463478D01*
X72137832Y-59462835D01*
X72137442Y-59460873D01*
X72137801Y-59460233D01*
X72180989Y-59408554D01*
X72189620Y-59339839D01*
X72159656Y-59277209D01*
X72138818Y-59259152D01*
X72138164Y-59257262D01*
X72139474Y-59255751D01*
X72140518Y-59255679D01*
X72154699Y-59258500D01*
X73214301Y-59258500D01*
X73229274Y-59255522D01*
X73231168Y-59256165D01*
G37*
G36*
X103246668Y-56771665D02*
G01*
X103247058Y-56773627D01*
X103246699Y-56774267D01*
X103203511Y-56825946D01*
X103194880Y-56894661D01*
X103224844Y-56957291D01*
X103245682Y-56975348D01*
X103246336Y-56977238D01*
X103245026Y-56978749D01*
X103243982Y-56978821D01*
X103229801Y-56976000D01*
X102170199Y-56976000D01*
X102155226Y-56978978D01*
X102153332Y-56978335D01*
X102152942Y-56976373D01*
X102153301Y-56975733D01*
X102196489Y-56924054D01*
X102205120Y-56855339D01*
X102175156Y-56792709D01*
X102154318Y-56774652D01*
X102153664Y-56772762D01*
X102154974Y-56771251D01*
X102156018Y-56771179D01*
X102170199Y-56774000D01*
X103229801Y-56774000D01*
X103244774Y-56771022D01*
X103246668Y-56771665D01*
G37*
G36*
X103246668Y-55821665D02*
G01*
X103247058Y-55823627D01*
X103246699Y-55824267D01*
X103203511Y-55875946D01*
X103194880Y-55944661D01*
X103224844Y-56007291D01*
X103245682Y-56025348D01*
X103246336Y-56027238D01*
X103245026Y-56028749D01*
X103243982Y-56028821D01*
X103229801Y-56026000D01*
X102170199Y-56026000D01*
X102155226Y-56028978D01*
X102153332Y-56028335D01*
X102152942Y-56026373D01*
X102153301Y-56025733D01*
X102196489Y-55974054D01*
X102205120Y-55905339D01*
X102175156Y-55842709D01*
X102154318Y-55824652D01*
X102153664Y-55822762D01*
X102154974Y-55821251D01*
X102156018Y-55821179D01*
X102170199Y-55824000D01*
X103229801Y-55824000D01*
X103244774Y-55821022D01*
X103246668Y-55821665D01*
G37*
G36*
X78568693Y-50864460D02*
G01*
X78581425Y-50872967D01*
X78647789Y-50893747D01*
X78718589Y-50872958D01*
X78731307Y-50864460D01*
X78733303Y-50864329D01*
X78734414Y-50865992D01*
X78734081Y-50867234D01*
X78710476Y-50902561D01*
X78701000Y-50950199D01*
X78701000Y-51649801D01*
X78710476Y-51697439D01*
X78734081Y-51732766D01*
X78734212Y-51734762D01*
X78732549Y-51735873D01*
X78731307Y-51735540D01*
X78718575Y-51727033D01*
X78652211Y-51706253D01*
X78581411Y-51727042D01*
X78568693Y-51735540D01*
X78566697Y-51735671D01*
X78565586Y-51734008D01*
X78565919Y-51732766D01*
X78589524Y-51697439D01*
X78599000Y-51649801D01*
X78599000Y-50950199D01*
X78589524Y-50902561D01*
X78565919Y-50867234D01*
X78565788Y-50865238D01*
X78567451Y-50864127D01*
X78568693Y-50864460D01*
G37*
G36*
X77568693Y-50864460D02*
G01*
X77581425Y-50872967D01*
X77647789Y-50893747D01*
X77718589Y-50872958D01*
X77731307Y-50864460D01*
X77733303Y-50864329D01*
X77734414Y-50865992D01*
X77734081Y-50867234D01*
X77710476Y-50902561D01*
X77701000Y-50950199D01*
X77701000Y-51649801D01*
X77710476Y-51697439D01*
X77734081Y-51732766D01*
X77734212Y-51734762D01*
X77732549Y-51735873D01*
X77731307Y-51735540D01*
X77718575Y-51727033D01*
X77652211Y-51706253D01*
X77581411Y-51727042D01*
X77568693Y-51735540D01*
X77566697Y-51735671D01*
X77565586Y-51734008D01*
X77565919Y-51732766D01*
X77589524Y-51697439D01*
X77599000Y-51649801D01*
X77599000Y-50950199D01*
X77589524Y-50902561D01*
X77565919Y-50867234D01*
X77565788Y-50865238D01*
X77567451Y-50864127D01*
X77568693Y-50864460D01*
G37*
G36*
X79068693Y-50864460D02*
G01*
X79081425Y-50872967D01*
X79147789Y-50893747D01*
X79218589Y-50872958D01*
X79231307Y-50864460D01*
X79233303Y-50864329D01*
X79234414Y-50865992D01*
X79234081Y-50867234D01*
X79210476Y-50902561D01*
X79201000Y-50950199D01*
X79201000Y-51649801D01*
X79210476Y-51697439D01*
X79234081Y-51732766D01*
X79234212Y-51734762D01*
X79232549Y-51735873D01*
X79231307Y-51735540D01*
X79218575Y-51727033D01*
X79152211Y-51706253D01*
X79081411Y-51727042D01*
X79068693Y-51735540D01*
X79066697Y-51735671D01*
X79065586Y-51734008D01*
X79065919Y-51732766D01*
X79089524Y-51697439D01*
X79099000Y-51649801D01*
X79099000Y-50950199D01*
X79089524Y-50902561D01*
X79065919Y-50867234D01*
X79065788Y-50865238D01*
X79067451Y-50864127D01*
X79068693Y-50864460D01*
G37*
G36*
X79568693Y-50864460D02*
G01*
X79581425Y-50872967D01*
X79647789Y-50893747D01*
X79718589Y-50872958D01*
X79731307Y-50864460D01*
X79733303Y-50864329D01*
X79734414Y-50865992D01*
X79734081Y-50867234D01*
X79710476Y-50902561D01*
X79701000Y-50950199D01*
X79701000Y-51649801D01*
X79710476Y-51697439D01*
X79734081Y-51732766D01*
X79734212Y-51734762D01*
X79732549Y-51735873D01*
X79731307Y-51735540D01*
X79718575Y-51727033D01*
X79652211Y-51706253D01*
X79581411Y-51727042D01*
X79568693Y-51735540D01*
X79566697Y-51735671D01*
X79565586Y-51734008D01*
X79565919Y-51732766D01*
X79589524Y-51697439D01*
X79599000Y-51649801D01*
X79599000Y-50950199D01*
X79589524Y-50902561D01*
X79565919Y-50867234D01*
X79565788Y-50865238D01*
X79567451Y-50864127D01*
X79568693Y-50864460D01*
G37*
G36*
X78068693Y-50864460D02*
G01*
X78081425Y-50872967D01*
X78147789Y-50893747D01*
X78218589Y-50872958D01*
X78231307Y-50864460D01*
X78233303Y-50864329D01*
X78234414Y-50865992D01*
X78234081Y-50867234D01*
X78210476Y-50902561D01*
X78201000Y-50950199D01*
X78201000Y-51649801D01*
X78210476Y-51697439D01*
X78234081Y-51732766D01*
X78234212Y-51734762D01*
X78232549Y-51735873D01*
X78231307Y-51735540D01*
X78218575Y-51727033D01*
X78152211Y-51706253D01*
X78081411Y-51727042D01*
X78068693Y-51735540D01*
X78066697Y-51735671D01*
X78065586Y-51734008D01*
X78065919Y-51732766D01*
X78089524Y-51697439D01*
X78099000Y-51649801D01*
X78099000Y-50950199D01*
X78089524Y-50902561D01*
X78065919Y-50867234D01*
X78065788Y-50865238D01*
X78067451Y-50864127D01*
X78068693Y-50864460D01*
G37*
G36*
X77174521Y-50687563D02*
G01*
X77175194Y-50688889D01*
X77180659Y-50749963D01*
X77223146Y-50804657D01*
X77288619Y-50827756D01*
X77300053Y-50826939D01*
X77301852Y-50827813D01*
X77301995Y-50829808D01*
X77300586Y-50830896D01*
X77277561Y-50835476D01*
X77237347Y-50862347D01*
X77210476Y-50902561D01*
X77203760Y-50936323D01*
X77202441Y-50937827D01*
X77200479Y-50937437D01*
X77199806Y-50936111D01*
X77194341Y-50875037D01*
X77151854Y-50820343D01*
X77086381Y-50797244D01*
X77074947Y-50798061D01*
X77073148Y-50797187D01*
X77073005Y-50795192D01*
X77074414Y-50794104D01*
X77097439Y-50789524D01*
X77137653Y-50762653D01*
X77164524Y-50722439D01*
X77171240Y-50688677D01*
X77172559Y-50687173D01*
X77174521Y-50687563D01*
G37*
G36*
X80130896Y-50699414D02*
G01*
X80135476Y-50722439D01*
X80162347Y-50762653D01*
X80202561Y-50789524D01*
X80236323Y-50796240D01*
X80237827Y-50797559D01*
X80237437Y-50799521D01*
X80236111Y-50800194D01*
X80175037Y-50805659D01*
X80120343Y-50848146D01*
X80097244Y-50913619D01*
X80098061Y-50925053D01*
X80097187Y-50926852D01*
X80095192Y-50926995D01*
X80094104Y-50925586D01*
X80089524Y-50902561D01*
X80062653Y-50862347D01*
X80022439Y-50835476D01*
X79988677Y-50828760D01*
X79987173Y-50827441D01*
X79987563Y-50825479D01*
X79988889Y-50824806D01*
X80049963Y-50819341D01*
X80104657Y-50776854D01*
X80127756Y-50711381D01*
X80126939Y-50699947D01*
X80127813Y-50698148D01*
X80129808Y-50698005D01*
X80130896Y-50699414D01*
G37*
G36*
X80167234Y-50265919D02*
G01*
X80202561Y-50289524D01*
X80250199Y-50299000D01*
X80949801Y-50299000D01*
X80997439Y-50289524D01*
X81032766Y-50265919D01*
X81034762Y-50265788D01*
X81035873Y-50267451D01*
X81035540Y-50268693D01*
X81027033Y-50281425D01*
X81006253Y-50347789D01*
X81027042Y-50418589D01*
X81035540Y-50431307D01*
X81035671Y-50433303D01*
X81034008Y-50434414D01*
X81032766Y-50434081D01*
X80997439Y-50410476D01*
X80949801Y-50401000D01*
X80250199Y-50401000D01*
X80202561Y-50410476D01*
X80167234Y-50434081D01*
X80165238Y-50434212D01*
X80164127Y-50432549D01*
X80164460Y-50431307D01*
X80172967Y-50418575D01*
X80193747Y-50352211D01*
X80172958Y-50281411D01*
X80164460Y-50268693D01*
X80164329Y-50266697D01*
X80165992Y-50265586D01*
X80167234Y-50265919D01*
G37*
G36*
X76267234Y-50265919D02*
G01*
X76302561Y-50289524D01*
X76350199Y-50299000D01*
X77049801Y-50299000D01*
X77097439Y-50289524D01*
X77132766Y-50265919D01*
X77134762Y-50265788D01*
X77135873Y-50267451D01*
X77135540Y-50268693D01*
X77127033Y-50281425D01*
X77106253Y-50347789D01*
X77127042Y-50418589D01*
X77135540Y-50431307D01*
X77135671Y-50433303D01*
X77134008Y-50434414D01*
X77132766Y-50434081D01*
X77097439Y-50410476D01*
X77049801Y-50401000D01*
X76350199Y-50401000D01*
X76302561Y-50410476D01*
X76267234Y-50434081D01*
X76265238Y-50434212D01*
X76264127Y-50432549D01*
X76264460Y-50431307D01*
X76272967Y-50418575D01*
X76293747Y-50352211D01*
X76272958Y-50281411D01*
X76264460Y-50268693D01*
X76264329Y-50266697D01*
X76265992Y-50265586D01*
X76267234Y-50265919D01*
G37*
G36*
X80167234Y-49765919D02*
G01*
X80202561Y-49789524D01*
X80250199Y-49799000D01*
X80949801Y-49799000D01*
X80997439Y-49789524D01*
X81032766Y-49765919D01*
X81034762Y-49765788D01*
X81035873Y-49767451D01*
X81035540Y-49768693D01*
X81027033Y-49781425D01*
X81006253Y-49847789D01*
X81027042Y-49918589D01*
X81035540Y-49931307D01*
X81035671Y-49933303D01*
X81034008Y-49934414D01*
X81032766Y-49934081D01*
X80997439Y-49910476D01*
X80949801Y-49901000D01*
X80250199Y-49901000D01*
X80202561Y-49910476D01*
X80167234Y-49934081D01*
X80165238Y-49934212D01*
X80164127Y-49932549D01*
X80164460Y-49931307D01*
X80172967Y-49918575D01*
X80193747Y-49852211D01*
X80172958Y-49781411D01*
X80164460Y-49768693D01*
X80164329Y-49766697D01*
X80165992Y-49765586D01*
X80167234Y-49765919D01*
G37*
G36*
X76267234Y-49765919D02*
G01*
X76302561Y-49789524D01*
X76350199Y-49799000D01*
X77049801Y-49799000D01*
X77097439Y-49789524D01*
X77132766Y-49765919D01*
X77134762Y-49765788D01*
X77135873Y-49767451D01*
X77135540Y-49768693D01*
X77127033Y-49781425D01*
X77106253Y-49847789D01*
X77127042Y-49918589D01*
X77135540Y-49931307D01*
X77135671Y-49933303D01*
X77134008Y-49934414D01*
X77132766Y-49934081D01*
X77097439Y-49910476D01*
X77049801Y-49901000D01*
X76350199Y-49901000D01*
X76302561Y-49910476D01*
X76267234Y-49934081D01*
X76265238Y-49934212D01*
X76264127Y-49932549D01*
X76264460Y-49931307D01*
X76272967Y-49918575D01*
X76293747Y-49852211D01*
X76272958Y-49781411D01*
X76264460Y-49768693D01*
X76264329Y-49766697D01*
X76265992Y-49765586D01*
X76267234Y-49765919D01*
G37*
G36*
X76267234Y-49265919D02*
G01*
X76302561Y-49289524D01*
X76350199Y-49299000D01*
X77049801Y-49299000D01*
X77097439Y-49289524D01*
X77132766Y-49265919D01*
X77134762Y-49265788D01*
X77135873Y-49267451D01*
X77135540Y-49268693D01*
X77127033Y-49281425D01*
X77106253Y-49347789D01*
X77127042Y-49418589D01*
X77135540Y-49431307D01*
X77135671Y-49433303D01*
X77134008Y-49434414D01*
X77132766Y-49434081D01*
X77097439Y-49410476D01*
X77049801Y-49401000D01*
X76350199Y-49401000D01*
X76302561Y-49410476D01*
X76267234Y-49434081D01*
X76265238Y-49434212D01*
X76264127Y-49432549D01*
X76264460Y-49431307D01*
X76272967Y-49418575D01*
X76293747Y-49352211D01*
X76272958Y-49281411D01*
X76264460Y-49268693D01*
X76264329Y-49266697D01*
X76265992Y-49265586D01*
X76267234Y-49265919D01*
G37*
G36*
X80167234Y-49265919D02*
G01*
X80202561Y-49289524D01*
X80250199Y-49299000D01*
X80949801Y-49299000D01*
X80997439Y-49289524D01*
X81032766Y-49265919D01*
X81034762Y-49265788D01*
X81035873Y-49267451D01*
X81035540Y-49268693D01*
X81027033Y-49281425D01*
X81006253Y-49347789D01*
X81027042Y-49418589D01*
X81035540Y-49431307D01*
X81035671Y-49433303D01*
X81034008Y-49434414D01*
X81032766Y-49434081D01*
X80997439Y-49410476D01*
X80949801Y-49401000D01*
X80250199Y-49401000D01*
X80202561Y-49410476D01*
X80167234Y-49434081D01*
X80165238Y-49434212D01*
X80164127Y-49432549D01*
X80164460Y-49431307D01*
X80172967Y-49418575D01*
X80193747Y-49352211D01*
X80172958Y-49281411D01*
X80164460Y-49268693D01*
X80164329Y-49266697D01*
X80165992Y-49265586D01*
X80167234Y-49265919D01*
G37*
G36*
X80167234Y-48765919D02*
G01*
X80202561Y-48789524D01*
X80250199Y-48799000D01*
X80949801Y-48799000D01*
X80997439Y-48789524D01*
X81032766Y-48765919D01*
X81034762Y-48765788D01*
X81035873Y-48767451D01*
X81035540Y-48768693D01*
X81027033Y-48781425D01*
X81006253Y-48847789D01*
X81027042Y-48918589D01*
X81035540Y-48931307D01*
X81035671Y-48933303D01*
X81034008Y-48934414D01*
X81032766Y-48934081D01*
X80997439Y-48910476D01*
X80949801Y-48901000D01*
X80250199Y-48901000D01*
X80202561Y-48910476D01*
X80167234Y-48934081D01*
X80165238Y-48934212D01*
X80164127Y-48932549D01*
X80164460Y-48931307D01*
X80172967Y-48918575D01*
X80193747Y-48852211D01*
X80172958Y-48781411D01*
X80164460Y-48768693D01*
X80164329Y-48766697D01*
X80165992Y-48765586D01*
X80167234Y-48765919D01*
G37*
G36*
X76267234Y-48765919D02*
G01*
X76302561Y-48789524D01*
X76350199Y-48799000D01*
X77049801Y-48799000D01*
X77097439Y-48789524D01*
X77132766Y-48765919D01*
X77134762Y-48765788D01*
X77135873Y-48767451D01*
X77135540Y-48768693D01*
X77127033Y-48781425D01*
X77106253Y-48847789D01*
X77127042Y-48918589D01*
X77135540Y-48931307D01*
X77135671Y-48933303D01*
X77134008Y-48934414D01*
X77132766Y-48934081D01*
X77097439Y-48910476D01*
X77049801Y-48901000D01*
X76350199Y-48901000D01*
X76302561Y-48910476D01*
X76267234Y-48934081D01*
X76265238Y-48934212D01*
X76264127Y-48932549D01*
X76264460Y-48931307D01*
X76272967Y-48918575D01*
X76293747Y-48852211D01*
X76272958Y-48781411D01*
X76264460Y-48768693D01*
X76264329Y-48766697D01*
X76265992Y-48765586D01*
X76267234Y-48765919D01*
G37*
G36*
X80167234Y-48265919D02*
G01*
X80202561Y-48289524D01*
X80250199Y-48299000D01*
X80949801Y-48299000D01*
X80997439Y-48289524D01*
X81032766Y-48265919D01*
X81034762Y-48265788D01*
X81035873Y-48267451D01*
X81035540Y-48268693D01*
X81027033Y-48281425D01*
X81006253Y-48347789D01*
X81027042Y-48418589D01*
X81035540Y-48431307D01*
X81035671Y-48433303D01*
X81034008Y-48434414D01*
X81032766Y-48434081D01*
X80997439Y-48410476D01*
X80949801Y-48401000D01*
X80250199Y-48401000D01*
X80202561Y-48410476D01*
X80167234Y-48434081D01*
X80165238Y-48434212D01*
X80164127Y-48432549D01*
X80164460Y-48431307D01*
X80172967Y-48418575D01*
X80193747Y-48352211D01*
X80172958Y-48281411D01*
X80164460Y-48268693D01*
X80164329Y-48266697D01*
X80165992Y-48265586D01*
X80167234Y-48265919D01*
G37*
G36*
X76267234Y-48265919D02*
G01*
X76302561Y-48289524D01*
X76350199Y-48299000D01*
X77049801Y-48299000D01*
X77097439Y-48289524D01*
X77132766Y-48265919D01*
X77134762Y-48265788D01*
X77135873Y-48267451D01*
X77135540Y-48268693D01*
X77127033Y-48281425D01*
X77106253Y-48347789D01*
X77127042Y-48418589D01*
X77135540Y-48431307D01*
X77135671Y-48433303D01*
X77134008Y-48434414D01*
X77132766Y-48434081D01*
X77097439Y-48410476D01*
X77049801Y-48401000D01*
X76350199Y-48401000D01*
X76302561Y-48410476D01*
X76267234Y-48434081D01*
X76265238Y-48434212D01*
X76264127Y-48432549D01*
X76264460Y-48431307D01*
X76272967Y-48418575D01*
X76293747Y-48352211D01*
X76272958Y-48281411D01*
X76264460Y-48268693D01*
X76264329Y-48266697D01*
X76265992Y-48265586D01*
X76267234Y-48265919D01*
G37*
G36*
X88643620Y-46929394D02*
G01*
X88643693Y-46930440D01*
X88633000Y-46984199D01*
X88633000Y-48233801D01*
X88643648Y-48287334D01*
X88643005Y-48289228D01*
X88641043Y-48289618D01*
X88640161Y-48289018D01*
X88599512Y-48241110D01*
X88533266Y-48220908D01*
X88466625Y-48239726D01*
X88423782Y-48289258D01*
X88421892Y-48289914D01*
X88420380Y-48288606D01*
X88420307Y-48287560D01*
X88431000Y-48233801D01*
X88431000Y-46984199D01*
X88420352Y-46930666D01*
X88420995Y-46928772D01*
X88422957Y-46928382D01*
X88423839Y-46928982D01*
X88464488Y-46976890D01*
X88530734Y-46997092D01*
X88597375Y-46978274D01*
X88640218Y-46928742D01*
X88642108Y-46928086D01*
X88643620Y-46929394D01*
G37*
G36*
X93443620Y-46929394D02*
G01*
X93443693Y-46930440D01*
X93433000Y-46984199D01*
X93433000Y-48233801D01*
X93443648Y-48287334D01*
X93443005Y-48289228D01*
X93441043Y-48289618D01*
X93440161Y-48289018D01*
X93399512Y-48241110D01*
X93333266Y-48220908D01*
X93266625Y-48239726D01*
X93223782Y-48289258D01*
X93221892Y-48289914D01*
X93220380Y-48288606D01*
X93220307Y-48287560D01*
X93231000Y-48233801D01*
X93231000Y-46984199D01*
X93220352Y-46930666D01*
X93220995Y-46928772D01*
X93222957Y-46928382D01*
X93223839Y-46928982D01*
X93264488Y-46976890D01*
X93330734Y-46997092D01*
X93397375Y-46978274D01*
X93440218Y-46928742D01*
X93442108Y-46928086D01*
X93443620Y-46929394D01*
G37*
G36*
X89443620Y-46929394D02*
G01*
X89443693Y-46930440D01*
X89433000Y-46984199D01*
X89433000Y-48233801D01*
X89443648Y-48287334D01*
X89443005Y-48289228D01*
X89441043Y-48289618D01*
X89440161Y-48289018D01*
X89399512Y-48241110D01*
X89333266Y-48220908D01*
X89266625Y-48239726D01*
X89223782Y-48289258D01*
X89221892Y-48289914D01*
X89220380Y-48288606D01*
X89220307Y-48287560D01*
X89231000Y-48233801D01*
X89231000Y-46984199D01*
X89220352Y-46930666D01*
X89220995Y-46928772D01*
X89222957Y-46928382D01*
X89223839Y-46928982D01*
X89264488Y-46976890D01*
X89330734Y-46997092D01*
X89397375Y-46978274D01*
X89440218Y-46928742D01*
X89442108Y-46928086D01*
X89443620Y-46929394D01*
G37*
G36*
X92643620Y-46929394D02*
G01*
X92643693Y-46930440D01*
X92633000Y-46984199D01*
X92633000Y-48233801D01*
X92643648Y-48287334D01*
X92643005Y-48289228D01*
X92641043Y-48289618D01*
X92640161Y-48289018D01*
X92599512Y-48241110D01*
X92533266Y-48220908D01*
X92466625Y-48239726D01*
X92423782Y-48289258D01*
X92421892Y-48289914D01*
X92420380Y-48288606D01*
X92420307Y-48287560D01*
X92431000Y-48233801D01*
X92431000Y-46984199D01*
X92420352Y-46930666D01*
X92420995Y-46928772D01*
X92422957Y-46928382D01*
X92423839Y-46928982D01*
X92464488Y-46976890D01*
X92530734Y-46997092D01*
X92597375Y-46978274D01*
X92640218Y-46928742D01*
X92642108Y-46928086D01*
X92643620Y-46929394D01*
G37*
G36*
X90243620Y-46929394D02*
G01*
X90243693Y-46930440D01*
X90233000Y-46984199D01*
X90233000Y-48233801D01*
X90243648Y-48287334D01*
X90243005Y-48289228D01*
X90241043Y-48289618D01*
X90240161Y-48289018D01*
X90199512Y-48241110D01*
X90133266Y-48220908D01*
X90066625Y-48239726D01*
X90023782Y-48289258D01*
X90021892Y-48289914D01*
X90020380Y-48288606D01*
X90020307Y-48287560D01*
X90031000Y-48233801D01*
X90031000Y-46984199D01*
X90020352Y-46930666D01*
X90020995Y-46928772D01*
X90022957Y-46928382D01*
X90023839Y-46928982D01*
X90064488Y-46976890D01*
X90130734Y-46997092D01*
X90197375Y-46978274D01*
X90240218Y-46928742D01*
X90242108Y-46928086D01*
X90243620Y-46929394D01*
G37*
G36*
X91843620Y-46929394D02*
G01*
X91843693Y-46930440D01*
X91833000Y-46984199D01*
X91833000Y-48233801D01*
X91843648Y-48287334D01*
X91843005Y-48289228D01*
X91841043Y-48289618D01*
X91840161Y-48289018D01*
X91799512Y-48241110D01*
X91733266Y-48220908D01*
X91666625Y-48239726D01*
X91623782Y-48289258D01*
X91621892Y-48289914D01*
X91620380Y-48288606D01*
X91620307Y-48287560D01*
X91631000Y-48233801D01*
X91631000Y-46984199D01*
X91620352Y-46930666D01*
X91620995Y-46928772D01*
X91622957Y-46928382D01*
X91623839Y-46928982D01*
X91664488Y-46976890D01*
X91730734Y-46997092D01*
X91797375Y-46978274D01*
X91840218Y-46928742D01*
X91842108Y-46928086D01*
X91843620Y-46929394D01*
G37*
G36*
X91043620Y-46929394D02*
G01*
X91043693Y-46930440D01*
X91033000Y-46984199D01*
X91033000Y-48233801D01*
X91043648Y-48287334D01*
X91043005Y-48289228D01*
X91041043Y-48289618D01*
X91040161Y-48289018D01*
X90999512Y-48241110D01*
X90933266Y-48220908D01*
X90866625Y-48239726D01*
X90823782Y-48289258D01*
X90821892Y-48289914D01*
X90820380Y-48288606D01*
X90820307Y-48287560D01*
X90831000Y-48233801D01*
X90831000Y-46984199D01*
X90820352Y-46930666D01*
X90820995Y-46928772D01*
X90822957Y-46928382D01*
X90823839Y-46928982D01*
X90864488Y-46976890D01*
X90930734Y-46997092D01*
X90997375Y-46978274D01*
X91040218Y-46928742D01*
X91042108Y-46928086D01*
X91043620Y-46929394D01*
G37*
G36*
X80099521Y-47762563D02*
G01*
X80100194Y-47763889D01*
X80105659Y-47824963D01*
X80148146Y-47879657D01*
X80213619Y-47902756D01*
X80225053Y-47901939D01*
X80226852Y-47902813D01*
X80226995Y-47904808D01*
X80225586Y-47905896D01*
X80202561Y-47910476D01*
X80162347Y-47937347D01*
X80135476Y-47977561D01*
X80128760Y-48011323D01*
X80127441Y-48012827D01*
X80125479Y-48012437D01*
X80124806Y-48011111D01*
X80119341Y-47950037D01*
X80076854Y-47895343D01*
X80011381Y-47872244D01*
X79999947Y-47873061D01*
X79998148Y-47872187D01*
X79998005Y-47870192D01*
X79999414Y-47869104D01*
X80022439Y-47864524D01*
X80062653Y-47837653D01*
X80089524Y-47797439D01*
X80096240Y-47763677D01*
X80097559Y-47762173D01*
X80099521Y-47762563D01*
G37*
G36*
X77205896Y-47774414D02*
G01*
X77210476Y-47797439D01*
X77237347Y-47837653D01*
X77277561Y-47864524D01*
X77311323Y-47871240D01*
X77312827Y-47872559D01*
X77312437Y-47874521D01*
X77311111Y-47875194D01*
X77250037Y-47880659D01*
X77195343Y-47923146D01*
X77172244Y-47988619D01*
X77173061Y-48000053D01*
X77172187Y-48001852D01*
X77170192Y-48001995D01*
X77169104Y-48000586D01*
X77164524Y-47977561D01*
X77137653Y-47937347D01*
X77097439Y-47910476D01*
X77063677Y-47903760D01*
X77062173Y-47902441D01*
X77062563Y-47900479D01*
X77063889Y-47899806D01*
X77124963Y-47894341D01*
X77179657Y-47851854D01*
X77202756Y-47786381D01*
X77201939Y-47774947D01*
X77202813Y-47773148D01*
X77204808Y-47773005D01*
X77205896Y-47774414D01*
G37*
G36*
X78068693Y-46964460D02*
G01*
X78081425Y-46972967D01*
X78147789Y-46993747D01*
X78218589Y-46972958D01*
X78231307Y-46964460D01*
X78233303Y-46964329D01*
X78234414Y-46965992D01*
X78234081Y-46967234D01*
X78210476Y-47002561D01*
X78201000Y-47050199D01*
X78201000Y-47749801D01*
X78210476Y-47797439D01*
X78234081Y-47832766D01*
X78234212Y-47834762D01*
X78232549Y-47835873D01*
X78231307Y-47835540D01*
X78218575Y-47827033D01*
X78152211Y-47806253D01*
X78081411Y-47827042D01*
X78068693Y-47835540D01*
X78066697Y-47835671D01*
X78065586Y-47834008D01*
X78065919Y-47832766D01*
X78089524Y-47797439D01*
X78099000Y-47749801D01*
X78099000Y-47050199D01*
X78089524Y-47002561D01*
X78065919Y-46967234D01*
X78065788Y-46965238D01*
X78067451Y-46964127D01*
X78068693Y-46964460D01*
G37*
G36*
X78568693Y-46964460D02*
G01*
X78581425Y-46972967D01*
X78647789Y-46993747D01*
X78718589Y-46972958D01*
X78731307Y-46964460D01*
X78733303Y-46964329D01*
X78734414Y-46965992D01*
X78734081Y-46967234D01*
X78710476Y-47002561D01*
X78701000Y-47050199D01*
X78701000Y-47749801D01*
X78710476Y-47797439D01*
X78734081Y-47832766D01*
X78734212Y-47834762D01*
X78732549Y-47835873D01*
X78731307Y-47835540D01*
X78718575Y-47827033D01*
X78652211Y-47806253D01*
X78581411Y-47827042D01*
X78568693Y-47835540D01*
X78566697Y-47835671D01*
X78565586Y-47834008D01*
X78565919Y-47832766D01*
X78589524Y-47797439D01*
X78599000Y-47749801D01*
X78599000Y-47050199D01*
X78589524Y-47002561D01*
X78565919Y-46967234D01*
X78565788Y-46965238D01*
X78567451Y-46964127D01*
X78568693Y-46964460D01*
G37*
G36*
X79568693Y-46964460D02*
G01*
X79581425Y-46972967D01*
X79647789Y-46993747D01*
X79718589Y-46972958D01*
X79731307Y-46964460D01*
X79733303Y-46964329D01*
X79734414Y-46965992D01*
X79734081Y-46967234D01*
X79710476Y-47002561D01*
X79701000Y-47050199D01*
X79701000Y-47749801D01*
X79710476Y-47797439D01*
X79734081Y-47832766D01*
X79734212Y-47834762D01*
X79732549Y-47835873D01*
X79731307Y-47835540D01*
X79718575Y-47827033D01*
X79652211Y-47806253D01*
X79581411Y-47827042D01*
X79568693Y-47835540D01*
X79566697Y-47835671D01*
X79565586Y-47834008D01*
X79565919Y-47832766D01*
X79589524Y-47797439D01*
X79599000Y-47749801D01*
X79599000Y-47050199D01*
X79589524Y-47002561D01*
X79565919Y-46967234D01*
X79565788Y-46965238D01*
X79567451Y-46964127D01*
X79568693Y-46964460D01*
G37*
G36*
X79068693Y-46964460D02*
G01*
X79081425Y-46972967D01*
X79147789Y-46993747D01*
X79218589Y-46972958D01*
X79231307Y-46964460D01*
X79233303Y-46964329D01*
X79234414Y-46965992D01*
X79234081Y-46967234D01*
X79210476Y-47002561D01*
X79201000Y-47050199D01*
X79201000Y-47749801D01*
X79210476Y-47797439D01*
X79234081Y-47832766D01*
X79234212Y-47834762D01*
X79232549Y-47835873D01*
X79231307Y-47835540D01*
X79218575Y-47827033D01*
X79152211Y-47806253D01*
X79081411Y-47827042D01*
X79068693Y-47835540D01*
X79066697Y-47835671D01*
X79065586Y-47834008D01*
X79065919Y-47832766D01*
X79089524Y-47797439D01*
X79099000Y-47749801D01*
X79099000Y-47050199D01*
X79089524Y-47002561D01*
X79065919Y-46967234D01*
X79065788Y-46965238D01*
X79067451Y-46964127D01*
X79068693Y-46964460D01*
G37*
G36*
X77568693Y-46964460D02*
G01*
X77581425Y-46972967D01*
X77647789Y-46993747D01*
X77718589Y-46972958D01*
X77731307Y-46964460D01*
X77733303Y-46964329D01*
X77734414Y-46965992D01*
X77734081Y-46967234D01*
X77710476Y-47002561D01*
X77701000Y-47050199D01*
X77701000Y-47749801D01*
X77710476Y-47797439D01*
X77734081Y-47832766D01*
X77734212Y-47834762D01*
X77732549Y-47835873D01*
X77731307Y-47835540D01*
X77718575Y-47827033D01*
X77652211Y-47806253D01*
X77581411Y-47827042D01*
X77568693Y-47835540D01*
X77566697Y-47835671D01*
X77565586Y-47834008D01*
X77565919Y-47832766D01*
X77589524Y-47797439D01*
X77599000Y-47749801D01*
X77599000Y-47050199D01*
X77589524Y-47002561D01*
X77565919Y-46967234D01*
X77565788Y-46965238D01*
X77567451Y-46964127D01*
X77568693Y-46964460D01*
G37*
G36*
X86132199Y-45733000D02*
G01*
X87381801Y-45733000D01*
X87435334Y-45722352D01*
X87437228Y-45722995D01*
X87437618Y-45724957D01*
X87437018Y-45725839D01*
X87389110Y-45766488D01*
X87368908Y-45832734D01*
X87387726Y-45899375D01*
X87437258Y-45942218D01*
X87437914Y-45944108D01*
X87436606Y-45945620D01*
X87435560Y-45945693D01*
X87381801Y-45935000D01*
X86132199Y-45935000D01*
X86078666Y-45945648D01*
X86076772Y-45945005D01*
X86076382Y-45943043D01*
X86076982Y-45942161D01*
X86124890Y-45901512D01*
X86145092Y-45835266D01*
X86126274Y-45768625D01*
X86076742Y-45725782D01*
X86076086Y-45723892D01*
X86077394Y-45722380D01*
X86078440Y-45722307D01*
X86132199Y-45733000D01*
G37*
G36*
X94482199Y-45733000D02*
G01*
X95731801Y-45733000D01*
X95785334Y-45722352D01*
X95787228Y-45722995D01*
X95787618Y-45724957D01*
X95787018Y-45725839D01*
X95739110Y-45766488D01*
X95718908Y-45832734D01*
X95737726Y-45899375D01*
X95787258Y-45942218D01*
X95787914Y-45944108D01*
X95786606Y-45945620D01*
X95785560Y-45945693D01*
X95731801Y-45935000D01*
X94482199Y-45935000D01*
X94428666Y-45945648D01*
X94426772Y-45945005D01*
X94426382Y-45943043D01*
X94426982Y-45942161D01*
X94474890Y-45901512D01*
X94495092Y-45835266D01*
X94476274Y-45768625D01*
X94426742Y-45725782D01*
X94426086Y-45723892D01*
X94427394Y-45722380D01*
X94428440Y-45722307D01*
X94482199Y-45733000D01*
G37*
G36*
X86132199Y-44933000D02*
G01*
X87381801Y-44933000D01*
X87435334Y-44922352D01*
X87437228Y-44922995D01*
X87437618Y-44924957D01*
X87437018Y-44925839D01*
X87389110Y-44966488D01*
X87368908Y-45032734D01*
X87387726Y-45099375D01*
X87437258Y-45142218D01*
X87437914Y-45144108D01*
X87436606Y-45145620D01*
X87435560Y-45145693D01*
X87381801Y-45135000D01*
X86132199Y-45135000D01*
X86078666Y-45145648D01*
X86076772Y-45145005D01*
X86076382Y-45143043D01*
X86076982Y-45142161D01*
X86124890Y-45101512D01*
X86145092Y-45035266D01*
X86126274Y-44968625D01*
X86076742Y-44925782D01*
X86076086Y-44923892D01*
X86077394Y-44922380D01*
X86078440Y-44922307D01*
X86132199Y-44933000D01*
G37*
G36*
X94482199Y-44933000D02*
G01*
X95731801Y-44933000D01*
X95785334Y-44922352D01*
X95787228Y-44922995D01*
X95787618Y-44924957D01*
X95787018Y-44925839D01*
X95739110Y-44966488D01*
X95718908Y-45032734D01*
X95737726Y-45099375D01*
X95787258Y-45142218D01*
X95787914Y-45144108D01*
X95786606Y-45145620D01*
X95785560Y-45145693D01*
X95731801Y-45135000D01*
X94482199Y-45135000D01*
X94428666Y-45145648D01*
X94426772Y-45145005D01*
X94426382Y-45143043D01*
X94426982Y-45142161D01*
X94474890Y-45101512D01*
X94495092Y-45035266D01*
X94476274Y-44968625D01*
X94426742Y-44925782D01*
X94426086Y-44923892D01*
X94427394Y-44922380D01*
X94428440Y-44922307D01*
X94482199Y-44933000D01*
G37*
G36*
X94482199Y-44133000D02*
G01*
X95731801Y-44133000D01*
X95785334Y-44122352D01*
X95787228Y-44122995D01*
X95787618Y-44124957D01*
X95787018Y-44125839D01*
X95739110Y-44166488D01*
X95718908Y-44232734D01*
X95737726Y-44299375D01*
X95787258Y-44342218D01*
X95787914Y-44344108D01*
X95786606Y-44345620D01*
X95785560Y-44345693D01*
X95731801Y-44335000D01*
X94482199Y-44335000D01*
X94428666Y-44345648D01*
X94426772Y-44345005D01*
X94426382Y-44343043D01*
X94426982Y-44342161D01*
X94474890Y-44301512D01*
X94495092Y-44235266D01*
X94476274Y-44168625D01*
X94426742Y-44125782D01*
X94426086Y-44123892D01*
X94427394Y-44122380D01*
X94428440Y-44122307D01*
X94482199Y-44133000D01*
G37*
G36*
X86132199Y-44133000D02*
G01*
X87381801Y-44133000D01*
X87435334Y-44122352D01*
X87437228Y-44122995D01*
X87437618Y-44124957D01*
X87437018Y-44125839D01*
X87389110Y-44166488D01*
X87368908Y-44232734D01*
X87387726Y-44299375D01*
X87437258Y-44342218D01*
X87437914Y-44344108D01*
X87436606Y-44345620D01*
X87435560Y-44345693D01*
X87381801Y-44335000D01*
X86132199Y-44335000D01*
X86078666Y-44345648D01*
X86076772Y-44345005D01*
X86076382Y-44343043D01*
X86076982Y-44342161D01*
X86124890Y-44301512D01*
X86145092Y-44235266D01*
X86126274Y-44168625D01*
X86076742Y-44125782D01*
X86076086Y-44123892D01*
X86077394Y-44122380D01*
X86078440Y-44122307D01*
X86132199Y-44133000D01*
G37*
G36*
X86132199Y-43333000D02*
G01*
X87381801Y-43333000D01*
X87435334Y-43322352D01*
X87437228Y-43322995D01*
X87437618Y-43324957D01*
X87437018Y-43325839D01*
X87389110Y-43366488D01*
X87368908Y-43432734D01*
X87387726Y-43499375D01*
X87437258Y-43542218D01*
X87437914Y-43544108D01*
X87436606Y-43545620D01*
X87435560Y-43545693D01*
X87381801Y-43535000D01*
X86132199Y-43535000D01*
X86078666Y-43545648D01*
X86076772Y-43545005D01*
X86076382Y-43543043D01*
X86076982Y-43542161D01*
X86124890Y-43501512D01*
X86145092Y-43435266D01*
X86126274Y-43368625D01*
X86076742Y-43325782D01*
X86076086Y-43323892D01*
X86077394Y-43322380D01*
X86078440Y-43322307D01*
X86132199Y-43333000D01*
G37*
G36*
X94482199Y-43333000D02*
G01*
X95731801Y-43333000D01*
X95785334Y-43322352D01*
X95787228Y-43322995D01*
X95787618Y-43324957D01*
X95787018Y-43325839D01*
X95739110Y-43366488D01*
X95718908Y-43432734D01*
X95737726Y-43499375D01*
X95787258Y-43542218D01*
X95787914Y-43544108D01*
X95786606Y-43545620D01*
X95785560Y-43545693D01*
X95731801Y-43535000D01*
X94482199Y-43535000D01*
X94428666Y-43545648D01*
X94426772Y-43545005D01*
X94426382Y-43543043D01*
X94426982Y-43542161D01*
X94474890Y-43501512D01*
X94495092Y-43435266D01*
X94476274Y-43368625D01*
X94426742Y-43325782D01*
X94426086Y-43323892D01*
X94427394Y-43322380D01*
X94428440Y-43322307D01*
X94482199Y-43333000D01*
G37*
G36*
X94482199Y-42533000D02*
G01*
X95731801Y-42533000D01*
X95785334Y-42522352D01*
X95787228Y-42522995D01*
X95787618Y-42524957D01*
X95787018Y-42525839D01*
X95739110Y-42566488D01*
X95718908Y-42632734D01*
X95737726Y-42699375D01*
X95787258Y-42742218D01*
X95787914Y-42744108D01*
X95786606Y-42745620D01*
X95785560Y-42745693D01*
X95731801Y-42735000D01*
X94482199Y-42735000D01*
X94428666Y-42745648D01*
X94426772Y-42745005D01*
X94426382Y-42743043D01*
X94426982Y-42742161D01*
X94474890Y-42701512D01*
X94495092Y-42635266D01*
X94476274Y-42568625D01*
X94426742Y-42525782D01*
X94426086Y-42523892D01*
X94427394Y-42522380D01*
X94428440Y-42522307D01*
X94482199Y-42533000D01*
G37*
G36*
X86132199Y-42533000D02*
G01*
X87381801Y-42533000D01*
X87435334Y-42522352D01*
X87437228Y-42522995D01*
X87437618Y-42524957D01*
X87437018Y-42525839D01*
X87389110Y-42566488D01*
X87368908Y-42632734D01*
X87387726Y-42699375D01*
X87437258Y-42742218D01*
X87437914Y-42744108D01*
X87436606Y-42745620D01*
X87435560Y-42745693D01*
X87381801Y-42735000D01*
X86132199Y-42735000D01*
X86078666Y-42745648D01*
X86076772Y-42745005D01*
X86076382Y-42743043D01*
X86076982Y-42742161D01*
X86124890Y-42701512D01*
X86145092Y-42635266D01*
X86126274Y-42568625D01*
X86076742Y-42525782D01*
X86076086Y-42523892D01*
X86077394Y-42522380D01*
X86078440Y-42522307D01*
X86132199Y-42533000D01*
G37*
G36*
X86132199Y-41733000D02*
G01*
X87381801Y-41733000D01*
X87435334Y-41722352D01*
X87437228Y-41722995D01*
X87437618Y-41724957D01*
X87437018Y-41725839D01*
X87389110Y-41766488D01*
X87368908Y-41832734D01*
X87387726Y-41899375D01*
X87437258Y-41942218D01*
X87437914Y-41944108D01*
X87436606Y-41945620D01*
X87435560Y-41945693D01*
X87381801Y-41935000D01*
X86132199Y-41935000D01*
X86078666Y-41945648D01*
X86076772Y-41945005D01*
X86076382Y-41943043D01*
X86076982Y-41942161D01*
X86124890Y-41901512D01*
X86145092Y-41835266D01*
X86126274Y-41768625D01*
X86076742Y-41725782D01*
X86076086Y-41723892D01*
X86077394Y-41722380D01*
X86078440Y-41722307D01*
X86132199Y-41733000D01*
G37*
G36*
X94482199Y-41733000D02*
G01*
X95731801Y-41733000D01*
X95785334Y-41722352D01*
X95787228Y-41722995D01*
X95787618Y-41724957D01*
X95787018Y-41725839D01*
X95739110Y-41766488D01*
X95718908Y-41832734D01*
X95737726Y-41899375D01*
X95787258Y-41942218D01*
X95787914Y-41944108D01*
X95786606Y-41945620D01*
X95785560Y-41945693D01*
X95731801Y-41935000D01*
X94482199Y-41935000D01*
X94428666Y-41945648D01*
X94426772Y-41945005D01*
X94426382Y-41943043D01*
X94426982Y-41942161D01*
X94474890Y-41901512D01*
X94495092Y-41835266D01*
X94476274Y-41768625D01*
X94426742Y-41725782D01*
X94426086Y-41723892D01*
X94427394Y-41722380D01*
X94428440Y-41722307D01*
X94482199Y-41733000D01*
G37*
G36*
X86132199Y-40933000D02*
G01*
X87381801Y-40933000D01*
X87435334Y-40922352D01*
X87437228Y-40922995D01*
X87437618Y-40924957D01*
X87437018Y-40925839D01*
X87389110Y-40966488D01*
X87368908Y-41032734D01*
X87387726Y-41099375D01*
X87437258Y-41142218D01*
X87437914Y-41144108D01*
X87436606Y-41145620D01*
X87435560Y-41145693D01*
X87381801Y-41135000D01*
X86132199Y-41135000D01*
X86078666Y-41145648D01*
X86076772Y-41145005D01*
X86076382Y-41143043D01*
X86076982Y-41142161D01*
X86124890Y-41101512D01*
X86145092Y-41035266D01*
X86126274Y-40968625D01*
X86076742Y-40925782D01*
X86076086Y-40923892D01*
X86077394Y-40922380D01*
X86078440Y-40922307D01*
X86132199Y-40933000D01*
G37*
G36*
X94482199Y-40933000D02*
G01*
X95731801Y-40933000D01*
X95785334Y-40922352D01*
X95787228Y-40922995D01*
X95787618Y-40924957D01*
X95787018Y-40925839D01*
X95739110Y-40966488D01*
X95718908Y-41032734D01*
X95737726Y-41099375D01*
X95787258Y-41142218D01*
X95787914Y-41144108D01*
X95786606Y-41145620D01*
X95785560Y-41145693D01*
X95731801Y-41135000D01*
X94482199Y-41135000D01*
X94428666Y-41145648D01*
X94426772Y-41145005D01*
X94426382Y-41143043D01*
X94426982Y-41142161D01*
X94474890Y-41101512D01*
X94495092Y-41035266D01*
X94476274Y-40968625D01*
X94426742Y-40925782D01*
X94426086Y-40923892D01*
X94427394Y-40922380D01*
X94428440Y-40922307D01*
X94482199Y-40933000D01*
G37*
G36*
X88643620Y-38579394D02*
G01*
X88643693Y-38580440D01*
X88633000Y-38634199D01*
X88633000Y-39883801D01*
X88643648Y-39937334D01*
X88643005Y-39939228D01*
X88641043Y-39939618D01*
X88640161Y-39939018D01*
X88599512Y-39891110D01*
X88533266Y-39870908D01*
X88466625Y-39889726D01*
X88423782Y-39939258D01*
X88421892Y-39939914D01*
X88420380Y-39938606D01*
X88420307Y-39937560D01*
X88431000Y-39883801D01*
X88431000Y-38634199D01*
X88420352Y-38580666D01*
X88420995Y-38578772D01*
X88422957Y-38578382D01*
X88423839Y-38578982D01*
X88464488Y-38626890D01*
X88530734Y-38647092D01*
X88597375Y-38628274D01*
X88640218Y-38578742D01*
X88642108Y-38578086D01*
X88643620Y-38579394D01*
G37*
G36*
X91843620Y-38579394D02*
G01*
X91843693Y-38580440D01*
X91833000Y-38634199D01*
X91833000Y-39883801D01*
X91843648Y-39937334D01*
X91843005Y-39939228D01*
X91841043Y-39939618D01*
X91840161Y-39939018D01*
X91799512Y-39891110D01*
X91733266Y-39870908D01*
X91666625Y-39889726D01*
X91623782Y-39939258D01*
X91621892Y-39939914D01*
X91620380Y-39938606D01*
X91620307Y-39937560D01*
X91631000Y-39883801D01*
X91631000Y-38634199D01*
X91620352Y-38580666D01*
X91620995Y-38578772D01*
X91622957Y-38578382D01*
X91623839Y-38578982D01*
X91664488Y-38626890D01*
X91730734Y-38647092D01*
X91797375Y-38628274D01*
X91840218Y-38578742D01*
X91842108Y-38578086D01*
X91843620Y-38579394D01*
G37*
G36*
X89443620Y-38579394D02*
G01*
X89443693Y-38580440D01*
X89433000Y-38634199D01*
X89433000Y-39883801D01*
X89443648Y-39937334D01*
X89443005Y-39939228D01*
X89441043Y-39939618D01*
X89440161Y-39939018D01*
X89399512Y-39891110D01*
X89333266Y-39870908D01*
X89266625Y-39889726D01*
X89223782Y-39939258D01*
X89221892Y-39939914D01*
X89220380Y-39938606D01*
X89220307Y-39937560D01*
X89231000Y-39883801D01*
X89231000Y-38634199D01*
X89220352Y-38580666D01*
X89220995Y-38578772D01*
X89222957Y-38578382D01*
X89223839Y-38578982D01*
X89264488Y-38626890D01*
X89330734Y-38647092D01*
X89397375Y-38628274D01*
X89440218Y-38578742D01*
X89442108Y-38578086D01*
X89443620Y-38579394D01*
G37*
G36*
X90243620Y-38579394D02*
G01*
X90243693Y-38580440D01*
X90233000Y-38634199D01*
X90233000Y-39883801D01*
X90243648Y-39937334D01*
X90243005Y-39939228D01*
X90241043Y-39939618D01*
X90240161Y-39939018D01*
X90199512Y-39891110D01*
X90133266Y-39870908D01*
X90066625Y-39889726D01*
X90023782Y-39939258D01*
X90021892Y-39939914D01*
X90020380Y-39938606D01*
X90020307Y-39937560D01*
X90031000Y-39883801D01*
X90031000Y-38634199D01*
X90020352Y-38580666D01*
X90020995Y-38578772D01*
X90022957Y-38578382D01*
X90023839Y-38578982D01*
X90064488Y-38626890D01*
X90130734Y-38647092D01*
X90197375Y-38628274D01*
X90240218Y-38578742D01*
X90242108Y-38578086D01*
X90243620Y-38579394D01*
G37*
G36*
X91043620Y-38579394D02*
G01*
X91043693Y-38580440D01*
X91033000Y-38634199D01*
X91033000Y-39883801D01*
X91043648Y-39937334D01*
X91043005Y-39939228D01*
X91041043Y-39939618D01*
X91040161Y-39939018D01*
X90999512Y-39891110D01*
X90933266Y-39870908D01*
X90866625Y-39889726D01*
X90823782Y-39939258D01*
X90821892Y-39939914D01*
X90820380Y-39938606D01*
X90820307Y-39937560D01*
X90831000Y-39883801D01*
X90831000Y-38634199D01*
X90820352Y-38580666D01*
X90820995Y-38578772D01*
X90822957Y-38578382D01*
X90823839Y-38578982D01*
X90864488Y-38626890D01*
X90930734Y-38647092D01*
X90997375Y-38628274D01*
X91040218Y-38578742D01*
X91042108Y-38578086D01*
X91043620Y-38579394D01*
G37*
G36*
X92643620Y-38579394D02*
G01*
X92643693Y-38580440D01*
X92633000Y-38634199D01*
X92633000Y-39883801D01*
X92643648Y-39937334D01*
X92643005Y-39939228D01*
X92641043Y-39939618D01*
X92640161Y-39939018D01*
X92599512Y-39891110D01*
X92533266Y-39870908D01*
X92466625Y-39889726D01*
X92423782Y-39939258D01*
X92421892Y-39939914D01*
X92420380Y-39938606D01*
X92420307Y-39937560D01*
X92431000Y-39883801D01*
X92431000Y-38634199D01*
X92420352Y-38580666D01*
X92420995Y-38578772D01*
X92422957Y-38578382D01*
X92423839Y-38578982D01*
X92464488Y-38626890D01*
X92530734Y-38647092D01*
X92597375Y-38628274D01*
X92640218Y-38578742D01*
X92642108Y-38578086D01*
X92643620Y-38579394D01*
G37*
G36*
X93443620Y-38579394D02*
G01*
X93443693Y-38580440D01*
X93433000Y-38634199D01*
X93433000Y-39883801D01*
X93443648Y-39937334D01*
X93443005Y-39939228D01*
X93441043Y-39939618D01*
X93440161Y-39939018D01*
X93399512Y-39891110D01*
X93333266Y-39870908D01*
X93266625Y-39889726D01*
X93223782Y-39939258D01*
X93221892Y-39939914D01*
X93220380Y-39938606D01*
X93220307Y-39937560D01*
X93231000Y-39883801D01*
X93231000Y-38634199D01*
X93220352Y-38580666D01*
X93220995Y-38578772D01*
X93222957Y-38578382D01*
X93223839Y-38578982D01*
X93264488Y-38626890D01*
X93330734Y-38647092D01*
X93397375Y-38628274D01*
X93440218Y-38578742D01*
X93442108Y-38578086D01*
X93443620Y-38579394D01*
G37*
M02*
