M48
; DRILL file {KiCad 6.0.6-1.fc35} date Tue 26 Jul 2022 09:01:35 PM CEST
; FORMAT={-:-/ absolute / inch / decimal}
; #@! TF.CreationDate,2022-07-26T21:01:35+02:00
; #@! TF.GenerationSoftware,Kicad,Pcbnew,6.0.6-1.fc35
; #@! TF.FileFunction,Plated,1,4,PTH
FMAT,2
INCH
; #@! TA.AperFunction,Plated,PTH,ViaDrill
T1C0.0079
; #@! TA.AperFunction,Plated,PTH,ComponentDrill
T2C0.0098
; #@! TA.AperFunction,Plated,PTH,ViaDrill
T3C0.0118
; #@! TA.AperFunction,Plated,PTH,ViaDrill
T4C0.0157
; #@! TA.AperFunction,Plated,PTH,ComponentDrill
T5C0.0394
%
G90
G05
T1
X2.7874Y-2.2953
X2.89Y-1.74
X2.89Y-1.78
X2.8992Y-2.315
X2.9765Y-2.0229
X3.0551Y-2.23
X3.1177Y-1.6346
X3.1765Y-1.7129
X3.252Y-1.4655
X3.252Y-1.5457
X3.3Y-1.7306
X3.3268Y-1.6654
X3.3543Y-1.6299
X3.51Y-1.8138
X3.5108Y-1.7854
X3.5433Y-1.4685
X3.6575Y-1.7004
X3.7854Y-2.2676
X3.815Y-1.7051
X3.9094Y-2.2835
X3.9213Y-2.0906
X3.928Y-1.9736
X3.9291Y-2.2205
X3.9547Y-1.7028
X3.9882Y-1.8228
X4.0004Y-2.2198
X4.0079Y-1.8583
X4.0079Y-2.0945
X4.0315Y-1.9173
X4.0315Y-1.9528
X4.034Y-1.8045
X4.0945Y-1.7165
X4.1447Y-2.0866
X4.1496Y-2.3071
X4.1593Y-2.3325
X4.222Y-2.2092
X4.2874Y-2.1772
T2
X4.273Y-1.8324
X4.273Y-1.8776
X4.273Y-1.9227
X4.3164Y-1.8324
X4.3164Y-1.8776
X4.3164Y-1.9227
T3
X2.7435Y-2.3124
X2.7514Y-1.5644
X2.7514Y-2.4384
X2.7671Y-1.4462
X2.7953Y-1.378
X2.874Y-1.378
X2.8931Y-1.8557
X2.8972Y-2.2711
X2.901Y-1.6588
X2.9049Y-2.3557
X2.94Y-2.3511
X2.9528Y-1.378
X2.9677Y-2.1088
X2.9765Y-1.8535
X2.9882Y-1.6969
X2.9921Y-1.622
X3.0315Y-1.378
X3.0434Y-2.2703
X3.0465Y-2.0629
X3.0488Y-2.16
X3.0663Y-2.4384
X3.1272Y-2.0844
X3.1299Y-1.311
X3.2Y-2.3
X3.2065Y-1.8535
X3.2065Y-2.0529
X3.2087Y-2.1575
X3.2283Y-1.9685
X3.2457Y-1.6977
X3.2474Y-1.8951
X3.26Y-2.11
X3.2677Y-2.1417
X3.2785Y-1.7981
X3.3098Y-1.5185
X3.3465Y-1.8504
X3.36Y-1.59
X3.36Y-2.13
X3.38Y-1.96
X3.3858Y-2.4409
X3.43Y-1.93
X3.44Y-1.53
X3.4646Y-1.6142
X3.5433Y-1.7323
X3.56Y-1.65
X3.59Y-1.79
X3.59Y-2.21
X3.5905Y-1.721
X3.61Y-1.43
X3.62Y-2.11
X3.622Y-1.378
X3.65Y-2.35
X3.66Y-1.76
X3.6614Y-2.2047
X3.6995Y-1.4911
X3.7165Y-2.1772
X3.7306Y-1.4564
X3.7598Y-2.0472
X3.76Y-1.84
X3.7913Y-1.6575
X3.8Y-1.53
X3.84Y-1.82
X3.8474Y-1.9328
X3.8651Y-1.7012
X3.9482Y-1.8006
X3.95Y-1.89
X3.9718Y-1.315
X3.9764Y-1.7283
X4.0157Y-2.3228
X4.0551Y-1.7717
X4.0945Y-1.378
X4.1347Y-1.8076
X4.2126Y-2.4016
X4.2283Y-2.0551
X4.2559Y-1.3583
X4.2717Y-1.5
X4.2717Y-2.0394
X4.2874Y-1.9567
X4.2913Y-2.4016
X4.2953Y-1.7874
X4.3031Y-2.0709
X4.3386Y-1.5945
X4.3701Y-2.4016
X4.3896Y-1.9722
X4.3937Y-1.4488
X4.397Y-2.2179
X4.397Y-2.3439
X4.3976Y-1.3622
X4.4206Y-2.1706
X4.4291Y-1.7677
T4
X2.8268Y-2.1732
T5
X2.8189Y-1.9778
X2.8189Y-2.0778
X3.1296Y-1.3935
X3.1296Y-2.3935
X3.2296Y-1.3935
X3.2296Y-2.3935
X3.3296Y-1.3935
X3.3296Y-2.3935
X3.4296Y-1.3935
X3.4296Y-2.3935
X3.5296Y-1.3935
X3.5296Y-2.3935
X3.7296Y-1.3935
X3.7296Y-2.3935
X3.8296Y-1.3935
X3.8296Y-2.3935
X3.9296Y-1.3935
X3.9296Y-2.3935
X4.0296Y-1.3935
X4.0296Y-2.3935
X4.1296Y-2.3935
T0
M30
