%TF.GenerationSoftware,KiCad,Pcbnew,6.0.6-1.fc35*%
%TF.CreationDate,2022-07-26T21:01:35+02:00*%
%TF.ProjectId,Nixiewatch,4e697869-6577-4617-9463-682e6b696361,rev?*%
%TF.SameCoordinates,Original*%
%TF.FileFunction,Copper,L2,Inr*%
%TF.FilePolarity,Positive*%
%FSLAX46Y46*%
G04 Gerber Fmt 4.6, Leading zero omitted, Abs format (unit mm)*
G04 Created by KiCad (PCBNEW 6.0.6-1.fc35) date 2022-07-26 21:01:35*
%MOMM*%
%LPD*%
G01*
G04 APERTURE LIST*
%TA.AperFunction,ComponentPad*%
%ADD10C,1.700000*%
%TD*%
%TA.AperFunction,ComponentPad*%
%ADD11R,1.700000X1.700000*%
%TD*%
%TA.AperFunction,ComponentPad*%
%ADD12O,1.700000X1.700000*%
%TD*%
%TA.AperFunction,ComponentPad*%
%ADD13C,0.550000*%
%TD*%
%TA.AperFunction,ViaPad*%
%ADD14C,0.600000*%
%TD*%
%TA.AperFunction,ViaPad*%
%ADD15C,0.450000*%
%TD*%
%TA.AperFunction,ViaPad*%
%ADD16C,0.800000*%
%TD*%
%TA.AperFunction,Conductor*%
%ADD17C,0.500000*%
%TD*%
%TA.AperFunction,Conductor*%
%ADD18C,0.700000*%
%TD*%
%TA.AperFunction,Conductor*%
%ADD19C,0.200000*%
%TD*%
G04 APERTURE END LIST*
D10*
%TO.N,Net-(IC2-Pad1)*%
%TO.C,IC2*%
X79492001Y-60794000D03*
%TO.N,Net-(IC2-Pad2)*%
X82032001Y-60794000D03*
%TO.N,Net-(IC2-Pad3)*%
X84572001Y-60794000D03*
%TO.N,Net-(IC2-Pad4)*%
X87112001Y-60794000D03*
%TO.N,Net-(IC2-Pad10)*%
X89652001Y-60794000D03*
%TO.N,Net-(IC2-Pad1)*%
X94732001Y-60794000D03*
%TO.N,Net-(IC2-Pad7)*%
X97272001Y-60794000D03*
%TO.N,Net-(IC2-Pad3)*%
X99812001Y-60794000D03*
%TO.N,Net-(IC2-Pad4)*%
X102352001Y-60794000D03*
%TO.N,Net-(IC2-Pad10)*%
X104892001Y-60794000D03*
%TO.N,Net-(IC2-Pad11)*%
X102352001Y-35394000D03*
%TO.N,Net-(IC2-Pad12)*%
X99812001Y-35394000D03*
%TO.N,Net-(IC2-Pad13)*%
X97272001Y-35394000D03*
%TO.N,Net-(IC2-Pad14)*%
X94732001Y-35394000D03*
%TO.N,N/C*%
X89652001Y-35394000D03*
%TO.N,Net-(IC2-Pad11)*%
X87112001Y-35394000D03*
%TO.N,Net-(IC2-Pad12)*%
X84572001Y-35394000D03*
%TO.N,Net-(IC2-Pad13)*%
X82032001Y-35394000D03*
%TO.N,Net-(IC2-Pad14)*%
X79492001Y-35394000D03*
%TD*%
D11*
%TO.N,+BATT*%
%TO.C,J1*%
X71600000Y-52775000D03*
D12*
%TO.N,GND*%
X71600000Y-50235000D03*
%TD*%
D13*
%TO.N,GND*%
%TO.C,IC1*%
X109635500Y-48837500D03*
X108534500Y-46542500D03*
X109635500Y-47690000D03*
X108534500Y-48837500D03*
X108534500Y-47690000D03*
X109635500Y-46542500D03*
%TD*%
D14*
%TO.N,GND*%
X82484500Y-48134500D03*
X100284500Y-45734500D03*
X69884500Y-61934500D03*
X77884500Y-61934500D03*
%TO.N,/MCU/STAT*%
X69684500Y-58734500D03*
%TO.N,GND*%
X73484500Y-47134500D03*
X73684500Y-42134500D03*
X69884500Y-39734500D03*
X70284500Y-36734500D03*
X73588500Y-57686500D03*
%TO.N,/MCU/STAT*%
X93966500Y-37874500D03*
%TO.N,+BATT*%
X81280000Y-58420000D03*
D15*
%TO.N,/MCU/USB_N*%
X73406000Y-44196000D03*
%TO.N,/MCU/USB_P*%
X73406000Y-45212000D03*
%TO.N,GND*%
X77600000Y-56642000D03*
%TO.N,+5V*%
X73639002Y-58800000D03*
X70800000Y-58300000D03*
D16*
%TO.N,+BATT*%
X71800000Y-55200000D03*
D15*
%TO.N,GND*%
X105646056Y-59246056D03*
X92900000Y-43189330D03*
X102400000Y-49600000D03*
D14*
X108900000Y-49700000D03*
D15*
X102400000Y-48700000D03*
D14*
X79431561Y-52944748D03*
X102000000Y-59000000D03*
X76000000Y-41200000D03*
X103000000Y-45000000D03*
X109000000Y-61000000D03*
X90000000Y-44000000D03*
D15*
X108899500Y-55300000D03*
D14*
X77301523Y-57666415D03*
X81444000Y-47079979D03*
X108500000Y-51800000D03*
X111000000Y-61000000D03*
X75000000Y-35000000D03*
X100330000Y-48006000D03*
X84069023Y-38569023D03*
X95504000Y-46736000D03*
X109300000Y-52600000D03*
X77440000Y-54864000D03*
X104000000Y-35000000D03*
X108100000Y-34500000D03*
D15*
X101610885Y-56383155D03*
D14*
X77380000Y-52398000D03*
D15*
X99800000Y-56400000D03*
D14*
X93000000Y-56000000D03*
X73000000Y-35000000D03*
D15*
X101800000Y-53200000D03*
D14*
X85344000Y-40386000D03*
X111684500Y-56334500D03*
X77000000Y-35000000D03*
X75900000Y-43100000D03*
X107000000Y-61000000D03*
X75602000Y-47079979D03*
X92000000Y-35000000D03*
D15*
X107240031Y-56114609D03*
D14*
X83000000Y-54400000D03*
X85344000Y-54102000D03*
X73784500Y-59834500D03*
X111684500Y-59534500D03*
X111700000Y-34600000D03*
D15*
X96900000Y-43309500D03*
D14*
X88000000Y-41000000D03*
X81500000Y-54800000D03*
D15*
X105400000Y-58600000D03*
X105275498Y-53000000D03*
D14*
X87122000Y-49022000D03*
X71000000Y-35000000D03*
D15*
X104000000Y-43600000D03*
D14*
X82000000Y-50000000D03*
X86000000Y-62000000D03*
D15*
X100449580Y-43250421D03*
D14*
X109100000Y-45400000D03*
X112284500Y-55134500D03*
D15*
X99600000Y-53100000D03*
X85200000Y-41400000D03*
D14*
X100884500Y-33400000D03*
X79500000Y-33300000D03*
X85000000Y-47000000D03*
X75379680Y-53562399D03*
D15*
%TO.N,+12V*%
X101800000Y-47200000D03*
D14*
%TO.N,Net-(C5-Pad2)*%
X111600000Y-36800000D03*
%TO.N,Net-(C6-Pad2)*%
X108500000Y-38100000D03*
X110200000Y-40500000D03*
%TO.N,VAA*%
X94400000Y-55300000D03*
X85852000Y-49784000D03*
X112500000Y-44900000D03*
X91948000Y-53594000D03*
%TO.N,Net-(IC1-Pad9)*%
X111496007Y-50092869D03*
D15*
%TO.N,+BATT*%
X96150047Y-57596959D03*
D14*
%TO.N,+3V3*%
X74676000Y-59718500D03*
X81444000Y-52144000D03*
X90424000Y-41910000D03*
X91186000Y-56134000D03*
D15*
X83820000Y-43957979D03*
D14*
X82440000Y-43122000D03*
X92964000Y-44704000D03*
X83274924Y-45671254D03*
X87376000Y-38862000D03*
D15*
X75602000Y-51382000D03*
%TO.N,/PSU/HV_EN*%
X101300000Y-46300000D03*
X102464804Y-45835196D03*
D14*
X105021000Y-45912000D03*
D15*
X99770878Y-50129122D03*
X99300000Y-58000000D03*
D14*
%TO.N,Net-(IC2-Pad13)*%
X91694000Y-36322000D03*
X94756333Y-36991990D03*
%TO.N,Net-(IC2-Pad3)*%
X92710000Y-59690000D03*
D15*
%TO.N,SDA*%
X80682000Y-43508000D03*
X84500000Y-42300000D03*
D14*
%TO.N,nixie_g*%
X91198944Y-43713830D03*
%TO.N,nixie_f*%
X96300000Y-42100000D03*
%TO.N,nixie_e*%
X82804000Y-53594000D03*
%TO.N,nixie_d*%
X95500000Y-52000000D03*
%TO.N,nixie_c*%
X97536000Y-46228000D03*
%TO.N,nixie_b*%
X101000000Y-43900000D03*
%TO.N,nixie_a*%
X98172868Y-43211525D03*
%TO.N,nixie_dp*%
X107400000Y-52200000D03*
%TO.N,nixie_1*%
X91186000Y-45466000D03*
%TO.N,nixie_2*%
X97723203Y-49093584D03*
D15*
%TO.N,/MCU/USB_P*%
X89154000Y-46070000D03*
%TO.N,/MCU/USB_N*%
X89175239Y-45348761D03*
D14*
%TO.N,Net-(Q7-Pad2)*%
X96520000Y-38862000D03*
D15*
%TO.N,/MCU/BAT*%
X82600000Y-39261500D03*
X82600000Y-37224500D03*
X90000000Y-37300000D03*
X79189388Y-41518571D03*
%TD*%
D17*
%TO.N,+3V3*%
X76310114Y-59718500D02*
X79894614Y-56134000D01*
X74676000Y-59718500D02*
X76310114Y-59718500D01*
X79894614Y-56134000D02*
X84074000Y-56134000D01*
D18*
%TO.N,+BATT*%
X96150047Y-57596959D02*
X96047006Y-57700000D01*
X96047006Y-57700000D02*
X82000000Y-57700000D01*
X82000000Y-57700000D02*
X81280000Y-58420000D01*
D19*
%TO.N,/MCU/USB_N*%
X73767989Y-44557989D02*
X88384467Y-44557989D01*
X73767989Y-44557989D02*
X73406000Y-44196000D01*
%TO.N,/MCU/USB_P*%
X88042000Y-44958000D02*
X73660000Y-44958000D01*
X73660000Y-44958000D02*
X73406000Y-45212000D01*
D18*
%TO.N,VAA*%
X94400000Y-55300000D02*
X96338000Y-55300000D01*
X96338000Y-55300000D02*
X97536000Y-54102000D01*
X91948000Y-53594000D02*
X89662000Y-53594000D01*
X89662000Y-53594000D02*
X85852000Y-49784000D01*
X112300000Y-52900000D02*
X112500000Y-52700000D01*
X112500000Y-52700000D02*
X112500000Y-44900000D01*
X111098000Y-54102000D02*
X112300000Y-52900000D01*
X110236000Y-54102000D02*
X111098000Y-54102000D01*
X97536000Y-54102000D02*
X110236000Y-54102000D01*
D17*
%TO.N,+3V3*%
X91186000Y-56134000D02*
X93980000Y-53340000D01*
X87376000Y-38862000D02*
X84836000Y-38862000D01*
X81400000Y-51200000D02*
X75784000Y-51200000D01*
X91948000Y-41656000D02*
X91186000Y-40894000D01*
X92964000Y-44704000D02*
X91948000Y-43688000D01*
X91948000Y-43688000D02*
X91948000Y-41656000D01*
X84074000Y-56134000D02*
X84074000Y-53274000D01*
X83800000Y-39898000D02*
X83800000Y-40000000D01*
X89662000Y-40894000D02*
X87630000Y-38862000D01*
X82000000Y-51200000D02*
X81400000Y-51200000D01*
X75784000Y-51200000D02*
X75602000Y-51382000D01*
X90424000Y-40894000D02*
X90424000Y-41910000D01*
X84836000Y-38862000D02*
X83820000Y-39878000D01*
X81444000Y-51244000D02*
X81400000Y-51200000D01*
X83820000Y-39878000D02*
X83800000Y-39898000D01*
X84074000Y-56134000D02*
X91186000Y-56134000D01*
X93980000Y-53340000D02*
X93980000Y-45720000D01*
X84074000Y-53274000D02*
X82000000Y-51200000D01*
X83820000Y-39878000D02*
X83820000Y-43957979D01*
X91186000Y-40894000D02*
X90424000Y-40894000D01*
X81444000Y-52144000D02*
X81444000Y-51244000D01*
X90424000Y-40894000D02*
X89662000Y-40894000D01*
X93980000Y-45720000D02*
X92964000Y-44704000D01*
X87630000Y-38862000D02*
X87376000Y-38862000D01*
D19*
%TO.N,/MCU/USB_P*%
X89154000Y-46070000D02*
X88042000Y-44958000D01*
%TO.N,/MCU/USB_N*%
X88384467Y-44557989D02*
X89175239Y-45348761D01*
%TD*%
%TA.AperFunction,Conductor*%
%TO.N,GND*%
G36*
X79933621Y-32063002D02*
G01*
X79980114Y-32116658D01*
X79991500Y-32169000D01*
X79991500Y-33491377D01*
X79991498Y-33492147D01*
X79991024Y-33569721D01*
X79993491Y-33578352D01*
X79999150Y-33598153D01*
X80002728Y-33614915D01*
X80006920Y-33644187D01*
X80010634Y-33652355D01*
X80010634Y-33652356D01*
X80017548Y-33667562D01*
X80023996Y-33685086D01*
X80031051Y-33709771D01*
X80035843Y-33717365D01*
X80035844Y-33717368D01*
X80046830Y-33734780D01*
X80054969Y-33749863D01*
X80067208Y-33776782D01*
X80073069Y-33783584D01*
X80083970Y-33796235D01*
X80095073Y-33811239D01*
X80108776Y-33832958D01*
X80115501Y-33838897D01*
X80115504Y-33838901D01*
X80130938Y-33852532D01*
X80142982Y-33864724D01*
X80156427Y-33880327D01*
X80156430Y-33880329D01*
X80162287Y-33887127D01*
X80169816Y-33892007D01*
X80169817Y-33892008D01*
X80183835Y-33901094D01*
X80198709Y-33912385D01*
X80211217Y-33923431D01*
X80217951Y-33929378D01*
X80244711Y-33941942D01*
X80259691Y-33950263D01*
X80276983Y-33961471D01*
X80276988Y-33961473D01*
X80284515Y-33966352D01*
X80293108Y-33968922D01*
X80293113Y-33968924D01*
X80309120Y-33973711D01*
X80326564Y-33980372D01*
X80341676Y-33987467D01*
X80341678Y-33987468D01*
X80349800Y-33991281D01*
X80358667Y-33992662D01*
X80358668Y-33992662D01*
X80361353Y-33993080D01*
X80379017Y-33995830D01*
X80395732Y-33999613D01*
X80415466Y-34005515D01*
X80415472Y-34005516D01*
X80424066Y-34008086D01*
X80433037Y-34008141D01*
X80433038Y-34008141D01*
X80443097Y-34008202D01*
X80458506Y-34008296D01*
X80459289Y-34008329D01*
X80460386Y-34008500D01*
X80491377Y-34008500D01*
X80492147Y-34008502D01*
X80565785Y-34008952D01*
X80565786Y-34008952D01*
X80569721Y-34008976D01*
X80571065Y-34008592D01*
X80572410Y-34008500D01*
X81238287Y-34008500D01*
X81306408Y-34028502D01*
X81352901Y-34082158D01*
X81363005Y-34152432D01*
X81333511Y-34217012D01*
X81306970Y-34239798D01*
X81305608Y-34240507D01*
X81301472Y-34243612D01*
X81301471Y-34243613D01*
X81284839Y-34256101D01*
X81126966Y-34374635D01*
X80972630Y-34536138D01*
X80865202Y-34693621D01*
X80810294Y-34738621D01*
X80739769Y-34746792D01*
X80676022Y-34715538D01*
X80655325Y-34691054D01*
X80574823Y-34566617D01*
X80574821Y-34566614D01*
X80572015Y-34562277D01*
X80421671Y-34397051D01*
X80417620Y-34393852D01*
X80417616Y-34393848D01*
X80250415Y-34261800D01*
X80250411Y-34261798D01*
X80246360Y-34258598D01*
X80050790Y-34150638D01*
X80045921Y-34148914D01*
X80045917Y-34148912D01*
X79845088Y-34077795D01*
X79845084Y-34077794D01*
X79840213Y-34076069D01*
X79835120Y-34075162D01*
X79835117Y-34075161D01*
X79625374Y-34037800D01*
X79625368Y-34037799D01*
X79620285Y-34036894D01*
X79546453Y-34035992D01*
X79402082Y-34034228D01*
X79402080Y-34034228D01*
X79396912Y-34034165D01*
X79176092Y-34067955D01*
X78963757Y-34137357D01*
X78934798Y-34152432D01*
X78840348Y-34201600D01*
X78765608Y-34240507D01*
X78761475Y-34243610D01*
X78761472Y-34243612D01*
X78737248Y-34261800D01*
X78586966Y-34374635D01*
X78432630Y-34536138D01*
X78306744Y-34720680D01*
X78212689Y-34923305D01*
X78152990Y-35138570D01*
X78129252Y-35360695D01*
X78129549Y-35365848D01*
X78129549Y-35365851D01*
X78135012Y-35460590D01*
X78142111Y-35583715D01*
X78143248Y-35588761D01*
X78143249Y-35588767D01*
X78154195Y-35637335D01*
X78191223Y-35801639D01*
X78229462Y-35895811D01*
X78266547Y-35987140D01*
X78275267Y-36008616D01*
X78314419Y-36072506D01*
X78389292Y-36194688D01*
X78391988Y-36199088D01*
X78538251Y-36367938D01*
X78710127Y-36510632D01*
X78903001Y-36623338D01*
X78907826Y-36625180D01*
X78907827Y-36625181D01*
X78947781Y-36640438D01*
X79111693Y-36703030D01*
X79116761Y-36704061D01*
X79116764Y-36704062D01*
X79218395Y-36724739D01*
X79330598Y-36747567D01*
X79335773Y-36747757D01*
X79335775Y-36747757D01*
X79548674Y-36755564D01*
X79548678Y-36755564D01*
X79553838Y-36755753D01*
X79558958Y-36755097D01*
X79558960Y-36755097D01*
X79770289Y-36728025D01*
X79770290Y-36728025D01*
X79775417Y-36727368D01*
X79784180Y-36724739D01*
X79984430Y-36664661D01*
X79984435Y-36664659D01*
X79989385Y-36663174D01*
X80189995Y-36564896D01*
X80371861Y-36435173D01*
X80403536Y-36403609D01*
X80462634Y-36344717D01*
X80530097Y-36277489D01*
X80541632Y-36261437D01*
X80660454Y-36096077D01*
X80661777Y-36097028D01*
X80708646Y-36053857D01*
X80778581Y-36041625D01*
X80844027Y-36069144D01*
X80871876Y-36100994D01*
X80931988Y-36199088D01*
X81078251Y-36367938D01*
X81250127Y-36510632D01*
X81443001Y-36623338D01*
X81447826Y-36625180D01*
X81447827Y-36625181D01*
X81487781Y-36640438D01*
X81651693Y-36703030D01*
X81841243Y-36741595D01*
X81904006Y-36774775D01*
X81938868Y-36836623D01*
X81934521Y-36908158D01*
X81884966Y-37044309D01*
X81884965Y-37044314D01*
X81882556Y-37050932D01*
X81861931Y-37214194D01*
X81877989Y-37377968D01*
X81929932Y-37534115D01*
X81933581Y-37540140D01*
X81994095Y-37640059D01*
X82015179Y-37674873D01*
X82020070Y-37679938D01*
X82020071Y-37679939D01*
X82073353Y-37735114D01*
X82129491Y-37793247D01*
X82267189Y-37883354D01*
X82421428Y-37940715D01*
X82428409Y-37941646D01*
X82428411Y-37941647D01*
X82577561Y-37961548D01*
X82577565Y-37961548D01*
X82584542Y-37962479D01*
X82591553Y-37961841D01*
X82591557Y-37961841D01*
X82741403Y-37948204D01*
X82741404Y-37948204D01*
X82748424Y-37947565D01*
X82812504Y-37926744D01*
X82898230Y-37898890D01*
X82898233Y-37898889D01*
X82904929Y-37896713D01*
X83046279Y-37812451D01*
X83165449Y-37698968D01*
X83171291Y-37690175D01*
X83252614Y-37567775D01*
X83252615Y-37567773D01*
X83256515Y-37561903D01*
X83314951Y-37408068D01*
X83329066Y-37307633D01*
X83337302Y-37249034D01*
X83337303Y-37249027D01*
X83337853Y-37245110D01*
X83338141Y-37224500D01*
X83319798Y-37060966D01*
X83313998Y-37044309D01*
X83267998Y-36912217D01*
X83265680Y-36905560D01*
X83216365Y-36826639D01*
X83182209Y-36771979D01*
X83178476Y-36766005D01*
X83112705Y-36699773D01*
X83067486Y-36654237D01*
X83067482Y-36654234D01*
X83062522Y-36649239D01*
X83005562Y-36613091D01*
X82972269Y-36591962D01*
X82925471Y-36538572D01*
X82914966Y-36468357D01*
X82944090Y-36403609D01*
X82950844Y-36396326D01*
X83002634Y-36344717D01*
X83070097Y-36277489D01*
X83081632Y-36261437D01*
X83200454Y-36096077D01*
X83201777Y-36097028D01*
X83248646Y-36053857D01*
X83318581Y-36041625D01*
X83384027Y-36069144D01*
X83411876Y-36100994D01*
X83471988Y-36199088D01*
X83618251Y-36367938D01*
X83790127Y-36510632D01*
X83983001Y-36623338D01*
X83987826Y-36625180D01*
X83987827Y-36625181D01*
X84027781Y-36640438D01*
X84191693Y-36703030D01*
X84196761Y-36704061D01*
X84196764Y-36704062D01*
X84298395Y-36724739D01*
X84410598Y-36747567D01*
X84415773Y-36747757D01*
X84415775Y-36747757D01*
X84628674Y-36755564D01*
X84628678Y-36755564D01*
X84633838Y-36755753D01*
X84638958Y-36755097D01*
X84638960Y-36755097D01*
X84850289Y-36728025D01*
X84850290Y-36728025D01*
X84855417Y-36727368D01*
X84864180Y-36724739D01*
X85064430Y-36664661D01*
X85064435Y-36664659D01*
X85069385Y-36663174D01*
X85269995Y-36564896D01*
X85451861Y-36435173D01*
X85483536Y-36403609D01*
X85542634Y-36344717D01*
X85610097Y-36277489D01*
X85621632Y-36261437D01*
X85740454Y-36096077D01*
X85741777Y-36097028D01*
X85788646Y-36053857D01*
X85858581Y-36041625D01*
X85924027Y-36069144D01*
X85951876Y-36100994D01*
X86011988Y-36199088D01*
X86158251Y-36367938D01*
X86330127Y-36510632D01*
X86523001Y-36623338D01*
X86527826Y-36625180D01*
X86527827Y-36625181D01*
X86567781Y-36640438D01*
X86731693Y-36703030D01*
X86736761Y-36704061D01*
X86736764Y-36704062D01*
X86838395Y-36724739D01*
X86950598Y-36747567D01*
X86955773Y-36747757D01*
X86955775Y-36747757D01*
X87168674Y-36755564D01*
X87168678Y-36755564D01*
X87173838Y-36755753D01*
X87178958Y-36755097D01*
X87178960Y-36755097D01*
X87390289Y-36728025D01*
X87390290Y-36728025D01*
X87395417Y-36727368D01*
X87404180Y-36724739D01*
X87604430Y-36664661D01*
X87604435Y-36664659D01*
X87609385Y-36663174D01*
X87809995Y-36564896D01*
X87991861Y-36435173D01*
X88023536Y-36403609D01*
X88082634Y-36344717D01*
X88150097Y-36277489D01*
X88161632Y-36261437D01*
X88280454Y-36096077D01*
X88281777Y-36097028D01*
X88328646Y-36053857D01*
X88398581Y-36041625D01*
X88464027Y-36069144D01*
X88491876Y-36100994D01*
X88551988Y-36199088D01*
X88698251Y-36367938D01*
X88870127Y-36510632D01*
X89063001Y-36623338D01*
X89067826Y-36625180D01*
X89067827Y-36625181D01*
X89107781Y-36640438D01*
X89271693Y-36703030D01*
X89303526Y-36709507D01*
X89366289Y-36742686D01*
X89401152Y-36804534D01*
X89397043Y-36875411D01*
X89384318Y-36901227D01*
X89338838Y-36971797D01*
X89336427Y-36978420D01*
X89336426Y-36978423D01*
X89284966Y-37119809D01*
X89284965Y-37119814D01*
X89282556Y-37126432D01*
X89261931Y-37289694D01*
X89277989Y-37453468D01*
X89329932Y-37609615D01*
X89333581Y-37615640D01*
X89407830Y-37738238D01*
X89415179Y-37750373D01*
X89529491Y-37868747D01*
X89667189Y-37958854D01*
X89821428Y-38016215D01*
X89828409Y-38017146D01*
X89828411Y-38017147D01*
X89977561Y-38037048D01*
X89977565Y-38037048D01*
X89984542Y-38037979D01*
X89991553Y-38037341D01*
X89991557Y-38037341D01*
X90141403Y-38023704D01*
X90141404Y-38023704D01*
X90148424Y-38023065D01*
X90177062Y-38013760D01*
X90298230Y-37974390D01*
X90298233Y-37974389D01*
X90304929Y-37972213D01*
X90446279Y-37887951D01*
X90565449Y-37774468D01*
X90585120Y-37744861D01*
X90652614Y-37643275D01*
X90652615Y-37643273D01*
X90656515Y-37637403D01*
X90714951Y-37483568D01*
X90726542Y-37401093D01*
X90737302Y-37324534D01*
X90737303Y-37324527D01*
X90737853Y-37320610D01*
X90738066Y-37305364D01*
X90738086Y-37303962D01*
X90738086Y-37303956D01*
X90738141Y-37300000D01*
X90719798Y-37136466D01*
X90713998Y-37119809D01*
X90667998Y-36987717D01*
X90665680Y-36981060D01*
X90656292Y-36966035D01*
X90582209Y-36847479D01*
X90578476Y-36841505D01*
X90512210Y-36774775D01*
X90467486Y-36729737D01*
X90467482Y-36729734D01*
X90462522Y-36724739D01*
X90442409Y-36711975D01*
X90395611Y-36658587D01*
X90385106Y-36588371D01*
X90414230Y-36523623D01*
X90436755Y-36503012D01*
X90527655Y-36438173D01*
X90531861Y-36435173D01*
X90535518Y-36431529D01*
X90535524Y-36431524D01*
X90672172Y-36295353D01*
X90734543Y-36261437D01*
X90805350Y-36266626D01*
X90862111Y-36309272D01*
X90886510Y-36372308D01*
X90898163Y-36491160D01*
X90955418Y-36663273D01*
X90959065Y-36669295D01*
X90959066Y-36669297D01*
X91040622Y-36803962D01*
X91049380Y-36818424D01*
X91054269Y-36823487D01*
X91054270Y-36823488D01*
X91069357Y-36839111D01*
X91175382Y-36948902D01*
X91327159Y-37048222D01*
X91333763Y-37050678D01*
X91333765Y-37050679D01*
X91490558Y-37108990D01*
X91490560Y-37108990D01*
X91497168Y-37111448D01*
X91580995Y-37122633D01*
X91669980Y-37134507D01*
X91669984Y-37134507D01*
X91676961Y-37135438D01*
X91683972Y-37134800D01*
X91683976Y-37134800D01*
X91826459Y-37121832D01*
X91857600Y-37118998D01*
X91864302Y-37116820D01*
X91864304Y-37116820D01*
X92023409Y-37065124D01*
X92023412Y-37065123D01*
X92030108Y-37062947D01*
X92149139Y-36991990D01*
X92179860Y-36973677D01*
X92179862Y-36973676D01*
X92185912Y-36970069D01*
X92317266Y-36844982D01*
X92417643Y-36693902D01*
X92466648Y-36564896D01*
X92479555Y-36530920D01*
X92479556Y-36530918D01*
X92482055Y-36524338D01*
X92483246Y-36515863D01*
X92506748Y-36348639D01*
X92506748Y-36348636D01*
X92507299Y-36344717D01*
X92507616Y-36322000D01*
X92487397Y-36141745D01*
X92485080Y-36135091D01*
X92430064Y-35977106D01*
X92430062Y-35977103D01*
X92427745Y-35970448D01*
X92381107Y-35895811D01*
X92335359Y-35822598D01*
X92331626Y-35816624D01*
X92316745Y-35801639D01*
X92208778Y-35692915D01*
X92208774Y-35692912D01*
X92203815Y-35687918D01*
X92194599Y-35682069D01*
X92124109Y-35637335D01*
X92050666Y-35590727D01*
X92021463Y-35580328D01*
X91886425Y-35532243D01*
X91886420Y-35532242D01*
X91879790Y-35529881D01*
X91872802Y-35529048D01*
X91872799Y-35529047D01*
X91749698Y-35514368D01*
X91699680Y-35508404D01*
X91692677Y-35509140D01*
X91692676Y-35509140D01*
X91526288Y-35526628D01*
X91526286Y-35526629D01*
X91519288Y-35527364D01*
X91347579Y-35585818D01*
X91193088Y-35680862D01*
X91191665Y-35678549D01*
X91137160Y-35700162D01*
X91067491Y-35686497D01*
X91016269Y-35637335D01*
X90999758Y-35568285D01*
X91000673Y-35558247D01*
X91013093Y-35463908D01*
X91013530Y-35460590D01*
X91015157Y-35394000D01*
X90996853Y-35171361D01*
X90942432Y-34954702D01*
X90853355Y-34749840D01*
X90732015Y-34562277D01*
X90581671Y-34397051D01*
X90577620Y-34393852D01*
X90577616Y-34393848D01*
X90410415Y-34261800D01*
X90410411Y-34261798D01*
X90406360Y-34258598D01*
X90381381Y-34244809D01*
X90331410Y-34194376D01*
X90316638Y-34124934D01*
X90341754Y-34058528D01*
X90398785Y-34016243D01*
X90442274Y-34008500D01*
X93938287Y-34008500D01*
X94006408Y-34028502D01*
X94052901Y-34082158D01*
X94063005Y-34152432D01*
X94033511Y-34217012D01*
X94006970Y-34239798D01*
X94005608Y-34240507D01*
X94001472Y-34243612D01*
X94001471Y-34243613D01*
X93984839Y-34256101D01*
X93826966Y-34374635D01*
X93672630Y-34536138D01*
X93546744Y-34720680D01*
X93452689Y-34923305D01*
X93392990Y-35138570D01*
X93369252Y-35360695D01*
X93369549Y-35365848D01*
X93369549Y-35365851D01*
X93375012Y-35460590D01*
X93382111Y-35583715D01*
X93383248Y-35588761D01*
X93383249Y-35588767D01*
X93394195Y-35637335D01*
X93431223Y-35801639D01*
X93469462Y-35895811D01*
X93506547Y-35987140D01*
X93515267Y-36008616D01*
X93554419Y-36072506D01*
X93629292Y-36194688D01*
X93631988Y-36199088D01*
X93778251Y-36367938D01*
X93950127Y-36510632D01*
X93954594Y-36513242D01*
X93959079Y-36515863D01*
X94007804Y-36567500D01*
X94020876Y-36637283D01*
X94013912Y-36667747D01*
X93975975Y-36771979D01*
X93965530Y-36800675D01*
X93945131Y-36962151D01*
X93944640Y-36966035D01*
X93916258Y-37031112D01*
X93857199Y-37070513D01*
X93832804Y-37075553D01*
X93798789Y-37079128D01*
X93798788Y-37079128D01*
X93791788Y-37079864D01*
X93620079Y-37138318D01*
X93614075Y-37142012D01*
X93471595Y-37229666D01*
X93471592Y-37229668D01*
X93465588Y-37233362D01*
X93460553Y-37238293D01*
X93460550Y-37238295D01*
X93380538Y-37316649D01*
X93335993Y-37360271D01*
X93237735Y-37512738D01*
X93235326Y-37519358D01*
X93235324Y-37519361D01*
X93178722Y-37674873D01*
X93175697Y-37683185D01*
X93152963Y-37863140D01*
X93170663Y-38043660D01*
X93227918Y-38215773D01*
X93231565Y-38221795D01*
X93231566Y-38221797D01*
X93316838Y-38362598D01*
X93321880Y-38370924D01*
X93447882Y-38501402D01*
X93482588Y-38524113D01*
X93591982Y-38595698D01*
X93599659Y-38600722D01*
X93606263Y-38603178D01*
X93606265Y-38603179D01*
X93763058Y-38661490D01*
X93763060Y-38661490D01*
X93769668Y-38663948D01*
X93853179Y-38675091D01*
X93942480Y-38687007D01*
X93942484Y-38687007D01*
X93949461Y-38687938D01*
X93956472Y-38687300D01*
X93956476Y-38687300D01*
X94098959Y-38674332D01*
X94130100Y-38671498D01*
X94136802Y-38669320D01*
X94136804Y-38669320D01*
X94295909Y-38617624D01*
X94295912Y-38617623D01*
X94302608Y-38615447D01*
X94428202Y-38540578D01*
X94452360Y-38526177D01*
X94452362Y-38526176D01*
X94458412Y-38522569D01*
X94589766Y-38397482D01*
X94690143Y-38246402D01*
X94744164Y-38104192D01*
X94752055Y-38083420D01*
X94752056Y-38083418D01*
X94754555Y-38076838D01*
X94779492Y-37899398D01*
X94808780Y-37834724D01*
X94868384Y-37796151D01*
X94892847Y-37791453D01*
X94919933Y-37788988D01*
X94926635Y-37786810D01*
X94926637Y-37786810D01*
X95085742Y-37735114D01*
X95085745Y-37735113D01*
X95092441Y-37732937D01*
X95248245Y-37640059D01*
X95379599Y-37514972D01*
X95479976Y-37363892D01*
X95536842Y-37214194D01*
X95541888Y-37200910D01*
X95541889Y-37200908D01*
X95544388Y-37194328D01*
X95551741Y-37142012D01*
X95569081Y-37018629D01*
X95569081Y-37018626D01*
X95569632Y-37014707D01*
X95569949Y-36991990D01*
X95549730Y-36811735D01*
X95547223Y-36804534D01*
X95541688Y-36788640D01*
X110786463Y-36788640D01*
X110804163Y-36969160D01*
X110861418Y-37141273D01*
X110865065Y-37147295D01*
X110865066Y-37147297D01*
X110949817Y-37287238D01*
X110955380Y-37296424D01*
X110960269Y-37301487D01*
X110960270Y-37301488D01*
X111022756Y-37366193D01*
X111081382Y-37426902D01*
X111141005Y-37465918D01*
X111223393Y-37519831D01*
X111233159Y-37526222D01*
X111239763Y-37528678D01*
X111239765Y-37528679D01*
X111396558Y-37586990D01*
X111396560Y-37586990D01*
X111403168Y-37589448D01*
X111486732Y-37600598D01*
X111575980Y-37612507D01*
X111575984Y-37612507D01*
X111582961Y-37613438D01*
X111589972Y-37612800D01*
X111589976Y-37612800D01*
X111732459Y-37599832D01*
X111763600Y-37596998D01*
X111770302Y-37594820D01*
X111770304Y-37594820D01*
X111929409Y-37543124D01*
X111929412Y-37543123D01*
X111936108Y-37540947D01*
X112061970Y-37465918D01*
X112085860Y-37451677D01*
X112085862Y-37451676D01*
X112091912Y-37448069D01*
X112223266Y-37322982D01*
X112323643Y-37171902D01*
X112381867Y-37018629D01*
X112385555Y-37008920D01*
X112385556Y-37008918D01*
X112388055Y-37002338D01*
X112390110Y-36987717D01*
X112412748Y-36826639D01*
X112412748Y-36826636D01*
X112413299Y-36822717D01*
X112413616Y-36800000D01*
X112393397Y-36619745D01*
X112390646Y-36611844D01*
X112336064Y-36455106D01*
X112336062Y-36455103D01*
X112333745Y-36448448D01*
X112237626Y-36294624D01*
X112220610Y-36277489D01*
X112114778Y-36170915D01*
X112114774Y-36170912D01*
X112109815Y-36165918D01*
X112098697Y-36158862D01*
X112050538Y-36128300D01*
X111956666Y-36068727D01*
X111914906Y-36053857D01*
X111792425Y-36010243D01*
X111792420Y-36010242D01*
X111785790Y-36007881D01*
X111778802Y-36007048D01*
X111778799Y-36007047D01*
X111655698Y-35992368D01*
X111605680Y-35986404D01*
X111598677Y-35987140D01*
X111598676Y-35987140D01*
X111432288Y-36004628D01*
X111432286Y-36004629D01*
X111425288Y-36005364D01*
X111253579Y-36063818D01*
X111247575Y-36067512D01*
X111105095Y-36155166D01*
X111105092Y-36155168D01*
X111099088Y-36158862D01*
X111094053Y-36163793D01*
X111094050Y-36163795D01*
X111054026Y-36202990D01*
X110969493Y-36285771D01*
X110871235Y-36438238D01*
X110868826Y-36444858D01*
X110868824Y-36444861D01*
X110820329Y-36578100D01*
X110809197Y-36608685D01*
X110786463Y-36788640D01*
X95541688Y-36788640D01*
X95490078Y-36640438D01*
X95491571Y-36639918D01*
X95481519Y-36578100D01*
X95509818Y-36512987D01*
X95533374Y-36491157D01*
X95611861Y-36435173D01*
X95643536Y-36403609D01*
X95702634Y-36344717D01*
X95770097Y-36277489D01*
X95781632Y-36261437D01*
X95900454Y-36096077D01*
X95901777Y-36097028D01*
X95948646Y-36053857D01*
X96018581Y-36041625D01*
X96084027Y-36069144D01*
X96111876Y-36100994D01*
X96171988Y-36199088D01*
X96318251Y-36367938D01*
X96490127Y-36510632D01*
X96683001Y-36623338D01*
X96687826Y-36625180D01*
X96687827Y-36625181D01*
X96727781Y-36640438D01*
X96891693Y-36703030D01*
X96896761Y-36704061D01*
X96896764Y-36704062D01*
X96998395Y-36724739D01*
X97110598Y-36747567D01*
X97115773Y-36747757D01*
X97115775Y-36747757D01*
X97328674Y-36755564D01*
X97328678Y-36755564D01*
X97333838Y-36755753D01*
X97338958Y-36755097D01*
X97338960Y-36755097D01*
X97550289Y-36728025D01*
X97550290Y-36728025D01*
X97555417Y-36727368D01*
X97564180Y-36724739D01*
X97764430Y-36664661D01*
X97764435Y-36664659D01*
X97769385Y-36663174D01*
X97969995Y-36564896D01*
X98151861Y-36435173D01*
X98183536Y-36403609D01*
X98242634Y-36344717D01*
X98310097Y-36277489D01*
X98321632Y-36261437D01*
X98440454Y-36096077D01*
X98441777Y-36097028D01*
X98488646Y-36053857D01*
X98558581Y-36041625D01*
X98624027Y-36069144D01*
X98651876Y-36100994D01*
X98711988Y-36199088D01*
X98858251Y-36367938D01*
X99030127Y-36510632D01*
X99223001Y-36623338D01*
X99227826Y-36625180D01*
X99227827Y-36625181D01*
X99267781Y-36640438D01*
X99431693Y-36703030D01*
X99436761Y-36704061D01*
X99436764Y-36704062D01*
X99538395Y-36724739D01*
X99650598Y-36747567D01*
X99655773Y-36747757D01*
X99655775Y-36747757D01*
X99868674Y-36755564D01*
X99868678Y-36755564D01*
X99873838Y-36755753D01*
X99878958Y-36755097D01*
X99878960Y-36755097D01*
X100090289Y-36728025D01*
X100090290Y-36728025D01*
X100095417Y-36727368D01*
X100104180Y-36724739D01*
X100304430Y-36664661D01*
X100304435Y-36664659D01*
X100309385Y-36663174D01*
X100509995Y-36564896D01*
X100691861Y-36435173D01*
X100723536Y-36403609D01*
X100782634Y-36344717D01*
X100850097Y-36277489D01*
X100861632Y-36261437D01*
X100980454Y-36096077D01*
X100981777Y-36097028D01*
X101028646Y-36053857D01*
X101098581Y-36041625D01*
X101164027Y-36069144D01*
X101191876Y-36100994D01*
X101251988Y-36199088D01*
X101398251Y-36367938D01*
X101570127Y-36510632D01*
X101763001Y-36623338D01*
X101767826Y-36625180D01*
X101767827Y-36625181D01*
X101807781Y-36640438D01*
X101971693Y-36703030D01*
X101976761Y-36704061D01*
X101976764Y-36704062D01*
X102078395Y-36724739D01*
X102190598Y-36747567D01*
X102195773Y-36747757D01*
X102195775Y-36747757D01*
X102408674Y-36755564D01*
X102408678Y-36755564D01*
X102413838Y-36755753D01*
X102418958Y-36755097D01*
X102418960Y-36755097D01*
X102630289Y-36728025D01*
X102630290Y-36728025D01*
X102635417Y-36727368D01*
X102644180Y-36724739D01*
X102844430Y-36664661D01*
X102844435Y-36664659D01*
X102849385Y-36663174D01*
X103049995Y-36564896D01*
X103231861Y-36435173D01*
X103263536Y-36403609D01*
X103322634Y-36344717D01*
X103390097Y-36277489D01*
X103401632Y-36261437D01*
X103517436Y-36100277D01*
X103520454Y-36096077D01*
X103532104Y-36072506D01*
X103617137Y-35900453D01*
X103617138Y-35900451D01*
X103619431Y-35895811D01*
X103684371Y-35682069D01*
X103713530Y-35460590D01*
X103715157Y-35394000D01*
X103696853Y-35171361D01*
X103642432Y-34954702D01*
X103553355Y-34749840D01*
X103432015Y-34562277D01*
X103281671Y-34397051D01*
X103277620Y-34393852D01*
X103277616Y-34393848D01*
X103110415Y-34261800D01*
X103110411Y-34261798D01*
X103106360Y-34258598D01*
X103081381Y-34244809D01*
X103031410Y-34194376D01*
X103016638Y-34124934D01*
X103041754Y-34058528D01*
X103098785Y-34016243D01*
X103142274Y-34008500D01*
X112765500Y-34008500D01*
X112833621Y-34028502D01*
X112880114Y-34082158D01*
X112891500Y-34134500D01*
X112891500Y-43947485D01*
X112871498Y-44015606D01*
X112817842Y-44062099D01*
X112747568Y-44072203D01*
X112736051Y-44069778D01*
X112732229Y-44068249D01*
X112612452Y-44048420D01*
X112554942Y-44038899D01*
X112554939Y-44038899D01*
X112548205Y-44037784D01*
X112541389Y-44038141D01*
X112541385Y-44038141D01*
X112396525Y-44045734D01*
X112361933Y-44047547D01*
X112182102Y-44097080D01*
X112017102Y-44184075D01*
X112011889Y-44188480D01*
X112011885Y-44188483D01*
X111879847Y-44300064D01*
X111879843Y-44300068D01*
X111874633Y-44304471D01*
X111870486Y-44309895D01*
X111870485Y-44309896D01*
X111765484Y-44447231D01*
X111765481Y-44447235D01*
X111761340Y-44452652D01*
X111682510Y-44621704D01*
X111641820Y-44803740D01*
X111641500Y-44809463D01*
X111641500Y-49154151D01*
X111621498Y-49222272D01*
X111567842Y-49268765D01*
X111514622Y-49280148D01*
X111508677Y-49280107D01*
X111501687Y-49279273D01*
X111494684Y-49280009D01*
X111328295Y-49297497D01*
X111328293Y-49297498D01*
X111321295Y-49298233D01*
X111149586Y-49356687D01*
X111108884Y-49381727D01*
X111001102Y-49448035D01*
X111001099Y-49448037D01*
X110995095Y-49451731D01*
X110990060Y-49456662D01*
X110990057Y-49456664D01*
X110877771Y-49566623D01*
X110865500Y-49578640D01*
X110767242Y-49731107D01*
X110764833Y-49737727D01*
X110764831Y-49737730D01*
X110708965Y-49891221D01*
X110705204Y-49901554D01*
X110682470Y-50081509D01*
X110700170Y-50262029D01*
X110757425Y-50434142D01*
X110761072Y-50440164D01*
X110761073Y-50440166D01*
X110841806Y-50573472D01*
X110851387Y-50589293D01*
X110856276Y-50594356D01*
X110856277Y-50594357D01*
X110892957Y-50632340D01*
X110977389Y-50719771D01*
X111053278Y-50769431D01*
X111075719Y-50784116D01*
X111129166Y-50819091D01*
X111135770Y-50821547D01*
X111135772Y-50821548D01*
X111292565Y-50879859D01*
X111292567Y-50879859D01*
X111299175Y-50882317D01*
X111383002Y-50893502D01*
X111471987Y-50905376D01*
X111471991Y-50905376D01*
X111478968Y-50906307D01*
X111504083Y-50904021D01*
X111573735Y-50917768D01*
X111624899Y-50966990D01*
X111641500Y-51029503D01*
X111641500Y-52292207D01*
X111621498Y-52360328D01*
X111604595Y-52381302D01*
X110779302Y-53206595D01*
X110716990Y-53240621D01*
X110690207Y-53243500D01*
X107599277Y-53243500D01*
X107531156Y-53223498D01*
X107484663Y-53169842D01*
X107474559Y-53099568D01*
X107504053Y-53034988D01*
X107563094Y-52997044D01*
X107563600Y-52996998D01*
X107568198Y-52995504D01*
X107568202Y-52995503D01*
X107729409Y-52943124D01*
X107729412Y-52943123D01*
X107736108Y-52940947D01*
X107832513Y-52883478D01*
X107885860Y-52851677D01*
X107885862Y-52851676D01*
X107891912Y-52848069D01*
X108023266Y-52722982D01*
X108123643Y-52571902D01*
X108188055Y-52402338D01*
X108189035Y-52395366D01*
X108212748Y-52226639D01*
X108212748Y-52226636D01*
X108213299Y-52222717D01*
X108213616Y-52200000D01*
X108193397Y-52019745D01*
X108191080Y-52013091D01*
X108136064Y-51855106D01*
X108136062Y-51855103D01*
X108133745Y-51848448D01*
X108037626Y-51694624D01*
X107998081Y-51654802D01*
X107914778Y-51570915D01*
X107914774Y-51570912D01*
X107909815Y-51565918D01*
X107898697Y-51558862D01*
X107850538Y-51528300D01*
X107756666Y-51468727D01*
X107669535Y-51437701D01*
X107592425Y-51410243D01*
X107592420Y-51410242D01*
X107585790Y-51407881D01*
X107578802Y-51407048D01*
X107578799Y-51407047D01*
X107425404Y-51388756D01*
X107405680Y-51386404D01*
X107398677Y-51387140D01*
X107398676Y-51387140D01*
X107232288Y-51404628D01*
X107232286Y-51404629D01*
X107225288Y-51405364D01*
X107053579Y-51463818D01*
X107039457Y-51472506D01*
X106905095Y-51555166D01*
X106905092Y-51555168D01*
X106899088Y-51558862D01*
X106894053Y-51563793D01*
X106894050Y-51563795D01*
X106787290Y-51668343D01*
X106769493Y-51685771D01*
X106671235Y-51838238D01*
X106668826Y-51844858D01*
X106668824Y-51844861D01*
X106628871Y-51954632D01*
X106609197Y-52008685D01*
X106586463Y-52188640D01*
X106604163Y-52369160D01*
X106661418Y-52541273D01*
X106665065Y-52547295D01*
X106665066Y-52547297D01*
X106715613Y-52630760D01*
X106755380Y-52696424D01*
X106760269Y-52701487D01*
X106760270Y-52701488D01*
X106822409Y-52765834D01*
X106881382Y-52826902D01*
X106887278Y-52830760D01*
X106972279Y-52886383D01*
X107033159Y-52926222D01*
X107039763Y-52928678D01*
X107039765Y-52928679D01*
X107196558Y-52986990D01*
X107196560Y-52986990D01*
X107203168Y-52989448D01*
X107226235Y-52992526D01*
X107226843Y-52992607D01*
X107291720Y-53021443D01*
X107330708Y-53080776D01*
X107331428Y-53151769D01*
X107293653Y-53211882D01*
X107229375Y-53242029D01*
X107210178Y-53243500D01*
X97577390Y-53243500D01*
X97566847Y-53243058D01*
X97514901Y-53238696D01*
X97508141Y-53239598D01*
X97508139Y-53239598D01*
X97434398Y-53249437D01*
X97431343Y-53249807D01*
X97399111Y-53253309D01*
X97350563Y-53258583D01*
X97344099Y-53260758D01*
X97340824Y-53261478D01*
X97340428Y-53261548D01*
X97340004Y-53261671D01*
X97336784Y-53262462D01*
X97330011Y-53263366D01*
X97253677Y-53291149D01*
X97250802Y-53292156D01*
X97232227Y-53298407D01*
X97173777Y-53318078D01*
X97167923Y-53321596D01*
X97164916Y-53322985D01*
X97164511Y-53323152D01*
X97164135Y-53323357D01*
X97161148Y-53324827D01*
X97154732Y-53327162D01*
X97086080Y-53370730D01*
X97083611Y-53372255D01*
X97013891Y-53414147D01*
X97008934Y-53418834D01*
X97006277Y-53420851D01*
X97005543Y-53421361D01*
X97001605Y-53424339D01*
X96997241Y-53427109D01*
X96992968Y-53430929D01*
X96938972Y-53484925D01*
X96936450Y-53487379D01*
X96878364Y-53542308D01*
X96874526Y-53547956D01*
X96870107Y-53553148D01*
X96869707Y-53552808D01*
X96863100Y-53560797D01*
X96019302Y-54404595D01*
X95956990Y-54438621D01*
X95930207Y-54441500D01*
X94353404Y-54441500D01*
X94350008Y-54441869D01*
X94350007Y-54441869D01*
X94257863Y-54451879D01*
X94187980Y-54439351D01*
X94135965Y-54391030D01*
X94118330Y-54322259D01*
X94140676Y-54254870D01*
X94155160Y-54237521D01*
X94468911Y-53923770D01*
X94483323Y-53911384D01*
X94494918Y-53902851D01*
X94494923Y-53902846D01*
X94500818Y-53898508D01*
X94505557Y-53892930D01*
X94505560Y-53892927D01*
X94535035Y-53858232D01*
X94541965Y-53850716D01*
X94547661Y-53845020D01*
X94549924Y-53842159D01*
X94549929Y-53842154D01*
X94565293Y-53822734D01*
X94568082Y-53819333D01*
X94569743Y-53817378D01*
X94615333Y-53763715D01*
X94618659Y-53757202D01*
X94622020Y-53752163D01*
X94625196Y-53747021D01*
X94629734Y-53741284D01*
X94660655Y-53675125D01*
X94662561Y-53671225D01*
X94663331Y-53669717D01*
X94695769Y-53606192D01*
X94697508Y-53599083D01*
X94699604Y-53593449D01*
X94701523Y-53587679D01*
X94704622Y-53581050D01*
X94719491Y-53509565D01*
X94720461Y-53505282D01*
X94725131Y-53486196D01*
X94737808Y-53434390D01*
X94738500Y-53423236D01*
X94738535Y-53423238D01*
X94738775Y-53419266D01*
X94739152Y-53415045D01*
X94740641Y-53407885D01*
X94738546Y-53330458D01*
X94738500Y-53327050D01*
X94738500Y-52687252D01*
X94758502Y-52619131D01*
X94812158Y-52572638D01*
X94882432Y-52562534D01*
X94947012Y-52592028D01*
X94955136Y-52599724D01*
X94981382Y-52626902D01*
X95013729Y-52648069D01*
X95073607Y-52687252D01*
X95133159Y-52726222D01*
X95139763Y-52728678D01*
X95139765Y-52728679D01*
X95296558Y-52786990D01*
X95296560Y-52786990D01*
X95303168Y-52789448D01*
X95386995Y-52800633D01*
X95475980Y-52812507D01*
X95475984Y-52812507D01*
X95482961Y-52813438D01*
X95489972Y-52812800D01*
X95489976Y-52812800D01*
X95632459Y-52799832D01*
X95663600Y-52796998D01*
X95670302Y-52794820D01*
X95670304Y-52794820D01*
X95829409Y-52743124D01*
X95829412Y-52743123D01*
X95836108Y-52740947D01*
X95991912Y-52648069D01*
X96123266Y-52522982D01*
X96223643Y-52371902D01*
X96288055Y-52202338D01*
X96290963Y-52181646D01*
X96312748Y-52026639D01*
X96312748Y-52026636D01*
X96313299Y-52022717D01*
X96313616Y-52000000D01*
X96293397Y-51819745D01*
X96289058Y-51807285D01*
X96236064Y-51655106D01*
X96236062Y-51655103D01*
X96233745Y-51648448D01*
X96227365Y-51638238D01*
X96141359Y-51500598D01*
X96137626Y-51494624D01*
X96126677Y-51483598D01*
X96014778Y-51370915D01*
X96014774Y-51370912D01*
X96009815Y-51365918D01*
X95998697Y-51358862D01*
X95950538Y-51328300D01*
X95856666Y-51268727D01*
X95827463Y-51258328D01*
X95692425Y-51210243D01*
X95692420Y-51210242D01*
X95685790Y-51207881D01*
X95678802Y-51207048D01*
X95678799Y-51207047D01*
X95555698Y-51192368D01*
X95505680Y-51186404D01*
X95498677Y-51187140D01*
X95498676Y-51187140D01*
X95332288Y-51204628D01*
X95332286Y-51204629D01*
X95325288Y-51205364D01*
X95153579Y-51263818D01*
X95091109Y-51302250D01*
X95005095Y-51355166D01*
X95005092Y-51355168D01*
X94999088Y-51358862D01*
X94994053Y-51363793D01*
X94994050Y-51363795D01*
X94952658Y-51404330D01*
X94889993Y-51437701D01*
X94819234Y-51431895D01*
X94762847Y-51388756D01*
X94738734Y-51321980D01*
X94738500Y-51314307D01*
X94738500Y-50118816D01*
X99032809Y-50118816D01*
X99048867Y-50282590D01*
X99100810Y-50438737D01*
X99108322Y-50451140D01*
X99179949Y-50569409D01*
X99186057Y-50579495D01*
X99190948Y-50584560D01*
X99190949Y-50584561D01*
X99213032Y-50607429D01*
X99300369Y-50697869D01*
X99438067Y-50787976D01*
X99592306Y-50845337D01*
X99599287Y-50846268D01*
X99599289Y-50846269D01*
X99748439Y-50866170D01*
X99748443Y-50866170D01*
X99755420Y-50867101D01*
X99762431Y-50866463D01*
X99762435Y-50866463D01*
X99912281Y-50852826D01*
X99912282Y-50852826D01*
X99919302Y-50852187D01*
X99947940Y-50842882D01*
X100069108Y-50803512D01*
X100069111Y-50803511D01*
X100075807Y-50801335D01*
X100217157Y-50717073D01*
X100336327Y-50603590D01*
X100340228Y-50597719D01*
X100423492Y-50472397D01*
X100423493Y-50472395D01*
X100427393Y-50466525D01*
X100485829Y-50312690D01*
X100494385Y-50251811D01*
X100508180Y-50153656D01*
X100508181Y-50153649D01*
X100508731Y-50149732D01*
X100509019Y-50129122D01*
X100490676Y-49965588D01*
X100484876Y-49948931D01*
X100438876Y-49816839D01*
X100436558Y-49810182D01*
X100430743Y-49800875D01*
X100353087Y-49676601D01*
X100349354Y-49670627D01*
X100286350Y-49607182D01*
X100238364Y-49558859D01*
X100238360Y-49558856D01*
X100233400Y-49553861D01*
X100216934Y-49543411D01*
X108193419Y-49543411D01*
X108196202Y-49547129D01*
X108337275Y-49599593D01*
X108350860Y-49602980D01*
X108511017Y-49624350D01*
X108525013Y-49624643D01*
X108685919Y-49609999D01*
X108699644Y-49607182D01*
X108853307Y-49557254D01*
X108865266Y-49551829D01*
X108873071Y-49543411D01*
X109294419Y-49543411D01*
X109297202Y-49547129D01*
X109438275Y-49599593D01*
X109451860Y-49602980D01*
X109612017Y-49624350D01*
X109626013Y-49624643D01*
X109786919Y-49609999D01*
X109800644Y-49607182D01*
X109954307Y-49557254D01*
X109966266Y-49551829D01*
X109975621Y-49541739D01*
X109972116Y-49533326D01*
X109648312Y-49209522D01*
X109634368Y-49201908D01*
X109632535Y-49202039D01*
X109625920Y-49206290D01*
X109301179Y-49531031D01*
X109294419Y-49543411D01*
X108873071Y-49543411D01*
X108874621Y-49541739D01*
X108871116Y-49533326D01*
X108547312Y-49209522D01*
X108533368Y-49201908D01*
X108531535Y-49202039D01*
X108524920Y-49206290D01*
X108200179Y-49531031D01*
X108193419Y-49543411D01*
X100216934Y-49543411D01*
X100094458Y-49465685D01*
X100025241Y-49441038D01*
X99946067Y-49412845D01*
X99946065Y-49412844D01*
X99939433Y-49410483D01*
X99932447Y-49409650D01*
X99932443Y-49409649D01*
X99817949Y-49395997D01*
X99776031Y-49390999D01*
X99769028Y-49391735D01*
X99769027Y-49391735D01*
X99725813Y-49396277D01*
X99612373Y-49408200D01*
X99605705Y-49410470D01*
X99463260Y-49458962D01*
X99463257Y-49458963D01*
X99456593Y-49461232D01*
X99359736Y-49520819D01*
X99325731Y-49541739D01*
X99316433Y-49547459D01*
X99267812Y-49595072D01*
X99237915Y-49624350D01*
X99198860Y-49662595D01*
X99109716Y-49800919D01*
X99107305Y-49807542D01*
X99107304Y-49807545D01*
X99055844Y-49948931D01*
X99055843Y-49948936D01*
X99053434Y-49955554D01*
X99032809Y-50118816D01*
X94738500Y-50118816D01*
X94738500Y-49082224D01*
X96909666Y-49082224D01*
X96927366Y-49262744D01*
X96984621Y-49434857D01*
X96988268Y-49440879D01*
X96988269Y-49440881D01*
X97064421Y-49566623D01*
X97078583Y-49590008D01*
X97204585Y-49720486D01*
X97210481Y-49724344D01*
X97344221Y-49811861D01*
X97356362Y-49819806D01*
X97362966Y-49822262D01*
X97362968Y-49822263D01*
X97519761Y-49880574D01*
X97519763Y-49880574D01*
X97526371Y-49883032D01*
X97610198Y-49894217D01*
X97699183Y-49906091D01*
X97699187Y-49906091D01*
X97706164Y-49907022D01*
X97713175Y-49906384D01*
X97713179Y-49906384D01*
X97855662Y-49893416D01*
X97886803Y-49890582D01*
X97893505Y-49888404D01*
X97893507Y-49888404D01*
X98052612Y-49836708D01*
X98052615Y-49836707D01*
X98059311Y-49834531D01*
X98215115Y-49741653D01*
X98346469Y-49616566D01*
X98446846Y-49465486D01*
X98511258Y-49295922D01*
X98513475Y-49280148D01*
X98535951Y-49120223D01*
X98535951Y-49120220D01*
X98536502Y-49116301D01*
X98536819Y-49093584D01*
X98516600Y-48913329D01*
X98512923Y-48902771D01*
X98488803Y-48833508D01*
X107747310Y-48833508D01*
X107763078Y-48994316D01*
X107765989Y-49008010D01*
X107816989Y-49161323D01*
X107820864Y-49169711D01*
X107829880Y-49177954D01*
X107838497Y-49174293D01*
X108162478Y-48850312D01*
X108168856Y-48838632D01*
X108898908Y-48838632D01*
X108899039Y-48840465D01*
X108903290Y-48847080D01*
X109072188Y-49015978D01*
X109086132Y-49023592D01*
X109087965Y-49023461D01*
X109094580Y-49019210D01*
X109263478Y-48850312D01*
X109269856Y-48838632D01*
X109999908Y-48838632D01*
X110000039Y-48840465D01*
X110004290Y-48847080D01*
X110328617Y-49171407D01*
X110340997Y-49178167D01*
X110344813Y-49175310D01*
X110396199Y-49040038D01*
X110399679Y-49026484D01*
X110422596Y-48863423D01*
X110423202Y-48855541D01*
X110423399Y-48841462D01*
X110423012Y-48833562D01*
X110404658Y-48669927D01*
X110401558Y-48656282D01*
X110348418Y-48503684D01*
X110347792Y-48502377D01*
X110340960Y-48496304D01*
X110331911Y-48500299D01*
X110007522Y-48824688D01*
X109999908Y-48838632D01*
X109269856Y-48838632D01*
X109271092Y-48836368D01*
X109270961Y-48834535D01*
X109266710Y-48827920D01*
X109097812Y-48659022D01*
X109083868Y-48651408D01*
X109082035Y-48651539D01*
X109075420Y-48655790D01*
X108906522Y-48824688D01*
X108898908Y-48838632D01*
X108168856Y-48838632D01*
X108170092Y-48836368D01*
X108169961Y-48834535D01*
X108165710Y-48827920D01*
X107840523Y-48502733D01*
X107828143Y-48495973D01*
X107824521Y-48498684D01*
X107771047Y-48645602D01*
X107767757Y-48659202D01*
X107747506Y-48819511D01*
X107747310Y-48833508D01*
X98488803Y-48833508D01*
X98459267Y-48748690D01*
X98459265Y-48748687D01*
X98456948Y-48742032D01*
X98360829Y-48588208D01*
X98276893Y-48503684D01*
X98237981Y-48464499D01*
X98237977Y-48464496D01*
X98233018Y-48459502D01*
X98221900Y-48452446D01*
X98173741Y-48421884D01*
X98079869Y-48362311D01*
X98050666Y-48351912D01*
X97915628Y-48303827D01*
X97915623Y-48303826D01*
X97908993Y-48301465D01*
X97902005Y-48300632D01*
X97902002Y-48300631D01*
X97778901Y-48285952D01*
X97728883Y-48279988D01*
X97721880Y-48280724D01*
X97721879Y-48280724D01*
X97555491Y-48298212D01*
X97555489Y-48298213D01*
X97548491Y-48298948D01*
X97376782Y-48357402D01*
X97370778Y-48361096D01*
X97228298Y-48448750D01*
X97228295Y-48448752D01*
X97222291Y-48452446D01*
X97217256Y-48457377D01*
X97217253Y-48457379D01*
X97097728Y-48574427D01*
X97092696Y-48579355D01*
X96994438Y-48731822D01*
X96992029Y-48738442D01*
X96992027Y-48738445D01*
X96946539Y-48863423D01*
X96932400Y-48902269D01*
X96909666Y-49082224D01*
X94738500Y-49082224D01*
X94738500Y-48264882D01*
X108325158Y-48264882D01*
X108325289Y-48266715D01*
X108329540Y-48273330D01*
X108521688Y-48465478D01*
X108535632Y-48473092D01*
X108537465Y-48472961D01*
X108544080Y-48468710D01*
X108736228Y-48276562D01*
X108742606Y-48264882D01*
X109426158Y-48264882D01*
X109426289Y-48266715D01*
X109430540Y-48273330D01*
X109622688Y-48465478D01*
X109636632Y-48473092D01*
X109638465Y-48472961D01*
X109645080Y-48468710D01*
X109837228Y-48276562D01*
X109844842Y-48262618D01*
X109844711Y-48260785D01*
X109840460Y-48254170D01*
X109648312Y-48062022D01*
X109634368Y-48054408D01*
X109632535Y-48054539D01*
X109625920Y-48058790D01*
X109433772Y-48250938D01*
X109426158Y-48264882D01*
X108742606Y-48264882D01*
X108743842Y-48262618D01*
X108743711Y-48260785D01*
X108739460Y-48254170D01*
X108547312Y-48062022D01*
X108533368Y-48054408D01*
X108531535Y-48054539D01*
X108524920Y-48058790D01*
X108332772Y-48250938D01*
X108325158Y-48264882D01*
X94738500Y-48264882D01*
X94738500Y-46216640D01*
X96722463Y-46216640D01*
X96740163Y-46397160D01*
X96797418Y-46569273D01*
X96801065Y-46575295D01*
X96801066Y-46575297D01*
X96882425Y-46709637D01*
X96891380Y-46724424D01*
X96896269Y-46729487D01*
X96896270Y-46729488D01*
X96951051Y-46786215D01*
X97017382Y-46854902D01*
X97169159Y-46954222D01*
X97175763Y-46956678D01*
X97175765Y-46956679D01*
X97332558Y-47014990D01*
X97332560Y-47014990D01*
X97339168Y-47017448D01*
X97406499Y-47026432D01*
X97511980Y-47040507D01*
X97511984Y-47040507D01*
X97518961Y-47041438D01*
X97525972Y-47040800D01*
X97525976Y-47040800D01*
X97668459Y-47027832D01*
X97699600Y-47024998D01*
X97706302Y-47022820D01*
X97706304Y-47022820D01*
X97865409Y-46971124D01*
X97865412Y-46971123D01*
X97872108Y-46968947D01*
X97968828Y-46911290D01*
X98021860Y-46879677D01*
X98021862Y-46879676D01*
X98027912Y-46876069D01*
X98159266Y-46750982D01*
X98259643Y-46599902D01*
X98312729Y-46460153D01*
X98321555Y-46436920D01*
X98321556Y-46436918D01*
X98324055Y-46430338D01*
X98325066Y-46423147D01*
X98343821Y-46289694D01*
X100561931Y-46289694D01*
X100577989Y-46453468D01*
X100629932Y-46609615D01*
X100633580Y-46615638D01*
X100700078Y-46725438D01*
X100715179Y-46750373D01*
X100829491Y-46868747D01*
X100967189Y-46958854D01*
X100973793Y-46961310D01*
X100991930Y-46968055D01*
X101048806Y-47010548D01*
X101073680Y-47077044D01*
X101073017Y-47101939D01*
X101061931Y-47189694D01*
X101077989Y-47353468D01*
X101129932Y-47509615D01*
X101215179Y-47650373D01*
X101329491Y-47768747D01*
X101467189Y-47858854D01*
X101621428Y-47916215D01*
X101628409Y-47917146D01*
X101628411Y-47917147D01*
X101777561Y-47937048D01*
X101777565Y-47937048D01*
X101784542Y-47937979D01*
X101791553Y-47937341D01*
X101791557Y-47937341D01*
X101941403Y-47923704D01*
X101941404Y-47923704D01*
X101948424Y-47923065D01*
X102042376Y-47892538D01*
X102098230Y-47874390D01*
X102098233Y-47874389D01*
X102104929Y-47872213D01*
X102246279Y-47787951D01*
X102353331Y-47686008D01*
X107747310Y-47686008D01*
X107763078Y-47846816D01*
X107765989Y-47860510D01*
X107816989Y-48013823D01*
X107820864Y-48022211D01*
X107829880Y-48030454D01*
X107838497Y-48026793D01*
X108162478Y-47702812D01*
X108168856Y-47691132D01*
X108898908Y-47691132D01*
X108899039Y-47692965D01*
X108903290Y-47699580D01*
X109072188Y-47868478D01*
X109086132Y-47876092D01*
X109087965Y-47875961D01*
X109094580Y-47871710D01*
X109263478Y-47702812D01*
X109269856Y-47691132D01*
X109999908Y-47691132D01*
X110000039Y-47692965D01*
X110004290Y-47699580D01*
X110328617Y-48023907D01*
X110340997Y-48030667D01*
X110344813Y-48027810D01*
X110396199Y-47892538D01*
X110399679Y-47878984D01*
X110422596Y-47715923D01*
X110423202Y-47708041D01*
X110423399Y-47693962D01*
X110423012Y-47686062D01*
X110404658Y-47522427D01*
X110401558Y-47508782D01*
X110348418Y-47356184D01*
X110347792Y-47354877D01*
X110340960Y-47348804D01*
X110331911Y-47352799D01*
X110007522Y-47677188D01*
X109999908Y-47691132D01*
X109269856Y-47691132D01*
X109271092Y-47688868D01*
X109270961Y-47687035D01*
X109266710Y-47680420D01*
X109097812Y-47511522D01*
X109083868Y-47503908D01*
X109082035Y-47504039D01*
X109075420Y-47508290D01*
X108906522Y-47677188D01*
X108898908Y-47691132D01*
X108168856Y-47691132D01*
X108170092Y-47688868D01*
X108169961Y-47687035D01*
X108165710Y-47680420D01*
X107840523Y-47355233D01*
X107828143Y-47348473D01*
X107824521Y-47351184D01*
X107771047Y-47498102D01*
X107767757Y-47511702D01*
X107747506Y-47672011D01*
X107747310Y-47686008D01*
X102353331Y-47686008D01*
X102365449Y-47674468D01*
X102381458Y-47650373D01*
X102452614Y-47543275D01*
X102452615Y-47543273D01*
X102456515Y-47537403D01*
X102514951Y-47383568D01*
X102537853Y-47220610D01*
X102538141Y-47200000D01*
X102528874Y-47117382D01*
X108325158Y-47117382D01*
X108325289Y-47119215D01*
X108329540Y-47125830D01*
X108521688Y-47317978D01*
X108535632Y-47325592D01*
X108537465Y-47325461D01*
X108544080Y-47321210D01*
X108736228Y-47129062D01*
X108742606Y-47117382D01*
X109426158Y-47117382D01*
X109426289Y-47119215D01*
X109430540Y-47125830D01*
X109622688Y-47317978D01*
X109636632Y-47325592D01*
X109638465Y-47325461D01*
X109645080Y-47321210D01*
X109837228Y-47129062D01*
X109844842Y-47115118D01*
X109844711Y-47113285D01*
X109840460Y-47106670D01*
X109648312Y-46914522D01*
X109634368Y-46906908D01*
X109632535Y-46907039D01*
X109625920Y-46911290D01*
X109433772Y-47103438D01*
X109426158Y-47117382D01*
X108742606Y-47117382D01*
X108743842Y-47115118D01*
X108743711Y-47113285D01*
X108739460Y-47106670D01*
X108547312Y-46914522D01*
X108533368Y-46906908D01*
X108531535Y-46907039D01*
X108524920Y-46911290D01*
X108332772Y-47103438D01*
X108325158Y-47117382D01*
X102528874Y-47117382D01*
X102519798Y-47036466D01*
X102515805Y-47024998D01*
X102467998Y-46887717D01*
X102465680Y-46881060D01*
X102391298Y-46762024D01*
X102372162Y-46693655D01*
X102393027Y-46625793D01*
X102447269Y-46579985D01*
X102486732Y-46569773D01*
X102606208Y-46558900D01*
X102606209Y-46558900D01*
X102613228Y-46558261D01*
X102670860Y-46539535D01*
X102763034Y-46509586D01*
X102763037Y-46509585D01*
X102769733Y-46507409D01*
X102911083Y-46423147D01*
X103030253Y-46309664D01*
X103043521Y-46289694D01*
X103117418Y-46178471D01*
X103117419Y-46178469D01*
X103121319Y-46172599D01*
X103179755Y-46018764D01*
X103191824Y-45932887D01*
X103196356Y-45900640D01*
X104207463Y-45900640D01*
X104225163Y-46081160D01*
X104282418Y-46253273D01*
X104286065Y-46259295D01*
X104286066Y-46259297D01*
X104371771Y-46400813D01*
X104376380Y-46408424D01*
X104381269Y-46413487D01*
X104381270Y-46413488D01*
X104385909Y-46418292D01*
X104502382Y-46538902D01*
X104578270Y-46588562D01*
X104647217Y-46633679D01*
X104654159Y-46638222D01*
X104660763Y-46640678D01*
X104660765Y-46640679D01*
X104817558Y-46698990D01*
X104817560Y-46698990D01*
X104824168Y-46701448D01*
X104907995Y-46712633D01*
X104996980Y-46724507D01*
X104996984Y-46724507D01*
X105003961Y-46725438D01*
X105010972Y-46724800D01*
X105010976Y-46724800D01*
X105153459Y-46711832D01*
X105184600Y-46708998D01*
X105191302Y-46706820D01*
X105191304Y-46706820D01*
X105350409Y-46655124D01*
X105350412Y-46655123D01*
X105357108Y-46652947D01*
X105490927Y-46573175D01*
X105506860Y-46563677D01*
X105506862Y-46563676D01*
X105512912Y-46560069D01*
X105535553Y-46538508D01*
X107747310Y-46538508D01*
X107763078Y-46699316D01*
X107765989Y-46713010D01*
X107816989Y-46866323D01*
X107820864Y-46874711D01*
X107829880Y-46882954D01*
X107838497Y-46879293D01*
X108162478Y-46555312D01*
X108168856Y-46543632D01*
X108898908Y-46543632D01*
X108899039Y-46545465D01*
X108903290Y-46552080D01*
X109072188Y-46720978D01*
X109086132Y-46728592D01*
X109087965Y-46728461D01*
X109094580Y-46724210D01*
X109263478Y-46555312D01*
X109269856Y-46543632D01*
X109999908Y-46543632D01*
X110000039Y-46545465D01*
X110004290Y-46552080D01*
X110328617Y-46876407D01*
X110340997Y-46883167D01*
X110344813Y-46880310D01*
X110396199Y-46745038D01*
X110399679Y-46731484D01*
X110422596Y-46568423D01*
X110423202Y-46560541D01*
X110423399Y-46546462D01*
X110423012Y-46538562D01*
X110404658Y-46374927D01*
X110401558Y-46361282D01*
X110348418Y-46208684D01*
X110347792Y-46207377D01*
X110340960Y-46201304D01*
X110331911Y-46205299D01*
X110007522Y-46529688D01*
X109999908Y-46543632D01*
X109269856Y-46543632D01*
X109271092Y-46541368D01*
X109270961Y-46539535D01*
X109266710Y-46532920D01*
X109097812Y-46364022D01*
X109083868Y-46356408D01*
X109082035Y-46356539D01*
X109075420Y-46360790D01*
X108906522Y-46529688D01*
X108898908Y-46543632D01*
X108168856Y-46543632D01*
X108170092Y-46541368D01*
X108169961Y-46539535D01*
X108165710Y-46532920D01*
X107840523Y-46207733D01*
X107828143Y-46200973D01*
X107824521Y-46203684D01*
X107771047Y-46350602D01*
X107767757Y-46364202D01*
X107747506Y-46524511D01*
X107747310Y-46538508D01*
X105535553Y-46538508D01*
X105644266Y-46434982D01*
X105744643Y-46283902D01*
X105809055Y-46114338D01*
X105810035Y-46107366D01*
X105833748Y-45938639D01*
X105833748Y-45938636D01*
X105834299Y-45934717D01*
X105834616Y-45912000D01*
X105826256Y-45837473D01*
X108193690Y-45837473D01*
X108197514Y-45846304D01*
X108521688Y-46170478D01*
X108535632Y-46178092D01*
X108537465Y-46177961D01*
X108544080Y-46173710D01*
X108869295Y-45848495D01*
X108875313Y-45837473D01*
X109294690Y-45837473D01*
X109298514Y-45846304D01*
X109622688Y-46170478D01*
X109636632Y-46178092D01*
X109638465Y-46177961D01*
X109645080Y-46173710D01*
X109970295Y-45848495D01*
X109977055Y-45836115D01*
X109973791Y-45831755D01*
X109822064Y-45777727D01*
X109808439Y-45774531D01*
X109647993Y-45755399D01*
X109633997Y-45755301D01*
X109473304Y-45772191D01*
X109459629Y-45775197D01*
X109306669Y-45827270D01*
X109301840Y-45829542D01*
X109294690Y-45837473D01*
X108875313Y-45837473D01*
X108876055Y-45836115D01*
X108872791Y-45831755D01*
X108721064Y-45777727D01*
X108707439Y-45774531D01*
X108546993Y-45755399D01*
X108532997Y-45755301D01*
X108372304Y-45772191D01*
X108358629Y-45775197D01*
X108205669Y-45827270D01*
X108200840Y-45829542D01*
X108193690Y-45837473D01*
X105826256Y-45837473D01*
X105814397Y-45731745D01*
X105811221Y-45722624D01*
X105757064Y-45567106D01*
X105757062Y-45567103D01*
X105754745Y-45560448D01*
X105740373Y-45537447D01*
X105662359Y-45412598D01*
X105658626Y-45406624D01*
X105624395Y-45372153D01*
X105535778Y-45282915D01*
X105535774Y-45282912D01*
X105530815Y-45277918D01*
X105519697Y-45270862D01*
X105447612Y-45225116D01*
X105377666Y-45180727D01*
X105339975Y-45167306D01*
X105213425Y-45122243D01*
X105213420Y-45122242D01*
X105206790Y-45119881D01*
X105199802Y-45119048D01*
X105199799Y-45119047D01*
X105075605Y-45104238D01*
X105026680Y-45098404D01*
X105019677Y-45099140D01*
X105019676Y-45099140D01*
X104853288Y-45116628D01*
X104853286Y-45116629D01*
X104846288Y-45117364D01*
X104674579Y-45175818D01*
X104626351Y-45205488D01*
X104526095Y-45267166D01*
X104526092Y-45267168D01*
X104520088Y-45270862D01*
X104515053Y-45275793D01*
X104515050Y-45275795D01*
X104395525Y-45392843D01*
X104390493Y-45397771D01*
X104292235Y-45550238D01*
X104289826Y-45556858D01*
X104289824Y-45556861D01*
X104232606Y-45714066D01*
X104230197Y-45720685D01*
X104207463Y-45900640D01*
X103196356Y-45900640D01*
X103202106Y-45859730D01*
X103202107Y-45859723D01*
X103202657Y-45855806D01*
X103202872Y-45840414D01*
X103202890Y-45839158D01*
X103202890Y-45839152D01*
X103202945Y-45835196D01*
X103184602Y-45671662D01*
X103176186Y-45647493D01*
X103142318Y-45550238D01*
X103130484Y-45516256D01*
X103115727Y-45492639D01*
X103047013Y-45382675D01*
X103043280Y-45376701D01*
X102952957Y-45285745D01*
X102932290Y-45264933D01*
X102932286Y-45264930D01*
X102927326Y-45259935D01*
X102788384Y-45171759D01*
X102739251Y-45154264D01*
X102639993Y-45118919D01*
X102639991Y-45118918D01*
X102633359Y-45116557D01*
X102626373Y-45115724D01*
X102626369Y-45115723D01*
X102511875Y-45102071D01*
X102469957Y-45097073D01*
X102462954Y-45097809D01*
X102462953Y-45097809D01*
X102419739Y-45102351D01*
X102306299Y-45114274D01*
X102299631Y-45116544D01*
X102157186Y-45165036D01*
X102157183Y-45165037D01*
X102150519Y-45167306D01*
X102010359Y-45253533D01*
X101980355Y-45282915D01*
X101909070Y-45352723D01*
X101892786Y-45368669D01*
X101803642Y-45506993D01*
X101801231Y-45513616D01*
X101801230Y-45513619D01*
X101784029Y-45560880D01*
X101741935Y-45618052D01*
X101675614Y-45643390D01*
X101623361Y-45636485D01*
X101475189Y-45583723D01*
X101475187Y-45583722D01*
X101468555Y-45581361D01*
X101461569Y-45580528D01*
X101461565Y-45580527D01*
X101343924Y-45566500D01*
X101305153Y-45561877D01*
X101298150Y-45562613D01*
X101298149Y-45562613D01*
X101261168Y-45566500D01*
X101141495Y-45579078D01*
X101134827Y-45581348D01*
X100992382Y-45629840D01*
X100992379Y-45629841D01*
X100985715Y-45632110D01*
X100845555Y-45718337D01*
X100786999Y-45775679D01*
X100754737Y-45807273D01*
X100727982Y-45833473D01*
X100638838Y-45971797D01*
X100636427Y-45978420D01*
X100636426Y-45978423D01*
X100584966Y-46119809D01*
X100584965Y-46119814D01*
X100582556Y-46126432D01*
X100561931Y-46289694D01*
X98343821Y-46289694D01*
X98348748Y-46254639D01*
X98348748Y-46254636D01*
X98349299Y-46250717D01*
X98349616Y-46228000D01*
X98329397Y-46047745D01*
X98327080Y-46041091D01*
X98272064Y-45883106D01*
X98272062Y-45883103D01*
X98269745Y-45876448D01*
X98256847Y-45855806D01*
X98177359Y-45728598D01*
X98173626Y-45722624D01*
X98168664Y-45717627D01*
X98050778Y-45598915D01*
X98050774Y-45598912D01*
X98045815Y-45593918D01*
X98034697Y-45586862D01*
X97959144Y-45538915D01*
X97892666Y-45496727D01*
X97833632Y-45475706D01*
X97728425Y-45438243D01*
X97728420Y-45438242D01*
X97721790Y-45435881D01*
X97714802Y-45435048D01*
X97714799Y-45435047D01*
X97591698Y-45420368D01*
X97541680Y-45414404D01*
X97534677Y-45415140D01*
X97534676Y-45415140D01*
X97368288Y-45432628D01*
X97368286Y-45432629D01*
X97361288Y-45433364D01*
X97189579Y-45491818D01*
X97127109Y-45530250D01*
X97041095Y-45583166D01*
X97041092Y-45583168D01*
X97035088Y-45586862D01*
X97030053Y-45591793D01*
X97030050Y-45591795D01*
X96921707Y-45697893D01*
X96905493Y-45713771D01*
X96807235Y-45866238D01*
X96804826Y-45872858D01*
X96804824Y-45872861D01*
X96747606Y-46030066D01*
X96745197Y-46036685D01*
X96722463Y-46216640D01*
X94738500Y-46216640D01*
X94738500Y-45787070D01*
X94739933Y-45768120D01*
X94742099Y-45753885D01*
X94742099Y-45753881D01*
X94743199Y-45746651D01*
X94741446Y-45725091D01*
X94738915Y-45693982D01*
X94738500Y-45683767D01*
X94738500Y-45675707D01*
X94736828Y-45661366D01*
X94735211Y-45647493D01*
X94734778Y-45643118D01*
X94729454Y-45577661D01*
X94729453Y-45577658D01*
X94728860Y-45570363D01*
X94726604Y-45563399D01*
X94725413Y-45557440D01*
X94724029Y-45551585D01*
X94723182Y-45544319D01*
X94698265Y-45475673D01*
X94696848Y-45471545D01*
X94676607Y-45409064D01*
X94676606Y-45409062D01*
X94674351Y-45402101D01*
X94670555Y-45395846D01*
X94668049Y-45390372D01*
X94665330Y-45384942D01*
X94662833Y-45378063D01*
X94622814Y-45317024D01*
X94620467Y-45313305D01*
X94582595Y-45250893D01*
X94575197Y-45242516D01*
X94575224Y-45242492D01*
X94572571Y-45239500D01*
X94569868Y-45236267D01*
X94565856Y-45230148D01*
X94509617Y-45176872D01*
X94507175Y-45174494D01*
X93722908Y-44390227D01*
X93699281Y-44356858D01*
X93697745Y-44352448D01*
X93694014Y-44346477D01*
X93694012Y-44346473D01*
X93605359Y-44204598D01*
X93601626Y-44198624D01*
X93587178Y-44184075D01*
X93478778Y-44074915D01*
X93478774Y-44074912D01*
X93473815Y-44069918D01*
X93461577Y-44062151D01*
X93365175Y-44000973D01*
X93320666Y-43972727D01*
X93314026Y-43970363D01*
X93311532Y-43969146D01*
X93277675Y-43944994D01*
X92743405Y-43410724D01*
X92709379Y-43348412D01*
X92706500Y-43321629D01*
X92706500Y-43200165D01*
X97359331Y-43200165D01*
X97377031Y-43380685D01*
X97434286Y-43552798D01*
X97437933Y-43558820D01*
X97437934Y-43558822D01*
X97495854Y-43654459D01*
X97528248Y-43707949D01*
X97533137Y-43713012D01*
X97533138Y-43713013D01*
X97553895Y-43734507D01*
X97654250Y-43838427D01*
X97730138Y-43888087D01*
X97787555Y-43925659D01*
X97806027Y-43937747D01*
X97812631Y-43940203D01*
X97812633Y-43940204D01*
X97969426Y-43998515D01*
X97969428Y-43998515D01*
X97976036Y-44000973D01*
X98059863Y-44012158D01*
X98148848Y-44024032D01*
X98148852Y-44024032D01*
X98155829Y-44024963D01*
X98162840Y-44024325D01*
X98162844Y-44024325D01*
X98305327Y-44011357D01*
X98336468Y-44008523D01*
X98343170Y-44006345D01*
X98343172Y-44006345D01*
X98502277Y-43954649D01*
X98502280Y-43954648D01*
X98508976Y-43952472D01*
X98605381Y-43895003D01*
X98616055Y-43888640D01*
X100186463Y-43888640D01*
X100204163Y-44069160D01*
X100261418Y-44241273D01*
X100265065Y-44247295D01*
X100265066Y-44247297D01*
X100330642Y-44355576D01*
X100355380Y-44396424D01*
X100360269Y-44401487D01*
X100360270Y-44401488D01*
X100415649Y-44458834D01*
X100481382Y-44526902D01*
X100506305Y-44543211D01*
X100626255Y-44621704D01*
X100633159Y-44626222D01*
X100639763Y-44628678D01*
X100639765Y-44628679D01*
X100796558Y-44686990D01*
X100796560Y-44686990D01*
X100803168Y-44689448D01*
X100886995Y-44700633D01*
X100975980Y-44712507D01*
X100975984Y-44712507D01*
X100982961Y-44713438D01*
X100989972Y-44712800D01*
X100989976Y-44712800D01*
X101132459Y-44699832D01*
X101163600Y-44696998D01*
X101170302Y-44694820D01*
X101170304Y-44694820D01*
X101329409Y-44643124D01*
X101329412Y-44643123D01*
X101336108Y-44640947D01*
X101491912Y-44548069D01*
X101623266Y-44422982D01*
X101723643Y-44271902D01*
X101776805Y-44131953D01*
X101785555Y-44108920D01*
X101785556Y-44108918D01*
X101788055Y-44102338D01*
X101789049Y-44095267D01*
X101812748Y-43926639D01*
X101812748Y-43926636D01*
X101813299Y-43922717D01*
X101813616Y-43900000D01*
X101793397Y-43719745D01*
X101791053Y-43713013D01*
X101736064Y-43555106D01*
X101736062Y-43555103D01*
X101733745Y-43548448D01*
X101717540Y-43522515D01*
X101641359Y-43400598D01*
X101637626Y-43394624D01*
X101632664Y-43389627D01*
X101514778Y-43270915D01*
X101514774Y-43270912D01*
X101509815Y-43265918D01*
X101498697Y-43258862D01*
X101424105Y-43211525D01*
X101356666Y-43168727D01*
X101327463Y-43158328D01*
X101192425Y-43110243D01*
X101192420Y-43110242D01*
X101185790Y-43107881D01*
X101178802Y-43107048D01*
X101178799Y-43107047D01*
X101055698Y-43092368D01*
X101005680Y-43086404D01*
X100998677Y-43087140D01*
X100998676Y-43087140D01*
X100832288Y-43104628D01*
X100832286Y-43104629D01*
X100825288Y-43105364D01*
X100653579Y-43163818D01*
X100612549Y-43189060D01*
X100505095Y-43255166D01*
X100505092Y-43255168D01*
X100499088Y-43258862D01*
X100494053Y-43263793D01*
X100494050Y-43263795D01*
X100374525Y-43380843D01*
X100369493Y-43385771D01*
X100271235Y-43538238D01*
X100268826Y-43544858D01*
X100268824Y-43544861D01*
X100217966Y-43684593D01*
X100209197Y-43708685D01*
X100186463Y-43888640D01*
X98616055Y-43888640D01*
X98658728Y-43863202D01*
X98658730Y-43863201D01*
X98664780Y-43859594D01*
X98796134Y-43734507D01*
X98896511Y-43583427D01*
X98943924Y-43458613D01*
X98958423Y-43420445D01*
X98958424Y-43420443D01*
X98960923Y-43413863D01*
X98964329Y-43389627D01*
X98985616Y-43238164D01*
X98985616Y-43238161D01*
X98986167Y-43234242D01*
X98986484Y-43211525D01*
X98966265Y-43031270D01*
X98963286Y-43022715D01*
X98908932Y-42866631D01*
X98908930Y-42866628D01*
X98906613Y-42859973D01*
X98892783Y-42837840D01*
X98814227Y-42712123D01*
X98810494Y-42706149D01*
X98752094Y-42647340D01*
X98687646Y-42582440D01*
X98687642Y-42582437D01*
X98682683Y-42577443D01*
X98671565Y-42570387D01*
X98589792Y-42518493D01*
X98529534Y-42480252D01*
X98487583Y-42465314D01*
X98365293Y-42421768D01*
X98365288Y-42421767D01*
X98358658Y-42419406D01*
X98351670Y-42418573D01*
X98351667Y-42418572D01*
X98228566Y-42403893D01*
X98178548Y-42397929D01*
X98171545Y-42398665D01*
X98171544Y-42398665D01*
X98005156Y-42416153D01*
X98005154Y-42416154D01*
X97998156Y-42416889D01*
X97826447Y-42475343D01*
X97785931Y-42500269D01*
X97677963Y-42566691D01*
X97677960Y-42566693D01*
X97671956Y-42570387D01*
X97666921Y-42575318D01*
X97666918Y-42575320D01*
X97547393Y-42692368D01*
X97542361Y-42697296D01*
X97492627Y-42774468D01*
X97448382Y-42843124D01*
X97444103Y-42849763D01*
X97441694Y-42856383D01*
X97441692Y-42856386D01*
X97398383Y-42975377D01*
X97382065Y-43020210D01*
X97359331Y-43200165D01*
X92706500Y-43200165D01*
X92706500Y-42088640D01*
X95486463Y-42088640D01*
X95504163Y-42269160D01*
X95561418Y-42441273D01*
X95565065Y-42447295D01*
X95565066Y-42447297D01*
X95643885Y-42577443D01*
X95655380Y-42596424D01*
X95660269Y-42601487D01*
X95660270Y-42601488D01*
X95675357Y-42617111D01*
X95781382Y-42726902D01*
X95848329Y-42770711D01*
X95876810Y-42789348D01*
X95933159Y-42826222D01*
X95939763Y-42828678D01*
X95939765Y-42828679D01*
X96096558Y-42886990D01*
X96096560Y-42886990D01*
X96103168Y-42889448D01*
X96186995Y-42900633D01*
X96275980Y-42912507D01*
X96275984Y-42912507D01*
X96282961Y-42913438D01*
X96289972Y-42912800D01*
X96289976Y-42912800D01*
X96432459Y-42899832D01*
X96463600Y-42896998D01*
X96470302Y-42894820D01*
X96470304Y-42894820D01*
X96629409Y-42843124D01*
X96629412Y-42843123D01*
X96636108Y-42840947D01*
X96760388Y-42766861D01*
X96785860Y-42751677D01*
X96785862Y-42751676D01*
X96791912Y-42748069D01*
X96923266Y-42622982D01*
X97023643Y-42471902D01*
X97077592Y-42329881D01*
X97085555Y-42308920D01*
X97085556Y-42308918D01*
X97088055Y-42302338D01*
X97090927Y-42281902D01*
X97112748Y-42126639D01*
X97112748Y-42126636D01*
X97113299Y-42122717D01*
X97113616Y-42100000D01*
X97093397Y-41919745D01*
X97091080Y-41913091D01*
X97036064Y-41755106D01*
X97036062Y-41755103D01*
X97033745Y-41748448D01*
X96989909Y-41678295D01*
X96941359Y-41600598D01*
X96937626Y-41594624D01*
X96928835Y-41585771D01*
X96814778Y-41470915D01*
X96814774Y-41470912D01*
X96809815Y-41465918D01*
X96803106Y-41461660D01*
X96729294Y-41414818D01*
X96656666Y-41368727D01*
X96609677Y-41351995D01*
X96492425Y-41310243D01*
X96492420Y-41310242D01*
X96485790Y-41307881D01*
X96478802Y-41307048D01*
X96478799Y-41307047D01*
X96339023Y-41290380D01*
X96305680Y-41286404D01*
X96298677Y-41287140D01*
X96298676Y-41287140D01*
X96132288Y-41304628D01*
X96132286Y-41304629D01*
X96125288Y-41305364D01*
X95953579Y-41363818D01*
X95947575Y-41367512D01*
X95805095Y-41455166D01*
X95805092Y-41455168D01*
X95799088Y-41458862D01*
X95794053Y-41463793D01*
X95794050Y-41463795D01*
X95675338Y-41580047D01*
X95669493Y-41585771D01*
X95590255Y-41708725D01*
X95576714Y-41729737D01*
X95571235Y-41738238D01*
X95568826Y-41744858D01*
X95568824Y-41744861D01*
X95531474Y-41847479D01*
X95509197Y-41908685D01*
X95486463Y-42088640D01*
X92706500Y-42088640D01*
X92706500Y-41723070D01*
X92707933Y-41704120D01*
X92710099Y-41689885D01*
X92710099Y-41689881D01*
X92711199Y-41682651D01*
X92707948Y-41642675D01*
X92706915Y-41629982D01*
X92706500Y-41619767D01*
X92706500Y-41611707D01*
X92703209Y-41583480D01*
X92702778Y-41579121D01*
X92700151Y-41546829D01*
X92696860Y-41506364D01*
X92694605Y-41499403D01*
X92693418Y-41493463D01*
X92692029Y-41487588D01*
X92691182Y-41480319D01*
X92666264Y-41411670D01*
X92664847Y-41407542D01*
X92644607Y-41345064D01*
X92644606Y-41345062D01*
X92642351Y-41338101D01*
X92638555Y-41331846D01*
X92636049Y-41326372D01*
X92633330Y-41320942D01*
X92630833Y-41314063D01*
X92613246Y-41287238D01*
X92590814Y-41253024D01*
X92588467Y-41249305D01*
X92550595Y-41186893D01*
X92543197Y-41178516D01*
X92543224Y-41178492D01*
X92540571Y-41175500D01*
X92537868Y-41172267D01*
X92533856Y-41166148D01*
X92477617Y-41112872D01*
X92475175Y-41110494D01*
X91853321Y-40488640D01*
X109386463Y-40488640D01*
X109404163Y-40669160D01*
X109461418Y-40841273D01*
X109465065Y-40847295D01*
X109465066Y-40847297D01*
X109520928Y-40939536D01*
X109555380Y-40996424D01*
X109560269Y-41001487D01*
X109560270Y-41001488D01*
X109637121Y-41081068D01*
X109681382Y-41126902D01*
X109687278Y-41130760D01*
X109802697Y-41206288D01*
X109833159Y-41226222D01*
X109839763Y-41228678D01*
X109839765Y-41228679D01*
X109996558Y-41286990D01*
X109996560Y-41286990D01*
X110003168Y-41289448D01*
X110086995Y-41300633D01*
X110175980Y-41312507D01*
X110175984Y-41312507D01*
X110182961Y-41313438D01*
X110189972Y-41312800D01*
X110189976Y-41312800D01*
X110332459Y-41299832D01*
X110363600Y-41296998D01*
X110370302Y-41294820D01*
X110370304Y-41294820D01*
X110529409Y-41243124D01*
X110529412Y-41243123D01*
X110536108Y-41240947D01*
X110646839Y-41174938D01*
X110685860Y-41151677D01*
X110685862Y-41151676D01*
X110691912Y-41148069D01*
X110823266Y-41022982D01*
X110923643Y-40871902D01*
X110988055Y-40702338D01*
X110989035Y-40695366D01*
X111012748Y-40526639D01*
X111012748Y-40526636D01*
X111013299Y-40522717D01*
X111013616Y-40500000D01*
X110993397Y-40319745D01*
X110991080Y-40313091D01*
X110936064Y-40155106D01*
X110936062Y-40155103D01*
X110933745Y-40148448D01*
X110923409Y-40131907D01*
X110841359Y-40000598D01*
X110837626Y-39994624D01*
X110820835Y-39977715D01*
X110714778Y-39870915D01*
X110714774Y-39870912D01*
X110709815Y-39865918D01*
X110698697Y-39858862D01*
X110645620Y-39825179D01*
X110556666Y-39768727D01*
X110527463Y-39758328D01*
X110392425Y-39710243D01*
X110392420Y-39710242D01*
X110385790Y-39707881D01*
X110378802Y-39707048D01*
X110378799Y-39707047D01*
X110255698Y-39692368D01*
X110205680Y-39686404D01*
X110198677Y-39687140D01*
X110198676Y-39687140D01*
X110032288Y-39704628D01*
X110032286Y-39704629D01*
X110025288Y-39705364D01*
X109853579Y-39763818D01*
X109847575Y-39767512D01*
X109705095Y-39855166D01*
X109705092Y-39855168D01*
X109699088Y-39858862D01*
X109694053Y-39863793D01*
X109694050Y-39863795D01*
X109574525Y-39980843D01*
X109569493Y-39985771D01*
X109471235Y-40138238D01*
X109468826Y-40144858D01*
X109468824Y-40144861D01*
X109429839Y-40251972D01*
X109409197Y-40308685D01*
X109386463Y-40488640D01*
X91853321Y-40488640D01*
X91769770Y-40405089D01*
X91757384Y-40390677D01*
X91748851Y-40379082D01*
X91748846Y-40379077D01*
X91744508Y-40373182D01*
X91738930Y-40368443D01*
X91738927Y-40368440D01*
X91704232Y-40338965D01*
X91696716Y-40332035D01*
X91691021Y-40326340D01*
X91674275Y-40313091D01*
X91668749Y-40308719D01*
X91665345Y-40305928D01*
X91615297Y-40263409D01*
X91615295Y-40263408D01*
X91609715Y-40258667D01*
X91603199Y-40255339D01*
X91598150Y-40251972D01*
X91593021Y-40248805D01*
X91587284Y-40244266D01*
X91521125Y-40213345D01*
X91517225Y-40211439D01*
X91507535Y-40206491D01*
X91452192Y-40178231D01*
X91445084Y-40176492D01*
X91439441Y-40174393D01*
X91433678Y-40172476D01*
X91427050Y-40169378D01*
X91355583Y-40154513D01*
X91351299Y-40153543D01*
X91315818Y-40144861D01*
X91280390Y-40136192D01*
X91274788Y-40135844D01*
X91274785Y-40135844D01*
X91269236Y-40135500D01*
X91269238Y-40135464D01*
X91265245Y-40135225D01*
X91261053Y-40134851D01*
X91253885Y-40133360D01*
X91187675Y-40135151D01*
X91176479Y-40135454D01*
X91173072Y-40135500D01*
X90451835Y-40135500D01*
X90444033Y-40135258D01*
X90443501Y-40135225D01*
X90382702Y-40131453D01*
X90369740Y-40133680D01*
X90348404Y-40135500D01*
X90028371Y-40135500D01*
X89960250Y-40115498D01*
X89939276Y-40098595D01*
X88691321Y-38850640D01*
X95706463Y-38850640D01*
X95724163Y-39031160D01*
X95781418Y-39203273D01*
X95785065Y-39209295D01*
X95785066Y-39209297D01*
X95810440Y-39251194D01*
X95875380Y-39358424D01*
X96001382Y-39488902D01*
X96007278Y-39492760D01*
X96127017Y-39571115D01*
X96153159Y-39588222D01*
X96159763Y-39590678D01*
X96159765Y-39590679D01*
X96316558Y-39648990D01*
X96316560Y-39648990D01*
X96323168Y-39651448D01*
X96406995Y-39662633D01*
X96495980Y-39674507D01*
X96495984Y-39674507D01*
X96502961Y-39675438D01*
X96509972Y-39674800D01*
X96509976Y-39674800D01*
X96652459Y-39661832D01*
X96683600Y-39658998D01*
X96690302Y-39656820D01*
X96690304Y-39656820D01*
X96849409Y-39605124D01*
X96849412Y-39605123D01*
X96856108Y-39602947D01*
X97011912Y-39510069D01*
X97143266Y-39384982D01*
X97243643Y-39233902D01*
X97295915Y-39096296D01*
X97305555Y-39070920D01*
X97305556Y-39070918D01*
X97308055Y-39064338D01*
X97309035Y-39057366D01*
X97332748Y-38888639D01*
X97332748Y-38888636D01*
X97333299Y-38884717D01*
X97333616Y-38862000D01*
X97313397Y-38681745D01*
X97309829Y-38671498D01*
X97256064Y-38517106D01*
X97256062Y-38517103D01*
X97253745Y-38510448D01*
X97250009Y-38504469D01*
X97161359Y-38362598D01*
X97157626Y-38356624D01*
X97148835Y-38347771D01*
X97034778Y-38232915D01*
X97034774Y-38232912D01*
X97029815Y-38227918D01*
X97018697Y-38220862D01*
X96899396Y-38145152D01*
X96876666Y-38130727D01*
X96825608Y-38112546D01*
X96758473Y-38088640D01*
X107686463Y-38088640D01*
X107704163Y-38269160D01*
X107761418Y-38441273D01*
X107765065Y-38447295D01*
X107765066Y-38447297D01*
X107821559Y-38540578D01*
X107855380Y-38596424D01*
X107860269Y-38601487D01*
X107860270Y-38601488D01*
X107927879Y-38671498D01*
X107981382Y-38726902D01*
X107987278Y-38730760D01*
X108097680Y-38803005D01*
X108133159Y-38826222D01*
X108139763Y-38828678D01*
X108139765Y-38828679D01*
X108296558Y-38886990D01*
X108296560Y-38886990D01*
X108303168Y-38889448D01*
X108386995Y-38900633D01*
X108475980Y-38912507D01*
X108475984Y-38912507D01*
X108482961Y-38913438D01*
X108489972Y-38912800D01*
X108489976Y-38912800D01*
X108632459Y-38899832D01*
X108663600Y-38896998D01*
X108670302Y-38894820D01*
X108670304Y-38894820D01*
X108829409Y-38843124D01*
X108829412Y-38843123D01*
X108836108Y-38840947D01*
X108991912Y-38748069D01*
X109123266Y-38622982D01*
X109223643Y-38471902D01*
X109269332Y-38351627D01*
X109285555Y-38308920D01*
X109285556Y-38308918D01*
X109288055Y-38302338D01*
X109289179Y-38294340D01*
X109312748Y-38126639D01*
X109312748Y-38126636D01*
X109313299Y-38122717D01*
X109313616Y-38100000D01*
X109293397Y-37919745D01*
X109291080Y-37913091D01*
X109236064Y-37755106D01*
X109236062Y-37755103D01*
X109233745Y-37748448D01*
X109146993Y-37609615D01*
X109141359Y-37600598D01*
X109137626Y-37594624D01*
X109105133Y-37561903D01*
X109014778Y-37470915D01*
X109014774Y-37470912D01*
X109009815Y-37465918D01*
X108998697Y-37458862D01*
X108948335Y-37426902D01*
X108856666Y-37368727D01*
X108819079Y-37355343D01*
X108692425Y-37310243D01*
X108692420Y-37310242D01*
X108685790Y-37307881D01*
X108678802Y-37307048D01*
X108678799Y-37307047D01*
X108555698Y-37292368D01*
X108505680Y-37286404D01*
X108498677Y-37287140D01*
X108498676Y-37287140D01*
X108332288Y-37304628D01*
X108332286Y-37304629D01*
X108325288Y-37305364D01*
X108153579Y-37363818D01*
X108092990Y-37401093D01*
X108005095Y-37455166D01*
X108005092Y-37455168D01*
X107999088Y-37458862D01*
X107994053Y-37463793D01*
X107994050Y-37463795D01*
X107893866Y-37561903D01*
X107869493Y-37585771D01*
X107771235Y-37738238D01*
X107768826Y-37744858D01*
X107768824Y-37744861D01*
X107715432Y-37891555D01*
X107709197Y-37908685D01*
X107686463Y-38088640D01*
X96758473Y-38088640D01*
X96712425Y-38072243D01*
X96712420Y-38072242D01*
X96705790Y-38069881D01*
X96698802Y-38069048D01*
X96698799Y-38069047D01*
X96575698Y-38054368D01*
X96525680Y-38048404D01*
X96518677Y-38049140D01*
X96518676Y-38049140D01*
X96352288Y-38066628D01*
X96352286Y-38066629D01*
X96345288Y-38067364D01*
X96237106Y-38104192D01*
X96183285Y-38122514D01*
X96173579Y-38125818D01*
X96134987Y-38149560D01*
X96025095Y-38217166D01*
X96025092Y-38217168D01*
X96019088Y-38220862D01*
X96014053Y-38225793D01*
X96014050Y-38225795D01*
X95903966Y-38333598D01*
X95889493Y-38347771D01*
X95791235Y-38500238D01*
X95788826Y-38506858D01*
X95788824Y-38506861D01*
X95744791Y-38627841D01*
X95729197Y-38670685D01*
X95706463Y-38850640D01*
X88691321Y-38850640D01*
X88213770Y-38373089D01*
X88201384Y-38358677D01*
X88192851Y-38347082D01*
X88192846Y-38347077D01*
X88188508Y-38341182D01*
X88182930Y-38336443D01*
X88182927Y-38336440D01*
X88148232Y-38306965D01*
X88140716Y-38300035D01*
X88135021Y-38294340D01*
X88118735Y-38281455D01*
X88112749Y-38276719D01*
X88109345Y-38273928D01*
X88059297Y-38231409D01*
X88059295Y-38231408D01*
X88053715Y-38226667D01*
X88047199Y-38223339D01*
X88042150Y-38219972D01*
X88037021Y-38216805D01*
X88031284Y-38212266D01*
X87965125Y-38181345D01*
X87961225Y-38179439D01*
X87896192Y-38146231D01*
X87889084Y-38144492D01*
X87883441Y-38142393D01*
X87877678Y-38140476D01*
X87871050Y-38137378D01*
X87857243Y-38134506D01*
X87815473Y-38125818D01*
X87799583Y-38122513D01*
X87795299Y-38121543D01*
X87784163Y-38118818D01*
X87724390Y-38104192D01*
X87718788Y-38103844D01*
X87718785Y-38103844D01*
X87713236Y-38103500D01*
X87713238Y-38103464D01*
X87709245Y-38103225D01*
X87705053Y-38102851D01*
X87697885Y-38101360D01*
X87677074Y-38101923D01*
X87631400Y-38094668D01*
X87568425Y-38072243D01*
X87568420Y-38072242D01*
X87561790Y-38069881D01*
X87554802Y-38069048D01*
X87554799Y-38069047D01*
X87431698Y-38054368D01*
X87381680Y-38048404D01*
X87374677Y-38049140D01*
X87374676Y-38049140D01*
X87208288Y-38066628D01*
X87208286Y-38066629D01*
X87201288Y-38067364D01*
X87121082Y-38094668D01*
X87114884Y-38096778D01*
X87074279Y-38103500D01*
X84903070Y-38103500D01*
X84884120Y-38102067D01*
X84869885Y-38099901D01*
X84869881Y-38099901D01*
X84862651Y-38098801D01*
X84855359Y-38099394D01*
X84855356Y-38099394D01*
X84809982Y-38103085D01*
X84799767Y-38103500D01*
X84791707Y-38103500D01*
X84778417Y-38105049D01*
X84763493Y-38106789D01*
X84759118Y-38107222D01*
X84693661Y-38112546D01*
X84693658Y-38112547D01*
X84686363Y-38113140D01*
X84679399Y-38115396D01*
X84673440Y-38116587D01*
X84667585Y-38117971D01*
X84660319Y-38118818D01*
X84591673Y-38143735D01*
X84587545Y-38145152D01*
X84525064Y-38165393D01*
X84525062Y-38165394D01*
X84518101Y-38167649D01*
X84511846Y-38171445D01*
X84506372Y-38173951D01*
X84500942Y-38176670D01*
X84494063Y-38179167D01*
X84487943Y-38183180D01*
X84487942Y-38183180D01*
X84433024Y-38219186D01*
X84429320Y-38221523D01*
X84366893Y-38259405D01*
X84358516Y-38266803D01*
X84358492Y-38266776D01*
X84355500Y-38269429D01*
X84352267Y-38272132D01*
X84346148Y-38276144D01*
X84316951Y-38306965D01*
X84292872Y-38332383D01*
X84290494Y-38334825D01*
X83515437Y-39109882D01*
X83453125Y-39143908D01*
X83382310Y-39138843D01*
X83325474Y-39096296D01*
X83307354Y-39062231D01*
X83265680Y-38942560D01*
X83247483Y-38913438D01*
X83182209Y-38808979D01*
X83178476Y-38803005D01*
X83119098Y-38743211D01*
X83067486Y-38691237D01*
X83067482Y-38691234D01*
X83062522Y-38686239D01*
X82923580Y-38598063D01*
X82874447Y-38580568D01*
X82775189Y-38545223D01*
X82775187Y-38545222D01*
X82768555Y-38542861D01*
X82761569Y-38542028D01*
X82761565Y-38542027D01*
X82647071Y-38528375D01*
X82605153Y-38523377D01*
X82598150Y-38524113D01*
X82598149Y-38524113D01*
X82554935Y-38528655D01*
X82441495Y-38540578D01*
X82434827Y-38542848D01*
X82292382Y-38591340D01*
X82292379Y-38591341D01*
X82285715Y-38593610D01*
X82188858Y-38653197D01*
X82153270Y-38675091D01*
X82145555Y-38679837D01*
X82027982Y-38794973D01*
X81938838Y-38933297D01*
X81936427Y-38939920D01*
X81936426Y-38939923D01*
X81884966Y-39081309D01*
X81884965Y-39081314D01*
X81882556Y-39087932D01*
X81861931Y-39251194D01*
X81877989Y-39414968D01*
X81929932Y-39571115D01*
X81941781Y-39590679D01*
X81992727Y-39674800D01*
X82015179Y-39711873D01*
X82020070Y-39716938D01*
X82020071Y-39716939D01*
X82067798Y-39766362D01*
X82129491Y-39830247D01*
X82267189Y-39920354D01*
X82421428Y-39977715D01*
X82428409Y-39978646D01*
X82428411Y-39978647D01*
X82577561Y-39998548D01*
X82577565Y-39998548D01*
X82584542Y-39999479D01*
X82591553Y-39998841D01*
X82591557Y-39998841D01*
X82741403Y-39985204D01*
X82741404Y-39985204D01*
X82748424Y-39984565D01*
X82877818Y-39942522D01*
X82948784Y-39940494D01*
X83009582Y-39977157D01*
X83041905Y-40047763D01*
X83056818Y-40175681D01*
X83058424Y-40180106D01*
X83061500Y-40206491D01*
X83061500Y-42329603D01*
X83041498Y-42397724D01*
X82987842Y-42444217D01*
X82917568Y-42454321D01*
X82867986Y-42435988D01*
X82841466Y-42419158D01*
X82796666Y-42390727D01*
X82767463Y-42380328D01*
X82632425Y-42332243D01*
X82632420Y-42332242D01*
X82625790Y-42329881D01*
X82618802Y-42329048D01*
X82618799Y-42329047D01*
X82495698Y-42314368D01*
X82445680Y-42308404D01*
X82438677Y-42309140D01*
X82438676Y-42309140D01*
X82272288Y-42326628D01*
X82272286Y-42326629D01*
X82265288Y-42327364D01*
X82093579Y-42385818D01*
X82043074Y-42416889D01*
X81945095Y-42477166D01*
X81945092Y-42477168D01*
X81939088Y-42480862D01*
X81934053Y-42485793D01*
X81934050Y-42485795D01*
X81826093Y-42591515D01*
X81809493Y-42607771D01*
X81711235Y-42760238D01*
X81708826Y-42766858D01*
X81708824Y-42766861D01*
X81655474Y-42913438D01*
X81649197Y-42930685D01*
X81626463Y-43110640D01*
X81634804Y-43195710D01*
X81643311Y-43282473D01*
X81641860Y-43290103D01*
X81644510Y-43293360D01*
X81647882Y-43302341D01*
X81665785Y-43356158D01*
X81701418Y-43463273D01*
X81705065Y-43469295D01*
X81705066Y-43469297D01*
X81777741Y-43589298D01*
X81795380Y-43618424D01*
X81800270Y-43623487D01*
X81800274Y-43623493D01*
X81908885Y-43735962D01*
X81941818Y-43798858D01*
X81935518Y-43869575D01*
X81891986Y-43925659D01*
X81818249Y-43949489D01*
X81481623Y-43949489D01*
X81413502Y-43929487D01*
X81367009Y-43875831D01*
X81356905Y-43805557D01*
X81363833Y-43778752D01*
X81396951Y-43691568D01*
X81415607Y-43558822D01*
X81419302Y-43532534D01*
X81419303Y-43532527D01*
X81419853Y-43528610D01*
X81420141Y-43508000D01*
X81403109Y-43356156D01*
X81405157Y-43344499D01*
X81398922Y-43336208D01*
X81347680Y-43189060D01*
X81334975Y-43168727D01*
X81264209Y-43055479D01*
X81260476Y-43049505D01*
X81189119Y-42977648D01*
X81149486Y-42937737D01*
X81149482Y-42937734D01*
X81144522Y-42932739D01*
X81005580Y-42844563D01*
X80943238Y-42822364D01*
X80857189Y-42791723D01*
X80857187Y-42791722D01*
X80850555Y-42789361D01*
X80843569Y-42788528D01*
X80843565Y-42788527D01*
X80725655Y-42774468D01*
X80687153Y-42769877D01*
X80680150Y-42770613D01*
X80680149Y-42770613D01*
X80643472Y-42774468D01*
X80523495Y-42787078D01*
X80516827Y-42789348D01*
X80374382Y-42837840D01*
X80374379Y-42837841D01*
X80367715Y-42840110D01*
X80227555Y-42926337D01*
X80215977Y-42937675D01*
X80128780Y-43023065D01*
X80109982Y-43041473D01*
X80020838Y-43179797D01*
X80018427Y-43186420D01*
X80018426Y-43186423D01*
X79966966Y-43327809D01*
X79966965Y-43327814D01*
X79964556Y-43334432D01*
X79943931Y-43497694D01*
X79959989Y-43661468D01*
X79989075Y-43748902D01*
X80000656Y-43783717D01*
X80003179Y-43854669D01*
X79966942Y-43915721D01*
X79903450Y-43947491D01*
X79881098Y-43949489D01*
X74184858Y-43949489D01*
X74116737Y-43929487D01*
X74072477Y-43879348D01*
X74071680Y-43877060D01*
X74067949Y-43871089D01*
X74067947Y-43871085D01*
X73988209Y-43743479D01*
X73984476Y-43737505D01*
X73894267Y-43646664D01*
X73873486Y-43625737D01*
X73873482Y-43625734D01*
X73868522Y-43620739D01*
X73729580Y-43532563D01*
X73660599Y-43508000D01*
X73581189Y-43479723D01*
X73581187Y-43479722D01*
X73574555Y-43477361D01*
X73567569Y-43476528D01*
X73567565Y-43476527D01*
X73453071Y-43462875D01*
X73411153Y-43457877D01*
X73404150Y-43458613D01*
X73404149Y-43458613D01*
X73360935Y-43463155D01*
X73247495Y-43475078D01*
X73240827Y-43477348D01*
X73098382Y-43525840D01*
X73098379Y-43525841D01*
X73091715Y-43528110D01*
X72951555Y-43614337D01*
X72939914Y-43625737D01*
X72855962Y-43707949D01*
X72833982Y-43729473D01*
X72744838Y-43867797D01*
X72742427Y-43874420D01*
X72742426Y-43874423D01*
X72690966Y-44015809D01*
X72690965Y-44015814D01*
X72688556Y-44022432D01*
X72667931Y-44185694D01*
X72683989Y-44349468D01*
X72735932Y-44505615D01*
X72739581Y-44511640D01*
X72817536Y-44640358D01*
X72835715Y-44708988D01*
X72815672Y-44773884D01*
X72744838Y-44883797D01*
X72742427Y-44890420D01*
X72742426Y-44890423D01*
X72690966Y-45031809D01*
X72690965Y-45031814D01*
X72688556Y-45038432D01*
X72667931Y-45201694D01*
X72683989Y-45365468D01*
X72735932Y-45521615D01*
X72739581Y-45527640D01*
X72809518Y-45643118D01*
X72821179Y-45662373D01*
X72826070Y-45667438D01*
X72826071Y-45667439D01*
X72892561Y-45736291D01*
X72935491Y-45780747D01*
X73073189Y-45870854D01*
X73227428Y-45928215D01*
X73234409Y-45929146D01*
X73234411Y-45929147D01*
X73383561Y-45949048D01*
X73383565Y-45949048D01*
X73390542Y-45949979D01*
X73397553Y-45949341D01*
X73397557Y-45949341D01*
X73547403Y-45935704D01*
X73547404Y-45935704D01*
X73554424Y-45935065D01*
X73583062Y-45925760D01*
X73704230Y-45886390D01*
X73704233Y-45886389D01*
X73710929Y-45884213D01*
X73852279Y-45799951D01*
X73928905Y-45726982D01*
X73966349Y-45691325D01*
X73966351Y-45691323D01*
X73971449Y-45686468D01*
X74001097Y-45641844D01*
X74013769Y-45622772D01*
X74068127Y-45577102D01*
X74118717Y-45566500D01*
X82337979Y-45566500D01*
X82406100Y-45586502D01*
X82452593Y-45640158D01*
X82463378Y-45680204D01*
X82473237Y-45780747D01*
X82479087Y-45840414D01*
X82536342Y-46012527D01*
X82539989Y-46018549D01*
X82539990Y-46018551D01*
X82605325Y-46126432D01*
X82630304Y-46167678D01*
X82635193Y-46172741D01*
X82635194Y-46172742D01*
X82665075Y-46203684D01*
X82756306Y-46298156D01*
X82788653Y-46319323D01*
X82889996Y-46385640D01*
X82908083Y-46397476D01*
X82914687Y-46399932D01*
X82914689Y-46399933D01*
X83071482Y-46458244D01*
X83071484Y-46458244D01*
X83078092Y-46460702D01*
X83161919Y-46471887D01*
X83250904Y-46483761D01*
X83250908Y-46483761D01*
X83257885Y-46484692D01*
X83264896Y-46484054D01*
X83264900Y-46484054D01*
X83407383Y-46471086D01*
X83438524Y-46468252D01*
X83445226Y-46466074D01*
X83445228Y-46466074D01*
X83604333Y-46414378D01*
X83604336Y-46414377D01*
X83611032Y-46412201D01*
X83766836Y-46319323D01*
X83898190Y-46194236D01*
X83998567Y-46043156D01*
X84050491Y-45906466D01*
X84060479Y-45880174D01*
X84060480Y-45880172D01*
X84062979Y-45873592D01*
X84064013Y-45866238D01*
X84087672Y-45697893D01*
X84087672Y-45697890D01*
X84088223Y-45693971D01*
X84088278Y-45690012D01*
X84088582Y-45686063D01*
X84089687Y-45686148D01*
X84109218Y-45622909D01*
X84163516Y-45577168D01*
X84214256Y-45566500D01*
X87737761Y-45566500D01*
X87805882Y-45586502D01*
X87826856Y-45603405D01*
X88403485Y-46180034D01*
X88433948Y-46229357D01*
X88483932Y-46379615D01*
X88503667Y-46412201D01*
X88561328Y-46507409D01*
X88569179Y-46520373D01*
X88574070Y-46525438D01*
X88574071Y-46525439D01*
X88602919Y-46555312D01*
X88683491Y-46638747D01*
X88821189Y-46728854D01*
X88975428Y-46786215D01*
X88982409Y-46787146D01*
X88982411Y-46787147D01*
X89131561Y-46807048D01*
X89131565Y-46807048D01*
X89138542Y-46807979D01*
X89145553Y-46807341D01*
X89145557Y-46807341D01*
X89295403Y-46793704D01*
X89295404Y-46793704D01*
X89302424Y-46793065D01*
X89416987Y-46755841D01*
X89452230Y-46744390D01*
X89452233Y-46744389D01*
X89458929Y-46742213D01*
X89600279Y-46657951D01*
X89719449Y-46544468D01*
X89724701Y-46536563D01*
X89806614Y-46413275D01*
X89806615Y-46413273D01*
X89810515Y-46407403D01*
X89868951Y-46253568D01*
X89880330Y-46172599D01*
X89891302Y-46094534D01*
X89891303Y-46094527D01*
X89891853Y-46090610D01*
X89892141Y-46070000D01*
X89873798Y-45906466D01*
X89860053Y-45866994D01*
X89828489Y-45776356D01*
X89824975Y-45705446D01*
X89832086Y-45686290D01*
X89831754Y-45686164D01*
X89848002Y-45643390D01*
X89890190Y-45532329D01*
X89903745Y-45435881D01*
X89912541Y-45373295D01*
X89912542Y-45373288D01*
X89913092Y-45369371D01*
X89913234Y-45359191D01*
X89913325Y-45352723D01*
X89913325Y-45352717D01*
X89913380Y-45348761D01*
X89895037Y-45185227D01*
X89892647Y-45178362D01*
X89866834Y-45104238D01*
X89840919Y-45029821D01*
X89800759Y-44965551D01*
X89757448Y-44896240D01*
X89753715Y-44890266D01*
X89650503Y-44786331D01*
X89642725Y-44778498D01*
X89642721Y-44778495D01*
X89637761Y-44773500D01*
X89498819Y-44685324D01*
X89343794Y-44630122D01*
X89342821Y-44630006D01*
X89284658Y-44597631D01*
X88848782Y-44161755D01*
X88837915Y-44149364D01*
X88823480Y-44130552D01*
X88818454Y-44124002D01*
X88786542Y-44099515D01*
X88786539Y-44099512D01*
X88781007Y-44095267D01*
X88697896Y-44031493D01*
X88697894Y-44031492D01*
X88691343Y-44026465D01*
X88543318Y-43965151D01*
X88535131Y-43964073D01*
X88535130Y-43964073D01*
X88523925Y-43962598D01*
X88492729Y-43958491D01*
X88424352Y-43949489D01*
X88424349Y-43949489D01*
X88424341Y-43949488D01*
X88392656Y-43945317D01*
X88384467Y-43944239D01*
X88352774Y-43948411D01*
X88336331Y-43949489D01*
X84704500Y-43949489D01*
X84636379Y-43929487D01*
X84589886Y-43875831D01*
X84578500Y-43823489D01*
X84578500Y-43137329D01*
X84598502Y-43069208D01*
X84652158Y-43022715D01*
X84665563Y-43017496D01*
X84677582Y-43013591D01*
X84804929Y-42972213D01*
X84946279Y-42887951D01*
X85065449Y-42774468D01*
X85070503Y-42766861D01*
X85152614Y-42643275D01*
X85152615Y-42643273D01*
X85156515Y-42637403D01*
X85214951Y-42483568D01*
X85224003Y-42419158D01*
X85237302Y-42324534D01*
X85237303Y-42324527D01*
X85237853Y-42320610D01*
X85238141Y-42300000D01*
X85219798Y-42136466D01*
X85210626Y-42110126D01*
X85195709Y-42067292D01*
X85165680Y-41981060D01*
X85154346Y-41962921D01*
X85082209Y-41847479D01*
X85078476Y-41841505D01*
X84992678Y-41755106D01*
X84967486Y-41729737D01*
X84967482Y-41729734D01*
X84962522Y-41724739D01*
X84823580Y-41636563D01*
X84668555Y-41581361D01*
X84669023Y-41580047D01*
X84613972Y-41548818D01*
X84580961Y-41485963D01*
X84578500Y-41461179D01*
X84578500Y-40244371D01*
X84598502Y-40176250D01*
X84615405Y-40155276D01*
X85113276Y-39657405D01*
X85175588Y-39623379D01*
X85202371Y-39620500D01*
X87073282Y-39620500D01*
X87117202Y-39628403D01*
X87172558Y-39648990D01*
X87172560Y-39648991D01*
X87179168Y-39651448D01*
X87294315Y-39666812D01*
X87330301Y-39671614D01*
X87395178Y-39700450D01*
X87402731Y-39707412D01*
X89078230Y-41382911D01*
X89090616Y-41397323D01*
X89099149Y-41408918D01*
X89099154Y-41408923D01*
X89103492Y-41414818D01*
X89109070Y-41419557D01*
X89109073Y-41419560D01*
X89143768Y-41449035D01*
X89151284Y-41455965D01*
X89156979Y-41461660D01*
X89159861Y-41463940D01*
X89179251Y-41479281D01*
X89182655Y-41482072D01*
X89220982Y-41514633D01*
X89238285Y-41529333D01*
X89244801Y-41532661D01*
X89249850Y-41536028D01*
X89254979Y-41539195D01*
X89260716Y-41543734D01*
X89326875Y-41574655D01*
X89330769Y-41576558D01*
X89395808Y-41609769D01*
X89402916Y-41611508D01*
X89408559Y-41613607D01*
X89414322Y-41615524D01*
X89420950Y-41618622D01*
X89428112Y-41620112D01*
X89428113Y-41620112D01*
X89461748Y-41627108D01*
X89475566Y-41629982D01*
X89492412Y-41633486D01*
X89496684Y-41634453D01*
X89530286Y-41642675D01*
X89591700Y-41678295D01*
X89624107Y-41741464D01*
X89625343Y-41780855D01*
X89610463Y-41898640D01*
X89628163Y-42079160D01*
X89685418Y-42251273D01*
X89689065Y-42257295D01*
X89689066Y-42257297D01*
X89769874Y-42390727D01*
X89779380Y-42406424D01*
X89784269Y-42411487D01*
X89784270Y-42411488D01*
X89818851Y-42447297D01*
X89905382Y-42536902D01*
X90057159Y-42636222D01*
X90063763Y-42638678D01*
X90063765Y-42638679D01*
X90220558Y-42696990D01*
X90220560Y-42696990D01*
X90227168Y-42699448D01*
X90310995Y-42710633D01*
X90399980Y-42722507D01*
X90399984Y-42722507D01*
X90406961Y-42723438D01*
X90413972Y-42722800D01*
X90413976Y-42722800D01*
X90556459Y-42709832D01*
X90587600Y-42706998D01*
X90594302Y-42704820D01*
X90594304Y-42704820D01*
X90753409Y-42653124D01*
X90753412Y-42653123D01*
X90760108Y-42650947D01*
X90861675Y-42590401D01*
X90909860Y-42561677D01*
X90909862Y-42561676D01*
X90915912Y-42558069D01*
X90976608Y-42500269D01*
X91039733Y-42467777D01*
X91110404Y-42474570D01*
X91166183Y-42518493D01*
X91189500Y-42591515D01*
X91189500Y-42788373D01*
X91169498Y-42856494D01*
X91115842Y-42902987D01*
X91076672Y-42913682D01*
X91024232Y-42919194D01*
X90852523Y-42977648D01*
X90846519Y-42981342D01*
X90704039Y-43068996D01*
X90704036Y-43068998D01*
X90698032Y-43072692D01*
X90692997Y-43077623D01*
X90692994Y-43077625D01*
X90581894Y-43186423D01*
X90568437Y-43199601D01*
X90470179Y-43352068D01*
X90467770Y-43358688D01*
X90467768Y-43358691D01*
X90413424Y-43508000D01*
X90408141Y-43522515D01*
X90385407Y-43702470D01*
X90403107Y-43882990D01*
X90460362Y-44055103D01*
X90464009Y-44061125D01*
X90464010Y-44061127D01*
X90547281Y-44198624D01*
X90554324Y-44210254D01*
X90680326Y-44340732D01*
X90693676Y-44349468D01*
X90813443Y-44427841D01*
X90832103Y-44440052D01*
X90838707Y-44442508D01*
X90838709Y-44442509D01*
X90910810Y-44469323D01*
X90967686Y-44511815D01*
X90992560Y-44578312D01*
X90977535Y-44647700D01*
X90927380Y-44697950D01*
X90907498Y-44706697D01*
X90839579Y-44729818D01*
X90777109Y-44768250D01*
X90691095Y-44821166D01*
X90691092Y-44821168D01*
X90685088Y-44824862D01*
X90680053Y-44829793D01*
X90680050Y-44829795D01*
X90560525Y-44946843D01*
X90555493Y-44951771D01*
X90503912Y-45031809D01*
X90461853Y-45097073D01*
X90457235Y-45104238D01*
X90454826Y-45110858D01*
X90454824Y-45110861D01*
X90398746Y-45264933D01*
X90395197Y-45274685D01*
X90372463Y-45454640D01*
X90390163Y-45635160D01*
X90447418Y-45807273D01*
X90451065Y-45813295D01*
X90451066Y-45813297D01*
X90533457Y-45949341D01*
X90541380Y-45962424D01*
X90546269Y-45967487D01*
X90546270Y-45967488D01*
X90617348Y-46041091D01*
X90667382Y-46092902D01*
X90692305Y-46109211D01*
X90800534Y-46180034D01*
X90819159Y-46192222D01*
X90825763Y-46194678D01*
X90825765Y-46194679D01*
X90982558Y-46252990D01*
X90982560Y-46252990D01*
X90989168Y-46255448D01*
X91072995Y-46266633D01*
X91161980Y-46278507D01*
X91161984Y-46278507D01*
X91168961Y-46279438D01*
X91175972Y-46278800D01*
X91175976Y-46278800D01*
X91318459Y-46265832D01*
X91349600Y-46262998D01*
X91356302Y-46260820D01*
X91356304Y-46260820D01*
X91515409Y-46209124D01*
X91515412Y-46209123D01*
X91522108Y-46206947D01*
X91657173Y-46126432D01*
X91671860Y-46117677D01*
X91671862Y-46117676D01*
X91677912Y-46114069D01*
X91809266Y-45988982D01*
X91909643Y-45837902D01*
X91955332Y-45717627D01*
X91971555Y-45674920D01*
X91971556Y-45674918D01*
X91974055Y-45668338D01*
X91977561Y-45643390D01*
X91998748Y-45492639D01*
X91998748Y-45492636D01*
X91999299Y-45488717D01*
X91999481Y-45475706D01*
X91999561Y-45469962D01*
X91999561Y-45469957D01*
X91999616Y-45466000D01*
X91979397Y-45285745D01*
X91977080Y-45279091D01*
X91922064Y-45121106D01*
X91922062Y-45121103D01*
X91919745Y-45114448D01*
X91869426Y-45033920D01*
X91850290Y-44965551D01*
X91871156Y-44897690D01*
X91925397Y-44851882D01*
X91995794Y-44842671D01*
X92059995Y-44872982D01*
X92065375Y-44878056D01*
X92204992Y-45017673D01*
X92224595Y-45045771D01*
X92225418Y-45045273D01*
X92309740Y-45184506D01*
X92319380Y-45200424D01*
X92324269Y-45205487D01*
X92324270Y-45205488D01*
X92392165Y-45275795D01*
X92445382Y-45330902D01*
X92597159Y-45430222D01*
X92603763Y-45432678D01*
X92603865Y-45432716D01*
X92603964Y-45432780D01*
X92610052Y-45435855D01*
X92609734Y-45436484D01*
X92649037Y-45461718D01*
X93184595Y-45997276D01*
X93218621Y-46059588D01*
X93221500Y-46086371D01*
X93221500Y-52973629D01*
X93201498Y-53041750D01*
X93184595Y-53062724D01*
X92947818Y-53299501D01*
X92885506Y-53333527D01*
X92814691Y-53328462D01*
X92757855Y-53285915D01*
X92747266Y-53269171D01*
X92670917Y-53124364D01*
X92663925Y-53111102D01*
X92659520Y-53105889D01*
X92659517Y-53105885D01*
X92547936Y-52973847D01*
X92547932Y-52973843D01*
X92543529Y-52968633D01*
X92536245Y-52963064D01*
X92400769Y-52859484D01*
X92400765Y-52859481D01*
X92395348Y-52855340D01*
X92226296Y-52776510D01*
X92044260Y-52735820D01*
X92038537Y-52735500D01*
X90069793Y-52735500D01*
X90001672Y-52715498D01*
X89980698Y-52698595D01*
X86426103Y-49144000D01*
X86317262Y-49056490D01*
X86311156Y-49053459D01*
X86311153Y-49053457D01*
X86156297Y-48976586D01*
X86156293Y-48976585D01*
X86150186Y-48973553D01*
X85969199Y-48928428D01*
X85962381Y-48928238D01*
X85962377Y-48928237D01*
X85881425Y-48925976D01*
X85782743Y-48923219D01*
X85756438Y-48928237D01*
X85606226Y-48956891D01*
X85606221Y-48956893D01*
X85599519Y-48958171D01*
X85593248Y-48960859D01*
X85593244Y-48960860D01*
X85483237Y-49008010D01*
X85428074Y-49031653D01*
X85393382Y-49056490D01*
X85304360Y-49120223D01*
X85276407Y-49140235D01*
X85151597Y-49278853D01*
X85148228Y-49284784D01*
X85148227Y-49284785D01*
X85138161Y-49302504D01*
X85059462Y-49441038D01*
X85057444Y-49447556D01*
X85057443Y-49447559D01*
X85008032Y-49607182D01*
X85004304Y-49619225D01*
X84988696Y-49805099D01*
X84989598Y-49811859D01*
X84989598Y-49811861D01*
X85002296Y-49907022D01*
X85013366Y-49989989D01*
X85015698Y-49996397D01*
X85015699Y-49996400D01*
X85072936Y-50153656D01*
X85077162Y-50165268D01*
X85177109Y-50322759D01*
X85180930Y-50327032D01*
X85182180Y-50328282D01*
X89025680Y-54171783D01*
X89032822Y-54179549D01*
X89066471Y-54219367D01*
X89071895Y-54223514D01*
X89071896Y-54223515D01*
X89130962Y-54268674D01*
X89133385Y-54270573D01*
X89190338Y-54316364D01*
X89196738Y-54321510D01*
X89202857Y-54324547D01*
X89205652Y-54326335D01*
X89206013Y-54326588D01*
X89206380Y-54326790D01*
X89209238Y-54328521D01*
X89214652Y-54332660D01*
X89288262Y-54366985D01*
X89291033Y-54368319D01*
X89363814Y-54404447D01*
X89370435Y-54406098D01*
X89373563Y-54407249D01*
X89373957Y-54407413D01*
X89374361Y-54407532D01*
X89377524Y-54408609D01*
X89383704Y-54411490D01*
X89462955Y-54429205D01*
X89465914Y-54429904D01*
X89544802Y-54449573D01*
X89551623Y-54449763D01*
X89554926Y-54450216D01*
X89555808Y-54450375D01*
X89560701Y-54451054D01*
X89565740Y-54452180D01*
X89571463Y-54452500D01*
X89647829Y-54452500D01*
X89651347Y-54452549D01*
X89724437Y-54454591D01*
X89724442Y-54454591D01*
X89731257Y-54454781D01*
X89737958Y-54453503D01*
X89744762Y-54452955D01*
X89744804Y-54453475D01*
X89755125Y-54452500D01*
X91490629Y-54452500D01*
X91558750Y-54472502D01*
X91605243Y-54526158D01*
X91615347Y-54596432D01*
X91585853Y-54661012D01*
X91579724Y-54667595D01*
X90908724Y-55338595D01*
X90846412Y-55372621D01*
X90819629Y-55375500D01*
X84958500Y-55375500D01*
X84890379Y-55355498D01*
X84843886Y-55301842D01*
X84832500Y-55249500D01*
X84832500Y-53341070D01*
X84833933Y-53322120D01*
X84836099Y-53307885D01*
X84836099Y-53307881D01*
X84837199Y-53300651D01*
X84836426Y-53291139D01*
X84832915Y-53247982D01*
X84832500Y-53237767D01*
X84832500Y-53229707D01*
X84829209Y-53201480D01*
X84828778Y-53197121D01*
X84823453Y-53131660D01*
X84822860Y-53124364D01*
X84820605Y-53117403D01*
X84819418Y-53111463D01*
X84818029Y-53105588D01*
X84817182Y-53098319D01*
X84792264Y-53029670D01*
X84790847Y-53025542D01*
X84770607Y-52963064D01*
X84770606Y-52963062D01*
X84768351Y-52956101D01*
X84764555Y-52949846D01*
X84762049Y-52944372D01*
X84759330Y-52938942D01*
X84756833Y-52932063D01*
X84750474Y-52922364D01*
X84716814Y-52871024D01*
X84714467Y-52867305D01*
X84709721Y-52859484D01*
X84676595Y-52804893D01*
X84669197Y-52796516D01*
X84669224Y-52796492D01*
X84666571Y-52793500D01*
X84663868Y-52790267D01*
X84659856Y-52784148D01*
X84603617Y-52730872D01*
X84601175Y-52728494D01*
X82583770Y-50711089D01*
X82571384Y-50696677D01*
X82562851Y-50685082D01*
X82562846Y-50685077D01*
X82558508Y-50679182D01*
X82552930Y-50674443D01*
X82552927Y-50674440D01*
X82518232Y-50644965D01*
X82510716Y-50638035D01*
X82505021Y-50632340D01*
X82488736Y-50619456D01*
X82482749Y-50614719D01*
X82479345Y-50611928D01*
X82429297Y-50569409D01*
X82429295Y-50569408D01*
X82423715Y-50564667D01*
X82417199Y-50561339D01*
X82412150Y-50557972D01*
X82407021Y-50554805D01*
X82401284Y-50550266D01*
X82335125Y-50519345D01*
X82331225Y-50517439D01*
X82266192Y-50484231D01*
X82259084Y-50482492D01*
X82253441Y-50480393D01*
X82247678Y-50478476D01*
X82241050Y-50475378D01*
X82226719Y-50472397D01*
X82169588Y-50460514D01*
X82165299Y-50459543D01*
X82094390Y-50442192D01*
X82088788Y-50441844D01*
X82088785Y-50441844D01*
X82083236Y-50441500D01*
X82083238Y-50441464D01*
X82079245Y-50441225D01*
X82075053Y-50440851D01*
X82067885Y-50439360D01*
X82007225Y-50441001D01*
X81990479Y-50441454D01*
X81987072Y-50441500D01*
X81487941Y-50441500D01*
X81476740Y-50441001D01*
X81475050Y-50440850D01*
X81467885Y-50439360D01*
X81396767Y-50441284D01*
X81390479Y-50441454D01*
X81387072Y-50441500D01*
X80046000Y-50441500D01*
X79977879Y-50421498D01*
X79931386Y-50367842D01*
X79920000Y-50315500D01*
X79920000Y-48080000D01*
X77380000Y-48080000D01*
X77380000Y-50315500D01*
X77359998Y-50383621D01*
X77306342Y-50430114D01*
X77254000Y-50441500D01*
X75851070Y-50441500D01*
X75832120Y-50440067D01*
X75817885Y-50437901D01*
X75817881Y-50437901D01*
X75810651Y-50436801D01*
X75803359Y-50437394D01*
X75803356Y-50437394D01*
X75757982Y-50441085D01*
X75747767Y-50441500D01*
X75739707Y-50441500D01*
X75736073Y-50441924D01*
X75736067Y-50441924D01*
X75723042Y-50443443D01*
X75711480Y-50444791D01*
X75707132Y-50445221D01*
X75634364Y-50451140D01*
X75627403Y-50453395D01*
X75621463Y-50454582D01*
X75615588Y-50455971D01*
X75608319Y-50456818D01*
X75539670Y-50481736D01*
X75535542Y-50483153D01*
X75473064Y-50503393D01*
X75473062Y-50503394D01*
X75466101Y-50505649D01*
X75459846Y-50509445D01*
X75454372Y-50511951D01*
X75448942Y-50514670D01*
X75442063Y-50517167D01*
X75435943Y-50521180D01*
X75435942Y-50521180D01*
X75381024Y-50557186D01*
X75377320Y-50559523D01*
X75314893Y-50597405D01*
X75310685Y-50601121D01*
X75310684Y-50601122D01*
X75306547Y-50604776D01*
X75306516Y-50604803D01*
X75306492Y-50604776D01*
X75303500Y-50607429D01*
X75300267Y-50610132D01*
X75294148Y-50614144D01*
X75264951Y-50644965D01*
X75240872Y-50670383D01*
X75238494Y-50672825D01*
X75034340Y-50876979D01*
X74952266Y-50980716D01*
X74949167Y-50987347D01*
X74949165Y-50987350D01*
X74880477Y-51134318D01*
X74880476Y-51134322D01*
X74877378Y-51140950D01*
X74841360Y-51314115D01*
X74846143Y-51490921D01*
X74848021Y-51498003D01*
X74848021Y-51498004D01*
X74866029Y-51565918D01*
X74891474Y-51661884D01*
X74894930Y-51668343D01*
X74969274Y-51807285D01*
X74974918Y-51817834D01*
X74979765Y-51823322D01*
X74979767Y-51823325D01*
X75024053Y-51873469D01*
X75092000Y-51950404D01*
X75236440Y-52052484D01*
X75243226Y-52055219D01*
X75243230Y-52055221D01*
X75318465Y-52085541D01*
X75400489Y-52118598D01*
X75407726Y-52119699D01*
X75568115Y-52144099D01*
X75568119Y-52144099D01*
X75575349Y-52145199D01*
X75582641Y-52144606D01*
X75582644Y-52144606D01*
X75673654Y-52137203D01*
X75751637Y-52130860D01*
X75758596Y-52128606D01*
X75758599Y-52128605D01*
X75912933Y-52078608D01*
X75912936Y-52078607D01*
X75919899Y-52076351D01*
X75926154Y-52072555D01*
X75926157Y-52072554D01*
X76066314Y-51987504D01*
X76066318Y-51987501D01*
X76071107Y-51984595D01*
X76073231Y-51982719D01*
X76139129Y-51958752D01*
X76147091Y-51958500D01*
X80509544Y-51958500D01*
X80577665Y-51978502D01*
X80624158Y-52032158D01*
X80634550Y-52100291D01*
X80630463Y-52132640D01*
X80648163Y-52313160D01*
X80705418Y-52485273D01*
X80709065Y-52491295D01*
X80709066Y-52491297D01*
X80791191Y-52626902D01*
X80799380Y-52640424D01*
X80804269Y-52645487D01*
X80804270Y-52645488D01*
X80853455Y-52696420D01*
X80925382Y-52770902D01*
X80970894Y-52800684D01*
X81060750Y-52859484D01*
X81077159Y-52870222D01*
X81083763Y-52872678D01*
X81083765Y-52872679D01*
X81240558Y-52930990D01*
X81240560Y-52930990D01*
X81247168Y-52933448D01*
X81319685Y-52943124D01*
X81419980Y-52956507D01*
X81419984Y-52956507D01*
X81426961Y-52957438D01*
X81433972Y-52956800D01*
X81433976Y-52956800D01*
X81584240Y-52943124D01*
X81607600Y-52940998D01*
X81614302Y-52938820D01*
X81614304Y-52938820D01*
X81773409Y-52887124D01*
X81773412Y-52887123D01*
X81780108Y-52884947D01*
X81900065Y-52813438D01*
X81929860Y-52795677D01*
X81929862Y-52795676D01*
X81935912Y-52792069D01*
X82067266Y-52666982D01*
X82112623Y-52598714D01*
X82166981Y-52553044D01*
X82237401Y-52544012D01*
X82306666Y-52579347D01*
X82423739Y-52696420D01*
X82457765Y-52758732D01*
X82452700Y-52829547D01*
X82410153Y-52886383D01*
X82400692Y-52892815D01*
X82303088Y-52952862D01*
X82298053Y-52957793D01*
X82298050Y-52957795D01*
X82178525Y-53074843D01*
X82173493Y-53079771D01*
X82075235Y-53232238D01*
X82072826Y-53238858D01*
X82072824Y-53238861D01*
X82035623Y-53341070D01*
X82013197Y-53402685D01*
X81990463Y-53582640D01*
X82008163Y-53763160D01*
X82065418Y-53935273D01*
X82069065Y-53941295D01*
X82069066Y-53941297D01*
X82147150Y-54070229D01*
X82159380Y-54090424D01*
X82285382Y-54220902D01*
X82437159Y-54320222D01*
X82443763Y-54322678D01*
X82443765Y-54322679D01*
X82600558Y-54380990D01*
X82600560Y-54380990D01*
X82607168Y-54383448D01*
X82690995Y-54394633D01*
X82779980Y-54406507D01*
X82779984Y-54406507D01*
X82786961Y-54407438D01*
X82793972Y-54406800D01*
X82793976Y-54406800D01*
X82936459Y-54393832D01*
X82967600Y-54390998D01*
X82974302Y-54388820D01*
X82974304Y-54388820D01*
X83133409Y-54337124D01*
X83133412Y-54337123D01*
X83140108Y-54334947D01*
X83140177Y-54334906D01*
X83207749Y-54325365D01*
X83272254Y-54355023D01*
X83310486Y-54414846D01*
X83315500Y-54450037D01*
X83315500Y-55249500D01*
X83295498Y-55317621D01*
X83241842Y-55364114D01*
X83189500Y-55375500D01*
X79961684Y-55375500D01*
X79942734Y-55374067D01*
X79928499Y-55371901D01*
X79928495Y-55371901D01*
X79921265Y-55370801D01*
X79913973Y-55371394D01*
X79913970Y-55371394D01*
X79868596Y-55375085D01*
X79858381Y-55375500D01*
X79850321Y-55375500D01*
X79846687Y-55375924D01*
X79846681Y-55375924D01*
X79833656Y-55377443D01*
X79822094Y-55378791D01*
X79817746Y-55379221D01*
X79795673Y-55381016D01*
X79752276Y-55384546D01*
X79752273Y-55384547D01*
X79744978Y-55385140D01*
X79738014Y-55387396D01*
X79732075Y-55388583D01*
X79726204Y-55389970D01*
X79718933Y-55390818D01*
X79712057Y-55393314D01*
X79712048Y-55393316D01*
X79650316Y-55415725D01*
X79646212Y-55417135D01*
X79576715Y-55439648D01*
X79570460Y-55443444D01*
X79565001Y-55445943D01*
X79559553Y-55448671D01*
X79552677Y-55451167D01*
X79491624Y-55491195D01*
X79487951Y-55493513D01*
X79425507Y-55531405D01*
X79417131Y-55538802D01*
X79417107Y-55538775D01*
X79414113Y-55541430D01*
X79410882Y-55544132D01*
X79404762Y-55548144D01*
X79377162Y-55577279D01*
X79351486Y-55604383D01*
X79349108Y-55606825D01*
X76032838Y-58923095D01*
X75970526Y-58957121D01*
X75943743Y-58960000D01*
X74977966Y-58960000D01*
X74935699Y-58952699D01*
X74918176Y-58946459D01*
X74910790Y-58943829D01*
X74868424Y-58928743D01*
X74868422Y-58928742D01*
X74861790Y-58926381D01*
X74854802Y-58925548D01*
X74854799Y-58925547D01*
X74731698Y-58910868D01*
X74681680Y-58904904D01*
X74674677Y-58905640D01*
X74674675Y-58905640D01*
X74516068Y-58922310D01*
X74446230Y-58909538D01*
X74394383Y-58861036D01*
X74377097Y-58803316D01*
X74377143Y-58800000D01*
X74358800Y-58636466D01*
X74353000Y-58619809D01*
X74314873Y-58510326D01*
X74304682Y-58481060D01*
X74217478Y-58341505D01*
X74159501Y-58283122D01*
X74106488Y-58229737D01*
X74106484Y-58229734D01*
X74101524Y-58224739D01*
X73962582Y-58136563D01*
X73904000Y-58115703D01*
X73814191Y-58083723D01*
X73814189Y-58083722D01*
X73807557Y-58081361D01*
X73800571Y-58080528D01*
X73800567Y-58080527D01*
X73686073Y-58066875D01*
X73644155Y-58061877D01*
X73637152Y-58062613D01*
X73637151Y-58062613D01*
X73593937Y-58067155D01*
X73480497Y-58079078D01*
X73473829Y-58081348D01*
X73331384Y-58129840D01*
X73331381Y-58129841D01*
X73324717Y-58132110D01*
X73184557Y-58218337D01*
X73172916Y-58229737D01*
X73097120Y-58303962D01*
X73066984Y-58333473D01*
X72977840Y-58471797D01*
X72975429Y-58478420D01*
X72975428Y-58478423D01*
X72923968Y-58619809D01*
X72923967Y-58619814D01*
X72921558Y-58626432D01*
X72900933Y-58789694D01*
X72916991Y-58953468D01*
X72968934Y-59109615D01*
X72990589Y-59145371D01*
X73017980Y-59190598D01*
X73054181Y-59250373D01*
X73059072Y-59255438D01*
X73059073Y-59255439D01*
X73085982Y-59283304D01*
X73168493Y-59368747D01*
X73306191Y-59458854D01*
X73460430Y-59516215D01*
X73467411Y-59517146D01*
X73467413Y-59517147D01*
X73616563Y-59537048D01*
X73616567Y-59537048D01*
X73623544Y-59537979D01*
X73630556Y-59537341D01*
X73630560Y-59537341D01*
X73730794Y-59528219D01*
X73800447Y-59541965D01*
X73851611Y-59591186D01*
X73868042Y-59660255D01*
X73867219Y-59669492D01*
X73862463Y-59707140D01*
X73880163Y-59887660D01*
X73937418Y-60059773D01*
X73941065Y-60065795D01*
X73941066Y-60065797D01*
X74017187Y-60191488D01*
X74031380Y-60214924D01*
X74157382Y-60345402D01*
X74166652Y-60351468D01*
X74288109Y-60430947D01*
X74309159Y-60444722D01*
X74315763Y-60447178D01*
X74315765Y-60447179D01*
X74472558Y-60505490D01*
X74472560Y-60505490D01*
X74479168Y-60507948D01*
X74562995Y-60519133D01*
X74651980Y-60531007D01*
X74651984Y-60531007D01*
X74658961Y-60531938D01*
X74665972Y-60531300D01*
X74665976Y-60531300D01*
X74808459Y-60518332D01*
X74839600Y-60515498D01*
X74846302Y-60513320D01*
X74846304Y-60513320D01*
X74939105Y-60483167D01*
X74978041Y-60477000D01*
X76243044Y-60477000D01*
X76261994Y-60478433D01*
X76276229Y-60480599D01*
X76276233Y-60480599D01*
X76283463Y-60481699D01*
X76290755Y-60481106D01*
X76290758Y-60481106D01*
X76336132Y-60477415D01*
X76346347Y-60477000D01*
X76354407Y-60477000D01*
X76367697Y-60475451D01*
X76382621Y-60473711D01*
X76386996Y-60473278D01*
X76452453Y-60467954D01*
X76452456Y-60467953D01*
X76459751Y-60467360D01*
X76466715Y-60465104D01*
X76472674Y-60463913D01*
X76478529Y-60462529D01*
X76485795Y-60461682D01*
X76554441Y-60436765D01*
X76558569Y-60435348D01*
X76621050Y-60415107D01*
X76621052Y-60415106D01*
X76628013Y-60412851D01*
X76634268Y-60409055D01*
X76639742Y-60406549D01*
X76645172Y-60403830D01*
X76652051Y-60401333D01*
X76713090Y-60361314D01*
X76716794Y-60358977D01*
X76779221Y-60321095D01*
X76787598Y-60313697D01*
X76787622Y-60313724D01*
X76790614Y-60311071D01*
X76793847Y-60308368D01*
X76799966Y-60304356D01*
X76853242Y-60248117D01*
X76855620Y-60245675D01*
X80171890Y-56929405D01*
X80234202Y-56895379D01*
X80260985Y-56892500D01*
X81287789Y-56892500D01*
X81355910Y-56912502D01*
X81402403Y-56966158D01*
X81412507Y-57036432D01*
X81383013Y-57101012D01*
X81374362Y-57110048D01*
X81347327Y-57135614D01*
X81347324Y-57135618D01*
X81342364Y-57140308D01*
X81338526Y-57145955D01*
X81334107Y-57151148D01*
X81333707Y-57150808D01*
X81327100Y-57158797D01*
X80640000Y-57845897D01*
X80637863Y-57848555D01*
X80637862Y-57848556D01*
X80577279Y-57923907D01*
X80552490Y-57954738D01*
X80549459Y-57960844D01*
X80549457Y-57960847D01*
X80472586Y-58115703D01*
X80472585Y-58115707D01*
X80469553Y-58121814D01*
X80424428Y-58302801D01*
X80424238Y-58309615D01*
X80424237Y-58309623D01*
X80423297Y-58343275D01*
X80419219Y-58489257D01*
X80420498Y-58495961D01*
X80452891Y-58665774D01*
X80452893Y-58665779D01*
X80454171Y-58672481D01*
X80456859Y-58678752D01*
X80456860Y-58678756D01*
X80495367Y-58768597D01*
X80527653Y-58843926D01*
X80550905Y-58876404D01*
X80619497Y-58972213D01*
X80636235Y-58995593D01*
X80641305Y-59000158D01*
X80765824Y-59112273D01*
X80774853Y-59120403D01*
X80937038Y-59212538D01*
X80943556Y-59214556D01*
X80943559Y-59214557D01*
X81108705Y-59265678D01*
X81108707Y-59265678D01*
X81115225Y-59267696D01*
X81301099Y-59283304D01*
X81307859Y-59282402D01*
X81307861Y-59282402D01*
X81423380Y-59266988D01*
X81485989Y-59258634D01*
X81492397Y-59256302D01*
X81492400Y-59256301D01*
X81654851Y-59197174D01*
X81654854Y-59197172D01*
X81661268Y-59194838D01*
X81818759Y-59094891D01*
X81823032Y-59091070D01*
X82070176Y-58843926D01*
X82318699Y-58595404D01*
X82381011Y-58561379D01*
X82407794Y-58558500D01*
X96005616Y-58558500D01*
X96016158Y-58558942D01*
X96068105Y-58563304D01*
X96074865Y-58562402D01*
X96074867Y-58562402D01*
X96148608Y-58552563D01*
X96151663Y-58552193D01*
X96183895Y-58548691D01*
X96232443Y-58543417D01*
X96238907Y-58541242D01*
X96242182Y-58540522D01*
X96242578Y-58540452D01*
X96243002Y-58540329D01*
X96246222Y-58539538D01*
X96252995Y-58538634D01*
X96329329Y-58510851D01*
X96332204Y-58509844D01*
X96350779Y-58503593D01*
X96409229Y-58483922D01*
X96415083Y-58480404D01*
X96418090Y-58479015D01*
X96418495Y-58478848D01*
X96418871Y-58478643D01*
X96421858Y-58477173D01*
X96428274Y-58474838D01*
X96496926Y-58431270D01*
X96499395Y-58429745D01*
X96569115Y-58387853D01*
X96574072Y-58383166D01*
X96576729Y-58381149D01*
X96577475Y-58380631D01*
X96581408Y-58377656D01*
X96585765Y-58374891D01*
X96590038Y-58371070D01*
X96644021Y-58317087D01*
X96646543Y-58314633D01*
X96699689Y-58264376D01*
X96699690Y-58264375D01*
X96704642Y-58259692D01*
X96708473Y-58254054D01*
X96712902Y-58248850D01*
X96713301Y-58249189D01*
X96719908Y-58241200D01*
X96787640Y-58173469D01*
X96790047Y-58171062D01*
X96792174Y-58168417D01*
X96792179Y-58168411D01*
X96873283Y-58067537D01*
X96873284Y-58067536D01*
X96877557Y-58062221D01*
X96898213Y-58020610D01*
X96913560Y-57989694D01*
X98561931Y-57989694D01*
X98577989Y-58153468D01*
X98629932Y-58309615D01*
X98634192Y-58316649D01*
X98652864Y-58347479D01*
X98715179Y-58450373D01*
X98720070Y-58455438D01*
X98720071Y-58455439D01*
X98752729Y-58489257D01*
X98829491Y-58568747D01*
X98967189Y-58658854D01*
X99121428Y-58716215D01*
X99128409Y-58717146D01*
X99128411Y-58717147D01*
X99277561Y-58737048D01*
X99277565Y-58737048D01*
X99284542Y-58737979D01*
X99291553Y-58737341D01*
X99291557Y-58737341D01*
X99441403Y-58723704D01*
X99441404Y-58723704D01*
X99448424Y-58723065D01*
X99477062Y-58713760D01*
X99598230Y-58674390D01*
X99598233Y-58674389D01*
X99604929Y-58672213D01*
X99746279Y-58587951D01*
X99865449Y-58474468D01*
X99881458Y-58450373D01*
X99952614Y-58343275D01*
X99952615Y-58343273D01*
X99956515Y-58337403D01*
X100014951Y-58183568D01*
X100029317Y-58081348D01*
X100037302Y-58024534D01*
X100037303Y-58024527D01*
X100037853Y-58020610D01*
X100038141Y-58000000D01*
X100019798Y-57836466D01*
X100013998Y-57819809D01*
X99982631Y-57729737D01*
X99965680Y-57681060D01*
X99878476Y-57541505D01*
X99820499Y-57483122D01*
X99767486Y-57429737D01*
X99767482Y-57429734D01*
X99762522Y-57424739D01*
X99623580Y-57336563D01*
X99574447Y-57319068D01*
X99475189Y-57283723D01*
X99475187Y-57283722D01*
X99468555Y-57281361D01*
X99461569Y-57280528D01*
X99461565Y-57280527D01*
X99347071Y-57266875D01*
X99305153Y-57261877D01*
X99298150Y-57262613D01*
X99298149Y-57262613D01*
X99254935Y-57267155D01*
X99141495Y-57279078D01*
X99134827Y-57281348D01*
X98992382Y-57329840D01*
X98992379Y-57329841D01*
X98985715Y-57332110D01*
X98845555Y-57418337D01*
X98727982Y-57533473D01*
X98638838Y-57671797D01*
X98636427Y-57678420D01*
X98636426Y-57678423D01*
X98584966Y-57819809D01*
X98584965Y-57819814D01*
X98582556Y-57826432D01*
X98561931Y-57989694D01*
X96913560Y-57989694D01*
X96957461Y-57901256D01*
X96957462Y-57901252D01*
X96960494Y-57895145D01*
X97005619Y-57714158D01*
X97006618Y-57678423D01*
X97009352Y-57580527D01*
X97010828Y-57527702D01*
X96990467Y-57420965D01*
X96977156Y-57351185D01*
X96977154Y-57351180D01*
X96975876Y-57344478D01*
X96969603Y-57329840D01*
X96905082Y-57179305D01*
X96902394Y-57173033D01*
X96848103Y-57097200D01*
X96797785Y-57026915D01*
X96797783Y-57026913D01*
X96793812Y-57021366D01*
X96655194Y-56896556D01*
X96493009Y-56804421D01*
X96486491Y-56802403D01*
X96486488Y-56802402D01*
X96321342Y-56751281D01*
X96321340Y-56751281D01*
X96314822Y-56749263D01*
X96128948Y-56733655D01*
X96122188Y-56734557D01*
X96122186Y-56734557D01*
X96016253Y-56748692D01*
X95944058Y-56758325D01*
X95937650Y-56760657D01*
X95937647Y-56760658D01*
X95775191Y-56819787D01*
X95775189Y-56819788D01*
X95768779Y-56822121D01*
X95763020Y-56825776D01*
X95757372Y-56828555D01*
X95701744Y-56841500D01*
X91921661Y-56841500D01*
X91853540Y-56821498D01*
X91807047Y-56767842D01*
X91796943Y-56697568D01*
X91816713Y-56645773D01*
X91905743Y-56511772D01*
X91909643Y-56505902D01*
X91912143Y-56499320D01*
X91912149Y-56499309D01*
X91914059Y-56494280D01*
X91942751Y-56449930D01*
X93339027Y-55053654D01*
X93401339Y-55019628D01*
X93472154Y-55024693D01*
X93528990Y-55067240D01*
X93553801Y-55133760D01*
X93552430Y-55163324D01*
X93537784Y-55251795D01*
X93547547Y-55438067D01*
X93597080Y-55617898D01*
X93684075Y-55782898D01*
X93688480Y-55788111D01*
X93688483Y-55788115D01*
X93800064Y-55920153D01*
X93800068Y-55920157D01*
X93804471Y-55925367D01*
X93809895Y-55929514D01*
X93809896Y-55929515D01*
X93947231Y-56034516D01*
X93947235Y-56034519D01*
X93952652Y-56038660D01*
X94121704Y-56117490D01*
X94303740Y-56158180D01*
X94309463Y-56158500D01*
X96296610Y-56158500D01*
X96307152Y-56158942D01*
X96359099Y-56163304D01*
X96365859Y-56162402D01*
X96365861Y-56162402D01*
X96439602Y-56152563D01*
X96442657Y-56152193D01*
X96474889Y-56148691D01*
X96523437Y-56143417D01*
X96529901Y-56141242D01*
X96533176Y-56140522D01*
X96533572Y-56140452D01*
X96533996Y-56140329D01*
X96537216Y-56139538D01*
X96543989Y-56138634D01*
X96620323Y-56110851D01*
X96623198Y-56109844D01*
X96641773Y-56103593D01*
X96700223Y-56083922D01*
X96706077Y-56080404D01*
X96709084Y-56079015D01*
X96709489Y-56078848D01*
X96709865Y-56078643D01*
X96712852Y-56077173D01*
X96719268Y-56074838D01*
X96787920Y-56031270D01*
X96790389Y-56029745D01*
X96860109Y-55987853D01*
X96865066Y-55983166D01*
X96867723Y-55981149D01*
X96868469Y-55980631D01*
X96872402Y-55977656D01*
X96876759Y-55974891D01*
X96881032Y-55971070D01*
X96935011Y-55917091D01*
X96937533Y-55914637D01*
X96938185Y-55914020D01*
X96995636Y-55859692D01*
X96999474Y-55854044D01*
X97003893Y-55848852D01*
X97004292Y-55849192D01*
X97010900Y-55841202D01*
X97854699Y-54997404D01*
X97917011Y-54963379D01*
X97943794Y-54960500D01*
X111056610Y-54960500D01*
X111067152Y-54960942D01*
X111119099Y-54965304D01*
X111125859Y-54964402D01*
X111125861Y-54964402D01*
X111199602Y-54954563D01*
X111202657Y-54954193D01*
X111234889Y-54950691D01*
X111283437Y-54945417D01*
X111289901Y-54943242D01*
X111293176Y-54942522D01*
X111293572Y-54942452D01*
X111293996Y-54942329D01*
X111297216Y-54941538D01*
X111303989Y-54940634D01*
X111380323Y-54912851D01*
X111383198Y-54911844D01*
X111401773Y-54905593D01*
X111460223Y-54885922D01*
X111466077Y-54882404D01*
X111469084Y-54881015D01*
X111469489Y-54880848D01*
X111469865Y-54880643D01*
X111472852Y-54879173D01*
X111479268Y-54876838D01*
X111547920Y-54833270D01*
X111550389Y-54831745D01*
X111620109Y-54789853D01*
X111625066Y-54785166D01*
X111627723Y-54783149D01*
X111628469Y-54782631D01*
X111632402Y-54779656D01*
X111636759Y-54776891D01*
X111641032Y-54773070D01*
X111695011Y-54719091D01*
X111697533Y-54716637D01*
X111698185Y-54716020D01*
X111755636Y-54661692D01*
X111759474Y-54656044D01*
X111763893Y-54650852D01*
X111764293Y-54651192D01*
X111770897Y-54643205D01*
X112676407Y-53737696D01*
X112738717Y-53703672D01*
X112809533Y-53708737D01*
X112866368Y-53751284D01*
X112891179Y-53817804D01*
X112891500Y-53826793D01*
X112891500Y-66700000D01*
X112871498Y-66768121D01*
X112817842Y-66814614D01*
X112765500Y-66826000D01*
X106734500Y-66826000D01*
X106666379Y-66805998D01*
X106619886Y-66752342D01*
X106608500Y-66700000D01*
X106608500Y-64334500D01*
X108071026Y-64334500D01*
X108090891Y-64586903D01*
X108149995Y-64833091D01*
X108246884Y-65067002D01*
X108379172Y-65282876D01*
X108543602Y-65475398D01*
X108736124Y-65639828D01*
X108951998Y-65772116D01*
X108956568Y-65774009D01*
X108956572Y-65774011D01*
X109181336Y-65867111D01*
X109185909Y-65869005D01*
X109270532Y-65889321D01*
X109427284Y-65926954D01*
X109427290Y-65926955D01*
X109432097Y-65928109D01*
X109531916Y-65935965D01*
X109618845Y-65942807D01*
X109618852Y-65942807D01*
X109621301Y-65943000D01*
X109747699Y-65943000D01*
X109750148Y-65942807D01*
X109750155Y-65942807D01*
X109837084Y-65935965D01*
X109936903Y-65928109D01*
X109941710Y-65926955D01*
X109941716Y-65926954D01*
X110098468Y-65889321D01*
X110183091Y-65869005D01*
X110187664Y-65867111D01*
X110412428Y-65774011D01*
X110412432Y-65774009D01*
X110417002Y-65772116D01*
X110632876Y-65639828D01*
X110825398Y-65475398D01*
X110989828Y-65282876D01*
X111122116Y-65067002D01*
X111219005Y-64833091D01*
X111278109Y-64586903D01*
X111297974Y-64334500D01*
X111278109Y-64082097D01*
X111219005Y-63835909D01*
X111122116Y-63601998D01*
X110989828Y-63386124D01*
X110825398Y-63193602D01*
X110632876Y-63029172D01*
X110417002Y-62896884D01*
X110412432Y-62894991D01*
X110412428Y-62894989D01*
X110187664Y-62801889D01*
X110187662Y-62801888D01*
X110183091Y-62799995D01*
X110073818Y-62773761D01*
X109941716Y-62742046D01*
X109941710Y-62742045D01*
X109936903Y-62740891D01*
X109837084Y-62733035D01*
X109750155Y-62726193D01*
X109750148Y-62726193D01*
X109747699Y-62726000D01*
X109621301Y-62726000D01*
X109618852Y-62726193D01*
X109618845Y-62726193D01*
X109531916Y-62733035D01*
X109432097Y-62740891D01*
X109427290Y-62742045D01*
X109427284Y-62742046D01*
X109295182Y-62773761D01*
X109185909Y-62799995D01*
X109181338Y-62801888D01*
X109181336Y-62801889D01*
X108956572Y-62894989D01*
X108956568Y-62894991D01*
X108951998Y-62896884D01*
X108736124Y-63029172D01*
X108543602Y-63193602D01*
X108379172Y-63386124D01*
X108246884Y-63601998D01*
X108149995Y-63835909D01*
X108090891Y-64082097D01*
X108071026Y-64334500D01*
X106608500Y-64334500D01*
X106608500Y-62508531D01*
X106608502Y-62507750D01*
X106608926Y-62439300D01*
X106608982Y-62430326D01*
X106606518Y-62421701D01*
X106606517Y-62421695D01*
X106600851Y-62401866D01*
X106597278Y-62385128D01*
X106593080Y-62355813D01*
X106589362Y-62347635D01*
X106582464Y-62332464D01*
X106576011Y-62314925D01*
X106568968Y-62290272D01*
X106564181Y-62282684D01*
X106564180Y-62282681D01*
X106553176Y-62265238D01*
X106545048Y-62250172D01*
X106532792Y-62223218D01*
X106526932Y-62216417D01*
X106526930Y-62216414D01*
X106516051Y-62203788D01*
X106504936Y-62188767D01*
X106496043Y-62174670D01*
X106491254Y-62167078D01*
X106469070Y-62147482D01*
X106457041Y-62135304D01*
X106437713Y-62112873D01*
X106416186Y-62098920D01*
X106401306Y-62087624D01*
X106388816Y-62076591D01*
X106388815Y-62076591D01*
X106382088Y-62070648D01*
X106355302Y-62058069D01*
X106340330Y-62049752D01*
X106323015Y-62038529D01*
X106315485Y-62033648D01*
X106290903Y-62026297D01*
X106273461Y-62019635D01*
X106250245Y-62008733D01*
X106241378Y-62007352D01*
X106241376Y-62007351D01*
X106221007Y-62004178D01*
X106204301Y-62000397D01*
X106184538Y-61994487D01*
X106184536Y-61994487D01*
X106175934Y-61991914D01*
X106166960Y-61991859D01*
X106166959Y-61991859D01*
X106160244Y-61991818D01*
X106141494Y-61991704D01*
X106140739Y-61991672D01*
X106139661Y-61991504D01*
X106112414Y-61991501D01*
X106108801Y-61991501D01*
X106108043Y-61991499D01*
X106097100Y-61991432D01*
X106030279Y-61991024D01*
X106028952Y-61991404D01*
X106027624Y-61991494D01*
X105968136Y-61991488D01*
X105919935Y-61991484D01*
X105851816Y-61971476D01*
X105805329Y-61917816D01*
X105795231Y-61847541D01*
X105824730Y-61782963D01*
X105831008Y-61776233D01*
X105926430Y-61681144D01*
X105926436Y-61681137D01*
X105930097Y-61677489D01*
X105989595Y-61594689D01*
X106057436Y-61500277D01*
X106060454Y-61496077D01*
X106081321Y-61453857D01*
X106157137Y-61300453D01*
X106157138Y-61300451D01*
X106159431Y-61295811D01*
X106224371Y-61082069D01*
X106253530Y-60860590D01*
X106255157Y-60794000D01*
X106236853Y-60571361D01*
X106182432Y-60354702D01*
X106093355Y-60149840D01*
X105972015Y-59962277D01*
X105821671Y-59797051D01*
X105817620Y-59793852D01*
X105817616Y-59793848D01*
X105650415Y-59661800D01*
X105650411Y-59661798D01*
X105646360Y-59658598D01*
X105450790Y-59550638D01*
X105445921Y-59548914D01*
X105445917Y-59548912D01*
X105245088Y-59477795D01*
X105245084Y-59477794D01*
X105240213Y-59476069D01*
X105235120Y-59475162D01*
X105235117Y-59475161D01*
X105025374Y-59437800D01*
X105025368Y-59437799D01*
X105020285Y-59436894D01*
X104946453Y-59435992D01*
X104802082Y-59434228D01*
X104802080Y-59434228D01*
X104796912Y-59434165D01*
X104576092Y-59467955D01*
X104363757Y-59537357D01*
X104165608Y-59640507D01*
X104161475Y-59643610D01*
X104161472Y-59643612D01*
X103991101Y-59771530D01*
X103986966Y-59774635D01*
X103983394Y-59778373D01*
X103860505Y-59906969D01*
X103832630Y-59936138D01*
X103725202Y-60093621D01*
X103670294Y-60138621D01*
X103599769Y-60146792D01*
X103536022Y-60115538D01*
X103515325Y-60091054D01*
X103434823Y-59966617D01*
X103434821Y-59966614D01*
X103432015Y-59962277D01*
X103281671Y-59797051D01*
X103277620Y-59793852D01*
X103277616Y-59793848D01*
X103110415Y-59661800D01*
X103110411Y-59661798D01*
X103106360Y-59658598D01*
X102910790Y-59550638D01*
X102905921Y-59548914D01*
X102905917Y-59548912D01*
X102705088Y-59477795D01*
X102705084Y-59477794D01*
X102700213Y-59476069D01*
X102695120Y-59475162D01*
X102695117Y-59475161D01*
X102485374Y-59437800D01*
X102485368Y-59437799D01*
X102480285Y-59436894D01*
X102406453Y-59435992D01*
X102262082Y-59434228D01*
X102262080Y-59434228D01*
X102256912Y-59434165D01*
X102036092Y-59467955D01*
X101823757Y-59537357D01*
X101625608Y-59640507D01*
X101621475Y-59643610D01*
X101621472Y-59643612D01*
X101451101Y-59771530D01*
X101446966Y-59774635D01*
X101443394Y-59778373D01*
X101320505Y-59906969D01*
X101292630Y-59936138D01*
X101185202Y-60093621D01*
X101130294Y-60138621D01*
X101059769Y-60146792D01*
X100996022Y-60115538D01*
X100975325Y-60091054D01*
X100894823Y-59966617D01*
X100894821Y-59966614D01*
X100892015Y-59962277D01*
X100741671Y-59797051D01*
X100737620Y-59793852D01*
X100737616Y-59793848D01*
X100570415Y-59661800D01*
X100570411Y-59661798D01*
X100566360Y-59658598D01*
X100370790Y-59550638D01*
X100365921Y-59548914D01*
X100365917Y-59548912D01*
X100165088Y-59477795D01*
X100165084Y-59477794D01*
X100160213Y-59476069D01*
X100155120Y-59475162D01*
X100155117Y-59475161D01*
X99945374Y-59437800D01*
X99945368Y-59437799D01*
X99940285Y-59436894D01*
X99866453Y-59435992D01*
X99722082Y-59434228D01*
X99722080Y-59434228D01*
X99716912Y-59434165D01*
X99496092Y-59467955D01*
X99283757Y-59537357D01*
X99085608Y-59640507D01*
X99081475Y-59643610D01*
X99081472Y-59643612D01*
X98911101Y-59771530D01*
X98906966Y-59774635D01*
X98903394Y-59778373D01*
X98780505Y-59906969D01*
X98752630Y-59936138D01*
X98645202Y-60093621D01*
X98590294Y-60138621D01*
X98519769Y-60146792D01*
X98456022Y-60115538D01*
X98435325Y-60091054D01*
X98354823Y-59966617D01*
X98354821Y-59966614D01*
X98352015Y-59962277D01*
X98201671Y-59797051D01*
X98197620Y-59793852D01*
X98197616Y-59793848D01*
X98030415Y-59661800D01*
X98030411Y-59661798D01*
X98026360Y-59658598D01*
X97830790Y-59550638D01*
X97825921Y-59548914D01*
X97825917Y-59548912D01*
X97625088Y-59477795D01*
X97625084Y-59477794D01*
X97620213Y-59476069D01*
X97615120Y-59475162D01*
X97615117Y-59475161D01*
X97405374Y-59437800D01*
X97405368Y-59437799D01*
X97400285Y-59436894D01*
X97326453Y-59435992D01*
X97182082Y-59434228D01*
X97182080Y-59434228D01*
X97176912Y-59434165D01*
X96956092Y-59467955D01*
X96743757Y-59537357D01*
X96545608Y-59640507D01*
X96541475Y-59643610D01*
X96541472Y-59643612D01*
X96371101Y-59771530D01*
X96366966Y-59774635D01*
X96363394Y-59778373D01*
X96240505Y-59906969D01*
X96212630Y-59936138D01*
X96105202Y-60093621D01*
X96050294Y-60138621D01*
X95979769Y-60146792D01*
X95916022Y-60115538D01*
X95895325Y-60091054D01*
X95814823Y-59966617D01*
X95814821Y-59966614D01*
X95812015Y-59962277D01*
X95661671Y-59797051D01*
X95657620Y-59793852D01*
X95657616Y-59793848D01*
X95490415Y-59661800D01*
X95490411Y-59661798D01*
X95486360Y-59658598D01*
X95290790Y-59550638D01*
X95285921Y-59548914D01*
X95285917Y-59548912D01*
X95085088Y-59477795D01*
X95085084Y-59477794D01*
X95080213Y-59476069D01*
X95075120Y-59475162D01*
X95075117Y-59475161D01*
X94865374Y-59437800D01*
X94865368Y-59437799D01*
X94860285Y-59436894D01*
X94786453Y-59435992D01*
X94642082Y-59434228D01*
X94642080Y-59434228D01*
X94636912Y-59434165D01*
X94416092Y-59467955D01*
X94203757Y-59537357D01*
X94005608Y-59640507D01*
X94001475Y-59643610D01*
X94001472Y-59643612D01*
X93831101Y-59771530D01*
X93826966Y-59774635D01*
X93823394Y-59778373D01*
X93731059Y-59874996D01*
X93669535Y-59910426D01*
X93598622Y-59906969D01*
X93540836Y-59865723D01*
X93514522Y-59799783D01*
X93515191Y-59770409D01*
X93522748Y-59716640D01*
X93522748Y-59716635D01*
X93523299Y-59712717D01*
X93523616Y-59690000D01*
X93503397Y-59509745D01*
X93501080Y-59503091D01*
X93446064Y-59345106D01*
X93446062Y-59345103D01*
X93443745Y-59338448D01*
X93408724Y-59282402D01*
X93351359Y-59190598D01*
X93347626Y-59184624D01*
X93333941Y-59170843D01*
X93224778Y-59060915D01*
X93224774Y-59060912D01*
X93219815Y-59055918D01*
X93208697Y-59048862D01*
X93131951Y-59000158D01*
X93066666Y-58958727D01*
X93032213Y-58946459D01*
X92902425Y-58900243D01*
X92902420Y-58900242D01*
X92895790Y-58897881D01*
X92888802Y-58897048D01*
X92888799Y-58897047D01*
X92765698Y-58882368D01*
X92715680Y-58876404D01*
X92708677Y-58877140D01*
X92708676Y-58877140D01*
X92542288Y-58894628D01*
X92542286Y-58894629D01*
X92535288Y-58895364D01*
X92363579Y-58953818D01*
X92353282Y-58960153D01*
X92215095Y-59045166D01*
X92215092Y-59045168D01*
X92209088Y-59048862D01*
X92204053Y-59053793D01*
X92204050Y-59053795D01*
X92084525Y-59170843D01*
X92079493Y-59175771D01*
X91981235Y-59328238D01*
X91978826Y-59334858D01*
X91978824Y-59334861D01*
X91926800Y-59477795D01*
X91919197Y-59498685D01*
X91896463Y-59678640D01*
X91914163Y-59859160D01*
X91971418Y-60031273D01*
X91975065Y-60037295D01*
X91975066Y-60037297D01*
X92046101Y-60154590D01*
X92065380Y-60186424D01*
X92070269Y-60191487D01*
X92070270Y-60191488D01*
X92122598Y-60245675D01*
X92191382Y-60316902D01*
X92249147Y-60354702D01*
X92314274Y-60397320D01*
X92343159Y-60416222D01*
X92349763Y-60418678D01*
X92349765Y-60418679D01*
X92506558Y-60476990D01*
X92506560Y-60476990D01*
X92513168Y-60479448D01*
X92596995Y-60490633D01*
X92685980Y-60502507D01*
X92685984Y-60502507D01*
X92692961Y-60503438D01*
X92699972Y-60502800D01*
X92699976Y-60502800D01*
X92842459Y-60489832D01*
X92873600Y-60486998D01*
X92880302Y-60484820D01*
X92880304Y-60484820D01*
X93039409Y-60433124D01*
X93039412Y-60433123D01*
X93046108Y-60430947D01*
X93165592Y-60359720D01*
X93195860Y-60341677D01*
X93195862Y-60341676D01*
X93201912Y-60338069D01*
X93207012Y-60333212D01*
X93212626Y-60328951D01*
X93213382Y-60329947D01*
X93270108Y-60300750D01*
X93340778Y-60307544D01*
X93396557Y-60351468D01*
X93419734Y-60418574D01*
X93415290Y-60458159D01*
X93392990Y-60538570D01*
X93369252Y-60760695D01*
X93369549Y-60765848D01*
X93369549Y-60765851D01*
X93375012Y-60860590D01*
X93382111Y-60983715D01*
X93383248Y-60988761D01*
X93383249Y-60988767D01*
X93403120Y-61076939D01*
X93431223Y-61201639D01*
X93515267Y-61408616D01*
X93566020Y-61491438D01*
X93629292Y-61594688D01*
X93631988Y-61599088D01*
X93635368Y-61602990D01*
X93774866Y-61764031D01*
X93774870Y-61764035D01*
X93778251Y-61767938D01*
X93782228Y-61771240D01*
X93785390Y-61774336D01*
X93820066Y-61836288D01*
X93815744Y-61907153D01*
X93773795Y-61964431D01*
X93707539Y-61989938D01*
X93697221Y-61990360D01*
X90681341Y-61990083D01*
X90613223Y-61970075D01*
X90566735Y-61916415D01*
X90556637Y-61846140D01*
X90586136Y-61781562D01*
X90592413Y-61774832D01*
X90593116Y-61774132D01*
X90690097Y-61677489D01*
X90749595Y-61594689D01*
X90817436Y-61500277D01*
X90820454Y-61496077D01*
X90841321Y-61453857D01*
X90917137Y-61300453D01*
X90917138Y-61300451D01*
X90919431Y-61295811D01*
X90984371Y-61082069D01*
X91013530Y-60860590D01*
X91015157Y-60794000D01*
X90996853Y-60571361D01*
X90942432Y-60354702D01*
X90853355Y-60149840D01*
X90732015Y-59962277D01*
X90581671Y-59797051D01*
X90577620Y-59793852D01*
X90577616Y-59793848D01*
X90410415Y-59661800D01*
X90410411Y-59661798D01*
X90406360Y-59658598D01*
X90210790Y-59550638D01*
X90205921Y-59548914D01*
X90205917Y-59548912D01*
X90005088Y-59477795D01*
X90005084Y-59477794D01*
X90000213Y-59476069D01*
X89995120Y-59475162D01*
X89995117Y-59475161D01*
X89785374Y-59437800D01*
X89785368Y-59437799D01*
X89780285Y-59436894D01*
X89706453Y-59435992D01*
X89562082Y-59434228D01*
X89562080Y-59434228D01*
X89556912Y-59434165D01*
X89336092Y-59467955D01*
X89123757Y-59537357D01*
X88925608Y-59640507D01*
X88921475Y-59643610D01*
X88921472Y-59643612D01*
X88751101Y-59771530D01*
X88746966Y-59774635D01*
X88743394Y-59778373D01*
X88620505Y-59906969D01*
X88592630Y-59936138D01*
X88485202Y-60093621D01*
X88430294Y-60138621D01*
X88359769Y-60146792D01*
X88296022Y-60115538D01*
X88275325Y-60091054D01*
X88194823Y-59966617D01*
X88194821Y-59966614D01*
X88192015Y-59962277D01*
X88041671Y-59797051D01*
X88037620Y-59793852D01*
X88037616Y-59793848D01*
X87870415Y-59661800D01*
X87870411Y-59661798D01*
X87866360Y-59658598D01*
X87670790Y-59550638D01*
X87665921Y-59548914D01*
X87665917Y-59548912D01*
X87465088Y-59477795D01*
X87465084Y-59477794D01*
X87460213Y-59476069D01*
X87455120Y-59475162D01*
X87455117Y-59475161D01*
X87245374Y-59437800D01*
X87245368Y-59437799D01*
X87240285Y-59436894D01*
X87166453Y-59435992D01*
X87022082Y-59434228D01*
X87022080Y-59434228D01*
X87016912Y-59434165D01*
X86796092Y-59467955D01*
X86583757Y-59537357D01*
X86385608Y-59640507D01*
X86381475Y-59643610D01*
X86381472Y-59643612D01*
X86211101Y-59771530D01*
X86206966Y-59774635D01*
X86203394Y-59778373D01*
X86080505Y-59906969D01*
X86052630Y-59936138D01*
X85945202Y-60093621D01*
X85890294Y-60138621D01*
X85819769Y-60146792D01*
X85756022Y-60115538D01*
X85735325Y-60091054D01*
X85654823Y-59966617D01*
X85654821Y-59966614D01*
X85652015Y-59962277D01*
X85501671Y-59797051D01*
X85497620Y-59793852D01*
X85497616Y-59793848D01*
X85330415Y-59661800D01*
X85330411Y-59661798D01*
X85326360Y-59658598D01*
X85130790Y-59550638D01*
X85125921Y-59548914D01*
X85125917Y-59548912D01*
X84925088Y-59477795D01*
X84925084Y-59477794D01*
X84920213Y-59476069D01*
X84915120Y-59475162D01*
X84915117Y-59475161D01*
X84705374Y-59437800D01*
X84705368Y-59437799D01*
X84700285Y-59436894D01*
X84626453Y-59435992D01*
X84482082Y-59434228D01*
X84482080Y-59434228D01*
X84476912Y-59434165D01*
X84256092Y-59467955D01*
X84043757Y-59537357D01*
X83845608Y-59640507D01*
X83841475Y-59643610D01*
X83841472Y-59643612D01*
X83671101Y-59771530D01*
X83666966Y-59774635D01*
X83663394Y-59778373D01*
X83540505Y-59906969D01*
X83512630Y-59936138D01*
X83405202Y-60093621D01*
X83350294Y-60138621D01*
X83279769Y-60146792D01*
X83216022Y-60115538D01*
X83195325Y-60091054D01*
X83114823Y-59966617D01*
X83114821Y-59966614D01*
X83112015Y-59962277D01*
X82961671Y-59797051D01*
X82957620Y-59793852D01*
X82957616Y-59793848D01*
X82790415Y-59661800D01*
X82790411Y-59661798D01*
X82786360Y-59658598D01*
X82590790Y-59550638D01*
X82585921Y-59548914D01*
X82585917Y-59548912D01*
X82385088Y-59477795D01*
X82385084Y-59477794D01*
X82380213Y-59476069D01*
X82375120Y-59475162D01*
X82375117Y-59475161D01*
X82165374Y-59437800D01*
X82165368Y-59437799D01*
X82160285Y-59436894D01*
X82086453Y-59435992D01*
X81942082Y-59434228D01*
X81942080Y-59434228D01*
X81936912Y-59434165D01*
X81716092Y-59467955D01*
X81503757Y-59537357D01*
X81305608Y-59640507D01*
X81301475Y-59643610D01*
X81301472Y-59643612D01*
X81131101Y-59771530D01*
X81126966Y-59774635D01*
X81123394Y-59778373D01*
X81000505Y-59906969D01*
X80972630Y-59936138D01*
X80865202Y-60093621D01*
X80810294Y-60138621D01*
X80739769Y-60146792D01*
X80676022Y-60115538D01*
X80655325Y-60091054D01*
X80574823Y-59966617D01*
X80574821Y-59966614D01*
X80572015Y-59962277D01*
X80421671Y-59797051D01*
X80417620Y-59793852D01*
X80417616Y-59793848D01*
X80250415Y-59661800D01*
X80250411Y-59661798D01*
X80246360Y-59658598D01*
X80050790Y-59550638D01*
X80045921Y-59548914D01*
X80045917Y-59548912D01*
X79845088Y-59477795D01*
X79845084Y-59477794D01*
X79840213Y-59476069D01*
X79835120Y-59475162D01*
X79835117Y-59475161D01*
X79625374Y-59437800D01*
X79625368Y-59437799D01*
X79620285Y-59436894D01*
X79546453Y-59435992D01*
X79402082Y-59434228D01*
X79402080Y-59434228D01*
X79396912Y-59434165D01*
X79176092Y-59467955D01*
X78963757Y-59537357D01*
X78765608Y-59640507D01*
X78761475Y-59643610D01*
X78761472Y-59643612D01*
X78591101Y-59771530D01*
X78586966Y-59774635D01*
X78583394Y-59778373D01*
X78460505Y-59906969D01*
X78432630Y-59936138D01*
X78306744Y-60120680D01*
X78291004Y-60154590D01*
X78218014Y-60311834D01*
X78212689Y-60323305D01*
X78152990Y-60538570D01*
X78129252Y-60760695D01*
X78129549Y-60765848D01*
X78129549Y-60765851D01*
X78135012Y-60860590D01*
X78142111Y-60983715D01*
X78143248Y-60988761D01*
X78143249Y-60988767D01*
X78163120Y-61076939D01*
X78191223Y-61201639D01*
X78275267Y-61408616D01*
X78326020Y-61491438D01*
X78389292Y-61594688D01*
X78391988Y-61599088D01*
X78538251Y-61767938D01*
X78542233Y-61771244D01*
X78543958Y-61772933D01*
X78578636Y-61834885D01*
X78574316Y-61905750D01*
X78532369Y-61963029D01*
X78466113Y-61988538D01*
X78455792Y-61988960D01*
X74905986Y-61988634D01*
X69733832Y-61988159D01*
X69665715Y-61968151D01*
X69619227Y-61914491D01*
X69607845Y-61862269D01*
X69605924Y-59668702D01*
X69625866Y-59600564D01*
X69679481Y-59554024D01*
X69720503Y-59543111D01*
X69841079Y-59532137D01*
X69848100Y-59531498D01*
X69854802Y-59529320D01*
X69854804Y-59529320D01*
X70013909Y-59477624D01*
X70013912Y-59477623D01*
X70020608Y-59475447D01*
X70176412Y-59382569D01*
X70307766Y-59257482D01*
X70408143Y-59106402D01*
X70410645Y-59099817D01*
X70410647Y-59099812D01*
X70420130Y-59074847D01*
X70463019Y-59018268D01*
X70529687Y-58993859D01*
X70581837Y-59001492D01*
X70614824Y-59013760D01*
X70614832Y-59013762D01*
X70621428Y-59016215D01*
X70628409Y-59017146D01*
X70628411Y-59017147D01*
X70777561Y-59037048D01*
X70777565Y-59037048D01*
X70784542Y-59037979D01*
X70791553Y-59037341D01*
X70791557Y-59037341D01*
X70941403Y-59023704D01*
X70941404Y-59023704D01*
X70948424Y-59023065D01*
X70977062Y-59013760D01*
X71098230Y-58974390D01*
X71098233Y-58974389D01*
X71104929Y-58972213D01*
X71246279Y-58887951D01*
X71365449Y-58774468D01*
X71369350Y-58768597D01*
X71452614Y-58643275D01*
X71452615Y-58643273D01*
X71456515Y-58637403D01*
X71514951Y-58483568D01*
X71529426Y-58380570D01*
X71537302Y-58324534D01*
X71537303Y-58324527D01*
X71537853Y-58320610D01*
X71538141Y-58300000D01*
X71519798Y-58136466D01*
X71465680Y-57981060D01*
X71453050Y-57960847D01*
X71382209Y-57847479D01*
X71378476Y-57841505D01*
X71320499Y-57783122D01*
X71267486Y-57729737D01*
X71267482Y-57729734D01*
X71262522Y-57724739D01*
X71123580Y-57636563D01*
X71074447Y-57619068D01*
X70975189Y-57583723D01*
X70975187Y-57583722D01*
X70968555Y-57581361D01*
X70961569Y-57580528D01*
X70961565Y-57580527D01*
X70847071Y-57566875D01*
X70805153Y-57561877D01*
X70798150Y-57562613D01*
X70798149Y-57562613D01*
X70754935Y-57567155D01*
X70641495Y-57579078D01*
X70634827Y-57581348D01*
X70492382Y-57629840D01*
X70492379Y-57629841D01*
X70485715Y-57632110D01*
X70345555Y-57718337D01*
X70227982Y-57833473D01*
X70218956Y-57847479D01*
X70158231Y-57941705D01*
X70104516Y-57988129D01*
X70034229Y-57998144D01*
X70010053Y-57992148D01*
X69876925Y-57944743D01*
X69876920Y-57944742D01*
X69870290Y-57942381D01*
X69863302Y-57941548D01*
X69863299Y-57941547D01*
X69715366Y-57923907D01*
X69650093Y-57895979D01*
X69610280Y-57837196D01*
X69604285Y-57798903D01*
X69600671Y-53673134D01*
X70241500Y-53673134D01*
X70248255Y-53735316D01*
X70299385Y-53871705D01*
X70386739Y-53988261D01*
X70503295Y-54075615D01*
X70639684Y-54126745D01*
X70701866Y-54133500D01*
X71368982Y-54133500D01*
X71437103Y-54153502D01*
X71483596Y-54207158D01*
X71493700Y-54277432D01*
X71464206Y-54342012D01*
X71420231Y-54374607D01*
X71349278Y-54406197D01*
X71349276Y-54406198D01*
X71343248Y-54408882D01*
X71188747Y-54521134D01*
X71184326Y-54526044D01*
X71184325Y-54526045D01*
X71071949Y-54650852D01*
X71060960Y-54663056D01*
X71002686Y-54763990D01*
X70987754Y-54789853D01*
X70965473Y-54828444D01*
X70906458Y-55010072D01*
X70905768Y-55016633D01*
X70905768Y-55016635D01*
X70904921Y-55024693D01*
X70886496Y-55200000D01*
X70887186Y-55206565D01*
X70904942Y-55375500D01*
X70906458Y-55389928D01*
X70965473Y-55571556D01*
X71060960Y-55736944D01*
X71065378Y-55741851D01*
X71065379Y-55741852D01*
X71154834Y-55841202D01*
X71188747Y-55878866D01*
X71252750Y-55925367D01*
X71320914Y-55974891D01*
X71343248Y-55991118D01*
X71349276Y-55993802D01*
X71349278Y-55993803D01*
X71511681Y-56066109D01*
X71517712Y-56068794D01*
X71611113Y-56088647D01*
X71698056Y-56107128D01*
X71698061Y-56107128D01*
X71704513Y-56108500D01*
X71895487Y-56108500D01*
X71901939Y-56107128D01*
X71901944Y-56107128D01*
X71988887Y-56088647D01*
X72082288Y-56068794D01*
X72088319Y-56066109D01*
X72250722Y-55993803D01*
X72250724Y-55993802D01*
X72256752Y-55991118D01*
X72279087Y-55974891D01*
X72347250Y-55925367D01*
X72411253Y-55878866D01*
X72445166Y-55841202D01*
X72534621Y-55741852D01*
X72534622Y-55741851D01*
X72539040Y-55736944D01*
X72634527Y-55571556D01*
X72693542Y-55389928D01*
X72695059Y-55375500D01*
X72712814Y-55206565D01*
X72713504Y-55200000D01*
X72695079Y-55024693D01*
X72694232Y-55016635D01*
X72694232Y-55016633D01*
X72693542Y-55010072D01*
X72634527Y-54828444D01*
X72612247Y-54789853D01*
X72597314Y-54763990D01*
X72539040Y-54663056D01*
X72528052Y-54650852D01*
X72415675Y-54526045D01*
X72415674Y-54526044D01*
X72411253Y-54521134D01*
X72256752Y-54408882D01*
X72250724Y-54406198D01*
X72250722Y-54406197D01*
X72179769Y-54374607D01*
X72125673Y-54328627D01*
X72105024Y-54260700D01*
X72124376Y-54192391D01*
X72177587Y-54145390D01*
X72231018Y-54133500D01*
X72498134Y-54133500D01*
X72560316Y-54126745D01*
X72696705Y-54075615D01*
X72813261Y-53988261D01*
X72900615Y-53871705D01*
X72951745Y-53735316D01*
X72958500Y-53673134D01*
X72958500Y-51876866D01*
X72951745Y-51814684D01*
X72900615Y-51678295D01*
X72813261Y-51561739D01*
X72696705Y-51474385D01*
X72577687Y-51429767D01*
X72520923Y-51387125D01*
X72496223Y-51320564D01*
X72511430Y-51251215D01*
X72532977Y-51222535D01*
X72634052Y-51121812D01*
X72640730Y-51113965D01*
X72765003Y-50941020D01*
X72770313Y-50932183D01*
X72864670Y-50741267D01*
X72868469Y-50731672D01*
X72930377Y-50527910D01*
X72932555Y-50517837D01*
X72933986Y-50506962D01*
X72931775Y-50492778D01*
X72918617Y-50489000D01*
X70283225Y-50489000D01*
X70269694Y-50492973D01*
X70268257Y-50502966D01*
X70298565Y-50637446D01*
X70301645Y-50647275D01*
X70381770Y-50844603D01*
X70386413Y-50853794D01*
X70497694Y-51035388D01*
X70503777Y-51043699D01*
X70643213Y-51204667D01*
X70650577Y-51211879D01*
X70655522Y-51215985D01*
X70695156Y-51274889D01*
X70696653Y-51345870D01*
X70659537Y-51406392D01*
X70619264Y-51430910D01*
X70511705Y-51471232D01*
X70511704Y-51471233D01*
X70503295Y-51474385D01*
X70386739Y-51561739D01*
X70299385Y-51678295D01*
X70248255Y-51814684D01*
X70241500Y-51876866D01*
X70241500Y-53673134D01*
X69600671Y-53673134D01*
X69597426Y-49969183D01*
X70264389Y-49969183D01*
X70265912Y-49977607D01*
X70278292Y-49981000D01*
X71327885Y-49981000D01*
X71343124Y-49976525D01*
X71344329Y-49975135D01*
X71346000Y-49967452D01*
X71346000Y-49962885D01*
X71854000Y-49962885D01*
X71858475Y-49978124D01*
X71859865Y-49979329D01*
X71867548Y-49981000D01*
X72918344Y-49981000D01*
X72931875Y-49977027D01*
X72933180Y-49967947D01*
X72891214Y-49800875D01*
X72887894Y-49791124D01*
X72802972Y-49595814D01*
X72798105Y-49586739D01*
X72682426Y-49407926D01*
X72676136Y-49399757D01*
X72532806Y-49242240D01*
X72525273Y-49235215D01*
X72358139Y-49103222D01*
X72349552Y-49097517D01*
X72163117Y-48994599D01*
X72153705Y-48990369D01*
X71952959Y-48919280D01*
X71942988Y-48916646D01*
X71871837Y-48903972D01*
X71858540Y-48905432D01*
X71854000Y-48919989D01*
X71854000Y-49962885D01*
X71346000Y-49962885D01*
X71346000Y-48918102D01*
X71342082Y-48904758D01*
X71327806Y-48902771D01*
X71289324Y-48908660D01*
X71279288Y-48911051D01*
X71076868Y-48977212D01*
X71067359Y-48981209D01*
X70878463Y-49079542D01*
X70869738Y-49085036D01*
X70699433Y-49212905D01*
X70691726Y-49219748D01*
X70544590Y-49373717D01*
X70538104Y-49381727D01*
X70418098Y-49557649D01*
X70413000Y-49566623D01*
X70323338Y-49759783D01*
X70319775Y-49769470D01*
X70264389Y-49969183D01*
X69597426Y-49969183D01*
X69590015Y-41508265D01*
X78451319Y-41508265D01*
X78467377Y-41672039D01*
X78519320Y-41828186D01*
X78604567Y-41968944D01*
X78718879Y-42087318D01*
X78856577Y-42177425D01*
X79010816Y-42234786D01*
X79017797Y-42235717D01*
X79017799Y-42235718D01*
X79166949Y-42255619D01*
X79166953Y-42255619D01*
X79173930Y-42256550D01*
X79180941Y-42255912D01*
X79180945Y-42255912D01*
X79330791Y-42242275D01*
X79330792Y-42242275D01*
X79337812Y-42241636D01*
X79366450Y-42232331D01*
X79487618Y-42192961D01*
X79487621Y-42192960D01*
X79494317Y-42190784D01*
X79635667Y-42106522D01*
X79754837Y-41993039D01*
X79762796Y-41981060D01*
X79842002Y-41861846D01*
X79842003Y-41861844D01*
X79845903Y-41855974D01*
X79904339Y-41702139D01*
X79915916Y-41619767D01*
X79926690Y-41543105D01*
X79926691Y-41543098D01*
X79927241Y-41539181D01*
X79927529Y-41518571D01*
X79909186Y-41355037D01*
X79903386Y-41338380D01*
X79868200Y-41237340D01*
X79855068Y-41199631D01*
X79847109Y-41186893D01*
X79771597Y-41066050D01*
X79767864Y-41060076D01*
X79698674Y-40990401D01*
X79656874Y-40948308D01*
X79656870Y-40948305D01*
X79651910Y-40943310D01*
X79512968Y-40855134D01*
X79455274Y-40834590D01*
X79364577Y-40802294D01*
X79364575Y-40802293D01*
X79357943Y-40799932D01*
X79350957Y-40799099D01*
X79350953Y-40799098D01*
X79236459Y-40785446D01*
X79194541Y-40780448D01*
X79187538Y-40781184D01*
X79187537Y-40781184D01*
X79144323Y-40785726D01*
X79030883Y-40797649D01*
X79024215Y-40799919D01*
X78881770Y-40848411D01*
X78881767Y-40848412D01*
X78875103Y-40850681D01*
X78734943Y-40936908D01*
X78617370Y-41052044D01*
X78528226Y-41190368D01*
X78525815Y-41196991D01*
X78525814Y-41196994D01*
X78474354Y-41338380D01*
X78474353Y-41338385D01*
X78471944Y-41345003D01*
X78451319Y-41508265D01*
X69590015Y-41508265D01*
X69583556Y-34134608D01*
X69603498Y-34066472D01*
X69657113Y-34019932D01*
X69709556Y-34008500D01*
X78491377Y-34008500D01*
X78492148Y-34008502D01*
X78569721Y-34008976D01*
X78598152Y-34000850D01*
X78614915Y-33997272D01*
X78615753Y-33997152D01*
X78644187Y-33993080D01*
X78667564Y-33982451D01*
X78685087Y-33976004D01*
X78709771Y-33968949D01*
X78717365Y-33964157D01*
X78717368Y-33964156D01*
X78734780Y-33953170D01*
X78749865Y-33945030D01*
X78776782Y-33932792D01*
X78796235Y-33916030D01*
X78811239Y-33904927D01*
X78832958Y-33891224D01*
X78838897Y-33884499D01*
X78838901Y-33884496D01*
X78852532Y-33869062D01*
X78864724Y-33857018D01*
X78880327Y-33843573D01*
X78880329Y-33843570D01*
X78887127Y-33837713D01*
X78901094Y-33816165D01*
X78912385Y-33801291D01*
X78923431Y-33788783D01*
X78923432Y-33788782D01*
X78929378Y-33782049D01*
X78941943Y-33755287D01*
X78950263Y-33740309D01*
X78961471Y-33723017D01*
X78961473Y-33723012D01*
X78966352Y-33715485D01*
X78968922Y-33706892D01*
X78968924Y-33706887D01*
X78973711Y-33690880D01*
X78980372Y-33673436D01*
X78987467Y-33658324D01*
X78987468Y-33658322D01*
X78991281Y-33650200D01*
X78995830Y-33620983D01*
X78999613Y-33604268D01*
X79005515Y-33584534D01*
X79005516Y-33584528D01*
X79008086Y-33575934D01*
X79008296Y-33541494D01*
X79008329Y-33540711D01*
X79008500Y-33539614D01*
X79008500Y-33508623D01*
X79008502Y-33507853D01*
X79008952Y-33434215D01*
X79008952Y-33434214D01*
X79008976Y-33430279D01*
X79008592Y-33428935D01*
X79008500Y-33427590D01*
X79008500Y-32169000D01*
X79028502Y-32100879D01*
X79082158Y-32054386D01*
X79134500Y-32043000D01*
X79865500Y-32043000D01*
X79933621Y-32063002D01*
G37*
%TD.AperFunction*%
%TA.AperFunction,Conductor*%
G36*
X85924027Y-61469144D02*
G01*
X85951876Y-61500994D01*
X86011988Y-61599088D01*
X86158251Y-61767938D01*
X86162234Y-61771245D01*
X86164673Y-61773633D01*
X86199351Y-61835584D01*
X86195031Y-61906449D01*
X86153084Y-61963729D01*
X86086828Y-61989238D01*
X86076508Y-61989660D01*
X85630117Y-61989620D01*
X85601810Y-61989617D01*
X85533691Y-61969609D01*
X85487203Y-61915949D01*
X85477105Y-61845674D01*
X85506604Y-61781096D01*
X85512881Y-61774366D01*
X85606436Y-61681137D01*
X85610097Y-61677489D01*
X85669595Y-61594689D01*
X85740454Y-61496077D01*
X85741777Y-61497028D01*
X85788646Y-61453857D01*
X85858581Y-61441625D01*
X85924027Y-61469144D01*
G37*
%TD.AperFunction*%
%TA.AperFunction,Conductor*%
G36*
X101318121Y-32063002D02*
G01*
X101364614Y-32116658D01*
X101376000Y-32169000D01*
X101376000Y-33491377D01*
X101375998Y-33492147D01*
X101375524Y-33569721D01*
X101377991Y-33578352D01*
X101383650Y-33598153D01*
X101387228Y-33614915D01*
X101391420Y-33644187D01*
X101395134Y-33652355D01*
X101395134Y-33652356D01*
X101402048Y-33667562D01*
X101408496Y-33685086D01*
X101415551Y-33709771D01*
X101420343Y-33717365D01*
X101420344Y-33717368D01*
X101431330Y-33734780D01*
X101439469Y-33749863D01*
X101451708Y-33776782D01*
X101457569Y-33783584D01*
X101468470Y-33796235D01*
X101479573Y-33811239D01*
X101493276Y-33832958D01*
X101500001Y-33838897D01*
X101500004Y-33838901D01*
X101515438Y-33852532D01*
X101527482Y-33864724D01*
X101540927Y-33880327D01*
X101540930Y-33880329D01*
X101546787Y-33887127D01*
X101554316Y-33892007D01*
X101554317Y-33892008D01*
X101568335Y-33901094D01*
X101583209Y-33912385D01*
X101595717Y-33923431D01*
X101602451Y-33929378D01*
X101629211Y-33941942D01*
X101644191Y-33950263D01*
X101661483Y-33961471D01*
X101661488Y-33961473D01*
X101669015Y-33966352D01*
X101677608Y-33968922D01*
X101677613Y-33968924D01*
X101678266Y-33969119D01*
X101678834Y-33969488D01*
X101685764Y-33972690D01*
X101685302Y-33973690D01*
X101737801Y-34007799D01*
X101766972Y-34072526D01*
X101756519Y-34142749D01*
X101709760Y-34196173D01*
X101700352Y-34201598D01*
X101625608Y-34240507D01*
X101621475Y-34243610D01*
X101621472Y-34243612D01*
X101597248Y-34261800D01*
X101446966Y-34374635D01*
X101292630Y-34536138D01*
X101185202Y-34693621D01*
X101130294Y-34738621D01*
X101059769Y-34746792D01*
X100996022Y-34715538D01*
X100975325Y-34691054D01*
X100894823Y-34566617D01*
X100894821Y-34566614D01*
X100892015Y-34562277D01*
X100741671Y-34397051D01*
X100737620Y-34393852D01*
X100737616Y-34393848D01*
X100570415Y-34261800D01*
X100570411Y-34261798D01*
X100566360Y-34258598D01*
X100370790Y-34150638D01*
X100252013Y-34108577D01*
X100194476Y-34066983D01*
X100168560Y-34000886D01*
X100182494Y-33931270D01*
X100211509Y-33894977D01*
X100217458Y-33891224D01*
X100223397Y-33884500D01*
X100223400Y-33884497D01*
X100237032Y-33869062D01*
X100249224Y-33857018D01*
X100264827Y-33843573D01*
X100264829Y-33843570D01*
X100271627Y-33837713D01*
X100285594Y-33816165D01*
X100296885Y-33801291D01*
X100307931Y-33788783D01*
X100307932Y-33788782D01*
X100313878Y-33782049D01*
X100326443Y-33755287D01*
X100334763Y-33740309D01*
X100345971Y-33723017D01*
X100345973Y-33723012D01*
X100350852Y-33715485D01*
X100353422Y-33706892D01*
X100353424Y-33706887D01*
X100358211Y-33690880D01*
X100364872Y-33673436D01*
X100371967Y-33658324D01*
X100371968Y-33658322D01*
X100375781Y-33650200D01*
X100380330Y-33620983D01*
X100384113Y-33604268D01*
X100390015Y-33584534D01*
X100390016Y-33584528D01*
X100392586Y-33575934D01*
X100392796Y-33541494D01*
X100392829Y-33540711D01*
X100393000Y-33539614D01*
X100393000Y-33508623D01*
X100393002Y-33507853D01*
X100393452Y-33434215D01*
X100393452Y-33434214D01*
X100393476Y-33430279D01*
X100393092Y-33428935D01*
X100393000Y-33427590D01*
X100393000Y-32169000D01*
X100413002Y-32100879D01*
X100466658Y-32054386D01*
X100519000Y-32043000D01*
X101250000Y-32043000D01*
X101318121Y-32063002D01*
G37*
%TD.AperFunction*%
%TD*%
M02*
